<svg xmlns="http://www.w3.org/2000/svg" viewBox="0 0 147.74 163.76"><defs><style>.cls-1{fill:#f9ae1e;}</style></defs><g id="Layer_2" data-name="Layer 2"><g id="Layer_1-2" data-name="Layer 1"><path class="cls-1" d="M124.38,109.83a56,56,0,0,0,13.54-9c6.71-5.74,9.51-11.38,8.32-16.76A2.09,2.09,0,0,0,145,82.63a2,2,0,0,0-1.93.22A77,77,0,0,1,117,94.2c-1.09.25-2.2.49-3.32.72-6.22,1.32-12.65,2.68-17.43,7.21l-.07.08c-7.2-3.84-16.08-5.77-25.76-5.58A87.74,87.74,0,0,0,57.17,98,47.17,47.17,0,0,0,69.54,83.1c1.14-.53,2.27-1.09,3.38-1.68,3.8,2.14,8.43,3.17,14.54,3.21h.45c23.1,0,45.69-13.71,56.33-34.23a4.32,4.32,0,0,0,.38-3.81c-.89-1.94-3.09-2.11-3.82-2.17-.46,0-.93,0-1.4-.08a19.46,19.46,0,0,0,5.09-5.85c2-4.06,2.75-8.59,3.16-12.49.51-4.83-1.6-6.45-2.91-7a5.88,5.88,0,0,0-3.22-.25c-1.13.17-2.27.4-3.41.64l.12-7.69c0-2.64-1.3-3.54-2.1-3.84a3.71,3.71,0,0,0-1.74-.17,21.18,21.18,0,0,0-9.57,3.52l-.06-2.62A4,4,0,0,0,124.45,7,4,4,0,0,0,121.15,5c-6.88-1-15.31-1.46-21.64,2.63l-1-3.21A6.42,6.42,0,0,0,96.23.82C94.83-.16,92.4-.75,88.75,2,74.83,12.34,66.41,26.13,65.64,39.81c-.32,5.6.6,11.12,1.49,16.46.3,1.81.61,3.61.86,5.42,1,7.14,1.08,13.09-1.81,18.85l0,.06A44.39,44.39,0,0,1,48.73,98.75a45.16,45.16,0,0,0,.85-7.28l0-.71c.9-15.22,1.14-29.94-5.77-42.68a2.08,2.08,0,0,0-3.49-.25c-3.42,4.6-4.43,10.28-5.32,15.3-1.33,7.44-2.69,15.13-2.41,22.93.23,6.37,1.08,14.67,5.25,18.13A102.26,102.26,0,0,0,26,110.43C9.1,121.2-1.3,141.85.13,161.83a2.08,2.08,0,0,0,2.07,1.93h.15a2.07,2.07,0,0,0,1.92-2.22c-1-13.91,4.21-28.18,13.51-38.64,2,5.88,13.35,8.69,16.84,9.42a33.67,33.67,0,0,0,6.82.7,30.62,30.62,0,0,0,16.46-4.64,2.07,2.07,0,0,0-.19-3.6L47,119.42c-4.51-2.24-9.18-4.56-14.38-5.5a24.38,24.38,0,0,0-3.86-.29,114.44,114.44,0,0,1,11.85-6.12c2.2-1,4.39-2.07,6.54-3.17,7.43-1.82,15.32-3.41,23.39-3.56a50,50,0,0,1,21.25,3.88,8.62,8.62,0,0,0-.82.79,47.79,47.79,0,0,0-10.56,44.07c1.3,4.73,3.83,7.53,7.1,7.9a6.12,6.12,0,0,0,.74,0c3.41,0,6.36-2.72,8.36-7.76a74,74,0,0,0,4.17-14.7l8.89,15.19a40.67,40.67,0,0,0,3.72,5.61,4.39,4.39,0,0,0,3.21,1.84h.09a4.37,4.37,0,0,0,2.45-.87,18.89,18.89,0,0,0,8.12-14.39,44,44,0,0,0,9.61,1.14,36.15,36.15,0,0,0,9.35-1.19,2.07,2.07,0,0,0,1.5-2.41A43.72,43.72,0,0,0,124.38,109.83ZM87.49,80.48a29.24,29.24,0,0,1-10.22-1.59c1.31-.83,2.58-1.71,3.83-2.63a57.09,57.09,0,0,0,6.53.41,57.9,57.9,0,0,0,28.48-7.49,84.65,84.65,0,0,0,16-12.21c2.88-2.68,5.66-5.51,8.35-8.4h.1C130.5,67.82,109.21,80.6,87.49,80.48ZM104.26,22.8a18,18,0,0,1,3.35-4.42c3.74-4,7.5-7.65,12.15-8.57-3.15,4.13-4.52,8.53-6,13.17-.45,1.44-.91,2.91-1.44,4.43-1.73,5-4,10.38-7.57,14.49a34.23,34.23,0,0,0,1-6.67A41.34,41.34,0,0,0,104.26,22.8ZM103,47.62c.47-1.25.88-2.45,1.24-3.63,4.51-4.37,7.15-10.56,9.12-16.24.53-1.52,1-3,1.45-4.46,1.5-4.76,2.82-8.93,5.88-12.9L121.09,28c.09,3.43.18,7-1,10.08-2.07,5.44-7.67,8.82-13.75,12-1.94.83-3.84,1.75-5.7,2.74C101.48,51.17,102.27,49.41,103,47.62ZM96.31,60.33h0A68.2,68.2,0,0,1,108,53.94l.1,0,0,0A69.28,69.28,0,0,1,137,48.4c-5.7,2.92-11,6-16.61,9.3-2.36,1.39-4.74,2.78-7.18,4.18-9,5.15-20.2,11-29.94,12.71A65.1,65.1,0,0,0,96.31,60.33Zm42.8-11.84c-2.5,2.66-5.09,5.25-7.74,7.73A84.5,84.5,0,0,1,115.6,68.28,57,57,0,0,1,84,75.52c9.76-1.85,20.81-7.65,29.69-12.74,2.44-1.4,4.82-2.8,7.18-4.18,6.09-3.57,11.88-7,18.17-10.11Zm3-25.59a3.43,3.43,0,0,1,1.06,0c.19.08.56.88.36,2.71-.37,3.53-1,7.6-2.74,11.06-1.52,3-6.3,6.77-9.73,7.7a74.69,74.69,0,0,0-11.15,1.5A18.41,18.41,0,0,0,124,39.56c1.47-3.86,1.36-8,1.27-11.66l-.08-3.1c4.05.87,8.12-.05,12.07-.94C138.86,23.49,140.49,23.13,142.1,22.9Zm-17-6.62a17.71,17.71,0,0,1,8.94-4.42l-.13,8.47c-3.15.65-6.14,1-8.89.13l-.1-4.07C125,16.34,125.07,16.33,125.13,16.28ZM119.2,8.89c-4.77,1.08-8.58,4.75-12.35,8.78a22.66,22.66,0,0,0-3,3.68c-.61-2.15-1.28-4.24-1.92-6.24l-1.1-3.39C105.72,7.94,113,8.1,119.2,8.89ZM69.78,40.05C70.49,27.6,78.3,14.93,91.23,5.3A4.68,4.68,0,0,1,93.6,4.17a.49.49,0,0,1,.25,0,3.86,3.86,0,0,1,.67,1.44L98,16.39c2,6.06,4,12.32,3.68,18.64a36.23,36.23,0,0,1-2.6,11.1A60.61,60.61,0,0,1,71.83,77.3c1.34-5.06,1.1-10.27.27-16.19-.26-1.84-.56-3.68-.87-5.52C70.34,50.24,69.49,45.18,69.78,40.05ZM45.48,90.51l0,.74c-.12,2.24-.43,7.92-2.09,9.83a1.92,1.92,0,0,0-.64.44c-2.48-2.71-3-6.9-3.07-11.09-.18-7,0-14.09.4-21.08.15-2.27.52-4.63.92-7.13a73.14,73.14,0,0,0,1-8.47C46.52,64.73,46.25,77.41,45.48,90.51Zm-8.7-4.6c-.27-7.36,1.06-14.83,2.34-22.06a65.79,65.79,0,0,1,1.57-7.1c-.2,1.76-.47,3.55-.75,5.31-.39,2.41-.78,4.91-.93,7.23-.45,7-.59,14.14-.41,21.17.11,4,.56,8.09,2.73,11C39.75,100.88,37.22,98,36.78,85.91Zm-1.31,42.33c-6.25-1.3-13.13-4.2-13.82-6.8a2.89,2.89,0,0,1-.11-1,55.39,55.39,0,0,0,27.26,7.21l.82,0A28.49,28.49,0,0,1,35.47,128.24Zm-12.24-8,1.6.08a41.57,41.57,0,0,1,8.46,1c2.63.71,5.28,1.59,7.83,2.44,3,1,6.1,2,9.25,2.81A54.26,54.26,0,0,1,23.23,120.23ZM31.85,118h0c4.62.83,9,3,13.27,5.13l4.21,2.1c-2.67-.72-5.31-1.58-7.88-2.44s-5.23-1.73-7.89-2.45a41.3,41.3,0,0,0-8.67-1.07l-2.5-.17c1.35-.94,4-1.34,6.41-1.34A17.48,17.48,0,0,1,31.85,118Zm68-8.15.52.21a44.17,44.17,0,0,0,5,1.79,23.55,23.55,0,0,0,4.48.74,223.35,223.35,0,0,1,24.48,14.65,28.2,28.2,0,0,1,7.16,6.38,37,37,0,0,1,1.75,5.14c-.48.1-1,.17-1.47.24a114,114,0,0,1-31.1-16.12,47.66,47.66,0,0,1-9.91-9.25C100.44,112.36,100.15,111.1,99.81,109.86Zm40,20.43a43.05,43.05,0,0,0-5-3.9,225,225,0,0,0-22.69-13.73,29.65,29.65,0,0,0,6.4-.83s0,0,.07,0A39.43,39.43,0,0,1,139.83,130.29ZM99.37,104.93c3.92-3.56,9.65-4.77,15.19-5.94,1.14-.24,2.27-.48,3.39-.74a81,81,0,0,0,24.17-9.87c-.71,2.89-3,6-6.9,9.33-5,4.26-9.3,7.05-13.58,8.78a24.27,24.27,0,0,1-15.25,1.36,39.54,39.54,0,0,1-4.5-1.63c-.83-.33-1.67-.67-2.53-1C99.37,105.13,99.37,105,99.37,104.93Zm-6.65,43.24c-.51,1.27-2.34,5.45-4.78,5.12-2.06-.23-3.18-3.49-3.56-4.88A43.53,43.53,0,0,1,94,108.25a7.58,7.58,0,0,1,.7-.66,45.35,45.35,0,0,1,2,7.4,13.48,13.48,0,0,0,.45,3C98.32,127.43,96.82,137.82,92.72,148.17Zm24,5.18-.16-.19a38,38,0,0,1-3.34-5.07l-11.54-19.73c0-.05-.08-.08-.11-.13l0-.64a19.53,19.53,0,0,0,4.48,5,61,61,0,0,0,17,8.63A14.72,14.72,0,0,1,116.72,153.35ZM105,125.22c.8.79,1.63,1.56,2.46,2.29,2,1.72,4,3.37,6.06,5-1.69-1-3.38-2.05-5-3.24A15.59,15.59,0,0,1,105,125.22Zm13.75,10c-3.61-2.69-7.21-5.47-10.61-8.45a37.19,37.19,0,0,1-5.43-5.64,23.72,23.72,0,0,1-1.43-3.73c-.07-.53-.14-1.06-.22-1.59a52.27,52.27,0,0,0,8.92,8,115.4,115.4,0,0,0,29.29,15.55A42.79,42.79,0,0,1,118.76,135.18Z"/></g></g></svg>