<?xml version="1.0" encoding="utf-8"?>
<!-- Generator: Adobe Illustrator 25.2.1, SVG Export Plug-In . SVG Version: 6.00 Build 0)  -->
<svg version="1.1" id="Layer_1" xmlns="http://www.w3.org/2000/svg" xmlns:xlink="http://www.w3.org/1999/xlink" x="0px" y="0px"
	 viewBox="0 0 147.7 163.8" style="enable-background:new 0 0 147.7 163.8;" xml:space="preserve">
<style type="text/css">
	.st0{fill:#B08C3E;}
</style>
<path class="st0" d="M32.5,123.4c-0.2,0.7-0.8,1.1-1.5,1.1c-0.2,0-0.4,0-0.5-0.1C8.9,116.8,1.3,97.8,0.9,97
	c-0.3-0.8,0.1-1.7,0.9-2.1c0.8-0.3,1.7,0.1,2.1,0.9c0.1,0.2,7.4,18.4,27.6,25.5C32.3,121.6,32.7,122.5,32.5,123.4z M25.7,110.8
	c0.3,0.3,0.7,0.4,1.1,0.4c0.4,0,0.9-0.2,1.2-0.5c0.6-0.6,0.5-1.6-0.1-2.2c-0.2-0.2-17.8-16.7-12.7-49.3c0.1-0.9-0.5-1.7-1.3-1.8
	c-0.9-0.1-1.7,0.5-1.8,1.3C6.6,92.9,24.9,110.1,25.7,110.8z M94,156.7c-30.7-3.1-44.3-17.3-44.4-17.5c-0.6-0.6-1.6-0.7-2.2-0.1
	c-0.6,0.6-0.7,1.6-0.1,2.2c0.6,0.6,14.5,15.3,46.5,18.5c0.1,0,0.1,0,0.2,0c0.8,0,1.5-0.6,1.6-1.4C95.5,157.5,94.9,156.8,94,156.7z
	 M146.9,77.3l-1.4,7.2c-0.2,1.1-5.5,27.8-29.4,42c-9.6,5.7-20.7,8.6-33.3,8.6c-10.6,0-22.2-2-34.9-6.1c-0.8-0.3-1.3-1.2-1-2
	c0.3-0.8,1.2-1.3,2-1c26.7,8.6,48.8,7.8,65.6-2.2c10.4-6.2,17.1-15,21.3-22.8c-9.9,12.7-24.7,21.1-43.8,24.7
	c-7.8,1.4-15.2,1.9-21.4,1.9c-9.6,0-16.2-1.1-16.3-1.1c-0.6-0.1-1-0.6-0.9-1.2c0.1-0.6,0.6-1,1.2-0.9c0.2,0,17.5,2.8,37-0.8
	c22.8-4.2,38.8-15,47.8-32.1c-15.4,13.8-41.2,16.4-42.4,16.5l-0.1,0c-41.2,0-46,15.6-46,15.7c-0.2,0.8-1.1,1.3-1.9,1.1
	c-0.8-0.2-1.3-1.1-1.1-1.9c0.2-0.6,3.6-12.8,30.3-16.8c0.1,0,0.1-0.1,0.2-0.1c33.9-13.3,41.5-39.9,43.1-53.9
	c-12.1,28.9-43.8,42.8-44.2,43c-0.1,0.1-0.3,0.1-0.4,0.1c-0.4,0-0.8-0.2-1-0.6c-0.2-0.5,0-1.2,0.6-1.4c0.3-0.1,32-14,43.4-42.8
	c-13.6,14.2-45.9,28.2-48.2,29.2c-3.8,2.1-7.1,4.4-10,6.9c-1,1-2,2-3.1,2.9c-15.2,15.7-14.1,35.8-14.1,36l0.6,8.5l-3.5-7.7
	c-1.5-2.3-23.8-38.1,2.3-71.5c0.3-0.4,28.4-32.7,31.4-45.9L76.5,4l1.9,4.7C79,10,91.5,41.9,75.3,66.8c-0.4,0.7-2.8,5.5-6.4,10.8
	c0.5-0.3,1-0.6,1.5-0.8l0.1-0.1c0.4-0.2,44.5-19.2,51.5-34.3l2.5-5.3l0.5,5.8c0,0.4,3.3,41.3-36.9,62.2c2.8-0.2,5.7-0.3,8.8-0.3
	c1.7-0.2,33.3-3.7,45.7-21.5L146.9,77.3z M56.1,87.6c0.1-0.1,0.2-0.2,0.3-0.3c0.1,0,0.1-0.1,0.2-0.2c1-1,2-2,3.1-3
	c7.2-7.6,12.8-18.7,12.8-18.8l0.1-0.2c11.2-17.2,7.6-38.7,4.8-49.1c-0.9,8.3-3,22.3-8,31.7c-0.2,0.4-0.6,0.6-0.9,0.6
	c-0.2,0-0.3,0-0.5-0.1c-0.5-0.3-0.7-0.9-0.4-1.4c4.5-8.3,6.6-20.8,7.6-29.1c-8.3,15.5-27.7,37.9-28.7,39.1
	c-15.2,19.4-13,39.8-8.7,53.1c-1-10.2,0.4-23.8,10.5-36.1c3.2-3.5,11.9-13.4,13.5-17.6c0.3-0.8,1.2-1.2,2.1-0.9
	c0.8,0.3,1.2,1.2,0.9,2.1c-2.2,5.5-13.6,17.9-14,18.5c-12.1,14.8-10.8,31.7-8.5,41.2C43.2,109.3,46.6,97.7,56.1,87.6z M48.4,118
	c0.4,0,0.7-0.2,0.9-0.5c0.1-0.1,8.4-13.8,19.6-18.2c0.5-0.2,0.8-0.8,0.6-1.4c-0.2-0.5-0.8-0.8-1.4-0.6
	c-11.8,4.6-20.3,18.5-20.6,19.1c-0.3,0.5-0.1,1.1,0.4,1.4C48,118,48.2,118,48.4,118z"/>
</svg>
