<?xml version="1.0" encoding="utf-8"?>
<!-- Generator: Adobe Illustrator 25.2.1, SVG Export Plug-In . SVG Version: 6.00 Build 0)  -->
<svg version="1.1" id="Layer_1" xmlns="http://www.w3.org/2000/svg" xmlns:xlink="http://www.w3.org/1999/xlink" x="0px" y="0px"
	 viewBox="0 0 147.7 163.8" style="enable-background:new 0 0 147.7 163.8;" xml:space="preserve">
<style type="text/css">
	.st0{fill:#FF9C2C;}
</style>
<g id="Layer_2_1_">
	<g id="Layer_1-2">
		<path class="st0" d="M124.4,109.8c4.9-2.3,9.5-5.4,13.5-9c6.7-5.7,9.5-11.4,8.3-16.8c-0.2-0.7-0.6-1.2-1.2-1.4
			c-0.6-0.3-1.4-0.2-1.9,0.2c-7.9,5.4-16.8,9.2-26.1,11.3c-1.1,0.2-2.2,0.5-3.3,0.7c-6.2,1.3-12.7,2.7-17.4,7.2l-0.1,0.1
			c-7.2-3.8-16.1-5.8-25.8-5.6c-4.4,0.1-8.9,0.6-13.2,1.4c5.1-4.1,9.3-9.1,12.4-14.9c1.1-0.5,2.3-1.1,3.4-1.7
			c3.8,2.1,8.4,3.2,14.5,3.2h0.4c23.1,0,45.7-13.7,56.3-34.2c0.7-1.1,0.9-2.6,0.4-3.8c-0.9-1.9-3.1-2.1-3.8-2.2
			c-0.5,0-0.9,0-1.4-0.1c2.1-1.6,3.8-3.6,5.1-5.8c2-4.1,2.8-8.6,3.2-12.5c0.5-4.8-1.6-6.4-2.9-7c-1-0.4-2.1-0.5-3.2-0.2
			c-1.1,0.2-2.3,0.4-3.4,0.6l0.1-7.7c0-2.6-1.3-3.5-2.1-3.8c-0.6-0.2-1.2-0.3-1.7-0.2c-3.4,0.4-6.7,1.6-9.6,3.5l-0.1-2.6
			c0-0.5-0.1-1.1-0.3-1.6c-0.7-1.2-1.9-1.9-3.3-2c-6.9-1-15.3-1.5-21.6,2.6l-1-3.2c-0.3-1.4-1.1-2.7-2.3-3.6c-1.4-1-3.8-1.6-7.5,1.2
			C74.8,12.3,66.4,26.1,65.6,39.8c-0.3,5.6,0.6,11.1,1.5,16.5c0.3,1.8,0.6,3.6,0.9,5.4c1,7.1,1.1,13.1-1.8,18.8v0.1
			c-3.9,7.6-10,13.9-17.5,18.2c0.5-2.4,0.8-4.8,0.8-7.3v-0.7c0.9-15.2,1.1-29.9-5.8-42.7c-0.6-1-1.8-1.4-2.8-0.8
			c-0.3,0.1-0.5,0.3-0.7,0.6c-3.4,4.6-4.4,10.3-5.3,15.3c-1.3,7.4-2.7,15.1-2.4,22.9c0.2,6.4,1.1,14.7,5.2,18.1
			c-4.1,1.8-8,3.9-11.8,6.2C9.1,121.2-1.3,141.9,0.1,161.8c0.1,1.1,1,1.9,2.1,1.9h0.2c1.1-0.1,2-1.1,1.9-2.2c0,0,0,0,0,0
			c-1-13.9,4.2-28.2,13.5-38.6c2,5.9,13.4,8.7,16.8,9.4c2.2,0.5,4.5,0.7,6.8,0.7c5.8,0,11.5-1.6,16.5-4.6c1-0.6,1.2-1.9,0.6-2.9
			c-0.2-0.3-0.5-0.6-0.8-0.7L47,119.4c-4.5-2.2-9.2-4.6-14.4-5.5c-1.3-0.2-2.6-0.3-3.9-0.3c3.8-2.3,7.8-4.3,11.9-6.1
			c2.2-1,4.4-2.1,6.5-3.2c7.4-1.8,15.3-3.4,23.4-3.6c7.3-0.3,14.5,1.1,21.2,3.9c-0.3,0.2-0.6,0.5-0.8,0.8
			c-10.7,12-14.7,28.5-10.6,44.1c1.3,4.7,3.8,7.5,7.1,7.9c0.2,0,0.5,0,0.7,0c3.4,0,6.4-2.7,8.4-7.8c1.9-4.7,3.3-9.7,4.2-14.7
			l8.9,15.2c1.1,2,2.3,3.8,3.7,5.6c0.7,1.1,1.9,1.7,3.2,1.8h0.1c0.9,0,1.7-0.3,2.4-0.9c4.8-3.3,7.8-8.6,8.1-14.4
			c3.2,0.7,6.4,1.1,9.6,1.1c3.2,0,6.3-0.4,9.4-1.2c1.1-0.3,1.7-1.3,1.5-2.4C144.9,126.8,136.3,115.8,124.4,109.8z M87.5,80.5
			c-3.5,0.1-6.9-0.5-10.2-1.6c1.3-0.8,2.6-1.7,3.8-2.6c2.2,0.3,4.3,0.4,6.5,0.4c10,0,19.8-2.6,28.5-7.5c5.8-3.4,11.2-7.5,16-12.2
			c2.9-2.7,5.7-5.5,8.4-8.4h0.1C130.5,67.8,109.2,80.6,87.5,80.5z M104.3,22.8c0.9-1.6,2-3.1,3.3-4.4c3.7-4,7.5-7.6,12.2-8.6
			c-3.2,4.1-4.5,8.5-6,13.2c-0.4,1.4-0.9,2.9-1.4,4.4c-1.7,5-4,10.4-7.6,14.5c0.6-2.2,0.9-4.4,1-6.7C105.9,31,105.4,26.8,104.3,22.8
			z M103,47.6c0.5-1.2,0.9-2.5,1.2-3.6c4.5-4.4,7.2-10.6,9.1-16.2c0.5-1.5,1-3,1.4-4.5c1.5-4.8,2.8-8.9,5.9-12.9l0.4,17.6
			c0.1,3.4,0.2,7-1,10.1c-2.1,5.4-7.7,8.8-13.8,12c-1.9,0.8-3.8,1.8-5.7,2.7C101.5,51.2,102.3,49.4,103,47.6z M96.3,60.3L96.3,60.3
			c3.7-2.5,7.6-4.6,11.7-6.4h0.1l0,0c9.1-3.9,19-5.8,28.9-5.5c-5.7,2.9-11,6-16.6,9.3c-2.4,1.4-4.7,2.8-7.2,4.2
			c-9,5.1-20.2,11-29.9,12.7C88.3,70.5,92.7,65.7,96.3,60.3z M139.1,48.5c-2.5,2.7-5.1,5.2-7.7,7.7c-4.8,4.6-10.1,8.7-15.8,12.1
			C106,73.7,95,76.2,84,75.5c9.8-1.8,20.8-7.7,29.7-12.7c2.4-1.4,4.8-2.8,7.2-4.2C127,55,132.8,51.6,139.1,48.5L139.1,48.5z
			 M142.1,22.9c0.4-0.1,0.7-0.1,1.1,0c0.2,0.1,0.6,0.9,0.4,2.7c-0.4,3.5-1,7.6-2.7,11.1c-1.5,3-6.3,6.8-9.7,7.7
			c-3.7,0.2-7.5,0.7-11.2,1.5c1.8-1.8,3.2-3.9,4.1-6.3c1.5-3.9,1.4-8,1.3-11.7l-0.1-3.1c4,0.9,8.1,0,12.1-0.9
			C138.9,23.5,140.5,23.1,142.1,22.9L142.1,22.9z M125.1,16.3c2.5-2.3,5.6-3.8,8.9-4.4l-0.1,8.5c-3.1,0.6-6.1,1-8.9,0.1l-0.1-4.1
			C125,16.3,125.1,16.3,125.1,16.3L125.1,16.3z M119.2,8.9c-4.8,1.1-8.6,4.8-12.3,8.8c-1.1,1.1-2.1,2.4-3,3.7
			c-0.6-2.1-1.3-4.2-1.9-6.2l-1.1-3.4C105.7,7.9,113,8.1,119.2,8.9z M69.8,40c0.7-12.4,8.5-25.1,21.5-34.8c0.7-0.6,1.5-1,2.4-1.1
			c0.1,0,0.2,0,0.2,0c0.3,0.4,0.5,0.9,0.7,1.4L98,16.4c2,6.1,4,12.3,3.7,18.6c-0.3,3.8-1.2,7.6-2.6,11.1
			c-5.1,13.3-14.8,24.3-27.2,31.2c1.3-5.1,1.1-10.3,0.3-16.2c-0.3-1.8-0.6-3.7-0.9-5.5C70.3,50.2,69.5,45.2,69.8,40z M45.5,90.5v0.7
			c-0.1,2.2-0.4,7.9-2.1,9.8c-0.2,0.1-0.5,0.3-0.6,0.4c-2.5-2.7-3-6.9-3.1-11.1c-0.2-7,0-14.1,0.4-21.1c0.2-2.3,0.5-4.6,0.9-7.1
			c0.5-2.8,0.8-5.6,1-8.5C46.5,64.7,46.2,77.4,45.5,90.5z M36.8,85.9c-0.3-7.4,1.1-14.8,2.3-22.1c0.4-2.4,0.9-4.8,1.6-7.1
			c-0.2,1.8-0.5,3.5-0.8,5.3c-0.4,2.4-0.8,4.9-0.9,7.2c-0.5,7-0.6,14.1-0.4,21.2c0.1,4,0.6,8.1,2.7,11C39.8,100.9,37.2,98,36.8,85.9
			z M35.5,128.2c-6.2-1.3-13.1-4.2-13.8-6.8c-0.1-0.3-0.1-0.7-0.1-1c8.3,4.7,17.7,7.2,27.3,7.2h0.8C45,129,40.2,129.2,35.5,128.2z
			 M23.2,120.2l1.6,0.1c2.8,0,5.7,0.4,8.5,1c2.6,0.7,5.3,1.6,7.8,2.4c3,1,6.1,2,9.2,2.8C40.9,126.9,31.6,124.7,23.2,120.2
			L23.2,120.2z M31.9,118L31.9,118c4.6,0.8,9,3,13.3,5.1l4.2,2.1c-2.7-0.7-5.3-1.6-7.9-2.4s-5.2-1.7-7.9-2.4c-2.8-0.7-5.8-1-8.7-1.1
			l-2.5-0.2c1.4-0.9,4-1.3,6.4-1.3C29.8,117.8,30.8,117.8,31.9,118z M99.8,109.8l0.5,0.2c1.6,0.7,3.3,1.3,5,1.8
			c1.5,0.4,3,0.6,4.5,0.7c8.5,4.4,16.6,9.2,24.5,14.7c2.7,1.7,5.2,3.9,7.2,6.4c0.7,1.7,1.3,3.4,1.8,5.1c-0.5,0.1-1,0.2-1.5,0.2
			c-11.1-3.7-21.6-9.2-31.1-16.1c-3.7-2.6-7.1-5.7-9.9-9.2C100.4,112.4,100.2,111.1,99.8,109.8L99.8,109.8z M139.9,130.3
			c-1.6-1.4-3.2-2.7-5-3.9c-7.3-5-14.9-9.6-22.7-13.7c2.2,0,4.3-0.3,6.4-0.8c0,0,0,0,0.1,0C127.7,115.2,135.3,121.7,139.9,130.3
			L139.9,130.3z M99.4,104.9c3.9-3.6,9.7-4.8,15.2-5.9c1.1-0.2,2.3-0.5,3.4-0.7c8.5-2,16.7-5.3,24.2-9.9c-0.7,2.9-3,6-6.9,9.3
			c-5,4.3-9.3,7.1-13.6,8.8c-4.8,2.1-10.2,2.6-15.2,1.4c-1.5-0.5-3-1-4.5-1.6c-0.8-0.3-1.7-0.7-2.5-1
			C99.4,105.1,99.4,105,99.4,104.9z M92.7,148.2c-0.5,1.3-2.3,5.4-4.8,5.1c-2.1-0.2-3.2-3.5-3.6-4.9c-3.8-14.2-0.1-29.2,9.6-40.2
			c0.2-0.2,0.5-0.5,0.7-0.7c0.9,2.4,1.5,4.9,2,7.4c0,1,0.2,2,0.4,3C98.3,127.4,96.8,137.8,92.7,148.2z M116.7,153.3l-0.2-0.2
			c-1.2-1.6-2.4-3.3-3.3-5.1l-11.5-19.7c0-0.1-0.1-0.1-0.1-0.1v-0.6c1.2,1.9,2.7,3.6,4.5,5c5.2,3.7,10.9,6.7,17,8.6
			C123.1,146.1,120.7,150.6,116.7,153.3L116.7,153.3z M105,125.2c0.8,0.8,1.6,1.6,2.5,2.3c2,1.7,4,3.4,6.1,5c-1.7-1-3.4-2.1-5-3.2
			C107.1,128.1,105.9,126.8,105,125.2z M118.8,135.2c-3.6-2.7-7.2-5.5-10.6-8.4c-2-1.7-3.8-3.6-5.4-5.6c-0.6-1.2-1.1-2.4-1.4-3.7
			c-0.1-0.5-0.1-1.1-0.2-1.6c2.7,3,5.6,5.7,8.9,8c9,6.6,18.8,11.8,29.3,15.5C132.2,139.7,125.1,138.2,118.8,135.2L118.8,135.2z"/>
	</g>
</g>
</svg>
