<?xml version="1.0" encoding="utf-8"?>
<!-- Generator: Adobe Illustrator 25.2.1, SVG Export Plug-In . SVG Version: 6.00 Build 0)  -->
<svg version="1.1" id="Layer_1" xmlns="http://www.w3.org/2000/svg" xmlns:xlink="http://www.w3.org/1999/xlink" x="0px" y="0px"
	 viewBox="0 0 62.7 116.7" style="enable-background:new 0 0 62.7 116.7;" xml:space="preserve">
<style type="text/css">
	.st0{fill:#FF0000;}
</style>
<g>
	<path class="st0" d="M19.7,55.5c2.1,1.2,4.3,2.3,6.5,3.2c0,0,0,0,0,0c6.8,2.7,14.2,3.9,21.5,3.4c0.1,0,0.2,0,0.3,0
		c0.6-0.2,1.1-0.4,1.7-0.5c-0.6-0.3-1.2-0.6-1.8-1c-3.5-0.6-7.1-1.3-10.5-2.4c-7.5-2.4-14.3-6.6-20.6-10.9
		c-5.1-3.4-10.1-7.1-14.9-10.6C5.7,44.3,12,51,19.7,55.5z"/>
	<path class="st0" d="M40.3,55.5c-3.6-2.2-7.3-4.5-10.6-7.3c-6.8-1.7-14-5.4-19.5-8.5l-0.7-0.4C9,39,8.5,38.8,8,38.5
		c3.6,2.6,7.3,5,11.2,7.1C26,49.4,33.2,52.5,40.3,55.5z"/>
	<path class="st0" d="M14.1,59.7c2-0.7,3.9-1.1,5.8-1.3c-0.5-0.3-0.9-0.5-1.4-0.8c-0.4-0.3-0.9-0.5-1.3-0.8c-0.1,0-0.1,0-0.2,0
		c-1.2-0.4-2.5-0.2-4-0.1C10,57,7.1,57.4,4.3,57.8c-1.1,0.2-2.1,0.3-3,0.7c2,1.7,4.3,3,6.8,3.8C10,61.3,12,60.4,14.1,59.7z"/>
	<path class="st0" d="M25.1,64.4c-1.9,0.1-3.9,0.5-5.8,0.9c-0.8,0.2-1.6,0.3-2.4,0.5c-2.7,0.5-5.5,0.7-8.2,0.7
		c2.2,0.9,4.6,1.5,7.1,1.7C18.7,66.8,21.8,65.5,25.1,64.4z"/>
	<path class="st0" d="M27.1,63.8c1.4-0.4,2.8-0.7,4.3-1c-2-0.5-4.1-1.2-6-2c-3.1-0.6-6.6-0.3-10.4,1c-2.8,1-5.5,2.4-8.1,3.8
		c0.2,0.1,0.3,0.2,0.5,0.2c3.2,0.1,6.4-0.1,9.5-0.7c0.8-0.1,1.6-0.3,2.4-0.5C21.7,64.2,24.4,63.7,27.1,63.8z"/>
	<path class="st0" d="M12.4,70.3c-0.4,0.2-0.7,0.4-1.1,0.7c0,0,0,0,0,0C11.6,70.7,12,70.5,12.4,70.3C12.4,70.3,12.4,70.3,12.4,70.3z
		"/>
	<path class="st0" d="M58.5,51.4c-0.4-4.4-2-8.4-3.8-12.7c-0.8-1.9-1.5-3.8-2.2-5.8c-3.5-10.3-3.7-21.7-0.7-32.1C52,0.4,52,0.1,52,0
		c0,0-0.1,0-0.2,0c-0.2,0-0.5,0-0.7,0c-2.7,6-3.6,13.3-2.6,21.3c0.9,7.4,3.4,14.7,5.9,21.5l0,0.1c1.5,4,3,8.1,3,12.2
		c0,1.1-0.1,2.2-0.4,3.3c0,0.2,0,0.3,0,0.5c0,0,0,0,0,0C58.7,56.3,58.7,52.9,58.5,51.4z"/>
	<path class="st0" d="M51.8,63.5c-7.5,1.8-14.9,6.4-21.2,13.2c-5.7,6.3-10.1,13.8-14,21.2c6-6.6,12.5-13.5,19.6-21.1
		c1.6-1.7,3.4-3.6,5.3-5.3c2.4-2.2,5.1-4.4,8.6-6.3C50.6,64.8,51.2,64.1,51.8,63.5z"/>
	<path class="st0" d="M2.5,36.3c4.8,3.5,9.7,7,14.6,10.4c6.2,4.2,13,8.5,20.4,10.8c2.9,0.9,6,1.5,9,2.1c-1.1-0.7-2.2-1.5-3.3-2.3
		c-0.1-0.1-0.2-0.1-0.3-0.2c-8-3.3-16.3-6.7-24-11c-4.8-2.7-9.4-5.7-13.7-9C4.3,36.8,3.4,36.5,2.5,36.3z"/>
	<path class="st0" d="M36.7,77.4C28.9,85.6,22,93,15.5,100.1c-0.2,0.3-0.3,0.7-0.5,1c-0.2,0.5-0.3,0.7-0.3,0.8c0,0,0.1,0,0.3,0
		c0,0,0,0,0,0c0,0,0,0,0,0c4.9-3.1,8.8-7.5,12.6-11.7l10.3-11.6c2-2.2,4-4.6,6.3-6.7c0.5-0.5,1-0.9,1.5-1.4c0.5-0.4,1-0.9,1.5-1.3
		c0.6-0.9,1.2-1.8,1.9-2.6c-2.9,1.7-5.1,3.6-7.2,5.5C40,73.8,38.2,75.7,36.7,77.4z"/>
	<path class="st0" d="M25.1,44c-2-2.1-3.6-4.4-4.9-6.7C21.5,39.7,23.2,42,25.1,44c0.1,0.2,0.2,0.2,0.2,0.3c0,0,0.1,0,0.1,0
		C25.3,44.2,25.2,44.1,25.1,44z"/>
	<path class="st0" d="M46,71.2c-0.5,0.4-0.9,0.8-1.4,1.3c-2.2,2.1-4.3,4.4-6.3,6.6L28.1,90.6C24.5,94.7,20.7,99,16,102
		c2.9,0,5.7-2,8.1-4c7-5.8,15.3-15.9,18.6-20.2C43.6,75.7,44.7,73.4,46,71.2z"/>
	<path class="st0" d="M38.4,27.2c0-3,0.3-6.1,0.8-9.1C38.6,21.1,38.4,24.1,38.4,27.2C38.4,27.2,38.4,27.2,38.4,27.2z"/>
	<path class="st0" d="M12.9,100c4-7.8,8.4-15.9,14.3-22.9c0,0-0.1,0-0.1,0C21.3,84,16.9,92,13,99.7c-0.1,0.2-0.2,0.4-0.3,0.6
		C12.8,100.2,12.8,100.1,12.9,100z"/>
	<path class="st0" d="M38,113.2c-0.7-11,0.1-20.5,2.5-28.7c0,0.1-0.1,0.1-0.2,0.2c-2.2,8.1-3,17.4-2.4,28.2c0,0.4,0.1,0.9,0.1,1.3
		C38,113.8,38,113.5,38,113.2z"/>
	<path class="st0" d="M40.4,113.1c0.1,1,0.3,2.3,0.8,3c1.6-1,2.5-2.9,3-4.3c0.9-2.6,1.5-5.3,2-7.9c1.3-6.2,2.6-12.6,3.5-18.9
		l0.1-0.8c0.3-2.2,0.6-4.5,1.3-6.6c0.9-2.6,2.3-5.1,3.7-7.4c1-1.7,2.1-3.5,2.9-5.3c0.4-0.9,0.8-1.9,0.8-2.9c-0.4,0-0.8,0.1-1.2,0.3
		c0,0,0,0,0,0c-0.1,0.1-0.3,0.2-0.5,0.2c-0.7,0.4-1.5,1-2.4,1.9c-5.9,5.6-9.2,13.2-11,18.5c-2.2,6.7-3.3,14.3-3.3,23.1
		C40.2,108.2,40.3,110.6,40.4,113.1z"/>
	<path class="st0" d="M56.8,56.5c0.4-4.5-1.3-9-2.9-13.4l0-0.1c-2.5-6.8-5-14.1-5.9-21.6c-1-7.9-0.1-15.1,2.5-21.2
		c-2,0.7-3.5,3.1-4.3,4.7c-0.1,0.2-0.2,0.5-0.4,0.7c-1,2.9-1.2,6.1-1.3,8.9c-0.1,3.7,0.1,6.7,0.6,9.5c0.8,4.7,3.3,10.1,5.6,15.2
		c2.6,5.7,5,11.1,5.4,15.6C56.4,55.4,56.6,55.9,56.8,56.5z"/>
	<path class="st0" d="M50.2,39.5c-2.3-5.2-4.8-10.6-5.6-15.4c-0.5-2.8-0.7-5.8-0.7-9.6c0-1.8,0.1-3.7,0.4-5.7
		C41.4,16.1,40.2,24.2,41,32c2.4,3.9,5.1,7.7,7.9,11.4l1.4,1.9c1.4,1.9,3.5,4.7,5,7.5C54.4,48.8,52.4,44.3,50.2,39.5z"/>
	<path class="st0" d="M54.1,60.3c0.2,0,0.3-0.1,0.5-0.5c1.2-3.2-4-10.1-6.2-13l-1.4-1.9C39.8,35.1,32.5,25.1,32,13.1
		c0-0.3,0-0.6-0.1-0.8c-0.1-0.2-0.7-0.3-1.5-0.2c-5.6,0.9-10.3,6.7-10.7,13.2c-0.3,5.6,2.3,11.9,7.1,17c4.5,4.8,10.2,8.3,15.7,11.7
		c0.5,0.3,1.1,0.8,2,1.4C46.8,57,52.1,60.9,54.1,60.3z"/>
	<path class="st0" d="M31.3,72.6c3.5-3.3,7.2-6,11.1-8.1c-0.9,0-1.8-0.1-2.8-0.2c0,0,0,0,0,0c-7.9,0.3-15.8,2.5-22.7,6.2
		c-0.1,0.1-0.3,0.2-0.5,0.2c-1.3,0.7-2.6,1.5-3.8,2.3c-3.7,2.4-7,5.4-10.3,8.2c0,0,0,0,0,0C11.4,79.5,22,77.2,31.3,72.6z"/>
	<path class="st0" d="M58.4,65c-0.8,1.9-1.9,3.7-3,5.4c-1.4,2.3-2.8,4.7-3.7,7.3c-0.7,2.1-1,4.3-1.3,6.5L50.3,85
		c-0.9,6.4-2.2,12.8-3.5,18.9c-0.5,2.6-1.1,5.4-2.1,8c-0.5,1.5-1.4,3.5-3.1,4.5c0.1,0.1,0.2,0.1,0.3,0.2c1.8,0.5,3.1-3.6,3.3-4.1
		c1.7-5.6,4.4-10.9,7-16c1.8-3.5,3.6-7.1,5.1-10.7c1.6-3.9,2.8-8,3.7-12.2c1-5.1,0.3-10.5-1.6-11.5c0,0-0.1,0-0.1-0.1
		C59.2,63.1,58.8,64.1,58.4,65z"/>
</g>
</svg>
