<?xml version="1.0" encoding="utf-8"?>
<!-- Generator: Adobe Illustrator 25.2.1, SVG Export Plug-In . SVG Version: 6.00 Build 0)  -->
<svg version="1.1" id="Layer_1" xmlns="http://www.w3.org/2000/svg" xmlns:xlink="http://www.w3.org/1999/xlink" x="0px" y="0px"
	 viewBox="0 0 116.7 62.7" style="enable-background:new 0 0 116.7 62.7;" xml:space="preserve">
<style type="text/css">
	.st0{fill:#FF0000;}
</style>
<g>
	<path class="st0" d="M61.2,19.7c-1.2,2.1-2.3,4.3-3.2,6.5c0,0,0,0,0,0c-2.7,6.8-3.9,14.2-3.4,21.5c0,0.1,0,0.2,0,0.3
		c0.2,0.6,0.4,1.1,0.5,1.7c0.3-0.6,0.6-1.2,1-1.8c0.6-3.5,1.3-7.1,2.4-10.5c2.4-7.5,6.6-14.3,10.9-20.6c3.4-5.1,7.1-10.1,10.6-14.9
		C72.4,5.7,65.7,12,61.2,19.7z"/>
	<path class="st0" d="M61.2,40.3c2.2-3.6,4.5-7.3,7.3-10.6c1.7-6.8,5.4-14,8.5-19.5l0.4-0.7c0.3-0.5,0.5-1,0.8-1.4
		c-2.6,3.6-5,7.3-7.1,11.2C67.3,26,64.2,33.2,61.2,40.3z"/>
	<path class="st0" d="M57,14.1c0.7,2,1.1,3.9,1.3,5.8c0.3-0.5,0.5-0.9,0.8-1.4c0.3-0.4,0.5-0.9,0.8-1.3c0-0.1,0-0.1,0-0.2
		c0.4-1.2,0.2-2.5,0.1-4c-0.3-2.9-0.7-5.8-1.1-8.6c-0.2-1.1-0.3-2.1-0.7-3c-1.7,2-3,4.3-3.8,6.8C55.4,10,56.3,12,57,14.1z"/>
	<path class="st0" d="M52.3,25.1c-0.1-1.9-0.5-3.9-0.9-5.8c-0.2-0.8-0.3-1.6-0.5-2.4c-0.5-2.7-0.7-5.5-0.7-8.2
		c-0.9,2.2-1.5,4.6-1.7,7.1C49.9,18.7,51.2,21.8,52.3,25.1z"/>
	<path class="st0" d="M52.9,27.1c0.4,1.4,0.7,2.8,1,4.3c0.5-2,1.2-4.1,2-6c0.6-3.1,0.3-6.6-1-10.4c-1-2.8-2.4-5.5-3.8-8.1
		c-0.1,0.2-0.2,0.3-0.2,0.5c-0.1,3.2,0.1,6.4,0.7,9.5c0.1,0.8,0.3,1.6,0.5,2.4C52.5,21.7,53,24.4,52.9,27.1z"/>
	<path class="st0" d="M46.4,12.4c-0.2-0.4-0.4-0.7-0.7-1.1c0,0,0,0,0,0C46,11.6,46.2,12,46.4,12.4C46.4,12.4,46.4,12.4,46.4,12.4z"
		/>
	<path class="st0" d="M65.3,58.5c4.4-0.4,8.4-2,12.7-3.8c1.9-0.8,3.8-1.5,5.8-2.2c10.3-3.5,21.7-3.7,32.1-0.7
		c0.4,0.1,0.6,0.1,0.8,0.1c0,0,0-0.1,0-0.2c0-0.2,0-0.5,0-0.7c-6-2.7-13.3-3.6-21.3-2.6C88,49.5,80.7,51.9,74,54.4l-0.1,0
		c-4,1.5-8.1,3-12.2,3c-1.1,0-2.2-0.1-3.3-0.4c-0.2,0-0.3,0-0.5,0c0,0,0,0,0,0C60.4,58.7,63.8,58.7,65.3,58.5z"/>
	<path class="st0" d="M53.2,51.8c-1.8-7.5-6.4-14.9-13.2-21.2c-6.3-5.7-13.8-10.1-21.2-14c6.6,6,13.5,12.5,21.1,19.6
		c1.7,1.6,3.6,3.4,5.3,5.3c2.2,2.4,4.4,5.1,6.3,8.6C51.9,50.6,52.6,51.2,53.2,51.8z"/>
	<path class="st0" d="M80.4,2.5c-3.5,4.8-7,9.7-10.4,14.6c-4.2,6.2-8.5,13-10.8,20.4c-0.9,2.9-1.5,6-2.1,9c0.7-1.1,1.5-2.2,2.3-3.3
		c0.1-0.1,0.1-0.2,0.2-0.3c3.3-8,6.7-16.3,11-24c2.7-4.8,5.7-9.4,9-13.7C79.9,4.3,80.2,3.4,80.4,2.5z"/>
	<path class="st0" d="M39.3,36.7C31.1,28.9,23.7,22,16.6,15.5c-0.3-0.2-0.7-0.3-1-0.5c-0.5-0.2-0.7-0.3-0.8-0.3c0,0,0,0.1,0,0.3
		c0,0,0,0,0,0c0,0,0,0,0,0c3.1,4.9,7.5,8.8,11.7,12.6l11.6,10.3c2.2,2,4.6,4,6.7,6.3c0.5,0.5,0.9,1,1.4,1.5c0.4,0.5,0.9,1,1.3,1.5
		c0.9,0.6,1.8,1.2,2.6,1.9c-1.7-2.9-3.6-5.1-5.5-7.2C42.9,40,41,38.2,39.3,36.7z"/>
	<path class="st0" d="M72.7,25.1c2.1-2,4.4-3.6,6.7-4.9C77,21.5,74.7,23.2,72.7,25.1c-0.2,0.1-0.2,0.2-0.3,0.2c0,0,0,0.1,0,0.1
		C72.5,25.3,72.6,25.2,72.7,25.1z"/>
	<path class="st0" d="M45.5,46c-0.4-0.5-0.8-0.9-1.3-1.4c-2.1-2.2-4.4-4.3-6.6-6.3L26.1,28.1C22,24.5,17.7,20.7,14.7,16
		c0,2.9,2,5.7,4,8.1c5.8,7,15.9,15.3,20.2,18.6C41,43.6,43.3,44.7,45.5,46z"/>
	<path class="st0" d="M89.5,38.4c3,0,6.1,0.3,9.1,0.8C95.6,38.6,92.6,38.4,89.5,38.4C89.5,38.4,89.5,38.4,89.5,38.4z"/>
	<path class="st0" d="M16.7,12.9c7.8,4,15.9,8.4,22.9,14.3c0,0,0-0.1,0-0.1C32.7,21.3,24.7,16.9,17,13c-0.2-0.1-0.4-0.2-0.6-0.3
		C16.5,12.8,16.6,12.8,16.7,12.9z"/>
	<path class="st0" d="M3.5,38c11-0.7,20.5,0.1,28.7,2.5c-0.1,0-0.1-0.1-0.2-0.2c-8.1-2.2-17.4-3-28.2-2.4C3.4,38,3,38,2.6,38.1
		C2.9,38,3.2,38,3.5,38z"/>
	<path class="st0" d="M3.6,40.4c-1,0.1-2.3,0.3-3,0.8c1,1.6,2.9,2.5,4.3,3c2.6,0.9,5.3,1.5,7.9,2c6.2,1.3,12.6,2.6,18.9,3.5l0.8,0.1
		c2.2,0.3,4.5,0.6,6.6,1.3c2.6,0.9,5.1,2.3,7.4,3.7c1.7,1,3.5,2.1,5.3,2.9c0.9,0.4,1.9,0.8,2.9,0.8c0-0.4-0.1-0.8-0.3-1.2
		c0,0,0,0,0,0c-0.1-0.1-0.2-0.3-0.2-0.5c-0.4-0.7-1-1.5-1.9-2.4c-5.6-5.9-13.2-9.2-18.5-11c-6.7-2.2-14.3-3.3-23.1-3.3
		C8.5,40.2,6.1,40.3,3.6,40.4z"/>
	<path class="st0" d="M60.2,56.8c4.5,0.4,9-1.3,13.4-2.9l0.1,0c6.8-2.5,14.1-5,21.6-5.9c7.9-1,15.1-0.1,21.2,2.5
		c-0.7-2-3.1-3.5-4.7-4.3c-0.2-0.1-0.5-0.2-0.7-0.4c-2.9-1-6.1-1.2-8.9-1.3c-3.7-0.1-6.7,0.1-9.5,0.6C88,46,82.7,48.4,77.5,50.8
		c-5.7,2.6-11.1,5-15.6,5.4C61.3,56.4,60.8,56.6,60.2,56.8z"/>
	<path class="st0" d="M77.2,50.2c5.2-2.3,10.6-4.8,15.4-5.6c2.8-0.5,5.8-0.7,9.6-0.7c1.8,0,3.7,0.1,5.7,0.4
		c-7.3-2.9-15.4-4.1-23.2-3.3c-3.9,2.4-7.7,5.1-11.4,7.9l-1.9,1.4c-1.9,1.4-4.7,3.5-7.5,5C67.9,54.4,72.4,52.4,77.2,50.2z"/>
	<path class="st0" d="M56.4,54.1c0,0.2,0.1,0.3,0.5,0.5c3.2,1.2,10.1-4,13-6.2l1.9-1.4c9.7-7.1,19.7-14.5,31.7-14.9
		c0.3,0,0.6,0,0.8-0.1c0.2-0.1,0.3-0.7,0.2-1.5c-0.9-5.6-6.7-10.3-13.2-10.7c-5.6-0.3-11.9,2.3-17,7.1c-4.8,4.5-8.3,10.2-11.7,15.7
		c-0.3,0.5-0.8,1.1-1.4,2C59.7,46.8,55.8,52.1,56.4,54.1z"/>
	<path class="st0" d="M44.1,31.3c3.3,3.5,6,7.2,8.1,11.1c0-0.9,0.1-1.8,0.2-2.8c0,0,0,0,0,0c-0.3-7.9-2.5-15.8-6.2-22.7
		c-0.1-0.1-0.2-0.3-0.2-0.5c-0.7-1.3-1.5-2.6-2.3-3.8c-2.4-3.7-5.4-7-8.2-10.3c0,0,0,0,0,0C37.2,11.4,39.5,22,44.1,31.3z"/>
	<path class="st0" d="M51.7,58.4c-1.9-0.8-3.7-1.9-5.4-3c-2.3-1.4-4.7-2.8-7.3-3.7c-2.1-0.7-4.3-1-6.5-1.3l-0.8-0.1
		c-6.4-0.9-12.8-2.2-18.9-3.5c-2.6-0.5-5.4-1.1-8-2.1c-1.5-0.5-3.5-1.4-4.5-3.1c-0.1,0.1-0.1,0.2-0.2,0.3c-0.5,1.8,3.6,3.1,4.1,3.3
		c5.6,1.7,10.9,4.4,16,7c3.5,1.8,7.1,3.6,10.7,5.1c3.9,1.6,8,2.8,12.2,3.7c5.1,1,10.5,0.3,11.5-1.6c0,0,0-0.1,0.1-0.1
		C53.6,59.2,52.6,58.8,51.7,58.4z"/>
</g>
</svg>
