<?xml version="1.0" encoding="utf-8"?>
<!-- Generator: Adobe Illustrator 25.2.1, SVG Export Plug-In . SVG Version: 6.00 Build 0)  -->
<svg version="1.1" id="Layer_1" xmlns="http://www.w3.org/2000/svg" xmlns:xlink="http://www.w3.org/1999/xlink" x="0px" y="0px"
	 viewBox="0 0 62.7 116.7" style="enable-background:new 0 0 62.7 116.7;" xml:space="preserve">
<style type="text/css">
	.st0{fill:#781717;}
</style>
<g id="Layer_2_1_">
	<g id="Layer_1-2">
		<path class="st0" d="M43.7,5.9c-3.5,7-5.4,14.7-5.4,22.5c-2.2-4.2-3.5-8.9-3.8-13.7c0-0.6-0.1-1.2-0.4-1.7c-0.6-1.2-2-1.7-3.9-1.4
			C23.7,12.7,18.4,19,18,26.4c-0.4,6.1,2.4,12.6,7.4,18.1l0.3,0.3c-4.7-1.8-9.2-4-13.6-6.5L11.7,38C8.5,36.3,5,34.3,1.1,34.9
			c-0.4,0.1-0.7,0.3-0.8,0.6c-0.2,0.3-0.2,0.7,0,1c3.2,7,8.1,13.2,14.2,17.9l-0.8,0.1c-2.8,0.3-5.6,0.7-8.4,1.1
			c-1.4,0.1-2.8,0.5-4.1,1.2C0.4,57,0,57.7,0,58.5c0.1,0.5,0.3,1,0.7,1.3c1.7,1.6,3.7,2.8,5.8,3.8L5,64.4c-0.4,0.2-0.6,0.6-0.6,1
			s0.2,0.8,0.5,1c2.6,1.6,5.4,2.8,8.4,3.4l-1.1,0.7C8.5,73.1,5,75.9,1.6,79c-0.5,0.3-0.8,0.9-0.9,1.4C0.6,81,0.8,81.6,1.2,82
			C2,82.6,3,82.9,4,82.6c7.4-1.4,15.7-3.2,23.5-6.3c-5.6,6.7-9.9,14.5-13.7,22c-0.7,1.4-0.7,2.6,0,3.4c0.5,0.5,1.1,0.7,1.7,0.8
			c4,0.6,7.6-1.8,10.5-4.3c4.8-4,10.3-10.1,14.2-14.8c-2.2,7.9-3,17-2.4,27.6c0.2,3.1,1.2,5,3.1,5.5c2.5,0.7,4.8-1.3,6-5.5
			c1.5-5.2,4.1-10.2,6.6-15c1.7-3.4,3.5-6.9,5-10.5c1.6-3.9,2.8-8,3.7-12.1c0.3-1.6,0.5-3.2,0.5-4.9c0-3.6-0.8-7.4-3.2-8.7
			c-0.3-0.2-0.7-0.3-1-0.4c1-2,1.5-4.2,1.5-6.4c0-0.5,0-1.1-0.1-1.6c-0.4-4.5-2.1-8.8-3.8-12.9c-0.7-1.8-1.5-3.6-2.1-5.4
			c-3.2-9.5-3.4-19.8-0.6-29.4c0.5-1,0.3-2.2-0.4-3.1c-0.4-0.4-1-0.6-1.6-0.7C48.6-0.3,45.8,1.8,43.7,5.9z M49.9,2.5
			c-2.6,6.4-3.4,13.5-2.4,20.3c0.9,7.2,3.3,14.2,5.7,20.7v0.1c1.6,4.2,3.2,8.6,2.8,12.9c-0.1-0.5-0.3-1.1-0.5-1.6
			c-0.4-4.3-2.8-9.5-5.2-15C48,35,45.7,29.8,44.9,25.3c-0.5-3-0.7-6-0.6-9.1c-0.1-2.9,0.4-5.8,1.2-8.6c0.1-0.2,0.2-0.5,0.3-0.7
			C46.6,5.5,48,3.2,49.9,2.5z M44.1,10.8c-0.3,1.8-0.4,3.6-0.4,5.5c-0.1,3.1,0.1,6.2,0.6,9.2c0.8,4.6,3.2,9.8,5.4,14.8
			c2.1,4.6,4,9,4.9,12.8c-1.4-2.5-3-4.9-4.8-7.2L48.4,44c-2.6-3.6-5.3-7.2-7.5-11C40.1,25.5,41.2,17.8,44.1,10.8z M27.3,43
			c-4.6-5-7.1-10.9-6.8-16.3c0.4-6.2,4.9-11.8,10.2-12.7c0.8-0.1,1.3,0,1.4,0.2c0.1,0.2,0.1,0.5,0.1,0.7
			c0.4,11.5,7.5,21.1,14.3,30.5l1.4,1.8C50,50,55,56.7,53.8,59.7c-0.1,0.2-0.2,0.4-0.5,0.5c-1.8,0.6-6.9-3.1-9.1-4.7
			c-0.8-0.6-1.5-1.1-1.9-1.3C37.1,50.9,31.6,47.6,27.3,43z M49.6,65.1c-3,1.7-5.8,3.7-8.3,6c-1.8,1.6-3.5,3.4-5,5
			c-6.9,7.3-13,13.9-18.8,20.2c3.7-7,7.9-14.3,13.4-20.3c6-6.6,13.1-11,20.3-12.7C50.6,63.9,50.1,64.5,49.6,65.1z M6.4,38
			c4.2,3.2,8.6,6.1,13.2,8.7c7.4,4,15.1,7.5,23,10.5l0.3,0.2c1.1,0.8,2.2,1.5,3.2,2.2c-2.9-0.5-5.8-1.2-8.6-2
			c-7.1-2.2-13.6-6.3-19.6-10.4c-4.7-3.2-9.4-6.6-14-10C4.8,37.4,5.6,37.7,6.4,38z M11.2,40.4c5.3,3,12.2,6.5,18.8,8.2
			c3.3,2.6,6.7,4.9,10.2,7c-6.9-2.7-13.7-5.9-20.2-9.4c-3.7-2.1-7.3-4.4-10.7-6.9l1.4,0.8L11.2,40.4z M3.2,37.5
			c4.7,3.4,9.5,6.9,14.3,10.2c6,4.1,12.6,8.2,19.8,10.5c3.3,1,6.7,1.7,10.1,2.3c0.6,0.4,1.2,0.7,1.8,1c-0.5,0.2-1.1,0.3-1.6,0.5
			c-0.1,0-0.2,0-0.3,0c-7,0.4-14.1-0.7-20.6-3.3l0,0c-2.2-0.9-4.2-1.9-6.2-3C13.1,51.3,7.1,45,3.2,37.5L3.2,37.5z M2.7,58.5
			c0.9-0.3,1.9-0.6,2.8-0.7c2.8-0.4,5.5-0.8,8.3-1.1c1.3-0.2,2.6-0.2,3.9,0.1c0.1,0,0.1,0,0.2,0l1.2,0.8c0.4,0.3,0.9,0.5,1.3,0.8
			c-1.9,0.2-3.7,0.6-5.5,1.2c-2,0.7-3.9,1.5-5.8,2.5C6.9,61.3,4.7,60.1,2.7,58.5L2.7,58.5z M15.7,61.8c3.2-1.2,6.6-1.5,10-1
			c1.9,0.7,3.8,1.4,5.8,1.9c-1.4,0.3-2.7,0.6-4.1,1c-2.6-0.1-5.1,0.2-7.6,0.9c-0.8,0.2-1.5,0.3-2.3,0.5c-3,0.6-6.1,0.8-9.1,0.7
			L8,65.4C10.5,64,13.1,62.8,15.7,61.8L15.7,61.8z M9.7,66.3c2.7,0,5.3-0.2,7.9-0.7c0.8-0.1,1.5-0.3,2.3-0.5
			c1.8-0.4,3.7-0.7,5.5-0.9c-3.1,1-6.1,2.2-9,3.7C14.2,67.7,11.9,67.1,9.7,66.3L9.7,66.3z M3.6,80.3c3.1-2.9,6.4-5.5,9.9-7.9
			c1.2-0.8,2.4-1.5,3.7-2.2c0.2,0,0.3-0.1,0.4-0.2c6.7-3.6,14.2-5.6,21.8-5.9l0,0c0.9,0.1,1.8,0.2,2.7,0.2
			c-3.9,2.1-7.4,4.7-10.6,7.7C22.6,76.4,12.5,78.6,3.6,80.3L3.6,80.3z M15.6,100.2c0.1-0.3,0.1-0.6,0.3-0.8c0.2-0.3,0.3-0.6,0.5-0.9
			c6.2-6.8,12.8-14,20.3-21.8c1.5-1.6,3.2-3.4,5-5c2.1-2,4.4-3.7,6.9-5.3c-0.6,0.8-1.2,1.7-1.8,2.5l-1.4,1.3c-0.5,0.4-1,0.9-1.5,1.3
			c-2.2,2-4.1,4.2-6,6.4L28.1,89c-3.6,4.1-7.4,8.3-12.1,11.3l0,0l0,0C15.9,100.1,15.8,100.1,15.6,100.2L15.6,100.2z M24.6,96.4
			c-2.3,1.9-5,3.8-7.8,3.8c4.5-3,8.1-7,11.6-11l9.9-11.1c1.9-2.1,3.8-4.3,6-6.3l1.3-1.2c-1.2,2.1-2.3,4.2-3.2,6.4
			C39.3,81.1,31.4,90.9,24.6,96.4L24.6,96.4z M40.3,110.9c-0.1-2.4-0.2-4.7-0.2-6.9C40,96.5,41,89,43.3,81.8
			C45,76.7,48.2,69.4,53.8,64c0.7-0.7,1.5-1.3,2.3-1.8c0.2,0,0.3-0.1,0.5-0.2l0,0c0.4-0.2,0.8-0.3,1.2-0.3c0,1-0.3,1.9-0.7,2.8
			c-0.8,1.8-1.8,3.5-2.8,5.1c-1.5,2.2-2.7,4.6-3.6,7.1c-0.6,2.1-1,4.2-1.3,6.3l-0.1,0.8c-0.9,6.1-2.1,12.2-3.4,18.1
			c-0.5,2.6-1.1,5.1-2,7.6c-0.5,1.7-1.5,3.1-2.8,4.1C40.5,112.8,40.3,111.9,40.3,110.9L40.3,110.9z M60,73c-0.8,4-2,7.9-3.5,11.7
			c-1.4,3.5-3.2,6.9-4.9,10.3c-2.7,4.9-5,10.1-6.7,15.4c-0.1,0.4-1.4,4.4-3.1,3.9c-0.1,0-0.2-0.1-0.3-0.2c1.4-1.1,2.5-2.6,3-4.4
			c0.9-2.5,1.5-5.1,2-7.7c1.2-5.9,2.5-12.1,3.4-18.2L50,83c0.2-2.1,0.7-4.2,1.3-6.2c0.9-2.5,2.1-4.8,3.5-7c1-1.7,2-3.4,2.8-5.2
			c0.5-0.9,0.7-1.9,0.8-2.9h0.1C60.2,62.9,61,68.1,60,73z M51.3,2.3h0.2c0,0.2-0.1,0.5-0.1,0.7c-2.9,10.1-2.7,20.9,0.7,30.8
			c0.6,1.9,1.4,3.7,2.1,5.5c1.7,4.1,3.2,8,3.6,12.2c0.3,2.4-0.2,4.9-1.4,7.1l0,0c0-0.2,0-0.3,0-0.5c0.2-1,0.3-2.1,0.3-3.1
			c0-4-1.5-7.9-2.9-11.7v-0.1c-2.4-6.5-4.8-13.5-5.6-20.6C47.3,15,48.2,8,50.7,2.2C50.9,2.3,51.1,2.3,51.3,2.3z"/>
	</g>
</g>
</svg>
