<svg id="Layer_1" data-name="Layer 1" xmlns="http://www.w3.org/2000/svg" xmlns:xlink="http://www.w3.org/1999/xlink" viewBox="0 0 540 288"><defs><style>.cls-1{fill:#fff;}.cls-2{clip-path:url(#clip-path);}.cls-3{fill:#e2d3b0;fill-rule:evenodd;}</style><clipPath id="clip-path"><rect class="cls-1" width="540" height="288" transform="translate(540 288) rotate(180)"/></clipPath></defs><rect class="cls-1" width="540" height="288" transform="translate(540 288) rotate(180)"/><g class="cls-2"><path class="cls-3" d="M-22.51,9.47v.92l13.66,7.73c.33.18.62.42,1.12.76l-1.38.79-13.4,7.54v.95l13.52-8,1.51-.87c.05.64.1,1.06.09,1.48-.08,7.56-.19,15.12-.23,22.67a2.22,2.22,0,0,1-1.27,2.19q-6.82,4-13.62,8v.58q7-3.91,14-7.87a2.23,2.23,0,0,1,2.53,0C.59,50.12,7.23,53.84,13.85,57.59c.33.19.64.42,1.2.78l-3,1.72c-6,3.37-12,6.73-18,10.13a2.21,2.21,0,0,1-2.53,0q-7-4-14-8V63c5.68,3.26,12.84,7.53,14.76,8.89q.12,12.55.23,25.26c-.74-.15-8.73-4.7-15-8.43v.81L-9.24,97c.41.23.8.49,1.35.84-.5.34-.83.6-1.19.8l-13.43,7.55V107q6.66-3.91,13.29-7.85l1.53-.88c0,.63.1,1.05.1,1.47-.08,7.6-.19,15.21-.25,22.82a1.91,1.91,0,0,1-1,1.91c-4.57,2.66-9.13,5.35-13.69,8v.76c4.67-2.62,9.33-5.23,14-7.87a2,2,0,0,1,2.27,0c6.64,3.8,13.32,7.55,20,11.32.33.19.63.41,1.08.7-.43.29-.72.53-1,.7Q3.68,143.71-6.39,149.38a1.79,1.79,0,0,1-2,0c-4.69-2.68-9.39-5.33-14.1-8v.72q6.84,4,13.68,8.09a1.54,1.54,0,0,1,.9,1.49c0,7.91.13,15.81.2,23.73,0,.19,0,.38-.08.91l-14.7-8.71v.89L-9,176.19a9.16,9.16,0,0,1,.89.65c-.49.31-.83.56-1.19.77L-22.51,185v.88l9.65-5.66c1.6-.94,3.21-1.85,5.06-2.92,0,.67.07,1.14.06,1.61-.08,7.51-.19,15-.24,22.55a2.21,2.21,0,0,1-1.26,2.19q-6.64,3.87-13.27,7.81V212c4.67-2.62,9.34-5.23,14-7.87a1.59,1.59,0,0,1,1.76-.07Q3.62,210,14,215.85a7,7,0,0,1,.64.51l-1.44.83c-6.5,3.66-13,7.29-19.5,11a2.33,2.33,0,0,1-2.67,0c-4.49-2.59-9-5.14-13.53-7.69v.73l13.32,7.88a1.78,1.78,0,0,1,1.12,1.66c0,7.85.12,15.71.19,23.57,0,.24,0,.48-.06.86a5.41,5.41,0,0,1-.94-.32l-13.63-8.07v.9l13.05,7.39c.37.2.71.46,1.23.81l-1.41.81-12.87,7.23v.76l13.65-8c.21-.12.44-.18.86-.36,0,.59.06,1,.06,1.35-.09,7.67-.19,15.33-.26,23a1.77,1.77,0,0,1-.93,1.79q-6.69,3.9-13.38,7.86V291q6.87-3.86,13.72-7.73a1.71,1.71,0,0,1,1.9-.1c6.51,3.71,13,7.38,19.55,11.07H14c-4-2-19.1-10.92-21.22-12.49q-.11-12.56-.23-25.26c1.16.29,19.79,11.18,22.12,12.9q.11,12.34.23,24.85h.5c0-.36,0-.66,0-.95.09-7.52.2-15,.23-22.55a2.34,2.34,0,0,1,1.36-2.29c6.5-3.78,13-7.62,19.45-11.43.36-.21.75-.38,1.3-.66,0,.62.08,1.09.07,1.56-.08,7.51-.19,15-.24,22.54a2.24,2.24,0,0,1-1.23,2.22c-6.5,3.78-13,7.63-19.43,11.45l-.19.11h.67q9.74-5.46,19.45-10.94a1.92,1.92,0,0,1,2.15-.08c6.46,3.7,12.95,7.35,19.43,11h1L38.44,281.83c-.08-8.45-.16-16.87-.23-25.33,1.15.31,20.23,11.49,22.06,12.9.07,8.14.15,16.33.23,24.81H61a2.79,2.79,0,0,1-.06-.63q.12-11.64.25-23.26a1.56,1.56,0,0,1,.79-1.57q6.43-3.76,12.85-7.57h0l5.68-3.36,1.87-1.1c.16-.09.35-.18.56-.28l.19-.07a7.71,7.71,0,0,1,.11,1.1c-.08,7.7-.18,15.41-.24,23.11a1.77,1.77,0,0,1-1,1.78l-7.37,4.33v.08q-6.31,3.71-12.61,7.43h1l12.37-6.95,7.09-4a2.87,2.87,0,0,1,.4-.19,1.13,1.13,0,0,1,.24-.08l.06,0a1.51,1.51,0,0,1,.67,0,2.56,2.56,0,0,1,.5.21c6.47,3.7,13,7.35,19.44,11H105Q95,288.27,85,282.33a1.44,1.44,0,0,1-.86-1.37q-.07-12-.19-24a5.44,5.44,0,0,1,.09-.6c.45.22.81.39,1.14.59l19.64,11.63a1.74,1.74,0,0,1,1.12,1.66c0,7.86.12,15.72.19,23.57,0,.13,0,.25,0,.4h.7a3.21,3.21,0,0,1-.06-.6q.14-11.62.25-23.26a1.59,1.59,0,0,1,.8-1.57q10.34-6,20.63-12.15l.34-.14.18-.07c0,.5.07.87.06,1.23-.08,7.65-.18,15.31-.25,23a1.78,1.78,0,0,1-.92,1.8q-10,5.86-20,11.8h.88c6.44-3.63,12.89-7.24,19.32-10.89a2.4,2.4,0,0,1,1.86-.27,2,2,0,0,1,.4.18c6.44,3.68,12.92,7.32,19.39,11h1.48c-3.61-1.78-17.74-10-21.28-12.48q-.11-12.56-.22-25.13c.68.24,3,1.49,5.95,3.16L149.46,268c.8.51,1.49.95,2,1.31.08,8.23.15,16.55.23,24.89h.67a5.54,5.54,0,0,1-.06-.67c.08-7.71.18-15.42.25-23.13A2,2,0,0,1,153,269a.76.76,0,0,1,.09-.09,2.73,2.73,0,0,1,.25-.2c.1-.06.18-.13.29-.19q8.41-4.9,16.8-9.85c1-.57,1.92-1.17,2.89-1.74.32-.19.68-.35,1.12-.56l.08,0c0,.55.06.92.06,1.29-.09,7.67-.19,15.33-.26,23a1.77,1.77,0,0,1-.93,1.79c-6.69,3.9-13.36,7.86-20,11.79h1.05q9.73-5.49,19.47-11a3.26,3.26,0,0,1,.43-.2l.1,0a1.8,1.8,0,0,1,.22-.06,1.4,1.4,0,0,1,.5,0,2.06,2.06,0,0,1,.5.21c6.51,3.71,13,7.38,19.55,11.07h1.46c-1.65-.85-5.24-2.88-9-5.08h0c-2-1.19-4-2.37-6-3.55-2.54-1.52-4.67-2.83-5.72-3.53a1.92,1.92,0,0,1-.46-.91q-.1-12.08-.22-24.29c0-.11,0-.21,0-.32,1,.4,4.86,2.6,9.13,5.08l3.28,1.95v0c4.41,2.6,8.52,5.09,9.54,5.84q.1,12.34.23,24.85h.65c0-.36,0-.66,0-.95.08-7.52.2-15,.23-22.55a2.31,2.31,0,0,1,1.36-2.29c6.5-3.78,13-7.62,19.45-11.43.33-.19.68-.36,1.15-.59,0,.59.08,1,.07,1.49-.08,7.51-.19,15-.23,22.54a2.26,2.26,0,0,1-1.24,2.22c-6.5,3.78-13,7.63-19.43,11.45l-.19.11H200q9.74-5.46,19.46-10.94a2.59,2.59,0,0,1,1-.36,2,2,0,0,1,1,.28c6.46,3.7,12.95,7.35,19.43,11H242l-20.88-12.38c-.08-8.43-.16-16.83-.23-25.27C223,257.45,241,268,242.81,269.4c.08,8.14.15,16.33.23,24.81h.67a4.77,4.77,0,0,1-.06-.63q.14-11.64.26-23.26a1.56,1.56,0,0,1,.79-1.57q10.35-6.08,20.67-12.18a4.29,4.29,0,0,1,.48-.19v0c0,.48.07.85.06,1.2-.08,7.66-.18,15.31-.24,23a1.9,1.9,0,0,1-1,1.88c-6.68,3.9-13.33,7.84-20,11.76h1.17q9.7-5.46,19.42-10.92a2.33,2.33,0,0,1,1-.33,1.79,1.79,0,0,1,.88.26q9.68,5.52,19.4,11h1.12l-19.92-11.79a1.56,1.56,0,0,1-1-1.47c-.05-7.95-.13-15.9-.19-23.86,0-.17,0-.36.08-.74.53.28.93.48,1.3.71,6.47,3.82,12.92,7.67,19.4,11.47a2.11,2.11,0,0,1,1.21,2.06c0,7.57.12,15.12.19,22.69,0,.29,0,.58,0,.93h.7a4.44,4.44,0,0,1-.05-.62c.08-7.7.18-15.41.26-23.11a1.67,1.67,0,0,1,.82-1.7q10.29-6,20.55-12.1a5.43,5.43,0,0,1,.58-.25c0,.49.06.81.06,1.13-.09,7.71-.19,15.41-.26,23.11a1.76,1.76,0,0,1-1,1.78c-6.67,3.9-13.32,7.84-20,11.76h.88c6.39-3.59,12.79-7.17,19.16-10.8a2.91,2.91,0,0,1,1.43-.44,2.8,2.8,0,0,1,1.22.41c6.34,3.65,12.72,7.23,19.09,10.83h1.47c-3.77-1.9-18.2-10.34-21.22-12.46-.08-8.2-.16-16.51-.24-25.17a34,34,0,0,1,3.51,1.78l18.13,10.74.28.19q.11,12.43.23,24.92H335a2,2,0,0,1-.06-.42c.08-7.86.18-15.72.24-23.58a1.81,1.81,0,0,1,1.13-1.68q8.4-4.9,16.8-9.85c1-.57,1.92-1.17,2.89-1.74.32-.19.68-.35,1.13-.57,0,.55.08,1,.07,1.36-.08,7.61-.18,15.23-.25,22.84a2.46,2.46,0,0,1-.24,1.24l0,0a1.66,1.66,0,0,1-.25.3c-.09.07-.18.15-.29.22l-.06,0c-6.71,3.91-13.39,7.87-20.08,11.81h1.06q9.76-5.5,19.51-11a2.15,2.15,0,0,1,.88-.3,1.61,1.61,0,0,1,.74.21q6,3.4,11.95,6.78v-.06l7.71,4.36h1.31c-1.63-.84-5.14-2.83-8.87-5v-.09q-5.26-3.12-10.55-6.21l-.74-.47a2.17,2.17,0,0,1-1-2c0-7.52-.12-15-.18-22.56,0-.41,0-.83.06-1.34.58.25,2.27,1.17,4.48,2.41l7.78,4.62v-.09l.15.09v0c4.41,2.6,8.52,5.09,9.53,5.84q.12,12.34.23,24.85h.51c0-.36,0-.66,0-.95.08-7.52.2-15,.23-22.55a2.31,2.31,0,0,1,1.36-2.29c6.5-3.78,13-7.62,19.45-11.43.36-.21.75-.38,1.3-.66,0,.62.07,1.09.07,1.56-.08,7.51-.19,15-.24,22.54a2.24,2.24,0,0,1-1.23,2.22c-6.5,3.78-13,7.63-19.44,11.45l-.18.11h.66q9.73-5.46,19.46-10.94a1.9,1.9,0,0,1,2.14-.08c6.47,3.7,13,7.35,19.44,11h1l-20.88-12.38c-.08-8.45-.16-16.87-.23-25.33,1.15.31,20.23,11.49,22.06,12.9.07,8.14.15,16.33.22,24.81h.53a4.77,4.77,0,0,1-.06-.63q.13-11.64.26-23.26a1.56,1.56,0,0,1,.79-1.57q10.35-6.08,20.67-12.18c.13-.07.28-.11.62-.24,0,.52.08.9.07,1.27-.08,7.66-.19,15.31-.25,23a1.9,1.9,0,0,1-1,1.88c-6.68,3.9-13.33,7.84-20,11.76h1q9.7-5.46,19.42-10.92a1.79,1.79,0,0,1,2-.07q9.68,5.52,19.4,11h1q-10-5.9-19.92-11.79a1.58,1.58,0,0,1-1-1.47c0-7.95-.13-15.9-.19-23.86,0-.19,0-.37.09-.81.6.32,1,.53,1.44.78,6.47,3.82,12.92,7.67,19.4,11.47a2.11,2.11,0,0,1,1.21,2.06c0,7.57.12,15.12.18,22.69,0,.29,0,.58,0,.93h.55a4.44,4.44,0,0,1-.05-.62q.14-11.55.26-23.11a1.67,1.67,0,0,1,.82-1.7q10.29-6,20.55-12.1c.17-.1.36-.15.72-.31,0,.53.07.86.06,1.19-.08,7.71-.19,15.41-.25,23.11a1.8,1.8,0,0,1-1,1.78c-6.67,3.9-13.32,7.84-20,11.76h.73c6.39-3.59,12.79-7.17,19.16-10.8a2.47,2.47,0,0,1,2.8,0c6.34,3.65,12.72,7.23,19.09,10.83h1.32c-3.77-1.9-18.2-10.34-21.22-12.46-.08-8.33-.16-16.75-.24-25.55l22.07,13.07q.1,12.45.23,24.94h.52a2,2,0,0,1-.06-.42c.08-7.86.19-15.72.24-23.58a1.81,1.81,0,0,1,1.13-1.68q8.42-4.9,16.8-9.85c1-.57,1.92-1.17,2.89-1.74.36-.21.75-.38,1.27-.63,0,.58.08,1,.08,1.42q-.13,11.41-.25,22.84a1.8,1.8,0,0,1-.86,1.83c-6.71,3.91-13.39,7.87-20.08,11.81h.91q9.76-5.5,19.52-11a1.57,1.57,0,0,1,1.75-.09l12,6.78v-.79q-5.5-3.27-11-6.51a2.2,2.2,0,0,1-1.24-2.19c0-7.52-.12-15-.18-22.56,0-.47,0-.93.07-1.56.53.27.92.44,1.28.66l11.12,6.59v-.85l-11.41-6.45c-.17-.1-.32-.23-.62-.44a9.27,9.27,0,0,1,.89-.7l11.14-6.26v-.72l-11.74,6.92a5.44,5.44,0,0,1-.61.22c0-.53-.06-.91-.06-1.29.08-7.65.19-15.31.25-23a1.79,1.79,0,0,1,.93-1.79q5.63-3.28,11.23-6.6v-.83c-3.77,2.13-7.55,4.26-11.31,6.4a2.3,2.3,0,0,1-2.66,0c-6.52-3.74-13.07-7.41-19.6-11.12-.38-.2-.73-.45-1.23-.78a10.1,10.1,0,0,1,.87-.62q10.21-5.73,20.41-11.48a1.69,1.69,0,0,1,1.89,0l11.63,6.59V210l-12-7.14c-.07-8.42-.15-16.85-.23-25.65l12.28,7.28v-.84L542,177.49c-.28-.17-.54-.38-1.05-.72l1.35-.78,10.6-6v-.81l-10.54,6.23-1.64.94c0-.7-.09-1.12-.08-1.54.08-7.57.19-15.13.24-22.69a2.23,2.23,0,0,1,1.26-2.2q5.4-3.14,10.76-6.32V143q-5.68,3.18-11.37,6.39a1.78,1.78,0,0,1-2,.07c-6.78-3.87-13.58-7.69-20.37-11.53-.25-.14-.46-.32-.84-.58.45-.3.77-.56,1.13-.76q10-5.62,20-11.26a1.79,1.79,0,0,1,2-.08q5.7,3.25,11.42,6.48V131c-3.64-2.16-7.27-4.32-10.92-6.46a1.79,1.79,0,0,1-1-1.74c0-7.7-.13-15.41-.19-23.12,0-.37,0-.74.09-1.29.55.29,1,.48,1.38.72l10.64,6.29v-.83L542.4,98.6c-.37-.21-.73-.46-1.23-.78.36-.26.6-.47.87-.63l10.83-6.09v-.69l-10.51,6.22-1.4.8a11.81,11.81,0,0,1-.15-1.28c.09-7.71.19-15.42.26-23.14a1.79,1.79,0,0,1,.92-1.79q5.44-3.18,10.88-6.39v-.75c-3.73,2.1-7.47,4.19-11.2,6.31a1.81,1.81,0,0,1-2,0c-6.78-3.88-13.58-7.7-20.38-11.55-.25-.14-.47-.32-.89-.61.52-.33.83-.56,1.16-.75,6.51-3.66,13-7.3,19.52-11a2.64,2.64,0,0,1,3.05,0q5.37,3.09,10.76,6.13v-.8l-11.69-6.93q-.12-12.62-.23-25.28c.71.13,6.35,3.3,11.92,6.56v-.69l-10.67-6c-.25-.14-.46-.32-.82-.57.33-.24.53-.42.76-.55l10.73-6v-.84L542.4,17.59l-1.26.73a6.79,6.79,0,0,1-.18-1.05q.1-9.27.2-18.54h-.84c.06,6.48.12,13,.18,19.74L518.44,5.39l-.06-6.66h-.83c0,1.83,0,3.64,0,5.47a1.9,1.9,0,0,1-1,1.88c-6.66,3.89-13.29,7.83-19.93,11.76-.29.17-.6.3-1,.5a3.88,3.88,0,0,1-.2-.84c.06-6.26.14-12.51.2-18.77h-.84c.06,6.49.12,13,.18,19.78L472.75,5.4l-.06-6.67h-.83l-.06,5.58A1.55,1.55,0,0,1,471,5.88Q460.66,12,450.31,18.06a4.66,4.66,0,0,1-.61.21c0-.59-.06-1-.06-1.45.07-6,.15-12.06.2-18.09H449c.06,6.5.12,13,.18,19.63-.65-.34-1.08-.54-1.48-.78-6.47-3.83-12.93-7.68-19.42-11.48A2.12,2.12,0,0,1,427.08,4c0-1.76,0-3.53,0-5.3h-.81l-.06,5.47A1.78,1.78,0,0,1,425.23,6q-10.17,5.94-20.3,12a8.36,8.36,0,0,1-.82.39c0-.5-.1-.91-.09-1.32q.09-9.13.2-18.27h-.84q.06,9.23.16,18.42c0,.33-.05.66-.09,1.22-.6-.32-1-.51-1.36-.73q-9.75-5.79-19.52-11.55a2,2,0,0,1-1.18-1.94c0-1.81,0-3.61,0-5.42h-.82l-.06,5.42a1.76,1.76,0,0,1-.94,1.78q-9.87,5.77-19.71,11.59l-.11.07-.55.32-.6.28a5.28,5.28,0,0,1-.15-.92q.1-9.27.2-18.54h-1c.05,6.45.11,13,.17,19.65l-21.91-13-.06-6.66h-1c0,1.83,0,3.64-.05,5.47a1.9,1.9,0,0,1-1,1.88q-10,5.84-19.91,11.74c-.26.14-.54.27-.91.45a3.13,3.13,0,0,1-.18-.77c.06-6.26.14-12.51.2-18.77h-1c.06,6.46.12,13,.18,19.7l-22-13-.06-6.67h-1c0,1.86-.05,3.72-.06,5.58a2.09,2.09,0,0,1-.24,1,1.37,1.37,0,0,1-.21.28l-.12.09c-.09.07-.18.15-.29.22q-10.22,6-20.39,12l-.48.23-.23.07c0-.56-.06-1-.06-1.4.07-6,.15-12.06.2-18.09h-1c.05,6.4.11,12.81.17,19.34a1.55,1.55,0,0,1,0,.21c-.56-.29-1-.48-1.32-.7-6.47-3.83-12.93-7.68-19.42-11.48A2.1,2.1,0,0,1,244.54,4c0-1.76,0-3.53,0-5.3h-.95c0,1.83-.05,3.65-.06,5.47A1.78,1.78,0,0,1,242.55,6q-10.17,5.94-20.31,12a5.23,5.23,0,0,1-.67.33c0-.48-.1-.87-.1-1.26l.21-18.27h-1q.08,9.23.16,18.42c0,.31,0,.63-.08,1.15-.51-.28-.88-.46-1.22-.66Q209.8,11.85,200,6.09a2,2,0,0,1-1.18-1.94c0-1.81,0-3.61,0-5.42h-1c0,1.81-.05,3.61-.06,5.42a1.8,1.8,0,0,1-.94,1.78c-6.79,4-13.55,8-20.31,11.94a5.91,5.91,0,0,1-.66.32c0-.11,0-.2-.07-.29,0-.39,0-.68,0-1q.09-9.1.19-18.2h-1c.06,6.46.12,12.94.18,19.63l-21.92-13-.06-6.64h-1c0,1.8,0,3.59,0,5.38a2,2,0,0,1-1.1,2q-9.93,5.81-19.81,11.68c-.28.16-.58.29-1,.49,0-.12-.06-.22-.09-.32,0-.41,0-.7,0-1,.07-6.07.15-12.14.2-18.22h-1c0,6.48.11,13,.17,19.67l-22-13-.06-6.65h-1l-.06,5.48a1.77,1.77,0,0,1-1,1.76q-10,5.88-20.06,11.81c-.24.14-.52.27-.89.44,0-.52-.1-.92-.09-1.32.06-6,.14-12.11.19-18.17h-1q.08,8.92.14,17.83c0,.5,0,1,0,1.72l-.16-.08L74.86,13v0Q69,9.57,63.05,6.1A2.12,2.12,0,0,1,61.85,4l0-5.3H61C61,.56,61,2.38,61,4.2A1.78,1.78,0,0,1,60,6c-6.79,4-13.54,8-20.31,12a8.36,8.36,0,0,1-.82.39c0-.5-.1-.91-.09-1.32q.1-9.13.2-18.27h-.84q.08,9.23.16,18.42c0,.33,0,.66-.08,1.22-.6-.32-1-.51-1.37-.73Q27.11,11.85,17.34,6.09a2,2,0,0,1-1.17-1.94c0-1.81,0-3.61,0-5.42h-.82c0,1.81,0,3.61-.05,5.42a1.8,1.8,0,0,1-.94,1.78C7.53,9.89.77,13.89-6,17.87c-.21.13-.44.21-.85.41,0-.6-.07-1-.06-1.35q.11-9.1.2-18.2h-.84c.06,6.49.12,13,.18,19.72Zm15.7,63.28a1.78,1.78,0,0,1,1.15-1.66l15.92-9.34c1.59-.94,3.2-1.85,5-2.89,0,.57.08,1,.08,1.32-.09,7.66-.19,15.33-.25,23a1.9,1.9,0,0,1-1,1.88Q4.1,90.9-5.85,96.8c-.29.18-.6.31-1,.52a3.54,3.54,0,0,1-.2-.85C-7,88.56-6.87,80.66-6.81,72.75Zm89.26-1.61a1.77,1.77,0,0,1,1,1.71c0,7.75.13,15.51.19,23.27,0,.31,0,.63-.07,1.14-.47-.24-.79-.4-1.09-.57l-7.67-4.55v0q-6-3.54-11.93-7A2.2,2.2,0,0,1,61.64,83c0-7.52-.11-15-.17-22.54,0-.47,0-.95.05-1.59.49.23.84.36,1.15.55l12,7.13v0ZM495,177.3c.57.3,1,.49,1.4.74,6.47,3.83,12.93,7.68,19.42,11.47a2.2,2.2,0,0,1,1.26,2.19c0,7.51.12,15,.18,22.56,0,.47,0,.94-.06,1.58-.58-.3-1-.49-1.41-.74-6.47-3.83-12.92-7.68-19.42-11.48a2.19,2.19,0,0,1-1.25-2.18c0-7.52-.12-15-.18-22.56C494.91,178.41,495,178,495,177.3Zm0-2.15c.08-7.75.18-15.51.25-23.26a1.57,1.57,0,0,1,.8-1.56q10.35-6.08,20.68-12.18a3.94,3.94,0,0,1,.61-.24c0,.53.07.9.07,1.28-.09,7.66-.19,15.31-.26,23a1.76,1.76,0,0,1-.91,1.79c-6.78,4-13.54,8-20.31,12a8.34,8.34,0,0,1-.8.4A11.25,11.25,0,0,1,495,175.15Zm21.59,13.78c-6.78-3.88-13.58-7.71-20.38-11.55-.25-.14-.48-.32-.85-.57a10.86,10.86,0,0,1,1-.72c6.68-3.76,13.37-7.5,20-11.28a2,2,0,0,1,2.28-.06c6.69,3.83,13.42,7.61,20.13,11.41.29.16.55.36,1.09.72-.63.37-1,.61-1.46.84q-9.82,5.53-19.65,11.06A1.92,1.92,0,0,1,516.57,188.93Zm-.07-79.1c-6.56-3.76-13.16-7.46-19.74-11.19-.38-.21-.73-.46-1.22-.78a11.5,11.5,0,0,1,1-.71c6.68-3.77,13.37-7.51,20-11.29a2,2,0,0,1,2.27,0c6.65,3.81,13.33,7.56,20,11.33.33.19.64.42,1.21.8l-1.48.85c-6.52,3.66-13,7.29-19.54,11A2.23,2.23,0,0,1,516.5,109.83Zm.78-26.67a1.76,1.76,0,0,1-.9,1.79q-10.19,6-20.33,12c-.2.12-.43.21-.78.38a8,8,0,0,1-.14-1.17c.08-7.71.19-15.43.24-23.14a2,2,0,0,1,1.17-2c6.66-3.89,13.29-7.83,19.94-11.74a9.81,9.81,0,0,1,1-.47c0,.59.07,1,.07,1.35Q517.41,71.66,517.28,83.16Zm-.1,28.27c.07,8.35.15,16.77.23,25.51l-22.07-13.07q-.1-12.65-.23-25.3C496.24,98.81,514.79,109.64,517.18,111.43Zm-21.56,13.69Q506,131,516.37,136.87c.16.1.29.23.65.51l-1.43.83c-6.5,3.66-13,7.29-19.5,11a2.33,2.33,0,0,1-2.67,0c-6.51-3.74-13.06-7.41-19.6-11.11-.37-.21-.72-.46-1.23-.78a9.94,9.94,0,0,1,.86-.63l20.42-11.47A1.57,1.57,0,0,1,495.62,125.12Zm-46.29,52.14c7.48,4.38,14.7,8.7,22,13,.07,8.45.15,16.88.23,25.6-.74-.42-1.17-.64-1.59-.89-6.38-3.79-12.76-7.59-19.16-11.33a2.31,2.31,0,0,1-1.36-2.28c0-7.42-.11-14.84-.17-22.26C449.29,178.6,449.31,178.08,449.33,177.26Zm0-2.44c.08-7.61.18-15.22.25-22.82a1.78,1.78,0,0,1,.91-1.8c6.82-4,13.62-8,20.43-12a6.59,6.59,0,0,1,.64-.31,4.7,4.7,0,0,1,.18,1c-.08,7.85-.18,15.7-.25,23.55a1.58,1.58,0,0,1-.9,1.51q-10.17,6-20.31,12c-.24.14-.5.23-.88.4C449.33,175.67,449.29,175.24,449.29,174.82Zm21.37,14c-6.56-3.75-13.15-7.45-19.73-11.17-.37-.22-.72-.46-1.23-.78.45-.31.77-.57,1.13-.77q10-5.64,20-11.26a1.79,1.79,0,0,1,2-.09c6.77,3.87,13.58,7.7,20.37,11.54.24.14.46.32.93.64l-1.34.77c-6.6,3.71-13.2,7.39-19.77,11.13A2.11,2.11,0,0,1,470.66,188.8Zm1.61,2.66a2,2,0,0,1,1.17-2c6.66-3.89,13.29-7.82,19.94-11.73.24-.15.52-.25,1-.47,0,.59.07,1,.07,1.35-.09,7.66-.19,15.32-.24,23a1.89,1.89,0,0,1-1.05,1.87c-6.66,3.89-13.29,7.83-19.94,11.74-.28.17-.59.31-1.07.55,0-.53-.11-.93-.11-1.34C472.12,206.79,472.22,199.12,472.27,191.46Zm22.13-15.09c-.65-.36-1.07-.59-1.49-.84-6.42-3.8-12.83-7.62-19.28-11.39a2.2,2.2,0,0,1-1.28-2.17c0-7.52-.11-15-.17-22.55,0-.47,0-.94.06-1.58.48.23.83.36,1.15.55q9.94,5.9,19.89,11.78a1.64,1.64,0,0,1,1,1.57c0,7.86.13,15.71.19,23.57A9.87,9.87,0,0,1,494.4,176.37Zm-22.16-41c.08-7.56.19-15.12.24-22.69a2.12,2.12,0,0,1,1.15-2.11c6.63-3.85,13.22-7.76,19.83-11.66.28-.17.59-.3,1-.52a6.55,6.55,0,0,1,.17,1c-.08,7.8-.18,15.61-.25,23.42a1.71,1.71,0,0,1-.91,1.66c-6.78,4-13.54,8-20.31,12a8,8,0,0,1-.88.41C472.27,136.23,472.23,135.8,472.24,135.37Zm22.34-38.06c-3.82-2.06-7.37-4.31-11-6.44s-7.3-4.32-11-6.51c-.08-8.45-.15-16.84-.23-25.44a11.67,11.67,0,0,1,1.14.49q10,5.93,20,11.86a1.55,1.55,0,0,1,.91,1.49c0,7.91.13,15.82.2,23.73C494.66,96.67,494.62,96.87,494.58,97.31ZM473.15,85.77c6.65,3.81,13.33,7.56,20,11.33.33.19.64.42,1.19.78-1.24.72-2.24,1.3-3.26,1.87-5.87,3.31-11.76,6.58-17.61,9.92a2.45,2.45,0,0,1-2.79,0c-6.47-3.73-13-7.38-19.49-11.06-.41-.23-.81-.49-1.34-.82a7.36,7.36,0,0,1,.86-.67c6.72-3.79,13.46-7.55,20.16-11.36A2,2,0,0,1,473.15,85.77Zm-1.5-2.44a1.58,1.58,0,0,1-.8,1.56Q460.49,91,450.16,97.06a4.54,4.54,0,0,1-.6.23c0-.54-.07-.92-.06-1.29.08-7.66.18-15.31.25-23a1.79,1.79,0,0,1,.93-1.78q10.17-6,20.3-12c.21-.12.44-.21.77-.37a7.08,7.08,0,0,1,.16,1C471.83,67.72,471.73,75.53,471.65,83.33Zm-22.11,14.9c7.42,4.4,14.66,8.7,22,13,.08,8.45.15,16.88.24,25.49a6.88,6.88,0,0,1-1-.36l-20.29-12a1.45,1.45,0,0,1-.86-1.37c-.05-8-.13-16-.19-24A6.63,6.63,0,0,1,449.54,98.23Zm.72,27.08c6.65,3.81,13.33,7.56,20,11.34.33.18.64.41,1.21.79l-1.48.86c-6.51,3.65-13,7.29-19.53,11a2.23,2.23,0,0,1-2.53,0c-6.57-3.77-13.17-7.47-19.75-11.19-.37-.21-.73-.46-1.23-.77a11.57,11.57,0,0,1,1-.73c6.68-3.76,13.37-7.5,20-11.29A2,2,0,0,1,450.26,125.31Zm-45.79,52.37q10.21,6,20.41,12.08a1.45,1.45,0,0,1,.84,1.38c0,8,.13,16,.19,24a3.84,3.84,0,0,1-.1.66c-.52-.27-.91-.44-1.27-.66q-9.82-5.82-19.66-11.63a1.86,1.86,0,0,1-1.09-1.82c0-7.71-.12-15.42-.19-23.13,0-.34,0-.68,0-1.13A3.57,3.57,0,0,1,404.47,177.68Zm-.81-2.9c.08-7.52.19-15,.24-22.55a2.22,2.22,0,0,1,1.23-2.22c6.54-3.8,13.05-7.66,19.57-11.5.36-.21.75-.38,1.3-.66,0,.63.07,1.1.07,1.56-.09,7.52-.19,15-.24,22.55a2.24,2.24,0,0,1-1.24,2.21c-6.49,3.79-13,7.63-19.43,11.46l-1.43.81C403.7,175.71,403.66,175.25,403.66,174.78Zm21.24,13.94c-6.56-3.76-13.15-7.46-19.73-11.19-.36-.2-.7-.46-1.23-.82l1.38-.8c6.6-3.7,13.2-7.38,19.77-11.12a2,2,0,0,1,2.27,0c6.61,3.78,13.24,7.5,19.86,11.24.37.21.7.47,1.17.79-.48.31-.83.56-1.2.77-6.58,3.7-13.18,7.39-19.75,11.13A2.25,2.25,0,0,1,424.9,188.72Zm1.75,2.67a1.66,1.66,0,0,1,.92-1.65q10.17-6,20.3-12c.21-.12.43-.22.8-.4a9,9,0,0,1,.14,1.14c-.08,7.76-.18,15.51-.26,23.26a1.54,1.54,0,0,1-.78,1.57q-10.42,6.1-20.81,12.24a3.28,3.28,0,0,1-.5.15c0-.44-.07-.77-.06-1.1C426.48,206.89,426.58,199.14,426.65,191.39Zm.12-28q-.12-12.63-.24-25.3c1.11.22,19.48,10.93,22.07,12.85.07,8.35.15,16.77.23,25.53Zm-.23-27.61c.08-7.81.19-15.62.25-23.42a1.89,1.89,0,0,1,1.17-1.81q8.91-5.2,17.81-10.45l3.14-1.81c0,.73,0,1.21,0,1.68-.08,7.57-.18,15.13-.23,22.7a1.91,1.91,0,0,1-1,1.87c-6.67,3.89-13.3,7.82-19.95,11.74-.28.17-.59.3-1,.52A6.68,6.68,0,0,1,426.54,135.75Zm22.38-38.37c-.64-.36-1.07-.59-1.48-.84-6.43-3.8-12.84-7.62-19.28-11.39A2.2,2.2,0,0,1,426.87,83c0-7.52-.11-15-.17-22.54,0-.47,0-.95.05-1.59.48.23.83.36,1.15.55q9.94,5.88,19.9,11.78a1.66,1.66,0,0,1,1,1.56c0,7.86.12,15.71.19,23.57C449,96.59,449,96.87,448.92,97.38ZM427.35,85.72c6.82,3.89,13.67,7.74,20.5,11.61.2.12.39.27.77.54-.48.31-.79.54-1.12.73q-10,5.63-20,11.26a1.9,1.9,0,0,1-2.14,0c-6.73-3.84-13.49-7.64-20.24-11.46-.25-.14-.48-.31-.85-.56a8.7,8.7,0,0,1,.94-.7q10.14-5.7,20.28-11.41A1.69,1.69,0,0,1,427.35,85.72ZM426,83.13A1.9,1.9,0,0,1,424.91,85c-6.69,3.91-13.37,7.86-20.05,11.79-.25.15-.52.27-.89.45a6,6,0,0,1-.17-1c.09-7.81.18-15.6.26-23.41a1.59,1.59,0,0,1,.81-1.56q10.35-6.06,20.68-12.17c.12-.07.27-.1.6-.23,0,.54.07.92.07,1.3C426.13,67.81,426,75.47,426,83.13ZM405.18,99c6.56,3.87,13.1,7.77,19.66,11.64a1.74,1.74,0,0,1,1,1.7c0,7.77.13,15.53.2,23.29,0,.29,0,.58,0,.84l-.17.11s-.09,0-.13,0c-.26-.13-.53-.24-.78-.38L404,123.86c-.07-8.46-.15-16.85-.23-25.53C404.43,98.65,404.82,98.82,405.18,99Zm-.5,26.28c6.61,3.78,13.25,7.51,19.88,11.26.33.19.64.42,1.22.79l-1.47.85q-9.84,5.53-19.66,11.06a1.91,1.91,0,0,1-2.15.14c-6.78-3.88-13.58-7.71-20.38-11.55-.25-.14-.47-.32-.84-.57a10.87,10.87,0,0,1,1-.72c6.68-3.76,13.37-7.49,20-11.29A2.14,2.14,0,0,1,404.68,125.32Zm-45.6,78-.8-.53c-.07-8.38-.15-16.76-.23-25.5l12.13,7.19v-.05l9.83,5.83q.12,12.63.24,25.28c-.53-.09-5.06-2.62-9.92-5.44V210Zm.56-27.88-.7.4c-.22.12-.46.23-.8.39,0-.6-.07-1-.07-1.39.08-7.57.19-15.13.24-22.69a2.23,2.23,0,0,1,1.26-2.2q5.4-3.14,10.76-6.32v-.08l8.9-5.25a10.88,10.88,0,0,1,1-.48c.05.48.11.85.11,1.21-.08,7.71-.18,15.42-.25,23.13a1.8,1.8,0,0,1-.95,1.78l-9,5.28h0Zm19.71,13.35q-4.5-2.58-9-5.12v0l-10.9-6.16c-.27-.16-.53-.36-1-.69l.33-.25,1-.56,10.6-6V170q4.55-2.55,9.07-5.12a2,2,0,0,1,2.28,0q10,5.7,20,11.33c.33.19.64.41,1.22.79l-1.49.86c-6.51,3.65-13,7.29-19.53,11A2.23,2.23,0,0,1,379.35,188.8Zm1.61,2.65a1.8,1.8,0,0,1,.94-1.79c6.74-3.94,13.45-7.92,20.17-11.88.25-.15.52-.26.95-.47,0,.51.1.92.1,1.33-.08,7.65-.18,15.31-.25,23a1.8,1.8,0,0,1-.93,1.79c-6.78,4-13.54,8-20.31,11.94-.21.12-.43.21-.86.41,0-.58-.06-1-.06-1.34C380.8,206.76,380.9,199.1,381,191.45Zm22.15-15.15c-.47-.22-.81-.36-1.13-.55-6.64-3.93-13.27-7.88-19.92-11.79a1.75,1.75,0,0,1-1-1.72c0-7.76-.13-15.53-.19-23.29,0-.33,0-.65.07-1.13.42.2.73.32,1,.48,6.68,3.95,13.35,7.93,20,11.86a1.79,1.79,0,0,1,1,1.72c0,7.77.12,15.53.19,23.29C403.19,175.5,403.14,175.82,403.11,176.3Zm-22.19-40.89c.08-7.6.19-15.21.25-22.82a1.89,1.89,0,0,1,1-1.9c6.65-3.88,13.28-7.81,19.92-11.73.32-.19.67-.34,1.17-.59,0,.61.07,1.08.06,1.55-.08,7.51-.19,15-.23,22.53a2.24,2.24,0,0,1-1.26,2.19c-6.49,3.78-12.95,7.62-19.42,11.43l-1.4.81C381,136.25,380.92,135.83,380.92,135.41Zm.36-51c-.08-8.5-.15-16.89-.23-25.22a1.34,1.34,0,0,1,.22-.12.21.21,0,0,1,.13,0c.26.13.53.24.79.39l20.92,12.4c.08,8.47.15,16.89.23,25.65Zm.39,1.31c6.82,3.9,13.67,7.74,20.5,11.61.2.12.38.27.71.5-.37.27-.64.51-.95.69q-10.08,5.67-20.15,11.35a1.81,1.81,0,0,1-2,.1q-4.71-2.7-9.43-5.36v0L359.86,98.6c-.37-.21-.73-.46-1.23-.78.36-.26.6-.47.87-.63l10.83-6.09V91q4.67-2.61,9.33-5.24A1.79,1.79,0,0,1,381.67,85.67Zm-1.33-2.5a1.9,1.9,0,0,1-1,1.88l-9.14,5.37h0l-10.51,6.22-.47.27c-.23.13-.48.25-.8.4a10.34,10.34,0,0,1-.13-1.15c.09-7.71.19-15.42.26-23.14a1.77,1.77,0,0,1,.92-1.79q5.44-3.18,10.88-6.39v-.06l5.16-3c1.59-.94,3.2-1.85,5-2.89,0,.57.09,1,.09,1.32C380.5,67.84,380.4,75.51,380.34,83.17Zm-22,15.29.26.08c.36.18.69.34,1,.52l10.64,6.29v0l9.21,5.44a1.47,1.47,0,0,1,.86,1.37c0,8,.12,16,.19,24a5.87,5.87,0,0,1-.1.66c-.52-.26-.91-.43-1.27-.64L370.33,131v0c-3.64-2.16-7.27-4.32-10.92-6.46a1.79,1.79,0,0,1-1-1.74c0-7.7-.13-15.41-.19-23.12C358.22,99.29,358.26,98.94,358.3,98.46Zm0,26.59a1.7,1.7,0,0,1,.47.2q5.72,3.25,11.42,6.48v0l8.77,4.95c.33.19.63.41,1.08.7-.44.29-.72.53-1,.7l-8.81,5h0l-11.37,6.39a2.5,2.5,0,0,1-.41.19l-.25.08h0a1.38,1.38,0,0,1-.67,0,1.89,1.89,0,0,1-.48-.2c-6.78-3.87-13.58-7.69-20.37-11.53-.25-.14-.47-.32-.84-.58.45-.3.77-.56,1.13-.76q10-5.62,20-11.26a2.5,2.5,0,0,1,.94-.34h0A2.22,2.22,0,0,1,358.29,125.05Zm-41.65,54.73c5.4,3.2,10.79,6.41,16.21,9.58l.42.27a2.16,2.16,0,0,1,1.1,2.07c0,7.51.12,15,.18,22.56,0,.45,0,.9-.06,1.51-.49-.26-.89-.45-1.26-.67-6.47-3.83-12.92-7.68-19.42-11.48a2.2,2.2,0,0,1-1.26-2.18c0-7.52-.11-15-.17-22.56,0-.41,0-.83.05-1.36C313,177.76,314.57,178.61,316.64,179.78Zm-4.2-4.63c.08-7.75.18-15.51.25-23.26a1.57,1.57,0,0,1,.8-1.56q10.35-6.08,20.68-12.18a3.33,3.33,0,0,1,.47-.19c0,.5.07.87.06,1.23q-.13,11.49-.25,23a1.85,1.85,0,0,1-.61,1.57.76.76,0,0,1-.17.13l-.14.09c-6.78,4-13.54,8-20.3,12a4.67,4.67,0,0,1-.45.23l-.22.1A7.73,7.73,0,0,1,312.44,175.15Zm21.92,13.93-.06,0-.27-.13c-6.78-3.88-13.59-7.71-20.38-11.55-.25-.14-.48-.32-.85-.57a10.86,10.86,0,0,1,.95-.72c6.68-3.76,13.37-7.5,20-11.28a2.56,2.56,0,0,1,1.1-.37,2.17,2.17,0,0,1,1,.31c6.7,3.83,13.42,7.61,20.13,11.41.28.15.54.35,1,.68-.45.29-.78.53-1.12.72l-.28.16q-9.84,5.53-19.66,11.06l-.48.24a1.66,1.66,0,0,1-1,.13Zm1.83-50.75q10.1,6,20.16,11.94a1.43,1.43,0,0,1,.9,1.34c0,8.06.12,16.11.18,24.17a1.46,1.46,0,0,1-.1.42c-3.71-2-7.23-4.23-10.82-6.34s-7.3-4.33-11-6.5c-.08-8.45-.15-16.82-.23-25.36A4.55,4.55,0,0,1,336.19,138.33Zm-.86-2.9c.08-7.66.18-15.31.25-23a1.77,1.77,0,0,1,.95-1.77q10.1-5.91,20.17-11.89c.21-.12.46-.23.77-.38a10.08,10.08,0,0,1,.12,1.11c-.08,7.71-.19,15.41-.25,23.11a1.79,1.79,0,0,1-.94,1.79c-6.77,3.95-13.52,7.95-20.28,11.93l-.74.34C335.36,136.16,335.32,135.79,335.33,135.43Zm.08,56.27a2.24,2.24,0,0,1,1.27-2.2c6.44-3.75,12.86-7.55,19.29-11.34l1.29-.74a3.88,3.88,0,0,1,.18,1q-.12,11.77-.25,23.56a2.36,2.36,0,0,1,0,.29,2.07,2.07,0,0,1-1,1.32q-10.22,6-20.41,12a3.4,3.4,0,0,1-.48.18.85.85,0,0,0,0-.17c0-.52-.05-.94,0-1.35C335.26,206.73,335.37,199.22,335.41,191.7Zm17.95-96.84L336.63,85l-.24-.16a1.41,1.41,0,0,1-.72-1.29c-.05-8-.13-16-.19-24a3.64,3.64,0,0,1,0-.42c.53.21,2,1,3.94,2.07l17.45,10.35.51.35c.08,8.38.15,16.76.23,25.27A43.24,43.24,0,0,1,353.36,94.86Zm-17.74-9.27a3,3,0,0,1,.53.24c6.65,3.81,13.34,7.56,20,11.33.31.18.61.4,1.12.74-.42.29-.72.51-1,.7l-.37.21c-6.41,3.6-12.83,7.18-19.23,10.81a3.07,3.07,0,0,1-.31.17,3.19,3.19,0,0,1-.63.29h0a2.39,2.39,0,0,1-.45.09,2.31,2.31,0,0,1-1.27-.35c-6.56-3.76-13.16-7.46-19.74-11.19-.38-.21-.73-.46-1.23-.78.41-.29.68-.53,1-.71,6.68-3.77,13.37-7.51,20-11.29a2.49,2.49,0,0,1,1-.35A2.46,2.46,0,0,1,335.62,85.59Zm-1-2.43a2.36,2.36,0,0,1-.23,1.13,2,2,0,0,1-.73.69q-10.09,5.89-20.14,11.86l-.64.32-.14.07a7,7,0,0,1-.13-1.11c.08-7.71.19-15.43.24-23.14A2,2,0,0,1,314,71c6.66-3.89,13.29-7.83,19.94-11.74a8.69,8.69,0,0,1,.84-.4c0,.55.07.92.07,1.28C334.77,67.83,334.67,75.49,334.6,83.16Zm-13,20.46,9,5.34c1.88,1.14,3.31,2.05,3.87,2.47.07,8.23.15,16.52.22,25.11a43.27,43.27,0,0,1-4.39-2.29l-16.69-9.89-.83-.56q-.1-12.58-.23-25.18C313.48,99,317.35,101.15,321.62,103.62Zm-9,21.35a2,2,0,0,1,.35.15q10.36,5.9,20.75,11.75c.14.09.28.21.56.43a6,6,0,0,1-.75.57l-.1.06L331,139.27q-6.72,3.76-13.44,7.57c-1.42.8-2.86,1.6-4.28,2.41a2.7,2.7,0,0,1-1.1.35,2.56,2.56,0,0,1-1.32-.4c-6.51-3.74-13.06-7.41-19.6-11.11-.37-.21-.72-.46-1.23-.78a9.94,9.94,0,0,1,.86-.63l20.42-11.47A2.38,2.38,0,0,1,312,125,1.69,1.69,0,0,1,312.58,125Zm-45.79,52.41.39.19c7.12,4.18,14,8.3,21,12.42a1.48,1.48,0,0,1,.49.76c.08,8.1.15,16.18.22,24.51,0,.15,0,.31,0,.51-.62-.35-1-.56-1.39-.78-6.38-3.79-12.76-7.59-19.16-11.33a2.31,2.31,0,0,1-1.36-2.28c0-7.42-.11-14.84-.17-22.26C266.75,178.63,266.77,178.13,266.79,177.38Zm0-2.56c.08-7.61.18-15.22.25-22.82a1.78,1.78,0,0,1,.91-1.8c6.82-4,13.61-8,20.42-12,.14-.08.3-.15.52-.25a4,4,0,0,1,.16.9c-.07,7.85-.18,15.7-.25,23.55a1.67,1.67,0,0,1-.21.87.94.94,0,0,1-.09.12,1.73,1.73,0,0,1-.6.52q-10.16,6-20.3,12c-.21.12-.45.21-.74.34C266.79,175.64,266.75,175.23,266.75,174.82Zm21.37,14c-6.56-3.75-13.15-7.45-19.73-11.17-.37-.22-.73-.46-1.23-.78.45-.31.77-.57,1.13-.77q10-5.64,20-11.26a2.35,2.35,0,0,1,.93-.34,1.73,1.73,0,0,1,.45.05,3.08,3.08,0,0,1,.48.2q10.17,5.81,20.37,11.54c.23.13.45.3.85.58a10.23,10.23,0,0,1-1,.67l-.28.16c-6,3.36-12,6.71-17.95,10.1l-1.85,1a3.27,3.27,0,0,1-.55.25l-.08,0a1.51,1.51,0,0,1-.36.06A2.27,2.27,0,0,1,288.12,188.8Zm1.61,2.66a2,2,0,0,1,1.17-2c6.66-3.89,13.29-7.82,19.94-11.73.21-.13.45-.22.81-.39,0,.09,0,.17.05.25,0,.41.05.71.05,1-.08,7.66-.18,15.32-.24,23a1.9,1.9,0,0,1-1,1.87c-6.66,3.89-13.3,7.83-19.94,11.74-.25.15-.52.27-.88.45l-.06,0c0-.49-.1-.88-.1-1.27C289.58,206.79,289.68,199.12,289.73,191.46Zm22-15.17c-.56-.31-1-.53-1.35-.76-6.42-3.8-12.83-7.62-19.28-11.39a2.2,2.2,0,0,1-1.28-2.17c0-7.52-.11-15-.17-22.55,0-.45,0-.91.05-1.51a11,11,0,0,1,1,.48q9.94,5.9,19.9,11.78a1.65,1.65,0,0,1,1,1.57c0,7.86.13,15.71.2,23.57C311.82,175.57,311.77,175.84,311.72,176.29Zm-22-40.92c.08-7.56.18-15.12.24-22.69a2.12,2.12,0,0,1,1.15-2.11c6.63-3.85,13.22-7.76,19.82-11.66.26-.15.54-.28.89-.45a4.59,4.59,0,0,1,.16,1c-.08,7.8-.18,15.61-.25,23.42a2.11,2.11,0,0,1-.18.91.64.64,0,0,1-.08.14,1.33,1.33,0,0,1-.14.19l-.12.13a2.08,2.08,0,0,1-.39.29l-8.42,5-4.78,2.82-6.85,4c-.25.14-.53.27-.86.44l-.13.06C289.73,136.2,289.69,135.79,289.7,135.37Zm22.2-38.14c-3.76-2-7.28-4.26-10.86-6.36s-7.3-4.32-11-6.51c-.08-8.43-.15-16.81-.23-25.38a6.92,6.92,0,0,1,1,.43q10,5.93,20.05,11.86a1.56,1.56,0,0,1,.9,1.49c0,7.91.13,15.82.2,23.73C312,96.66,311.94,96.85,311.9,97.23Zm-22-11.7a3.54,3.54,0,0,1,.55.24c6.65,3.81,13.33,7.56,20,11.33.3.18.59.39,1,.7a8.07,8.07,0,0,1-.64.53l-1.39.8-4.31,2.43c-3.47,1.94-6.94,3.9-10.41,5.85l-4.19,2.36a2.8,2.8,0,0,1-1.07.35,2.68,2.68,0,0,1-1.37-.41c-6.47-3.73-13-7.38-19.49-11.06-.39-.22-.78-.47-1.27-.77l-.06,0a7.36,7.36,0,0,1,.85-.67c6.72-3.79,13.46-7.55,20.16-11.36a3,3,0,0,1,.81-.31A2.28,2.28,0,0,1,289.92,85.53Zm-1-2.2a1.57,1.57,0,0,1-.8,1.56Q277.81,91,267.48,97.06l0,0-.42.15c0-.5-.07-.87-.06-1.23.08-7.66.18-15.31.25-23a1.79,1.79,0,0,1,.93-1.78q10.17-6,20.3-12c.18-.1.38-.19.63-.31a5.06,5.06,0,0,1,.15.94C289.14,67.72,289,75.53,289,83.33Zm-22,15,21.87,13c.08,8.43.16,16.85.24,25.44a4.81,4.81,0,0,1-.85-.31l-20.29-12a1.43,1.43,0,0,1-.86-1.37c0-8-.13-16-.19-24C266.9,98.86,266.93,98.71,267,98.31Zm0,26.76a2.56,2.56,0,0,1,.55.24c6.66,3.81,13.34,7.56,20,11.34.31.17.61.38,1.11.72-.37.27-.63.49-.91.66l-.47.27q-8.35,4.68-16.69,9.38c-1,.54-1.94,1.08-2.9,1.63a2.8,2.8,0,0,1-1.08.36,2.31,2.31,0,0,1-1.24-.35c-6.57-3.77-13.17-7.47-19.75-11.19-.37-.21-.73-.46-1.23-.77a11.57,11.57,0,0,1,1-.73c6.68-3.76,13.37-7.5,20-11.29a2.5,2.5,0,0,1,1.06-.35A1.93,1.93,0,0,1,267,125.07Zm-45.23,52.61,20.4,12.08a1.44,1.44,0,0,1,.85,1.38q.08,12,.19,24a5,5,0,0,1-.09.59c-.45-.23-.82-.4-1.15-.59q-9.81-5.82-19.65-11.63a1.86,1.86,0,0,1-1.09-1.82c0-7.71-.12-15.42-.19-23.13,0-.33,0-.66,0-1.1A3,3,0,0,1,221.79,177.68Zm-.67-2.9c.08-7.52.19-15,.24-22.55a2.23,2.23,0,0,1,1.22-2.22c6.55-3.8,13-7.66,19.58-11.5.32-.19.68-.36,1.15-.59,0,.6.07,1.05.07,1.49-.09,7.52-.19,15-.24,22.55a2.21,2.21,0,0,1-1.24,2.21c-6.49,3.79-13,7.63-19.43,11.46l-1.28.73C221.16,175.68,221.12,175.23,221.12,174.78Zm21.24,13.94c-6.56-3.76-13.15-7.46-19.73-11.19-.36-.2-.7-.46-1.23-.82l1.38-.8c6.6-3.7,13.2-7.38,19.77-11.12a2.44,2.44,0,0,1,1.06-.35,2.32,2.32,0,0,1,1.07.35c6.6,3.78,13.23,7.5,19.86,11.24.36.21.7.47,1.17.79-.49.31-.84.56-1.2.77-6.59,3.7-13.19,7.39-19.76,11.13a2.46,2.46,0,0,1-1.19.38A2.65,2.65,0,0,1,242.36,188.72Zm1.75,2.67a1.66,1.66,0,0,1,.92-1.65q10.17-6,20.3-12c.17-.1.38-.2.66-.33a7.56,7.56,0,0,1,.13,1.07c-.08,7.76-.18,15.51-.25,23.26a2.71,2.71,0,0,1-.09.67,1.81,1.81,0,0,1-.78,1q-10.38,6.07-20.73,12.19a1.43,1.43,0,0,1-.35.11c0-.42-.07-.74-.06-1.06C243.94,206.89,244,199.14,244.11,191.39Zm17.42-17.77c-5.85-3.47-11.55-6.86-17.31-10.26q-.1-12.62-.23-25.25c1.21.47,7.74,4.19,13.41,7.54v0l5,3c1.67,1,2.95,1.84,3.5,2.25.07,8.22.15,16.51.23,25.11A46.44,46.44,0,0,1,261.53,173.62ZM244,135.75c.08-7.81.19-15.62.25-23.42a1.89,1.89,0,0,1,1.17-1.81q8.91-5.2,17.81-10.45l3-1.72,0,.22c0,.56,0,1,0,1.37-.09,7.57-.19,15.13-.24,22.7a1.91,1.91,0,0,1-1,1.87q-10,5.83-19.94,11.74c-.26.15-.54.28-.89.45A6.49,6.49,0,0,1,244,135.75ZM266.24,97.3c-.56-.31-1-.53-1.34-.76-6.43-3.8-12.84-7.62-19.28-11.39A2.2,2.2,0,0,1,244.33,83c0-7.52-.11-15-.17-22.54,0-.46,0-.92.05-1.52a9.51,9.51,0,0,1,1,.48q10,5.88,19.9,11.78a1.65,1.65,0,0,1,1,1.56c0,7.86.13,15.71.19,23.57A7.73,7.73,0,0,1,266.24,97.3ZM244.67,85.72c6.82,3.89,13.66,7.74,20.49,11.61.21.12.39.27.77.54-.47.31-.78.54-1.11.73q-10,5.63-20,11.26a2.3,2.3,0,0,1-1,.34,2,2,0,0,1-1-.3c-6.73-3.84-13.49-7.64-20.24-11.46-.25-.14-.48-.31-.85-.56a7.82,7.82,0,0,1,.94-.7q10.14-5.7,20.27-11.41a2.25,2.25,0,0,1,.88-.3A1.81,1.81,0,0,1,244.67,85.72Zm-1.39-2.59A1.88,1.88,0,0,1,242.23,85c-6.7,3.91-13.38,7.86-20.06,11.79-.22.13-.46.24-.76.38a5.77,5.77,0,0,1-.15-.93c.09-7.81.18-15.6.26-23.41a1.59,1.59,0,0,1,.81-1.56Q232.68,65.2,243,59.09a2.92,2.92,0,0,1,.45-.18c0,.52.07.88.07,1.25C243.45,67.81,243.34,75.47,243.28,83.13ZM222.5,99c6.55,3.87,13.09,7.77,19.66,11.64a1.74,1.74,0,0,1,1,1.7c0,7.77.13,15.53.2,23.29,0,.29,0,.58,0,.84l-.17.11h0c-.25-.12-.51-.23-.74-.36l-20.94-12.41c-.07-8.44-.15-16.8-.23-25.46C221.8,98.67,222.16,98.84,222.5,99Zm-.5,26.28c6.6,3.78,13.24,7.51,19.87,11.26.33.19.64.42,1.22.79l-1.47.85q-9.84,5.53-19.66,11.06a2.56,2.56,0,0,1-1.18.4,1.81,1.81,0,0,1-.82-.26c-6.78-3.88-13.58-7.71-20.38-11.55-.25-.14-.47-.32-.84-.57a10.87,10.87,0,0,1,1-.72c6.68-3.76,13.37-7.49,20-11.29a2.31,2.31,0,0,1,1.13-.34A2.62,2.62,0,0,1,222,125.32Zm-43.24,79.41c-1.44-.88-2.56-1.6-3.12-2-.07-8.33-.15-16.72-.23-25.45l21.92,13q.1,12.6.23,25.24c-1-.37-5.31-2.81-9.92-5.48v0Zm-3.33-30c.08-7.52.2-15,.23-22.55a2.33,2.33,0,0,1,1.32-2.29l1.75-1c6-3.49,12-7,18-10.56.25-.14.54-.26.9-.42a8.66,8.66,0,0,1,.1,1.15c-.08,7.71-.18,15.42-.25,23.13a1.77,1.77,0,0,1-.94,1.78c-6.71,3.91-13.39,7.87-20.07,11.81-.26.15-.54.27-1,.48C175.45,175.59,175.42,175.17,175.43,174.75Zm21.38,14.05c-6.56-3.76-13.17-7.46-19.75-11.18-.37-.22-.73-.46-1.22-.78a11.85,11.85,0,0,1,1-.72c6.68-3.76,13.37-7.5,20-11.29a2.47,2.47,0,0,1,1.07-.36,2.16,2.16,0,0,1,1.06.33q10,5.7,20,11.33c.33.19.64.41,1.22.79l-1.48.86c-6.52,3.65-13,7.29-19.54,11a2.92,2.92,0,0,1-1.19.41A2.51,2.51,0,0,1,196.81,188.8Zm1.61,2.65a1.8,1.8,0,0,1,.94-1.79c6.74-3.94,13.45-7.92,20.17-11.88.22-.13.47-.24.81-.4a12,12,0,0,1,.09,1.26c-.08,7.65-.18,15.31-.25,23a1.8,1.8,0,0,1-.93,1.79c-6.78,4-13.54,8-20.31,11.94-.18.11-.38.19-.71.35,0-.55-.06-.92-.06-1.28C198.25,206.76,198.35,199.1,198.42,191.45Zm22-15.21c-.38-.19-.7-.32-1-.49-6.64-3.93-13.27-7.88-19.92-11.79a1.75,1.75,0,0,1-1-1.72c0-7.76-.13-15.53-.19-23.29a8.9,8.9,0,0,1,.07-1.06,8.58,8.58,0,0,1,.85.41c6.68,3.95,13.35,7.93,20,11.86a1.76,1.76,0,0,1,1,1.72c0,7.77.13,15.53.2,23.29C220.5,175.48,220.46,175.8,220.42,176.24Zm-22-40.83c.08-7.6.19-15.21.25-22.82a1.89,1.89,0,0,1,1-1.9c6.65-3.88,13.28-7.81,19.92-11.73.28-.17.61-.31,1-.52,0,.57.06,1,0,1.48-.08,7.51-.19,15-.23,22.53a2.24,2.24,0,0,1-1.26,2.19c-6.49,3.78-12.95,7.62-19.42,11.43l-1.25.73C198.43,136.22,198.38,135.81,198.38,135.41Zm.36-51c-.08-8.5-.15-16.89-.23-25.22a1.34,1.34,0,0,1,.22-.12h0c.25.12.51.23.75.37l20.93,12.4c.07,8.45.15,16.83.23,25.56Zm.25,1.31c6.81,3.9,13.66,7.74,20.49,11.61.2.12.39.27.71.5-.37.27-.64.51-.95.69q-10.08,5.67-20.15,11.35a2.72,2.72,0,0,1-.94.35,1.74,1.74,0,0,1-.93-.25c-6.82-3.9-13.66-7.75-20.49-11.61-.19-.11-.37-.26-.74-.53.32-.23.55-.43.79-.57l.24-.14,3.5-2q8.29-4.67,16.6-9.33a3,3,0,0,1,.94-.36A1.83,1.83,0,0,1,199,85.67Zm-1.34-2.5a1.9,1.9,0,0,1-1,1.88q-10,5.85-19.94,11.75a7.71,7.71,0,0,1-.87.45,3.26,3.26,0,0,1-.19-.78c.08-7.91.19-15.81.25-23.72a1.74,1.74,0,0,1,.09-.59h0A2,2,0,0,1,177,71.09L193,61.75c1.55-.91,3.12-1.81,4.87-2.81,0,.52.08.89.08,1.24C197.81,67.84,197.71,75.51,197.65,83.17ZM176.42,98.76l20.28,12a1.47,1.47,0,0,1,.86,1.37c0,8,.12,16,.19,24a5.81,5.81,0,0,1-.09.6c-.44-.23-.81-.39-1.13-.58-6.55-3.88-13.09-7.78-19.66-11.63a1.89,1.89,0,0,1-1.11-1.82c0-7.71-.12-15.42-.18-23.13,0-.32,0-.65,0-1.12A4.33,4.33,0,0,1,176.42,98.76Zm-.14,26.56c6.64,3.8,13.32,7.55,20,11.32.33.19.63.41,1.08.7-.43.29-.72.53-1,.7q-10.08,5.67-20.15,11.34a2.21,2.21,0,0,1-1,.32,1.87,1.87,0,0,1-.89-.28c-6.73-3.84-13.49-7.64-20.24-11.46-.27-.15-.52-.34-.95-.63.39-.27.7-.5,1-.69l.41-.23Q163.75,131.22,173,126l1.2-.67a2.38,2.38,0,0,1,1-.35A2,2,0,0,1,176.28,125.32ZM138.2,182.21q4.28,2.55,8.57,5.06c2,1.22,3.66,2.24,4.51,2.81a1.84,1.84,0,0,1,.42.73c.08,8.18.15,16.43.23,25l-.5-.25-20.9-12.39a2,2,0,0,1-.58-1c-.07-8.16-.15-16.27-.22-24.42,0-.09,0-.16,0-.26C130.64,177.9,134.19,179.89,138.2,182.21Zm-8.4-7.07c.08-7.75.18-15.51.25-23.26a1.58,1.58,0,0,1,.79-1.57c6.91-4,13.79-8.12,20.68-12.18l0,0,.45-.17c0,.5.06.86.06,1.22-.08,7.71-.18,15.41-.25,23.12a1.67,1.67,0,0,1-.91,1.64q-10.23,6-20.43,12c-.14.08-.31.15-.54.26A7.56,7.56,0,0,1,129.8,175.14Zm21.62,13.78q-10.23-5.83-20.51-11.62c-.21-.12-.4-.26-.75-.5a8.89,8.89,0,0,1,.92-.71l20.17-11.35.33-.16a1.84,1.84,0,0,1,1.18-.09,2.61,2.61,0,0,1,.37.15c6.78,3.87,13.58,7.7,20.38,11.55a9.16,9.16,0,0,1,.89.65c-.48.31-.83.56-1.19.77q-10,5.59-19.91,11.2a2.48,2.48,0,0,1-1,.36A1.8,1.8,0,0,1,151.42,188.92Zm1.36,2.33a2,2,0,0,1,.05-.35,2,2,0,0,1,.84-1.16l.24-.17q8-4.65,15.92-9.33c1.55-.91,3.11-1.8,4.89-2.82l0,.13c0,.55.06,1,.05,1.38-.08,7.51-.19,15-.24,22.55a2.21,2.21,0,0,1-1.26,2.19c-6.5,3.78-13,7.63-19.43,11.46l-1.07.61-.08,0a5.29,5.29,0,0,1-.19-1C152.61,207,152.72,199.11,152.78,191.25Zm22-15c-.36-.19-.71-.4-1.07-.6L152.9,163.34c-.07-8.44-.15-16.8-.23-25.37l.22.07a4.31,4.31,0,0,1,.77.34q10,5.93,20.05,11.86a1.54,1.54,0,0,1,.9,1.49c0,7.91.13,15.81.2,23.73C174.81,175.63,174.78,175.82,174.74,176.25Zm-22.05-41c.08-7.51.2-15,.24-22.53a2.21,2.21,0,0,1,1.25-2.19c6.45-3.76,12.86-7.57,19.29-11.37l.67-.38.72-.36c0,.55.09.94.09,1.33-.08,7.6-.19,15.21-.25,22.82a1.91,1.91,0,0,1-1,1.91q-10.11,5.9-20.19,11.86a6.71,6.71,0,0,1-.8.39C152.71,136.05,152.69,135.63,152.69,135.21Zm14.47-42.43-10.64-6.3c-1.43-.87-2.57-1.6-3.24-2.06a1.18,1.18,0,0,1-.23-.43c-.07-8.21-.15-16.49-.23-24.79,0,0,0-.08,0-.13.81.32,3.72,1.92,7.19,3.91l12.32,7.3c1.09.68,1.94,1.24,2.44,1.59.08,8.35.16,16.77.23,25.21C174.2,96.76,170.94,95,167.16,92.78ZM153.68,85.9c6.52,3.74,13.08,7.41,19.62,11.12.41.23.8.49,1.36.84-.51.34-.84.6-1.2.8q-10,5.59-19.92,11.2a2.68,2.68,0,0,1-.82.31,2,2,0,0,1-.69,0,2.26,2.26,0,0,1-.49-.21c-6.74-3.85-13.5-7.65-20.26-11.47-.26-.15-.5-.35-.91-.65.36-.25.62-.48.9-.64l.25-.14c6.59-3.71,13.2-7.4,19.77-11.15a3.31,3.31,0,0,1,.63-.27l.12,0a1.67,1.67,0,0,1,.38-.06A2.63,2.63,0,0,1,153.68,85.9ZM152,83.13a1.87,1.87,0,0,1-1,1.87c-6.66,3.89-13.29,7.83-19.94,11.75-.25.14-.54.27-.9.46a7.14,7.14,0,0,1-.13-1.12c.08-7.71.18-15.42.25-23.13a2,2,0,0,1,.51-1.48s0,0,0,0a1.72,1.72,0,0,1,.39-.29l.12-.09c6.7-3.91,13.37-7.87,20.05-11.8.18-.1.38-.19.67-.32l.17-.07c0,.54.06.91.06,1.28C152.13,67.81,152,75.47,152,83.13Zm-17.26,18,16.21,9.6c.4.26.72.47.94.63q.1,12.59.23,25.17c-.82-.32-4.08-2.12-7.86-4.3s-7.27-4.3-10.88-6.44c-1.48-.91-2.62-1.64-3.18-2-.07-8.23-.15-16.53-.23-25.15C130.35,98.71,132.21,99.71,134.7,101.12Zm-4.17,24.11q10,5.73,20.11,11.39c.29.17.56.36,1,.63a7.94,7.94,0,0,1-.83.63q-10.2,5.75-20.4,11.5a2.3,2.3,0,0,1-.37.16,2.05,2.05,0,0,1-1.15,0l-.22-.1q-10.23-5.82-20.5-11.61a7.35,7.35,0,0,1-.74-.52c.32-.23.54-.42.78-.57l.38-.21q10-5.61,20-11.24a2.43,2.43,0,0,1,.93-.31A1.92,1.92,0,0,1,130.53,125.23ZM85.32,178q9.84,5.82,19.66,11.64a1.75,1.75,0,0,1,1.06,1.7c0,7.76.12,15.52.19,23.28,0,.31,0,.62-.09,1.14L85,203.21a1.92,1.92,0,0,1-.64-1.05c-.08-8.16-.15-16.28-.23-24.59a1.15,1.15,0,0,0,0-.19C84.63,177.64,85,177.8,85.32,178Zm-1.21-3.43c.09-7.46.19-14.92.24-22.38A2.26,2.26,0,0,1,85.58,150q6.89-4,13.74-8.08l6-3.52.43-.25c.14-.08.3-.14.54-.25a9.33,9.33,0,0,1,.11,1.15c-.08,7.7-.18,15.4-.25,23.11a1.77,1.77,0,0,1-1,1.77Q95.05,169.82,85,175.78c-.22.13-.47.23-.84.4C84.13,175.5,84.11,175,84.11,174.57Zm22,14.54a2.84,2.84,0,0,1-.45-.2c-6.73-3.84-13.49-7.64-20.24-11.46-.27-.15-.52-.34-1-.64.41-.28.72-.52,1-.71l.36-.2c6.55-3.68,13.11-7.34,19.65-11.05a2.7,2.7,0,0,1,1.06-.37,2.14,2.14,0,0,1,1.06.32c6.64,3.8,13.32,7.55,20,11.32.33.19.64.41,1.08.7-.42.29-.7.53-1,.71q-10.08,5.67-20.15,11.33a2.46,2.46,0,0,1-.74.29A2.26,2.26,0,0,1,106.16,189.11Zm.94,2.48a2.08,2.08,0,0,1,.77-1.84,1.74,1.74,0,0,1,.26-.19l.12-.08c6.67-3.88,13.3-7.82,19.95-11.73l.39-.2.38-.17a6.45,6.45,0,0,1,.15.94q-.13,11.73-.25,23.43a1.68,1.68,0,0,1-.91,1.65c-6.79,4-13.55,8-20.32,12-.18.1-.39.19-.73.35,0-.61-.06-1-.06-1.43C106.93,206.72,107,199.16,107.1,191.59Zm22-15.31c-.56-.32-1-.53-1.34-.76-6.43-3.8-12.84-7.63-19.29-11.39a2.2,2.2,0,0,1-1.28-2.17c0-7.52-.12-15-.18-22.54,0-.46,0-.92,0-1.53a10.55,10.55,0,0,1,1,.47q10,5.89,19.91,11.78a1.78,1.78,0,0,1,1,1.71c0,7.76.12,15.52.18,23.28C129.18,175.44,129.13,175.75,129.09,176.28Zm-22-40.67c.09-7.71.19-15.42.26-23.13a2.44,2.44,0,0,1,.16-1,.82.82,0,0,1,.12-.2.57.57,0,0,1,.08-.13,2.09,2.09,0,0,1,.2-.22,3.76,3.76,0,0,1,.36-.28c6.75-3.93,13.46-7.91,20.19-11.87l.52-.26.31-.14,0,.13c0,.54,0,.94,0,1.32-.08,7.57-.19,15.13-.25,22.7a2,2,0,0,1-1.06,2c-6.62,3.86-13.21,7.78-19.81,11.67-.29.17-.61.32-1,.52C107.13,136.3,107.05,136,107.05,135.61Zm21.09-39L107.42,84.35c-.07-8.39-.15-16.73-.23-25.41l.84.35,20.7,12.27a1.33,1.33,0,0,1,.38.56c.07,8.32.15,16.59.23,25.18ZM108,85.87c6.52,3.74,13.08,7.42,19.62,11.12.38.21.74.45,1.23.76a6.55,6.55,0,0,1-.8.66q-10.22,5.75-20.43,11.49a2.53,2.53,0,0,1-.29.14,2.07,2.07,0,0,1-1.32-.06L85.17,98.14a5.2,5.2,0,0,1-.47-.37l.54-.44.38-.25c6.3-3.54,12.61-7.06,18.89-10.64l1-.58a3.62,3.62,0,0,1,.65-.29l.08,0a3.06,3.06,0,0,1,.4-.07A2.47,2.47,0,0,1,108,85.87Zm-1.71-2.55a1.58,1.58,0,0,1-.82,1.55Q95.16,90.95,84.83,97.05a4,4,0,0,1-.46.17c0-.52-.06-.89-.05-1.26.08-7.65.18-15.31.25-23a1.79,1.79,0,0,1,.94-1.78C92.25,67.28,99,63.3,105.69,59.34c.21-.13.46-.24.75-.38a5.9,5.9,0,0,1,.14.95C106.5,67.71,106.4,75.52,106.33,83.32Zm-22,15,21.87,13c.08,8.43.16,16.85.24,25.44a4.53,4.53,0,0,1-.85-.31l-20.29-12a1.43,1.43,0,0,1-.86-1.37c0-8-.12-16-.19-24C84.26,98.84,84.29,98.69,84.34,98.3Zm.74,27.07c6.56,3.76,13.16,7.47,19.74,11.19.37.21.72.46,1.22.78a10.64,10.64,0,0,1-1,.72q-10.09,5.67-20.18,11.34l-.42.21a1.94,1.94,0,0,1-1.14,0,.83.83,0,0,1-.18-.07c-2.74-1.57-5.5-3.12-8.25-4.67v0L63,138.13c-.37-.21-.73-.46-1.22-.77a11.6,11.6,0,0,1,1-.73l12.14-6.83h0c2.61-1.47,5.23-2.94,7.83-4.42a2.49,2.49,0,0,1,1.19-.39A2.62,2.62,0,0,1,85.08,125.37ZM39.25,177.68l20.4,12.08a1.46,1.46,0,0,1,.85,1.38q.07,12,.19,24a6.07,6.07,0,0,1-.11.66c-.52-.27-.91-.44-1.27-.66q-9.83-5.82-19.66-11.63a1.86,1.86,0,0,1-1.09-1.82c0-7.71-.12-15.42-.19-23.13,0-.34,0-.68.05-1.13A3.89,3.89,0,0,1,39.25,177.68Zm-.82-2.9c.08-7.52.19-15,.24-22.55A2.22,2.22,0,0,1,39.9,150c6.54-3.8,13.05-7.66,19.57-11.5.36-.21.75-.38,1.3-.66,0,.63.07,1.1.07,1.56-.09,7.52-.19,15-.24,22.55a2.23,2.23,0,0,1-1.24,2.21c-6.49,3.79-13,7.63-19.43,11.46l-1.42.81C38.47,175.71,38.43,175.25,38.43,174.78Zm21.25,13.94C53.12,185,46.52,181.26,40,177.53c-.37-.2-.71-.46-1.24-.82l1.39-.8c6.59-3.7,13.19-7.38,19.77-11.12a2,2,0,0,1,2.27,0q6.27,3.59,12.57,7.13v0l7.52,4.24c.24.14.46.32.92.64l-.09.06-1.26.72-7.09,4v.07q-6.25,3.51-12.5,7.05A2.23,2.23,0,0,1,59.68,188.72Zm1.74,2.67a1.69,1.69,0,0,1,.92-1.65q6.27-3.68,12.52-7.37h0L82,178.13l.67-.39.7-.35c0,.6.07,1,.07,1.39-.08,7.61-.19,15.22-.25,22.83a1.87,1.87,0,0,1-1,1.87c-2.5,1.46-5,2.94-7.49,4.41V208l-13,7.63a3,3,0,0,1-.49.15c0-.44-.07-.77-.07-1.1Q61.3,203,61.42,191.39Zm14.1-19.75-14-8.28q-.12-12.63-.24-25.3c.66.13,7.48,4,13.41,7.5v.13l7.68,4.55.88.59q.11,12.57.23,25.16C82.68,175.68,79.36,173.85,75.52,171.64Zm-14.2-35.89c.08-7.81.18-15.62.24-23.42a1.92,1.92,0,0,1,1.17-1.81q8.91-5.2,17.81-10.45l2.8-1.61.19-.09c0,.49.11.89.1,1.28-.08,7.66-.18,15.32-.25,23a1.79,1.79,0,0,1-.92,1.8q-3.88,2.26-7.75,4.55v.07l-12.2,7.2c-.29.17-.6.3-1,.52A5.54,5.54,0,0,1,61.32,135.75Zm.8-50q6.29,3.59,12.59,7.13v.05l7.62,4.31c.29.16.55.36,1,.68h0L82,98.69l-7.27,4.09v.07l-12.46,7a1.9,1.9,0,0,1-2.14,0c-6.73-3.84-13.49-7.64-20.24-11.46-.25-.14-.48-.31-.85-.56a8.7,8.7,0,0,1,.94-.7q10.14-5.7,20.28-11.41A1.69,1.69,0,0,1,62.12,85.72Zm-1.38-2.59A1.88,1.88,0,0,1,59.69,85C53,88.9,46.31,92.85,39.63,96.78c-.25.15-.52.27-.89.45a7.22,7.22,0,0,1-.17-1c.09-7.81.18-15.6.26-23.41a1.59,1.59,0,0,1,.81-1.56Q50,65.2,60.32,59.09c.13-.07.27-.1.6-.23,0,.54.07.92.07,1.3C60.9,67.81,60.8,75.47,60.74,83.13ZM40,99c6.56,3.87,13.1,7.77,19.67,11.64a1.74,1.74,0,0,1,1,1.7c0,7.77.13,15.53.2,23.29,0,.29,0,.58,0,.84l-.17.11s-.1,0-.13,0c-.27-.13-.54-.24-.79-.38L38.79,123.86c-.07-8.46-.15-16.85-.23-25.53C39.2,98.65,39.59,98.82,40,99Zm-.5,26.28c6.61,3.78,13.25,7.51,19.88,11.26.33.19.64.42,1.22.79l-1.47.85q-9.84,5.53-19.66,11.06a1.91,1.91,0,0,1-2.15.14c-6.77-3.88-13.58-7.71-20.37-11.55-.25-.14-.48-.32-.84-.57a8.55,8.55,0,0,1,1-.72c6.67-3.76,13.37-7.49,20-11.29A2.14,2.14,0,0,1,39.45,125.32ZM15.73,191.45a1.8,1.8,0,0,1,.94-1.79c6.74-3.94,13.46-7.92,20.18-11.88.25-.15.52-.26.94-.47,0,.51.11.92.1,1.33-.08,7.65-.18,15.31-.25,23a1.8,1.8,0,0,1-.93,1.79c-6.78,4-13.54,8-20.31,11.94-.21.12-.43.21-.86.41,0-.58-.06-1-.06-1.34C15.57,206.76,15.67,199.1,15.73,191.45Zm-1.61-2.65C7.56,185,1,181.34-5.63,177.62c-.37-.22-.72-.46-1.22-.78.4-.29.68-.54,1-.72,6.68-3.76,13.37-7.5,20-11.29a2,2,0,0,1,2.27,0q10,5.7,20,11.33c.33.19.64.41,1.22.79l-1.48.86c-6.52,3.65-13,7.29-19.54,11A2.23,2.23,0,0,1,14.12,188.8Zm23.76-12.5c-.46-.22-.81-.36-1.13-.55-6.64-3.93-13.27-7.88-19.92-11.79a1.77,1.77,0,0,1-1-1.72c0-7.76-.13-15.53-.19-23.29a10.79,10.79,0,0,1,.08-1.13c.41.2.72.32,1,.48,6.68,3.95,13.35,7.93,20,11.86a1.76,1.76,0,0,1,1,1.72c0,7.77.13,15.53.19,23.29C38,175.5,37.91,175.82,37.88,176.3ZM15.69,135.41c.09-7.6.19-15.21.25-22.82a1.9,1.9,0,0,1,1-1.9c6.65-3.88,13.28-7.81,19.92-11.73.32-.19.67-.34,1.17-.59,0,.61.07,1.08.06,1.55-.08,7.51-.19,15-.23,22.53a2.24,2.24,0,0,1-1.26,2.19c-6.49,3.78-13,7.62-19.42,11.43-.4.24-.81.48-1.4.81C15.74,136.25,15.69,135.83,15.69,135.41Zm.36-51c-.07-8.5-.15-16.89-.23-25.22A1.34,1.34,0,0,1,16,59a.21.21,0,0,1,.13,0c.27.13.54.24.79.39l20.92,12.4c.08,8.47.16,16.89.24,25.65Zm.4,1.31c6.81,3.9,13.66,7.74,20.49,11.61.2.12.39.27.71.5-.37.27-.64.51-.95.69q-10.08,5.67-20.15,11.35a1.81,1.81,0,0,1-2,.1C7.72,106,.87,102.17-6,98.31c-.2-.12-.39-.28-.82-.59L-5.47,97q9.95-5.58,19.9-11.18A1.81,1.81,0,0,1,16.45,85.67Zm-2.61,50.49C7.29,132.28.75,128.38-5.81,124.53a1.86,1.86,0,0,1-1.11-1.82C-7,115-7,107.29-7.11,99.58c0-.33,0-.67,0-1.16a5.18,5.18,0,0,1,1,.34q10.14,6,20.28,12a1.47,1.47,0,0,1,.86,1.37c0,8,.12,16,.19,24a5.87,5.87,0,0,1-.1.66C14.59,136.54,14.2,136.37,13.84,136.16ZM-7,152.2a2.36,2.36,0,0,1,1.34-2.31c6.58-3.82,13.13-7.71,19.7-11.58a10.55,10.55,0,0,1,1-.48,10,10,0,0,1,.11,1.21c-.08,7.71-.18,15.42-.25,23.13A1.79,1.79,0,0,1,14,164C7.25,167.86.57,171.82-6.12,175.76c-.28.17-.58.29-1.1.55,0-.69,0-1.13,0-1.56C-7.18,167.23-7.06,159.72-7,152.2Zm0,50.53c-.08-8.36-.16-16.77-.23-25.54l22,13.08q.12,12.63.24,25.28C13.92,215.36-4.12,204.85-7,202.73Zm-.36,51.14c.08-7.6.18-15.21.24-22.82a1.88,1.88,0,0,1,1-1.88c6.65-3.89,13.28-7.83,19.92-11.74.32-.19.66-.33,1.14-.56,0,.56.08,1,.08,1.4-.08,7.56-.2,15.11-.24,22.67a2.22,2.22,0,0,1-1.27,2.19C7,246.89.63,250.69-5.8,254.49l-1.51.87C-7.36,254.71-7.41,254.29-7.4,253.87Zm43.73,2.63c-6.72,3.79-13.45,7.55-20.17,11.34a1.66,1.66,0,0,1-1.88.1Q4,262.07-6.36,256.25a8.11,8.11,0,0,1-.72-.53c.47-.31.74-.52,1-.68,6.6-3.71,13.21-7.4,19.78-11.15a2.44,2.44,0,0,1,2.8,0c6.47,3.72,13,7.37,19.48,11,.41.24.81.5,1.36.85C36.93,256.08,36.65,256.32,36.33,256.5ZM15.7,242.34c-.08-8.43-.16-16.85-.23-25.31,1.27.31,18.41,10.3,22.06,12.82.08,8.34.15,16.78.23,25.56Zm21.4-13.91c-6.77-3.86-13.58-7.69-20.37-11.53-.24-.14-.46-.32-.83-.58.44-.3.77-.55,1.13-.76q10-5.62,20-11.26a1.79,1.79,0,0,1,2-.08Q49.23,210,59.43,215.76c.25.14.47.31.94.64l-1.23.7q-10,5.63-20,11.26A1.81,1.81,0,0,1,37.1,228.43Zm1.12,25.63c.08-7.71.18-15.42.26-23.13a1.77,1.77,0,0,1,.92-1.8c6.79-4,13.55-8,20.32-12a8.45,8.45,0,0,1,.85-.37c0,.59.07,1,.06,1.35-.08,7.67-.18,15.33-.25,23a1.78,1.78,0,0,1-.92,1.79q-10.12,5.91-20.2,11.89c-.24.14-.51.25-.9.44A10.59,10.59,0,0,1,38.22,254.06Zm43.4,2.66-6.91,3.88v.07q-6.33,3.56-12.66,7.13a2.11,2.11,0,0,1-2.4,0c-6.6-3.79-13.25-7.51-19.87-11.26-.34-.19-.66-.41-1.11-.69a6,6,0,0,1,.78-.66q10.2-5.75,20.42-11.5a1.59,1.59,0,0,1,1.76-.08L74.71,251v0l7.08,4c.36.2.69.46,1.24.83Zm1.65-1.54-.49-.16-7.92-4.7v.06q-6.35-3.76-12.7-7.52a1.44,1.44,0,0,1-.85-1.37q-.08-12-.2-24a3,3,0,0,1,.06-.42c.64.09,7.51,4,13.54,7.55v.15c2.47,1.47,4.94,2.94,7.42,4.39a1.78,1.78,0,0,1,1,1.72c0,7.77.13,15.53.2,23.29C83.34,254.43,83.31,254.72,83.27,255.18Zm.36-26.6h-.1a2.46,2.46,0,0,1-.44-.09,3.43,3.43,0,0,1-.69-.31c-2.51-1.45-5-2.87-7.54-4.29v0L63,217.21l-1.53-.88a12.5,12.5,0,0,1,1-.76l12.36-6.95h0c2.56-1.44,5.13-2.88,7.68-4.33l.19-.09a1.63,1.63,0,0,1,.19-.09,2,2,0,0,1,1.33-.09,2.81,2.81,0,0,1,.48.21c6.69,3.83,13.42,7.61,20.13,11.4.28.17.55.37,1,.72l-3.24,1.86c-5.87,3.3-11.76,6.58-17.62,9.91A2.85,2.85,0,0,1,83.63,228.58ZM84,254.3c.08-7.86.18-15.72.24-23.58a1.75,1.75,0,0,1,0-.33,2.12,2.12,0,0,1,.91-1.21l.18-.12q8-4.67,15.92-9.34c1.56-.92,3.13-1.8,4.88-2.81,0,.45.09.77.09,1.07-.09,7.76-.19,15.53-.25,23.28a1.8,1.8,0,0,1-1,1.75q-10,5.88-20.06,11.83c-.21.13-.46.23-.76.38A3.81,3.81,0,0,1,84,254.3Zm43.58,2.15q-10.07,5.67-20.15,11.34a2.22,2.22,0,0,1-1,.34,1.87,1.87,0,0,1-.88-.26q-10.17-5.81-20.37-11.54c-.25-.14-.47-.32-.94-.64.67-.39,1.13-.66,1.6-.92C91.88,251.37,98,248,104,244.54l1.35-.75a2.94,2.94,0,0,1,.55-.25l.07,0a2.5,2.5,0,0,1,.38-.06,2.35,2.35,0,0,1,1.23.34c6.55,3.76,13.14,7.46,19.73,11.18.36.21.72.46,1.22.78C128.14,256,127.86,256.27,127.54,256.45Zm.42-1.74q-9.94-5.91-19.9-11.78a1.74,1.74,0,0,1-1-1.71c0-7.71-.13-15.42-.19-23.12,0-.35,0-.7.08-1.23l.59.3,20.68,12.26a1.81,1.81,0,0,1,.55.83c.08,8.26.15,16.49.23,25C128.5,255,128.22,254.86,128,254.71Zm1.46-26a2.14,2.14,0,0,1-1.07-.32c-6.65-3.81-13.33-7.56-20-11.33-.32-.19-.62-.41-1-.69l.29-.27a6.34,6.34,0,0,1,.67-.47q8.31-4.68,16.64-9.37l3.45-1.94a2.73,2.73,0,0,1,.46-.22l.07,0a2.17,2.17,0,0,1,.43-.08,2.13,2.13,0,0,1,1.11.33c6.65,3.8,13.33,7.55,20,11.33.31.18.61.4,1.14.75l.06,0-1.35.78q-9.9,5.55-19.79,11.12A2.39,2.39,0,0,1,129.42,228.68Zm.17,25c.09-7.56.19-15.12.25-22.68a2.43,2.43,0,0,1,.29-1.3l.07-.08a1.43,1.43,0,0,1,.2-.23,3,3,0,0,1,.39-.29h0c6.7-3.91,13.37-7.87,20.05-11.81l.16-.08.72-.35a8.27,8.27,0,0,1,.11,1.12c-.08,7.71-.18,15.41-.24,23.12a1.8,1.8,0,0,1-1,1.77c-6.74,3.93-13.45,7.91-20.18,11.87-.21.13-.46.23-.82.4C129.62,254.55,129.59,254.13,129.59,253.72ZM174.06,256l-1.16.67c-6.55,3.68-13.11,7.34-19.64,11.06a2.48,2.48,0,0,1-1.3.35,2.7,2.7,0,0,1-1.08-.38c-6.56-3.75-13.15-7.45-19.73-11.17-.36-.21-.7-.47-1.16-.78.5-.32.85-.57,1.22-.78q8.26-4.63,16.52-9.29l3.39-1.9.18-.09.33-.15.19,0a1.54,1.54,0,0,1,.31-.05,2.47,2.47,0,0,1,1.1.34c6.6,3.78,13.23,7.51,19.86,11.26.35.2.69.45,1.19.79Zm.55-.89a3.73,3.73,0,0,1-.8-.28l-20.28-12a1.45,1.45,0,0,1-.86-1.37c0-8-.13-16-.19-24a5.87,5.87,0,0,1,.09-.61c.44.23.8.39,1.13.58q9.83,5.82,19.65,11.64a3,3,0,0,1,.74.57l.08.1a1.54,1.54,0,0,1,.3,1c0,7.85.12,15.71.19,23.57C174.66,254.55,174.63,254.78,174.61,255.14Zm.32-26.56a2.89,2.89,0,0,1-1.22-.41c-6.51-3.74-13.06-7.42-19.6-11.12-.37-.21-.72-.46-1.22-.78a9.44,9.44,0,0,1,.88-.62q10.2-5.75,20.41-11.48l.34-.16a1.52,1.52,0,0,1,.94,0,1.56,1.56,0,0,1,.33.14q10.36,5.9,20.74,11.75a7,7,0,0,1,.64.51l-1.44.83c-6.5,3.66-13,7.29-19.5,11A2.53,2.53,0,0,1,174.93,228.58Zm.44,26.67c0-.58-.09-1-.09-1.38.09-7.6.19-15.21.25-22.82a1.89,1.89,0,0,1,1-1.88c6.66-3.89,13.28-7.83,19.93-11.74a10.17,10.17,0,0,1,1-.49c0,.52.08.92.08,1.33-.08,7.56-.2,15.11-.24,22.67a2.22,2.22,0,0,1-1.27,2.19c-6.45,3.76-12.86,7.56-19.29,11.36l-1.22.7Zm43.5,1.25c-6.72,3.79-13.45,7.55-20.17,11.34a2.4,2.4,0,0,1-.89.34,1.65,1.65,0,0,1-.85-.24q-10.29-5.87-20.64-11.69c-.18-.11-.35-.26-.65-.49a7.63,7.63,0,0,1,.78-.61,1.18,1.18,0,0,1,.19-.11c6.59-3.71,13.2-7.4,19.78-11.15a2.92,2.92,0,0,1,1.32-.43,2.79,2.79,0,0,1,1.33.43c6.47,3.72,13,7.37,19.48,11,.41.24.81.5,1.36.85C219.47,256.08,219.19,256.32,218.87,256.5Zm-20.48-14.16q-.12-12.61-.23-25.26c2.07.81,18.36,10.32,21.91,12.77.08,8.32.15,16.72.23,25.48Zm22.33-13.64a1.88,1.88,0,0,1-.93-.27q-10.17-5.79-20.37-11.53a9.54,9.54,0,0,1-.83-.58c.44-.3.77-.55,1.12-.76q10-5.62,20-11.26a2.76,2.76,0,0,1,.94-.34,1.85,1.85,0,0,1,.93.26c6.77,3.87,13.58,7.7,20.36,11.54.25.14.47.31.94.64l-1.23.7q-10,5.63-20,11.26A2.63,2.63,0,0,1,220.72,228.7Zm.19,25.36c.08-7.71.18-15.42.25-23.13a1.79,1.79,0,0,1,.93-1.8c6.78-4,13.54-8,20.32-12a4.29,4.29,0,0,1,.71-.31c0,.55.06.92,0,1.29-.08,7.67-.18,15.33-.25,23a1.78,1.78,0,0,1-.92,1.79q-10.12,5.91-20.2,11.89c-.21.12-.45.22-.76.37A8.92,8.92,0,0,1,220.91,254.06Zm43.35,2.69q-9.84,5.5-19.67,11.05a2.51,2.51,0,0,1-1.12.37,2.2,2.2,0,0,1-1.13-.35c-6.61-3.79-13.25-7.51-19.88-11.26-.33-.19-.65-.41-1.1-.69a5.37,5.37,0,0,1,.78-.66q10.2-5.75,20.42-11.5a2.22,2.22,0,0,1,.82-.3,1.46,1.46,0,0,1,.79.22l20.89,11.84a7,7,0,0,1,.58.48Zm1.7-1.57a4.43,4.43,0,0,1-.82-.31q-10.15-6-20.29-12a1.47,1.47,0,0,1-.86-1.37c0-8-.12-16-.19-24a2.65,2.65,0,0,1,0-.38c1.19.44,7.78,4.17,13.55,7.59v.07l5.4,3.2c1.06.66,1.95,1.23,2.6,1.67a1.44,1.44,0,0,1,.36.65c.08,8.16.15,16.29.23,24.57C266,254.94,266,255.05,266,255.18Zm.31-26.6a3.15,3.15,0,0,1-1.35-.46c-6.38-3.68-12.81-7.28-19.23-10.91l-1.52-.88a11,11,0,0,1,1-.76c6.64-3.74,13.29-7.45,19.91-11.22a2.59,2.59,0,0,1,1.23-.39,2.46,2.46,0,0,1,1.16.36c6.56,3.76,13.16,7.46,19.74,11.18.38.22.73.46,1.34.85-1.25.72-2.25,1.31-3.26,1.88-5.08,2.85-10.17,5.69-15.23,8.57l-2.35,1.32A2.76,2.76,0,0,1,266.27,228.58Zm.39,26.58c0-.57-.06-1-.06-1.38.08-7.52.2-15,.23-22.55a2.3,2.3,0,0,1,1.36-2.29c6.47-3.77,12.91-7.59,19.36-11.38l.16-.1c.31-.17.65-.33,1.11-.56v0c0,.64,0,1.06,0,1.47-.08,7.52-.19,15-.24,22.55a2.22,2.22,0,0,1-1.23,2.21l-.09.05c-6.47,3.77-12.9,7.6-19.34,11.41l-.53.3-.74.36S266.67,255.21,266.66,255.16Zm43.52,1.31q-10.06,5.67-20.14,11.34a2.58,2.58,0,0,1-.38.18l-.28.1h0a1.6,1.6,0,0,1-.69,0,2.06,2.06,0,0,1-.5-.21c-6.78-3.87-13.58-7.69-20.37-11.54-.24-.14-.46-.32-.94-.64l1.34-.77q9.94-5.59,19.9-11.18a2.75,2.75,0,0,1,.73-.3,2,2,0,0,1,.73,0,1.92,1.92,0,0,1,.4.17c6.78,3.87,13.58,7.69,20.37,11.53.25.14.47.32.85.57C310.78,256.05,310.5,256.29,310.18,256.47Zm1.39-1.19-.4-.21-21-12.46a1.67,1.67,0,0,1-.44-.67c-.07-8.25-.15-16.55-.23-25.06.56.28,1,.47,1.32.69,6.47,3.83,12.92,7.68,19.4,11.47a2.2,2.2,0,0,1,1.24,2.19c0,7.46.11,14.92.18,22.39C311.61,254.07,311.59,254.54,311.57,255.28Zm.48-26.59a2.48,2.48,0,0,1-1.14-.35c-6.6-3.79-13.24-7.52-19.87-11.27-.33-.18-.65-.4-1.1-.69a5.25,5.25,0,0,1,.78-.65q10.2-5.76,20.42-11.5a2.18,2.18,0,0,1,.53-.23,1.76,1.76,0,0,1,.82,0,1.83,1.83,0,0,1,.26.11q10.44,5.94,20.89,11.84c.12.07.22.19.58.49l-1.38.79c-6.56,3.68-13.13,7.34-19.67,11.05a3,3,0,0,1-.61.28l-.1,0A2.12,2.12,0,0,1,312.05,228.69Zm.26,26.48c0-.53-.08-.93-.08-1.34.09-7.61.19-15.21.25-22.82a1.89,1.89,0,0,1,1-1.88c6.66-3.89,13.29-7.83,19.93-11.74.28-.17.6-.3,1-.49,0,.52.09.93.08,1.33-.08,7.56-.19,15.12-.23,22.68a2.23,2.23,0,0,1-1.26,2.18l-1.57.92q-9,5.27-18,10.59c-.32.18-.67.35-1.11.57Zm43.56,1.36-9.09,5.11-1.58.89-9.46,5.32a2.13,2.13,0,0,1-2,0c-6.73-3.85-13.49-7.65-20.24-11.46-.24-.14-.46-.33-.93-.64l1.22-.7q10-5.64,20-11.26a2.34,2.34,0,0,1,.94-.34,2,2,0,0,1,.48.07,2.73,2.73,0,0,1,.45.19c6.77,3.87,13.58,7.69,20.37,11.54a9.89,9.89,0,0,1,.83.57C356.47,256.12,356.18,256.35,355.87,256.53Zm1.37-1.36-.43-.13c-.21-.1-.41-.19-.58-.29q-10-5.9-19.9-11.79a1.63,1.63,0,0,1-1-1.57c0-7.85-.13-15.71-.19-23.56a9.18,9.18,0,0,1,.08-1l.06,0c.54.3.93.51,1.3.73,6.43,3.8,12.84,7.63,19.28,11.39a2.21,2.21,0,0,1,1.28,2.18c0,7.51.11,15,.17,22.54C357.3,254.15,357.26,254.6,357.24,255.17Zm.64-26.61a2,2,0,0,1-.85-.06,3.07,3.07,0,0,1-.67-.31c-6.52-3.74-13.07-7.41-19.6-11.12-.38-.2-.73-.45-1.24-.78.37-.26.61-.47.88-.62q10.22-5.73,20.41-11.48a1.82,1.82,0,0,1,.9-.27,1.87,1.87,0,0,1,.84.27l11.63,6.59v-.05l9,5.12a7,7,0,0,1,.64.51l-1.44.83-8.24,4.62h0c-3.77,2.13-7.55,4.26-11.31,6.4a3.44,3.44,0,0,1-.56.26l-.31.08Zm0,25.42c.08-7.65.19-15.31.25-23a1.79,1.79,0,0,1,.93-1.79q5.63-3.28,11.23-6.6v-.08l8.68-5.12c.32-.19.66-.33,1.13-.56,0,.56.09,1,.09,1.4-.09,7.56-.2,15.11-.24,22.67a2.22,2.22,0,0,1-1.27,2.19q-4.28,2.49-8.54,5h0l-11.74,6.92a2.93,2.93,0,0,1-.46.17C358,254.72,357.92,254.35,357.92,254Zm43.63,2.52c-6.72,3.79-13.45,7.55-20.16,11.34a1.67,1.67,0,0,1-1.89.1l-9.17-5.19v-.05l-11.41-6.45c-.17-.1-.32-.23-.62-.44a9.27,9.27,0,0,1,.89-.7l11.14-6.26v-.08q4.32-2.43,8.63-4.88a2.42,2.42,0,0,1,2.79,0c6.48,3.72,13,7.37,19.49,11,.41.24.8.5,1.36.85C402.16,256.08,401.87,256.32,401.55,256.5Zm-20.62-14.16c-.08-8.43-.16-16.85-.23-25.31,1.27.31,18.41,10.3,22.05,12.82.08,8.34.16,16.78.24,25.56Zm21.4-13.91Q392.16,222.64,382,216.9a9.54,9.54,0,0,1-.83-.58c.44-.3.77-.55,1.12-.76q10-5.62,20-11.26a1.81,1.81,0,0,1,2-.08q10.15,5.81,20.36,11.54a11,11,0,0,1,.93.64l-1.22.7q-10,5.63-20,11.26A1.79,1.79,0,0,1,402.33,228.43Zm1.12,25.63c.08-7.71.18-15.42.25-23.13a1.79,1.79,0,0,1,.93-1.8c6.78-4,13.55-8,20.32-12a8.45,8.45,0,0,1,.85-.37c0,.59.06,1,.06,1.35-.08,7.67-.18,15.33-.25,23a1.79,1.79,0,0,1-.93,1.79q-10.11,5.91-20.19,11.89c-.24.14-.51.25-.9.44A10.59,10.59,0,0,1,403.45,254.06Zm43.5,2.69q-9.84,5.5-19.67,11.05a2.11,2.11,0,0,1-2.4,0c-6.61-3.79-13.25-7.51-19.88-11.26-.33-.19-.65-.41-1.1-.69a5.37,5.37,0,0,1,.78-.66q10.2-5.75,20.42-11.5a1.59,1.59,0,0,1,1.76-.08q10.42,5.93,20.89,11.84a6,6,0,0,1,.57.48Zm.73-1.88q-10.15-6-20.29-12a1.47,1.47,0,0,1-.86-1.37c0-8-.12-16-.19-24a3,3,0,0,1,.06-.42c1,.15,18.23,10.14,22,12.81.08,8.44.16,16.83.24,25.39A5.79,5.79,0,0,1,447.68,254.87Zm-.22-26.75c-6.38-3.68-12.81-7.28-19.23-10.91l-1.52-.88a11,11,0,0,1,1-.76c6.64-3.74,13.29-7.45,19.91-11.22a2.24,2.24,0,0,1,2.54,0c6.56,3.76,13.16,7.46,19.74,11.18.38.22.73.46,1.34.85-1.25.72-2.25,1.31-3.27,1.88-5.87,3.3-11.76,6.56-17.61,9.92A2.54,2.54,0,0,1,447.46,228.12Zm1.68,25.66c.08-7.52.2-15,.23-22.55a2.3,2.3,0,0,1,1.36-2.29c6.5-3.78,13-7.62,19.44-11.43.37-.22.76-.39,1.34-.68,0,.7.05,1.14,0,1.57-.08,7.52-.19,15-.24,22.55a2.23,2.23,0,0,1-1.23,2.21c-6.5,3.79-13,7.63-19.43,11.46-.41.23-.82.46-1.43.82C449.18,254.71,449.14,254.24,449.14,253.78Zm43.73,2.69-20.15,11.34a1.78,1.78,0,0,1-2,.08c-6.77-3.87-13.57-7.69-20.37-11.54-.24-.14-.46-.32-.94-.64l1.34-.77q9.94-5.59,19.9-11.18a1.78,1.78,0,0,1,2-.09c6.78,3.87,13.58,7.69,20.37,11.53.25.14.47.32.84.57A11.83,11.83,0,0,1,492.87,256.47Zm1.39-1.08-22-13c-.08-8.41-.16-16.87-.24-25.55.64.33,1.07.53,1.47.77,6.47,3.83,12.91,7.68,19.4,11.47a2.18,2.18,0,0,1,1.23,2.19c0,7.46.12,14.92.19,22.39C494.3,254.1,494.27,254.58,494.26,255.39Zm-.8-27c-6.61-3.79-13.25-7.52-19.88-11.27-.33-.18-.65-.4-1.1-.69a5.25,5.25,0,0,1,.78-.65q10.2-5.76,20.42-11.5a1.59,1.59,0,0,1,1.76-.09q10.43,5.94,20.89,11.84a6.89,6.89,0,0,1,.57.49l-1.38.79c-6.55,3.68-13.12,7.34-19.66,11.05A2.11,2.11,0,0,1,493.46,228.34Zm1.31,25.49c.09-7.61.19-15.21.25-22.82a1.88,1.88,0,0,1,1-1.88c6.65-3.89,13.28-7.83,19.92-11.74.32-.19.66-.33,1.13-.56,0,.56.09,1,.09,1.4-.08,7.56-.2,15.12-.24,22.68a2.22,2.22,0,0,1-1.26,2.19c-6.54,3.8-13,7.66-19.56,11.5-.36.21-.75.38-1.26.64C494.82,254.67,494.77,254.26,494.77,253.83Zm43.78,2.7L518.4,267.86a1.78,1.78,0,0,1-2,.08c-6.78-3.87-13.58-7.69-20.37-11.53-.24-.14-.46-.33-.93-.64l1.22-.7q10-5.64,20-11.26a1.78,1.78,0,0,1,2-.08c6.78,3.87,13.58,7.69,20.37,11.54a8.42,8.42,0,0,1,.84.57C539.15,256.12,538.87,256.35,538.55,256.53Zm-19.3-38.92c6.42,3.8,12.83,7.63,19.28,11.39a2.23,2.23,0,0,1,1.28,2.18c0,7.51.11,15,.17,22.54,0,.47,0,.94-.06,1.58-.49-.23-.83-.37-1.15-.55q-10-5.9-19.9-11.79a1.63,1.63,0,0,1-1-1.57c0-7.85-.13-15.71-.19-23.56,0-.28.05-.56.09-1.06C518.41,217.13,518.83,217.36,519.25,217.61Zm20.62-15.67a1.47,1.47,0,0,1-.75,1.45q-10.36,6.08-20.69,12.2a6.55,6.55,0,0,1-.66.24c0-.64-.06-1.11,0-1.58.08-7.52.19-15,.24-22.55a2.22,2.22,0,0,1,1.26-2.2c6.54-3.8,13-7.66,19.57-11.51l1.14-.65a4.92,4.92,0,0,1,.2,1C540.05,186.23,540,194.09,539.87,201.94Zm-21-63.61q10.1,6,20.17,11.94a1.43,1.43,0,0,1,.9,1.34c0,8.06.12,16.11.18,24.17a2.47,2.47,0,0,1-.13.49c-3.75-2-7.31-4.28-10.94-6.41s-7.3-4.33-11-6.5c-.08-8.47-.15-16.85-.23-25.41A6.21,6.21,0,0,1,518.87,138.33ZM540,122.64a1.8,1.8,0,0,1-.94,1.79c-6.78,4-13.54,8-20.31,11.94-.21.12-.44.21-.86.41,0-.59-.06-1,0-1.35.08-7.66.18-15.31.25-23a1.77,1.77,0,0,1,1-1.77q10.09-5.91,20.17-11.89c.25-.14.52-.25.91-.45a11.76,11.76,0,0,1,.13,1.18C540.2,107.24,540.09,114.94,540,122.64Zm.08-50.85c.08,8.45.16,16.89.24,25.47a5,5,0,0,1-.87-.28q-10.22-6-20.42-12.09a1.43,1.43,0,0,1-.85-1.38c-.05-8-.13-16-.19-24a6.26,6.26,0,0,1,.1-.74Zm.37-51.52c-.07,7.89-.17,15.79-.25,23.69a1.47,1.47,0,0,1-.78,1.43Q529,51.5,518.63,57.63a2.67,2.67,0,0,1-.49.15c0-.49-.07-.87-.06-1.24.08-7.71.18-15.41.24-23.12a1.68,1.68,0,0,1,.92-1.64q10.17-6,20.3-12c.21-.12.43-.21.75-.37A3.16,3.16,0,0,1,540.48,20.27ZM497,17.94q9.89-5.55,19.77-11.12a2,2,0,0,1,2.27,0q9.9,5.65,19.85,11.24c.37.21.71.47,1.18.78-.5.32-.85.57-1.22.78-6.58,3.71-13.18,7.39-19.75,11.14a2.25,2.25,0,0,1-2.54,0C510,27,503.42,23.29,496.85,19.57c-.37-.21-.7-.47-1.24-.83Zm-1.69,1.52a4.08,4.08,0,0,1,.83.26l20.4,12.08a1.43,1.43,0,0,1,.85,1.37c.05,8,.13,16,.19,24a5.5,5.5,0,0,1-.1.65c-.52-.26-.91-.44-1.28-.65-6.55-3.88-13.08-7.78-19.65-11.63a1.86,1.86,0,0,1-1.1-1.82c0-7.71-.12-15.42-.19-23.13C495.27,20.26,495.3,19.92,495.32,19.46Zm.65,26.8c6.77,3.87,13.57,7.69,20.36,11.53.25.14.47.31.84.57a11.18,11.18,0,0,1-1.12.76q-10,5.64-20,11.27a1.77,1.77,0,0,1-2,.08c-6.77-3.87-13.57-7.69-20.37-11.53-.24-.14-.46-.32-.93-.64.54-.32.87-.52,1.21-.7q10-5.62,20-11.26A1.79,1.79,0,0,1,496,46.26ZM494.8,20.68c-.09,7.65-.19,15.3-.26,23a1.79,1.79,0,0,1-.92,1.8c-6.79,4-13.54,8-20.31,11.94-.21.12-.44.21-.77.36a6.86,6.86,0,0,1-.16-1c.08-7.8.18-15.6.26-23.4a1.57,1.57,0,0,1,.81-1.56q10.35-6.08,20.68-12.18c.12-.07.27-.1.6-.23C494.76,19.92,494.8,20.3,494.8,20.68ZM451.28,18c6.55-3.68,13.12-7.35,19.64-11.08a2.33,2.33,0,0,1,2.67,0c6.52,3.74,13.08,7.42,19.62,11.12.37.21.73.45,1.22.76a5.37,5.37,0,0,1-.81.67Q483.41,25.26,473.19,31a1.59,1.59,0,0,1-1.76.07q-10.37-5.89-20.77-11.76c-.16-.1-.3-.23-.69-.53Zm20.41,14.29c.08,8.48.16,16.89.23,25.64L449.86,44.88c-.08-8.43-.15-16.85-.24-25.66Zm-21.58,13.8Q460.54,52.05,471,57.94a6.21,6.21,0,0,1,.53.47l-1.37.79c-6.51,3.66-13,7.3-19.51,11a2.33,2.33,0,0,1-2.66,0c-6.55-3.77-13.15-7.46-19.73-11.19-.33-.18-.64-.41-1.09-.7a5.66,5.66,0,0,1,.67-.56Q438.14,52,448.48,46.16A1.49,1.49,0,0,1,450.11,46.11Zm-.94-25.5c-.09,7.71-.19,15.42-.25,23.14a1.81,1.81,0,0,1-.95,1.78c-6.71,3.91-13.38,7.88-20.07,11.82a11.35,11.35,0,0,1-1.08.52c0-.57-.07-.91-.07-1.25.09-7.71.19-15.42.25-23.13a1.9,1.9,0,0,1,1.07-1.86c6.66-3.89,13.3-7.82,19.95-11.73.28-.17.59-.3,1-.51C449.1,19.88,449.17,20.25,449.17,20.61Zm-43.94-2.45c6.72-3.78,13.45-7.54,20.16-11.35a2,2,0,0,1,2.28,0c6.65,3.81,13.33,7.56,20,11.33.33.19.63.42,1.18.78-1.23.71-2.23,1.3-3.25,1.87-5.87,3.3-11.76,6.58-17.61,9.91a2.44,2.44,0,0,1-2.79,0c-6.43-3.71-12.9-7.33-19.36-11l-1.5-.87A8.77,8.77,0,0,1,405.23,18.16ZM404,19.31c.57.3,1,.5,1.4.74,6.47,3.82,12.93,7.68,19.42,11.48a2.19,2.19,0,0,1,1.27,2.17c0,7.52.11,15,.18,22.56,0,.47,0,1-.06,1.6-.57-.3-1-.5-1.4-.74-6.47-3.83-12.93-7.68-19.42-11.48a2.22,2.22,0,0,1-1.27-2.18c0-7.51-.11-15-.17-22.56C404,20.44,404,20,404,19.31Zm1,27.12c6.51,3.75,13.07,7.42,19.61,11.12.38.21.74.45,1.22.75a4.39,4.39,0,0,1-.63.61q-10.33,5.82-20.68,11.63a1.48,1.48,0,0,1-1.63,0Q392.44,64.62,382,58.72c-.12-.07-.22-.18-.52-.42.49-.32.83-.57,1.2-.77,6.56-3.69,13.12-7.36,19.65-11.08A2.33,2.33,0,0,1,405,46.43Zm-1.52-25.75q-.12,11.49-.25,23a1.76,1.76,0,0,1-.92,1.79q-10.11,5.91-20.19,11.89c-.24.14-.51.25-1,.49,0-.72,0-1.2,0-1.67.08-7.47.19-14.94.23-22.41a2.36,2.36,0,0,1,1.31-2.33c6.59-3.81,13.13-7.71,19.69-11.57.29-.17.6-.29,1.07-.52C403.41,19.86,403.48,20.27,403.47,20.68ZM359.6,18.32l10.73-6v-.08l9.57-5.38a1.79,1.79,0,0,1,2-.08c6.78,3.87,13.58,7.69,20.37,11.54a9.1,9.1,0,0,1,.83.57c-.4.28-.69.51-1,.69Q392,25.22,382,30.89a1.79,1.79,0,0,1-2,.07q-4.8-2.75-9.61-5.45v0l-10.67-6c-.25-.14-.46-.32-.82-.57C359.17,18.63,359.37,18.45,359.6,18.32Zm5.12,4.7,15.65,9.27c.08,8.47.15,16.89.23,25.65l-5.25-3.11-5-3v0L359.16,45.2a1.75,1.75,0,0,1-.52-.82q-.12-12.33-.23-24.72C359.13,19.92,361.62,21.26,364.72,23Zm-6.64,23a3.1,3.1,0,0,1,1.35.46q5.35,3.09,10.75,6.13v0l8.9,5c.33.19.64.42,1.2.78l-3,1.72-11.67,6.56-6.51,3.66a2.13,2.13,0,0,1-1.74.24c-.09,0-.17-.06-.26-.11-6.78-3.88-13.58-7.7-20.38-11.55-.25-.14-.47-.32-.89-.61.52-.33.83-.56,1.16-.75,6.51-3.66,13-7.3,19.51-11A3.12,3.12,0,0,1,358.08,46Zm-.28-25.76c-.08,7.89-.18,15.79-.26,23.69a2.28,2.28,0,0,1,0,.26,2.12,2.12,0,0,1-1,1.32q-10.29,6-20.56,12.09a1.88,1.88,0,0,1-.34.11c0-.47-.07-.84-.06-1.2.08-7.71.18-15.41.24-23.12a1.68,1.68,0,0,1,.92-1.64q10.17-6,20.3-12c.17-.1.38-.19.62-.3A3,3,0,0,1,357.8,20.27Zm-44.57-1.62,1.23-.71q9.9-5.55,19.78-11.12a2.22,2.22,0,0,1,1.08-.34,2.46,2.46,0,0,1,1,.35c6.6,3.77,13.24,7.5,19.86,11.24.36.21.7.47,1.17.78-.5.32-.84.57-1.21.78C349.59,23.34,343,27,336.42,30.77a3.57,3.57,0,0,1-.51.22,2.07,2.07,0,0,1-.33.1h-.06a2,2,0,0,1-.84-.06,3,3,0,0,1-.65-.29c-6.55-3.76-13.15-7.46-19.72-11.18-.37-.21-.7-.47-1.22-.82Zm-.45.85a2.86,2.86,0,0,1,.68.22q10.21,6,20.41,12.08a1.49,1.49,0,0,1,.78.9v0a2,2,0,0,1,0,.45c.05,8,.13,16,.19,24a2.75,2.75,0,0,1-.09.59c-.45-.23-.81-.4-1.14-.59C327.12,53.3,320.59,49.4,314,45.55a1.86,1.86,0,0,1-1.1-1.82c0-7.71-.12-15.42-.19-23.13C312.73,20.27,312.76,19.94,312.78,19.5ZM312.35,46l.24,0,.18,0a2.18,2.18,0,0,1,.51.22c6.77,3.87,13.57,7.69,20.37,11.53.24.14.46.31.82.56l-.23.18a7.51,7.51,0,0,1-.88.59q-10,5.64-20,11.27a2.66,2.66,0,0,1-.77.3,1.62,1.62,0,0,1-.19,0l-.2,0-.19,0a2,2,0,0,1-.52-.22c-6.78-3.87-13.58-7.69-20.37-11.53-.24-.14-.46-.32-.93-.64.54-.32.87-.52,1.21-.7q10-5.62,20-11.26A2.5,2.5,0,0,1,312.35,46Zm-.24-25.32c-.09,7.65-.19,15.3-.25,23a2.1,2.1,0,0,1-.37,1.3l-.13.17a2.29,2.29,0,0,1-.23.17,2.71,2.71,0,0,1-.25.19c-6.75,3.93-13.47,7.91-20.21,11.88l-.53.26-.15.07a6.06,6.06,0,0,1-.15-.94c.08-7.8.18-15.6.26-23.4a1.57,1.57,0,0,1,.81-1.56q10.35-6.08,20.68-12.18a2.26,2.26,0,0,1,.45-.17C312.07,19.94,312.11,20.31,312.11,20.68ZM268.74,18c6.55-3.68,13.12-7.35,19.64-11.08a2.64,2.64,0,0,1,1.31-.39,2.93,2.93,0,0,1,1.22.41c6.51,3.74,13.07,7.42,19.61,11.12.38.21.74.45,1.23.76a5.92,5.92,0,0,1-.82.67Q300.72,25.26,290.5,31l-.26.12a1.65,1.65,0,0,1-1.05.08,2.48,2.48,0,0,1-.3-.13q-10.36-5.89-20.77-11.76c-.16-.1-.3-.23-.69-.53Zm-.53,2L289,32.31c.08,8.45.16,16.83.24,25.55l-21.92-13c-.08-8.39-.15-16.78-.23-25.53C267.47,19.55,267.83,19.77,268.21,20Zm-1,26a1.63,1.63,0,0,1,.25.1q10.43,5.94,20.87,11.83a5.1,5.1,0,0,1,.45.39,7.25,7.25,0,0,1-.75.56L284.28,61q-5.67,3.18-11.33,6.39l-5.24,2.95a2.71,2.71,0,0,1-1,.3,2.54,2.54,0,0,1-1.28-.39c-6.55-3.77-13.15-7.46-19.73-11.19-.33-.18-.64-.41-1.09-.7a5.66,5.66,0,0,1,.67-.56Q255.6,52,265.94,46.16l.36-.17A1.71,1.71,0,0,1,267.17,46Zm-.69-25.4q-.14,11.56-.25,23.14a2.8,2.8,0,0,1-.13.81,2.06,2.06,0,0,1-.65.84l-.13.1-.11.07c-6.68,3.9-13.33,7.85-20,11.78-.25.15-.53.27-.94.46,0-.54-.07-.86-.07-1.19.09-7.71.19-15.42.25-23.13a1.9,1.9,0,0,1,1.07-1.86c6.66-3.89,13.3-7.82,20-11.73.25-.15.53-.27.89-.45C266.42,19.91,266.48,20.27,266.48,20.61Zm-43.79-2.45c6.72-3.78,13.45-7.54,20.16-11.35a2.39,2.39,0,0,1,1.07-.36,2.27,2.27,0,0,1,1.06.33c6.65,3.81,13.34,7.56,20,11.33.3.17.59.38,1,.69a6.48,6.48,0,0,1-.52.47l-1.33.77-5.75,3.23c-4.38,2.46-8.76,4.91-13.13,7.4a2.91,2.91,0,0,1-1.33.46,2.68,2.68,0,0,1-1.31-.41c-6.43-3.71-12.9-7.33-19.36-11l-1.5-.87A8.77,8.77,0,0,1,222.69,18.16Zm-1.22,1.23c.49.25.89.44,1.25.66,6.48,3.82,12.93,7.68,19.42,11.48a2.19,2.19,0,0,1,1.27,2.17c0,7.52.12,15,.18,22.56,0,.45,0,.91-.06,1.52-.49-.25-.89-.44-1.25-.66-6.47-3.83-12.93-7.68-19.42-11.48a2.22,2.22,0,0,1-1.27-2.18c0-7.51-.11-15-.18-22.56C221.41,20.46,221.44,20,221.47,19.39ZM221,46a2.57,2.57,0,0,1,1.26.4c6.52,3.75,13.08,7.42,19.62,11.12.38.21.74.45,1.22.75a4.4,4.4,0,0,1-.64.61q-10.33,5.82-20.68,11.63a1.93,1.93,0,0,1-.75.24,1.56,1.56,0,0,1-.73-.22q-10.44-5.94-20.89-11.84c-.12-.07-.22-.18-.52-.42.49-.32.83-.57,1.2-.77,6.56-3.69,13.12-7.36,19.65-11.08A2.84,2.84,0,0,1,221,46Zm-.25-25.35c-.08,7.66-.18,15.32-.25,23a1.78,1.78,0,0,1-.92,1.79q-10.12,5.91-20.2,11.89c-.22.13-.46.23-.86.43,0-.69,0-1.15,0-1.61.08-7.47.19-14.94.23-22.41a2.36,2.36,0,0,1,1.31-2.33c6.59-3.81,13.13-7.71,19.69-11.57.26-.15.55-.27.93-.45C220.73,19.89,220.79,20.29,220.79,20.68Zm-43.9-2.34.44-.25,2.91-1.64,7.4-4.16h0l9.72-5.46a2.34,2.34,0,0,1,.94-.34,1.82,1.82,0,0,1,.92.26c6.78,3.87,13.58,7.69,20.37,11.54.25.14.47.31.84.57-.41.28-.7.51-1,.69q-10.08,5.67-20.15,11.34a2.47,2.47,0,0,1-.94.33,1.67,1.67,0,0,1-.93-.26c-6.77-3.87-13.57-7.69-20.36-11.53a10.21,10.21,0,0,1-.85-.58A7.34,7.34,0,0,1,176.89,18.34Zm-1.06,1.3a38.35,38.35,0,0,1,3.72,1.91l18.13,10.74c.08,8.44.16,16.83.23,25.57l-5.1-3c-5.21-3.09-10.41-6.19-15.63-9.24A2.09,2.09,0,0,1,176,43.53c0-7.52-.11-15-.18-22.55C175.78,20.59,175.81,20.19,175.83,19.64Zm.2,26.47a3,3,0,0,1,.49.22c6.61,3.79,13.25,7.51,19.87,11.26.33.19.64.42,1.2.78l-3,1.72c-6,3.37-12,6.73-18,10.13a2.59,2.59,0,0,1-1.36.41,2.42,2.42,0,0,1-1-.36c-6.56-3.76-13.16-7.46-19.74-11.18-.38-.21-.73-.46-1.23-.77a7.93,7.93,0,0,1,1-.73c6.62-3.73,13.26-7.44,19.87-11.2l.11,0c.08-.05.16-.08.24-.12A2.4,2.4,0,0,1,176,46.11Zm-.95-26.62c0,.54.08.92.07,1.3-.08,7.56-.19,15.12-.23,22.67a2.22,2.22,0,0,1-1.26,2.19c-6.46,3.76-12.87,7.57-19.3,11.36l-1.21.7-.19.06c0-.63-.06-1.07-.06-1.51.08-7.51.19-15,.23-22.53a2.23,2.23,0,0,1,1.27-2.18c6.45-3.76,12.87-7.58,19.29-11.37l.76-.44.61-.3S175.07,19.48,175.08,19.49Zm-43.52-1.42c2.69-1.5,5.37-3,8.06-4.53l3.88-2.18c2.74-1.54,5.48-3.07,8.21-4.62A2.73,2.73,0,0,1,152,6.6a1.78,1.78,0,0,1,1.16,0,2.76,2.76,0,0,1,.4.18q10,5.73,20.11,11.39c.33.18.63.42,1.12.76l-1.38.79c-6.55,3.69-13.11,7.35-19.64,11.07a2.47,2.47,0,0,1-1.23.37,2.66,2.66,0,0,1-1.15-.37c-6.56-3.77-13.15-7.46-19.73-11.19-.37-.2-.71-.46-1.17-.77C130.94,18.48,131.24,18.25,131.56,18.07Zm-1.39,1.41.34.09a5.78,5.78,0,0,1,.66.34q10,5.88,19.91,11.77a1.76,1.76,0,0,1,1,1.73c0,7.71.12,15.42.19,23.13,0,.35-.05.71-.09,1.19-.39-.18-.71-.32-1-.48q-10-5.89-19.91-11.78a1.79,1.79,0,0,1-1-1.73c0-7.71-.12-15.42-.18-23.13C130.1,20.28,130.14,19.93,130.17,19.48ZM129.74,46a2.1,2.1,0,0,1,1,.3c6.68,3.83,13.4,7.6,20.11,11.4.29.16.56.36,1,.62A10.06,10.06,0,0,1,151,59q-10.22,5.73-20.41,11.48a2.12,2.12,0,0,1-.88.29,1.7,1.7,0,0,1-.86-.26q-10.23-5.82-20.5-11.6c-.2-.12-.39-.27-.83-.59l1.31-.75c6.64-3.73,13.28-7.44,19.9-11.19a3.41,3.41,0,0,1,.52-.24l.14,0A1.86,1.86,0,0,1,129.74,46Zm-.27-25.34c-.09,7.66-.19,15.31-.25,23a1.88,1.88,0,0,1-1.05,1.86q-10,5.87-20.06,11.8c-.22.13-.46.24-.76.38a6.06,6.06,0,0,1-.15-.94q.14-11.7.26-23.41a1.58,1.58,0,0,1,.81-1.55Q118.62,25.69,129,19.58c.1,0,.23-.09.45-.17C129.43,19.92,129.47,20.29,129.47,20.65ZM86,18.06c6.59-3.72,13.2-7.41,19.78-11.15a3.41,3.41,0,0,1,.52-.24,2.42,2.42,0,0,1,.36-.1h0a2,2,0,0,1,.9.06,3,3,0,0,1,.59.26c6.56,3.76,13.16,7.46,19.74,11.19.38.21.72.46,1.22.77-.41.3-.68.55-1,.73-6.73,3.78-13.47,7.54-20.18,11.34a2.12,2.12,0,0,1-1,.31,1.9,1.9,0,0,1-.9-.28Q95.92,25.16,85.71,19.41c-.25-.14-.47-.33-.93-.65Zm9.38,7.72c3.66,2.15,7.3,4.32,11,6.51.07,8.44.15,16.83.23,25.55l-21.92-13c-.08-8.39-.15-16.79-.23-25.49C88.28,21.47,91.8,23.68,95.38,25.78ZM84,45.94a2,2,0,0,1,1,.3q10,5.73,20.12,11.39c.27.15.54.34.91.58l.06,0a7.94,7.94,0,0,1-.82.63q-10.2,5.74-20.4,11.49a3.05,3.05,0,0,1-.42.19,2,2,0,0,1-1,0l-.28-.12c-2.77-1.58-5.54-3.14-8.31-4.71v0C70.91,63.5,67,61.28,63,59c-.34-.18-.65-.41-1.1-.7a5.66,5.66,0,0,1,.67-.56Q72.82,52,83.05,46.27A2.5,2.5,0,0,1,84,45.94Zm-.24-26.52c0,.59.07,1,.07,1.49-.09,7.52-.19,15-.24,22.55a2.23,2.23,0,0,1-1.23,2.21c-2.56,1.49-5.11,3-7.66,4.5v.08l-12,7.1a11.76,11.76,0,0,1-1.09.52c0-.57-.07-.91-.07-1.25.09-7.71.2-15.42.25-23.13a1.91,1.91,0,0,1,1.08-1.86q6-3.51,12-7.06h0L82.61,20C82.94,19.82,83.3,19.65,83.77,19.42ZM40,18.16c6.72-3.78,13.45-7.54,20.16-11.35a2,2,0,0,1,2.28,0q6.12,3.51,12.27,7v0L82.18,18c.37.21.73.46,1.22.75a4.77,4.77,0,0,1-.66.6l-8,4.52v.08q-6,3.35-11.95,6.73a2.44,2.44,0,0,1-2.79,0c-6.43-3.71-12.9-7.33-19.35-11l-1.5-.87A8.81,8.81,0,0,1,40,18.16Zm-1.21,1.15c.57.3,1,.5,1.39.74,6.48,3.82,12.93,7.68,19.42,11.48a2.19,2.19,0,0,1,1.27,2.17c0,7.52.11,15,.18,22.56,0,.47,0,1-.06,1.6-.57-.3-1-.5-1.4-.74-6.47-3.83-12.93-7.68-19.42-11.48a2.22,2.22,0,0,1-1.27-2.18c0-7.51-.11-15-.17-22.56C38.72,20.44,38.76,20,38.79,19.31Zm1,27.12c6.52,3.75,13.08,7.42,19.62,11.12.38.21.74.45,1.22.75a4.4,4.4,0,0,1-.64.61Q49.63,64.73,39.28,70.54a1.48,1.48,0,0,1-1.63,0Q27.21,64.62,16.76,58.72a5.82,5.82,0,0,1-.51-.42c.48-.32.83-.57,1.2-.77C24,53.84,30.56,50.17,37.09,46.45A2.33,2.33,0,0,1,39.76,46.43ZM38.25,20.68c-.08,7.66-.18,15.32-.25,23a1.8,1.8,0,0,1-.92,1.79Q27,51.36,16.88,57.34c-.24.14-.51.25-1,.49,0-.72-.05-1.2,0-1.67.08-7.47.19-14.94.23-22.41a2.36,2.36,0,0,1,1.31-2.33c6.59-3.81,13.13-7.71,19.7-11.57.28-.17.59-.29,1.06-.52C38.18,19.86,38.25,20.27,38.25,20.68ZM-5.36,18.09q10-5.62,20-11.26a1.79,1.79,0,0,1,2-.08c6.78,3.87,13.58,7.69,20.37,11.54.25.14.47.31.84.57-.41.28-.7.51-1,.69Q26.8,25.22,16.73,30.89a1.79,1.79,0,0,1-2,.07C7.94,27.09,1.14,23.27-5.65,19.43c-.25-.14-.47-.32-.93-.64C-6,18.47-5.7,18.27-5.36,18.09Zm-1.47,1.18,22,13c.08,8.47.16,16.89.24,25.65l-5.26-3.11c-5.2-3.09-10.4-6.19-15.63-9.24a2.09,2.09,0,0,1-1.22-2.06c0-7.52-.11-15-.18-22.55C-6.91,20.5-6.87,20-6.83,19.27Z"/></g></svg>