<svg id="Layer_1" data-name="Layer 1" xmlns="http://www.w3.org/2000/svg" xmlns:xlink="http://www.w3.org/1999/xlink" viewBox="0 0 1920 480"><defs><style>.cls-1{fill:none;}.cls-2{fill:#d7a68d;}.cls-3{opacity:0.64;fill:url(#New_Pattern2);}</style><pattern id="New_Pattern2" data-name="New Pattern2" width="343.88" height="343.88" patternUnits="userSpaceOnUse" viewBox="0 0 343.88 343.88"><rect class="cls-1" width="343.88" height="343.88"/><path class="cls-2" d="M286.63,88.43s36.65,12.74,42-21.53l-.4-.18q-4.35-1.83-8.78-3.41C309.66,62.4,294.57,65.3,286.63,88.43Z"/><path class="cls-2" d="M52.11,47.17s-11.78,27,11.1,35.67q2.92.51,5.88.87C71,79.57,78.83,58.72,52.11,47.17Z"/><path class="cls-2" d="M173.72,325.57s-15.78-11-31.78-6.71c-2.83,2.7-5.53,5.53-8.1,8.52q-3,3.47-5.67,7.13C132.36,339.46,143.72,344.29,173.72,325.57Z"/><path class="cls-2" d="M265.24,217.34c22.26-16.45,19-31.14,16.38-36.89q-4.56,1.1-9,2.49C248.3,201.51,265.24,217.34,265.24,217.34Z"/><path class="cls-2" d="M170.73,177.81A45.55,45.55,0,0,0,166,204.76,60.87,60.87,0,0,1,172.55,217q3.64,3.47,7,7.22C184.22,215.84,191.08,196.64,170.73,177.81Z"/><path class="cls-2" d="M69.63,147.85A166.35,166.35,0,0,0,58.8,128.73a244,244,0,0,0-7.63,24.87A84.46,84.46,0,0,0,69.63,147.85Z"/><path class="cls-2" d="M104.91,108.17a126.25,126.25,0,0,1-5-15.4,129,129,0,0,1-16.25,1c-1.11,0-2.22,0-3.32-.05-5.59,4.5-11.57,12.17-17.36,24.83a174.2,174.2,0,0,1,14.85,25.14C89.53,137,101.38,125.88,104.91,108.17Z"/><path class="cls-2" d="M221.92,38.43c.19.35.39.7.59,1l.29.49.61,1.05c.1.16.2.32.29.48.22.35.43.7.65,1l.3.46c.22.35.44.7.67,1l.3.44.7,1,.3.42.74,1,.29.4c.14.2.28.39.43.58q8-1.64,16.22-2.52c7.34-6.26,15.86-18.22,24.83-40.08,0,0-39.07.64-47.64,32.25,0,.09.09.19.14.28Z"/><path class="cls-2" d="M54.68,263.1s19.76,36.73,53.56,23.69a137.45,137.45,0,0,0-5.3-18C95.33,264.05,81.08,260.78,54.68,263.1Z"/><path class="cls-2" d="M263.43,44.44a178.46,178.46,0,0,0-19.13,1q-8.19.87-16.22,2.52c-.15-.19-.29-.38-.43-.58l-.29-.4-.74-1-.3-.42-.7-1-.3-.44c-.23-.35-.45-.7-.67-1l-.3-.46c-.22-.34-.43-.69-.65-1-.09-.16-.19-.32-.29-.48L222.8,40l-.29-.49c-.2-.35-.4-.7-.59-1l-.29-.51c0-.09-.1-.19-.14-.28l-.42-.76-.28-.54c-.18-.34-.36-.69-.53-1l-.28-.55c-.17-.35-.34-.69-.5-1l-.28-.57c-.16-.34-.31-.69-.47-1l-.27-.6-.45-1c-.09-.2-.17-.41-.26-.61l-.42-1c-.09-.22-.17-.43-.26-.64l-.39-1c-.09-.22-.17-.44-.25-.66s-.25-.67-.37-1l-.24-.67-.34-1c-.08-.23-.16-.47-.23-.7s-.22-.66-.32-1-.15-.48-.22-.72-.2-.65-.3-1l-.21-.73-.27-1c-.07-.25-.13-.5-.2-.75s-.17-.65-.25-1-.13-.51-.19-.77-.15-.64-.22-1l-.18-.8c-.07-.31-.14-.63-.2-.95s-.11-.55-.16-.82-.13-.63-.19-.94-.09-.56-.14-.84-.11-.62-.16-.93-.09-.57-.14-.86-.09-.61-.14-.92l-.12-.88c0-.3-.08-.6-.11-.91s-.07-.61-.11-.91l-.09-.88c0-.32-.06-.64-.09-1s-.06-.57-.08-.86,0-.66-.07-1L211,1c0-.35,0-.69-.05-1H197.56a117.71,117.71,0,0,1-4.31,12,118.38,118.38,0,0,1-21.33,33.42c-4.47-6.59-22.5-28.31-54.51-7.1,0,0,19.22,29.26,43.84,17.53A118.54,118.54,0,0,1,130,75.25a117.85,117.85,0,0,1-22.92,7,120.07,120.07,0,0,1,.44-45c.84-2.87,1.71-5.79,2.57-8.64,1.13-3.77,2.28-7.58,3.38-11.42A118.74,118.74,0,0,1,121.93,0H108.5c-1.07,4.84-2.46,9.62-3.81,14.35l-.52,1.35a127.72,127.72,0,0,0-5.64,19.47l-.27.95a4.53,4.53,0,0,0-.18,1.4A129.2,129.2,0,0,0,98,83.75a120.85,120.85,0,0,1-14.28.84,119.64,119.64,0,0,1-14.58-.88q-3-.36-5.88-.87a118.06,118.06,0,0,1-25.83-7.59,120.68,120.68,0,0,1-15.68-8c.93-.86,1.84-1.73,2.73-2.62A96.89,96.89,0,0,0,52.92,0h-9.2A88,88,0,0,1,35.1,34c-.5-7.67-4.71-16.89-19.47-23.26,0,0-12,27.6,11.95,36a90.41,90.41,0,0,1-9.65,11.4c-1.33,1.33-2.71,2.61-4.11,3.85A120.32,120.32,0,0,1,0,50.17V62.69C1.32,63.84,2.67,65,4,66q-2-1.09-4-2.14V74.31A165.4,165.4,0,0,1,30.55,96c-9.18-1-20.78.64-30.55,10.71V128c13.57,3,35.75,4,44.17-18.32a166.66,166.66,0,0,1,14.63,19,166.35,166.35,0,0,1,10.83,19.12c1.2,2.48,2.33,5,3.4,7.52a165.47,165.47,0,0,1,13.09,64.84,4.42,4.42,0,0,0,.31,1.63q-4.55-5.47-9.61-10.56a149.79,149.79,0,0,0-39.44-28.36C40.91,175.3,47.2,155,22,142c0,0-10.8,20-2.11,33.61q-4-1.4-8.15-2.57A38,38,0,0,0,0,164.64v20.73a23,23,0,0,0,6.66-4.21,139.72,139.72,0,0,1,18.89,6.44q4.26,1.8,8.36,3.87A127.44,127.44,0,0,0,0,212.51V225a118.48,118.48,0,0,1,44.37-27.73,140.81,140.81,0,0,1,25.94,20.5,140.34,140.34,0,0,1,30.19,44.76c.86,2.05,1.68,4.12,2.44,6.2a137.45,137.45,0,0,1,5.3,18,141,141,0,0,1,3.32,30.58c0,.63,0,1.26,0,1.89,0,.12,0,.23,0,.34l0,1.61a1.34,1.34,0,0,1,0,.2c-.21,7.6-1.6,15.11-3,22.47h13.43q2.89-4.81,6.24-9.37,2.69-3.66,5.67-7.13c2.57-3,5.27-5.82,8.1-8.52a118.84,118.84,0,0,1,58.78-30.61,122.77,122.77,0,0,1,1.87,21.3,118.5,118.5,0,0,1-5,34.33H211c-.07-1.47-.11-3-.11-4.44A88.43,88.43,0,0,1,299.29,251,89.46,89.46,0,0,1,313,252.08c-1.25,2.49-2.43,5-3.52,7.61a127.15,127.15,0,0,0-10,45.91c3.9,7.4,2.28,12.92.5,16a126.45,126.45,0,0,0,4.09,22.24h9.57A119.4,119.4,0,0,1,318,263.27c1.33-3.15,2.8-6.22,4.38-9.23a87.07,87.07,0,0,1,21.52,9v-10.5a96,96,0,0,0-16.76-6.72,119.21,119.21,0,0,1,16.34-20.36l.42-.41V212.53q-3.56,3.08-6.92,6.43a128.74,128.74,0,0,0-19.24,24.59,98.9,98.9,0,0,0-18.43-1.73,96.94,96.94,0,0,0-52.62,15.36c4.52-8.83,6.54-21.56-2.75-37.61A46.79,46.79,0,0,0,233,267.8c-.92.85-1.84,1.72-2.73,2.61a97.8,97.8,0,0,0-19.06,26.84A128.19,128.19,0,0,0,198.38,252c7.72-7.86,14.84-19.22,17.84-35.41a142,142,0,0,1,27-20.69,139.84,139.84,0,0,1,29.33-13q4.47-1.4,9-2.49a141.23,141.23,0,0,1,31-3.9c6,5.06,18.9,13.83,31.27,8.82V164.64c-7.08-3.14-16.64-4.29-27.37,2.71h-1.9a150.56,150.56,0,0,0-41.93,6c1.14-6.75-.83-24.86-53.85-26.71,0,0,12.25,31.49,40.33,31.35A148.78,148.78,0,0,0,238.59,188a150.59,150.59,0,0,0-32.29,25.57,51.09,51.09,0,0,0-22.87,15.21q-1.89-2.33-3.88-4.56-3.36-3.75-7-7.22A60.87,60.87,0,0,0,166,204.76c-8.63-12.3-24.91-25.07-54.66-20.94,0,0,13.2,36,55.35,40.27A116.54,116.54,0,0,1,178,236.74c-4.29,7.91-7.07,18.25-6.86,31.76a60.45,60.45,0,0,0,20.07-10.19,118.68,118.68,0,0,1,7.55,20.95,128.2,128.2,0,0,0-71.9,42.12q-3.5,4.06-6.62,8.38.33-4,.44-8.07a1.85,1.85,0,0,0,0-.23c0-.57,0-1.13,0-1.7v-.37c0-.68,0-1.35,0-2A149,149,0,0,0,109,259,149,149,0,0,0,97.51,237.1a4.48,4.48,0,0,0,.07-1.27c-.49-5.18-.73-10.43-.73-15.62a165.47,165.47,0,0,1,13.09-64.84A167.2,167.2,0,0,1,119,137.09c3.74,7.63,16.14,16.5,53.83,15.76,0,0-15.12-33.39-45.53-28.74a168.06,168.06,0,0,1,18.31-21.69,166.05,166.05,0,0,1,71.81-42.36c-4.19,11.11-5.94,30.12,19.32,46.62,0,0,21.14-32.08-3.54-50.32a167.52,167.52,0,0,1,30.2-2.72,165.64,165.64,0,0,1,56.06,9.67q4.42,1.57,8.78,3.41l.4.18a165.62,165.62,0,0,1,15.21,7.41V63.89q-5.89-3-12-5.63A174.68,174.68,0,0,0,263.43,44.44Zm-162,107.35a174.36,174.36,0,0,0-10,31.71,174.39,174.39,0,0,0-10-31.71q-1.73-4.09-3.66-8.08A174.2,174.2,0,0,0,63,118.57,177.09,177.09,0,0,0,45.27,97.39a4.21,4.21,0,0,0-.36-.37c-.36-.37-.71-.74-1.07-1.1A177.46,177.46,0,0,0,25.13,79.66q4.25,2.18,8.67,4.06a127.11,127.11,0,0,0,46.55,10c1.1,0,2.21.05,3.32.05a129,129,0,0,0,16.25-1,127.16,127.16,0,0,0,14.38,34.34A174.84,174.84,0,0,0,101.47,151.79ZM195,58.26a176.77,176.77,0,0,0-75,60.32,117.76,117.76,0,0,1-11-27.3,126.72,126.72,0,0,0,24.51-7.56,127.63,127.63,0,0,0,40.72-27.46,127.6,127.6,0,0,0,27.45-40.72c.47-1.11.93-2.23,1.36-3.35,0,.18.07.37.1.55l.18,1c.06.29.11.59.17.88s.13.66.2,1l.18.86c.07.33.15.67.23,1s.12.55.19.82.16.69.25,1,.13.53.2.79l.27,1,.21.75c.1.36.2.72.31,1.08l.21.71.33,1.1c.07.22.15.44.22.67s.24.76.37,1.14c.06.19.13.39.2.59l.41,1.2c.06.16.13.33.19.5.15.42.31.85.47,1.27,0,.12.09.24.14.36l.54,1.4,0,.1a95.73,95.73,0,0,0,4.65,9.89l0,.05.81,1.45.11.19c.25.46.52.91.78,1.36.06.09.11.18.16.27l.78,1.29.2.32.78,1.24c.08.12.15.24.23.35.26.41.52.81.79,1.21l.25.36c0,.09.11.17.16.25A174.92,174.92,0,0,0,195,58.26Z"/><path class="cls-2" d="M318,12a117.78,117.78,0,0,1-4.32-12h-9.57a126.57,126.57,0,0,0,5.42,15.54A127.6,127.6,0,0,0,337,56.26q3.36,3.36,6.92,6.43V50.17l-.42-.41A118.53,118.53,0,0,1,318,12Z"/><path class="cls-2" d="M171.26,288s-6.73-33.7-44.48-28.45C126.78,259.51,137.2,287.93,171.26,288Z"/><path class="cls-2" d="M52.87,334.06c8.81-5.32,23.67-18.6,16.1-45.11a47,47,0,0,0-19.65,23.71,97.08,97.08,0,0,0-24.89-42.25l-.1-.1-.3.1-.62-1A98.17,98.17,0,0,0,0,252.55v10.5a88.81,88.81,0,0,1,17.93,13.86,87.86,87.86,0,0,1,25.9,62.53c0,1.48,0,3-.11,4.44h9.2c.07-1.48.1-3,.1-4.44C53,337.64,53,335.85,52.87,334.06Z"/><path class="cls-2" d="M261.44,276S259,319.9,297.77,324.55a12.15,12.15,0,0,0,2.23-2.91c1.78-3.12,3.4-8.64-.5-16C295.33,297.67,284.83,287.58,261.44,276Z"/><path class="cls-2" d="M343.88,128V106.72a54.88,54.88,0,0,0-11.12,17.87A70.51,70.51,0,0,0,343.88,128Z"/><path class="cls-2" d="M152.33,96.54S167,137.92,217,117.39C217,117.39,198.6,81.83,152.33,96.54Z"/><path class="cls-2" d="M24.33,270.31c3.27-1.08,32.51-11.9,18.45-48,0,0-39.12,15.06-19.37,47.09l.62,1Z"/></pattern></defs><rect class="cls-3" width="1920" height="480"/></svg>