<?xml version="1.0" encoding="utf-8"?>
<!-- Generator: Adobe Illustrator 25.2.1, SVG Export Plug-In . SVG Version: 6.00 Build 0)  -->
<svg version="1.1" id="Layer_1" xmlns="http://www.w3.org/2000/svg" xmlns:xlink="http://www.w3.org/1999/xlink" x="0px" y="0px"
	 viewBox="0 0 1920 827.2" style="enable-background:new 0 0 1920 827.2;" xml:space="preserve">
<style type="text/css">
	.st0{fill:none;}
	.st1{fill:#D7A68D;}
	.st2{opacity:0.1;fill:url(#SVGID_1_);enable-background:new    ;}
</style>
<pattern  y="480" width="343.9" height="343.9" patternUnits="userSpaceOnUse" id="New_Pattern2" viewBox="0 -343.9 343.9 343.9" style="overflow:visible;">
	<g>
		<rect y="-343.9" class="st0" width="343.9" height="343.9"/>
		<rect y="-343.9" class="st0" width="343.9" height="343.9"/>
		<path class="st1" d="M286.6-88.4c0,0,36.6-12.7,42,21.5l-0.4,0.2c-2.9,1.2-5.8,2.4-8.8,3.4C309.7-62.4,294.6-65.3,286.6-88.4z"/>
		<path class="st1" d="M52.1-47.2c0,0-11.8-27,11.1-35.7c1.9-0.3,3.9-0.6,5.9-0.9C71-79.6,78.8-58.7,52.1-47.2z"/>
		<path class="st1" d="M173.7-325.6c0,0-15.8,11-31.8,6.7c-2.8-2.7-5.5-5.5-8.1-8.5c-2-2.3-3.9-4.7-5.7-7.1
			C132.4-339.5,143.7-344.3,173.7-325.6z"/>
		<path class="st1" d="M265.2-217.3c22.3,16.4,19,31.1,16.4,36.9c-3-0.7-6-1.6-9-2.5C248.3-201.5,265.2-217.3,265.2-217.3z"/>
		<path class="st1" d="M170.7-177.8c-4.3-8.3-6-17.7-4.7-26.9c2.6-3.8,4.8-7.9,6.6-12.2c2.4-2.3,4.8-4.7,7-7.2
			C184.2-215.8,191.1-196.6,170.7-177.8z"/>
		<path class="st1" d="M69.6-147.9c-3.2,6.6-6.8,13-10.8,19.1c-3-8.1-5.5-16.5-7.6-24.9C57.5-152.4,63.7-150.5,69.6-147.9z"/>
		<path class="st1" d="M104.9-108.2c-2,5-3.7,10.2-5,15.4c-5.4-0.7-10.8-1-16.2-1c-1.1,0-2.2,0-3.3,0.1
			c-5.6-4.5-11.6-12.2-17.4-24.8c5.6-7.9,10.6-16.4,14.8-25.1C89.5-137,101.4-125.9,104.9-108.2z"/>
		<path class="st1" d="M221.9-38.4c0.2-0.3,0.4-0.7,0.6-1l0.3-0.5l0.6-1c0.1-0.2,0.2-0.3,0.3-0.5c0.2-0.3,0.4-0.7,0.6-1l0.3-0.5
			c0.2-0.3,0.4-0.7,0.7-1l0.3-0.4l0.7-1l0.3-0.4l0.7-1l0.3-0.4c0.1-0.2,0.3-0.4,0.4-0.6c5.3,1.1,10.7,1.9,16.2,2.5
			c7.3,6.3,15.9,18.2,24.8,40.1c0,0-39.1-0.6-47.6-32.2c0-0.1,0.1-0.2,0.1-0.3L221.9-38.4z"/>
		<path class="st1" d="M54.7-263.1c0,0,19.8-36.7,53.6-23.7c-1.4,6.1-3.1,12.1-5.3,18C95.3-264,81.1-260.8,54.7-263.1z"/>
		<path class="st1" d="M263.4-44.4c-6.4,0-12.8-0.3-19.1-1c-5.5-0.6-10.9-1.4-16.2-2.5c-0.1,0.2-0.3,0.4-0.4,0.6l-0.3,0.4l-0.7,1
			l-0.3,0.4l-0.7,1l-0.3,0.4c-0.2,0.3-0.4,0.7-0.7,1l-0.3,0.5c-0.2,0.3-0.4,0.7-0.6,1c-0.1,0.2-0.2,0.3-0.3,0.5l-0.6,1.2l-0.3,0.5
			c-0.2,0.3-0.4,0.7-0.6,1l-0.3,0.5c0,0.1-0.1,0.2-0.1,0.3l-0.4,0.8l-0.3,0.5c-0.2,0.3-0.4,0.7-0.5,1l-0.3,0.5
			c-0.2,0.3-0.3,0.7-0.5,1l-0.3,0.6c-0.2,0.3-0.3,0.7-0.5,1l-0.3,0.6l-0.4,1c-0.1,0.2-0.2,0.4-0.3,0.6l-0.4,1
			c-0.1,0.2-0.2,0.4-0.3,0.6l-0.4,1c-0.1,0.2-0.2,0.4-0.2,0.7s-0.2,0.7-0.4,1l-0.2,0.7l-0.3,1c-0.1,0.2-0.2,0.5-0.2,0.7
			s-0.2,0.7-0.3,1s-0.1,0.5-0.2,0.7s-0.2,0.6-0.3,1l-0.2,0.7l-0.3,1c-0.1,0.2-0.1,0.5-0.2,0.8s-0.2,0.6-0.2,1s-0.1,0.5-0.2,0.8
			s-0.1,0.6-0.2,1l-0.2,0.8c-0.1,0.3-0.1,0.6-0.2,0.9s-0.1,0.6-0.2,0.8s-0.1,0.6-0.2,0.9s-0.1,0.6-0.1,0.8s-0.1,0.6-0.2,0.9
			s-0.1,0.6-0.1,0.9s-0.1,0.6-0.1,0.9l-0.1,0.9c0,0.3-0.1,0.6-0.1,0.9s-0.1,0.6-0.1,0.9l-0.1,0.9c0,0.3-0.1,0.6-0.1,1
			s-0.1,0.6-0.1,0.9s0,0.7-0.1,1L211-1c0,0.4,0,0.7-0.1,1h-13.4c-1.2-4.1-2.7-8.1-4.3-12c-5.2-12.3-12.4-23.6-21.3-33.4
			c-4.5,6.6-22.5,28.3-54.5,7.1c0,0,19.2-29.3,43.8-17.5c-9.3-8.1-19.9-14.6-31.2-19.4c-7.4-3.1-15.1-5.5-22.9-7
			c-2.7,14.9-2.5,30.2,0.4,45c0.8,2.9,1.7,5.8,2.6,8.6c1.1,3.8,2.3,7.6,3.4,11.4c2.4,5.9,5.2,11.7,8.5,17.2h-13.4
			c-1.1-4.8-2.5-9.6-3.8-14.4l-0.5-1.4c-2.4-6.3-4.3-12.8-5.6-19.5l-0.3-1c-0.1-0.5-0.2-0.9-0.2-1.4c-2.8-15.3-2.8-30.9-0.1-46.2
			c-4.7-0.6-9.5-0.8-14.3-0.8c-4.9,0-9.7,0.3-14.6,0.9c-2,0.2-4,0.5-5.9,0.9c-8.9,1.5-17.5,4.1-25.8,7.6c-5.4,2.3-10.7,5-15.7,8
			c0.9,0.9,1.8,1.7,2.7,2.6C41.8-47.4,51.9-24.4,52.9,0h-9.2c-0.6-11.8-3.5-23.4-8.6-34c-0.5,7.7-4.7,16.9-19.5,23.3
			c0,0-12-27.6,11.9-36c-2.9-4.1-6.1-7.9-9.6-11.4c-1.3-1.3-2.7-2.6-4.1-3.8C8.9-58.4,4.3-54.5,0-50.2v-12.5C1.3-63.8,2.7-65,4-66
			c-1.3,0.7-2.7,1.4-4,2.1v-10.4c11-6,21.2-13.3,30.5-21.7C21.4-95,9.8-96.6,0-106.7V-128c13.6-3,35.8-4,44.2,18.3
			c5.3-6,10.2-12.3,14.6-19c4-6.1,7.6-12.5,10.8-19.1c1.2-2.5,2.3-5,3.4-7.5c8.7-20.5,13.1-42.6,13.1-64.8c0-0.6,0.1-1.1,0.3-1.6
			c-3,3.6-6.2,7.2-9.6,10.6c-11.5,11.5-24.8,21.1-39.4,28.4c3.5,7.6,9.8,27.9-15.4,40.9c0,0-10.8-20-2.1-33.6
			c-2.7,0.9-5.4,1.8-8.1,2.6c-3.3,3.5-7.3,6.4-11.7,8.4v-20.7c2.4,1,4.7,2.4,6.7,4.2c6.4-1.7,12.8-3.8,18.9-6.4
			c2.8-1.2,5.6-2.5,8.4-3.9c-12.3-5.2-23.8-12.3-33.9-21V-225c12.5,12.4,27.7,21.9,44.4,27.7c9.4-5.8,18.1-12.7,25.9-20.5
			c12.9-12.8,23.1-28,30.2-44.8c0.9-2,1.7-4.1,2.4-6.2c2.2-5.9,3.9-11.9,5.3-18c2.2-10,3.3-20.3,3.3-30.6c0-0.6,0-1.3,0-1.9
			c0-0.1,0-0.2,0-0.3v-1.6c0-0.1,0-0.1,0-0.2c-0.2-7.6-1.6-15.1-3-22.5H122c1.9,3.2,4,6.3,6.2,9.4c1.8,2.4,3.7,4.8,5.7,7.1
			c2.6,3,5.3,5.8,8.1,8.5c16.3,15.6,36.7,26.2,58.8,30.6c1.2-7,1.9-14.2,1.9-21.3c0-11.6-1.7-23.2-5-34.3H211
			c-0.1,1.5-0.1,3-0.1,4.4c0,48.8,39.6,88.4,88.4,88.4c4.6,0,9.2-0.4,13.7-1.1c-1.2-2.5-2.4-5-3.5-7.6c-6.2-14.5-9.5-30.1-10-45.9
			c3.9-7.4,2.3-12.9,0.5-16c0.7-7.5,2.1-15,4.1-22.2h9.6c-7.9,26.5-6.4,55,4.4,80.6c1.3,3.1,2.8,6.2,4.4,9.2c7.5-2,14.8-5,21.5-9
			v10.5c-5.4,2.8-11,5-16.8,6.7c4.7,7.4,10.2,14.2,16.3,20.4l0.4,0.4v12.5c-2.4-2.1-4.7-4.2-6.9-6.4c-7.4-7.4-13.8-15.6-19.2-24.6
			c-6.1,1.2-12.2,1.7-18.4,1.7c-18.7,0-36.9-5.3-52.6-15.4c4.5,8.8,6.5,21.6-2.8,37.6c-12.5-12.7-16.8-31.4-10.9-48.2
			c-0.9-0.9-1.8-1.7-2.7-2.6c-7.8-7.8-14.3-16.9-19.1-26.8c-1.4,15.7-5.8,31.1-12.8,45.2c7.7,7.9,14.8,19.2,17.8,35.4
			c8.1,8,17.2,14.9,27,20.7c9.2,5.4,19.1,9.8,29.3,13c3,0.9,6,1.8,9,2.5c10.2,2.4,20.6,3.8,31,3.9c6-5.1,18.9-13.8,31.3-8.8v20.7
			c-7.1,3.1-16.6,4.3-27.4-2.7h-1.9c-14.2,0-28.3-2-41.9-6c1.1,6.8-0.8,24.9-53.9,26.7c0,0,12.2-31.5,40.3-31.4
			c-7.1-2.8-13.9-6.2-20.5-10c-11.9-7-22.7-15.6-32.3-25.6c-8.9-2.9-16.8-8.1-22.9-15.2c-1.3,1.6-2.6,3.1-3.9,4.6
			c-2.2,2.5-4.6,4.9-7,7.2c-1.7,4.3-3.9,8.4-6.5,12.2c-8.6,12.3-24.9,25.1-54.7,20.9c0,0,13.2-36,55.4-40.3
			c4.1-3.9,7.9-8.2,11.3-12.7c-4.3-7.9-7.1-18.2-6.9-31.8c7.3,2.1,14.1,5.6,20.1,10.2c3.2-6.7,5.7-13.7,7.6-21
			c-28-5.6-53.3-20.5-71.9-42.1c-2.3-2.7-4.5-5.5-6.6-8.4c0.2,2.7,0.4,5.4,0.4,8.1c0,0.1,0,0.2,0,0.2c0,0.6,0,1.1,0,1.7v0.4
			c0,0.7,0,1.4,0,2c0.1,20.1-3.9,39.9-11.7,58.4c-3.2,7.6-7.1,14.9-11.5,21.9c0.1,0.4,0.1,0.8,0.1,1.3c-0.5,5.2-0.7,10.4-0.7,15.6
			c0,22.3,4.4,44.3,13.1,64.8c2.6,6.3,5.7,12.4,9.1,18.3c3.7-7.6,16.1-16.5,53.8-15.8c0,0-15.1,33.4-45.5,28.7
			c5.5,7.7,11.6,15,18.3,21.7c19.9,20,44.7,34.6,71.8,42.4c-4.2-11.1-5.9-30.1,19.3-46.6c0,0,21.1,32.1-3.5,50.3
			c10,1.8,20.1,2.7,30.2,2.7c19.1,0,38.1-3.2,56.1-9.7c2.9-1,5.9-2.2,8.8-3.4l0.4-0.2c5.2-2.2,10.3-4.7,15.2-7.4v10.4
			c-3.9,2-7.9,3.9-12,5.6C310.2-49.1,286.9-44.4,263.4-44.4z M101.4-151.8c-4.3-10.2-7.7-20.8-10-31.7c-2.3,10.9-5.7,21.5-10,31.7
			c-1.2,2.7-2.4,5.4-3.7,8.1c-4.2,8.8-9.2,17.2-14.8,25.1c-5.3,7.5-11.3,14.6-17.7,21.2c-0.1,0.1-0.2,0.3-0.4,0.4
			c-0.4,0.4-0.7,0.7-1.1,1.1C38-90.1,31.7-84.6,25.1-79.7c2.8-1.5,5.7-2.8,8.7-4.1c14.7-6.2,30.5-9.6,46.5-10c1.1,0,2.2-0.1,3.3-0.1
			c5.4,0,10.9,0.3,16.2,1c3.1-12.1,7.9-23.7,14.4-34.3C109.4-135,105.1-143.2,101.4-151.8L101.4-151.8z M195-58.3
			c-30.1-12.8-56.1-33.7-75-60.3c-4.8,8.6-8.5,17.8-11,27.3c8.4,1.7,16.6,4.2,24.5,7.6c15.2,6.4,29.1,15.8,40.7,27.5
			c11.7,11.7,21,25.5,27.4,40.7c0.5,1.1,0.9,2.2,1.4,3.4c0-0.2,0.1-0.4,0.1-0.6l0.2-1c0.1-0.3,0.1-0.6,0.2-0.9s0.1-0.7,0.2-1
			l0.2-0.9c0.1-0.3,0.1-0.7,0.2-1s0.1-0.5,0.2-0.8s0.2-0.7,0.2-1s0.1-0.5,0.2-0.8l0.3-1l0.2-0.8c0.1-0.4,0.2-0.7,0.3-1.1l0.2-0.7
			l0.3-1.1c0.1-0.2,0.1-0.4,0.2-0.7s0.2-0.8,0.4-1.1c0.1-0.2,0.1-0.4,0.2-0.6l0.4-1.2c0.1-0.2,0.1-0.3,0.2-0.5
			c0.1-0.4,0.3-0.9,0.5-1.3c0-0.1,0.1-0.2,0.1-0.4l0.5-1.4V-32c1.4-3.4,2.9-6.7,4.6-9.9v0l0.8-1.5l0.1-0.2c0.2-0.5,0.5-0.9,0.8-1.4
			c0.1-0.1,0.1-0.2,0.2-0.3l0.8-1.3l0.2-0.3l0.8-1.2c0.1-0.1,0.1-0.2,0.2-0.3c0.3-0.4,0.5-0.8,0.8-1.2l0.2-0.4
			c0-0.1,0.1-0.2,0.2-0.2C210.4-52.3,202.6-55,195-58.3z"/>
		<path class="st1" d="M318-12c-1.7,3.9-3.1,7.9-4.3,12h-9.6c1.5-5.3,3.3-10.5,5.4-15.5c6.4-15.2,15.8-29.1,27.5-40.7
			c2.2-2.2,4.5-4.4,6.9-6.4v12.5l-0.4,0.4C332.6-38.9,324-26.1,318-12z"/>
		<path class="st1" d="M171.3-288c0,0-6.7,33.7-44.5,28.5C126.8-259.5,137.2-287.9,171.3-288z"/>
		<path class="st1" d="M52.9-334.1c8.8,5.3,23.7,18.6,16.1,45.1c-9-5.5-15.9-13.8-19.7-23.7c-4.5,16-13.1,30.5-24.9,42.2l-0.1,0.1
			l-0.3-0.1l-0.6,1C16.5-262.7,8.6-257,0-252.6V-263c6.5-3.8,12.6-8.5,17.9-13.9c16.6-16.5,26-39.1,25.9-62.5c0-1.5,0-3-0.1-4.4h9.2
			c0.1,1.5,0.1,3,0.1,4.4C53-337.6,53-335.9,52.9-334.1z"/>
		<path class="st1" d="M261.4-276c0,0-2.4-43.9,36.3-48.5c0.9,0.9,1.6,1.8,2.2,2.9c1.8,3.1,3.4,8.6-0.5,16
			C295.3-297.7,284.8-287.6,261.4-276z"/>
		<path class="st1" d="M343.9-128v21.3c-4.8-5.2-8.6-11.3-11.1-17.9C336.4-126,340.1-127.2,343.9-128z"/>
		<path class="st1" d="M152.3-96.5c0,0,14.7-41.4,64.7-20.8C217-117.4,198.6-81.8,152.3-96.5z"/>
		<path class="st1" d="M24.3-270.3c3.3,1.1,32.5,11.9,18.4,48c0,0-39.1-15.1-19.4-47.1l0.6-1L24.3-270.3z"/>
	</g>
</pattern>
<pattern  id="SVGID_1_" xlink:href="#New_Pattern2" patternTransform="matrix(1 0 0 -1 -277 -15944.2803)">
</pattern>
<rect class="st2" width="1920" height="827.2"/>
</svg>
