<svg id="_ëîé_1" data-name="—ëîé_1" xmlns="http://www.w3.org/2000/svg" viewBox="0 0 130 36.56"><defs><style>.cls-1{fill:#d7a68d;}</style></defs><path class="cls-1" d="M15,22.65a55.67,55.67,0,0,0,11.5-1.09,9.32,9.32,0,0,0,3.4,1.69c3.76,1.11,8.11.74,11.87.23A136.41,136.41,0,0,0,60.07,19.3c2.77-.77,4.75-1.34,6.67-1.9,2.53-.75,4.38-1.33,4.67-1.42,17.47-5.4,37.36-11.56,47.45-6.08,3.13,1.69,5.7,4.71,5.77,7.92.09,3.91-3.56,6.62-4.37,7.23-6.3,4.7-18.34,5.29-24.24,1.19a9.46,9.46,0,0,1-2.85-3.1,18.38,18.38,0,0,0,3.89-1.35c1.58-.77,4-1.92,4.27-3.75a2.67,2.67,0,0,0-.24-1.56,4,4,0,0,0-2-1.78c-2.2-.89-5.2.19-6.63,1.24a4.8,4.8,0,0,0-1.29,6.42c-1.25.22-2.6.39-4.14.52A99.39,99.39,0,0,1,74,23c-.48,0-.73.24-.75.48s.22.62.73.64c6,.34,12.32.49,17.68-.63a11.37,11.37,0,0,0,.72,1.21c1.81,2.57,5.43,4.47,9.92,5.2a25.27,25.27,0,0,0,4.38.36c1.81,0,10.69,0,16.28-5.06,1-.94,4.46-4,3.91-8.29s-4.68-6.83-5.8-7.52A21.57,21.57,0,0,0,113.7,6.7c-2.65-.51-11.89-1.91-41.64,7.06C70.27,14.3,68,15,64.23,16.1,57.76,18,51.91,19.64,45.88,20.86c-4.43.9-10,2-14.6.92a9.53,9.53,0,0,1-2.23-.8c1.18-.3,2.22-.6,3.18-.91,3.43-1.11,8.11-2.92,9.06-5.74a2.32,2.32,0,0,0-.76-2.72c-1.16-.95-3.42-1.41-5.75-1.17a12.65,12.65,0,0,0-8.67,4.71c-1.33,1.85-1.55,3.77-.59,5.29-6,1.19-13.9,1.92-18.1-1.26A3.53,3.53,0,0,1,5.75,16a4.33,4.33,0,0,1,2.64-3c3.9-2,8.57-.42,10.4.34a.73.73,0,0,0,.79-.15.31.31,0,0,0-.08-.53c-3.12-1.92-8-3.24-12.37-1.22a6.74,6.74,0,0,0-3.91,3.94A4,4,0,0,0,4.35,19.2C6.47,21.44,10.06,22.6,15,22.65Zm77.47-1.21-.09,0,.09,0a4,4,0,0,1,.64-3.94c1.11-1.15,3.51-2,4.95-1.39a1.94,1.94,0,0,1,1.17,1.49c.16,1.57-2.47,3.35-6.56,4.45C92.61,21.86,92.54,21.65,92.48,21.44Zm-64.6-5.8a10.88,10.88,0,0,1,8.38-4h.07c1.74,0,2.78.37,3.11,1.06.52,1.09-.93,2.9-2.61,3.9a31.57,31.57,0,0,1-9,3.32l-.13,0C26.66,18.8,26.72,17.22,27.88,15.64Z"/></svg>