<svg id="_ëîé_1" data-name="—ëîé_1" xmlns="http://www.w3.org/2000/svg" viewBox="0 0 130 36.56"><defs><style>.cls-1{fill:#d7a68d;}</style></defs><path class="cls-1" d="M125.65,19.2a4,4,0,0,0,1.13-3.87,6.74,6.74,0,0,0-3.91-3.94c-4.36-2-9.25-.7-12.37,1.22a.31.31,0,0,0-.08.53.73.73,0,0,0,.79.15c1.83-.76,6.5-2.32,10.4-.34a4.33,4.33,0,0,1,2.64,3,3.53,3.53,0,0,1-1.67,3.19c-4.2,3.18-12.14,2.45-18.1,1.26,1-1.52.74-3.44-.59-5.29a12.65,12.65,0,0,0-8.67-4.71c-2.33-.24-4.59.22-5.75,1.17a2.32,2.32,0,0,0-.76,2.72c1,2.82,5.63,4.63,9.06,5.74,1,.31,2,.61,3.18.91a9.53,9.53,0,0,1-2.23.8c-4.65,1.11-10.17,0-14.6-.92-6-1.22-11.88-2.88-18.35-4.76-3.74-1.08-6-1.8-7.83-2.34C28.19,4.79,19,6.19,16.3,6.7A21.57,21.57,0,0,0,8.94,9.39c-1.12.69-5.25,3.25-5.8,7.52S6,24.26,7.05,25.2c5.59,5,14.47,5.05,16.28,5.06a25.27,25.27,0,0,0,4.38-.36c4.49-.73,8.11-2.63,9.92-5.2a11.37,11.37,0,0,0,.72-1.21c5.36,1.12,11.66,1,17.68.63.51,0,.75-.35.73-.64S56.49,23,56,23a99.39,99.39,0,0,1-13-.12c-1.54-.13-2.89-.3-4.14-.52a4.8,4.8,0,0,0-1.29-6.42c-1.43-1-4.43-2.13-6.63-1.24a4,4,0,0,0-2,1.78A2.67,2.67,0,0,0,28.67,18c.31,1.83,2.69,3,4.27,3.75a18.38,18.38,0,0,0,3.89,1.35A9.46,9.46,0,0,1,34,26.24c-5.9,4.1-17.94,3.51-24.24-1.19-.81-.61-4.46-3.32-4.37-7.23C5.44,14.61,8,11.59,11.14,9.9c10.09-5.48,30,.68,47.45,6.08.29.09,2.14.67,4.67,1.42,1.92.56,3.9,1.13,6.67,1.9a136.41,136.41,0,0,0,18.29,4.18c3.76.51,8.11.88,11.87-.23a9.32,9.32,0,0,0,3.4-1.69A55.67,55.67,0,0,0,115,22.65C119.94,22.6,123.53,21.44,125.65,19.2ZM37.32,22.05c-4.09-1.1-6.72-2.88-6.56-4.45a1.94,1.94,0,0,1,1.17-1.49c1.44-.62,3.84.24,5,1.39a4,4,0,0,1,.64,3.94l.09,0-.09,0C37.46,21.65,37.39,21.86,37.32,22.05Zm65-2.08-.13,0a31.57,31.57,0,0,1-9-3.32c-1.68-1-3.13-2.81-2.61-3.9.33-.69,1.37-1.05,3.11-1.06h.07a10.88,10.88,0,0,1,8.38,4C103.28,17.22,103.34,18.8,102.3,20Z"/></svg>