<svg xmlns="http://www.w3.org/2000/svg" viewBox="0 0 497.79 180.42"><defs><style>.cls-1{fill:#214762;}.cls-2{fill:#396582;}</style></defs><g id="Layer_2" data-name="Layer 2"><g id="Layer_1-2" data-name="Layer 1"><path class="cls-1" d="M445.07,27.06a77.17,77.17,0,0,1-48.62,49.36c-1.7.59-.77,3.55,1,3,23.76-7.39,43-27.8,49.17-51.86.25-1-1.19-1.52-1.51-.52Z"/><path class="cls-2" d="M439.22,15.47c2.64-5.1,6.23-9.85,7.42-15.47.46,1.48.91,3,1.36,4.43a4.46,4.46,0,0,1,1.68-3,56.83,56.83,0,0,1,5.92,16C461.11,44.14,426.87,39.41,439.22,15.47Z"/><path class="cls-2" d="M400,139.73c.06,5.74,1.14,11.6-.33,17.16l3.21-3.35a4.41,4.41,0,0,0,.17,3.4,57.12,57.12,0,0,0,12.49-11.65C432.41,124,399.71,112.8,400,139.73Z"/><path class="cls-1" d="M414.21,126.32c4.12-12.09-4.09-24-13.1-31.39-10.29-8.42-24.32-13.19-37.62-11.57-2.05.25-1.93,3.75.18,3.66,12.32-.48,24.24,2.36,34.26,9.77,8.91,6.59,16.95,17.56,14.86,29.23-.14.82,1.16,1.07,1.42.3Z"/><path class="cls-1" d="M474.62,33.2c-6.24,5.13-12.28,10.23-19.07,14.64a194.86,194.86,0,0,1-19.89,11.29A242.37,242.37,0,0,1,393.72,75a288.66,288.66,0,0,1-44.15,8.88c-15.34,1.78-30.82,2.73-46,5.86-16.28,3.35-34,9.62-45.12,22.63-2.79,3.27,2.39,7.86,5.54,5.06,5.55-4.94,11.15-9.27,17.88-12.51a95.8,95.8,0,0,1,21.45-7.12c15.12-3.3,30.59-4.28,45.92-6.14C379,88,408.61,79.85,435,65.45a180.69,180.69,0,0,0,21-13.27c7-5.19,14.57-10.9,19.73-18a.73.73,0,0,0-1.07-1Z"/><path class="cls-2" d="M435.5,65.53c.89-.14,2.16.15,2.05,1a59.63,59.63,0,0,1,9.35.41c-.09,2.39-2,4.28-3.74,5.91L435.49,80c5.86-1.12,11.82-2.24,17.75-1.63a3,3,0,0,1-1.47,2.08,7.66,7.66,0,0,1,6,2.31A18.9,18.9,0,0,1,451,88.59a33.57,33.57,0,0,1,17.22,19c-7.9,3.39-16.91-1.28-23.91-5.23a60.3,60.3,0,0,0,1.95,7.73,11.63,11.63,0,0,1-5.74-2.76,24.82,24.82,0,0,1,2.1,7.78c0-.09-9.71-7-10.81-8.9-2.74-4.86-1.91-9.46-2.63-14.67-2.06,2.62-1.67,6.32-1.54,9.65s-.49,7.29-3.47,8.77q-1.49-3.68-3-7.34a3,3,0,0,1-.87,3.17,43.6,43.6,0,0,1-3.38-5.5c-3.78-7.59-2-13.55,2.38-20S426.5,66.9,435.5,65.53Z"/><path class="cls-1" d="M466.72,107.44a88.33,88.33,0,0,0-9.82-7.16c-3.47-2.32-7-4.56-10.54-6.76Q435.64,86.86,424.6,80.7c-2-1.13-4.08-2.25-6.12-3.39A65.38,65.38,0,0,0,412.26,74c-1.15-.49-2,1.33-.95,2,1.76,1,3.69,1.83,5.53,2.73s3.67,1.85,5.49,2.81q5.54,2.94,11,6c7.21,4.07,14.27,8.4,21.28,12.81,3.95,2.49,7.79,5.19,11.94,7.34.12.06.28-.09.17-.19Z"/><path class="cls-1" d="M456.27,95.7a31.74,31.74,0,0,0-5.52.87.5.5,0,0,0,.19,1,31.21,31.21,0,0,0,5.41-1.41.22.22,0,0,0-.08-.44Z"/><path class="cls-1" d="M453.45,104a22.93,22.93,0,0,1-2.14-6.88c-.06-.63-1.16-.43-1,.19a21,21,0,0,0,2.84,6.87c.12.17.35,0,.28-.18Z"/><path class="cls-1" d="M450.07,83.47a46.8,46.8,0,0,0-7.72,1.82A67.27,67.27,0,0,0,435,87.62c-1,.4-.23,1.81.72,1.44,2.4-.94,4.7-2.07,7.12-3s4.91-1.5,7.28-2.45c.11,0,0-.19-.06-.18Z"/><path class="cls-1" d="M437.67,101.88a16.56,16.56,0,0,0-.18-3.29c-.11-1.21-.24-2.42-.4-3.63-.31-2.41-.76-4.81-.95-7.24-.09-1.12-2.05-.71-1.59.55a39.28,39.28,0,0,1,1.6,6.88c.19,1.12.37,2.25.53,3.38a23.89,23.89,0,0,0,.51,3.39.24.24,0,0,0,.48,0Z"/><path class="cls-1" d="M437,69.65c-5.93,1.45-6.73,9-11.67,11.79-.93.52-.12,2,.72,1.45,2.38-1.6,3.88-4,5.33-6.4s3.05-5,5.83-6.2a.34.34,0,0,0-.21-.64Z"/><path class="cls-1" d="M421.75,95.43c.42-2.23.79-4.45,1.41-6.64.28-1,.6-2,1-2.93s1-2.11,1.33-3.2a.84.84,0,0,0-1.5-.72,21.51,21.51,0,0,0-2.26,6.57,24.46,24.46,0,0,0-.73,6.87.39.39,0,0,0,.78.05Z"/><path class="cls-1" d="M439.75,98.22a2.43,2.43,0,0,0-1-1,3.09,3.09,0,0,0-1.47-.56.59.59,0,0,0-.22,1.15c.41.17.9.17,1.33.31a6.24,6.24,0,0,0,1.19.35.17.17,0,0,0,.17-.24Z"/><path class="cls-1" d="M434.85,100a8.62,8.62,0,0,0,1.81-1.6c.29-.3-.12-.77-.44-.49a9.55,9.55,0,0,0-1.67,1.75c-.12.19.1.46.3.34Z"/><path class="cls-1" d="M447.25,86.69a3.75,3.75,0,0,0-1.79-2.5c-.39-.18-.78.42-.46.7s.76.52,1.11.82a6.57,6.57,0,0,1,1,1.08c.06.08.21,0,.18-.1Z"/><path class="cls-1" d="M446.56,81.76a12.48,12.48,0,0,0-1.83,2.46c-.24.53.56.84.87.42a7.08,7.08,0,0,0,.66-1.32c.22-.47.41-.94.6-1.42.08-.19-.19-.28-.3-.14Z"/><path class="cls-1" d="M437.65,73.8c-1.2-.42-2.35-1-3.55-1.44-.54-.2-1,.63-.45.93a9.43,9.43,0,0,0,3.89,1.07.29.29,0,0,0,.11-.56Z"/><path class="cls-1" d="M433.17,69.73a4.27,4.27,0,0,1,.15,2.45c-.11.46.6.57.62.12a7,7,0,0,0-.47-2.72c-.08-.21-.37,0-.3.15Z"/><path class="cls-1" d="M424.73,94.67a3.81,3.81,0,0,0-.81-1.47,11.3,11.3,0,0,0-1.32-1.69c-.35-.35-1.09,0-.78.53a12.54,12.54,0,0,0,1.4,1.6,4,4,0,0,0,1.38,1.15.1.1,0,0,0,.13-.12Z"/><path class="cls-1" d="M422.05,91.33a10.44,10.44,0,0,0-3.31,1.16c-.49.28-.28,1.14.33,1A10.54,10.54,0,0,0,422.28,92c.31-.21.2-.75-.23-.67Z"/><path class="cls-2" d="M350.6,55c-.1-1.06.32-2.57,1.38-2.39a70.85,70.85,0,0,1,1-11.16c2.86.26,5,2.63,6.85,4.83q4,4.82,8,9.62c-1-7.08-2-14.28-.88-21.34a3.61,3.61,0,0,1,2.4,1.89,9.13,9.13,0,0,1,3.13-7.07,22.45,22.45,0,0,1,6.58,8.46,40.29,40.29,0,0,1,23.79-19.46c3.58,9.67-2.55,20.16-7.71,28.29a72.87,72.87,0,0,0,9.37-1.85,13.87,13.87,0,0,1-3.65,6.69,29.44,29.44,0,0,1,9.44-2c-.11,0-8.92,11.19-11.31,12.38-6,3-11.43,1.72-17.71,2.27,3,2.62,7.46,2.38,11.45,2.42s8.69,1,10.29,4.69l-9,3.11a3.57,3.57,0,0,1,3.75,1.24,52,52,0,0,1-6.79,3.72c-9.32,4.06-16.34,1.54-23.76-4.06S351.69,65.81,350.6,55Z"/><path class="cls-1" d="M402.64,20.15a107.24,107.24,0,0,0-9.16,11.31c-3,4-5.88,8.09-8.73,12.2Q376.14,56.1,368.1,68.92c-1.48,2.37-2.94,4.75-4.43,7.12a79.69,79.69,0,0,0-4.39,7.24c-.66,1.34,1.47,2.49,2.3,1.25,1.36-2,2.42-4.3,3.61-6.45s2.43-4.28,3.69-6.39q3.86-6.45,7.86-12.8c5.31-8.39,10.92-16.56,16.62-24.69,3.21-4.57,6.68-9,9.5-13.84.08-.14-.09-.35-.22-.21Z"/><path class="cls-1" d="M388,31.94a37.08,37.08,0,0,0,.71,6.66.6.6,0,0,0,1.18-.17,38.35,38.35,0,0,0-1.36-6.57.27.27,0,0,0-.53.08Z"/><path class="cls-1" d="M397.73,35.81c-2.72,1-5.42,2-8.35,2.15-.77,0-.59,1.36.17,1.18,2.91-.67,5.86-1.32,8.39-3,.2-.13,0-.41-.21-.34Z"/><path class="cls-1" d="M373,38.61a56.1,56.1,0,0,0,1.7,9.35A79.56,79.56,0,0,0,377,56.88c.42,1.17,2.16.39,1.77-.77-1-2.92-2.2-5.75-3.12-8.7s-1.5-6-2.49-8.86c0-.13-.22-.06-.21.06Z"/><path class="cls-1" d="M394.24,54.57a20.05,20.05,0,0,0-3.95,0c-1.46.06-2.91.14-4.37.26-2.91.22-5.8.62-8.72.71-1.35,0-1,2.4.55,1.93A48,48,0,0,1,386.09,56c1.35-.16,2.72-.3,4.08-.43a29.2,29.2,0,0,0,4.08-.39.29.29,0,0,0,0-.58Z"/><path class="cls-1" d="M355.63,53.46C357,60.65,366,62.06,369,68.15c.57,1.14,2.42.26,1.79-.79-1.78-2.93-4.56-4.87-7.34-6.76s-5.83-4-7.07-7.36a.41.41,0,0,0-.77.22Z"/><path class="cls-1" d="M385.55,73.22c-2.65-.64-5.28-1.2-7.86-2.08-1.17-.4-2.32-.84-3.44-1.34s-2.47-1.31-3.76-1.78a1,1,0,0,0-.95,1.74c2.18,1.54,5.17,2.39,7.72,3.11a30,30,0,0,0,8.18,1.29.47.47,0,0,0,.11-.94Z"/><path class="cls-1" d="M390,51.86A2.89,2.89,0,0,0,388.71,53a3.76,3.76,0,0,0-.76,1.72.71.71,0,0,0,1.36.34c.23-.48.26-1.07.45-1.57a7.17,7.17,0,0,0,.5-1.41c0-.16-.15-.25-.28-.21Z"/><path class="cls-1" d="M391.77,57.83a10.41,10.41,0,0,0-1.8-2.27c-.34-.37-.93.1-.61.49a10.55,10.55,0,0,0,2,2.11c.21.16.55-.08.41-.33Z"/><path class="cls-1" d="M376.64,42.18a4.48,4.48,0,0,0-3.1,2c-.24.45.45,1,.81.59s.67-.87,1-1.27a7.79,7.79,0,0,1,1.34-1.09c.11-.07,0-.25-.1-.22Z"/><path class="cls-1" d="M370.69,42.71a15.86,15.86,0,0,0,2.84,2.34c.61.32,1-.62.56-1a8.69,8.69,0,0,0-1.55-.87c-.54-.28-1.1-.54-1.65-.81-.23-.1-.36.21-.2.36Z"/><path class="cls-1" d="M360.64,52.89c-.59,1.41-1.35,2.75-1.95,4.16a.63.63,0,0,0,1.09.59,11.59,11.59,0,0,0,1.52-4.59.34.34,0,0,0-.66-.16Z"/><path class="cls-1" d="M355.49,58a5,5,0,0,1,2.94,0c.54.16.71-.69.18-.73a8.53,8.53,0,0,0-3.29.39c-.25.09-.08.45.17.38Z"/><path class="cls-1" d="M384.82,69.61a4.46,4.46,0,0,0-1.8.88A14.12,14.12,0,0,0,380.9,72c-.43.4,0,1.31.59,1a14.49,14.49,0,0,0,2-1.57A4.86,4.86,0,0,0,385,69.78a.12.12,0,0,0-.13-.17Z"/><path class="cls-1" d="M380.66,72.62a12.58,12.58,0,0,0,1.19,4c.31.61,1.35.4,1.2-.34a12.35,12.35,0,0,0-1.57-3.92.43.43,0,0,0-.82.23Z"/><path class="cls-2" d="M369.06,103.89c1.11.64,2.28,2.12,1.35,3a85.23,85.23,0,0,1,10.07,8.9c-2.26,2.59-6.07,3-9.51,3.23l-15,1c7.55,4,15.22,8.18,21.3,14.21a4.33,4.33,0,0,1-3.52,1,11,11,0,0,1,4.64,8,27.2,27.2,0,0,1-12.84.41,48.19,48.19,0,0,1,2.07,36.76c-11.88-3.34-17.73-16.68-22-27.42a87.23,87.23,0,0,0-4.81,10.39,16.63,16.63,0,0,1-3.92-8.26,35.64,35.64,0,0,1-4.68,10.59c.07-.12-4.56-16.55-4-19.7,1.33-7.91,6.41-12.29,10.29-18.76-4.66,1.06-7.56,5.55-10.42,9.38s-7.13,7.7-11.8,6.66q1.67-5.43,3.31-10.88a4.26,4.26,0,0,1-3.84,2.76A61.74,61.74,0,0,1,317,126c2.64-11.9,10-16.93,20.7-20.16S357.77,97.29,369.06,103.89Z"/><path class="cls-1" d="M366.09,178.87a127.74,127.74,0,0,0-4.5-16.86c-1.79-5.72-3.7-11.4-5.67-17.06q-6-17.13-12.73-34c-1.25-3.11-2.53-6.2-3.77-9.31a94.8,94.8,0,0,0-3.92-9.36c-.84-1.59-3.46-.34-2.84,1.34,1,2.75,2.47,5.38,3.7,8s2.44,5.37,3.6,8.09q3.53,8.28,6.85,16.64C351.2,137.5,355.16,148.71,359,160c2.17,6.34,4,12.83,6.71,19,.08.18.39.16.36-.06Z"/><path class="cls-1" d="M365,156.33c-2.22-1.33-4.52-3.1-6.95-4a.72.72,0,0,0-.67,1.27c2.16,1.45,4.94,2.28,7.32,3.31a.32.32,0,0,0,.3-.57Z"/><path class="cls-1" d="M354.37,163.06c1-3.33,1.84-6.7,3.81-9.61.51-.76-.9-1.52-1.26-.67-1.41,3.29-2.86,6.61-3,10.24,0,.29.41.29.48,0Z"/><path class="cls-1" d="M369.14,137.08a66.89,66.89,0,0,0-10.27-4.94,94.23,94.23,0,0,0-10.3-4c-1.43-.42-1.9,1.81-.49,2.26,3.51,1.11,7.11,1.92,10.62,3.11s6.84,2.76,10.34,3.84c.16,0,.22-.17.1-.25Z"/><path class="cls-1" d="M338.66,146.45a23.86,23.86,0,0,0,2.77-3.84q1.45-2.19,2.84-4.41c1.83-3,3.48-6.07,5.46-8.95.91-1.34-1.63-2.65-2.26-.83a57.34,57.34,0,0,1-4.42,9.13c-.8,1.43-1.62,2.86-2.46,4.26a34.9,34.9,0,0,0-2.5,4.24.35.35,0,0,0,.57.4Z"/><path class="cls-1" d="M367,109.81c-7.93-3.74-15.64,4-23.68,2.62-1.51-.26-2,2.16-.5,2.28,4.1.35,7.93-1,11.73-2.34s7.94-2.85,12.11-1.66a.49.49,0,0,0,.34-.9Z"/><path class="cls-1" d="M326.71,124.86c2.49-2.1,4.89-4.26,7.56-6.14q1.82-1.27,3.73-2.39c1.42-.84,3-1.47,4.38-2.38a1.21,1.21,0,0,0-1-2.16c-3,1-6,3.33-8.46,5.3a35.54,35.54,0,0,0-7,7,.56.56,0,0,0,.82.76Z"/><path class="cls-1" d="M344.29,144.22a3.36,3.36,0,0,0-.21-2,4.52,4.52,0,0,0-1.12-2,.86.86,0,0,0-1.3,1.09c.31.56.86,1,1.21,1.55a9.39,9.39,0,0,0,1,1.47.24.24,0,0,0,.4-.13Z"/><path class="cls-1" d="M337.24,141.76a12.62,12.62,0,0,0,3.47-.15.47.47,0,0,0,0-.94,12.91,12.91,0,0,0-3.45.45.33.33,0,0,0,0,.64Z"/><path class="cls-1" d="M363.08,138.13a5.4,5.4,0,0,0,.26-4.41.63.63,0,0,0-1.15.37c.1.66.37,1.26.49,1.92a8.88,8.88,0,0,1,.11,2.06.16.16,0,0,0,.29.06Z"/><path class="cls-1" d="M366.76,132a19.42,19.42,0,0,0-4.27,1.1c-.74.37-.13,1.44.6,1.26a10.15,10.15,0,0,0,1.93-.88c.66-.33,1.3-.69,2-1,.26-.14,0-.49-.21-.44Z"/><path class="cls-1" d="M364,115.07c-1-1.57-1.72-3.25-2.66-4.82-.43-.71-1.65-.17-1.34.63a13.62,13.62,0,0,0,3.38,4.71.41.41,0,0,0,.62-.52Z"/><path class="cls-1" d="M362.66,106.47a6.07,6.07,0,0,1-2,2.87c-.54.42.16,1.18.58.69a9.78,9.78,0,0,0,1.94-3.46c.09-.3-.38-.39-.48-.1Z"/><path class="cls-1" d="M330.73,126.71a5.45,5.45,0,0,0,.42-2.37,17.71,17.71,0,0,0,.06-3.09c-.09-.71-1.28-.92-1.36-.11a17.38,17.38,0,0,0,.12,3.06,5.71,5.71,0,0,0,.5,2.52.15.15,0,0,0,.26,0Z"/><path class="cls-1" d="M330.74,120.55a15.35,15.35,0,0,0-4.74-1.69c-.8-.12-1.34,1-.52,1.41a15.17,15.17,0,0,0,4.91,1.24.52.52,0,0,0,.35-1Z"/><path class="cls-2" d="M479.2,14.19c5.71-2.88,12.06-4.82,16.81-9.12L494.34,10a4.88,4.88,0,0,1,3.45-1.57,63.91,63.91,0,0,1-5.12,18.33C480.23,54.37,452.41,27.73,479.2,14.19Z"/><path class="cls-1" d="M292.83,71.6c1.79,3.68-4.62,3.67-6.62,3.09-4.1-1.16-3-5.86-.63-8.11s6.61-3.87,9.89-3a7.31,7.31,0,0,1,5.45,8.53c-.8,3.6-3.35,6.76-5.77,9.43a54.12,54.12,0,0,1-12,9.6c-4.87,3-10,5.49-14.79,8.57-4.57,2.94-9.48,6.38-11,11.82a2.13,2.13,0,0,0,3.87,1.63c3.52-5.67,9.69-9.22,15.33-12.44,5.88-3.35,11.8-6.49,17.08-10.77,6.27-5.1,14.83-14.18,12-23.06-1.45-4.59-6.3-7.87-10.92-8.41-4.45-.52-9.2,1.91-12.18,5s-3.9,7.79-1.26,11.47c2.16,3,6.48,3.45,9.81,2.69,3.53-.8,5-3.78,2.92-6.79a.68.68,0,0,0-1.18.69Z"/><path class="cls-1" d="M289.05,92.29c2-.72,4.11-1.12,6-2,2.39-1,4.75-2.14,7.05-3.37a35,35,0,0,0,10.28-8c4.57-5.36,8.8-12.89,15.57-15.71a6.69,6.69,0,0,1,8.68,3.08c1.57,3,.13,7-2.43,8.93-1.44,1.07-7.42,2.5-7.44-.63s4.15-1.71,5.43-.75,3.22-1.34,1.85-2.4c-2.7-2.11-6.15-2.85-8.86-.33a4.7,4.7,0,0,0,.28,7.18c3.13,2.34,8.21,1.53,11.07-.84a11,11,0,0,0,3.69-10.6,9.74,9.74,0,0,0-8.56-7.46c-4.29-.35-8,2.19-11,4.93-3.53,3.17-6.39,7.05-9.25,10.81a38.06,38.06,0,0,1-12.75,10.5c-3.37,1.82-6.71,3.65-10.07,5.47-.63.34-.2,1.42.49,1.16Z"/><path class="cls-1" d="M309.29,80.32a33,33,0,0,1-9.65,6.55A94.47,94.47,0,0,1,289.4,91c-4.41,1.53-13.59,3.64-13.33,9.88a1.91,1.91,0,0,0,3.53,1,20.56,20.56,0,0,1,2-2.88A13.64,13.64,0,0,1,285,96.81c2.49-1.31,5-2.59,7.43-4,6-3.65,12.89-6.31,17.59-11.77.4-.46-.25-1.13-.68-.67Z"/><path class="cls-1" d="M266.86,112.46c6.92-6.48,16.3-12.37,26.18-11,3.69.51,7.91,1.58,10.67,4.23,2.92,2.82.67,6.89-2.13,8.78A16.23,16.23,0,0,1,290.37,117c-2.86-.46-6.53-3.45-4.62-6.62,1.34-2.22,5.16-2.4,7.39-2a4.83,4.83,0,0,1,4.5,4.59c.09.63.93.56,1.21.16,1.7-2.41.1-4.92-2.18-6.17a12.09,12.09,0,0,0-8.57-.73c-7.08,1.83-6.23,10.08-.12,12.65,6.38,2.68,17.73-1,19.85-8,2.64-8.74-9.67-12-15.83-12.59-10.48-1-19.66,5.63-26.5,12.81a1,1,0,0,0,1.36,1.36Z"/><path class="cls-1" d="M52.72,27.06a77.15,77.15,0,0,0,48.62,49.36c1.7.59.77,3.55-1,3-23.76-7.39-43-27.8-49.17-51.86-.25-1,1.19-1.52,1.51-.52Z"/><path class="cls-2" d="M58.57,15.47C55.93,10.37,52.33,5.62,51.15,0L49.78,4.43a4.41,4.41,0,0,0-1.67-3,56.83,56.83,0,0,0-5.92,16C36.68,44.14,70.92,39.41,58.57,15.47Z"/><path class="cls-2" d="M97.81,139.73c0,5.74-1.13,11.6.34,17.16l-3.21-3.35a4.41,4.41,0,0,1-.17,3.4,57.12,57.12,0,0,1-12.49-11.65C65.38,124,98.08,112.8,97.81,139.73Z"/><path class="cls-1" d="M83.58,126.32c-4.12-12.09,4.09-24,13.1-31.39C107,86.51,121,81.74,134.3,83.36c2,.25,1.93,3.75-.19,3.66-12.31-.48-24.23,2.36-34.25,9.77C91,103.38,82.91,114.35,85,126c.14.82-1.16,1.07-1.42.3Z"/><path class="cls-1" d="M23.17,33.2c6.24,5.13,12.27,10.23,19.07,14.64A194.86,194.86,0,0,0,62.13,59.13,242.37,242.37,0,0,0,104.07,75a288.66,288.66,0,0,0,44.15,8.88c15.34,1.78,30.82,2.73,46,5.86,16.29,3.35,34,9.62,45.13,22.63,2.79,3.27-2.39,7.86-5.54,5.06-5.55-4.94-11.15-9.27-17.88-12.51a95.8,95.8,0,0,0-21.45-7.12c-15.12-3.3-30.59-4.28-45.92-6.14C118.79,88,89.18,79.85,62.8,65.45a179.85,179.85,0,0,1-21-13.27c-7-5.19-14.57-10.9-19.73-18a.73.73,0,0,1,1.07-1Z"/><path class="cls-2" d="M62.29,65.53c-.89-.14-2.16.15-2.06,1a59.5,59.5,0,0,0-9.34.41c.09,2.39,2,4.28,3.74,5.91L62.3,80c-5.86-1.12-11.82-2.24-17.75-1.63A3,3,0,0,0,46,80.44a7.65,7.65,0,0,0-6,2.31,18.9,18.9,0,0,0,6.78,5.84,33.57,33.57,0,0,0-17.22,19c7.9,3.39,16.91-1.28,23.9-5.23a58.65,58.65,0,0,1-1.94,7.73,11.63,11.63,0,0,0,5.74-2.76,24.82,24.82,0,0,0-2.1,7.78c0-.09,9.71-7,10.81-8.9,2.74-4.86,1.91-9.46,2.63-14.67,2.06,2.62,1.67,6.32,1.54,9.65s.49,7.29,3.47,8.77q1.49-3.68,3-7.34a3,3,0,0,0,.87,3.17,43.6,43.6,0,0,0,3.38-5.5c3.78-7.59,2-13.55-2.38-20S71.29,66.9,62.29,65.53Z"/><path class="cls-1" d="M31.07,107.44a88.33,88.33,0,0,1,9.82-7.16c3.47-2.32,7-4.56,10.54-6.76Q62.16,86.86,73.19,80.7c2-1.13,4.08-2.25,6.12-3.39A65.38,65.38,0,0,1,85.53,74c1.15-.49,2,1.33,1,2-1.76,1-3.7,1.83-5.53,2.73s-3.67,1.85-5.49,2.81q-5.53,2.94-11,6c-7.22,4.07-14.27,8.4-21.28,12.81-4,2.49-7.79,5.19-11.94,7.34-.12.06-.28-.09-.17-.19Z"/><path class="cls-1" d="M41.52,95.7a31.74,31.74,0,0,1,5.52.87.5.5,0,0,1-.19,1,31.21,31.21,0,0,1-5.41-1.41.22.22,0,0,1,.08-.44Z"/><path class="cls-1" d="M44.34,104a22.93,22.93,0,0,0,2.14-6.88c.06-.63,1.16-.43,1,.19a20.76,20.76,0,0,1-2.85,6.87c-.11.17-.34,0-.27-.18Z"/><path class="cls-1" d="M47.72,83.47a46.8,46.8,0,0,1,7.72,1.82,66.42,66.42,0,0,1,7.33,2.33c1,.4.24,1.81-.71,1.44-2.4-.94-4.7-2.07-7.12-3S50,84.6,47.66,83.65c-.11,0,0-.19.06-.18Z"/><path class="cls-1" d="M60.12,101.88a16.56,16.56,0,0,1,.18-3.29c.11-1.21.24-2.42.4-3.63.31-2.41.76-4.81.95-7.24.09-1.12,2.05-.71,1.59.55a39.28,39.28,0,0,0-1.6,6.88c-.2,1.12-.37,2.25-.54,3.38a22.52,22.52,0,0,1-.5,3.39.24.24,0,0,1-.48,0Z"/><path class="cls-1" d="M60.83,69.65c5.93,1.45,6.73,9,11.67,11.79.93.52.12,2-.72,1.45-2.38-1.6-3.88-4-5.33-6.4s-3.05-5-5.84-6.2a.34.34,0,0,1,.22-.64Z"/><path class="cls-1" d="M76,95.43c-.43-2.23-.79-4.45-1.41-6.64-.28-1-.6-2-1-2.93s-1-2.11-1.33-3.2a.84.84,0,0,1,1.5-.72,21.51,21.51,0,0,1,2.26,6.57,24.83,24.83,0,0,1,.73,6.87.39.39,0,0,1-.78.05Z"/><path class="cls-1" d="M58,98.22a2.43,2.43,0,0,1,1-1,3.09,3.09,0,0,1,1.47-.56.59.59,0,0,1,.22,1.15c-.41.17-.9.17-1.33.31a6.24,6.24,0,0,1-1.19.35.17.17,0,0,1-.17-.24Z"/><path class="cls-1" d="M62.94,100a8.62,8.62,0,0,1-1.81-1.6c-.29-.3.12-.77.43-.49a9.28,9.28,0,0,1,1.68,1.75c.12.19-.1.46-.3.34Z"/><path class="cls-1" d="M50.54,86.69a3.75,3.75,0,0,1,1.79-2.5c.38-.18.77.42.46.7s-.76.52-1.11.82a6.57,6.57,0,0,0-1,1.08c-.06.08-.21,0-.18-.1Z"/><path class="cls-1" d="M51.23,81.76a12.89,12.89,0,0,1,1.83,2.46c.24.53-.56.84-.87.42a7.08,7.08,0,0,1-.66-1.32c-.22-.47-.41-.94-.6-1.42-.08-.19.19-.28.3-.14Z"/><path class="cls-1" d="M60.14,73.8c1.2-.42,2.35-1,3.55-1.44a.52.52,0,0,1,.45.93,9.47,9.47,0,0,1-3.89,1.07.29.29,0,0,1-.11-.56Z"/><path class="cls-1" d="M64.62,69.73a4.27,4.27,0,0,0-.15,2.45c.11.46-.61.57-.62.12a7,7,0,0,1,.47-2.72c.08-.21.37,0,.3.15Z"/><path class="cls-1" d="M73.06,94.67a3.81,3.81,0,0,1,.81-1.47,11.3,11.3,0,0,1,1.32-1.69c.35-.35,1.09,0,.78.53a12.54,12.54,0,0,1-1.4,1.6,4,4,0,0,1-1.38,1.15.1.1,0,0,1-.13-.12Z"/><path class="cls-1" d="M75.74,91.33a10.44,10.44,0,0,1,3.31,1.16c.49.28.28,1.14-.34,1A10.59,10.59,0,0,1,75.51,92a.36.36,0,0,1,.23-.67Z"/><path class="cls-2" d="M147.19,55c.1-1.06-.32-2.57-1.38-2.39a70.85,70.85,0,0,0-1.05-11.16c-2.86.26-5,2.63-6.85,4.83l-8,9.62c1-7.08,2-14.28.88-21.34a3.61,3.61,0,0,0-2.4,1.89,9.13,9.13,0,0,0-3.13-7.07,22.45,22.45,0,0,0-6.58,8.46A40.29,40.29,0,0,0,94.86,18.33c-3.58,9.67,2.55,20.16,7.71,28.29a72.53,72.53,0,0,1-9.37-1.85,13.94,13.94,0,0,0,3.64,6.69,29.32,29.32,0,0,0-9.43-2c.11,0,8.92,11.19,11.31,12.38,6,3,11.43,1.72,17.71,2.27-3,2.62-7.46,2.38-11.45,2.42s-8.69,1-10.29,4.69l9,3.11a3.57,3.57,0,0,0-3.75,1.24,52,52,0,0,0,6.79,3.72C116,83.32,123,80.8,130.46,75.2S146.09,65.81,147.19,55Z"/><path class="cls-1" d="M95.15,20.15a107.24,107.24,0,0,1,9.16,11.31c3,4,5.88,8.09,8.73,12.2q8.61,12.44,16.65,25.26c1.48,2.37,2.94,4.75,4.43,7.12a79.69,79.69,0,0,1,4.39,7.24c.66,1.34-1.47,2.49-2.3,1.25-1.36-2-2.42-4.3-3.61-6.45s-2.43-4.28-3.69-6.39q-3.85-6.45-7.86-12.8c-5.31-8.39-10.92-16.56-16.62-24.69-3.21-4.57-6.68-9-9.5-13.84-.08-.14.09-.35.22-.21Z"/><path class="cls-1" d="M109.82,31.94a37.08,37.08,0,0,1-.71,6.66.6.6,0,0,1-1.18-.17,38.35,38.35,0,0,1,1.36-6.57.27.27,0,0,1,.53.08Z"/><path class="cls-1" d="M100.06,35.81c2.72,1,5.42,2,8.35,2.15.77,0,.59,1.36-.17,1.18-2.91-.67-5.86-1.32-8.39-3-.21-.13,0-.41.21-.34Z"/><path class="cls-1" d="M124.83,38.61a56.1,56.1,0,0,1-1.7,9.35,79.56,79.56,0,0,1-2.35,8.92c-.42,1.17-2.16.39-1.77-.77,1-2.92,2.2-5.75,3.12-8.7s1.5-6,2.48-8.86c0-.13.23-.06.22.06Z"/><path class="cls-1" d="M103.55,54.57a20.05,20.05,0,0,1,4,0c1.46.06,2.91.14,4.37.26,2.91.22,5.8.62,8.72.71,1.35,0,1,2.4-.55,1.93A48,48,0,0,0,111.7,56c-1.36-.16-2.72-.3-4.08-.43a29.2,29.2,0,0,1-4.08-.39.29.29,0,0,1,0-.58Z"/><path class="cls-1" d="M142.16,53.46c-1.36,7.19-10.34,8.6-13.39,14.69-.57,1.14-2.42.26-1.79-.79,1.78-2.93,4.55-4.87,7.34-6.76s5.83-4,7.07-7.36a.41.41,0,0,1,.77.22Z"/><path class="cls-1" d="M112.24,73.22c2.64-.64,5.28-1.2,7.86-2.08,1.16-.4,2.32-.84,3.44-1.34S126,68.49,127.3,68a1,1,0,0,1,1,1.74c-2.18,1.54-5.17,2.39-7.72,3.11a30,30,0,0,1-8.18,1.29.47.47,0,0,1-.11-.94Z"/><path class="cls-1" d="M107.81,51.86A2.87,2.87,0,0,1,109.07,53a3.67,3.67,0,0,1,.77,1.72.71.71,0,0,1-1.36.34c-.23-.48-.26-1.07-.45-1.57a7.17,7.17,0,0,1-.5-1.41c0-.16.14-.25.28-.21Z"/><path class="cls-1" d="M106,57.83a10.45,10.45,0,0,1,1.81-2.27c.34-.37.93.1.61.49a10.55,10.55,0,0,1-2,2.11c-.21.16-.55-.08-.42-.33Z"/><path class="cls-1" d="M121.15,42.18a4.48,4.48,0,0,1,3.1,2c.24.45-.45,1-.81.59s-.67-.87-1-1.27a7.79,7.79,0,0,0-1.34-1.09c-.11-.07,0-.25.1-.22Z"/><path class="cls-1" d="M127.1,42.71a15.86,15.86,0,0,1-2.84,2.34c-.61.32-1-.62-.56-1a8.69,8.69,0,0,1,1.55-.87c.54-.28,1.1-.54,1.65-.81.23-.1.36.21.2.36Z"/><path class="cls-1" d="M137.15,52.89c.59,1.41,1.35,2.75,1.94,4.16a.62.62,0,0,1-1.08.59,11.43,11.43,0,0,1-1.52-4.59.34.34,0,0,1,.66-.16Z"/><path class="cls-1" d="M142.3,58a5,5,0,0,0-2.94,0c-.54.16-.71-.69-.18-.73a8.53,8.53,0,0,1,3.29.39c.25.09.08.45-.17.38Z"/><path class="cls-1" d="M113,69.61a4.46,4.46,0,0,1,1.8.88A14,14,0,0,1,116.88,72c.44.4,0,1.31-.58,1a13.92,13.92,0,0,1-2-1.57,4.86,4.86,0,0,1-1.45-1.58.12.12,0,0,1,.13-.17Z"/><path class="cls-1" d="M117.13,72.62a12.58,12.58,0,0,1-1.19,4c-.31.61-1.35.4-1.2-.34a12.35,12.35,0,0,1,1.57-3.92.43.43,0,0,1,.82.23Z"/><path class="cls-2" d="M128.73,103.89c-1.11.64-2.28,2.12-1.35,3a86.13,86.13,0,0,0-10.08,8.9c2.27,2.59,6.08,3,9.52,3.23l15,1c-7.55,4-15.22,8.18-21.3,14.21a4.33,4.33,0,0,0,3.52,1,11,11,0,0,0-4.64,8,27.2,27.2,0,0,0,12.84.41,48.24,48.24,0,0,0-2.08,36.76c11.89-3.34,17.74-16.68,22-27.42a87.23,87.23,0,0,1,4.81,10.39,16.63,16.63,0,0,0,3.92-8.26,35.64,35.64,0,0,0,4.68,10.59c-.07-.12,4.56-16.55,4-19.7-1.33-7.91-6.41-12.29-10.3-18.76,4.67,1.06,7.57,5.55,10.43,9.38s7.12,7.7,11.8,6.66q-1.67-5.43-3.31-10.88a4.26,4.26,0,0,0,3.84,2.76,61.74,61.74,0,0,0-1.18-9.2c-2.64-11.9-10-16.93-20.7-20.16S140,97.29,128.73,103.89Z"/><path class="cls-1" d="M131.7,178.87A127.74,127.74,0,0,1,136.2,162c1.78-5.72,3.7-11.4,5.67-17.06q6-17.13,12.73-34c1.25-3.11,2.53-6.2,3.77-9.31a94.8,94.8,0,0,1,3.92-9.36c.84-1.59,3.46-.34,2.84,1.34-1,2.75-2.47,5.38-3.7,8s-2.44,5.37-3.6,8.09q-3.53,8.28-6.85,16.64c-4.39,11.06-8.35,22.27-12.21,33.52-2.17,6.34-4,12.83-6.71,19-.08.18-.4.16-.36-.06Z"/><path class="cls-1" d="M132.78,156.33c2.22-1.33,4.52-3.1,6.95-4a.72.72,0,0,1,.67,1.27c-2.16,1.45-4.94,2.28-7.32,3.31a.32.32,0,0,1-.3-.57Z"/><path class="cls-1" d="M143.42,163.06c-1-3.33-1.84-6.7-3.81-9.61-.51-.76.9-1.52,1.26-.67,1.41,3.29,2.86,6.61,3,10.24,0,.29-.41.29-.48,0Z"/><path class="cls-1" d="M128.65,137.08a66.89,66.89,0,0,1,10.27-4.94,94.23,94.23,0,0,1,10.3-4c1.43-.42,1.9,1.81.49,2.26-3.51,1.11-7.12,1.92-10.62,3.11s-6.84,2.76-10.34,3.84c-.16,0-.22-.17-.1-.25Z"/><path class="cls-1" d="M159.13,146.45a23.86,23.86,0,0,1-2.77-3.84q-1.46-2.19-2.84-4.41c-1.83-3-3.48-6.07-5.46-8.95-.91-1.34,1.63-2.65,2.26-.83a57.34,57.34,0,0,0,4.42,9.13c.8,1.43,1.62,2.86,2.46,4.26a34.9,34.9,0,0,1,2.5,4.24.35.35,0,0,1-.57.4Z"/><path class="cls-1" d="M130.82,109.81c7.93-3.74,15.64,4,23.68,2.62,1.51-.26,2,2.16.5,2.28-4.1.35-7.93-1-11.73-2.34s-7.94-2.85-12.12-1.66a.49.49,0,0,1-.33-.9Z"/><path class="cls-1" d="M171.08,124.86c-2.49-2.1-4.9-4.26-7.56-6.14q-1.82-1.27-3.73-2.39c-1.42-.84-3-1.47-4.38-2.38a1.21,1.21,0,0,1,1-2.16c3,1,6,3.33,8.46,5.3a35.81,35.81,0,0,1,7,7,.56.56,0,0,1-.82.76Z"/><path class="cls-1" d="M153.5,144.22a3.36,3.36,0,0,1,.21-2,4.52,4.52,0,0,1,1.12-2,.86.86,0,0,1,1.3,1.09c-.31.56-.86,1-1.22,1.55a8.71,8.71,0,0,1-1,1.47.24.24,0,0,1-.4-.13Z"/><path class="cls-1" d="M160.55,141.76a12.62,12.62,0,0,1-3.47-.15.47.47,0,0,1,0-.94,12.91,12.91,0,0,1,3.45.45.33.33,0,0,1,0,.64Z"/><path class="cls-1" d="M134.71,138.13a5.4,5.4,0,0,1-.26-4.41.63.63,0,0,1,1.15.37c-.1.66-.37,1.26-.5,1.92a9.46,9.46,0,0,0-.1,2.06.16.16,0,0,1-.29.06Z"/><path class="cls-1" d="M131,132a19.42,19.42,0,0,1,4.27,1.1c.74.37.13,1.44-.6,1.26a10.15,10.15,0,0,1-1.93-.88c-.66-.33-1.3-.69-2-1-.26-.14,0-.49.21-.44Z"/><path class="cls-1" d="M133.8,115.07c1-1.57,1.72-3.25,2.66-4.82.43-.71,1.65-.17,1.34.63a13.75,13.75,0,0,1-3.38,4.71.41.41,0,0,1-.62-.52Z"/><path class="cls-1" d="M135.13,106.47a6,6,0,0,0,2,2.87c.54.42-.17,1.18-.58.69a9.78,9.78,0,0,1-1.94-3.46c-.09-.3.37-.39.48-.1Z"/><path class="cls-1" d="M167.06,126.71a5.45,5.45,0,0,1-.42-2.37,17.71,17.71,0,0,1-.06-3.09c.09-.71,1.28-.92,1.35-.11a16.46,16.46,0,0,1-.11,3.06,5.71,5.71,0,0,1-.5,2.52.15.15,0,0,1-.26,0Z"/><path class="cls-1" d="M167.05,120.55a15.35,15.35,0,0,1,4.74-1.69c.8-.12,1.34,1,.52,1.41a15.17,15.17,0,0,1-4.91,1.24.52.52,0,0,1-.35-1Z"/><path class="cls-2" d="M18.59,14.19C12.88,11.31,6.53,9.37,1.78,5.07L3.45,10A4.88,4.88,0,0,0,0,8.39,63.91,63.91,0,0,0,5.12,26.72C17.56,54.37,45.38,27.73,18.59,14.19Z"/><path class="cls-1" d="M203.78,70.91c-2.06,2.94-.75,5.57,2.51,6.68s7.62.39,10-2.25c3.08-3.47,1.94-8.1-.66-11.4a15.58,15.58,0,0,0-12-5.48c-4.67,0-9.58,3.68-11.24,8s-.14,8.7,2,12.44c5.82,10.07,16.42,16,26.21,21.44,5.88,3.3,12.39,7,16,12.84a2.13,2.13,0,0,0,3.87-1.63c-1.48-5.24-6-8.43-10.32-11.36-4.72-3.19-9.87-5.72-14.78-8.61-7.12-4.19-15.81-10.61-18.36-19-1.22-4,1-6.7,4.38-8.6,3.21-1.8,7.83.11,10.44,2.22s4.08,6.73.18,8.32c-2,.82-8.87.82-7-3a.68.68,0,0,0-1.18-.69Z"/><path class="cls-1" d="M209.23,91.13c-2.68-1.46-5.24-3-8-4.4a57.42,57.42,0,0,1-8.66-5.17c-3.89-2.86-6.49-6.94-9.46-10.65-4.9-6.12-13-15.25-21.54-9.84-7.55,4.79-4.25,16.77,4,18.41,3.12.62,7.75-.2,8.48-3.88.58-2.87-1.74-5.5-4.46-6-2.21-.42-4.18.57-5.87,1.89-1.37,1.06.46,3.43,1.85,2.4,1.67-1.24,4.66-2.15,5.41.6.83,3.07-5.86,1.7-7,1-3-1.69-4-5.6-3.05-8.7,1.11-3.55,5.21-4.77,8.43-3.75,3.52,1.11,6.39,4.31,8.77,7s4.62,5.73,7,8.56a35.07,35.07,0,0,0,9.89,8c2.26,1.29,4.64,2.37,7,3.43,2.15,1,4.5,1.45,6.72,2.27.69.26,1.12-.82.49-1.16Z"/><path class="cls-1" d="M187.82,81C192.35,86.25,199,89.21,205,92.51c2.44,1.34,4.92,2.63,7.34,4a24.44,24.44,0,0,1,3.42,2.09,14.75,14.75,0,0,1,2.44,3.23,1.91,1.91,0,0,0,3.53-1c.25-6-8.48-8.3-12.81-9.7-3.25-1.06-6.4-2.56-9.58-3.81a30.78,30.78,0,0,1-10.83-7.06c-.43-.46-1.08.21-.68.67Z"/><path class="cls-1" d="M232.29,111.1c-7.06-7.41-16.24-13.77-27-12.76-6.57.61-17.88,4.16-15.23,12.94,1.1,3.63,5.06,5.8,8.35,7.08,3.62,1.41,8.13,1.85,11.78.31,2.88-1.21,5.1-4.3,4.63-7.52-.41-2.81-2.94-4.39-5.49-5.05a12.17,12.17,0,0,0-8.23.82c-2.35,1.15-3.83,3.84-2.18,6.17.28.4,1.12.47,1.21-.16a4.74,4.74,0,0,1,4.15-4.52c2.47-.57,5.76-.19,7.56,1.73,2.6,2.77-1.56,6.16-4,6.77-3.87,1-8.38-.39-11.66-2.45-2.79-1.75-4.81-5.61-2.42-8.47s6.94-3.86,10.46-4.46c10-1.7,19.69,4.38,26.68,10.93a1,1,0,0,0,1.36-1.36Z"/></g></g></svg>