<svg xmlns="http://www.w3.org/2000/svg" viewBox="0 0 418 120.14"><defs><style>.cls-1{fill:#b08c3e;}</style></defs><g id="Layer_2" data-name="Layer 2"><g id="Layer_1-2" data-name="Layer 1"><path class="cls-1" d="M369.82,52.35A112.85,112.85,0,0,0,393,39.86a74.56,74.56,0,0,0,16.36-15.95c4.46-6,8.63-13.32,8.68-21a1.38,1.38,0,0,0-.79-1.17A1.56,1.56,0,0,0,415.42,0a93.69,93.69,0,0,0-47.05,18,90.47,90.47,0,0,0-17.79,17.06,96,96,0,0,0-7,10.32c-1.93,3.25-3.86,6.58-6.66,9a199.55,199.55,0,0,1-23.66,10.24l-.15,0c2.35-1.56,4.7-3.12,7-4.72,6-4.14,12.14-8.39,16.87-14C346,35.34,349.38,21.72,352.52,8.49a1.81,1.81,0,0,0-2.2-2.2c-14.38,5-26.24,15-35.88,26.55a74.61,74.61,0,0,0-12.21,19.48A37.2,37.2,0,0,0,299.52,69a210.91,210.91,0,0,1-57.78,7.9c-16.46-.09-32.6-2.23-48.59-5.35C205,70.07,216.68,65.92,227,60.75a173.45,173.45,0,0,0,24.64-15.41c5.69-4.17,14.6-9.65,13.37-17.84a2.26,2.26,0,0,0-2.75-1.56c-2.72.79-6.23.23-9,.23s-5.36.07-8,.18c-4.95.22-9.9.66-14.8,1.37a105.44,105.44,0,0,0-27.7,7.55c-14.12,6.2-27.19,16.67-33.62,30.94-20.59-5-41.06-10.75-61.78-15-.13-.06-.25-.14-.39-.19a1.3,1.3,0,0,0-.65,0c-3.94-.8-7.89-1.57-11.85-2.25A97.82,97.82,0,0,0,121.1,47a110.31,110.31,0,0,0,18.46-6.11c4.64-1.92,9.51-3.67,14.14-5.75a5.52,5.52,0,0,0,4.79,2.43c7.86,0,7.87-12.2,0-12.2-4.42,0-6.36,3.88-5.79,7.26-4.75,1.44-9.39,3.59-13.95,5.32A153.26,153.26,0,0,1,121,43.83c-12.18,3-25.07,3-37.62,3.13,12.26-1,24.41-3,35.47-8.82,12.32-6.46,22.85-17.24,26.77-30.81A1.82,1.82,0,0,0,143.82,5c-17.49,1.68-35.16,3.56-51.29,11-12.24,5.67-25,15.82-29.27,29.18C42,44.36,20.57,46.7.4,53.67c-.69.24-.41,1.32.3,1.11C23.1,48.29,46,47.63,68.85,50a1.46,1.46,0,0,0,1.81.54c.18-.09.35-.2.52-.3,2.22.24,4.43.54,6.65.83a54.17,54.17,0,0,0,4.88,9.79c2.15,3.41,4.44,6.73,6.81,10C94.06,77,99.06,83,105.26,87.59c13.66,10.23,32.79,13.52,49.4,15.08,2.24.21,3-2.36,2.3-4A80.18,80.18,0,0,0,122.08,60c-.42-.23-.84-.46-1.27-.68,12.93,3.05,25.72,6.39,38.26,9.5s25.05,6,37.71,8.29C201.89,91,217.06,101,230.11,106.21c18.88,7.6,39.82,7.17,59.72,5.14a2.39,2.39,0,0,0,2.26-3c-1.09-5.34-5.28-8.56-9.56-11.49a115.22,115.22,0,0,0-18.87-10.42,82.27,82.27,0,0,0-14.1-4.88l1.27,0c6.77,2.36,14.14,3,21.23,3.8a177.59,177.59,0,0,0,22.36.88c.77,0,1-1.29.19-1.4-7.23-1-14.43-2-21.7-2.82-3.3-.35-6.63-.82-10-1.22a216.84,216.84,0,0,0,34.58-6c4.63,6.29,13,9,20.3,10.58a115.39,115.39,0,0,0,28.55,2.19A138.82,138.82,0,0,0,403,72.61a2.55,2.55,0,0,0,.51-4c-5.21-5.9-13.9-7.51-21.28-8.89a128.41,128.41,0,0,0-25.74-2.17l-.44,0,.53-.2C361,55.83,365.44,54.18,369.82,52.35ZM77.46,31.17a61.89,61.89,0,0,1,17.4-12.28c14.3-6.91,30.71-8.52,46.38-10C132.85,35.32,102,43.5,76.56,46.2c1.51-1.18,3-2.36,4.58-3.48q5.33-3.86,11-7.21c3.64-2.18,7.34-4.26,11.14-6.16,4-2,8.36-3.46,12.2-5.69a1.42,1.42,0,0,0-1.09-2.59c-4.19.9-8.32,3.09-12.18,4.93a134.35,134.35,0,0,0-12.23,6.58q-5.76,3.53-11.19,7.56a79,79,0,0,0-7.25,5.65c-1.24-.1-2.48-.17-3.73-.25A53.08,53.08,0,0,1,77.46,31.17Zm38.72,31.49a83.14,83.14,0,0,1,15.37,9.67A70.06,70.06,0,0,1,150.43,96.8c-14.58-1.91-30.71-5-42.53-13.73-6-4.42-10.88-10.3-15.28-16.26-2.3-3.12-4.5-6.32-6.82-9.42a46.39,46.39,0,0,0-5.4-6c8.67,1.24,17.33,2.87,25.94,4.69C108.81,59,113,61,116.18,62.66ZM306,52.67a83.41,83.41,0,0,1,12.11-18.49c8.27-9.76,18.21-18.32,30.1-23.21-3.06,11.66-6.66,23.83-14.8,32.93C328.68,49.16,322.77,53.1,317,57c-2.35,1.59-4.67,3.21-7,4.83a163.13,163.13,0,0,1,11.33-13.77c2.44-2.61,4.92-5.2,7.52-7.66s6-4.78,8.24-7.67a1.24,1.24,0,0,0-1.5-1.94c-3.28,1.46-6.17,4.37-8.8,6.76a100.35,100.35,0,0,0-8.16,8.21,102.12,102.12,0,0,0-13,18.58.94.94,0,0,0-.12.59l-4.18,2.94A52.74,52.74,0,0,1,306,52.67ZM204.91,37.82a98.89,98.89,0,0,1,27.45-7.2c4.78-.58,9.6-.9,14.41-1,3.94-.1,9-.74,13.18,0-2.71,6.75-10.08,10.81-15.89,14.88a157.37,157.37,0,0,1-21.65,12.94,90.91,90.91,0,0,1-47.1,9.13c6.59-3.11,12.78-7,19.12-10.57a114.13,114.13,0,0,1,10.47-5.3,55.36,55.36,0,0,1,5.85-2.15c2-.62,4.16-.94,6.1-1.74a1.21,1.21,0,0,0-.32-2.36c-3.8-.42-8.16,1.25-11.64,2.6a82.19,82.19,0,0,0-11.21,5.54c-7.16,4.12-14.06,8.72-21.6,12.16A76.74,76.74,0,0,1,204.91,37.82Zm70.37,59.7c3.85,2.43,9,5.23,11.27,9.46-17.44,1.61-35.4,1.76-52.17-3.85a68.88,68.88,0,0,1-20.26-10.66c-5.46-4.21-9.46-9.32-13.44-14.72,2.2.37,4.4.73,6.61,1.06C214.73,81.88,221.6,86,228.64,90c7.34,4.09,14.81,7,23.31,6.72a.71.71,0,0,0,0-1.42c-8.78-.81-17.07-5.48-24.62-9.73-3.34-1.89-6.66-3.8-10.15-5.41,7.17.82,14.38,1.38,21.62,1.55.48,0,1,0,1.44,0,.58.17,1.16.34,1.73.54,5.91,2.11,11.81,4.46,17.55,7A118.68,118.68,0,0,1,275.28,97.52ZM377.82,64.13c6.44,1.09,13.36,2.32,19,5.82a133.64,133.64,0,0,1-48.87,12.44,135.45,135.45,0,0,1-25.78-.76,55.92,55.92,0,0,1-21-7.55,2.09,2.09,0,0,1,0-.25c1.56-.43,3.1-.91,4.65-1.37,13.82,4,29.3,3.5,43.09-.19.63-.17.34-1-.27-1a152.34,152.34,0,0,1-23,1.7c-6,0-12-.56-17.91-1.14.36-.11.73-.2,1.08-.32.1,0,.18.1.3.09,7-.44,14-4.08,20.81-5.68a128.14,128.14,0,0,1,24.27-3.3A114.36,114.36,0,0,1,377.82,64.13ZM340.29,59c14.17-7,27.56-15.56,38.76-26.28,1.32-1.27-.42-3.65-2-2.58a398.59,398.59,0,0,1-35.71,22c2.87-3.16,5.1-7,7.69-10.4A98.57,98.57,0,0,1,414.52,3.92c-2.77,6.09-5.13,12.19-9.19,17.66a69.49,69.49,0,0,1-16.51,15.59,116.63,116.63,0,0,1-22.6,11.76c-4,1.61-8.06,3.06-12.13,4.46-3.41,1.18-7.62,1.83-10.15,4.56a1.35,1.35,0,0,0-.29.54C342.53,58.63,341.41,58.82,340.29,59Zm43.79-33.36a8.12,8.12,0,0,1,1.28-1.46c.45-.37.9-.72,1.36-1.07a31.43,31.43,0,0,1,3-2.14,48.4,48.4,0,0,1,6.38-3.44c.67-.28,1.28.79.72,1.24C395,20.25,393,21.58,391.05,23c-.95.72-1.94,1.38-2.93,2.06-.5.35-1,.73-1.5,1.06a11.19,11.19,0,0,1-1.57.73A.8.8,0,0,1,384.08,25.63Zm-295,27.49c3.54.31,6.6,2.11,9.43,4.14q4.69,3.36,9.21,7a133.54,133.54,0,0,1,17.9,16.87.56.56,0,0,1-.78.79c-5.74-5.08-11.4-10.24-17.27-15.16q-4.62-3.89-9.44-7.51c-2.84-2.13-5.58-4.49-9.18-5.13A.5.5,0,0,1,89.07,53.12Zm112.67,58.32c.08.61.17,1.22.25,1.83a7.62,7.62,0,0,1-2,4.86,5.17,5.17,0,0,1-2.21,1.42,5.24,5.24,0,0,1-2.65.59,6.89,6.89,0,0,1-3.46-.94l-1.4-1.07a6.81,6.81,0,0,1-1.76-3c-.08-.61-.17-1.22-.25-1.82a5.24,5.24,0,0,1,.59-2.65,5.6,5.6,0,0,1,.35-.74c-9.46-6.68-18.55-14-27.68-21.1-11-8.49-21.87-17-32.69-25.7-.46-.37.16-1.17.64-.82,11.19,8.18,22.26,16.51,33.32,24.88,9.19,7,18.65,13.82,27.55,21.21a7.6,7.6,0,0,1,4.79-2,6.89,6.89,0,0,1,3.47.94l1.39,1.08A6.66,6.66,0,0,1,201.74,111.44Z"/></g></g></svg>