<svg id="Layer_1" data-name="Layer 1" xmlns="http://www.w3.org/2000/svg" viewBox="0 0 438.59 218.16"><defs><style>.cls-1{fill:#b08c3e;}</style></defs><path class="cls-1" d="M373.23,101.69a108.09,108.09,0,0,0,22.15-12A71.57,71.57,0,0,0,411,74.47c4.27-5.77,8.26-12.76,8.31-20.1a1.32,1.32,0,0,0-.76-1.13,1.48,1.48,0,0,0-1.71-1.65,89.56,89.56,0,0,0-45,17.28,86.49,86.49,0,0,0-17,16.33,95.64,95.64,0,0,0-6.7,9.87c-1.85,3.11-3.69,6.3-6.37,8.65a188.2,188.2,0,0,1-22.65,9.8l-.14,0c2.25-1.5,4.5-3,6.73-4.52,5.76-4,11.62-8,16.15-13.43,8.56-10.2,11.84-23.24,14.84-35.9a1.73,1.73,0,0,0-2.1-2.11C340.81,62.37,329.45,72,320.22,83a71.14,71.14,0,0,0-11.68,18.64,35.58,35.58,0,0,0-2.6,16,201.92,201.92,0,0,1-55.3,7.57,248.54,248.54,0,0,1-46.51-5.12c11.33-1.42,22.51-5.39,32.37-10.34A166.33,166.33,0,0,0,260.09,95c5.44-4,14-9.24,12.8-17.07a2.16,2.16,0,0,0-2.63-1.5c-2.61.75-6,.22-8.66.22s-5.13.06-7.69.17q-7.12.32-14.17,1.31a101,101,0,0,0-26.51,7.23c-13.52,5.94-26,16-32.19,29.62-19.7-4.79-39.3-10.29-59.13-14.39-.13-.06-.24-.14-.37-.19a1.34,1.34,0,0,0-.63,0c-3.77-.77-7.55-1.5-11.34-2.15a93.76,93.76,0,0,0,25.58-1.65,105.45,105.45,0,0,0,17.67-5.85c4.45-1.83,9.11-3.52,13.54-5.51A5.29,5.29,0,0,0,171,87.54c7.52,0,7.53-11.69,0-11.69-4.24,0-6.09,3.72-5.55,7-4.54,1.37-9,3.43-13.35,5.09a148.43,148.43,0,0,1-17,5.64c-11.65,2.84-24,2.9-36,3,11.74-1,23.37-2.89,34-8.44,11.79-6.18,21.87-16.5,25.62-29.5a1.75,1.75,0,0,0-1.68-2.2C140.16,58,123.25,59.81,107.81,67c-11.72,5.43-23.94,15.14-28,27.94C59.43,94,38.93,96.28,19.62,103c-.66.22-.39,1.26.29,1.06,21.44-6.21,43.35-6.85,65.23-4.62a1.4,1.4,0,0,0,1.74.52c.17-.09.33-.2.49-.29,2.13.23,4.25.51,6.37.8a51.49,51.49,0,0,0,4.67,9.37c2,3.26,4.25,6.43,6.52,9.55,4.35,6,9.13,11.63,15.06,16.07,13.08,9.79,31.4,13,47.29,14.44,2.15.2,2.89-2.27,2.21-3.84a76.9,76.9,0,0,0-33.39-37l-1.22-.65c12.38,2.92,24.62,6.12,36.63,9.1s24,5.74,36.09,7.93c4.89,13.32,19.41,22.86,31.9,27.89,18.07,7.27,38.11,6.86,57.17,4.92a2.28,2.28,0,0,0,2.15-2.84c-1-5.11-5.05-8.2-9.15-11a110.26,110.26,0,0,0-18.05-10,79.29,79.29,0,0,0-13.5-4.67l1.21-.05c6.49,2.26,13.54,2.88,20.32,3.64a170.11,170.11,0,0,0,21.41.84c.73,0,1-1.23.18-1.34-6.92-.93-13.82-2-20.77-2.7-3.16-.34-6.35-.78-9.55-1.17a207.29,207.29,0,0,0,33.1-5.77c4.44,6,12.4,8.65,19.43,10.13a111.42,111.42,0,0,0,27.33,2.1,133,133,0,0,0,54.16-14.29,2.45,2.45,0,0,0,.49-3.8c-5-5.65-13.3-7.19-20.37-8.51a122.55,122.55,0,0,0-24.63-2.07l-.43,0a5.27,5.27,0,0,1,.51-.19C364.79,105,369,103.44,373.23,101.69ZM93.38,81.41A59.53,59.53,0,0,1,110,69.66c13.69-6.62,29.4-8.15,44.4-9.56-8,25.29-37.53,33.12-61.92,35.7,1.45-1.13,2.9-2.26,4.39-3.33,3.39-2.45,6.89-4.76,10.49-6.9s7-4.08,10.66-5.9c3.82-1.91,8-3.3,11.68-5.45a1.36,1.36,0,0,0-1-2.48c-4,.87-8,3-11.66,4.73a126.76,126.76,0,0,0-11.71,6.3Q99.81,86.15,94.62,90a75.74,75.74,0,0,0-6.94,5.41c-1.19-.1-2.38-.16-3.57-.24A51.17,51.17,0,0,1,93.38,81.41Zm37.07,30.15a79.48,79.48,0,0,1,14.71,9.26,67,67,0,0,1,18.07,23.42c-14-1.83-29.39-4.82-40.71-13.14-5.75-4.23-10.42-9.86-14.62-15.57-2.21-3-4.31-6-6.53-9a44.51,44.51,0,0,0-5.18-5.77c8.31,1.19,16.59,2.75,24.84,4.49C123.39,108.09,127.41,110,130.45,111.56ZM312.11,102A79.81,79.81,0,0,1,323.7,84.3c7.92-9.35,17.43-17.53,28.81-22.22-2.92,11.16-6.37,22.81-14.16,31.52-4.5,5-10.15,8.81-15.71,12.57-2.25,1.52-4.48,3.07-6.71,4.63a154.7,154.7,0,0,1,10.85-13.18c2.33-2.51,4.71-5,7.19-7.34s5.71-4.57,7.89-7.34a1.19,1.19,0,0,0-1.43-1.86c-3.14,1.4-5.91,4.18-8.43,6.47a96.54,96.54,0,0,0-7.81,7.86,98.6,98.6,0,0,0-12.42,17.78,1,1,0,0,0-.11.57l-4,2.81A50.33,50.33,0,0,1,312.11,102ZM215.38,87.78a94.85,94.85,0,0,1,26.28-6.89c4.57-.56,9.18-.86,13.78-1,3.78-.09,8.64-.7,12.63,0-2.6,6.45-9.65,10.34-15.21,14.24a152.34,152.34,0,0,1-20.73,12.38,87,87,0,0,1-45.08,8.74c6.31-3,12.23-6.68,18.3-10.12a108.12,108.12,0,0,1,10-5.07,51.5,51.5,0,0,1,5.6-2.06c1.92-.59,4-.9,5.83-1.66a1.16,1.16,0,0,0-.3-2.26c-3.63-.41-7.81,1.19-11.14,2.48a79.83,79.83,0,0,0-10.73,5.31c-6.86,3.94-13.46,8.34-20.67,11.64A73.38,73.38,0,0,1,215.38,87.78Zm67.36,57.15c3.68,2.32,8.59,5,10.78,9-16.69,1.55-33.88,1.68-49.94-3.68a66.12,66.12,0,0,1-19.39-10.21c-5.22-4-9.05-8.92-12.86-14.09,2.11.36,4.21.7,6.33,1,7.12,2.93,13.69,6.91,20.43,10.66,7,3.91,14.18,6.68,22.32,6.43a.68.68,0,0,0,0-1.36c-8.41-.77-16.34-5.24-23.57-9.31-3.19-1.81-6.38-3.64-9.72-5.18,6.87.78,13.77,1.32,20.7,1.48h1.37c.56.16,1.12.33,1.67.52,5.65,2,11.29,4.27,16.79,6.67A113.38,113.38,0,0,1,282.74,144.93Zm98.15-32c6.16,1.05,12.79,2.23,18.15,5.58a128.17,128.17,0,0,1-46.77,11.9,128,128,0,0,1-24.68-.73,53.6,53.6,0,0,1-20.12-7.22,1.93,1.93,0,0,1,0-.24c1.49-.41,3-.87,4.45-1.32,13.23,3.85,28,3.36,41.24-.17.61-.17.34-1-.25-.91a147.29,147.29,0,0,1-22,1.63c-5.71,0-11.44-.54-17.14-1.09l1-.31a.65.65,0,0,0,.28.08c6.69-.42,13.38-3.9,19.92-5.44a122.93,122.93,0,0,1,23.24-3.15A109.45,109.45,0,0,1,380.89,113ZM345,108.05c13.57-6.66,26.38-14.9,37.11-25.16,1.26-1.21-.41-3.49-1.91-2.47A381.13,381.13,0,0,1,346,101.49c2.74-3,4.89-6.74,7.36-10a96.71,96.71,0,0,1,17.92-17.84A95.42,95.42,0,0,1,416,55.33c-2.65,5.83-4.91,11.67-8.8,16.9a66.52,66.52,0,0,1-15.8,14.93,112,112,0,0,1-21.64,11.26c-3.82,1.54-7.71,2.93-11.61,4.27-3.26,1.12-7.29,1.75-9.71,4.36a1.13,1.13,0,0,0-.27.52C347.11,107.7,346,107.88,345,108.05Zm41.92-31.94a8.17,8.17,0,0,1,1.22-1.4c.43-.35.87-.68,1.31-1a32.45,32.45,0,0,1,2.87-2,46,46,0,0,1,6.1-3.29c.65-.27,1.23.75.69,1.18-1.79,1.43-3.69,2.71-5.51,4.09-.92.7-1.86,1.33-2.81,2-.48.33-.95.69-1.44,1a10.74,10.74,0,0,1-1.5.7A.77.77,0,0,1,386.88,76.11ZM104.5,102.43c3.38.29,6.32,2,9,4q4.5,3.23,8.82,6.67a128.33,128.33,0,0,1,17.13,16.15.53.53,0,0,1-.75.75c-5.49-4.85-10.91-9.79-16.52-14.51q-4.42-3.72-9-7.18c-2.72-2-5.35-4.3-8.78-4.92C103.85,103.26,104,102.38,104.5,102.43Zm107.85,55.82c.08.58.15,1.16.23,1.75a7.22,7.22,0,0,1-1.93,4.65,5,5,0,0,1-2.11,1.36,5,5,0,0,1-2.54.57,6.7,6.7,0,0,1-3.32-.9l-1.33-1a6.61,6.61,0,0,1-1.69-2.9l-.24-1.75a5,5,0,0,1,.57-2.54,5.6,5.6,0,0,1,.33-.7c-9-6.39-17.75-13.43-26.49-20.2-10.49-8.13-20.94-16.29-31.29-24.6-.44-.35.15-1.12.61-.78Q159.22,122.93,175,135c8.8,6.67,17.85,13.23,26.37,20.31a7.34,7.34,0,0,1,4.59-1.88,6.44,6.44,0,0,1,3.32.9l1.33,1A6.57,6.57,0,0,1,212.35,158.25Z"/></svg>