<?xml version="1.0" encoding="utf-8"?>
<!-- Generator: Adobe Illustrator 25.2.1, SVG Export Plug-In . SVG Version: 6.00 Build 0)  -->
<svg version="1.1" id="Layer_1" xmlns="http://www.w3.org/2000/svg" xmlns:xlink="http://www.w3.org/1999/xlink" x="0px" y="0px"
	 viewBox="0 0 117 117" style="enable-background:new 0 0 117 117;" xml:space="preserve">
<style type="text/css">
	.st0{fill:#D7A68D;}
</style>
<g>
	<path class="st0" d="M97.6,52.5c0-1.4-0.4-2.4-1.6-3.2c-2.6-1.9-5.1-3.8-7.7-5.7c-0.8-0.6-1.2-1.1-1.1-2.1c0.1-1.8,0-3.6,0-5.3
		c0-2-0.8-2.8-2.9-2.8c-2.9,0-5.7,0-8.6,0c-0.7,0-1.6-0.3-2.2-0.7c-4.3-3.2-8.6-6.5-13-9.7c-1.7-1.3-2.5-1.3-4.2,0
		c-4.3,3.2-8.5,6.4-12.8,9.6c-0.7,0.5-1.7,0.8-2.6,0.9c-2.8,0.1-5.7,0-8.5,0.1c-1.8,0-2.6,0.9-2.6,2.6c0,1.9,0.1,3.8,0,5.6
		c0,0.6-0.4,1.5-0.9,1.9c-2.5,2-5,3.9-7.6,5.7c-1.3,0.9-1.9,2-1.9,3.7c0.1,13,0,26.1,0,39.1c0,2.9,0.6,3.5,3.5,3.5
		c11.9,0,23.7,0,35.6,0c12,0,24,0,36,0c2.4,0,3.1-0.7,3.1-3.1C97.6,78.9,97.6,65.7,97.6,52.5z M87.3,48.5c1.6,1.2,3,2.2,4.4,3.3
		c-1.4,1.5-2.8,2.9-4.4,4.5V48.5z M52.5,31.3c1.7-1.3,3.4-2.6,5.1-3.8c0.4-0.2,1.1-0.4,1.4-0.2c2.5,1.8,4.9,3.7,7.8,5.8H50.3
		C51.2,32.4,51.9,31.9,52.5,31.3z M34.4,39.4v-1.5h48.2c0,0.5,0.1,1,0.1,1.5c0,6.8,0,13.5,0,20.3c0,0.8-0.4,1.7-0.9,2.2
		c-3.1,3.2-6.3,6.4-9.5,9.5c-0.5,0.5-1.3,0.8-1.9,0.9c-7.4,0.1-14.9,0.1-22.3,0c-0.7,0-1.6-0.4-2.1-0.9c-3.5-3.2-7-6.6-10.4-9.8
		c-0.8-0.7-1.1-1.4-1.1-2.5C34.4,52.5,34.4,45.9,34.4,39.4z M29.7,48.5V56c-1.5-1.5-2.9-2.7-4.4-4.2C26.8,50.7,28.2,49.6,29.7,48.5z
		 M24.1,57c6,5.7,11.8,11.2,17.7,16.9c-5.9,4.5-11.7,9-17.7,13.6V57z M27.9,90.6c0.5-0.5,0.8-0.8,1.1-1c5.2-4,10.3-8,15.5-11.9
		c0.6-0.5,1.5-0.8,2.3-0.8c7.8-0.1,15.6,0,23.4,0c0.6,0,1.4,0.2,1.8,0.5c5.3,4.2,10.6,8.4,15.9,12.7c0.1,0.1,0.2,0.2,0.4,0.5H27.9z
		 M92.9,88.1C87.1,83.5,81.5,79,76,74.6c5.7-5.7,11.3-11.3,16.9-17V88.1z"/>
	<path class="st0" d="M55.8,62.4c1,0.9,2.2,1,3.1,0c3.5-3.5,7-6.9,10.5-10.5c0.9-0.9,0.8-2.3,0-3.2c-0.9-0.9-2.1-0.9-3.2-0.1
		c-0.3,0.2-0.5,0.5-0.8,0.7c-2.6,2.6-5.2,5.3-8,8.1c-1.5-1.5-2.7-2.9-4.1-4.2c-1.1-1-2.4-1-3.3,0c-0.9,0.9-0.9,2.2,0,3.3
		C51.9,58.6,53.8,60.6,55.8,62.4z"/>
</g>
</svg>
