<?xml version="1.0" encoding="utf-8"?>
<!-- Generator: Adobe Illustrator 25.2.1, SVG Export Plug-In . SVG Version: 6.00 Build 0)  -->
<svg version="1.1" id="Layer_1" xmlns="http://www.w3.org/2000/svg" xmlns:xlink="http://www.w3.org/1999/xlink" x="0px" y="0px"
	 viewBox="0 0 117 117" style="enable-background:new 0 0 117 117;" xml:space="preserve">
<style type="text/css">
	.st0{fill:#F9AE1E;}
</style>
<g id="Layer_2_1_">
	<g id="Layer_1-2">
		<g>
			<path class="st0" d="M85.1,48.6c-0.2-2.5-2.3-4.4-4.8-4.3c-1.9,0-3.8,0-5.6,0h-0.5c0.3-0.6,0.6-1,0.8-1.6c1.8-3.9,0-8.5-3.9-10.3
				c-0.7-0.3-1.4-0.5-2.1-0.6c-0.1,0-0.2-0.1-0.3-0.1h-1.9c-0.6,0.1-1.2,0.3-1.8,0.5c-1.9,0.7-3.4,2.2-4.2,4
				c-0.8,1.6-1.4,3.2-2.2,4.8c-0.1,0.2-0.1,0.3-0.2,0.5c-0.4-0.9-0.7-1.8-1.1-2.6c-0.6-1.6-1.5-3.2-2.5-4.6
				c-1.1-1.4-2.8-2.4-4.5-2.6c-0.1,0-0.2-0.1-0.2-0.1h-1.9c-0.9,0.2-1.7,0.5-2.6,0.8c-3.9,1.8-5.5,6.5-3.7,10.3
				c0.1,0.3,0.3,0.6,0.5,0.9c0.1,0.2,0.2,0.3,0.3,0.5h-1c-2,0-3.9,0-5.9,0.1c-2.1,0.2-3.7,1.8-4,3.8c0,0.1,0,0.2-0.1,0.2v4.3
				c0.2,1.1,0.8,2.2,1.7,2.9c0.3,0.3,0.6,0.5,1,0.7c0.3,0.1,0.5,0.4,0.4,0.7c0,7.7,0,15.4,0,23.2c-0.1,1.9,0.9,3.7,2.7,4.5
				c0.7,0.3,1.4,0.5,2.2,0.5c12.5,0,25,0,37.5,0c2.6,0.1,4.8-1.9,4.8-4.5c0-0.2,0-0.3,0-0.5c0-7.7,0-15.4,0-23.1
				c-0.1-0.4,0.2-0.7,0.5-0.8c1.5-0.6,2.5-2.1,2.6-3.7C85.2,51.2,85.2,49.9,85.1,48.6z M52.2,82h-0.5H39.9c-1.3,0-1.9-0.5-1.9-1.8
				V56.8h14.2V82z M52.2,53.6H36.8c-1.4,0-1.9-0.6-1.9-1.9c0-0.9,0-1.8,0-2.7c0-0.8,0.6-1.6,1.5-1.6c0,0,0.1,0,0.1,0H52h0.2
				L52.2,53.6z M48.3,44.1c-1.8-0.2-3.3-1.5-3.8-3.2c-0.6-1.7-0.1-3.6,1.3-4.8c1.6-1.6,4.1-1.7,5.9-0.4c0.6,0.6,1.2,1.2,1.5,2
				c1,2.1,1.8,4.2,2.7,6.3c0,0,0,0.1,0,0.2h-3.1C51.4,44.2,49.8,44.3,48.3,44.1L48.3,44.1z M61.5,82h-6.2V47.4h6.2V82z M60.8,44.2
				c0.4-1,0.7-1.9,1.1-2.8c0.7-1.5,1.4-3,2.2-4.5c1.7-3.1,6.2-2.5,7.8,0.2c1.3,2.2,0.7,5-1.5,6.4c-0.7,0.4-1.5,0.7-2.4,0.7
				C65.6,44.3,63.3,44.2,60.8,44.2L60.8,44.2z M78.9,80.1c0,1.4-0.6,2-2,2H64.7V56.8h14.2V80.1z M82,52c0.1,0.9-0.6,1.6-1.4,1.6
				c-0.1,0-0.1,0-0.2,0H65h-0.2v-6.3h15.4c1.3,0,1.9,0.6,1.9,1.9C82,50.2,82,51.1,82,52z"/>
		</g>
		<g>
			<path class="st0" d="M58.5,117c-1.5,0-2.9-0.1-4.4-0.2l0.1-2c1.4,0.1,2.8,0.2,4.2,0.2l0.7,0l0,2L58.5,117z M64.3,116.7l-0.2-2
				c1.6-0.2,3.3-0.4,4.9-0.7l0.4,2C67.7,116.3,66,116.6,64.3,116.7z M49.1,116.2c-1.7-0.3-3.3-0.6-5-1l0.5-1.9
				c1.6,0.4,3.2,0.7,4.8,1L49.1,116.2z M74.3,114.8l-0.5-1.9c1.6-0.4,3.1-1,4.7-1.5l0.7,1.9C77.5,113.9,75.9,114.4,74.3,114.8z
				 M39.3,113.8c-1.6-0.6-3.2-1.2-4.7-1.9l0.8-1.8c1.5,0.7,3,1.3,4.6,1.8L39.3,113.8z M83.8,111.3l-0.9-1.8c1.5-0.7,2.9-1.5,4.3-2.3
				l1,1.7C86.8,109.7,85.3,110.5,83.8,111.3z M30,109.6c-1.5-0.8-2.9-1.7-4.3-2.7l1.1-1.7c1.4,0.9,2.8,1.8,4.2,2.6L30,109.6z
				 M92.5,106.1l-1.2-1.6c1.3-1,2.6-2,3.9-3l1.3,1.5C95.2,104,93.9,105.1,92.5,106.1z M21.6,103.9c-1.3-1.1-2.6-2.2-3.8-3.4l1.4-1.4
				c1.2,1.1,2.4,2.2,3.7,3.3L21.6,103.9z M100.2,99.5l-1.4-1.4c1.1-1.2,2.3-2.4,3.3-3.6l1.5,1.3C102.6,97,101.4,98.3,100.2,99.5z
				 M14.3,96.8c-1.1-1.3-2.2-2.6-3.2-4l1.6-1.2c1,1.3,2,2.6,3.1,3.8L14.3,96.8z M106.7,91.6l-1.6-1.1c0.9-1.3,1.8-2.7,2.6-4.2l1.7,1
				C108.6,88.8,107.7,90.3,106.7,91.6z M8.3,88.6c-0.9-1.4-1.7-2.9-2.4-4.5l1.8-0.9c0.7,1.5,1.5,2.9,2.3,4.3L8.3,88.6z M111.7,82.8
				l-1.8-0.8c0.7-1.5,1.3-3,1.8-4.6l1.9,0.7C113.1,79.7,112.4,81.3,111.7,82.8z M3.9,79.5c-0.6-1.6-1.1-3.2-1.6-4.8l1.9-0.6
				c0.4,1.6,1,3.1,1.6,4.7L3.9,79.5z M115.1,73.2l-1.9-0.5c0.4-1.6,0.8-3.2,1-4.8l2,0.3C115.9,69.9,115.6,71.6,115.1,73.2z
				 M1.1,69.7c-0.3-1.7-0.6-3.3-0.7-5l2-0.2c0.2,1.6,0.4,3.3,0.7,4.9L1.1,69.7z M116.8,63.2l-2-0.2c0.1-1.5,0.2-3,0.2-4.6l0-0.4l2,0
				l0,0.4C117,60.1,116.9,61.7,116.8,63.2z M0,59.6c0-0.4,0-0.7,0-1.1c0-1.3,0-2.7,0.1-4l2,0.1C2,55.9,2,57.2,2,58.5
				c0,0.4,0,0.7,0,1.1L0,59.6z M114.8,53.2c-0.2-1.6-0.4-3.3-0.7-4.9l2-0.4c0.3,1.7,0.5,3.3,0.7,5L114.8,53.2z M2.7,49.8l-2-0.3
				c0.3-1.7,0.6-3.3,1-5L3.6,45C3.2,46.5,2.9,48.2,2.7,49.8z M113,43.6c-0.4-1.6-0.9-3.1-1.5-4.7l1.9-0.7c0.6,1.6,1.1,3.2,1.6,4.8
				L113,43.6z M5,40.2l-1.9-0.6C3.7,38,4.3,36.4,5,34.9l1.8,0.8C6.1,37.2,5.5,38.7,5,40.2z M109.6,34.4c-0.7-1.5-1.5-2.9-2.3-4.3
				l1.7-1c0.9,1.5,1.6,3,2.4,4.5L109.6,34.4z M9,31.3l-1.8-1C8,28.8,8.9,27.4,9.9,26l1.7,1.1C10.6,28.4,9.8,29.8,9,31.3z
				 M104.7,25.9c-0.9-1.3-2-2.6-3-3.9l1.5-1.3c1.1,1.3,2.1,2.6,3.1,4L104.7,25.9z M14.4,23.1l-1.6-1.3c1.1-1.3,2.2-2.6,3.4-3.8
				l1.4,1.4C16.6,20.6,15.5,21.8,14.4,23.1z M98.3,18.4c-1.2-1.1-2.4-2.3-3.6-3.3l1.3-1.5c1.3,1.1,2.6,2.2,3.8,3.4L98.3,18.4z
				 M21.2,16l-1.3-1.5c1.3-1.1,2.6-2.2,4-3.2l1.2,1.6C23.7,13.9,22.5,15,21.2,16z M90.8,12.1c-1.3-0.9-2.7-1.8-4.1-2.6l1-1.7
				c1.5,0.8,2.9,1.8,4.3,2.7L90.8,12.1z M29.1,10.2l-1-1.7c1.4-0.9,2.9-1.7,4.5-2.5l0.9,1.8C32,8.6,30.5,9.4,29.1,10.2z M82.3,7.2
				c-1.5-0.7-3-1.3-4.5-1.9l0.7-1.9c1.6,0.6,3.2,1.2,4.7,1.9L82.3,7.2z M37.9,5.9L37.2,4c1.6-0.6,3.2-1.2,4.8-1.6l0.6,1.9
				C41,4.7,39.5,5.3,37.9,5.9z M73.1,3.9c-1.6-0.4-3.2-0.8-4.8-1.1l0.3-2c1.7,0.3,3.3,0.7,5,1.1L73.1,3.9z M47.3,3.1l-0.4-2
				c1.7-0.3,3.3-0.6,5-0.8l0.2,2C50.6,2.5,48.9,2.8,47.3,3.1z M63.4,2.2c-1.6-0.1-3.3-0.2-5-0.2c-0.5,0-0.9,0-1.4,0l0-2
				c0.5,0,1,0,1.5,0c1.7,0,3.4,0.1,5.1,0.2L63.4,2.2z"/>
		</g>
	</g>
</g>
</svg>
