<?xml version="1.0" encoding="utf-8"?>
<!-- Generator: Adobe Illustrator 25.2.1, SVG Export Plug-In . SVG Version: 6.00 Build 0)  -->
<svg version="1.1" id="Layer_1" xmlns="http://www.w3.org/2000/svg" xmlns:xlink="http://www.w3.org/1999/xlink" x="0px" y="0px"
	 viewBox="0 0 117 117" style="enable-background:new 0 0 117 117;" xml:space="preserve">
<style type="text/css">
	.st0{fill:#F9AE1E;}
</style>
<g id="Layer_2_1_">
	<g id="Layer_1-2">
		<g>
			<path class="st0" d="M96.3,51.2c-1.4,0-2.8,0-4.1-0.1H90c0.2-0.3,0.3-0.5,0.4-0.8c0.8-1.5,0.9-3.3,0.4-4.9
				c-0.2-0.7-0.7-1.1-1.3-0.9c-2.1,0.5-4.2,1.1-6.3,1.7c-0.6,0.2-0.9,0.8-0.7,1.3c0,0,0,0.1,0,0.1c0.2,0.6,0.8,0.9,1.3,0.7
				c0.2,0,0.4-0.1,0.7-0.2l4.2-1.1c0.3,1.9-0.9,3.6-2.8,4c-0.1,0-0.3,0-0.4,0c-2.1,0.2-4.1,0.8-5.8,2c-2.3,1.5-4.1,3.6-5.2,6.1
				c-0.2,0.4-0.4,0.8-0.7,1.2c-0.4-0.5-0.7-0.8-1-1.2c-0.2-0.2-0.2-0.5-0.2-0.8c0.5-3.6,2.8-6.8,6.2-8.3c0.2-0.1,0.4-0.2,0.6-0.3
				c0.6-0.3,0.8-1,0.5-1.5s-1-0.8-1.5-0.5c-0.3,0.1-0.7,0.3-1,0.4c-3.5,1.8-6,5.1-6.8,8.9c-1.3-0.9-2.9-1.3-4.5-1
				c-1.5,0.2-2.9,1.1-3.8,2.4c-0.8,1.4-1,3.1-0.5,4.6c-0.4,0.2-0.7,0.3-1.1,0.5c-0.6,0.3-0.8,0.9-0.6,1.5c0.2,0.6,0.8,0.8,1.4,0.6
				c0,0,0,0,0,0c0.3-0.1,0.6-0.2,0.9-0.4c0.8-0.3,1.4,0.1,1.4,1c-0.3,6.7,5,12.4,11.7,12.6c1.8,0.1,3.6-0.3,5.3-1
				c0.4-0.2,0.9-0.2,1.3,0.1c2.1,1.3,4.1,2.5,6.2,3.7c1.2,0.9,2.8,0.7,3.7-0.4c0.1-0.1,0.1-0.2,0.2-0.3c1.5-2,2.4-4.4,2.5-6.9
				c0.3-1.5-0.7-2.9-2.1-3.2c-0.3-0.1-0.6-0.1-0.9,0c-1.9,0-3.7,0.1-5.6,0.1c-0.5,0-1-0.2-1.3-0.7c2.3-1.3,2.5-1.4,3.7-3.8
				c0.1-0.2,0.4-0.3,0.6-0.4c3.1-0.9,5.1-3.9,4.7-7.1c0-0.3,0.2-0.6,0.5-0.7c1-0.5,1.9-1.3,2.5-2.3c0.4-0.8,0.7-1.6,1-2.5v-1.5
				C97.5,51.5,96.9,51.2,96.3,51.2z M86.4,73.3h5.3c0.4,0,0.7,0,0.7,0.5c-0.1,0.9-0.2,1.8-0.3,2.8l-3.2-1.4
				c-0.9-0.4-1.5-0.2-1.8,0.4s0,1.2,0.9,1.7l3.1,1.4c-0.8,1.5-0.8,1.5-2.2,0.7l-5-3.1L86.4,73.3z M92.5,56.6c-1.2,0.4-1.4,0.7-1.1,2
				c0.7,2.1-0.4,4.4-2.5,5.2c-0.5,0.2-0.9,0.4-1.4,0.6c-0.7,0.1-1.2,0.7-1.2,1.4c-0.1,0.9-0.7,1.7-1.6,2.1c-1.5,0.8-3.1,1.3-4.7,1.4
				c-0.9,0.1-1.8,0.1-2.7,0.2s-1.5,0.5-1.4,1.2s0.6,1.1,1.5,1c1.2-0.1,2.4-0.2,3.6-0.3s1.8,0.7,2.6,1.2c0,0.2-0.1,0.5-0.2,0.7
				c-1.9,2.2-4.8,3.4-7.7,3.2c-5.4-0.1-9.6-4.6-9.5-10c0-0.4,0-0.7,0.1-1.1c0.1-0.6-0.1-1.2-0.7-1.5c-1.5-0.7-2.2-2.5-1.5-4
				c0,0,0,0,0,0c0.9-1.5,2.7-2,4.3-1.4c1.7,0.9,3.1,2.3,4,4c0.1,0.2,0,0.5-0.2,0.8c-1,1.9-2.1,3.8-3.1,5.7c-0.2,0.3-0.3,0.6-0.3,1
				c0.1,0.4,0.4,0.7,0.8,0.9c0.4,0,0.8-0.1,1.2-0.3c0.2-0.1,0.3-0.4,0.4-0.7L77,59.4c2-4,6.2-6.4,10.6-6c2.3,0.1,4.6,0.1,6.9,0.1
				c0.3,0,0.6,0,0.9,0C95.1,55.1,94,56.2,92.5,56.6z M56.2,63.5c-0.3-0.2-0.7-0.3-1-0.5c0.6-2.9-0.1-4.9-2.1-6.2
				c-2-1.3-4.6-1.2-6.6,0.1c-0.1-0.2-0.1-0.4-0.2-0.6c-1.2-4.4-4.6-7.9-9-9.1c-3.1-1-6.3-1.7-9.5-2.6c-0.6-0.3-1.3,0-1.5,0.6
				c0,0.1-0.1,0.2-0.1,0.3c-0.5,1.6-0.4,3.4,0.4,4.8l0.5,0.8c-2.3,0-4.4,0-6.6,0c-1,0-1.4,0.4-1.3,1.4c0,1.7,0.6,3.4,1.9,4.5
				c0.6,0.6,1.6,0.8,2,1.5s0.1,1.7,0.2,2.5c0.5,2.4,2.2,4.3,4.5,5c0.4,0.2,0.7,0.4,0.8,0.8c0.5,0.8,1.1,1.6,1.8,2.3
				c0.5,0.5,1.1,0.8,1.8,1.2c-0.3,0.5-0.9,0.7-1.4,0.6C28.9,71,27,71,25.1,71c-1.4-0.1-2.7,0.9-2.8,2.4c0,0.1,0,0.2,0,0.3
				c0,2.7,0.8,5.3,2.5,7.4c0.8,1.3,2.4,1.6,3.7,0.9c0.1-0.1,0.2-0.1,0.3-0.2c2-1.2,4.1-2.4,6.1-3.7c0.4-0.3,0.9-0.3,1.4-0.1
				c2.8,1.2,5.9,1.3,8.7,0.3c0.9-0.3,1.3-0.9,1-1.6S45,75.7,44.2,76c-1.5,0.5-3.1,0.7-4.6,0.5c-2.3-0.3-4.5-1.5-6-3.2
				c-0.1-0.2-0.2-0.7-0.1-0.7c0.9-0.5,1.7-1.4,3-1c1.1,0.2,2.1,0.3,3.2,0.3c0.8,0,1.4-0.4,1.4-1.1s-0.5-1.2-1.3-1.2S38,69.4,37,69.3
				c-1.8-0.1-3.6-0.7-5.1-1.7c-0.7-0.4-1.1-1-1.2-1.8c0.1-0.7-0.5-1.4-1.2-1.5c0,0,0,0,0,0c-0.4-0.1-0.7-0.2-1.1-0.4
				c-2.4-1-3.4-2.9-2.8-5.3c0.3-1.3,0.2-1.6-1.2-2.1c-1.4-0.4-2.5-1.6-2.8-3h0.9c2.5,0,4.9-0.1,7.4-0.1c4.2-0.2,8.1,2.1,10,5.8
				c1.5,2.7,3,5.5,4.5,8.2c0.5,1,1.1,2,1.6,3c0.2,0.5,0.8,0.8,1.3,0.6c0.4-0.2,0.7-0.6,0.8-1c0.1-0.2-0.1-0.6-0.3-0.9
				c-1-1.9-2.1-3.8-3.1-5.7c-0.1-0.2-0.3-0.5-0.2-0.7c1-1.7,2.2-3.4,4.2-4.2c1.5-0.6,3.3,0.1,4.1,1.5c0.7,1.5,0.1,3-1.5,3.9
				c-0.5,0.3-0.8,1-0.7,1.6c0.4,2.8-0.5,5.5-2.3,7.6c-0.1,0.2-0.3,0.3-0.4,0.5c-0.3,0.5-0.2,1.1,0.3,1.4c0.4,0.4,1,0.4,1.4,0
				c0.3-0.2,0.5-0.5,0.7-0.8c1.8-2.3,2.8-5.2,2.6-8.1c-0.1-0.5,0.2-0.9,0.7-1c0.2,0,0.4,0,0.6,0.1c0.3,0.1,0.6,0.3,0.9,0.4
				c0.6,0.2,1.2-0.1,1.5-0.6C57,64.3,56.7,63.7,56.2,63.5z M27.4,79.9c-0.2,0.1-0.4,0-0.6-0.1c-0.3-0.3-0.5-0.7-0.8-1.1l3.2-1.4
				c0.8-0.4,1.1-1,0.9-1.6s-1-0.9-1.8-0.5L25,76.6c-0.1-1-0.3-2-0.3-2.9c0-0.1,0.4-0.4,0.5-0.4c1.8,0,3.6,0.1,5.4,0.1
				c0.2,0,0.3,0.1,0.4,0.2c0.7,0.9,1.4,1.8,2.1,2.7C31.3,77.5,29.3,78.7,27.4,79.9z M44.2,59c-0.3,0.4-0.7,0.8-1,1.3L42,58.2
				c-2.1-4.2-6.4-6.9-11.1-7.1C29.4,51,28,49,28.3,47.2c3,0.8,6.1,1.5,9,2.5c4,1.4,6.3,4.5,7,8.6C44.4,58.6,44.3,58.8,44.2,59z
				 M69.2,43.5c-1.6,3.7-4.4,6.7-7.9,8.5c-2.8,1.6-2.9,1.6-5.6-0.1c-1.3-0.8-2.5-1.7-3.7-2.7c-0.5-0.3-0.7-1-0.4-1.6
				c0-0.1,0.1-0.1,0.1-0.2c0.5-0.5,1.1-0.4,1.8,0.1c1.5,1.1,3,2.1,4.6,3.1c0.2,0.1,0.5,0.1,0.8,0c3.5-1.5,6.4-4.2,8.1-7.7
				c0.9-1.6,1-3.5,0.2-5.2c-1-2.3-3.6-3.4-5.9-2.4c-0.6,0.3-1.1,0.6-1.6,1.1c-0.8,0.8-1.3,0.8-2.1,0.1c-1.3-1.5-3.4-2-5.2-1.2
				c-1.9,0.9-3.1,2.8-2.9,4.9c0.2,1.1,0.5,2.1,0.9,3.1c0.3,0.9,0.3,1.5-0.4,1.8s-1.3,0.1-1.7-0.8c-1.3-2.6-1.7-5.3-0.2-8
				c1.7-3.3,5.8-4.6,9.1-2.9c0.3,0.2,0.7,0.4,1,0.6l0.3,0.2c2.5-1.9,5.2-2.2,7.9-0.7C69.6,35.7,70.8,39.7,69.2,43.5L69.2,43.5z
				 M72.3,30.7c-0.1,0.3-0.2,0.6-0.4,0.9c-0.4,0.5-0.8,0.9-1.3,1.3c-0.4,0.4-1.1,0.4-1.6,0c0,0,0,0,0,0c-0.4-0.4-0.4-1.1,0-1.5
				c0,0,0,0,0,0c0.4-0.5,0.8-1,1.3-1.4c0.4-0.2,0.8-0.3,1.2-0.1C71.9,30,72.1,30.4,72.3,30.7z M48.3,32c0,0.6-0.4,1.1-1,1.2
				c-0.2,0-0.4,0-0.6-0.1C46,32.6,45.5,32,45,31.3c-0.2-0.4-0.1-0.9,0.2-1.2c0.3-0.3,0.7-0.4,1.1-0.3c0.7,0.6,1.3,1.2,2,1.9
				C48.3,31.8,48.3,31.9,48.3,32z M51,30.7c-0.5,0.2-1.1,0-1.3-0.5c0-0.1,0-0.1-0.1-0.2c-0.2-0.7-0.4-1.3-0.5-2
				c-0.1-0.7,0.5-1.3,1.4-1.3c0.2,0.2,0.6,0.4,0.8,0.8c0.2,0.6,0.4,1.2,0.5,1.8C52,29.9,51.6,30.5,51,30.7C51,30.7,51,30.7,51,30.7z
				 M67.9,28c-0.2,0.7-0.4,1.4-0.6,2.1c-0.2,0.5-0.8,0.7-1.3,0.5c-0.5-0.1-0.9-0.6-0.8-1.1c0.1-0.7,0.3-1.4,0.5-2.1
				c0.2-0.5,0.7-0.8,1.3-0.6C67.5,26.9,67.9,27.4,67.9,28z M75.2,35.4c-0.2,0.3-0.5,0.6-0.8,0.8c-0.6,0.2-1.2,0.4-1.8,0.5
				c-0.6,0.1-1.2-0.3-1.3-0.9c-0.1-0.5,0.2-1.1,0.7-1.3c0.6-0.2,1.2-0.3,1.8-0.4C74.5,33.9,75.1,34.4,75.2,35.4L75.2,35.4z
				 M45.8,35.3c0,1-0.6,1.5-1.3,1.4c-0.7-0.1-1.3-0.3-1.9-0.5c-0.5-0.1-0.9-0.7-0.7-1.2c0,0,0-0.1,0-0.1c0.1-0.5,0.6-0.9,1.1-0.8
				c0,0,0.1,0,0.1,0c0.7,0.1,1.3,0.2,1.9,0.5C45.4,34.7,45.6,35.1,45.8,35.3L45.8,35.3z M51,60.8c0,0.6-0.5,1.1-1.1,1.1c0,0,0,0,0,0
				c-0.6,0-1.2-0.4-1.2-1.1c0,0,0,0,0,0c0-0.6,0.5-1.2,1.2-1.2C50.5,59.7,51,60.2,51,60.8z M68.3,60.8c0,0.6-0.5,1.1-1.2,1.1
				S66,61.3,66,60.7c0-0.6,0.5-1.1,1.1-1.1C67.8,59.6,68.3,60.2,68.3,60.8L68.3,60.8z"/>
		</g>
		<g>
			<path class="st0" d="M58.5,117c-1.5,0-2.9-0.1-4.4-0.2l0.1-2c1.4,0.1,2.8,0.2,4.2,0.2l0.7,0l0,2L58.5,117z M64.3,116.7l-0.2-2
				c1.6-0.2,3.3-0.4,4.9-0.7l0.4,2C67.7,116.3,66,116.6,64.3,116.7z M49.1,116.2c-1.7-0.3-3.3-0.6-5-1l0.5-1.9
				c1.6,0.4,3.2,0.7,4.8,1L49.1,116.2z M74.3,114.8l-0.5-1.9c1.6-0.4,3.1-1,4.7-1.5l0.7,1.9C77.5,113.9,75.9,114.4,74.3,114.8z
				 M39.3,113.8c-1.6-0.6-3.2-1.2-4.7-1.9l0.8-1.8c1.5,0.7,3,1.3,4.6,1.8L39.3,113.8z M83.8,111.3l-0.9-1.8c1.5-0.7,2.9-1.5,4.3-2.3
				l1,1.7C86.8,109.7,85.3,110.5,83.8,111.3z M30,109.6c-1.5-0.8-2.9-1.7-4.3-2.7l1.1-1.7c1.4,0.9,2.8,1.8,4.2,2.6L30,109.6z
				 M92.5,106.1l-1.2-1.6c1.3-1,2.6-2,3.9-3l1.3,1.5C95.2,104,93.9,105.1,92.5,106.1z M21.6,103.9c-1.3-1.1-2.6-2.2-3.8-3.4l1.4-1.4
				c1.2,1.1,2.4,2.2,3.7,3.3L21.6,103.9z M100.2,99.5l-1.4-1.4c1.1-1.2,2.3-2.4,3.3-3.6l1.5,1.3C102.6,97,101.4,98.3,100.2,99.5z
				 M14.3,96.8c-1.1-1.3-2.2-2.6-3.2-4l1.6-1.2c1,1.3,2,2.6,3.1,3.8L14.3,96.8z M106.7,91.6l-1.6-1.1c0.9-1.3,1.8-2.7,2.6-4.2l1.7,1
				C108.6,88.8,107.7,90.3,106.7,91.6z M8.3,88.6c-0.9-1.4-1.7-2.9-2.4-4.5l1.8-0.9c0.7,1.5,1.5,2.9,2.3,4.3L8.3,88.6z M111.7,82.8
				l-1.8-0.8c0.7-1.5,1.3-3,1.8-4.6l1.9,0.7C113.1,79.7,112.4,81.3,111.7,82.8z M3.9,79.5c-0.6-1.6-1.1-3.2-1.6-4.8l1.9-0.6
				c0.4,1.6,1,3.1,1.6,4.7L3.9,79.5z M115.1,73.2l-1.9-0.5c0.4-1.6,0.8-3.2,1-4.8l2,0.3C115.9,69.9,115.6,71.6,115.1,73.2z
				 M1.1,69.7c-0.3-1.7-0.6-3.3-0.7-5l2-0.2c0.2,1.6,0.4,3.3,0.7,4.9L1.1,69.7z M116.8,63.2l-2-0.2c0.1-1.5,0.2-3,0.2-4.6l0-0.4l2,0
				l0,0.4C117,60.1,116.9,61.7,116.8,63.2z M0,59.6c0-0.4,0-0.7,0-1.1c0-1.3,0-2.7,0.1-4l2,0.1C2,55.9,2,57.2,2,58.5
				c0,0.4,0,0.7,0,1.1L0,59.6z M114.8,53.2c-0.2-1.6-0.4-3.3-0.7-4.9l2-0.4c0.3,1.7,0.5,3.3,0.7,5L114.8,53.2z M2.7,49.8l-2-0.3
				c0.3-1.7,0.6-3.3,1-5L3.6,45C3.2,46.5,2.9,48.2,2.7,49.8z M113,43.6c-0.4-1.6-0.9-3.1-1.5-4.7l1.9-0.7c0.6,1.6,1.1,3.2,1.6,4.8
				L113,43.6z M5,40.2l-1.9-0.6C3.7,38,4.3,36.4,5,34.9l1.8,0.8C6.1,37.2,5.5,38.7,5,40.2z M109.6,34.4c-0.7-1.5-1.5-2.9-2.3-4.3
				l1.7-1c0.9,1.5,1.6,3,2.4,4.5L109.6,34.4z M9,31.3l-1.8-1C8,28.8,8.9,27.4,9.9,26l1.7,1.1C10.6,28.4,9.8,29.8,9,31.3z
				 M104.7,25.9c-0.9-1.3-2-2.6-3-3.9l1.5-1.3c1.1,1.3,2.1,2.6,3.1,4L104.7,25.9z M14.4,23.1l-1.6-1.3c1.1-1.3,2.2-2.6,3.4-3.8
				l1.4,1.4C16.6,20.6,15.5,21.8,14.4,23.1z M98.3,18.4c-1.2-1.1-2.4-2.3-3.6-3.3l1.3-1.5c1.3,1.1,2.6,2.2,3.8,3.4L98.3,18.4z
				 M21.2,16l-1.3-1.5c1.3-1.1,2.6-2.2,4-3.2l1.2,1.6C23.7,13.9,22.5,15,21.2,16z M90.8,12.1c-1.3-0.9-2.7-1.8-4.1-2.6l1-1.7
				c1.5,0.8,2.9,1.8,4.3,2.7L90.8,12.1z M29.1,10.2l-1-1.7c1.4-0.9,2.9-1.7,4.5-2.5l0.9,1.8C32,8.6,30.5,9.4,29.1,10.2z M82.3,7.2
				c-1.5-0.7-3-1.3-4.5-1.9l0.7-1.9c1.6,0.6,3.2,1.2,4.7,1.9L82.3,7.2z M37.9,5.9L37.2,4c1.6-0.6,3.2-1.2,4.8-1.6l0.6,1.9
				C41,4.7,39.5,5.3,37.9,5.9z M73.1,3.9c-1.6-0.4-3.2-0.8-4.8-1.1l0.3-2c1.7,0.3,3.3,0.7,5,1.1L73.1,3.9z M47.3,3.1l-0.4-2
				c1.7-0.3,3.3-0.6,5-0.8l0.2,2C50.6,2.5,48.9,2.8,47.3,3.1z M63.4,2.2c-1.6-0.1-3.3-0.2-5-0.2c-0.5,0-0.9,0-1.4,0l0-2
				c0.5,0,1,0,1.5,0c1.7,0,3.4,0.1,5.1,0.2L63.4,2.2z"/>
		</g>
	</g>
</g>
</svg>
