<?xml version="1.0" encoding="utf-8"?>
<!-- Generator: Adobe Illustrator 25.2.1, SVG Export Plug-In . SVG Version: 6.00 Build 0)  -->
<svg version="1.1" id="Layer_1" xmlns="http://www.w3.org/2000/svg" xmlns:xlink="http://www.w3.org/1999/xlink" x="0px" y="0px"
	 viewBox="0 0 117 117" style="enable-background:new 0 0 117 117;" xml:space="preserve">
<style type="text/css">
	.st0{fill:#D7A68D;}
</style>
<path class="st0" d="M101,33.1L101,33.1L101,33.1L101,33.1L101,33.1z M101,36.7L101,36.7L101,36.7L101,36.7L101,36.7z M97.4,36.7
	L97.4,36.7L97.4,36.7L97.4,36.7L97.4,36.7z M97.4,33.1L97.4,33.1L97.4,33.1L97.4,33.1L97.4,33.1z M70.3,7.8L70.3,7.8L70.3,7.8
	L70.3,7.8L70.3,7.8z M70.3,11.4L70.3,11.4L70.3,11.4L70.3,11.4L70.3,11.4z M66.7,7.8L66.7,7.8L66.7,7.8L66.7,7.8L66.7,7.8z
	 M66.7,11.4L66.7,11.4L66.7,11.4L66.7,11.4L66.7,11.4z M19.7,11.4L19.7,11.4L19.7,11.4L19.7,11.4L19.7,11.4z M19.7,15L19.7,15
	L19.7,15L19.7,15L19.7,15z M16.1,11.4L16.1,11.4L16.1,11.4L16.1,11.4L16.1,11.4z M16.1,15L16.1,15L16.1,15L16.1,15L16.1,15z
	 M76.8,47.5c0.5-0.4,0.8-0.6,1-0.9c3.2-2.8,4.2-7.1,2.7-11c-1.5-3.9-5.3-6.3-9.5-6.2c-4,0.1-7.5,2.7-8.9,6.7
	c-0.9,2.5-1.7,4.9-2.6,7.4c-0.1,0-0.2,0-0.3,0c-0.9-2.7-1.8-5.3-2.9-7.9c-1.5-3.8-5.1-6.1-9.2-6.1c-4,0-7.6,2.5-9,6.2
	c-1.4,3.7-0.5,7.9,2.5,10.7c0.4,0.3,0.7,0.7,1.3,1.2H25.2v16.2h4.5v37.9h59.6V63.8h4.4V47.5H76.8z M66,36.5c1.1-2.6,4.1-3.9,6.8-3.2
	c2.9,0.7,4.9,3.1,4.9,6c0,2.8-1.9,5.4-4.7,6c-3.5,0.7-7,1.2-10.8,1.9C63.5,43.4,64.6,39.9,66,36.5z M41.2,39.1
	c0.1-2.9,2.2-5.3,5-5.8c2.6-0.5,5.6,0.8,6.6,3.4c1.4,3.3,2.5,6.8,3.7,10.2c0,0.1,0,0.1-0.1,0.3c-3.6-0.6-7.2-1.1-10.8-1.9
	C42.9,44.5,41.1,41.8,41.2,39.1z M52.2,98.1H33.3V63.9h18.8V98.1z M52.2,60.2H28.8v-8.9h23.3V60.2z M63,98.1h-7.1V51.2H63V98.1z
	 M85.6,98.1H66.8V63.9h18.8V98.1z M90.1,60.1H66.7v-8.9h23.3V60.1z M99.2,6c-2.9,0-5.4,2.4-5.5,5.3c0,3,2.4,5.5,5.4,5.5
	c2.9,0,5.4-2.4,5.5-5.3C104.6,8.5,102.2,6,99.2,6z M99.1,13.2c-1,0-1.8-0.9-1.7-1.9c0-1,0.9-1.8,1.9-1.7c1,0.1,1.8,0.9,1.7,1.9
	C100.9,12.5,100.1,13.3,99.1,13.2z M14.3,72.9c-3,0-5.5,2.4-5.5,5.4c0,2.9,2.4,5.4,5.4,5.4c3,0,5.5-2.4,5.5-5.4
	C19.7,75.3,17.3,72.9,14.3,72.9z M14.3,80.1c-1,0-1.8-0.8-1.8-1.8c0-1,0.8-1.8,1.8-1.8c1,0,1.8,0.8,1.8,1.8
	C16.1,79.2,15.3,80.1,14.3,80.1z M66.7,7.8L66.7,7.8L66.7,7.8L66.7,7.8z M70.3,0.7v7.1h-3.6V0.7H70.3z M70.3,7.8L70.3,7.8L70.3,7.8
	L70.3,7.8z M16.1,11.4L16.1,11.4L16.1,11.4L16.1,11.4z M19.7,4.3v7.1h-3.6V4.3H19.7z M19.7,11.4L19.7,11.4L19.7,11.4L19.7,11.4z
	 M66.7,7.8v3.6h-7.1V7.8H66.7z M66.7,11.4L66.7,11.4L66.7,11.4L66.7,11.4z M66.7,7.8L66.7,7.8L66.7,7.8L66.7,7.8z M70.3,7.8
	L70.3,7.8L70.3,7.8L70.3,7.8z M70.3,11.4L70.3,11.4L70.3,11.4L70.3,11.4z M77.4,7.8v3.6h-7.1V7.8H77.4z M16.1,11.4V15H8.9v-3.6H16.1
	z M16.1,15L16.1,15L16.1,15L16.1,15z M16.1,11.4L16.1,11.4L16.1,11.4L16.1,11.4z M19.7,11.4L19.7,11.4L19.7,11.4L19.7,11.4z
	 M19.7,15L19.7,15L19.7,15L19.7,15z M26.8,11.4V15h-7.1v-3.6H26.8z M66.7,11.4L66.7,11.4L66.7,11.4L66.7,11.4z M70.3,11.4v7.1h-3.6
	v-7.1H70.3z M70.3,11.4L70.3,11.4L70.3,11.4L70.3,11.4z M16.1,15L16.1,15L16.1,15L16.1,15z M19.7,15.1v7.1h-3.6v-7.1H19.7z
	 M19.7,15.1L19.7,15.1L19.7,15.1L19.7,15.1z M97.4,33.1L97.4,33.1L97.4,33.1L97.4,33.1z M101,26v7.1h-3.6V26H101z M101,33.1
	L101,33.1L101,33.1L101,33.1z M97.4,33.1v3.6h-7.1v-3.6H97.4z M97.4,33.1L97.4,33.1L97.4,33.1L97.4,33.1z M97.4,36.7L97.4,36.7
	L97.4,36.7L97.4,36.7z M101,33.1L101,33.1L101,33.1L101,33.1z M101,36.7L101,36.7L101,36.7L101,36.7z M108.1,33.1v3.6H101v-3.6
	H108.1z M97.4,36.7L97.4,36.7L97.4,36.7L97.4,36.7z M101,36.7v7.1h-3.6v-7.1H101z M101,36.7L101,36.7L101,36.7L101,36.7z M46.7,16.9
	v3.5h-3.5v-3.5H46.7z M17.8,35v3.5h-3.5V35H17.8z M108.1,69.3v3.5h-3.4v-3.5H108.1z M66.7,11.4L66.7,11.4L66.7,11.4L66.7,11.4
	L66.7,11.4z M66.7,7.8L66.7,7.8L66.7,7.8L66.7,7.8L66.7,7.8z M70.3,11.4L70.3,11.4L70.3,11.4L70.3,11.4L70.3,11.4z M70.3,7.8
	L70.3,7.8L70.3,7.8L70.3,7.8L70.3,7.8z M16.1,15L16.1,15L16.1,15L16.1,15L16.1,15z M16.1,11.4L16.1,11.4L16.1,11.4L16.1,11.4
	L16.1,11.4z M19.7,15L19.7,15L19.7,15L19.7,15L19.7,15z M19.7,11.4L19.7,11.4L19.7,11.4L19.7,11.4L19.7,11.4z M97.4,33.1L97.4,33.1
	L97.4,33.1L97.4,33.1L97.4,33.1z M97.4,36.7L97.4,36.7L97.4,36.7L97.4,36.7L97.4,36.7z M101,36.7L101,36.7L101,36.7L101,36.7
	L101,36.7z M101,33.1L101,33.1L101,33.1L101,33.1L101,33.1z"/>
</svg>
