<svg id="Layer_1" data-name="Layer 1" xmlns="http://www.w3.org/2000/svg" viewBox="0 0 60.96 60.96"><defs><style>.cls-1{fill:#396582;}.cls-2{fill:#214762;}</style></defs><path class="cls-1" d="M11.41,31c.29-.66,1-1.4,1.59-.95a46.74,46.74,0,0,1,4.27-6.2c1.59,1.09,2.07,3.18,2.43,5.08l1.56,8.26c1.74-4.47,3.52-9,6.47-12.8a2.46,2.46,0,0,1,.79,1.89,6.15,6.15,0,0,1,4.15-3.12,15.31,15.31,0,0,1,1.09,7.11,27,27,0,0,1,20.3-3.62C53,33.44,46,37.58,40.29,40.66a47.17,47.17,0,0,0,6.1,2,9.3,9.3,0,0,1-4.33,2.73,19.83,19.83,0,0,1,6.2,1.9c-.07,0-8.89,3.64-10.68,3.56-4.49-.21-7.27-2.74-11.13-4.47.91,2.53,3.6,3.84,5.92,5.17s4.76,3.44,4.5,6.11l-6.28-1.11a2.4,2.4,0,0,1,1.8,1.95,34.72,34.72,0,0,1-5.2,0C20.4,57.77,17.11,54,14.59,48.29S8.5,37.67,11.41,31Z"/><path class="cls-2" d="M53.3,27.57a70.93,70.93,0,0,0-9.07,3.64c-3.06,1.37-6.09,2.82-9.11,4.3Q26,40,17.1,44.86c-1.65.91-3.28,1.83-4.93,2.72s-3.39,1.74-4.94,2.81c-.82.58,0,2,.94,1.49,1.46-.75,2.83-1.73,4.22-2.6s2.83-1.71,4.26-2.54q4.37-2.52,8.79-4.93c5.86-3.18,11.82-6.14,17.82-9,3.38-1.63,6.87-3.09,10.1-5,.09-.06.06-.23-.06-.2Z"/><path class="cls-2" d="M40.84,29.68a25.48,25.48,0,0,0-1.76,4.14.4.4,0,0,0,.75.28,25.79,25.79,0,0,0,1.35-4.29.18.18,0,0,0-.34-.13Z"/><path class="cls-2" d="M45.3,35.15a18.61,18.61,0,0,1-5.6-1.47c-.46-.24-.79.6-.29.74a16.79,16.79,0,0,0,5.9,1c.16,0,.13-.25,0-.27Z"/><path class="cls-2" d="M29.86,28.68a37.72,37.72,0,0,0-2.06,6,52.27,52.27,0,0,0-1.54,6c-.14.83,1.13.93,1.29.12.38-2,.59-4.08,1-6.11s1.07-4,1.44-6c0-.09-.11-.11-.15,0Z"/><path class="cls-2" d="M37.11,45a13.06,13.06,0,0,0-2.32-1.28c-.87-.45-1.75-.87-2.64-1.28-1.78-.82-3.6-1.53-5.34-2.44-.8-.42-1.36,1.09-.31,1.31a32.26,32.26,0,0,1,5.38,1.85c.84.35,1.69.71,2.53,1.08a18.14,18.14,0,0,0,2.52,1.1.19.19,0,0,0,.18-.34Z"/><path class="cls-2" d="M14.84,31.72c-1.55,4.66,3.25,8.43,3.05,13,0,.86,1.33.95,1.3.12a15.42,15.42,0,0,0-2.09-6.36c-1-2.08-2.12-4.22-1.73-6.62a.28.28,0,0,0-.53-.13Z"/><path class="cls-2" d="M25.92,53.09c-1.34-1.24-2.7-2.43-3.93-3.79-.55-.61-1.08-1.25-1.58-1.91s-1-1.58-1.62-2.28a.68.68,0,0,0-1.13.71,17.34,17.34,0,0,0,3.52,4.35,19.58,19.58,0,0,0,4.37,3.43.32.32,0,0,0,.37-.51Z"/><path class="cls-2" d="M35.5,42a1.91,1.91,0,0,0-1.11.25,2.46,2.46,0,0,0-1,.76.48.48,0,0,0,.69.64c.29-.2.5-.54.78-.77a5.28,5.28,0,0,0,.75-.67c.07-.08,0-.19-.1-.21Z"/><path class="cls-2" d="M34.6,46.1a6.87,6.87,0,0,0-.31-1.91.26.26,0,0,0-.52.09,7.22,7.22,0,0,0,.48,1.88c.07.16.35.14.35-.06Z"/><path class="cls-2" d="M30.85,32a3,3,0,0,0-2.47.15.35.35,0,0,0,.28.62c.36-.11.68-.3,1-.41a5.33,5.33,0,0,1,1.14-.2c.08,0,.09-.13,0-.16Z"/><path class="cls-2" d="M27.19,30.34a10.18,10.18,0,0,0,.9,2.3c.25.4.81,0,.66-.41a5.82,5.82,0,0,0-.62-1c-.23-.35-.47-.68-.71-1-.1-.13-.27,0-.23.14Z"/><path class="cls-2" d="M18,33c-.81.64-1.69,1.18-2.5,1.81a.42.42,0,0,0,.44.7,7.61,7.61,0,0,0,2.39-2.2A.23.23,0,0,0,18,33Z"/><path class="cls-2" d="M13.27,34.34a3.35,3.35,0,0,1,1.74.94c.26.27.64-.17.34-.37a5.43,5.43,0,0,0-2-.84c-.17,0-.19.23,0,.27Z"/><path class="cls-2" d="M26.67,50.73a3,3,0,0,0-1.34-.07,9.84,9.84,0,0,0-1.72.18c-.39.09-.43.77,0,.75a8.86,8.86,0,0,0,1.69-.26,3.22,3.22,0,0,0,1.36-.45.09.09,0,0,0,0-.15Z"/><path class="cls-2" d="M23.25,51.14a8.2,8.2,0,0,0-.62,2.75c0,.46.66.68.82.19a8.58,8.58,0,0,0,.36-2.81.29.29,0,0,0-.56-.13Z"/><path class="cls-1" d="M22.76,8.5c2-2,4.33-3.66,5.7-6.1,0,.75,0,1.5,0,2.26a2.1,2.1,0,0,1,1.21-1.13,28.13,28.13,0,0,1,.42,8.29C28.76,25,13.55,17.82,22.76,8.5Z"/></svg>