<svg id="Layer_1" data-name="Layer 1" xmlns="http://www.w3.org/2000/svg" viewBox="0 0 110.16 110.16"><defs><style>.cls-1{fill:#396582;}.cls-2{fill:#214762;}</style></defs><path class="cls-1" d="M20,51.15c.48-1.1,1.73-2.35,2.66-1.59a80.61,80.61,0,0,1,7.16-10.4c2.68,1.82,3.49,5.33,4.09,8.51l2.61,13.86c2.92-7.5,5.91-15.12,10.85-21.46a4.05,4.05,0,0,1,1.32,3.17,10.28,10.28,0,0,1,7-5.23A25.46,25.46,0,0,1,57.5,49.93a45.28,45.28,0,0,1,34.05-6.07C89.77,55.32,78,62.27,68.46,67.44a79.74,79.74,0,0,0,10.23,3.31,15.63,15.63,0,0,1-7.26,4.59,33.47,33.47,0,0,1,10.39,3.17c-.11-.05-14.91,6.12-17.91,6C56.38,84.14,51.73,79.9,45.25,77c1.52,4.23,6,6.43,9.93,8.66s8,5.78,7.54,10.25L52.2,94.05a4,4,0,0,1,3,3.27,58.89,58.89,0,0,1-8.71-.06c-11.39-1.12-16.91-7.46-21.13-17S15.14,62.43,20,51.15Z"/><path class="cls-2" d="M90.28,45.48a121,121,0,0,0-15.21,6.1c-5.14,2.31-10.22,4.73-15.28,7.21q-15.28,7.5-30.23,15.69c-2.76,1.52-5.5,3.06-8.26,4.57A88.75,88.75,0,0,0,13,83.76c-1.39,1,.07,3.25,1.56,2.49,2.46-1.26,4.75-2.9,7.09-4.36s4.74-2.87,7.14-4.26q7.32-4.23,14.75-8.27C53.38,64,63.38,59.07,73.44,54.21,79.11,51.47,85,49,90.38,45.81c.15-.09.1-.38-.1-.33Z"/><path class="cls-2" d="M69.38,49c-1,2.22-2.38,4.56-2.95,6.93a.67.67,0,0,0,1.25.48c1.11-2.17,1.57-4.86,2.26-7.2a.3.3,0,0,0-.56-.21Z"/><path class="cls-2" d="M76.86,58.19c-3.22-.53-6.46-1-9.4-2.47-.76-.39-1.32,1-.48,1.26,3.23.93,6.49,1.91,9.9,1.66.27,0,.22-.41,0-.45Z"/><path class="cls-2" d="M51,47.35a63,63,0,0,0-3.46,10.13,87.64,87.64,0,0,0-2.58,10.05c-.23,1.39,1.9,1.57,2.16.21.64-3.4,1-6.85,1.71-10.26s1.8-6.69,2.41-10.07c0-.16-.18-.18-.24-.06Z"/><path class="cls-2" d="M63.13,74.71a22.65,22.65,0,0,0-3.89-2.15q-2.19-1.11-4.43-2.15c-3-1.37-6.05-2.56-9-4.08-1.35-.71-2.29,1.82-.52,2.2a53.35,53.35,0,0,1,9,3.09c1.42.59,2.84,1.19,4.25,1.82a32.08,32.08,0,0,0,4.22,1.84.33.33,0,0,0,.31-.57Z"/><path class="cls-2" d="M25.78,52.44c-2.6,7.82,5.45,14.14,5.11,21.78-.07,1.44,2.23,1.6,2.19.22-.14-3.86-1.8-7.29-3.51-10.68S26,56.68,26.66,52.65a.46.46,0,0,0-.88-.21Z"/><path class="cls-2" d="M44.35,88.28c-2.24-2.08-4.52-4.08-6.58-6.36-.93-1-1.81-2.09-2.65-3.2s-1.7-2.65-2.71-3.82a1.14,1.14,0,0,0-1.9,1.19c1.31,2.72,3.78,5.19,5.89,7.3a33.47,33.47,0,0,0,7.34,5.75.53.53,0,0,0,.61-.86Z"/><path class="cls-2" d="M60.43,69.71a3.19,3.19,0,0,0-1.86.42,4.24,4.24,0,0,0-1.7,1.27A.8.8,0,0,0,58,72.49c.49-.35.84-.92,1.31-1.31a7.83,7.83,0,0,0,1.26-1.11.23.23,0,0,0-.16-.36Z"/><path class="cls-2" d="M58.92,76.56a12.11,12.11,0,0,0-.53-3.21.44.44,0,0,0-.87.15,12.22,12.22,0,0,0,.8,3.16c.13.27.6.22.6-.1Z"/><path class="cls-2" d="M52.63,52.88a5,5,0,0,0-4.14.26.58.58,0,0,0,.47,1c.6-.17,1.13-.49,1.73-.67a8.33,8.33,0,0,1,1.91-.34.14.14,0,0,0,0-.27Z"/><path class="cls-2" d="M46.49,50.13A17.39,17.39,0,0,0,48,54c.42.66,1.35,0,1.1-.69a10,10,0,0,0-1-1.71c-.38-.57-.79-1.13-1.19-1.7-.16-.22-.46,0-.38.24Z"/><path class="cls-2" d="M31,54.62c-1.35,1.08-2.83,2-4.19,3-.62.48,0,1.56.74,1.18a13.05,13.05,0,0,0,4-3.68c.27-.36-.22-.79-.56-.53Z"/><path class="cls-2" d="M23.15,56.83a5.75,5.75,0,0,1,2.91,1.58c.45.46,1.08-.28.58-.62a9.23,9.23,0,0,0-3.45-1.41c-.29-.06-.32.39,0,.45Z"/><path class="cls-2" d="M45.62,84.33a5,5,0,0,0-2.25-.12,16.37,16.37,0,0,0-2.89.29c-.65.16-.72,1.29.05,1.27a16.29,16.29,0,0,0,2.84-.45,5.44,5.44,0,0,0,2.29-.75.15.15,0,0,0,0-.24Z"/><path class="cls-2" d="M39.88,85a14.12,14.12,0,0,0-1.05,4.61c0,.77,1.12,1.14,1.38.33a14.22,14.22,0,0,0,.6-4.72.48.48,0,0,0-.93-.22Z"/><path class="cls-1" d="M39.07,13.51c3.29-3.34,7.25-6.16,9.55-10.24,0,1.26,0,2.52,0,3.78a3.53,3.53,0,0,1,2-1.89,46.72,46.72,0,0,1,.7,13.91C49.11,41.17,23.61,29.13,39.07,13.51Z"/></svg>