<svg id="Layer_1" data-name="Layer 1" xmlns="http://www.w3.org/2000/svg" viewBox="0 0 60.96 60.96"><defs><style>.cls-1{fill:#396582;}.cls-2{fill:#214762;}</style></defs><path class="cls-1" d="M36.58,52.46c-.79.2-2,.06-1.95-.75a53.39,53.39,0,0,1-8.47.53C26,50.07,27.53,48.18,29,46.55l6.24-7.13C30,41,24.76,42.56,19.36,42.58a2.72,2.72,0,0,1,1.13-2,7,7,0,0,1-5.66-1.51,17.11,17.11,0,0,1,5.55-5.92A30.4,30.4,0,0,1,3,17.65c6.8-3.81,15.36-.47,22.05,2.43A54.48,54.48,0,0,0,22.6,13.3,10.56,10.56,0,0,1,28,15.23a22.24,22.24,0,0,1-2.63-6.81c0,.08,9.42,5.35,10.59,7,2.93,4.12,2.62,8.34,3.78,13,1.6-2.56.9-5.86.46-8.85S40,12.93,42.53,11.3l3.39,6.34a2.68,2.68,0,0,1,.48-3A40.09,40.09,0,0,1,50,19.33c4.13,6.49,3.07,12-.24,18.24S44.56,50.36,36.58,52.46Z"/><path class="cls-2" d="M4.43,17.65A80.57,80.57,0,0,0,14,23.17c3.36,1.76,6.75,3.44,10.16,5.09C31,31.57,37.93,34.75,45,37.73c1.94.83,3.9,1.64,5.84,2.48a58.5,58.5,0,0,0,5.93,2.42c1.08.34,1.69-1.39.67-1.86-1.69-.78-3.51-1.3-5.25-1.94s-3.49-1.31-5.22-2q-5.26-2.12-10.49-4.37c-6.9-3-13.67-6.21-20.41-9.51C12.23,21.07,8.5,19,4.56,17.46c-.11,0-.25.11-.13.19Z"/><path class="cls-2" d="M15,27.23a28.88,28.88,0,0,0,4.89-1.31.45.45,0,0,0-.26-.86,27.86,27.86,0,0,0-4.75,1.79.2.2,0,0,0,.12.38Z"/><path class="cls-2" d="M16.72,19.48a21,21,0,0,1,2.59,6c.11.57,1.08.28.86-.27A19,19,0,0,0,17,19.28c-.12-.13-.31,0-.23.2Z"/><path class="cls-2" d="M21.72,37.67a42.51,42.51,0,0,0,6.8-2.38,59.45,59.45,0,0,0,6.39-2.8c.82-.46,0-1.66-.79-1.23-2.07,1.07-4,2.32-6.14,3.35s-4.28,1.83-6.33,2.9c-.09.05,0,.18.07.16Z"/><path class="cls-2" d="M31.15,19.88a14.08,14.08,0,0,0,.48,2.95c.21,1.09.44,2.16.7,3.24.51,2.15,1.15,4.26,1.56,6.43.18,1,1.91.45,1.38-.64a35.52,35.52,0,0,1-2.11-6.05c-.28-1-.55-2-.8-3a21.66,21.66,0,0,0-.78-3,.22.22,0,0,0-.43.07Z"/><path class="cls-2" d="M34.87,48.88c5.21-1.87,5.21-8.75,9.4-11.74.79-.56-.09-1.84-.8-1.25-2,1.68-3.1,4-4.19,6.29S37,47,34.61,48.33c-.3.16-.06.66.26.55Z"/><path class="cls-2" d="M46.12,24.18c-.17,2.05-.28,4.09-.63,6.12q-.24,1.38-.6,2.73c-.26,1-.69,2-.89,3a.76.76,0,0,0,1.41.51,19.56,19.56,0,0,0,1.42-6.14,22.7,22.7,0,0,0,0-6.27.36.36,0,0,0-.71,0Z"/><path class="cls-2" d="M29.63,23.39a2.19,2.19,0,0,0,1,.81,2.94,2.94,0,0,0,1.38.37.54.54,0,0,0,.09-1.06,12.16,12.16,0,0,0-1.23-.15,5.18,5.18,0,0,0-1.11-.21.16.16,0,0,0-.12.24Z"/><path class="cls-2" d="M33.88,21.34A8.43,8.43,0,0,0,32.39,23c-.23.3.18.69.44.4a8.12,8.12,0,0,0,1.35-1.74c.09-.17-.13-.4-.3-.27Z"/><path class="cls-2" d="M24,34.49a3.37,3.37,0,0,0,1.85,2.09.4.4,0,0,0,.35-.68c-.34-.24-.73-.39-1.08-.63a6.18,6.18,0,0,1-1-.88c-.06-.07-.18,0-.15.1Z"/><path class="cls-2" d="M25.06,38.88a11.36,11.36,0,0,0,1.41-2.4c.17-.49-.58-.7-.82-.29a6.29,6.29,0,0,0-.47,1.25c-.15.45-.28.89-.41,1.34-.05.18.2.24.29.1Z"/><path class="cls-2" d="M33.85,45.2c1.13.27,2.21.68,3.34,1a.47.47,0,0,0,.31-.88,8.68,8.68,0,0,0-3.61-.59.26.26,0,0,0,0,.51Z"/><path class="cls-2" d="M38.28,48.45a3.89,3.89,0,0,1-.37-2.2c.06-.42-.6-.45-.57,0A6.3,6.3,0,0,0,38,48.61c.1.18.35,0,.26-.16Z"/><path class="cls-2" d="M43.5,25.15a3.49,3.49,0,0,0,.87,1.25,10.58,10.58,0,0,0,1.36,1.4c.35.28,1-.15.65-.55A11.1,11.1,0,0,0,45,25.93a3.77,3.77,0,0,0-1.34-.9.1.1,0,0,0-.12.12Z"/><path class="cls-2" d="M46.25,27.91a9.83,9.83,0,0,0,2.87-1.36c.41-.31.14-1.06-.4-.87A9.6,9.6,0,0,0,46,27.32a.33.33,0,0,0,.28.59Z"/></svg>