<svg id="Layer_1" data-name="Layer 1" xmlns="http://www.w3.org/2000/svg" viewBox="0 0 110.16 110.16"><defs><style>.cls-1{fill:#396582;}.cls-2{fill:#214762;}</style></defs><path class="cls-1" d="M64.74,89.89c-1.25.32-3.11.1-3.09-1.18a84.75,84.75,0,0,1-13.41.83c-.23-3.43,2.17-6.42,4.44-9l9.89-11.3c-8.2,2.48-16.54,5-25.11,5a4.35,4.35,0,0,1,1.79-3.19,11,11,0,0,1-9-2.4,27.26,27.26,0,0,1,8.79-9.36A48.22,48.22,0,0,1,11.62,34.76c10.77-6,24.34-.74,34.93,3.85A87.57,87.57,0,0,0,42.6,27.86a16.87,16.87,0,0,1,8.62,3.07A35.48,35.48,0,0,1,47,20.14c0,.14,14.92,8.47,16.78,11.08,4.65,6.53,4.16,13.22,6,20.55,2.54-4.05,1.42-9.27.73-14s-.41-10.48,3.63-13q2.68,5,5.36,10a4.27,4.27,0,0,1,.76-4.67A60.85,60.85,0,0,1,86,37.42c6.55,10.28,4.87,19.06-.38,28.89S77.39,86.57,64.74,89.89Z"/><path class="cls-2" d="M13.82,34.76a126.58,126.58,0,0,0,15.1,8.74C34.23,46.29,39.6,49,45,51.56c10.88,5.25,21.89,10.28,33,15,3.08,1.31,6.17,2.6,9.25,3.92a97.84,97.84,0,0,0,9.39,3.84c1.71.53,2.68-2.2,1.06-3C95,70.15,92.16,69.31,89.4,68.3s-5.52-2.08-8.26-3.18q-8.36-3.35-16.62-6.92C53.6,53.49,42.87,48.37,32.19,43.13c-6-3-11.92-6.23-18.16-8.67-.18-.06-.39.17-.21.3Z"/><path class="cls-2" d="M30.52,49.94c2.51-.63,5.39-1,7.75-2.08a.72.72,0,0,0-.43-1.37c-2.55.5-5.1,1.88-7.51,2.84a.32.32,0,0,0,.19.61Z"/><path class="cls-2" d="M33.28,37.65c1.67,3,3.44,6,4.11,9.5.17.9,1.71.44,1.36-.43-1.33-3.32-2.66-6.69-5.1-9.38-.2-.21-.49.09-.37.31Z"/><path class="cls-2" d="M41.21,66.47A67,67,0,0,0,52,62.7a92.9,92.9,0,0,0,10.12-4.44c1.31-.72.06-2.62-1.24-1.94-3.28,1.7-6.4,3.67-9.72,5.3s-6.79,2.89-10,4.6c-.15.08,0,.28.11.25Z"/><path class="cls-2" d="M56.14,38.29A24,24,0,0,0,56.89,43q.53,2.56,1.12,5.12c.81,3.41,1.82,6.75,2.46,10.2.3,1.58,3,.71,2.19-1a56.88,56.88,0,0,1-3.33-9.58c-.45-1.58-.87-3.17-1.28-4.76a33.45,33.45,0,0,0-1.23-4.75.35.35,0,0,0-.68.11Z"/><path class="cls-2" d="M62,84.22c8.25-3,8.26-13.86,14.89-18.59,1.25-.9-.14-2.92-1.26-2-3.14,2.65-4.92,6.3-6.64,10s-3.6,7.63-7.39,9.73a.49.49,0,0,0,.4.88Z"/><path class="cls-2" d="M79.85,45.11c-.27,3.24-.45,6.47-1,9.69-.26,1.45-.57,2.9-.94,4.33-.42,1.59-1.1,3.16-1.42,4.78a1.2,1.2,0,0,0,2.24.8C80.15,61.83,80.59,58.14,81,55a35.45,35.45,0,0,0,0-9.92.56.56,0,0,0-1.12,0Z"/><path class="cls-2" d="M53.73,43.85a3.47,3.47,0,0,0,1.57,1.28,4.49,4.49,0,0,0,2.19.59A.85.85,0,0,0,57.64,44c-.62-.19-1.32-.11-2-.24a8.85,8.85,0,0,0-1.75-.33.25.25,0,0,0-.2.38Z"/><path class="cls-2" d="M60.46,40.6a13,13,0,0,0-2.35,2.56c-.37.47.29,1.09.7.63A12.9,12.9,0,0,0,60.94,41c.14-.28-.21-.64-.48-.44Z"/><path class="cls-2" d="M44.75,61.44a5.38,5.38,0,0,0,2.94,3.3.62.62,0,0,0,.55-1.07c-.54-.39-1.16-.63-1.71-1A9.1,9.1,0,0,1,45,61.28c-.1-.11-.3,0-.25.16Z"/><path class="cls-2" d="M46.49,68.39a19,19,0,0,0,2.24-3.8c.27-.79-.92-1.11-1.31-.47a10.55,10.55,0,0,0-.74,2c-.24.7-.44,1.41-.65,2.11-.08.29.32.38.46.17Z"/><path class="cls-2" d="M60.42,78.39c1.78.43,3.51,1.08,5.28,1.53.81.2,1.29-1,.5-1.39a13.71,13.71,0,0,0-5.71-1,.41.41,0,0,0-.07.81Z"/><path class="cls-2" d="M67.44,83.54a6.07,6.07,0,0,1-.59-3.48c.09-.67-.95-.72-.9-.08A9.81,9.81,0,0,0,67,83.8c.15.28.54,0,.41-.26Z"/><path class="cls-2" d="M75.71,46.65a5.4,5.4,0,0,0,1.37,2,18.14,18.14,0,0,0,2.15,2.23c.56.44,1.55-.25,1-.88A17,17,0,0,0,78,47.88a5.85,5.85,0,0,0-2.13-1.43.16.16,0,0,0-.18.2Z"/><path class="cls-2" d="M80.05,51a15.35,15.35,0,0,0,4.55-2.16c.66-.48.22-1.68-.63-1.37a15.14,15.14,0,0,0-4.35,2.6.52.52,0,0,0,.43.93Z"/></svg>