<svg id="Layer_1" data-name="Layer 1" xmlns="http://www.w3.org/2000/svg" viewBox="0 0 199.46 199.46"><defs><style>.cls-1{fill:#582957;}</style></defs><path class="cls-1" d="M140.72,99.89c-.1,20.15-16.72,36.46-37.13,36.44C83.84,136.28,67.91,119.61,67.94,99c0-19.4,16.53-35.76,36-35.73A36.29,36.29,0,0,1,140.72,99.89ZM191.47,40c0-6.35-5.11-11.48-12.32-7.38-15.22,8.62-23.77,21.24-24,39-.12,11.86,0,23.75,0,35.61,0,7.38,2.93,10.47,10.37,10.7,3.94.12,7.89,0,12.49,0v4.76c0,12.39,0,24.78,0,37.14,0,5.09,2.93,8.65,6.77,8.53,3.6-.13,6.45-3.82,6.45-8.47C191.32,119.94,191.19,80,191.47,40ZM62.17,68.5C59.84,57.3,57.39,46.1,54.63,35c-.35-1.54-2.52-2.63-3.86-3.92a40,40,0,0,0-3.44,4.53c-.43.78-.11,2-.11,3q0,14.14,0,28.32c0,1.57.58,3.47-2.07,3.65s-2.74-1.6-2.94-3.47C41,56.59,39.82,46.1,38.7,35.58c-.25-2.23-.68-4.23-3.28-4.35-3-.15-2.91,2.35-3.14,4.32C31.07,45.67,30,55.81,28.66,65.92c-.22,1.87.46,4.83-3.06,4.61s-2.12-3-2.15-4.68c-.12-9.94-.1-19.9-.12-29.87,0-2.38-.81-4.55-3.42-4.75s-3.61,1.62-4.14,4.07c-2.41,11.2-5.14,22.35-7.39,33.58A20.33,20.33,0,0,0,25.5,92.8c2.71.38,3.34,1.45,3.32,3.92-.11,10.73,0,21.45,0,32.17s.05,21.7,0,32.52c0,3.69,2.13,5.77,5.19,6.73,3.36,1.06,5.66-1.14,7.13-3.79a10,10,0,0,0,.81-4.78c0-20.82,0-41.6,0-62.42,0-2-.43-4,2.78-4.32A19.57,19.57,0,0,0,62.15,76.09,21.28,21.28,0,0,0,62.17,68.5Zm84.49,50.12c-10.72,19.63-27.26,30.7-50.7,26.18C71.5,140.07,59.46,123.45,57.67,99c-6,1.74-6,1.74-6,7.38,0,8.93-.1,17.85.1,26.78a10.4,10.4,0,0,0,1.82,5.56c22.05,30,67.55,33.56,95,7.41a55.06,55.06,0,0,0,12.62-17.24C156,125.3,151.39,122,146.66,118.62Zm-1.57-68.33c-.86-.53-1.62-1.23-2.43-1.84-20.78-15.81-50.6-17-72.47-2.83-1,.63-2.3,2.15-2.15,3,1,5.81,2.4,11.58,3.84,18.1C83.59,56,96.84,51.81,111.58,54s25.82,10.78,33.36,23.37c.88-6.75,1.34-13.35,2.76-19.75C148.48,54.16,148,52.07,145.09,50.29Z"/></svg>