<svg id="Layer_1" data-name="Layer 1" xmlns="http://www.w3.org/2000/svg" viewBox="0 0 199.46 199.46"><defs><style>.cls-1{fill:#582957;}</style></defs><path class="cls-1" d="M155.36,73.78c-6.28-3.15-13.45-4.52-21-6.92,3,7.65,5.63,13.76,7.62,20.06,1.06,3.29,2.45,5.55,5.52,7.4,16.1,9.54,23.21,27.28,18.25,44.69s-20.48,28.76-39,28.65c-16.79-.11-31.69-11.41-36.74-27.84-5-16.24.89-34,14.42-43.41a44.81,44.81,0,0,1,4.44-2.32c.47,1.12.78,1.65,1,2.23,3.51,12.34.14,23.24-6.89,33.43-1,1.5-2.1,3.76-1.73,5.33a23.15,23.15,0,0,0,11.63,15.68c15-13.54,21.57-30.39,19.73-50.11C130,72.75,113.93,55.34,87.71,46c3.57-7.17,7-13.89,10.21-20.75.61-1.32,1-3.8.33-4.5-5.08-5-9.34-11.3-18.19-9.84a48.62,48.62,0,0,1-13.47,0c-7.9-1-13.93,1.29-19.11,7.51C45.13,21.28,44.77,23,46.39,26c3.46,6.39,6.5,13,10,20.09C54,47,52.5,47.61,50.94,48.2,27.72,57,11.46,78.94,10.68,102.66c-1.23,35.49,26,63.66,61.54,63.44,5.25,0,9.1,1,13,5,19.69,20.37,53.59,23.47,77,7.45C200.5,152.43,196.82,94.51,155.36,73.78Zm-87,70c-14,1.62-29.13-11.5-33.7-24.52a39.48,39.48,0,0,1,17.83-48c14-7.89,35.62-5.16,43.69,4.83C71.89,92.42,62.63,115.07,68.4,143.81Z"/></svg>