<svg id="Layer_1" data-name="Layer 1" xmlns="http://www.w3.org/2000/svg" viewBox="0 0 1366 644"><defs><style>.cls-1{fill:#582957;}.cls-2{fill:none;}.cls-2,.cls-3{stroke:#582957;stroke-miterlimit:10;stroke-width:5px;}.cls-3{fill:#fff;}.cls-4{fill:#333533;}.cls-5{fill:#d7a68d;}</style></defs><polygon class="cls-1" points="215.34 449.83 215.25 447.83 215.44 447.83 215.34 449.83"/><polygon class="cls-1" points="215.09 443.95 214.95 440.07 215.73 440.07 215.59 443.95 215.09 443.95"/><polygon class="cls-1" points="214.82 436.19 214.72 432.31 215.96 432.31 215.86 436.19 214.82 436.19"/><polygon class="cls-1" points="214.63 428.43 214.56 424.55 216.12 424.55 216.05 428.43 214.63 428.43"/><polygon class="cls-1" points="214.49 420.67 214.45 416.79 216.23 416.79 216.19 420.67 214.49 420.67"/><polygon class="cls-1" points="214.41 412.91 214.38 409.03 216.3 409.03 216.27 412.91 214.41 412.91"/><polygon class="cls-1" points="214.36 405.15 214.35 401.27 216.33 401.27 216.32 405.15 214.36 405.15"/><polygon class="cls-1" points="214.35 397.39 214.36 393.51 216.32 393.51 216.33 397.39 214.35 397.39"/><polygon class="cls-1" points="214.38 389.63 214.4 385.75 216.28 385.75 216.31 389.63 214.38 389.63"/><polygon class="cls-1" points="214.45 381.87 214.49 377.99 216.19 377.99 216.23 381.87 214.45 381.87"/><polygon class="cls-1" points="214.56 374.11 214.63 370.23 216.05 370.23 216.12 374.11 214.56 374.11"/><polygon class="cls-1" points="214.72 366.35 214.82 362.47 215.86 362.47 215.96 366.35 214.72 366.35"/><polygon class="cls-1" points="214.95 358.59 215.09 354.71 215.59 354.71 215.73 358.59 214.95 358.59"/><polygon class="cls-1" points="215.25 350.83 215.34 348.83 215.44 350.83 215.25 350.83"/><polygon class="cls-1" points="528.67 449.83 528.58 447.83 528.77 447.83 528.67 449.83"/><polygon class="cls-1" points="528.42 443.95 528.29 440.07 529.06 440.07 528.92 443.95 528.42 443.95"/><polygon class="cls-1" points="528.16 436.19 528.06 432.31 529.29 432.31 529.19 436.19 528.16 436.19"/><polygon class="cls-1" points="527.97 428.43 527.9 424.55 529.45 424.55 529.38 428.43 527.97 428.43"/><polygon class="cls-1" points="527.83 420.67 527.78 416.79 529.56 416.79 529.52 420.67 527.83 420.67"/><polygon class="cls-1" points="527.74 412.91 527.71 409.03 529.64 409.03 529.61 412.91 527.74 412.91"/><polygon class="cls-1" points="527.7 405.15 527.68 401.27 529.67 401.27 529.65 405.15 527.7 405.15"/><polygon class="cls-1" points="527.68 397.39 527.7 393.51 529.65 393.51 529.67 397.39 527.68 397.39"/><polygon class="cls-1" points="527.71 389.63 527.74 385.75 529.61 385.75 529.64 389.63 527.71 389.63"/><polygon class="cls-1" points="527.78 381.87 527.82 377.99 529.52 377.99 529.57 381.87 527.78 381.87"/><polygon class="cls-1" points="527.89 374.11 527.97 370.23 529.38 370.23 529.46 374.11 527.89 374.11"/><polygon class="cls-1" points="528.05 366.35 528.15 362.47 529.19 362.47 529.29 366.35 528.05 366.35"/><polygon class="cls-1" points="528.29 358.59 528.42 354.71 528.92 354.71 529.06 358.59 528.29 358.59"/><polygon class="cls-1" points="528.58 350.83 528.67 348.83 528.77 350.83 528.58 350.83"/><polygon class="cls-1" points="842.01 449.83 841.91 447.83 842.1 447.83 842.01 449.83"/><polygon class="cls-1" points="841.76 443.95 841.62 440.07 842.39 440.07 842.25 443.95 841.76 443.95"/><polygon class="cls-1" points="841.49 436.19 841.39 432.31 842.62 432.31 842.52 436.19 841.49 436.19"/><polygon class="cls-1" points="841.3 428.43 841.23 424.55 842.78 424.55 842.71 428.43 841.3 428.43"/><polygon class="cls-1" points="841.16 420.67 841.12 416.79 842.9 416.79 842.85 420.67 841.16 420.67"/><polygon class="cls-1" points="841.07 412.91 841.04 409.03 842.97 409.03 842.94 412.91 841.07 412.91"/><polygon class="cls-1" points="841.03 405.15 841.01 401.27 843 401.27 842.99 405.15 841.03 405.15"/><polygon class="cls-1" points="841.01 397.39 841.03 393.51 842.99 393.51 843 397.39 841.01 397.39"/><polygon class="cls-1" points="841.04 389.63 841.07 385.75 842.94 385.75 842.97 389.63 841.04 389.63"/><polygon class="cls-1" points="841.11 381.87 841.16 377.99 842.86 377.99 842.9 381.87 841.11 381.87"/><polygon class="cls-1" points="841.23 374.11 841.3 370.23 842.72 370.23 842.79 374.11 841.23 374.11"/><polygon class="cls-1" points="841.39 366.35 841.49 362.47 842.53 362.47 842.63 366.35 841.39 366.35"/><polygon class="cls-1" points="841.62 358.59 841.76 354.71 842.26 354.71 842.39 358.59 841.62 358.59"/><polygon class="cls-1" points="841.91 350.83 842.01 348.83 842.1 350.83 841.91 350.83"/><polygon class="cls-1" points="1155.34 348.83 1155.43 350.83 1155.24 350.83 1155.34 348.83"/><polygon class="cls-1" points="1155.59 354.71 1155.73 358.59 1154.95 358.59 1155.09 354.71 1155.59 354.71"/><polygon class="cls-1" points="1155.86 362.47 1155.96 366.35 1154.72 366.35 1154.82 362.47 1155.86 362.47"/><polygon class="cls-1" points="1156.05 370.23 1156.12 374.11 1154.56 374.11 1154.63 370.23 1156.05 370.23"/><polygon class="cls-1" points="1156.19 377.99 1156.23 381.87 1154.45 381.87 1154.49 377.99 1156.19 377.99"/><polygon class="cls-1" points="1156.27 385.75 1156.3 389.63 1154.38 389.63 1154.41 385.75 1156.27 385.75"/><polygon class="cls-1" points="1156.32 393.51 1156.33 397.39 1154.35 397.39 1154.36 393.51 1156.32 393.51"/><polygon class="cls-1" points="1156.33 401.27 1156.32 405.15 1154.36 405.15 1154.35 401.27 1156.33 401.27"/><polygon class="cls-1" points="1156.31 409.03 1156.28 412.91 1154.4 412.91 1154.38 409.03 1156.31 409.03"/><polygon class="cls-1" points="1156.23 416.79 1156.19 420.67 1154.49 420.67 1154.45 416.79 1156.23 416.79"/><polygon class="cls-1" points="1156.12 424.55 1156.05 428.43 1154.63 428.43 1154.56 424.55 1156.12 424.55"/><polygon class="cls-1" points="1155.96 432.31 1155.86 436.19 1154.82 436.19 1154.72 432.31 1155.96 432.31"/><polygon class="cls-1" points="1155.73 440.07 1155.59 443.95 1155.09 443.95 1154.95 440.07 1155.73 440.07"/><polygon class="cls-1" points="1155.44 447.83 1155.34 449.83 1155.24 447.83 1155.44 447.83"/><line class="cls-2" x1="202.34" y1="398.83" x2="1155.34" y2="398.83"/><circle class="cls-3" cx="215.34" cy="399.33" r="13"/><circle class="cls-3" cx="1155.34" cy="399.33" r="13"/><circle class="cls-3" cx="528.67" cy="399.33" r="13"/><circle class="cls-3" cx="842.01" cy="399.33" r="13"/><path class="cls-4" d="M159.34,491.55a11.92,11.92,0,0,1,.78-4.24,11.73,11.73,0,0,1,2.27-3.74,11.12,11.12,0,0,1,8.5-3.7,10.58,10.58,0,0,1,5.59,1.42A8.76,8.76,0,0,1,180,485l-3.46,2.41a5.41,5.41,0,0,0-1.55-2.08,6.12,6.12,0,0,0-2.06-1.09,7.47,7.47,0,0,0-2.13-.33,6.17,6.17,0,0,0-3,.69,6.4,6.4,0,0,0-2.11,1.82,8,8,0,0,0-1.27,2.5,9.35,9.35,0,0,0-.43,2.81,8.75,8.75,0,0,0,.5,2.95,7.75,7.75,0,0,0,1.4,2.54A6.62,6.62,0,0,0,168,499a6,6,0,0,0,2.78.65,6.84,6.84,0,0,0,2.18-.37,6.19,6.19,0,0,0,2.08-1.15,5.71,5.71,0,0,0,1.55-2.08l3.7,2.18a7.35,7.35,0,0,1-2.3,3,11.23,11.23,0,0,1-3.49,1.84,12.36,12.36,0,0,1-3.85.63,9.94,9.94,0,0,1-4.57-1,11.65,11.65,0,0,1-3.58-2.77,13,13,0,0,1-2.36-3.89A12,12,0,0,1,159.34,491.55Z"/><path class="cls-4" d="M199,503.47h-4.42v-9.56a4.67,4.67,0,0,0-.78-3,2.56,2.56,0,0,0-2.13-1,3.72,3.72,0,0,0-1.68.45,5.57,5.57,0,0,0-1.6,1.24,5.37,5.37,0,0,0-1.07,1.82v10H183V479.38h4.39v10.15A7.33,7.33,0,0,1,190,487a7.22,7.22,0,0,1,3.58-.91,6,6,0,0,1,2.76.55,4.07,4.07,0,0,1,1.65,1.53,7.15,7.15,0,0,1,.81,2.17,13.16,13.16,0,0,1,.23,2.43Z"/><path class="cls-4" d="M202.7,497.06V486.34h4.46v9.75a5,5,0,0,0,.72,3,2.51,2.51,0,0,0,2.15,1,4.64,4.64,0,0,0,1.7-.34,5.08,5.08,0,0,0,1.55-1,6,6,0,0,0,1.2-1.72V486.34h4.46v12.19a1.55,1.55,0,0,0,.23,1,1.09,1.09,0,0,0,.79.36v3.6l-1.11.15a8,8,0,0,1-.8.05,3.08,3.08,0,0,1-1.9-.56,2.26,2.26,0,0,1-.91-1.47l-.1-1.37a7.6,7.6,0,0,1-2.95,2.63,8.85,8.85,0,0,1-4,.9,5,5,0,0,1-4.08-1.72A7.8,7.8,0,0,1,202.7,497.06Z"/><path class="cls-4" d="M233.62,490a8.88,8.88,0,0,0-3.63.78,4.74,4.74,0,0,0-2.31,2.19v10.5h-4.39V486.34h4.06v3.53a7.69,7.69,0,0,1,2.36-2.8,5.77,5.77,0,0,1,3-1.13,2.53,2.53,0,0,0,.53,0,.85.85,0,0,1,.36.05Z"/><path class="cls-4" d="M243.89,503.8a9.75,9.75,0,0,1-3.82-.71,8.27,8.27,0,0,1-2.85-1.95,8.87,8.87,0,0,1-1.82-2.86,9.27,9.27,0,0,1-.62-3.36,9.12,9.12,0,0,1,1.09-4.41,8.29,8.29,0,0,1,3.13-3.23,9.43,9.43,0,0,1,4.85-1.2,9.06,9.06,0,0,1,4.82,1.22,7.55,7.55,0,0,1,3,3.2l-4.29,1.32a3.87,3.87,0,0,0-1.48-1.47,4.24,4.24,0,0,0-2.08-.51,4.2,4.2,0,0,0-2.25.63,4.62,4.62,0,0,0-1.63,1.76,5.57,5.57,0,0,0-.61,2.69,5.64,5.64,0,0,0,.61,2.66,4.7,4.7,0,0,0,1.63,1.81,4.36,4.36,0,0,0,3.8.38,4.64,4.64,0,0,0,1.27-.74,3.21,3.21,0,0,0,.84-1l4.29,1.32a7.08,7.08,0,0,1-1.73,2.31,8.45,8.45,0,0,1-2.68,1.6A9.81,9.81,0,0,1,243.89,503.8Z"/><path class="cls-4" d="M270.52,503.47h-4.43v-9.56a4.68,4.68,0,0,0-.77-3,2.56,2.56,0,0,0-2.13-1,3.72,3.72,0,0,0-1.68.45,5.54,5.54,0,0,0-2.68,3.06v10h-4.38V479.38h4.38v10.15a7.43,7.43,0,0,1,2.66-2.54,7.19,7.19,0,0,1,3.58-.91,6,6,0,0,1,2.76.55,4.07,4.07,0,0,1,1.65,1.53,7.15,7.15,0,0,1,.81,2.17,13.16,13.16,0,0,1,.23,2.43Z"/><path class="cls-4" d="M144.12,543v2H132.93v-2h4.69V528.87a3.67,3.67,0,0,1-.89.86,9,9,0,0,1-1.44.86,14.24,14.24,0,0,1-1.6.66,4.5,4.5,0,0,1-1.45.26v-2.18a3.87,3.87,0,0,0,1.65-.42,14.72,14.72,0,0,0,1.72-1,14.35,14.35,0,0,0,1.38-1.06,2.89,2.89,0,0,0,.63-.66h2.31V543Z"/><path class="cls-4" d="M146.3,545a12.81,12.81,0,0,1,.2-2.29,8.35,8.35,0,0,1,.75-2.28,8.19,8.19,0,0,1,1.65-2.19,12.79,12.79,0,0,1,2.88-2c.63-.33,1.29-.66,2-1a18.8,18.8,0,0,0,1.93-1.07,5.37,5.37,0,0,0,1.45-1.34,3,3,0,0,0,.54-1.78,3.2,3.2,0,0,0-.48-1.65,3.38,3.38,0,0,0-1.45-1.31,5.19,5.19,0,0,0-2.42-.51,5.77,5.77,0,0,0-1.92.3,6.51,6.51,0,0,0-1.52.74,9.32,9.32,0,0,0-1.12.89l-.76.75-1.42-1.56a10.15,10.15,0,0,1,.75-.71,11.46,11.46,0,0,1,1.48-1.07,9.73,9.73,0,0,1,2.15-1,8.68,8.68,0,0,1,2.72-.4,7.64,7.64,0,0,1,3.45.72,5.29,5.29,0,0,1,2.19,1.92,4.75,4.75,0,0,1,.76,2.6,4.54,4.54,0,0,1-.58,2.36A6.05,6.05,0,0,1,158,535a13,13,0,0,1-1.88,1.24c-.65.34-1.24.64-1.77.88a18.21,18.21,0,0,0-2.6,1.48,8.18,8.18,0,0,0-1.69,1.49,7,7,0,0,0-1,1.47,5.64,5.64,0,0,0-.48,1.49h11.81v2Z"/><path class="cls-4" d="M164.18,531.15v-3.23h1.92v3.23Zm0,13.89v-3.23h1.92V545Z"/><path class="cls-4" d="M181.64,543v2H170.45v-2h4.69V528.87a3.67,3.67,0,0,1-.89.86,9,9,0,0,1-1.44.86,14.24,14.24,0,0,1-1.6.66,4.5,4.5,0,0,1-1.45.26v-2.18a3.87,3.87,0,0,0,1.65-.42,14.72,14.72,0,0,0,1.72-1,14.35,14.35,0,0,0,1.38-1.06,2.89,2.89,0,0,0,.63-.66h2.31V543Z"/><path class="cls-4" d="M191,550a8.38,8.38,0,0,1-4.49-1.24,7.81,7.81,0,0,1-3-3.25l1.49-1.12a7.16,7.16,0,0,0,2.52,2.61,6.56,6.56,0,0,0,3.51,1,5.93,5.93,0,0,0,3-.73,5.5,5.5,0,0,0,2.08-2,5.71,5.71,0,0,0,.77-3,5.51,5.51,0,0,0-.74-2.86,5.32,5.32,0,0,0-2-1.93,5.9,5.9,0,0,0-2.86-.69,6.53,6.53,0,0,0-2.9.68,5.61,5.61,0,0,0-2.25,2H184l2.6-13.2h11.32v2.08h-9.63l-1.62,8.41a5.84,5.84,0,0,1,2.11-1.43,7.14,7.14,0,0,1,2.71-.51,7.92,7.92,0,0,1,3.87,1,7.2,7.2,0,0,1,3.78,6.51,7.45,7.45,0,0,1-1.1,4,7.63,7.63,0,0,1-3,2.73A8.72,8.72,0,0,1,191,550Z"/><path class="cls-4" d="M210.91,537.09V535h9.64v2.08Z"/><path class="cls-4" d="M244.5,543v2H233.32v-2H238V528.87a3.49,3.49,0,0,1-.89.86,8.87,8.87,0,0,1-1.43.86,15.06,15.06,0,0,1-1.6.66,4.55,4.55,0,0,1-1.46.26v-2.18a3.87,3.87,0,0,0,1.65-.42,13.94,13.94,0,0,0,1.72-1,16,16,0,0,0,1.39-1.06,2.75,2.75,0,0,0,.62-.66h2.31V543Z"/><path class="cls-4" d="M246.68,545a13.81,13.81,0,0,1,.2-2.29,8.05,8.05,0,0,1,.76-2.28,7.79,7.79,0,0,1,1.65-2.19,12.49,12.49,0,0,1,2.87-2c.64-.33,1.3-.66,2-1a18.8,18.8,0,0,0,1.93-1.07,5.37,5.37,0,0,0,1.45-1.34,3,3,0,0,0,.55-1.78,3.2,3.2,0,0,0-.48-1.65,3.5,3.5,0,0,0-1.45-1.31,5.2,5.2,0,0,0-2.43-.51,5.76,5.76,0,0,0-1.91.3,6.32,6.32,0,0,0-1.52.74,8.59,8.59,0,0,0-1.12.89l-.76.75L247,528.77c.11-.13.36-.36.74-.71a11.64,11.64,0,0,1,1.49-1.07,9.64,9.64,0,0,1,2.14-1,8.72,8.72,0,0,1,2.72-.4,7.61,7.61,0,0,1,3.45.72,5.39,5.39,0,0,1,2.2,1.92,4.83,4.83,0,0,1,.76,2.6,4.64,4.64,0,0,1-.58,2.36,6.09,6.09,0,0,1-1.49,1.71,12.45,12.45,0,0,1-1.88,1.24c-.65.34-1.24.64-1.76.88a17.83,17.83,0,0,0-2.61,1.48,8.11,8.11,0,0,0-1.68,1.49,7.09,7.09,0,0,0-1,1.47A5.64,5.64,0,0,0,249,543h11.82v2Z"/><path class="cls-4" d="M264.57,531.15v-3.23h1.91v3.23Zm0,13.89v-3.23h1.91V545Z"/><path class="cls-4" d="M277.27,550a8.38,8.38,0,0,1-4.49-1.24,7.81,7.81,0,0,1-3-3.25l1.49-1.12a7.16,7.16,0,0,0,2.52,2.61,6.57,6.57,0,0,0,3.52,1,5.92,5.92,0,0,0,2.95-.73,5.5,5.5,0,0,0,2.08-2,5.71,5.71,0,0,0,.77-3,5.42,5.42,0,0,0-.74-2.86,5.32,5.32,0,0,0-2-1.93,5.9,5.9,0,0,0-2.86-.69,6.53,6.53,0,0,0-2.9.68,5.61,5.61,0,0,0-2.25,2h-2.07l2.6-13.2H284.2v2.08h-9.63L273,536.69a5.84,5.84,0,0,1,2.11-1.43,7.14,7.14,0,0,1,2.71-.51,7.92,7.92,0,0,1,3.87,1,7.2,7.2,0,0,1,3.78,6.51,7.45,7.45,0,0,1-1.1,4,7.63,7.63,0,0,1-3,2.73A8.72,8.72,0,0,1,277.27,550Z"/><path class="cls-4" d="M305,535.52a11.64,11.64,0,0,1-1.07,5.09,8.73,8.73,0,0,1-2.94,3.5,7.81,7.81,0,0,1-8.51,0,8.84,8.84,0,0,1-3-3.5,12.43,12.43,0,0,1,0-10.18,8.94,8.94,0,0,1,3-3.51,7.71,7.71,0,0,1,8.51,0,8.83,8.83,0,0,1,2.94,3.51A11.7,11.7,0,0,1,305,535.52Zm-2.27,0a10.23,10.23,0,0,0-.76-4,6.51,6.51,0,0,0-2.12-2.73,5.15,5.15,0,0,0-3.13-1,5.23,5.23,0,0,0-3.15,1,6.45,6.45,0,0,0-2.13,2.73,10.06,10.06,0,0,0-.76,4,9.89,9.89,0,0,0,.78,4.05,6.43,6.43,0,0,0,2.12,2.72,5.25,5.25,0,0,0,3.14,1,5.15,5.15,0,0,0,3.13-1,6.41,6.41,0,0,0,2.12-2.72A10.06,10.06,0,0,0,302.72,535.52Z"/><path class="cls-4" d="M503.05,546.42v2.05H491.86v-2.05h4.69V532.3a4.09,4.09,0,0,1-.89.86,9.77,9.77,0,0,1-1.44.85,11.28,11.28,0,0,1-1.6.66,4.53,4.53,0,0,1-1.45.27v-2.18a3.79,3.79,0,0,0,1.65-.43,14.59,14.59,0,0,0,1.71-1,13.12,13.12,0,0,0,1.39-1.06,3.17,3.17,0,0,0,.63-.66h2.31v16.8Z"/><path class="cls-4" d="M515.09,540.45a5.25,5.25,0,0,1,2.54,1.07,5.67,5.67,0,0,1,1.65,2.12,6.73,6.73,0,0,1,.6,2.89,6.61,6.61,0,0,1-1,3.56,6.39,6.39,0,0,1-2.67,2.39,9,9,0,0,1-4,.84,9.15,9.15,0,0,1-4.39-1,6.71,6.71,0,0,1-2.84-2.79l1.55-1.42a5.72,5.72,0,0,0,2.15,2.3,6.62,6.62,0,0,0,3.53.87,5.74,5.74,0,0,0,3.87-1.23,4.39,4.39,0,0,0,1.44-3.53,4.71,4.71,0,0,0-1.5-3.67,6.15,6.15,0,0,0-4.28-1.37H511v-1.91h.89a5.63,5.63,0,0,0,3.89-1.22,4.3,4.3,0,0,0,.73-5.38,3.87,3.87,0,0,0-1.7-1.38,6.1,6.1,0,0,0-2.46-.47A6.41,6.41,0,0,0,509,532a5.42,5.42,0,0,0-2.17,2.33l-1.45-1.39a5.88,5.88,0,0,1,1.62-2,7.93,7.93,0,0,1,2.47-1.34,9.45,9.45,0,0,1,3-.48,8.08,8.08,0,0,1,3.6.76,6.08,6.08,0,0,1,2.44,2.09,5.57,5.57,0,0,1,.89,3.15,5.79,5.79,0,0,1-.53,2.47,5.11,5.11,0,0,1-1.5,1.91A5,5,0,0,1,515.09,540.45Z"/><path class="cls-4" d="M523.54,534.57v-3.23h1.92v3.23Zm0,13.9v-3.24h1.92v3.24Z"/><path class="cls-4" d="M546,539a11.63,11.63,0,0,1-1.07,5.08,8.75,8.75,0,0,1-2.94,3.5,7.76,7.76,0,0,1-8.51,0,8.79,8.79,0,0,1-3-3.5,12.51,12.51,0,0,1,0-10.17,8.82,8.82,0,0,1,3-3.51,7.66,7.66,0,0,1,8.51,0,8.78,8.78,0,0,1,2.94,3.51A11.64,11.64,0,0,1,546,539Zm-2.28,0a10.16,10.16,0,0,0-.75-4.05,6.56,6.56,0,0,0-2.12-2.74,5.15,5.15,0,0,0-3.13-1,5.23,5.23,0,0,0-3.15,1,6.34,6.34,0,0,0-2.13,2.74,11.08,11.08,0,0,0,0,8.09,6.46,6.46,0,0,0,2.13,2.72,5.23,5.23,0,0,0,3.14,1,5.14,5.14,0,0,0,3.13-1A6.62,6.62,0,0,0,543,543,10.1,10.1,0,0,0,543.7,539Z"/><path class="cls-4" d="M566.18,539A11.49,11.49,0,0,1,565.1,544a8.65,8.65,0,0,1-2.93,3.5,7.78,7.78,0,0,1-8.52,0,8.85,8.85,0,0,1-2.95-3.5,12.41,12.41,0,0,1,0-10.17,8.88,8.88,0,0,1,2.95-3.51,7.68,7.68,0,0,1,8.52,0,8.68,8.68,0,0,1,2.93,3.51A11.5,11.5,0,0,1,566.18,539Zm-2.28,0a10,10,0,0,0-.76-4.05,6.46,6.46,0,0,0-2.11-2.74,5.17,5.17,0,0,0-3.14-1,5.27,5.27,0,0,0-3.15,1,6.5,6.5,0,0,0-2.13,2.74,10.16,10.16,0,0,0-.75,4.05,9.81,9.81,0,0,0,.77,4,6.46,6.46,0,0,0,2.13,2.72,5.53,5.53,0,0,0,6.27,0,6.52,6.52,0,0,0,2.11-2.72A9.92,9.92,0,0,0,563.9,539Z"/><path class="cls-4" d="M754.29,546.42v2.05H743.11v-2.05h4.68V532.3a3.67,3.67,0,0,1-.89.86,9.77,9.77,0,0,1-1.44.85,11.17,11.17,0,0,1-1.59.66,4.59,4.59,0,0,1-1.46.27v-2.18a3.75,3.75,0,0,0,1.65-.43,13.94,13.94,0,0,0,1.72-1,14.24,14.24,0,0,0,1.39-1.06,2.75,2.75,0,0,0,.62-.66h2.31v16.8Z"/><path class="cls-4" d="M772.36,544.79a8.29,8.29,0,0,1-7.21,4,7.86,7.86,0,0,1-7.33-4.56,11.81,11.81,0,0,1-1.09-5.24,24.52,24.52,0,0,1,1.09-7.91,10,10,0,0,1,3-4.67,7.08,7.08,0,0,1,4.52-1.55,7.66,7.66,0,0,1,4.19,1.17,7.56,7.56,0,0,1,2.81,3.19l-1.46,1.32a5.84,5.84,0,0,0-2.19-2.69,5.9,5.9,0,0,0-3.35-1,5.14,5.14,0,0,0-3.4,1.22,7.92,7.92,0,0,0-2.26,3.5,16.55,16.55,0,0,0-.81,5.51,6.35,6.35,0,0,1,1.46-2.24,6.8,6.8,0,0,1,2.25-1.49,7.4,7.4,0,0,1,2.79-.52,8.05,8.05,0,0,1,4.08,1,7.88,7.88,0,0,1,2.9,2.86,7.95,7.95,0,0,1,0,8Zm-4.11,1.2a6.29,6.29,0,0,0,2.23-2.21,5.9,5.9,0,0,0,0-6.07,6.38,6.38,0,0,0-2.23-2.21,5.8,5.8,0,0,0-3-.83,6,6,0,0,0-3.09.83,6.32,6.32,0,0,0-2.23,2.19,5.82,5.82,0,0,0-.82,3.06,5.71,5.71,0,0,0,.84,3,6.61,6.61,0,0,0,2.23,2.23,5.72,5.72,0,0,0,3,.84A5.89,5.89,0,0,0,768.25,546Z"/><path class="cls-4" d="M777.06,534.57v-3.23H779v3.23Zm0,13.9v-3.24H779v3.24Z"/><path class="cls-4" d="M799.5,539a11.63,11.63,0,0,1-1.07,5.08,8.67,8.67,0,0,1-2.94,3.5,7.76,7.76,0,0,1-8.51,0,8.87,8.87,0,0,1-3-3.5,12.51,12.51,0,0,1,0-10.17,8.9,8.9,0,0,1,3-3.51,7.66,7.66,0,0,1,8.51,0,8.7,8.7,0,0,1,2.94,3.51A11.64,11.64,0,0,1,799.5,539Zm-2.28,0a10.16,10.16,0,0,0-.75-4.05,6.48,6.48,0,0,0-2.12-2.74,5.15,5.15,0,0,0-3.13-1,5.23,5.23,0,0,0-3.15,1,6.34,6.34,0,0,0-2.13,2.74,10,10,0,0,0-.76,4.05,9.8,9.8,0,0,0,.78,4,6.37,6.37,0,0,0,2.12,2.72,5.25,5.25,0,0,0,3.14,1,5.14,5.14,0,0,0,3.13-1,6.54,6.54,0,0,0,2.12-2.72A10.1,10.1,0,0,0,797.22,539Z"/><path class="cls-4" d="M819.7,539a11.63,11.63,0,0,1-1.07,5.08,8.75,8.75,0,0,1-2.94,3.5,7.78,7.78,0,0,1-8.52,0,8.85,8.85,0,0,1-2.95-3.5,12.41,12.41,0,0,1,0-10.17,8.88,8.88,0,0,1,2.95-3.51,7.68,7.68,0,0,1,8.52,0,8.78,8.78,0,0,1,2.94,3.51A11.64,11.64,0,0,1,819.7,539Zm-2.28,0a10,10,0,0,0-.76-4.05,6.46,6.46,0,0,0-2.11-2.74,5.17,5.17,0,0,0-3.13-1,5.28,5.28,0,0,0-3.16,1,6.5,6.5,0,0,0-2.13,2.74,10.16,10.16,0,0,0-.75,4.05,9.81,9.81,0,0,0,.77,4,6.46,6.46,0,0,0,2.13,2.72,5.23,5.23,0,0,0,3.14,1,5.16,5.16,0,0,0,3.13-1,6.52,6.52,0,0,0,2.11-2.72A9.92,9.92,0,0,0,817.42,539Z"/><path class="cls-4" d="M831.38,537.05a16.59,16.59,0,0,1,1.35-6.55,54,54,0,0,1,3.27-6.42l1.72.83a24.33,24.33,0,0,0-1.41,2.44c-.49,1-.95,2-1.38,3.11a24.5,24.5,0,0,0-1,3.39,14.29,14.29,0,0,0-.4,3.3,16.52,16.52,0,0,0,1.12,5.61,31,31,0,0,0,3.07,6l-1.68.89a39.06,39.06,0,0,1-2.43-4.19,23.42,23.42,0,0,1-1.61-4.24A15.87,15.87,0,0,1,831.38,537.05Z"/><path class="cls-4" d="M849,525h2l9.73,23.43h-2.44l-2.93-7.33H844.6l-2.92,7.33H839.2Zm5.59,14.29L850,527.74l-4.63,11.59Z"/><path class="cls-4" d="M872.37,548.8a6.89,6.89,0,0,1-3.85-1.12,8.53,8.53,0,0,1-2.69-2.76V555.5h-2.24V531.34h2v3.35a7.8,7.8,0,0,1,2.74-2.61,7.1,7.1,0,0,1,3.66-1,7.27,7.27,0,0,1,3.27.73,8.34,8.34,0,0,1,2.57,2,9.18,9.18,0,0,1,1.7,2.84,9.07,9.07,0,0,1,.61,3.3,10,10,0,0,1-1,4.41,8.19,8.19,0,0,1-2.72,3.23A7,7,0,0,1,872.37,548.8Zm-.63-2a5.43,5.43,0,0,0,2.54-.58,6,6,0,0,0,1.93-1.55,7.4,7.4,0,0,0,1.24-2.21,7.83,7.83,0,0,0,.43-2.54,7.21,7.21,0,0,0-.48-2.62,6.75,6.75,0,0,0-1.37-2.2,7,7,0,0,0-2-1.51,5.7,5.7,0,0,0-2.51-.55,5.54,5.54,0,0,0-1.78.32,7,7,0,0,0-1.76.94,6.49,6.49,0,0,0-1.41,1.35,3.69,3.69,0,0,0-.69,1.61v5.25a7.88,7.88,0,0,0,1.42,2.18,6.88,6.88,0,0,0,2.06,1.53A5.36,5.36,0,0,0,871.74,546.82Z"/><path class="cls-4" d="M892.53,533.25a7.19,7.19,0,0,0-3.95,1.26,6.29,6.29,0,0,0-2.39,3.26v10.7H884V531.34h2.11v4.06a8.11,8.11,0,0,1,2.36-2.94,5.85,5.85,0,0,1,3.12-1.25c.22,0,.41,0,.58,0a2.27,2.27,0,0,1,.41,0Z"/><path class="cls-4" d="M902.36,548.8a8.25,8.25,0,0,1-6.15-2.64,9.13,9.13,0,0,1-1.77-2.83,9,9,0,0,1-.62-3.36,9.21,9.21,0,0,1,.62-3.43,8.82,8.82,0,0,1,1.78-2.82,8.44,8.44,0,0,1,2.73-1.94,8.63,8.63,0,0,1,6.81,0,8.58,8.58,0,0,1,2.71,1.94,8.82,8.82,0,0,1,1.78,2.82,9.21,9.21,0,0,1,.63,3.43,9,9,0,0,1-.63,3.36,9.13,9.13,0,0,1-1.77,2.83,8.25,8.25,0,0,1-6.12,2.64Zm-6.27-8.8a7.17,7.17,0,0,0,.84,3.46,6.55,6.55,0,0,0,2.26,2.46,5.75,5.75,0,0,0,3.14.9,5.65,5.65,0,0,0,3.13-.92,6.67,6.67,0,0,0,2.28-2.51,7.25,7.25,0,0,0,.86-3.49,7.11,7.11,0,0,0-.86-3.44,6.76,6.76,0,0,0-2.28-2.49,5.64,5.64,0,0,0-3.13-.91,5.48,5.48,0,0,0-3.14,1,7,7,0,0,0-2.26,2.5A7.23,7.23,0,0,0,896.09,540Z"/><path class="cls-4" d="M914.41,531.34l5.05,6.71.26.49.26-.49,5-6.71h2.54L921,540l6.53,8.52H925l-5-6.68-.26-.46-.26.46-5,6.68H911.9l6.5-8.52-6.5-8.61Z"/><path class="cls-4" d="M930.18,548.47v-3.24h2v3.24Z"/><path class="cls-4" d="M941.67,537.05a16.27,16.27,0,0,1-.57,4.21,22,22,0,0,1-1.61,4.24,39.29,39.29,0,0,1-2.45,4.19l-1.65-.89a30.45,30.45,0,0,0,3.07-6,16.31,16.31,0,0,0,1.13-5.61,14.86,14.86,0,0,0-.4-3.3,23.3,23.3,0,0,0-1.06-3.39c-.44-1.11-.9-2.14-1.38-3.11a19.58,19.58,0,0,0-1.42-2.44l1.75-.83a53.81,53.81,0,0,1,3.25,6.42A16.76,16.76,0,0,1,941.67,537.05Z"/><path class="cls-4" d="M1130,546.42v2.05h-11.19v-2.05h4.69V532.3a4.09,4.09,0,0,1-.89.86,9.77,9.77,0,0,1-1.44.85,11.28,11.28,0,0,1-1.6.66,4.53,4.53,0,0,1-1.45.27v-2.18a3.79,3.79,0,0,0,1.65-.43,14.59,14.59,0,0,0,1.71-1,13.12,13.12,0,0,0,1.39-1.06,3.17,3.17,0,0,0,.63-.66h2.31v16.8Z"/><path class="cls-4" d="M1148.67,542a5.88,5.88,0,0,1-1.13,3.58,7.62,7.62,0,0,1-3,2.36,9.63,9.63,0,0,1-4.07.85,8.86,8.86,0,0,1-4.16-.95,7.56,7.56,0,0,1-2.86-2.49,6.16,6.16,0,0,1-1-3.48,5.22,5.22,0,0,1,.71-2.69,7,7,0,0,1,1.79-2,7.15,7.15,0,0,1,2.19-1.19,8.26,8.26,0,0,1-1.91-1.14,5.5,5.5,0,0,1-1.42-1.67,4.36,4.36,0,0,1-.53-2.12,5,5,0,0,1,.64-2.57,6.11,6.11,0,0,1,1.7-1.88,7.43,7.43,0,0,1,2.36-1.16,9.14,9.14,0,0,1,2.63-.38,9,9,0,0,1,2.59.38,7.76,7.76,0,0,1,2.37,1.14,5.9,5.9,0,0,1,1.72,1.87,5,5,0,0,1,.64,2.57,4.32,4.32,0,0,1-.54,2.13,5.81,5.81,0,0,1-1.44,1.69A8,8,0,0,1,1144,536a7.37,7.37,0,0,1,2.35,1.31,6.79,6.79,0,0,1,1.72,2.06A5.56,5.56,0,0,1,1148.67,542Zm-2.27-.16a4.14,4.14,0,0,0-.52-2.1,4.72,4.72,0,0,0-1.38-1.54,6.65,6.65,0,0,0-1.92-1,6.86,6.86,0,0,0-2.09-.33,6.52,6.52,0,0,0-2.76.61,5.6,5.6,0,0,0-2.17,1.72,4.25,4.25,0,0,0-.85,2.63,4,4,0,0,0,.52,2.06,5,5,0,0,0,1.37,1.54,6.27,6.27,0,0,0,1.89,1,6.92,6.92,0,0,0,2.1.33,6.51,6.51,0,0,0,2.75-.61,5.65,5.65,0,0,0,2.2-1.74A4.15,4.15,0,0,0,1146.4,541.85Zm-10.93-10.73a3.26,3.26,0,0,0,.78,2.18,4.93,4.93,0,0,0,2,1.37,6.29,6.29,0,0,0,2.31.46,6.18,6.18,0,0,0,2.36-.48,5,5,0,0,0,1.95-1.39,3.25,3.25,0,0,0,.77-2.2,3.3,3.3,0,0,0-.72-2.15,4.57,4.57,0,0,0-1.9-1.36,6.68,6.68,0,0,0-2.49-.47,6.34,6.34,0,0,0-2.43.48,4.52,4.52,0,0,0-1.88,1.4A3.42,3.42,0,0,0,1135.47,531.12Z"/><path class="cls-4" d="M1152.47,534.57v-3.23h1.91v3.23Zm0,13.9v-3.24h1.91v3.24Z"/><path class="cls-4" d="M1167.85,540.45a5.29,5.29,0,0,1,2.54,1.07,5.88,5.88,0,0,1,1.65,2.12,6.88,6.88,0,0,1,.59,2.89,6.61,6.61,0,0,1-1,3.56,6.33,6.33,0,0,1-2.67,2.39,9,9,0,0,1-4,.84,9.15,9.15,0,0,1-4.39-1,6.71,6.71,0,0,1-2.84-2.79l1.55-1.42a5.79,5.79,0,0,0,2.15,2.3,6.62,6.62,0,0,0,3.53.87,5.72,5.72,0,0,0,3.87-1.23,4.39,4.39,0,0,0,1.44-3.53,4.71,4.71,0,0,0-1.5-3.67,6.14,6.14,0,0,0-4.27-1.37h-.83v-1.91h.89a5.66,5.66,0,0,0,3.9-1.22,4.31,4.31,0,0,0,.72-5.38,3.87,3.87,0,0,0-1.7-1.38,6.1,6.1,0,0,0-2.46-.47,6.41,6.41,0,0,0-3.31.84,5.34,5.34,0,0,0-2.16,2.33l-1.46-1.39a6,6,0,0,1,1.62-2,7.88,7.88,0,0,1,2.48-1.34,9.34,9.34,0,0,1,3-.48,8,8,0,0,1,3.6.76,6,6,0,0,1,2.44,2.09,5.57,5.57,0,0,1,.89,3.15,5.65,5.65,0,0,1-.53,2.47,5.11,5.11,0,0,1-1.5,1.91A5,5,0,0,1,1167.85,540.45Z"/><path class="cls-4" d="M1192.53,539a11.63,11.63,0,0,1-1.07,5.08,8.75,8.75,0,0,1-2.94,3.5,7.76,7.76,0,0,1-8.51,0,8.79,8.79,0,0,1-3-3.5,12.41,12.41,0,0,1,0-10.17,8.82,8.82,0,0,1,3-3.51,7.66,7.66,0,0,1,8.51,0,8.78,8.78,0,0,1,2.94,3.51A11.64,11.64,0,0,1,1192.53,539Zm-2.28,0a10,10,0,0,0-.76-4.05,6.46,6.46,0,0,0-2.11-2.74,5.17,5.17,0,0,0-3.13-1,5.28,5.28,0,0,0-3.16,1,6.4,6.4,0,0,0-2.12,2.74,11.08,11.08,0,0,0,0,8.09,6.46,6.46,0,0,0,2.13,2.72,5.23,5.23,0,0,0,3.14,1,5.16,5.16,0,0,0,3.13-1,6.52,6.52,0,0,0,2.11-2.72A9.92,9.92,0,0,0,1190.25,539Z"/><path class="cls-4" d="M448.53,491.55a11.92,11.92,0,0,1,.78-4.24,11.76,11.76,0,0,1,2.28-3.74,11.17,11.17,0,0,1,3.64-2.69,11.31,11.31,0,0,1,4.85-1,10.64,10.64,0,0,1,5.6,1.42,8.89,8.89,0,0,1,3.48,3.7l-3.47,2.41a5.32,5.32,0,0,0-1.55-2.08,6,6,0,0,0-2.06-1.09,7.47,7.47,0,0,0-2.13-.33,6.2,6.2,0,0,0-3,.69,6.51,6.51,0,0,0-2.11,1.82,8.19,8.19,0,0,0-1.27,2.5,9.68,9.68,0,0,0-.43,2.81,9,9,0,0,0,.5,2.95,8.13,8.13,0,0,0,1.4,2.54,6.72,6.72,0,0,0,2.18,1.75,6.07,6.07,0,0,0,2.79.65,6.88,6.88,0,0,0,2.18-.37,6.15,6.15,0,0,0,2.07-1.15,5.84,5.84,0,0,0,1.56-2.08l3.69,2.18a7.32,7.32,0,0,1-2.29,3,11.28,11.28,0,0,1-3.5,1.84,12.35,12.35,0,0,1-3.84.63,10,10,0,0,1-4.58-1,11.77,11.77,0,0,1-3.58-2.77,13.2,13.2,0,0,1-2.36-3.89A12,12,0,0,1,448.53,491.55Z"/><path class="cls-4" d="M480.11,503.8a9.84,9.84,0,0,1-3.76-.7,8.47,8.47,0,0,1-4.68-4.72A8.89,8.89,0,0,1,471,495a9.29,9.29,0,0,1,1.1-4.46,8.54,8.54,0,0,1,3.14-3.26,9.2,9.2,0,0,1,4.87-1.22A9,9,0,0,1,485,487.3a8.5,8.5,0,0,1,3.11,3.22,9,9,0,0,1,1.09,4.35c0,.28,0,.55,0,.8s0,.46-.06.64H475.73a4.55,4.55,0,0,0,.74,2.3,4.31,4.31,0,0,0,1.65,1.47,4.65,4.65,0,0,0,2.13.52,5.14,5.14,0,0,0,2.52-.65,3.39,3.39,0,0,0,1.6-1.73l3.76,1.06a6.79,6.79,0,0,1-1.75,2.34,8.59,8.59,0,0,1-2.73,1.6A10.43,10.43,0,0,1,480.11,503.8Zm-4.52-10.27h9.05a5,5,0,0,0-.75-2.24,4.22,4.22,0,0,0-1.6-1.48,4.54,4.54,0,0,0-2.21-.53,4.38,4.38,0,0,0-2.16.53,4.23,4.23,0,0,0-1.58,1.48A5,5,0,0,0,475.59,493.53Z"/><path class="cls-4" d="M502.19,490a8.88,8.88,0,0,0-3.63.78,4.66,4.66,0,0,0-2.31,2.19v10.5h-4.39V486.34h4.06v3.53a7.69,7.69,0,0,1,2.36-2.8,5.74,5.74,0,0,1,3-1.13,2.53,2.53,0,0,0,.53,0,.85.85,0,0,1,.36.05Z"/><path class="cls-4" d="M512.42,503.8a9.84,9.84,0,0,1-3.76-.7,8.49,8.49,0,0,1-2.87-1.93,8.68,8.68,0,0,1-1.82-2.79,9.08,9.08,0,0,1-.62-3.36,9.18,9.18,0,0,1,1.1-4.46,8.47,8.47,0,0,1,3.14-3.26,9.18,9.18,0,0,1,4.86-1.22,9.06,9.06,0,0,1,4.82,1.22,8.47,8.47,0,0,1,3.1,3.22,8.89,8.89,0,0,1,1.09,4.35c0,.28,0,.55,0,.8s0,.46-.07.64H508a4.75,4.75,0,0,0,.74,2.3,4.31,4.31,0,0,0,1.65,1.47,4.72,4.72,0,0,0,2.13.52,5.15,5.15,0,0,0,2.53-.65,3.39,3.39,0,0,0,1.6-1.73l3.76,1.06a6.92,6.92,0,0,1-1.75,2.34,8.53,8.53,0,0,1-2.74,1.6A10.33,10.33,0,0,1,512.42,503.8Zm-4.52-10.27h9a5,5,0,0,0-.74-2.24,4.29,4.29,0,0,0-1.6-1.48,4.54,4.54,0,0,0-2.21-.53,4.37,4.37,0,0,0-3.75,2A5.17,5.17,0,0,0,507.9,493.53Z"/><path class="cls-4" d="M551,503.47h-4.42v-9.56a5.06,5.06,0,0,0-.71-3,2.31,2.31,0,0,0-2-.94,3.75,3.75,0,0,0-2.48,1,5.45,5.45,0,0,0-1.65,2.55v10h-4.45v-9.56a5.06,5.06,0,0,0-.7-3,2.26,2.26,0,0,0-1.94-.94,3.86,3.86,0,0,0-2.48,1,5.18,5.18,0,0,0-1.68,2.54v10h-4.39V486.34h4v3.19a6.88,6.88,0,0,1,2.66-2.56,7.93,7.93,0,0,1,3.78-.89,4.94,4.94,0,0,1,3.35,1,4.65,4.65,0,0,1,1.53,2.58,7.15,7.15,0,0,1,6.4-3.62,5.2,5.2,0,0,1,2.59.57,4.12,4.12,0,0,1,1.57,1.53,6.6,6.6,0,0,1,.78,2.17,14.1,14.1,0,0,1,.21,2.41Z"/><path class="cls-4" d="M562.88,503.8a9.44,9.44,0,0,1-3.78-.72,8.58,8.58,0,0,1-2.85-2,8.27,8.27,0,0,1-1.8-2.82,9.18,9.18,0,0,1-.61-3.35,9.4,9.4,0,0,1,.61-3.42,8.28,8.28,0,0,1,1.78-2.83,8.43,8.43,0,0,1,2.85-1.92,10.61,10.61,0,0,1,7.58,0,8.63,8.63,0,0,1,2.85,1.92,8.54,8.54,0,0,1,1.82,2.83A9.4,9.4,0,0,1,572,495a9.18,9.18,0,0,1-.62,3.35,8.81,8.81,0,0,1-1.82,2.82,8.58,8.58,0,0,1-2.85,2A9.44,9.44,0,0,1,562.88,503.8ZM558.36,495a5.68,5.68,0,0,0,.59,2.63,4.55,4.55,0,0,0,1.63,1.81,4.3,4.3,0,0,0,2.3.65,4.11,4.11,0,0,0,2.27-.67,4.71,4.71,0,0,0,1.64-1.81,5.53,5.53,0,0,0,.61-2.64,5.46,5.46,0,0,0-.61-2.61,4.79,4.79,0,0,0-1.64-1.81,4.16,4.16,0,0,0-2.31-.66,4.1,4.1,0,0,0-2.27.66,4.74,4.74,0,0,0-1.62,1.81A5.64,5.64,0,0,0,558.36,495Z"/><path class="cls-4" d="M591,503.47h-4.42v-9.56a5.06,5.06,0,0,0-.71-3,2.38,2.38,0,0,0-2-.94,4.06,4.06,0,0,0-1.8.45,5.65,5.65,0,0,0-1.62,1.24,5.79,5.79,0,0,0-1.1,1.82v10h-4.39V486.34h4v3.19a6.14,6.14,0,0,1,1.69-1.86,8,8,0,0,1,2.34-1.17,9.29,9.29,0,0,1,2.84-.42,5.48,5.48,0,0,1,2.65.57A3.89,3.89,0,0,1,590,488.2a7.15,7.15,0,0,1,.76,2.17,13.7,13.7,0,0,1,.21,2.39Z"/><path class="cls-4" d="M594.89,506.83c.39.09.76.16,1.1.22l.88.11a1.67,1.67,0,0,0,1-.31,3.31,3.31,0,0,0,.81-1.11,15.67,15.67,0,0,0,.82-2.22l-6.83-17.18h4.59L602,499,606,486.34h4.23L603,506.92A6.46,6.46,0,0,1,601.8,509a5.72,5.72,0,0,1-2,1.47,6.44,6.44,0,0,1-2.7.54,6.31,6.31,0,0,1-1.06-.08,6,6,0,0,1-1.15-.31Z"/><path class="cls-4" d="M795.38,503.47V480h4.55v19.43h12v4Z"/><path class="cls-4" d="M814,497.06V486.34h4.46v9.75a5,5,0,0,0,.72,3,2.51,2.51,0,0,0,2.15,1,4.64,4.64,0,0,0,1.7-.34,5,5,0,0,0,1.55-1,6,6,0,0,0,1.2-1.72V486.34h4.46v12.19a1.62,1.62,0,0,0,.23,1,1.09,1.09,0,0,0,.79.36v3.6l-1.1.15c-.3,0-.57.05-.81.05a3.1,3.1,0,0,1-1.9-.56,2.3,2.3,0,0,1-.91-1.47l-.1-1.37a7.6,7.6,0,0,1-3,2.63,8.85,8.85,0,0,1-4,.9,5,5,0,0,1-4.07-1.72A7.74,7.74,0,0,1,814,497.06Z"/><path class="cls-4" d="M850.69,503.47h-4.43v-9.56a5,5,0,0,0-.71-3,2.36,2.36,0,0,0-2-.94,4,4,0,0,0-1.8.45,5.39,5.39,0,0,0-1.62,1.24,6,6,0,0,0-1.11,1.82v10h-4.38V486.34h4v3.19a6.24,6.24,0,0,1,1.68-1.86,8,8,0,0,1,2.34-1.17,9.33,9.33,0,0,1,2.84-.42,5.49,5.49,0,0,1,2.66.57,3.87,3.87,0,0,1,1.58,1.55,6.66,6.66,0,0,1,.76,2.17,13.71,13.71,0,0,1,.22,2.39Z"/><path class="cls-4" d="M862.6,503.8a9.7,9.7,0,0,1-3.81-.71,8.31,8.31,0,0,1-2.86-1.95,8.85,8.85,0,0,1-1.81-2.86,9.38,9.38,0,0,1,.46-7.77,8.36,8.36,0,0,1,3.13-3.23,9.47,9.47,0,0,1,4.86-1.2,9,9,0,0,1,4.81,1.22,7.43,7.43,0,0,1,3,3.2l-4.29,1.32a3.87,3.87,0,0,0-1.48-1.47,4.24,4.24,0,0,0-2.08-.51,4.19,4.19,0,0,0-2.24.63,4.57,4.57,0,0,0-1.64,1.76,5.57,5.57,0,0,0-.61,2.69,5.64,5.64,0,0,0,.61,2.66,4.64,4.64,0,0,0,1.64,1.81,4.34,4.34,0,0,0,3.79.38,4.5,4.5,0,0,0,1.27-.74,3,3,0,0,0,.84-1l4.29,1.32a6.94,6.94,0,0,1-1.73,2.31,8.51,8.51,0,0,1-2.67,1.6A9.87,9.87,0,0,1,862.6,503.8Z"/><path class="cls-4" d="M889.23,503.47h-4.42v-9.56a4.67,4.67,0,0,0-.78-3,2.54,2.54,0,0,0-2.13-1,3.75,3.75,0,0,0-1.68.45,5.57,5.57,0,0,0-1.6,1.24,5.37,5.37,0,0,0-1.07,1.82v10h-4.39V479.38h4.39v10.15A7.41,7.41,0,0,1,880.2,487a7.23,7.23,0,0,1,3.59-.91,6,6,0,0,1,2.75.55,4.07,4.07,0,0,1,1.65,1.53,6.9,6.9,0,0,1,.81,2.17,13.16,13.16,0,0,1,.23,2.43Z"/><path class="cls-4" d="M1116.8,503.47V480h9.93a6.82,6.82,0,0,1,3,.66,7.39,7.39,0,0,1,2.36,1.78,8.3,8.3,0,0,1,1.53,2.51,7.74,7.74,0,0,1,.54,2.84,8.26,8.26,0,0,1-.89,3.74,7.5,7.5,0,0,1-2.52,2.92,6.55,6.55,0,0,1-3.81,1.12h-5.58v7.86Zm4.55-11.85h5.28a2.58,2.58,0,0,0,1.52-.46,3.09,3.09,0,0,0,1-1.34,5,5,0,0,0,.38-2,4.34,4.34,0,0,0-.45-2.07,3.19,3.19,0,0,0-1.15-1.28,2.85,2.85,0,0,0-1.54-.45h-5.08Z"/><path class="cls-4" d="M1135.51,498.42a4.67,4.67,0,0,1,.94-2.91,6.15,6.15,0,0,1,2.61-1.93,9.86,9.86,0,0,1,3.87-.71,15.06,15.06,0,0,1,2.21.17,7.66,7.66,0,0,1,1.95.53v-1a3.18,3.18,0,0,0-1-2.46,4.12,4.12,0,0,0-2.87-.87,7.57,7.57,0,0,0-2.74.49,15.06,15.06,0,0,0-2.7,1.42l-1.39-2.87a12.46,12.46,0,0,1,3.48-1.7,13.08,13.08,0,0,1,3.78-.54,8.46,8.46,0,0,1,5.76,1.8,6.55,6.55,0,0,1,2.06,5.22v5.44a1.53,1.53,0,0,0,.25,1,1.16,1.16,0,0,0,.81.36v3.6l-1.07.16a3.36,3.36,0,0,1-.81,0,3,3,0,0,1-2-.58,2.34,2.34,0,0,1-.81-1.44l-.1-.89A7.72,7.72,0,0,1,1145,503a8,8,0,0,1-3.44.8,6.51,6.51,0,0,1-3.08-.72,5.54,5.54,0,0,1-2.15-1.94A5,5,0,0,1,1135.51,498.42Zm10.76.82a2.64,2.64,0,0,0,.59-.74,1.54,1.54,0,0,0,.23-.7v-1.71a9.74,9.74,0,0,0-1.71-.5,9.16,9.16,0,0,0-1.75-.17,5.1,5.1,0,0,0-2.83.72,2.2,2.2,0,0,0-1.1,1.91,2.34,2.34,0,0,0,.36,1.24,2.52,2.52,0,0,0,1,.95,3.53,3.53,0,0,0,1.67.36,5.05,5.05,0,0,0,1.94-.39A4.77,4.77,0,0,0,1146.27,499.24Z"/><path class="cls-4" d="M1166,490a8.81,8.81,0,0,0-3.63.78A4.66,4.66,0,0,0,1160,493v10.5h-4.39V486.34h4.06v3.53a7.6,7.6,0,0,1,2.36-2.8,5.71,5.71,0,0,1,3-1.13,2.42,2.42,0,0,0,.52,0,.88.88,0,0,1,.37.05Z"/><path class="cls-4" d="M1178.77,502.61c-.4.18-.85.36-1.37.54a12.79,12.79,0,0,1-1.68.47,9.46,9.46,0,0,1-1.83.18,5.76,5.76,0,0,1-2.28-.43A3.44,3.44,0,0,1,1170,502a4.33,4.33,0,0,1-.61-2.43v-9.87h-2.25v-3.37h2.25v-5.61h4.45v5.61h3.63v3.37h-3.63v8.37a1.57,1.57,0,0,0,1.68,1.69,3.63,3.63,0,0,0,1.32-.25c.44-.16.81-.31,1.09-.44Z"/><path class="cls-4" d="M1181.38,506.83c.39.09.76.16,1.1.22s.63.09.88.11a1.69,1.69,0,0,0,1-.31,3.31,3.31,0,0,0,.81-1.11,15.67,15.67,0,0,0,.82-2.22l-6.83-17.18h4.59l4.65,12.68,4.09-12.68h4.22l-7.25,20.58a6.46,6.46,0,0,1-1.21,2.09,5.72,5.72,0,0,1-2,1.47,6.44,6.44,0,0,1-2.7.54,6.31,6.31,0,0,1-1.06-.08,5.84,5.84,0,0,1-1.15-.31Z"/><path class="cls-5" d="M188.27,132.48v-7.76a2.35,2.35,0,1,0-4.69,0v7.68L182,143.34,175,97.16a1.76,1.76,0,0,0,.28-.26,3,3,0,0,0,.78-2.14,2.87,2.87,0,0,0-1.79-2.52v-.06a4.43,4.43,0,0,0-.24-7.29V82.62a2.35,2.35,0,0,0,0-4.32,2.35,2.35,0,0,0-4.67,0,2.35,2.35,0,0,0,0,4.32v2.32a4.42,4.42,0,0,0-.24,7.28v.07a3.18,3.18,0,0,0-1,.67,3,3,0,0,0-.78,2.15,2.83,2.83,0,0,0,1.06,2.06l-7,46-1.58-10.65v-7.76a2.35,2.35,0,1,0-4.69,0v7.68l-4.65,31.51,0,18.64,4.89,4.89v19.4l-1.58-13.48-4.37,31.72,0,.1,0,40.56h-3.69v52.88h42.21l.1-131.1,5-5V164.13ZM171.6,88.34h.07a.31.31,0,0,1,0,.61h-.09a.32.32,0,0,1-.27-.24A.42.42,0,0,1,171.6,88.34Zm17.17,92.52-4.91,5-.1,128.72h-34v-44.7h3.67V225.74l.52-3.74a3,3,0,0,0,.92.48,3.15,3.15,0,0,0,3.25-.74l1.35-1.35V185.75l-4.89-4.89V164.43l2.92-19.88L159,155.13a2.37,2.37,0,0,0,2.34,2,2.34,2.34,0,0,0,2.34-2l7.91-52.72,8,53a2.38,2.38,0,0,0,2.34,2,2.33,2.33,0,0,0,2.34-2l1.6-10.83,2.92,19.82Z"/><path class="cls-5" d="M171.63,238.29a7,7,0,0,0-7,7v22.2h14v-22.2A7,7,0,0,0,171.63,238.29ZM175.15,264h-7V245.28a3.52,3.52,0,1,1,7,0Z"/><path class="cls-5" d="M180.57,189.13a4.56,4.56,0,0,0-6.09-.35,4.7,4.7,0,0,0-5.69,0,4.54,4.54,0,0,0-7.38,3.54v16.37h20.45V192.33A4.42,4.42,0,0,0,180.57,189.13ZM167,205.22H164.9v-12.9a1.07,1.07,0,0,1,2.14,0Zm5.69,0h-2.14v-12.9a1.07,1.07,0,0,1,2.14,0Zm5.66,0h-2.14v-12.9a1.07,1.07,0,0,1,2.14,0Z"/><path class="cls-5" d="M171.63,269.48a7,7,0,0,0-7,7v11.93h14V276.46A7,7,0,0,0,171.63,269.48Zm3.52,15.44h-7v-8.46a3.52,3.52,0,0,1,7,0Z"/><path class="cls-5" d="M178,215a9,9,0,1,0,2.6,6.34A8.95,8.95,0,0,0,178,215Zm-2.46,10.21a5.44,5.44,0,0,1-3.93,1.63,5.51,5.51,0,1,1,5.52-5.5A5.36,5.36,0,0,1,175.56,225.21Z"/><path class="cls-5" d="M285,296.27V265.74h-3.67V225.3l-4.43-31.93-1.58,13.47v-19.4l4.89-4.89V164.13l-4.66-31.63v-7.6a2.44,2.44,0,0,0-2.09-2.48,2.35,2.35,0,0,0-2.61,2.32v7.69l-1.58,10.7-6.94-46a2.9,2.9,0,0,0,1.06-2.07,3,3,0,0,0-.78-2.13,2.82,2.82,0,0,0-1-.7v0a4.4,4.4,0,0,0-.24-7.28v-2.3a2.35,2.35,0,0,0,0-4.32,2.35,2.35,0,0,0-4.67,0,2.35,2.35,0,0,0,0,4.32v2.32a4.4,4.4,0,0,0-.24,7.28v.06a2.91,2.91,0,0,0-1.8,2.53,3,3,0,0,0,.77,2.11,2.65,2.65,0,0,0,.29.29l-6.94,46.18-1.6-10.87v-7.63a2.42,2.42,0,0,0-2.11-2.45,2.34,2.34,0,0,0-2.58,2.32v7.69l-4.67,31.73-.08,18.39,5,5,.1,131.1H285v-4.23a2.06,2.06,0,0,0-2.06-2.06h0a2.06,2.06,0,0,0-2.06,2.06v.16h-34L246.82,186v-.2l-5-5V164.43l2.92-19.89,1.6,10.84a2.38,2.38,0,0,0,2.34,2,2.33,2.33,0,0,0,2.34-2l8-53,8,52.73a2.37,2.37,0,0,0,2.34,2,2.34,2.34,0,0,0,2.34-2l1.55-10.57,2.92,19.81v16.5l-4.89,4.89v34.64l1.34,1.35a3.11,3.11,0,0,0,3.26.74,3.08,3.08,0,0,0,.91-.49l.52,3.68v44.18h3.67v26.42a2.06,2.06,0,0,0,2.06,2.06h0A2.06,2.06,0,0,0,285,296.27ZM259.05,89H259a.3.3,0,0,1-.26-.3.32.32,0,0,1,.3-.31h0a.32.32,0,0,1,.3.31A.3.3,0,0,1,259.05,89Z"/><path class="cls-5" d="M259,238.29a7,7,0,0,0-7,7v22.2h14v-22.2A7,7,0,0,0,259,238.29ZM262.54,264h-7V245.28a3.52,3.52,0,0,1,7,0Z"/><path class="cls-5" d="M264.66,187.8a4.53,4.53,0,0,0-2.85,1,4.65,4.65,0,0,0-5.68,0,4.77,4.77,0,0,0-2.89-1,4.37,4.37,0,0,0-3.09,1.29,4.54,4.54,0,0,0-1.36,3.26v16.36H269.2V192.35A4.55,4.55,0,0,0,264.66,187.8ZM254.4,205.24h-2.14V192.35a1.07,1.07,0,1,1,2.14,0Zm5.69,0H258V192.35a1.07,1.07,0,1,1,2.14,0Zm5.69,0h-2.14V192.35a1.07,1.07,0,1,1,2.14,0Z"/><path class="cls-5" d="M259,269.48a7,7,0,0,0-7,7v11.93h14V276.46A7,7,0,0,0,259,269.48Zm3.52,15.44h-7v-8.46a3.52,3.52,0,0,1,7,0Z"/><path class="cls-5" d="M259,212.35a9,9,0,1,0,9,9A9,9,0,0,0,259,212.35Zm0,14.49a5.51,5.51,0,1,1,5.51-5.51A5.51,5.51,0,0,1,259,226.84Z"/><path class="cls-5" d="M217.36,186.05V174.91h2.92a2,2,0,1,0,0-4.09h-2.92v-4.64a2,2,0,1,0-4.09,0v4.64h-2.92a2,2,0,1,0,0,4.09h2.92v11.14l-22.64,32.18-.09.13V318.65h18.81V295.2a6,6,0,0,1,12,0v23.45h18.81V218.36ZM236,314.55H225.39V295.2a10.08,10.08,0,1,0-20.15,0v19.35H194.61v-94.9l20.7-29.4L236,219.65Z"/><path class="cls-5" d="M215.34,244.56a9,9,0,0,0-9,9V281.9h18V253.54A9,9,0,0,0,215.34,244.56Zm5.51,33.87h-11V253.54a5.51,5.51,0,0,1,11,0Z"/><path class="cls-5" d="M215.34,224.38a9,9,0,1,0,9,9A9,9,0,0,0,215.34,224.38Zm0,14.51a5.51,5.51,0,1,1,5.51-5.51A5.51,5.51,0,0,1,215.34,238.89Z"/><path class="cls-5" d="M221.65,208.4v-4.25a4,4,0,0,0-6.33-3.18,3.91,3.91,0,0,0-2.35-.79,4,4,0,0,0-4,4v4.24a4,4,0,0,0-4.76,3.89v8.21h22.18v-8.21A3.94,3.94,0,0,0,221.65,208.4ZM209,217.32h-1.59v-5a.8.8,0,0,1,1.59-.08Zm4.77,0h-1.6V204.15a.79.79,0,0,1,.8-.8.8.8,0,0,1,.8.8Zm4.74,0h-1.57V204.1a.77.77,0,0,1,.77-.75.79.79,0,0,1,.8.8Zm4.76,0h-1.59v-5.1a.76.76,0,0,1,.79-.74.79.79,0,0,1,.8.8Z"/><path class="cls-5" d="M746.6,317.65c-2.88,0-4.52-.83-5.59-2.87v-8.69a5,5,0,0,1,4.91-2.89l.64,0c.92.06,1.9.09,3.09.09l2.48,0c.85,0,1.72,0,2.6,0a1,1,0,0,0,1-1v-2.53q0-10.7,0-21.39c0-18.06.06-36.74-.12-55.12-.09-9.08,5-15.47,13.63-17.08a1,1,0,0,0,.81-1v-9.21q0-8.28,0-16.59c0-3.29,1.46-4.77,4.71-4.79l3.52,0,4,0c3.38,0,4.82,1.48,4.83,4.91q0,8.91,0,17.8V205a1,1,0,0,0,.68,1c.62.21,1.22.39,1.81.56a20.21,20.21,0,0,1,3.27,1.2,14.74,14.74,0,0,1,8.56,13.48c.1,3.13.07,6.23,0,9.51,0,1.47,0,3,0,4.48a1,1,0,0,0,1,1H816q4.65,0,9.29,0h0a5.06,5.06,0,0,1,4.23,2c8.86,10.41,9.63,25.34,1.84,35.5a21.91,21.91,0,0,1-13.59,8.48A2.41,2.41,0,0,0,815.5,285c0,.9-.08,1.79-.16,2.72-.18,2.24-.38,4.56.6,6.42.89,1.7,2.7,2.74,4.45,3.75a21.73,21.73,0,0,1,2.66,1.72,17,17,0,0,0,11.43,3.77h.58c3.26-.06,7.05-.52,10.44-3.49a40.7,40.7,0,0,1,4-3c.9-.62,1.82-1.26,2.71-1.93a3.53,3.53,0,0,0,1.42-2.5c.06-4.5.06-9.07,0-13.49V273.3a1,1,0,0,0-.69-.95c-7.18-2.32-10-7.45-9.05-16.62a1,1,0,0,0-.85-1.09l-.76-.1c-.47-.07-.88-.12-1.29-.2a1.74,1.74,0,0,1-1.61-1.94,1.68,1.68,0,0,1,1.65-1.86,21.68,21.68,0,0,1,2.5-.15c.42,0,.87,0,1.33,0a1,1,0,0,0,1-1s0-30.49,0-44.5c0-3.95.34-4.41,4.07-5.39a1,1,0,0,0,.7-.67,1,1,0,0,0-.2-.95c-4.27-4.89-4.53-7.49-1.33-13.2l1.23-2.22c.89-1.61,1.81-3.27,2.75-4.88a2.73,2.73,0,0,1,5.1,0c1.75,3,3.44,6,5,9,2,3.85,1.35,7.13-2.36,11.3a1,1,0,0,0-.21,1,1,1,0,0,0,.7.67c3.69,1,4,1.41,4,5.19V208c0,2.8,0,5.59,0,8.39,0,1.65-.66,2.51-1.92,2.53h0c-1.68,0-2-1.42-2-2.61,0-2.65,0-5.3,0-8v-3.47a1,1,0,0,0-1-1H851a1,1,0,0,0-1,1v44.43a1,1,0,0,0,1,1h9.37a1,1,0,0,0,1-1v-5.95c0-3.81,0-7.62,0-11.43a5,5,0,0,1,.25-1.75,1.6,1.6,0,0,1,1.58-1.14,3.27,3.27,0,0,1,.53.05c.79.15,1.6.53,1.6,2.18v18.21a1,1,0,0,0,1,1h2.83c2.57.06,2.64,1.38,2.66,1.87,0,.9-.21,1.85-2.42,2.1l-.76.11-.45.07a1,1,0,0,0-.86,1c0,.56,0,1.11,0,1.66,0,1.17,0,2.33,0,3.48a11.48,11.48,0,0,1-7.51,11,3,3,0,0,0-2.22,3.19c0,2.56,0,5.13,0,7.7,0,3.09,0,6.29.05,9.43a5,5,0,0,0,.8,2.3c.14.26.28.52.39.78a1,1,0,0,0,.92.6,1.07,1.07,0,0,0,.25,0l.82-.21a1,1,0,0,0,.75-1v-6.62q0-4.11,0-8.2c0-3.36,1.35-4.67,4.76-4.68h28.05a1,1,0,0,0,1-.84c.22-1.48.45-3,.67-4.41.51-3.29,1-6.55,1.48-9.82.34-2.33.85-3.87,2.49-4.84a2.33,2.33,0,0,0,1-2.11c-.21-1.29-.49-2.57-.72-3.6l-.18-.85a1,1,0,0,0-.45-.65,1.08,1.08,0,0,0-.53-.14l-.26,0c-.69.19-1.37.4-2,.61a17.84,17.84,0,0,1-4.07,1h-.26c-1.76,0-3.24-1.27-4.45-2.52a4.12,4.12,0,0,0-2.69-1.11h-.26c-.27,0-.54,0-.81,0a6.76,6.76,0,0,1-5-2,7.28,7.28,0,0,1-1.86-5.4,4,4,0,0,0-1.24-2.89,7.36,7.36,0,0,1-2.81-5.27,7.25,7.25,0,0,1,2.54-5.37,4.45,4.45,0,0,0,1.22-3.07A7.52,7.52,0,0,1,879,216.2a7,7,0,0,1,5.2-1.87h.56a3.39,3.39,0,0,0,3.57-4.37c-.48-2.34.23-4.33,2.3-6.45a4.38,4.38,0,0,0,1.21-3,7.11,7.11,0,0,1,1.75-5.4,6.56,6.56,0,0,1,4.9-1.88h.7a3.71,3.71,0,0,0,3-1.43,6.77,6.77,0,0,1,5.12-2.58,7.15,7.15,0,0,1,5.09,2.37,4.8,4.8,0,0,0,3.17,1.26h.31a7.22,7.22,0,0,1,5.29,1.92,7.33,7.33,0,0,1,1.86,5.42,3.87,3.87,0,0,0,1.17,2.7c2.34,2.15,3.14,4.25,2.57,6.82a3.48,3.48,0,0,0,.77,2.86,4,4,0,0,0,3,1.54h.23c.27,0,.54,0,.8,0a7.28,7.28,0,0,1,5.6,2.24,7.81,7.81,0,0,1,1.7,6.13,3.85,3.85,0,0,0,.65,2.32c.82,1.25,1.69,2.48,2.53,3.66l.89,1.25v2.54l-.9,1.19c-.92,1.21-1.87,2.46-2.76,3.73a4.18,4.18,0,0,0-.72,2.33,8.16,8.16,0,0,1-2,6.08,7.41,7.41,0,0,1-5.54,2h0l-.83,0h-.19a4,4,0,0,0-2.73,1.13,7.64,7.64,0,0,1-5.6,2.87,8,8,0,0,1-5-2.05,6.23,6.23,0,0,0-.6-.42l-.32-.2a1,1,0,0,0-.55-.16.92.92,0,0,0-.36.07,1,1,0,0,0-.61.69l-.13.54c-.08.34-.15.63-.23.91-.53,1.71-.75,3.65,1.61,5.17a4.28,4.28,0,0,1,1.16,2.58c1,6,1.94,12.13,2.84,18.06,0,0,2.85,18.63,3.93,25.73a1,1,0,0,0,1,.85h6c1.22,0,2.44,0,3.66,0,2.64,0,4.16,1.47,4.3,4.05a53.07,53.07,0,0,1,0,6.45,3.84,3.84,0,0,1-4.13,3.83c-.93,0-1.87,0-2.81,0H921.36c-1.53,0-3.07,0-4.6,0-1.34,0-2.14-.7-2.18-1.89a2,2,0,0,1,2.21-2.06l.73,0h15.84a1,1,0,0,0,1-1v-4.26a1,1,0,0,0-1-1H746.14a1,1,0,0,0-1,1v4.26a1,1,0,0,0,1,1H901.65c.31,0,.61,0,.92,0a2,2,0,0,1,0,3.94c-.23,0-.45,0-.68,0H842.08q-47.72,0-95.46,0ZM904.38,275c3.75,0,5,1.29,5,5.08,0,3.59,0,7.19,0,10.78V300c0,.49,0,1,.06,1.49l0,.73a1,1,0,0,0,1,.95h7.92a1,1,0,0,0,.76-.34,1,1,0,0,0,.23-.81l-2.59-17c-1.24-8.09-2.47-16.18-3.75-24.27-.13-.82-1-2.06-2-2.09-1.59-.07-3.16-.08-4.34-.08l-4,0a1,1,0,0,0-1,.84c-.76,4.91-1.47,9.56-2.21,14.44a1,1,0,0,0,.23.81,1,1,0,0,0,.76.34h3.88Zm-48.76,22.71a1.06,1.06,0,0,0-.59.19l-4.75,3.44a1,1,0,0,0,.58,1.81h9.56a1,1,0,0,0,1-.7,1,1,0,0,0-.37-1.12l-4.8-3.43A1,1,0,0,0,855.62,297.72Zm11.09-18.61a1,1,0,0,0-1,1v22a1,1,0,0,0,1,1h37.57a1,1,0,0,0,1-1v-22a1,1,0,0,0-1-1Zm-104.2-10.88c-.43,0-.86,0-1.3.08l-.52,0a1,1,0,0,0-.93,1v32.76a1,1,0,0,0,1,1h35.81a1,1,0,0,0,1-1q0-3.09,0-6.15c0-5.07,0-10.32.07-15.45,0-2.49-.22-5.11-2.51-7.38a9.44,9.44,0,0,1-1.79-2.87A3.2,3.2,0,0,0,790,268.2c-5.44,0-10.84,0-16.25,0H762.51Zm51,29.95a1,1,0,0,0-.56.17l-4.37,2.92a1,1,0,0,0,.56,1.83h8.74a1,1,0,0,0,.55-1.83l-4.37-2.92A.94.94,0,0,0,813.5,298.18Zm-10.91-17.85a1,1,0,0,0-1,1v17.95a1,1,0,0,0,.53.88,1,1,0,0,0,.47.12,1,1,0,0,0,.56-.17l1.83-1.23c1.91-1.27,3.72-2.48,5.48-3.74a3.1,3.1,0,0,0,1-2.31c.06-2.56.06-5.24,0-8.18,0-.48-.25-1.92-1.24-2.23-1.85-.57-3.75-1.08-5.58-1.57l-1.81-.49A1.09,1.09,0,0,0,802.59,280.33Zm-7.1-22.11a1,1,0,0,0-1,.93,17.76,17.76,0,0,0,4.88,12.93,19.12,19.12,0,0,0,13.43,6.49h.57c12.49,0,19.17-11.24,19.18-19.36a1,1,0,0,0-1-1Zm53.35-3.7a1,1,0,0,0-1,1c0,.66,0,1.3,0,1.92,0,1.36-.05,2.64,0,3.94a7.83,7.83,0,0,0,7.29,7.19l.45,0a7.62,7.62,0,0,0,7.55-6.17,26.5,26.5,0,0,0,.13-4.79c0-.7,0-1.4,0-2.11a1,1,0,0,0-1-1Zm-88-21.19a1,1,0,0,0-1,1v28.81a1,1,0,0,0,1,1h28.81a1,1,0,0,0,1-1.13l-.14-1.07a28.67,28.67,0,0,1,5.55-22,6.63,6.63,0,0,0,1.29-5.84,1,1,0,0,0-1-.79h-8c-2,0-3.92,0-5.87,0-.85,0-2.26-.29-2.24-2,0-1.25.8-1.9,2.32-1.92l5,0h6.78c.49,0,1,0,1.49-.07l.76,0a1,1,0,0,0,1-1v-2.18c0-1.52,0-3,0-4.41-.07-6.6-4.66-11.33-11.15-11.51-2.48-.08-5-.11-7.63-.11s-5.26,0-7.95.11c-5.68.14-10.16,3.93-10.9,9.21a36.11,36.11,0,0,0-.14,6.17c0,.93.06,1.88.06,2.84a1,1,0,0,0,1,1h6.82c1.37,0,2,.56,2.14,1.79a1.77,1.77,0,0,1-.37,1.42,2.52,2.52,0,0,1-1.85.71c-.86,0-1.73.05-2.6.05h-2ZM905.59,245a1.46,1.46,0,0,0-.73.18,2.26,2.26,0,0,0-.82,2.2c.27,1.52.58,3,.89,4.52l.35,1.68a1,1,0,0,0,.66.75,4.27,4.27,0,0,0,1.34.25c2,0,2.32-1.93,2.44-2.57l0-.26c.7-3.83.53-4.24-2.69-6.28A3,3,0,0,0,905.59,245ZM813,240.17H802.49a2.63,2.63,0,0,0-2,.67,23.33,23.33,0,0,0-5.77,12,1,1,0,0,0,1,1.15h35.68a1,1,0,0,0,1-1.17,24.05,24.05,0,0,0-5.61-11.78,3.25,3.25,0,0,0-2.34-.88C820.57,240.17,816.77,240.17,813,240.17Zm102.75,2.09c1.32,0,1.71.7,2.45,2.11s2,2.72,3.33,2.93l.25,0c1.37,0,2.8-1.74,3.27-2.58,1.13-2,1.48-2.22,2.05-2.22a9.59,9.59,0,0,1,2.29.51,6.23,6.23,0,0,0,1.81.26,4,4,0,0,0,2.55-.75c1.36-1.14.44-4.27.43-4.3-.73-2.42-.57-2.8,1.74-4,.12-.06,2.9-1.5,2.93-3.36,0-1.51-1.84-2.91-2.83-3.44-2.3-1.23-2.39-1.45-1.57-4,.28-.85.75-3.3-.39-4.44a3.31,3.31,0,0,0-2.39-.75,7.6,7.6,0,0,0-2,.29,7.48,7.48,0,0,1-2,.38c-.62,0-1-.21-2-2.11-.51-1-1.87-2.82-3.4-2.89h0c-1.65,0-3.09,2-3.52,2.76-1,1.83-1.42,2-2,2a7.61,7.61,0,0,1-2-.43,7.24,7.24,0,0,0-2-.29,4.07,4.07,0,0,0-2.49.7c-1.38,1.11-.43,4.35-.39,4.49.65,2.18.44,2.67-1.61,3.71a8.14,8.14,0,0,0-2.22,1.9c-.26.28-.51.57-.79.82a1.05,1.05,0,0,0-.31.71,1,1,0,0,0,.29.72l.75.76c.64.64,1.28,1.29,1.93,1.92a2,2,0,0,0,.78.43l.15.06a1.9,1.9,0,0,1,1,2.62c-.08.23-.17.45-.26.67a9.88,9.88,0,0,0-.39,1,3.82,3.82,0,0,0,.3,3.53,3,3,0,0,0,2.55,1.12,5.78,5.78,0,0,0,1.26-.14,15.49,15.49,0,0,0,2-.63Zm-27.3-1.45c.57,0,1,.21,2,2.07.37.67,1.64,2.41,3,2.41a3.65,3.65,0,0,0,2.45-1.7c.17-.21.34-.42.5-.59a2.16,2.16,0,0,0,.49-.95,1,1,0,0,1,.08-.22,1.78,1.78,0,0,1,1.74-1.25,3.3,3.3,0,0,1,.89.13,3.18,3.18,0,0,1,.58.23,3.89,3.89,0,0,0,1.53.41c.3,0,2.61-.08,3-1.38a4.25,4.25,0,0,0-.52-3.53,11.2,11.2,0,0,0-2.49-2c-.34-.24-.7-.47-1-.73a1,1,0,0,0-1.37.17,7.62,7.62,0,0,1-6,3.23,7.8,7.8,0,0,1-2.46-.42,6.84,6.84,0,0,1-4.77-6.36,7.44,7.44,0,0,1,1.13-4.23,16.93,16.93,0,0,1,3.51-2.94c.61-.43,1.22-.86,1.82-1.32a1,1,0,0,0,.35-1.07l-1-3.49a1,1,0,0,0-.82-.71h-.14a1,1,0,0,0-.85.47c-1.19,1.92-1.54,2.11-2.1,2.11a9.13,9.13,0,0,1-2.11-.44,6.26,6.26,0,0,0-1.65-.22,2.93,2.93,0,0,0-2.25.75c-1.1,1.2-.35,3.63-.26,3.9.77,2.37.61,2.77-1.52,3.91a7,7,0,0,0-1.81,1.6c-.2.22-.41.45-.62.66a1,1,0,0,0-.3.7,1,1,0,0,0,.28.72c.22.22.42.46.63.71a6.57,6.57,0,0,0,1.9,1.72c2.29,1.18,2.44,1.5,1.73,3.82,0,0-.91,3,.42,4a3.8,3.8,0,0,0,2.17.58,6.39,6.39,0,0,0,1.81-.26A7.37,7.37,0,0,1,888.42,240.81Zm4.73-14.1a3,3,0,0,0-3.15,3,3.26,3.26,0,0,0,.84,2.44,2.79,2.79,0,0,0,2,.85l.39,0a4.66,4.66,0,0,0,2.32-1.24,5.68,5.68,0,0,1,.53-.42,1,1,0,0,0,.44-1c-.12-.9-.48-3.65-3.32-3.65Zm5.57-29.42a2.81,2.81,0,0,0-2.08.68c-.92.92-.64,2.84-.36,3.73.84,2.66.85,2.71-1.74,4.13,0,0-2.48,1.4-2.22,2.94a4.57,4.57,0,0,0,2.38,2.74c2.54,1.32,2.59,1.43,1.81,4.11,0,.11-.75,2.64.45,3.6a3.2,3.2,0,0,0,2.11.58c.45,0,.92,0,1.33-.08a29.17,29.17,0,0,0,2.92-.49c.46-.1.94-.2,1.47-.29a1,1,0,0,0,.75-.63l.5-1.3a1,1,0,0,0-.42-1.22c-5-3-6.57-6.42-4.81-10.34a7.45,7.45,0,0,1,6.8-4.35,7.35,7.35,0,0,1,2.14.32c4.1,1.26,5.65,4.56,4.76,10.06a1,1,0,0,0,.41,1,1,1,0,0,0,1.05.06l6.76-3.67a1,1,0,0,0,.13-1.68c-.24-.18-.47-.37-.7-.57a9.3,9.3,0,0,0-1.86-1.32c-2.3-1.14-2.43-1.44-1.66-4,0-.11.77-2.63-.4-3.59A3.66,3.66,0,0,0,916,197a5,5,0,0,0-1.37.19,9.92,9.92,0,0,1-2.39.51c-.57,0-.89-.18-2-2.16,0,0-1.26-2.18-2.73-2.18h-.18a4.37,4.37,0,0,0-2.85,2.28c-1.11,2.08-1.43,2.27-2,2.27a9.22,9.22,0,0,1-2.09-.42A5.85,5.85,0,0,0,898.72,197.29Zm8.72,7.85a3.13,3.13,0,0,0-3.22,3.25,3.19,3.19,0,0,0,3.29,3.37h.14a3.22,3.22,0,0,0,3.32-3.41,3.13,3.13,0,0,0-3.35-3.21Zm-132.27-26.5a1,1,0,0,0-1,1V205a1,1,0,0,0,1,1h6.9a1,1,0,0,0,1-1v-25.4a1,1,0,0,0-1-1Zm80.46,3.52a1,1,0,0,0-.88.51q-.56,1-1.08,1.92c-.8,1.42-1.56,2.75-2.23,4.12a4.34,4.34,0,0,0,1.35,5.64,4.44,4.44,0,0,0,2.8,1,4.67,4.67,0,0,0,2.62-.86,4.35,4.35,0,0,0,1.68-5.59,43.91,43.91,0,0,0-2.25-4.27c-.37-.63-.75-1.3-1.14-2a1,1,0,0,0-.87-.51Zm29.81,114.37-3.88,0q-1.23,0-2.46,0c-1.42,0-2.26-.77-2.24-2a1.92,1.92,0,0,1,2.11-2q3.27,0,6.54,0c2.18,0,4.37,0,6.55,0a1.87,1.87,0,0,1,2,2,1.9,1.9,0,0,1-2.11,1.92c-.87,0-1.74,0-2.6,0Zm.5-8.43-11.35,0c-.92,0-2.48-.27-2.51-2a1.79,1.79,0,0,1,.45-1.33,3,3,0,0,1,2.17-.67h21.66c2.47,0,2.49,1.45,2.5,1.93a1.88,1.88,0,0,1-.49,1.39,2.66,2.66,0,0,1-1.91.64Zm36-49.64a7.85,7.85,0,1,1-.15-15.69h.12a7.85,7.85,0,1,1,.09,15.69Zm0-11.7a4,4,0,0,0-4,3.74,3.75,3.75,0,0,0,1,2.7,4,4,0,0,0,2.81,1.26h0a3.91,3.91,0,0,0,4.05-3.73,3.83,3.83,0,0,0-1.11-2.76,4,4,0,0,0-2.73-1.21Z"/><path class="cls-5" d="M469.82,317.65q-9.42,0-18.85,0a4.33,4.33,0,0,1-4.38-4.37c0-1.7,0-3.45,0-5.34a4.36,4.36,0,0,1,4.48-4.43c1.45,0,2.9,0,4.36,0l6.18,0a1,1,0,0,0,1-1V296.1a1,1,0,0,0-.34-.76,1,1,0,0,0-.66-.24h-.14l-2,.32c-1.5.25-3.06.51-4.59.62-.76.06-1.59.09-2.6.09l-2.09,0-1.11,0,.48-4.51c.28-2.72.57-5.4.85-8.08l4.25-39.62q.91-8.53,1.86-17.08a3.41,3.41,0,0,0-1.24-3.3,9.69,9.69,0,0,1,2.95-16.35,4.7,4.7,0,0,0,2.4-2.17,12.33,12.33,0,0,0,2.2-8.92,4.15,4.15,0,0,1,.29-1.49c.11-.35.22-.72.31-1.11a1,1,0,0,0-.62-1.16c-8.56-3.28-13.31-10.37-16.78-17.06l9.75-6a1,1,0,0,0,.4-1.22c-1.68-4.33-1.61-9-1.53-13.86,0-.45,0-.9,0-1.35l.58,0c1.44-.08,3.06-.18,4.79-.18a30.82,30.82,0,0,1,18.5,5.65,1,1,0,0,0,.57.18l.21,0a1,1,0,0,0,.65-.47,10.12,10.12,0,0,1,6.32-5,10.3,10.3,0,0,1,2.4-.29,9.57,9.57,0,0,1,8.95,6,4.35,4.35,0,0,0,2.93,2.9,7.29,7.29,0,0,1,1.53.8c.26.16.52.33.8.48a1,1,0,0,0,.49.13.9.9,0,0,0,.42-.1l1.07-.49c.93-.43,1.89-.87,2.83-1.37a3.27,3.27,0,0,0,1.31-1.64,9.46,9.46,0,0,1,8.07-6.62,11.36,11.36,0,0,1,1.41-.09,9.68,9.68,0,0,1,7.81,4.15,3.71,3.71,0,0,0,2.72,1.19H531c6.48,0,11.88.28,17.22,1.63,20.59,5.2,35.14,17.9,43.26,37.75a6.08,6.08,0,0,0,2,2.55,11.31,11.31,0,0,1,4.12,5.1,4,4,0,0,0,2.07,2,9.78,9.78,0,0,1,3.08,16.69,3.62,3.62,0,0,0-1.09,2.8c1.32,12.8,2.72,25.81,4.06,38.39l.53,4.94c.75,7,1.51,13.94,2.28,21l.57,5.2h-.76l-2,0-2,0a16.71,16.71,0,0,1-7.43-1.35,1.12,1.12,0,0,0-.43-.1,1.06,1.06,0,0,0-.54.16,1,1,0,0,0-.46.84v6.81a1,1,0,0,0,1,1h10c3.43,0,5.11,1.68,5.12,5.13v1.08c0,1.15,0,2.29,0,3.44a4.34,4.34,0,0,1-4.42,4.5l-18.91,0q-9.4,0-18.79,0a4.31,4.31,0,0,1-4.35-4.39c0-1.68,0-3.37,0-5a4.42,4.42,0,0,1,4.68-4.74h10.39a1,1,0,0,0,1-1l0-.62c0-.39,0-.76,0-1.13v-5.68c0-4.92,0-10,0-15a3.31,3.31,0,0,0-1.9-3.26,14,14,0,0,1-2.06-1.47L577,275c-3.42-2.72-4.32-5.3-3.14-8.91a60.93,60.93,0,0,0,1.9-8.58c.21-1.24.43-2.49.67-3.73a1,1,0,0,0-.64-1.13c-23.07-8.18-38-23.59-45.73-47.13a1,1,0,0,0-1.9,0c-7.66,23.47-22.61,38.89-45.7,47.13a1,1,0,0,0-.65,1.13l.46,2.39c.39,2,.79,4.05,1.19,6.08.16.82.34,1.63.51,2.44.33,1.57.68,3.18.92,4.77a2.52,2.52,0,0,1-.25,1.6c-1.29,1.36-2.69,2.67-4.05,3.94-.77.72-1.54,1.44-2.3,2.17a3.48,3.48,0,0,0-1.32,2.21c0,6.14,0,12.39,0,18.43V302a1.57,1.57,0,0,0,.16.63l.08.21a1,1,0,0,0,.94.65h9.64c3.72,0,5.31,1.58,5.32,5.27v1.35c0,1.06,0,2.11,0,3.16a4.34,4.34,0,0,1-4.38,4.37Q479.25,317.66,469.82,317.65ZM451.1,307a1,1,0,0,0-1,1v5.19a1,1,0,0,0,1,1h37.51a1,1,0,0,0,1-1V308a1,1,0,0,0-1-1Zm118.49,0a1,1,0,0,0-1,1v5.21a1,1,0,0,0,1,1H607.1a1,1,0,0,0,1-1v-5.21a1,1,0,0,0-1-1Zm-97.27-27.41-2.63.35a1,1,0,0,0-.87,1,14.89,14.89,0,0,1-2.38,9.52,1.92,1.92,0,0,0-.3,1V302.4a1,1,0,0,0,1,1h5.31a1,1,0,0,0,1-1V280.52a1,1,0,0,0-1-1Zm113.46,0a1,1,0,0,0-.65.24,1,1,0,0,0-.35.76v21.85a1,1,0,0,0,1,1h5.27a1,1,0,0,0,1-1c0-3.55,0-7,0-10.37a2.54,2.54,0,0,0-.31-1.53,15,15,0,0,1-2.37-9.51,1,1,0,0,0-.86-1l-2.57-.39Zm11.87-50.11a1,1,0,0,0-.67.26l-.92.85a14.31,14.31,0,0,1-1.83,1.57,3.34,3.34,0,0,0-1.51,3.05q0,13.44,0,26.87,0,10.14,0,20.28c0,6.21,4.2,10.37,10.44,10.37h0c.35,0,.72,0,1.09,0a1,1,0,0,0,.69-.35,1,1,0,0,0,.23-.75l-6.56-61.21a1,1,0,0,0-.64-.83A1,1,0,0,0,597.65,229.38Zm-137.11-.11a1,1,0,0,0-1,.89L453,291.42a1,1,0,0,0,.86,1.09,11.81,11.81,0,0,0,1.56.11,9.68,9.68,0,0,0,10-9.74c.06-14.86,0-30,0-44.57v-3.6a3.26,3.26,0,0,0-.86-2.11c-.71-.73-1.47-1.41-2.28-2.13l-1-.94A1,1,0,0,0,460.54,229.27Zm124.31,4.37a1,1,0,0,0-.93.63l-.07.16a2.73,2.73,0,0,0-.18.53l-.47,2.32c-2.05,10.15-4.16,20.65-6.19,31a3.6,3.6,0,0,0,.79,2.79,15.84,15.84,0,0,0,10.34,5.32h.12a1,1,0,0,0,.66-.26,1,1,0,0,0,.34-.74V235.21a1,1,0,0,0-.84-1l-3.4-.57Zm-111.42,0h-.18l-3.52.63a1,1,0,0,0-.83,1v40a1,1,0,0,0,.3.71,1,1,0,0,0,.7.29h0A15.49,15.49,0,0,0,480,271.58a3.94,3.94,0,0,0,1.12-3.92c-1-5-2.06-10.09-3-15l-1.21-6.07c-.64-3.21-1.29-6.42-1.94-9.65l-.51-2.52A1,1,0,0,0,473.43,233.61Zm52.95-48.71a1,1,0,0,0-.59.19l-3.22,2.34a1,1,0,0,0-.4,1c1,5.58.69,6.74-3.28,11.32a4.87,4.87,0,0,0-.87,1.89c-5.4,18.79-17.32,32.09-35.43,39.52-.52.22-1,.41-1.58.62l-.74.27a1,1,0,0,0-.62,1.13l.12.66c.23,1.19.45,2.31.67,3.42.05.24.12.49.22.81l.13.43a1,1,0,0,0,.5.61.92.92,0,0,0,.46.11,1,1,0,0,0,.33-.05A66.41,66.41,0,0,0,519,218.45a65.12,65.12,0,0,0,8.37-32.55,1,1,0,0,0-.55-.89A1,1,0,0,0,526.38,184.9Zm10.79-12.71a1,1,0,0,0-.84.47c-.37.59-.68,1.17-1,1.74a6.39,6.39,0,0,1-1.63,2.33c-3.29,2.18-3.1,5.27-3,7.75,0,.39,0,.78,0,1.17s0,.66,0,1c.69,23.87,11.18,42.65,31.18,55.81a56.15,56.15,0,0,0,14.25,6.67,1,1,0,0,0,.3,0A1,1,0,0,0,577,249a1,1,0,0,0,.47-.66c.38-1.87.71-3.53,1-5.16a1,1,0,0,0-.59-1.12l-2-.78c-1.35-.54-2.63-1.05-3.86-1.66-19.94-9.72-31.25-25.77-33.6-47.7a103.73,103.73,0,0,1-.35-11.42c0-1.77,0-3.54,0-5.31v-2a1,1,0,0,0-.72-1A1.26,1.26,0,0,0,537.17,172.19ZM495.6,204.76a1,1,0,0,0-.53.15c-3.85,2.39-4,2.5-6.37,6a2.11,2.11,0,0,1-.17.22,2.46,2.46,0,0,0-.55.87c0,.11-.08.24-.12.36a4.11,4.11,0,0,0-.36,2.08,9.63,9.63,0,0,1-6,10.84,4.21,4.21,0,0,0-2.75,2.83,5.73,5.73,0,0,1-.55,1,4.2,4.2,0,0,0-.86,2.34,25.71,25.71,0,0,0,.79,4.51c.14.6.29,1.22.42,1.86a1,1,0,0,0,.49.67,1.05,1.05,0,0,0,.49.13,1.15,1.15,0,0,0,.35-.07c14.47-5.43,24.82-14.86,31.63-28.82a1,1,0,0,0-.9-1.44,1.06,1.06,0,0,0-.42.09,13.38,13.38,0,0,1-5.63,1.43c-3.09,0-5.78-1.53-8.21-4.67A1,1,0,0,0,495.6,204.76Zm47-32.16a.94.94,0,0,0-.58.19,1,1,0,0,0-.42.81c0,1.57,0,3.1,0,4.59,0,3.18,0,6.18,0,9.2.6,18.41,8.32,33.22,23,44a50.26,50.26,0,0,0,13.79,7.11.86.86,0,0,0,.32.05,1,1,0,0,0,.54-.15,1,1,0,0,0,.45-.73,19.61,19.61,0,0,1,.49-2.37c.58-2.26,1.22-4.83-.83-7.34a1.59,1.59,0,0,0-.38-.74l-.14-.16a12.15,12.15,0,0,0-1.5-1.45c-.71-.56-1.42-1.09-2.14-1.63-1-.74-2-1.5-3-2.28a8.51,8.51,0,0,1-1-1.05,13.15,13.15,0,0,0-1.17-1.2A41.84,41.84,0,0,1,554.67,191c-.27-2.59-.28-5.27-.29-7.86,0-1.48,0-3-.07-4.51,0-.53-.32-2.1-1.36-2.49-2.51-.93-5-1.78-7.7-2.67l-2.36-.8A1.13,1.13,0,0,0,542.57,172.6Zm-79.06,50c-.37,3.57.73,6,3.37,7.41a6.4,6.4,0,0,0,3,.79,6.52,6.52,0,0,0,6.11-8.2,12.23,12.23,0,0,0,1.44.09,6.39,6.39,0,0,0,6.05-3.32,6,6,0,0,0-.28-6.61,6.35,6.35,0,0,0-5.66-2.86,11.58,11.58,0,0,0-1.4.09c.25-3.79-.78-6.08-3.35-7.42a6.52,6.52,0,0,0-3-.77,6.48,6.48,0,0,0-6.12,8.21,12.42,12.42,0,0,0-1.55-.1,6.3,6.3,0,0,0-5.65,2.83,6,6,0,0,0-.11,6.94,6.32,6.32,0,0,0,5.74,3h0A11.87,11.87,0,0,0,463.51,222.56Zm118.55,0a8.28,8.28,0,0,0,1.78,6.28,5.92,5.92,0,0,0,4.41,1.89h.13a5.84,5.84,0,0,0,4.42-1.83,8.36,8.36,0,0,0,1.86-6.33,11.87,11.87,0,0,0,1.41.09,6.31,6.31,0,0,0,5.75-3,6,6,0,0,0,0-6.78,6.3,6.3,0,0,0-5.7-3,12.48,12.48,0,0,0-1.45.1c.42-3.4-.6-5.79-3.1-7.29a6,6,0,0,0-6.78.24c-2.88,2-3,4.9-2.72,7a11.42,11.42,0,0,0-1.39-.09,6.32,6.32,0,0,0-5.78,3,6,6,0,0,0,0,6.77,6.33,6.33,0,0,0,5.72,3A12.32,12.32,0,0,0,582.06,222.55Zm-23.18-43.23a1.07,1.07,0,0,0-.46.11,1,1,0,0,0-.54.81c-1.12,13.76,2.57,24.83,11.3,33.83a1,1,0,0,0,.72.3.75.75,0,0,0,.21,0,1,1,0,0,0,.73-.64c1.26-3.52,3.25-5.64,6.26-6.65a2.7,2.7,0,0,0,1.65-1.24,2.82,2.82,0,0,0-.06-2.16A47.19,47.19,0,0,0,570,188.59a45.09,45.09,0,0,0-10.6-9.12A1,1,0,0,0,558.88,179.32Zm-78.42,25.47a1,1,0,0,0-.13,1.83L485,209.1a1.12,1.12,0,0,0,.47.11,1,1,0,0,0,1-.87l.59-4.33,5.29-1a1,1,0,0,0,.42-1.78l-3.58-2.76a1,1,0,0,0-.61-.22.83.83,0,0,0-.22,0,1,1,0,0,0-.67.53l-1.92,3.85a.79.79,0,0,0-.08.26Zm18.09-6.64c-.43,3.64.66,6.11,3.33,7.56a6,6,0,0,0,6.75-.52,6.35,6.35,0,0,0,2.39-6.81h1.57c.3,0,.6,0,.9,0a6.4,6.4,0,0,0,4.82-2.94,6.08,6.08,0,0,0,.64-5.33,3.46,3.46,0,0,0-1.85-1.84c-1.31-.55-2.65-1-4-1.5l-1.48-.54a1.07,1.07,0,0,0-.35-.06,1,1,0,0,0-.81,1.58c2,2.85,1.92,5.82-.34,9.08a1.12,1.12,0,0,0-.17.46h0a1,1,0,0,0-.58.19,7.73,7.73,0,0,1-4.52,1.62,8.23,8.23,0,0,1-4.75-1.73,1,1,0,0,0-.57-.19,1,1,0,0,0-.18-.61c-2.2-3.11-2.16-6.06.12-9.27a1,1,0,0,0,.19-.63.92.92,0,0,0,.45-.12c2-1.05,3.29-1.63,4.58-1.63s2.74.56,4.94,1.58a1.06,1.06,0,0,0,.42.09,1,1,0,0,0,.76-.35,1,1,0,0,0,.07-1.2l-.35-.52c-.15-.23-.29-.43-.42-.64a15.08,15.08,0,0,0-5.49-5.37,3.11,3.11,0,0,0-1.5-.35,3.28,3.28,0,0,0-1.52.34c-2.46,1.31-3.56,4-3,7.21a13.8,13.8,0,0,0-1.4-.07,6.33,6.33,0,0,0-6.12,3.44,6.35,6.35,0,0,0,5.61,9.3h0A8.16,8.16,0,0,0,498.55,198.15Zm-18-4.44a3.68,3.68,0,0,0,0,7.36,3.68,3.68,0,1,0,0-7.36Zm54.85-32.25c-.56,0-1.11,0-1.66,0a1,1,0,0,0-.76,1.61l.48.6a12.89,12.89,0,0,1,.82,1.08l.22.33a4.17,4.17,0,0,1,.67,1.25c.55,2.35,2.41,2.56,3.53,2.68,19,2.14,32.9,12,41.43,29.24l.77,1.53a1,1,0,0,0,.89.55,1.07,1.07,0,0,0,.39-.07l4.82-2a1,1,0,0,0,.54-1.29C579.28,176.06,557.83,161.46,535.43,161.46ZM472.68,191a6.39,6.39,0,0,0-4.41,1.7,5.93,5.93,0,0,0-2.1,5,1,1,0,0,0,1,.93h5a1,1,0,0,0,.95-.68l1.87-5.43a.82.82,0,0,0,.06-.38h0a1.21,1.21,0,0,0,.37.07,1,1,0,0,0,.58-.19,7.75,7.75,0,0,1,4.54-1.63,8.15,8.15,0,0,1,4.81,1.79,1,1,0,0,0,.59.19,1,1,0,0,0,.37-.07,1,1,0,0,0,.61-.75l.41-2.21a1,1,0,0,0-.71-1.15,10.92,10.92,0,0,1-6-4,2.26,2.26,0,0,0-1.76-.7,2.61,2.61,0,0,0-1,.17c-2.77,1.15-4.13,4.12-3.47,7.59l-.17-.05A8,8,0,0,0,472.68,191Zm32.16-2.64a3.69,3.69,0,0,0-3.67,3.64,3.73,3.73,0,0,0,3.62,3.73h0a3.69,3.69,0,0,0,.11-7.37Zm-35.54-18.7a37.86,37.86,0,0,0-17.92,6.16,1,1,0,0,0-.34,1.3,26,26,0,0,0,10.39,10.84,9.41,9.41,0,0,0,4.41,1.57h0a5.09,5.09,0,0,0,3.27-1.27,2.5,2.5,0,0,1,.55-.31,3,3,0,0,0,1.37-1,16.27,16.27,0,0,0,1.2-2.49c.14-.34.28-.69.43-1a1,1,0,0,0,0-.88,1,1,0,0,0-.71-.51l-9.44-1.62.55-3.3,8.81,1.44H472a1,1,0,0,0,.93-1.36l-2.62-6.88a1,1,0,0,0-.93-.64Zm42.7,7.14c-.37,3.57.73,6,3.37,7.4a6.39,6.39,0,0,0,9.08-7.45,11.56,11.56,0,0,0,1.16.06h0c4.28,0,7.09-2.43,7.17-6.19a5.91,5.91,0,0,0-1.64-4.38,8,8,0,0,0-5.86-2.08l-.65,0c.24-2.21.12-5.23-3-7.17a6.2,6.2,0,0,0-3.36-1,6.36,6.36,0,0,0-3.57,1.16c-2.88,2-3,4.88-2.74,7-.43,0-.84-.05-1.23-.05a6.42,6.42,0,0,0-6,3.15A6.05,6.05,0,0,0,505,174a6.33,6.33,0,0,0,5.65,2.86C511,176.84,511.5,176.81,512,176.76Zm-29.68,0c0,.26,0,.51,0,.75a14.55,14.55,0,0,0,0,1.62,6,6,0,0,0,5.93,5.62,6.29,6.29,0,0,0,3.32-1,12.73,12.73,0,0,1,1.28-.63c.36-.15.72-.31,1.06-.49l.11-.06a2.42,2.42,0,0,0,1.36-1.28,10.59,10.59,0,0,1,5.15-6.18,1,1,0,0,0,.49-1.06c-.06-.34-.14-.67-.21-1a11,11,0,0,1-.3-1.76,11.66,11.66,0,0,1,.18-2.76,3.14,3.14,0,0,0-3.29-4.45c-.31,0-.63,0-1,0H495c.36-3.52-.74-5.93-3.35-7.35a6.24,6.24,0,0,0-3-.8,6.47,6.47,0,0,0-3.91,1.42c-2,1.5-2.81,4-2.22,6.83-.42,0-.82-.06-1.21-.06-4.24,0-7,2.42-7.1,6.17a5.92,5.92,0,0,0,1.63,4.4,8,8,0,0,0,5.88,2.08h0ZM461.27,156a20.53,20.53,0,0,0-2.63.16,1,1,0,0,0-.68.38,1,1,0,0,0-.2.75l1.34,9.42a1,1,0,0,0,1,.86h.14l2-.27,8.6-1.21a2.59,2.59,0,0,0,1.43-.73c.81-.86,1.59-1.74,2.38-2.62l.85-1a1,1,0,0,0-.16-1.47A24.7,24.7,0,0,0,461.27,156Zm8.59,67.31a8.13,8.13,0,0,1-4.75-1.73.62.62,0,0,1-.65-.65c-2.29-3.2-2.29-6.18,0-9.4a1,1,0,0,0,.19-.64h0a1.09,1.09,0,0,0,.49-.13c2.1-1.18,3.4-1.63,4.63-1.63s2.61.48,4.84,1.71a1,1,0,0,0,.34.12,1,1,0,0,0,.19.59c2.31,3.14,2.32,6.13,0,9.41a1,1,0,0,0-.18.55h-.05a1,1,0,0,0-.58.19A7.72,7.72,0,0,1,469.86,223.33Zm-.13-10.76a3.7,3.7,0,0,0-2.57,1.16,3.62,3.62,0,0,0-1,2.62,3.66,3.66,0,0,0,6.33,2.43,3.6,3.6,0,0,0,1-2.62,3.7,3.7,0,0,0-3.68-3.59Zm118.61,10.76a8.11,8.11,0,0,1-4.7-1.69.62.62,0,0,1-.63-.71c-2.32-3.14-2.32-6.13,0-9.39a.9.9,0,0,0,.17-.47.92.92,0,0,0,.5-.18,7.32,7.32,0,0,1,9.39,0,1,1,0,0,0,.48.18,1,1,0,0,0,.18.51c2.29,3.19,2.29,6.17,0,9.38a1.12,1.12,0,0,0-.17.46,1,1,0,0,0-.49.18A8,8,0,0,1,588.34,223.33Zm0-10.76a3.69,3.69,0,1,0,2.66,6.25,3.61,3.61,0,0,0,1-2.6,3.68,3.68,0,0,0-3.68-3.65Zm-70-35a8.15,8.15,0,0,1-4.75-1.74,1.08,1.08,0,0,0-.48-.18,1,1,0,0,0-.18-.46c-2.28-3.22-2.27-6.22,0-9.43a.62.62,0,0,1,.64-.64,7.31,7.31,0,0,1,9.41,0,1,1,0,0,0,.43.17.92.92,0,0,0,.19.47c2.31,3.19,2.33,6.18.06,9.41a.9.9,0,0,0-.18.59h-.1a1,1,0,0,0-.58.18A7.67,7.67,0,0,1,518.35,177.53Zm0-10.76a3.7,3.7,0,0,0-3.69,3.61,3.75,3.75,0,0,0,3.62,3.75h0a3.7,3.7,0,0,0,3.74-3.62,3.69,3.69,0,0,0-3.61-3.74Zm-29.17,10.7a11.53,11.53,0,0,1-5.36-1.66,1.06,1.06,0,0,0-.25-.09,1,1,0,0,0-.19-.56C481,172,481,169,483.28,165.77a.94.94,0,0,0,.18-.6h.09a1,1,0,0,0,.58-.18,7.7,7.7,0,0,1,4.51-1.62,8.2,8.2,0,0,1,4.76,1.74,1,1,0,0,0,.58.18h0a1.06,1.06,0,0,0,.09.25c2.26,4.49,2.11,7.47-.5,10A6.14,6.14,0,0,1,489.15,177.47Zm-.47-10.71a3.69,3.69,0,0,0-.11,7.37h.11a3.68,3.68,0,0,0,.12-7.36Z"/><path class="cls-5" d="M1151,245.79a2.25,2.25,0,0,0-3.1.87c-1.4,2.23-2.72,4.49-4.08,6.73a5.43,5.43,0,0,1-.75-.23,35.65,35.65,0,0,0-22.35-2.76c-5.08.95-10.07-.22-14.76-2.8a154,154,0,0,1,26.84-40c4,2.5,8,5,12,7.38,1.45.89,2.79.69,3.54-.47s.39-2.52-1-3.41c-4-2.49-8-5-12-7.4a4.36,4.36,0,0,0-5.91.84c-11.6,12.56-21.31,26.46-28,42.25-4.51,10.69-3.81,21.28,3.24,31.22-4.1,6.66-8.36,13.56-12.63,20.51-1-.61-1.82-1.14-2.67-1.62a8.9,8.9,0,0,0-7.61-.8c-2.87,1-4.49,3.16-5.82,5.68V304a9.81,9.81,0,0,0,1.81,2q9,5.67,18.06,11.17a3.7,3.7,0,0,0,4.79-.82,9.13,9.13,0,0,0-1.69-13.52c-.93-.63-1.89-1.22-2.92-1.87,4.18-6.8,8.3-13.5,12.45-20.16a1.26,1.26,0,0,1,1.11-.4c5,1.48,9.72.19,14.41-1.33,1.6-.53,2.27-1.79,1.8-3.08s-1.7-1.74-3.34-1.29c-1.94.54-3.87,1.12-5.85,1.48-5.8,1-9.76-1.19-11.46-6.82a43.68,43.68,0,0,1-1.65-9.58c-.16-2.51.43-5.07.69-7.76.6.21.79.26,1,.34a30.25,30.25,0,0,0,18.91,2.29,27.32,27.32,0,0,1,5.86-.35,28.13,28.13,0,0,1,11.29,3.17c-3.25,4.3-6,8.78-10,12.21-1.42,1.2-1.66,2.53-.77,3.62s2.38,1.17,3.77-.15a36.37,36.37,0,0,0,4.82-5c4.27-6,8.34-12.21,12.49-18.32a8.13,8.13,0,0,0,.47-.81A2.3,2.3,0,0,0,1151,245.79Zm-54.72,61c2,1.34,2.38,3.61,1,6l-16.4-10.13c1.39-2.27,3.59-3,5.74-1.8C1089.94,302.69,1093.15,304.68,1096.3,306.75Zm138.23-4.68c-2.52-6.3-8.73-7.91-13.39-5.16-.88.51-1.75,1-2.74,1.64l-12.57-20.43a48.2,48.2,0,0,0,3.49-6.13,33.06,33.06,0,0,0-.87-26.68,153.25,153.25,0,0,0-12.29-21.72c-.55-.81-1.1-1.63-1.68-2.42-1-1.38-2.3-1.68-3.46-.85s-1.25,2.06-.37,3.43c.36.56.76,1.1,1.14,1.66a151.72,151.72,0,0,1,12.64,22.21,25,25,0,0,1-15.3,2.78c-1.64-.22-3.27-.52-4.91-.69a2.31,2.31,0,1,0-.53,4.58c1,.15,2,.23,3.07.42a29.66,29.66,0,0,0,18.17-2.15c.34-.15.72-.25,1.14-.4a29,29,0,0,1-1.29,18.84,8.63,8.63,0,0,1-8.76,5.41,29.34,29.34,0,0,1-10.57-2.76c-7.4-3.36-11.67-9.8-16.08-16.13.13-.12.2-.22.29-.25l3.73-1.49c1.58-.65,2.21-1.84,1.7-3.16s-1.79-1.74-3.38-1.16-3.35,1.29-5.09,2a154.73,154.73,0,0,1-14.88-29.8l25.9-16c2.22,2.58,4.39,5.13,6.59,7.67,1.24,1.45,2.47,1.67,3.6.7s1.07-2.33-.09-3.7c-2-2.33-4-4.65-6-6.93-2.56-2.87-4.29-3.09-7.58-1.06L1150,219.22c-2.94,1.82-3.55,3.66-2.31,6.94a163.48,163.48,0,0,0,21.86,39.69c4.54,6.09,10,10.89,17.26,13.35,4.38,1.49,8.86,2.59,13.5,1.32a1.52,1.52,0,0,1,2.07.85c3.73,6.14,7.51,12.26,11.27,18.38.24.39.45.8.72,1.28l-1.77,1.11c-5.48,3.4-6.6,9-2.87,14.2a3.76,3.76,0,0,0,5.18,1.24q9.08-5.52,18.07-11.17A3.51,3.51,0,0,0,1234.53,302.07Zm-21.12,11.05c-1.74-2.2-1.53-4.88.63-6.31,3.17-2.11,6.42-4.12,9.72-6,2.28-1.29,4.51-.4,6,2.21Zm-51.63-142.45c-2.1-.78-4.34-1.17-6.61-1.76-2.31.58-4.6,1-6.76,1.76-3.06,1.07-4,4-2.34,6.78s3.33,5.35,5.06,8c2,3.13,5.72,3.16,7.77.05,1.76-2.67,3.47-5.39,5.14-8.12S1164.77,171.77,1161.78,170.67ZM1155,183l-5.06-8a12.43,12.43,0,0,1,10.12,0Zm-19.41,8c-.43-2.7-.91-5.4-1.47-8.08a3.89,3.89,0,0,0-5-3.08,13.8,13.8,0,0,0-9,8.19,3.68,3.68,0,0,0,1.86,5c3,1.09,6.22,1.83,8.7,2.53C1134,195.67,1136,193.56,1135.63,191Zm-10.83-1.88a9.14,9.14,0,0,1,5-4.58c.37,2.08.73,4,1.12,6.17Zm65.23-1.56a14,14,0,0,0-8.5-7.64,3.82,3.82,0,0,0-5.18,2.74,87.66,87.66,0,0,0-1.57,8.68c-.3,2.32,1.59,4.2,4.57,4.23,2.32-.62,5.28-1.33,8.18-2.21C1190.19,192.57,1191.2,190.11,1190,187.56Zm-10.5,3.17c.38-2.14.73-4.06,1.11-6.19a9.26,9.26,0,0,1,5,4.58Zm20.35,5.78a51.94,51.94,0,0,1-3.27,5.43,2.53,2.53,0,0,1-2.47.06,2.85,2.85,0,0,1-.92-2.44,14.14,14.14,0,0,1,2.25-4.34,2.74,2.74,0,0,1,2.4-.65C1198.58,194.76,1199.09,195.7,1199.88,196.51Zm-86.37,14.81a15.81,15.81,0,0,1-4.49,2.31,2.72,2.72,0,0,1-2.28-1c-.4-.54-.43-2,0-2.34a59.47,59.47,0,0,1,5.47-3.44c.84.81,1.81,1.32,2,2A2.79,2.79,0,0,1,1113.51,211.32Zm1-8.89c-.94,0-1.51-1.13-2-2.28-.63-1.54-2.31-2.87-1.12-4.8a2.17,2.17,0,0,1,3.66-.1,23.45,23.45,0,0,1,2.23,4.38C1117.8,201,1116.58,202.45,1114.48,202.43Zm89.2,10.18a2.78,2.78,0,0,1-2.41,1,14,14,0,0,1-4.35-2.23,2.71,2.71,0,0,1-.7-2.4c.23-.76,1.2-1.29,2-2.06a48.92,48.92,0,0,1,5.36,3.25A2.53,2.53,0,0,1,1203.68,212.61Zm9.31,106a4.47,4.47,0,0,1-3.62-2,9.69,9.69,0,0,1,3-14.91l1.37-.87,0,0c-.15-.28-.3-.54-.45-.79l-3.36-5.47q-4-6.45-7.92-12.92c-.43-.71-.63-.87-1.5-.63-4.8,1.32-9.47.14-13.8-1.33-6.68-2.26-12.4-6.69-17.5-13.52a164.56,164.56,0,0,1-21.92-39.81c-1.33-3.49-.62-5.61,2.51-7.54l24.13-14.93c3.51-2.16,5.51-1.88,8.21,1.16,2.09,2.34,4.11,4.71,6,6.94,1.33,1.56,1.34,3.29,0,4.4-.79.67-2.4,1.47-4.31-.75-1.47-1.69-2.92-3.4-4.39-5.11l-1.92-2.24-25.19,15.56a153.47,153.47,0,0,0,14.47,29l1.3-.51c1.15-.45,2.28-.89,3.42-1.31,1.84-.67,3.41-.1,4,1.45s-.16,3.06-2,3.8l-2.16.86-1.35.54.26.38c4.11,5.91,8.36,12,15.33,15.17a28.5,28.5,0,0,0,10.39,2.72,8.11,8.11,0,0,0,8.27-5.11,28.29,28.29,0,0,0,1.39-18l-.58.22a30.43,30.43,0,0,1-18.46,2.19c-.63-.12-1.26-.2-1.89-.28-.39,0-.78-.09-1.16-.15a2.83,2.83,0,0,1-2.66-3,2.73,2.73,0,0,1,1-1.91,3.06,3.06,0,0,1,2.31-.64c1,.1,1.93.25,2.89.4l2,.29a24.29,24.29,0,0,0,14.58-2.5,150.31,150.31,0,0,0-12.39-21.71l-.42-.6c-.25-.36-.5-.71-.73-1.07-1-1.58-.82-3.16.5-4.11s3-.62,4.15,1c.58.79,1.14,1.61,1.69,2.43a153.57,153.57,0,0,1,12.33,21.79,33.6,33.6,0,0,1,.88,27.07,24.46,24.46,0,0,1-2.28,4.18c-.36.57-.73,1.16-1.09,1.77l12.16,19.75.67-.41,1.64-1a9.51,9.51,0,0,1,7.89-.86,10.45,10.45,0,0,1,6.22,6.27h0a4,4,0,0,1-1.71,5c-6.17,3.87-12.25,7.63-18.07,11.17A4.32,4.32,0,0,1,1213,318.65Zm-11.9-38.75a2,2,0,0,1,1.76,1.21c2.62,4.32,5.27,8.62,7.91,12.92l3.36,5.46c.16.27.31.54.48.84l.48.86-2.17,1.37a8.72,8.72,0,0,0-2.73,13.49,3.24,3.24,0,0,0,4.51,1.1c5.81-3.53,11.89-7.29,18.06-11.16a3,3,0,0,0,1.32-3.73h0a9.48,9.48,0,0,0-5.62-5.7,8.47,8.47,0,0,0-7.06.78c-.54.31-1.07.64-1.64,1l-1.52.91-13-21.1.15-.26c.41-.71.84-1.39,1.25-2.05a24.14,24.14,0,0,0,2.2-4,32.59,32.59,0,0,0-.86-26.29,153.12,153.12,0,0,0-12.25-21.65c-.54-.81-1.09-1.61-1.67-2.4s-1.49-1.65-2.76-.75a1.9,1.9,0,0,0-.24,2.76c.23.35.47.69.71,1l.42.62a150.8,150.8,0,0,1,12.68,22.28l.2.43-.42.22a25.33,25.33,0,0,1-15.59,2.83c-.69-.09-1.37-.19-2.06-.3-1-.14-1.89-.28-2.85-.39a2.14,2.14,0,0,0-1.57.42,1.77,1.77,0,0,0-.64,1.23,1.86,1.86,0,0,0,1.81,1.94l1.14.15c.65.08,1.3.16,1.95.28a29.36,29.36,0,0,0,17.87-2.11,6.29,6.29,0,0,1,.8-.29l.89-.31.14.53a29.28,29.28,0,0,1-1.31,19.15,9.06,9.06,0,0,1-9.24,5.72,29.65,29.65,0,0,1-10.76-2.81c-7.21-3.27-11.54-9.49-15.73-15.51l-.79-1.14.4-.38a.86.86,0,0,1,.36-.27l1.57-.63,2.15-.86c1.32-.53,1.83-1.45,1.42-2.51s-1.42-1.35-2.73-.87c-1.14.42-2.26.86-3.4,1.3l-2.07.8-.22-.34a154.05,154.05,0,0,1-14.93-29.9l-.14-.38L1177.74,207l2.48,2.9,4.38,5.1c1.39,1.62,2.33,1.15,2.91.65.87-.74.81-1.86-.15-3-1.89-2.22-3.9-4.58-6-6.92-2.37-2.66-3.87-2.87-6.94-1l-24.13,14.93c-2.74,1.69-3.27,3.29-2.11,6.33a163.5,163.5,0,0,0,21.8,39.57c5,6.67,10.53,11,17,13.17,4.83,1.64,8.93,2.49,13.21,1.32A3.39,3.39,0,0,1,1201.09,279.9Zm-103.42,38.33a4.19,4.19,0,0,1-2.16-.61c-6.2-3.77-12.28-7.53-18.07-11.18a5.48,5.48,0,0,1-1.39-1.45c-.17-.23-.34-.46-.52-.66l-.13-.14V301.7l.06-.11c1.23-2.33,2.92-4.86,6.1-5.93a9.46,9.46,0,0,1,8,.84c.59.34,1.17.7,1.8,1.1l.45.27c3.29-5.33,6.55-10.63,9.74-15.82l2.46-4c-6.77-9.71-7.81-20.29-3.1-31.44,6.26-14.85,15.44-28.72,28.07-42.39a4.88,4.88,0,0,1,6.52-.93c3.84,2.31,7.59,4.63,12,7.41a3.32,3.32,0,0,1,1.6,2.05,2.69,2.69,0,0,1-.41,2.06c-.9,1.39-2.56,1.64-4.22.62-2.79-1.71-5.57-3.43-8.38-5.17l-3.23-2a155,155,0,0,0-26.27,39.11,21.15,21.15,0,0,0,14,2.51,36,36,0,0,1,22.65,2.81,1.62,1.62,0,0,0,.31.1l1.07-1.78c.93-1.55,1.86-3.1,2.82-4.63a2.74,2.74,0,0,1,3.76-1.05h0a2.78,2.78,0,0,1,1.08,3.87,7.61,7.61,0,0,1-.51.87q-1.68,2.47-3.34,5c-3,4.4-6,9-9.15,13.37a29.34,29.34,0,0,1-4,4.27l-.89.84a3.58,3.58,0,0,1-2.61,1.14,2.63,2.63,0,0,1-1.9-1c-1.08-1.31-.76-3,.83-4.31a48.35,48.35,0,0,0,7.74-9.1c.61-.84,1.22-1.69,1.85-2.54a26.66,26.66,0,0,0-10.53-2.86,26.39,26.39,0,0,0-5.76.34,30.51,30.51,0,0,1-19.21-2.32l-.33-.13c-.07.64-.16,1.27-.24,1.89a26.38,26.38,0,0,0-.38,5.17,42.94,42.94,0,0,0,1.63,9.47c1.6,5.3,5.27,7.48,10.9,6.46,1.63-.29,3.27-.75,4.85-1.19l1-.27c1.94-.54,3.37,0,3.94,1.59a2.7,2.7,0,0,1-.08,2.11,3.35,3.35,0,0,1-2,1.62c-4.84,1.57-9.59,2.85-14.72,1.34a.91.91,0,0,0-.54.19c-3.68,5.9-7.33,11.83-11,17.83l-1.16,1.9.52.33c.69.43,1.35.85,2,1.29a9.63,9.63,0,0,1,1.78,14.26A4.29,4.29,0,0,1,1097.67,318.23Zm-21.27-14.42.45.58a4.72,4.72,0,0,0,1.13,1.21c5.78,3.64,11.85,7.4,18,11.17a3.18,3.18,0,0,0,4.15-.72,8.64,8.64,0,0,0-1.6-12.79c-.63-.43-1.28-.84-2-1.27l-1.35-.86,1.68-2.73c3.69-6,7.34-11.94,11-17.85a1.7,1.7,0,0,1,1.66-.61c4.85,1.43,9.45.19,14.13-1.33a2.33,2.33,0,0,0,1.44-1.11,1.67,1.67,0,0,0,0-1.32c-.48-1.3-1.75-1.25-2.73-1l-1,.27c-1.61.45-3.27.92-5,1.22-6.12,1.1-10.28-1.38-12-7.16a43.19,43.19,0,0,1-1.67-9.69,26,26,0,0,1,.38-5.38c.11-.81.22-1.64.3-2.47l.07-.64,1.08.38a4.84,4.84,0,0,1,.53.2,29.56,29.56,0,0,0,18.61,2.25,27.71,27.71,0,0,1,6-.36c3.52.11,7.06,1.1,11.48,3.22l.55.26-.37.49c-.75,1-1.48,2-2.2,3-2.45,3.39-4.75,6.6-7.9,9.27-.68.58-1.68,1.73-.71,2.92a1.69,1.69,0,0,0,1.19.67,2.68,2.68,0,0,0,1.86-.86l.89-.85a27.78,27.78,0,0,0,3.86-4.12c3.12-4.4,6.18-8.95,9.14-13.35,1.11-1.66,2.23-3.31,3.34-5a5.66,5.66,0,0,0,.44-.75,1.8,1.8,0,0,0-.66-2.56h0a1.75,1.75,0,0,0-2.43.71c-1,1.52-1.89,3.07-2.81,4.61l-1.27,2.11-.2.33-.69-.2a2.53,2.53,0,0,1-.51-.17,35,35,0,0,0-22-2.72c-4.9.92-10,0-15.09-2.85l-.41-.23.2-.42a155.65,155.65,0,0,1,26.92-40.09l.28-.3,3.93,2.43c2.8,1.74,5.58,3.46,8.37,5.17,1.19.73,2.26.61,2.86-.32a1.7,1.7,0,0,0,.27-1.29,2.35,2.35,0,0,0-1.15-1.42c-4.43-2.78-8.17-5.1-12-7.41a3.87,3.87,0,0,0-5.28.76c-12.54,13.58-21.66,27.35-27.88,42.1-4.61,10.92-3.54,21.26,3.18,30.74l.2.27-2.81,4.55-10,16.24-.26.43-1.3-.8c-.63-.39-1.2-.74-1.78-1.08a8.41,8.41,0,0,0-7.2-.76c-2.8.94-4.35,3.21-5.48,5.33Zm136.9,10-.28-.35a5.27,5.27,0,0,1-1.22-4.08,4.38,4.38,0,0,1,2-3c3.2-2.12,6.48-4.15,9.76-6,2.46-1.41,5-.49,6.69,2.39l.24.42-.41.25-16.36,10.11Zm12.52-13.06a3.63,3.63,0,0,0-1.81.52c-3.25,1.86-6.52,3.87-9.7,6a3.33,3.33,0,0,0-1.52,2.29,4.08,4.08,0,0,0,.75,2.94l15.55-9.61A4,4,0,0,0,1225.82,300.72Zm-128.31,12.72-17.27-10.66.26-.43c1.56-2.54,4.08-3.31,6.42-2,3.1,1.78,6.35,3.78,9.65,5.95h0c2.24,1.46,2.69,4,1.2,6.66Zm-15.88-11,15.51,9.57c.95-2,.56-3.76-1.12-4.87h0c-3.28-2.15-6.51-4.14-9.6-5.91C1084.67,300.24,1082.9,300.7,1081.63,302.46Zm27.11-88.3a3.42,3.42,0,0,1-2.41-1.23c-.48-.65-.61-2.49.07-3a38.15,38.15,0,0,1,3.92-2.52l1.6-.95.33-.2.28.27c.26.25.54.47.79.68a3.46,3.46,0,0,1,1.34,1.59,3.24,3.24,0,0,1-.85,2.95h0a16,16,0,0,1-4.63,2.38A1.56,1.56,0,0,1,1108.74,214.16Zm3.38-6.68-1.3.77a34.42,34.42,0,0,0-3.8,2.44,2.41,2.41,0,0,0,.12,1.65,2.28,2.28,0,0,0,1.73.81,15.33,15.33,0,0,0,4.35-2.23,2.39,2.39,0,0,0,.47-1.9c-.08-.32-.51-.67-1-1.06C1112.51,207.81,1112.31,207.65,1112.12,207.48Zm89.47,6.65a1.45,1.45,0,0,1-.47-.07,14.8,14.8,0,0,1-4.5-2.31,3.19,3.19,0,0,1-.88-2.95,3.69,3.69,0,0,1,1.39-1.63c.24-.2.5-.41.74-.64l.27-.26.33.19c.55.33,1.1.63,1.62.92a29.11,29.11,0,0,1,3.8,2.37c.69.53.72,2.41.2,3.14h0A3.48,3.48,0,0,1,1201.59,214.13Zm-3.31-6.62-.52.44a3.05,3.05,0,0,0-1.06,1.14,2.28,2.28,0,0,0,.52,1.86,13.93,13.93,0,0,0,4.19,2.16,2.38,2.38,0,0,0,1.86-.79h0a2.35,2.35,0,0,0,0-1.79,29.29,29.29,0,0,0-3.66-2.28Zm-83.76-4.58h0c-1.37,0-2.07-1.68-2.44-2.59a8,8,0,0,0-.62-1.13c-.67-1.09-1.5-2.45-.46-4.13a2.71,2.71,0,0,1,2.28-1.28,2.49,2.49,0,0,1,2.22,1.18,23.82,23.82,0,0,1,2.28,4.47,2.29,2.29,0,0,1-.26,2.15A3.51,3.51,0,0,1,1114.52,202.93Zm0-1h0a2.54,2.54,0,0,0,2.13-.9,1.3,1.3,0,0,0,.15-1.22,22.81,22.81,0,0,0-2.19-4.29,1.65,1.65,0,0,0-1.37-.73,1.73,1.73,0,0,0-1.44.82c-.68,1.1-.27,1.88.47,3.08A9.11,9.11,0,0,1,1113,200c.4,1,.89,2,1.51,2Zm80.89.86a2.66,2.66,0,0,1-1.52-.39,3.31,3.31,0,0,1-1.11-3,14.64,14.64,0,0,1,2.33-4.5,3.21,3.21,0,0,1,2.93-.83,3.37,3.37,0,0,1,1.57,1.3c.21.25.42.52.67.77l.27.27-.2.33-.93,1.65a30.23,30.23,0,0,1-2.38,3.83A2.09,2.09,0,0,1,1195.37,202.79Zm2-7.78a2.24,2.24,0,0,0-1.5.51,13.52,13.52,0,0,0-2.17,4.19,2.34,2.34,0,0,0,.74,1.89,2.29,2.29,0,0,0,1.78,0,29.88,29.88,0,0,0,2.29-3.7l.75-1.34c-.16-.18-.31-.37-.46-.55-.38-.46-.73-.89-1.06-1A2,2,0,0,0,1197.37,195Zm-18,1.06h-.06a5.43,5.43,0,0,1-4.14-1.68,3.89,3.89,0,0,1-.93-3.11c.36-2.83.9-5.77,1.58-8.73a4.29,4.29,0,0,1,2.08-2.85,4.58,4.58,0,0,1,3.76-.25,14.5,14.5,0,0,1,8.78,7.9,4.87,4.87,0,0,1,.16,4.06,4.57,4.57,0,0,1-3,2.43c-2.1.64-4.23,1.18-6.11,1.67l-2.09.54Zm.64-15.91a3.25,3.25,0,0,0-3.22,2.61c-.67,2.94-1.2,5.84-1.56,8.63a2.88,2.88,0,0,0,.7,2.33,4.4,4.4,0,0,0,3.32,1.34l2-.53c1.87-.48,4-1,6.07-1.65a3.52,3.52,0,0,0,2.33-1.9,3.85,3.85,0,0,0-.14-3.22h0a13.55,13.55,0,0,0-8.21-7.38A4.12,4.12,0,0,0,1180.05,180.16Zm-49,15.88h-.32l-.12,0c-.7-.2-1.46-.4-2.25-.61-2-.53-4.28-1.14-6.48-1.92a3.69,3.69,0,0,1-2.13-2,4.62,4.62,0,0,1,0-3.63,14.3,14.3,0,0,1,9.25-8.48,4.29,4.29,0,0,1,3.5.36,4.68,4.68,0,0,1,2.17,3.1c.54,2.58,1,5.3,1.47,8.1h0a4.15,4.15,0,0,1-1,3.49A5.33,5.33,0,0,1,1131.05,196Zm-.22-1a4.49,4.49,0,0,0,3.57-1.3,3.22,3.22,0,0,0,.74-2.66h0c-.44-2.78-.94-5.49-1.47-8.05a3.6,3.6,0,0,0-1.69-2.44,3.29,3.29,0,0,0-2.69-.28,13.36,13.36,0,0,0-8.64,7.91,3.68,3.68,0,0,0,0,2.84,2.64,2.64,0,0,0,1.56,1.47c2.16.77,4.41,1.37,6.39,1.9C1129.39,194.64,1130.14,194.84,1130.83,195Zm48.06-3.63,1.37-7.57.57.24a9.76,9.76,0,0,1,5.24,4.82l.28.55Zm2.13-6.15-.86,4.79,4.73-1.25A8.49,8.49,0,0,0,1181,185.26Zm-49.51,6.13-7.42-1.93.26-.55a9.58,9.58,0,0,1,5.21-4.82l.58-.25Zm-6-2.59,4.72,1.23-.87-4.76A8.34,8.34,0,0,0,1125.53,188.8Zm29.51-.5h0a5.25,5.25,0,0,1-4.33-2.59c-1.66-2.53-3.36-5.22-5.07-8a5.2,5.2,0,0,1-.63-4.51,5,5,0,0,1,3.23-3,45.71,45.71,0,0,1,4.72-1.28c.69-.16,1.38-.32,2.08-.5l.13,0,.12,0c.71.18,1.41.34,2.1.5a36.36,36.36,0,0,1,4.56,1.27h0a5,5,0,0,1,3.15,3,5.2,5.2,0,0,1-.64,4.44c-1.79,2.94-3.47,5.6-5.15,8.14A5.16,5.16,0,0,1,1155,188.3Zm.12-18.87-2,.47a42.56,42.56,0,0,0-4.61,1.24,4.09,4.09,0,0,0-2.62,2.4,4.24,4.24,0,0,0,.54,3.65c1.7,2.77,3.4,5.45,5.06,8a4.28,4.28,0,0,0,3.49,2.13h0a4.21,4.21,0,0,0,3.44-2.08c1.67-2.53,3.34-5.18,5.13-8.11a4.18,4.18,0,0,0,.54-3.59,4,4,0,0,0-2.54-2.38h0a35.67,35.67,0,0,0-4.44-1.23C1156.5,169.75,1155.83,169.6,1155.16,169.43Zm-.12,14.46-.42-.66c-1.72-2.69-3.33-5.23-5.07-8l-.31-.51.54-.22a13,13,0,0,1,10.51,0l.55.22Zm-4.32-8.65L1155,182l4.31-6.83A11.85,11.85,0,0,0,1150.72,175.24Z"/></svg>