<svg id="Layer_1" data-name="Layer 1" xmlns="http://www.w3.org/2000/svg" viewBox="0 0 1366 644"><defs><style>.cls-1{fill:#582957;}.cls-2{fill:none;}.cls-2,.cls-3{stroke:#582957;stroke-miterlimit:10;stroke-width:5px;}.cls-3{fill:#fff;}.cls-4{fill:#333533;}.cls-5{fill:#d7a68d;}</style></defs><polygon class="cls-1" points="215.34 449.83 215.25 447.83 215.44 447.83 215.34 449.83"/><polygon class="cls-1" points="215.09 443.95 214.95 440.07 215.73 440.07 215.59 443.95 215.09 443.95"/><polygon class="cls-1" points="214.82 436.19 214.72 432.31 215.96 432.31 215.86 436.19 214.82 436.19"/><polygon class="cls-1" points="214.63 428.43 214.56 424.55 216.12 424.55 216.05 428.43 214.63 428.43"/><polygon class="cls-1" points="214.49 420.67 214.45 416.79 216.23 416.79 216.19 420.67 214.49 420.67"/><polygon class="cls-1" points="214.41 412.91 214.38 409.03 216.3 409.03 216.27 412.91 214.41 412.91"/><polygon class="cls-1" points="214.36 405.15 214.35 401.27 216.33 401.27 216.32 405.15 214.36 405.15"/><polygon class="cls-1" points="214.35 397.39 214.36 393.51 216.32 393.51 216.33 397.39 214.35 397.39"/><polygon class="cls-1" points="214.38 389.63 214.4 385.75 216.28 385.75 216.31 389.63 214.38 389.63"/><polygon class="cls-1" points="214.45 381.87 214.49 377.99 216.19 377.99 216.23 381.87 214.45 381.87"/><polygon class="cls-1" points="214.56 374.11 214.63 370.23 216.05 370.23 216.12 374.11 214.56 374.11"/><polygon class="cls-1" points="214.72 366.35 214.82 362.47 215.86 362.47 215.96 366.35 214.72 366.35"/><polygon class="cls-1" points="214.95 358.59 215.09 354.71 215.59 354.71 215.73 358.59 214.95 358.59"/><polygon class="cls-1" points="215.25 350.83 215.34 348.83 215.44 350.83 215.25 350.83"/><polygon class="cls-1" points="528.67 449.83 528.58 447.83 528.77 447.83 528.67 449.83"/><polygon class="cls-1" points="528.42 443.95 528.29 440.07 529.06 440.07 528.92 443.95 528.42 443.95"/><polygon class="cls-1" points="528.16 436.19 528.06 432.31 529.29 432.31 529.19 436.19 528.16 436.19"/><polygon class="cls-1" points="527.97 428.43 527.9 424.55 529.45 424.55 529.38 428.43 527.97 428.43"/><polygon class="cls-1" points="527.83 420.67 527.78 416.79 529.56 416.79 529.52 420.67 527.83 420.67"/><polygon class="cls-1" points="527.74 412.91 527.71 409.03 529.64 409.03 529.61 412.91 527.74 412.91"/><polygon class="cls-1" points="527.7 405.15 527.68 401.27 529.67 401.27 529.65 405.15 527.7 405.15"/><polygon class="cls-1" points="527.68 397.39 527.7 393.51 529.65 393.51 529.67 397.39 527.68 397.39"/><polygon class="cls-1" points="527.71 389.63 527.74 385.75 529.61 385.75 529.64 389.63 527.71 389.63"/><polygon class="cls-1" points="527.78 381.87 527.82 377.99 529.52 377.99 529.57 381.87 527.78 381.87"/><polygon class="cls-1" points="527.89 374.11 527.97 370.23 529.38 370.23 529.46 374.11 527.89 374.11"/><polygon class="cls-1" points="528.05 366.35 528.15 362.47 529.19 362.47 529.29 366.35 528.05 366.35"/><polygon class="cls-1" points="528.29 358.59 528.42 354.71 528.92 354.71 529.06 358.59 528.29 358.59"/><polygon class="cls-1" points="528.58 350.83 528.67 348.83 528.77 350.83 528.58 350.83"/><polygon class="cls-1" points="842.01 449.83 841.91 447.83 842.1 447.83 842.01 449.83"/><polygon class="cls-1" points="841.76 443.95 841.62 440.07 842.39 440.07 842.25 443.95 841.76 443.95"/><polygon class="cls-1" points="841.49 436.19 841.39 432.31 842.62 432.31 842.52 436.19 841.49 436.19"/><polygon class="cls-1" points="841.3 428.43 841.23 424.55 842.78 424.55 842.71 428.43 841.3 428.43"/><polygon class="cls-1" points="841.16 420.67 841.12 416.79 842.9 416.79 842.85 420.67 841.16 420.67"/><polygon class="cls-1" points="841.07 412.91 841.04 409.03 842.97 409.03 842.94 412.91 841.07 412.91"/><polygon class="cls-1" points="841.03 405.15 841.01 401.27 843 401.27 842.99 405.15 841.03 405.15"/><polygon class="cls-1" points="841.01 397.39 841.03 393.51 842.99 393.51 843 397.39 841.01 397.39"/><polygon class="cls-1" points="841.04 389.63 841.07 385.75 842.94 385.75 842.97 389.63 841.04 389.63"/><polygon class="cls-1" points="841.11 381.87 841.16 377.99 842.86 377.99 842.9 381.87 841.11 381.87"/><polygon class="cls-1" points="841.23 374.11 841.3 370.23 842.72 370.23 842.79 374.11 841.23 374.11"/><polygon class="cls-1" points="841.39 366.35 841.49 362.47 842.53 362.47 842.63 366.35 841.39 366.35"/><polygon class="cls-1" points="841.62 358.59 841.76 354.71 842.26 354.71 842.39 358.59 841.62 358.59"/><polygon class="cls-1" points="841.91 350.83 842.01 348.83 842.1 350.83 841.91 350.83"/><polygon class="cls-1" points="1155.34 348.83 1155.43 350.83 1155.24 350.83 1155.34 348.83"/><polygon class="cls-1" points="1155.59 354.71 1155.73 358.59 1154.95 358.59 1155.09 354.71 1155.59 354.71"/><polygon class="cls-1" points="1155.86 362.47 1155.96 366.35 1154.72 366.35 1154.82 362.47 1155.86 362.47"/><polygon class="cls-1" points="1156.05 370.23 1156.12 374.11 1154.56 374.11 1154.63 370.23 1156.05 370.23"/><polygon class="cls-1" points="1156.19 377.99 1156.23 381.87 1154.45 381.87 1154.49 377.99 1156.19 377.99"/><polygon class="cls-1" points="1156.27 385.75 1156.3 389.63 1154.38 389.63 1154.41 385.75 1156.27 385.75"/><polygon class="cls-1" points="1156.32 393.51 1156.33 397.39 1154.35 397.39 1154.36 393.51 1156.32 393.51"/><polygon class="cls-1" points="1156.33 401.27 1156.32 405.15 1154.36 405.15 1154.35 401.27 1156.33 401.27"/><polygon class="cls-1" points="1156.31 409.03 1156.28 412.91 1154.4 412.91 1154.38 409.03 1156.31 409.03"/><polygon class="cls-1" points="1156.23 416.79 1156.19 420.67 1154.49 420.67 1154.45 416.79 1156.23 416.79"/><polygon class="cls-1" points="1156.12 424.55 1156.05 428.43 1154.63 428.43 1154.56 424.55 1156.12 424.55"/><polygon class="cls-1" points="1155.96 432.31 1155.86 436.19 1154.82 436.19 1154.72 432.31 1155.96 432.31"/><polygon class="cls-1" points="1155.73 440.07 1155.59 443.95 1155.09 443.95 1154.95 440.07 1155.73 440.07"/><polygon class="cls-1" points="1155.44 447.83 1155.34 449.83 1155.24 447.83 1155.44 447.83"/><line class="cls-2" x1="202.34" y1="398.83" x2="1155.34" y2="398.83"/><circle class="cls-3" cx="215.34" cy="399.33" r="13"/><circle class="cls-3" cx="1155.34" cy="399.33" r="13"/><circle class="cls-3" cx="528.67" cy="399.33" r="13"/><circle class="cls-3" cx="842.01" cy="399.33" r="13"/><path class="cls-4" d="M161.78,491.55a12.44,12.44,0,0,1,2.91-8,10.37,10.37,0,0,1,3.49-2.7,10.73,10.73,0,0,1,4.72-1,9.7,9.7,0,0,1,5.37,1.44,8.78,8.78,0,0,1,3.28,3.68l-1.82,1.12a6.94,6.94,0,0,0-1.91-2.46,7.49,7.49,0,0,0-2.46-1.3,8.68,8.68,0,0,0-2.59-.4,8,8,0,0,0-3.73.84,8.25,8.25,0,0,0-2.72,2.25,10,10,0,0,0-1.67,3.13,11.51,11.51,0,0,0-.56,3.52,10.7,10.7,0,0,0,.66,3.73,10.34,10.34,0,0,0,1.85,3.15,8.91,8.91,0,0,0,2.79,2.17,7.61,7.61,0,0,0,3.48.81,8.59,8.59,0,0,0,5.3-1.88,7,7,0,0,0,1.93-2.47l1.91,1a7.46,7.46,0,0,1-2.24,3,10.84,10.84,0,0,1-3.39,1.84,11.29,11.29,0,0,1-3.64.63,9.38,9.38,0,0,1-4.42-1,11.18,11.18,0,0,1-3.49-2.77,12.93,12.93,0,0,1-3.05-8.27Z"/><path class="cls-4" d="M200,503.47h-2.24v-9.55a7.58,7.58,0,0,0-1-4.34,3.4,3.4,0,0,0-2.94-1.46,5.3,5.3,0,0,0-2.49.64,7.13,7.13,0,0,0-2.18,1.74,6.52,6.52,0,0,0-1.34,2.5v10.47h-2.24V479.38h2.24v10.86a7.86,7.86,0,0,1,2.86-3,7.25,7.25,0,0,1,3.91-1.13,5.52,5.52,0,0,1,2.52.52,4.22,4.22,0,0,1,1.69,1.53,7.3,7.3,0,0,1,.94,2.33,14.27,14.27,0,0,1,.29,3Z"/><path class="cls-4" d="M204.58,496.4V486.34h2.25V496a7.69,7.69,0,0,0,1,4.37,3.42,3.42,0,0,0,3,1.45,5.94,5.94,0,0,0,2.56-.58,6.78,6.78,0,0,0,2.19-1.64,7.24,7.24,0,0,0,1.45-2.48V486.34h2.25v14.42a.94.94,0,0,0,.2.68.87.87,0,0,0,.59.24v1.79l-.63,0H219a1.88,1.88,0,0,1-1.14-.52,1.69,1.69,0,0,1-.51-1.12l-.06-2.3a8.3,8.3,0,0,1-7.23,4.21,4.77,4.77,0,0,1-4.09-1.88A9.17,9.17,0,0,1,204.58,496.4Z"/><path class="cls-4" d="M232.93,488.25a7.13,7.13,0,0,0-3.94,1.26,6.31,6.31,0,0,0-2.4,3.26v10.7h-2.24V486.34h2.11v4.06a8.21,8.21,0,0,1,2.36-2.94,5.85,5.85,0,0,1,3.12-1.25c.22,0,.41,0,.58,0a2.27,2.27,0,0,1,.41,0Z"/><path class="cls-4" d="M242.86,503.8a8.35,8.35,0,0,1-3.45-.71,8.68,8.68,0,0,1-2.74-1.95,9,9,0,0,1-1.81-2.86,9.49,9.49,0,0,1,.45-7.84,8.2,8.2,0,0,1,3-3.18,8.45,8.45,0,0,1,4.49-1.18,8.12,8.12,0,0,1,4.26,1.1,6.87,6.87,0,0,1,2.74,3l-2.18.69a5.22,5.22,0,0,0-2-2.06,5.68,5.68,0,0,0-2.89-.74,5.78,5.78,0,0,0-3.13.88,6.48,6.48,0,0,0-2.27,2.43,7.16,7.16,0,0,0-.84,3.5,7.24,7.24,0,0,0,.86,3.51,6.79,6.79,0,0,0,2.28,2.5,5.51,5.51,0,0,0,3.13.94,6.08,6.08,0,0,0,2.16-.4,5.87,5.87,0,0,0,1.82-1.07,3.39,3.39,0,0,0,1-1.47l2.21.66a5.67,5.67,0,0,1-1.53,2.19,7.88,7.88,0,0,1-2.51,1.52A8.52,8.52,0,0,1,242.86,503.8Z"/><path class="cls-4" d="M268,503.47h-2.25v-9.55a7.58,7.58,0,0,0-1-4.34,3.37,3.37,0,0,0-2.94-1.46,5.33,5.33,0,0,0-2.49.64,7.25,7.25,0,0,0-2.18,1.74,6.5,6.5,0,0,0-1.33,2.5v10.47h-2.25V479.38h2.25v10.86a7.83,7.83,0,0,1,2.85-3,7.25,7.25,0,0,1,3.91-1.13,5.52,5.52,0,0,1,2.52.52,4.22,4.22,0,0,1,1.69,1.53,7.08,7.08,0,0,1,.94,2.33,13.6,13.6,0,0,1,.3,3Z"/><path class="cls-4" d="M145.32,543.53V545H134.8v-1.51h4.68V528.28a4.35,4.35,0,0,1-.92.86,12.42,12.42,0,0,1-1.42.89,10.37,10.37,0,0,1-1.62.69A4.8,4.8,0,0,1,134,531v-1.66a3.86,3.86,0,0,0,1.73-.44,13.55,13.55,0,0,0,1.73-1,14.31,14.31,0,0,0,1.37-1.08,4.88,4.88,0,0,0,.61-.59h1.65v17.33Z"/><path class="cls-4" d="M147.5,545a13.38,13.38,0,0,1,.18-2.07,9.38,9.38,0,0,1,.73-2.34,8,8,0,0,1,1.67-2.33,10,10,0,0,1,3-2c.63-.31,1.3-.62,2-.93a14.31,14.31,0,0,0,2-1.07,5.16,5.16,0,0,0,1.48-1.42,3.34,3.34,0,0,0,.56-2,3.47,3.47,0,0,0-.51-1.78,3.79,3.79,0,0,0-1.57-1.43,5.61,5.61,0,0,0-2.64-.55,6,6,0,0,0-2,.33,7.06,7.06,0,0,0-1.58.79,8.9,8.9,0,0,0-1.14.91,5.38,5.38,0,0,0-.66.71l-1.12-1.13.64-.62a10.26,10.26,0,0,1,1.39-1.08,9.63,9.63,0,0,1,2.06-1,7.71,7.71,0,0,1,2.67-.43,7.15,7.15,0,0,1,3.4.73,5.44,5.44,0,0,1,2.13,1.91,4.78,4.78,0,0,1,.12,4.91,6.44,6.44,0,0,1-1.57,1.72,11.36,11.36,0,0,1-2,1.22c-.69.34-1.33.63-1.9.87a11.47,11.47,0,0,0-2.65,1.61,8.39,8.39,0,0,0-1.65,1.77,7.8,7.8,0,0,0-.9,1.69,7.63,7.63,0,0,0-.37,1.46h12V545Z"/><path class="cls-4" d="M165,530.72v-2.8h1.42v2.8ZM165,545v-2.8h1.42V545Z"/><path class="cls-4" d="M181.39,543.53V545H170.87v-1.51h4.68V528.28a4.61,4.61,0,0,1-.92.86,12.42,12.42,0,0,1-1.42.89,10.37,10.37,0,0,1-1.62.69,4.8,4.8,0,0,1-1.48.27v-1.66a3.89,3.89,0,0,0,1.73-.44,13.93,13.93,0,0,0,3.1-2.1,5.87,5.87,0,0,0,.61-.59h1.65v17.33Z"/><path class="cls-4" d="M190.76,550a8.17,8.17,0,0,1-4.5-1.27,8,8,0,0,1-3-3.35l1.22-.69a7,7,0,0,0,2.58,2.75,6.82,6.82,0,0,0,3.69,1,6.68,6.68,0,0,0,3.21-.77,6,6,0,0,0,2.26-2.18,6.16,6.16,0,0,0,.84-3.22,5.8,5.8,0,0,0-3-5.2,6.44,6.44,0,0,0-3.09-.74,7.08,7.08,0,0,0-3.15.74,6.48,6.48,0,0,0-2.46,2.13h-1.58l2.61-13H197.6v1.55h-10L185.78,537a6.91,6.91,0,0,1,2.39-1.63,8,8,0,0,1,6.8.38,7.14,7.14,0,0,1,3.78,6.5,7.4,7.4,0,0,1-4,6.73A8.41,8.41,0,0,1,190.76,550Z"/><path class="cls-4" d="M210.66,536.83v-1.52h9.51v1.52Z"/><path class="cls-4" d="M243.63,543.53V545H233.1v-1.51h4.69V528.28a4.71,4.71,0,0,1-.93.86,12.25,12.25,0,0,1-1.41.89,10.37,10.37,0,0,1-1.62.69,4.86,4.86,0,0,1-1.49.27v-1.66a3.93,3.93,0,0,0,1.74-.44,14.27,14.27,0,0,0,1.73-1,15.69,15.69,0,0,0,1.37-1.08,7.32,7.32,0,0,0,.61-.59h1.65v17.33Z"/><path class="cls-4" d="M245.81,545A13.38,13.38,0,0,1,246,543a9.33,9.33,0,0,1,.72-2.34,8.15,8.15,0,0,1,1.67-2.33,10.29,10.29,0,0,1,3-2c.64-.31,1.3-.62,2-.93a14.79,14.79,0,0,0,2-1.07,5.2,5.2,0,0,0,1.49-1.42,3.41,3.41,0,0,0,.56-2,3.47,3.47,0,0,0-.51-1.78,3.91,3.91,0,0,0-1.57-1.43,5.67,5.67,0,0,0-2.64-.55,5.88,5.88,0,0,0-2,.33,7.15,7.15,0,0,0-1.59.79,8.11,8.11,0,0,0-1.13.91,5.38,5.38,0,0,0-.66.71l-1.13-1.13.65-.62a10.09,10.09,0,0,1,1.38-1.08,9.72,9.72,0,0,1,2.07-1,7.71,7.71,0,0,1,2.67-.43,7.21,7.21,0,0,1,3.4.73,5.59,5.59,0,0,1,2.13,1.91,4.62,4.62,0,0,1,.74,2.5,4.44,4.44,0,0,1-.63,2.41,6.44,6.44,0,0,1-1.57,1.72,10.66,10.66,0,0,1-2,1.22q-1,.51-1.89.87a11.55,11.55,0,0,0-2.66,1.61,9,9,0,0,0-1.65,1.77,7.45,7.45,0,0,0-1.27,3.15h12V545Z"/><path class="cls-4" d="M263.3,530.72v-2.8h1.42v2.8Zm0,14.32v-2.8h1.42V545Z"/><path class="cls-4" d="M275.61,550a8.18,8.18,0,0,1-4.51-1.27,8,8,0,0,1-3-3.35l1.23-.69a6.93,6.93,0,0,0,2.57,2.75,6.83,6.83,0,0,0,3.7,1,6.67,6.67,0,0,0,3.2-.77,6,6,0,0,0,2.26-2.18,6.16,6.16,0,0,0,.84-3.22,5.8,5.8,0,0,0-3-5.2,6.42,6.42,0,0,0-3.09-.74,7.08,7.08,0,0,0-3.15.74,6.48,6.48,0,0,0-2.46,2.13h-1.58l2.61-13h11.22v1.55h-10L270.62,537a6.91,6.91,0,0,1,2.39-1.63,8,8,0,0,1,6.8.38,7.14,7.14,0,0,1,3.78,6.5,7.4,7.4,0,0,1-4,6.73A8.4,8.4,0,0,1,275.61,550Z"/><path class="cls-4" d="M303.09,535.52a11.78,11.78,0,0,1-1,5.09,8.69,8.69,0,0,1-2.92,3.5,7.42,7.42,0,0,1-4.24,1.26,7.33,7.33,0,0,1-4.21-1.26,8.61,8.61,0,0,1-2.92-3.5,12.75,12.75,0,0,1,0-10.18,8.71,8.71,0,0,1,2.92-3.51,7.27,7.27,0,0,1,4.21-1.28,7.36,7.36,0,0,1,4.24,1.28,8.79,8.79,0,0,1,2.92,3.51A11.85,11.85,0,0,1,303.09,535.52Zm-1.68,0a10.7,10.7,0,0,0-.82-4.34,7,7,0,0,0-2.3-2.94,6,6,0,0,0-6.81,0,6.92,6.92,0,0,0-2.31,2.94,10.7,10.7,0,0,0-.83,4.34,10.58,10.58,0,0,0,.83,4.33,6.92,6.92,0,0,0,2.31,2.92,6,6,0,0,0,6.81,0,7,7,0,0,0,2.3-2.92A10.59,10.59,0,0,0,301.41,535.52Z"/><path class="cls-4" d="M503.05,547v1.52H492.52V547h4.69V531.7a4.42,4.42,0,0,1-.93.86,10.5,10.5,0,0,1-1.42.89,8.4,8.4,0,0,1-1.61.69,4.86,4.86,0,0,1-1.49.27v-1.65a4,4,0,0,0,1.74-.45,12.07,12.07,0,0,0,1.73-1,14,14,0,0,0,1.37-1.07,6.68,6.68,0,0,0,.61-.6h1.65V547Z"/><path class="cls-4" d="M514.63,540.45a5.36,5.36,0,0,1,2.63,1.06,5.87,5.87,0,0,1,1.71,2.16,6.9,6.9,0,0,1,.61,3,6.48,6.48,0,0,1-.94,3.5,6.4,6.4,0,0,1-2.61,2.35,8.41,8.41,0,0,1-3.84.84,8.72,8.72,0,0,1-4.36-1.06,6.39,6.39,0,0,1-2.74-2.9l1.23-1a5.09,5.09,0,0,0,2.16,2.49,7,7,0,0,0,3.74.94,5.91,5.91,0,0,0,4.11-1.38,5,5,0,0,0,1.54-3.85,5.08,5.08,0,0,0-1.57-3.91,6.3,6.3,0,0,0-4.44-1.45h-.79v-1.46h.86a6,6,0,0,0,4.09-1.24,4.14,4.14,0,0,0,1.42-3.26,4.45,4.45,0,0,0-.68-2.5,4.59,4.59,0,0,0-1.85-1.6,6.08,6.08,0,0,0-2.69-.57,6.49,6.49,0,0,0-3.45.91,5.33,5.33,0,0,0-2.19,2.46l-1.12-.93a6.07,6.07,0,0,1,1.53-2.08,7.31,7.31,0,0,1,2.39-1.38,8.82,8.82,0,0,1,3-.5,7.79,7.79,0,0,1,3.52.77,6.08,6.08,0,0,1,2.41,2.13,5.67,5.67,0,0,1,.87,3.13,5.81,5.81,0,0,1-.54,2.49,4.87,4.87,0,0,1-1.57,1.91A5.22,5.22,0,0,1,514.63,540.45Z"/><path class="cls-4" d="M523.41,534.14v-2.8h1.42v2.8Zm0,14.33v-2.81h1.42v2.81Z"/><path class="cls-4" d="M545.32,539a11.63,11.63,0,0,1-1.06,5.08,8.47,8.47,0,0,1-2.92,3.5,7.65,7.65,0,0,1-8.44,0A8.47,8.47,0,0,1,530,544a12.73,12.73,0,0,1,0-10.17,8.5,8.5,0,0,1,2.92-3.51,7.55,7.55,0,0,1,8.44,0,8.5,8.5,0,0,1,2.92,3.51A11.64,11.64,0,0,1,545.32,539Zm-1.68,0a10.75,10.75,0,0,0-.83-4.35,6.92,6.92,0,0,0-2.29-2.93,6,6,0,0,0-6.82,0,6.89,6.89,0,0,0-2.31,2.93,10.75,10.75,0,0,0-.82,4.35,10.57,10.57,0,0,0,.82,4.32,6.85,6.85,0,0,0,2.31,2.92,6,6,0,0,0,6.82,0,6.89,6.89,0,0,0,2.29-2.92A10.57,10.57,0,0,0,543.64,539Z"/><path class="cls-4" d="M565.48,539a11.77,11.77,0,0,1-1.05,5.08,8.63,8.63,0,0,1-2.92,3.5,7.43,7.43,0,0,1-4.24,1.27,7.33,7.33,0,0,1-4.21-1.27,8.55,8.55,0,0,1-2.92-3.5,12.73,12.73,0,0,1,0-10.17,8.58,8.58,0,0,1,2.92-3.51,7.2,7.2,0,0,1,4.21-1.29,7.3,7.3,0,0,1,4.24,1.29,8.66,8.66,0,0,1,2.92,3.51A11.78,11.78,0,0,1,565.48,539Zm-1.68,0a10.75,10.75,0,0,0-.82-4.35,6.94,6.94,0,0,0-2.3-2.93,6,6,0,0,0-6.81,0,6.89,6.89,0,0,0-2.31,2.93,10.75,10.75,0,0,0-.83,4.35,10.57,10.57,0,0,0,.83,4.32,6.85,6.85,0,0,0,2.31,2.92,6,6,0,0,0,6.81,0,6.91,6.91,0,0,0,2.3-2.92A10.57,10.57,0,0,0,563.8,539Z"/><path class="cls-4" d="M755.37,547v1.52H744.84V547h4.69V531.7a4.42,4.42,0,0,1-.93.86,11.17,11.17,0,0,1-1.42.89,8.4,8.4,0,0,1-1.61.69,4.86,4.86,0,0,1-1.49.27v-1.65a3.88,3.88,0,0,0,1.73-.45,11.65,11.65,0,0,0,1.74-1,14,14,0,0,0,1.37-1.07,6.68,6.68,0,0,0,.61-.6h1.65V547Z"/><path class="cls-4" d="M773.32,544.82a8,8,0,0,1-3,2.9,8.61,8.61,0,0,1-8.49-.08,7.86,7.86,0,0,1-3-3.3,11.16,11.16,0,0,1-1.08-5.08,25.6,25.6,0,0,1,1.08-8.1,10,10,0,0,1,3-4.74,6.9,6.9,0,0,1,4.46-1.55,7.46,7.46,0,0,1,4.19,1.22,7.38,7.38,0,0,1,2.74,3.34l-1.16.89a5.86,5.86,0,0,0-2.23-2.87,6,6,0,0,0-3.54-1.09,5.41,5.41,0,0,0-3.63,1.32,8.44,8.44,0,0,0-2.41,3.81,18.76,18.76,0,0,0-.86,6,6.8,6.8,0,0,1,1.52-2.49,7.16,7.16,0,0,1,2.42-1.66,7.53,7.53,0,0,1,3-.6,7.81,7.81,0,0,1,4.06,1.09,8.33,8.33,0,0,1,2.89,2.89,7.71,7.71,0,0,1,1.07,4A7.82,7.82,0,0,1,773.32,544.82Zm-3.8,1.6a6.92,6.92,0,0,0,2.4-2.38,6.15,6.15,0,0,0,.9-3.26,6.31,6.31,0,0,0-.9-3.29,7,7,0,0,0-2.41-2.39,6.37,6.37,0,0,0-3.29-.89,6.48,6.48,0,0,0-3.3.89,6.76,6.76,0,0,0-2.4,2.38,6.24,6.24,0,0,0-.9,3.3,6.14,6.14,0,0,0,.91,3.23,7.07,7.07,0,0,0,2.41,2.39,6.19,6.19,0,0,0,3.28.91A6.33,6.33,0,0,0,769.52,546.42Z"/><path class="cls-4" d="M778.07,534.14v-2.8h1.42v2.8Zm0,14.33v-2.81h1.42v2.81Z"/><path class="cls-4" d="M800,539a11.77,11.77,0,0,1-1.05,5.08,8.63,8.63,0,0,1-2.92,3.5,7.43,7.43,0,0,1-4.24,1.27,7.33,7.33,0,0,1-4.21-1.27,8.47,8.47,0,0,1-2.92-3.5,12.73,12.73,0,0,1,0-10.17,8.5,8.5,0,0,1,2.92-3.51,7.2,7.2,0,0,1,4.21-1.29,7.3,7.3,0,0,1,4.24,1.29,8.66,8.66,0,0,1,2.92,3.51A11.78,11.78,0,0,1,800,539Zm-1.68,0a10.75,10.75,0,0,0-.83-4.35,6.92,6.92,0,0,0-2.29-2.93,6,6,0,0,0-6.81,0,6.89,6.89,0,0,0-2.31,2.93,10.75,10.75,0,0,0-.83,4.35,10.57,10.57,0,0,0,.83,4.32,6.85,6.85,0,0,0,2.31,2.92,6,6,0,0,0,6.81,0,6.89,6.89,0,0,0,2.29-2.92A10.57,10.57,0,0,0,798.3,539Z"/><path class="cls-4" d="M820.15,539a11.77,11.77,0,0,1-1.06,5.08,8.63,8.63,0,0,1-2.92,3.5,7.66,7.66,0,0,1-8.45,0,8.55,8.55,0,0,1-2.92-3.5,12.73,12.73,0,0,1,0-10.17,8.58,8.58,0,0,1,2.92-3.51,7.56,7.56,0,0,1,8.45,0,8.66,8.66,0,0,1,2.92,3.51A11.78,11.78,0,0,1,820.15,539Zm-1.69,0a10.75,10.75,0,0,0-.82-4.35,6.94,6.94,0,0,0-2.3-2.93,6,6,0,0,0-6.81,0,6.89,6.89,0,0,0-2.31,2.93,10.75,10.75,0,0,0-.83,4.35,10.57,10.57,0,0,0,.83,4.32,6.85,6.85,0,0,0,2.31,2.92,6,6,0,0,0,6.81,0,6.91,6.91,0,0,0,2.3-2.92A10.57,10.57,0,0,0,818.46,539Z"/><path class="cls-4" d="M832,537.08a16.66,16.66,0,0,1,1.34-6.53,51.07,51.07,0,0,1,3.19-6.3l1.28.66c-.46.7-.94,1.54-1.45,2.52a29,29,0,0,0-1.39,3.13,30.21,30.21,0,0,0-1,3.37,14.54,14.54,0,0,0-.39,3.25,16.37,16.37,0,0,0,1.12,5.61,27.83,27.83,0,0,0,3.13,6l-1.25.73a31.57,31.57,0,0,1-2.43-4.18,23.75,23.75,0,0,1-1.56-4.19A15.65,15.65,0,0,1,832,537.08Z"/><path class="cls-4" d="M849.38,525h1.45l9.9,23.43H859l-3.19-7.72H844.44l-3.21,7.72h-1.81Zm5.81,14.32-5.08-12.28L845,539.36Z"/><path class="cls-4" d="M872.18,548.8a6.89,6.89,0,0,1-3.94-1.17,9.79,9.79,0,0,1-2.79-2.84V555.5H863.8V531.34h1.52v3.45a8.3,8.3,0,0,1,2.81-2.68,7.1,7.1,0,0,1,3.69-1,7.21,7.21,0,0,1,3.3.74,8.38,8.38,0,0,1,2.59,2,9.52,9.52,0,0,1,1.72,2.85A9.13,9.13,0,0,1,880,540a9.85,9.85,0,0,1-1,4.39,8.23,8.23,0,0,1-2.76,3.24A7,7,0,0,1,872.18,548.8Zm-.39-1.49a5.89,5.89,0,0,0,2.72-.62,6.57,6.57,0,0,0,2.06-1.68,7.71,7.71,0,0,0,1.32-2.36,8.08,8.08,0,0,0,.47-2.7,7.63,7.63,0,0,0-.53-2.81,7.52,7.52,0,0,0-1.47-2.35,7.38,7.38,0,0,0-2.18-1.62,5.94,5.94,0,0,0-2.69-.61,5.67,5.67,0,0,0-1.9.36,7.67,7.67,0,0,0-1.91,1,6.84,6.84,0,0,0-1.5,1.49,4,4,0,0,0-.73,1.73v5.62a9.43,9.43,0,0,0,1.54,2.28,7,7,0,0,0,2.19,1.64A5.88,5.88,0,0,0,871.79,547.31Z"/><path class="cls-4" d="M892.12,532.79a7,7,0,0,0-4,1.37,6.82,6.82,0,0,0-2.42,3.58v10.73H884V531.34h1.58v4.19a8.28,8.28,0,0,1,2.38-2.95,6.09,6.09,0,0,1,3.13-1.31l.6,0h.43Z"/><path class="cls-4" d="M901.79,548.8a8.06,8.06,0,0,1-3.35-.69,8,8,0,0,1-2.66-1.93A9.16,9.16,0,0,1,893.4,540a9.27,9.27,0,0,1,.63-3.44,9,9,0,0,1,1.77-2.83,8.41,8.41,0,0,1,2.67-1.94,8.18,8.18,0,0,1,6.62,0,8.64,8.64,0,0,1,2.67,1.94,8.87,8.87,0,0,1,1.78,2.83,9.27,9.27,0,0,1,.63,3.44,9.1,9.1,0,0,1-2.39,6.19,8.27,8.27,0,0,1-2.68,1.93A8,8,0,0,1,901.79,548.8ZM895.05,540a7.61,7.61,0,0,0,.91,3.69,7.31,7.31,0,0,0,2.43,2.65,6.25,6.25,0,0,0,6.75,0,7.37,7.37,0,0,0,2.44-2.69,7.76,7.76,0,0,0,.9-3.7,7.65,7.65,0,0,0-.9-3.68,7.4,7.4,0,0,0-2.43-2.68,5.94,5.94,0,0,0-3.36-1,6,6,0,0,0-3.39,1,7.53,7.53,0,0,0-2.44,2.69A7.76,7.76,0,0,0,895.05,540Z"/><path class="cls-4" d="M913.24,531.34l5.47,7.08.27.46.26-.46,5.45-7.08h1.91l-6.66,8.6,6.63,8.53h-1.91l-5.42-7.05L919,541l-.27.43-5.44,7.05h-1.88l6.6-8.53-6.63-8.6Z"/><path class="cls-4" d="M929.37,548.47v-2.81h1.46v2.81Z"/><path class="cls-4" d="M939.9,537.08a16.47,16.47,0,0,1-.54,4.11,23,23,0,0,1-1.57,4.19,36.48,36.48,0,0,1-2.41,4.18l-1.26-.73a28.18,28.18,0,0,0,3.11-6,16.61,16.61,0,0,0,1.12-5.61,15.11,15.11,0,0,0-.38-3.25,23.62,23.62,0,0,0-1-3.37,33.5,33.5,0,0,0-1.39-3.13,20.06,20.06,0,0,0-1.47-2.52l1.29-.66a48.51,48.51,0,0,1,3.2,6.3A16.82,16.82,0,0,1,939.9,537.08Z"/><path class="cls-4" d="M1130.05,547v1.52h-10.53V547h4.69V531.7a4.42,4.42,0,0,1-.93.86,11.17,11.17,0,0,1-1.42.89,9,9,0,0,1-1.61.69,4.86,4.86,0,0,1-1.49.27v-1.65a3.88,3.88,0,0,0,1.73-.45,11.65,11.65,0,0,0,1.74-1,12.7,12.7,0,0,0,1.36-1.07,6.07,6.07,0,0,0,.62-.6h1.65V547Z"/><path class="cls-4" d="M1148.46,542.13a5.72,5.72,0,0,1-1.12,3.53,7.23,7.23,0,0,1-3,2.32,9.78,9.78,0,0,1-4,.82,8.78,8.78,0,0,1-4.12-.93,7.22,7.22,0,0,1-2.79-2.47,6.06,6.06,0,0,1-1-3.37,5.25,5.25,0,0,1,.75-2.79,7.28,7.28,0,0,1,1.88-2.07,8,8,0,0,1,2.36-1.24,8.68,8.68,0,0,1-2.07-1.14,5.86,5.86,0,0,1-1.51-1.71,4.21,4.21,0,0,1-.58-2.18,5.06,5.06,0,0,1,.62-2.52,5.7,5.7,0,0,1,1.69-1.84,8,8,0,0,1,2.32-1.12,8.78,8.78,0,0,1,2.59-.38,8.68,8.68,0,0,1,2.56.38,8.1,8.1,0,0,1,2.33,1.12,5.94,5.94,0,0,1,1.68,1.82,4.86,4.86,0,0,1,.63,2.5,4.28,4.28,0,0,1-.58,2.22,5.79,5.79,0,0,1-1.53,1.71,8.94,8.94,0,0,1-2.08,1.14,8.31,8.31,0,0,1,2.51,1.34,7,7,0,0,1,1.79,2.11A5.61,5.61,0,0,1,1148.46,542.13Zm-1.65-.13a4.4,4.4,0,0,0-.58-2.26,5.41,5.41,0,0,0-1.52-1.68,7.56,7.56,0,0,0-4.3-1.41,7,7,0,0,0-3,.68,6.47,6.47,0,0,0-2.37,1.88,4.42,4.42,0,0,0-.94,2.82,4.36,4.36,0,0,0,.57,2.24,5.74,5.74,0,0,0,1.5,1.68,6.74,6.74,0,0,0,2.07,1,7.75,7.75,0,0,0,2.26.34,7.12,7.12,0,0,0,3-.66,6.25,6.25,0,0,0,2.39-1.88A4.4,4.4,0,0,0,1146.81,542Zm-11.88-11a3.51,3.51,0,0,0,.84,2.37,5.23,5.23,0,0,0,2.13,1.47,7.08,7.08,0,0,0,2.54.5,6.83,6.83,0,0,0,2.56-.51,5.63,5.63,0,0,0,2.13-1.51,3.78,3.78,0,0,0,0-4.74,5.25,5.25,0,0,0-2.08-1.47,7.2,7.2,0,0,0-2.69-.52,6.9,6.9,0,0,0-2.66.53,5.08,5.08,0,0,0-2,1.51A3.67,3.67,0,0,0,1134.93,531Z"/><path class="cls-4" d="M1152.39,534.14v-2.8h1.42v2.8Zm0,14.33v-2.81h1.42v2.81Z"/><path class="cls-4" d="M1166.91,540.45a5.32,5.32,0,0,1,2.62,1.06,5.79,5.79,0,0,1,1.72,2.16,7.05,7.05,0,0,1,.61,3,6.57,6.57,0,0,1-.94,3.5,6.46,6.46,0,0,1-2.61,2.35,8.43,8.43,0,0,1-3.85.84,8.65,8.65,0,0,1-4.35-1.06,6.29,6.29,0,0,1-2.74-2.9l1.22-1a5.2,5.2,0,0,0,2.16,2.49,7,7,0,0,0,3.75.94,5.94,5.94,0,0,0,4.11-1.38,4.94,4.94,0,0,0,1.53-3.85,5,5,0,0,0-1.57-3.91,6.27,6.27,0,0,0-4.44-1.45h-.79v-1.46h.86a6,6,0,0,0,4.09-1.24,4.11,4.11,0,0,0,1.42-3.26,4.44,4.44,0,0,0-.67-2.5,4.65,4.65,0,0,0-1.85-1.6,6.08,6.08,0,0,0-2.69-.57,6.49,6.49,0,0,0-3.45.91,5.4,5.4,0,0,0-2.2,2.46l-1.12-.93a6.1,6.1,0,0,1,1.54-2.08,7.31,7.31,0,0,1,2.39-1.38,8.73,8.73,0,0,1,3-.5,7.75,7.75,0,0,1,3.51.77,6,6,0,0,1,2.41,2.13,5.59,5.59,0,0,1,.88,3.13,5.67,5.67,0,0,1-.55,2.49,4.85,4.85,0,0,1-1.56,1.91A5.31,5.31,0,0,1,1166.91,540.45Z"/><path class="cls-4" d="M1191.76,539a11.77,11.77,0,0,1-1.06,5.08,8.55,8.55,0,0,1-2.92,3.5,7.66,7.66,0,0,1-8.45,0,8.55,8.55,0,0,1-2.92-3.5,12.73,12.73,0,0,1,0-10.17,8.58,8.58,0,0,1,2.92-3.51,7.56,7.56,0,0,1,8.45,0,8.58,8.58,0,0,1,2.92,3.51A11.78,11.78,0,0,1,1191.76,539Zm-1.69,0a10.75,10.75,0,0,0-.82-4.35,6.94,6.94,0,0,0-2.3-2.93,6,6,0,0,0-6.81,0,6.89,6.89,0,0,0-2.31,2.93A10.75,10.75,0,0,0,1177,539a10.57,10.57,0,0,0,.83,4.32,6.85,6.85,0,0,0,2.31,2.92,6,6,0,0,0,6.81,0,6.91,6.91,0,0,0,2.3-2.92A10.57,10.57,0,0,0,1190.07,539Z"/><path class="cls-4" d="M450.93,491.55a12.51,12.51,0,0,1,2.9-8,10.41,10.41,0,0,1,3.5-2.7,10.7,10.7,0,0,1,4.72-1,9.67,9.67,0,0,1,5.36,1.44,8.72,8.72,0,0,1,3.28,3.68l-1.81,1.12a7.08,7.08,0,0,0-1.92-2.46,7.55,7.55,0,0,0-2.45-1.3,8.73,8.73,0,0,0-2.59-.4,8,8,0,0,0-3.73.84,8.28,8.28,0,0,0-2.73,2.25,10,10,0,0,0-1.66,3.13,11.21,11.21,0,0,0-.56,3.52,10.7,10.7,0,0,0,.66,3.73,10.32,10.32,0,0,0,1.84,3.15,9.15,9.15,0,0,0,2.79,2.17,7.61,7.61,0,0,0,3.48.81,8.59,8.59,0,0,0,5.3-1.88,6.91,6.91,0,0,0,1.93-2.47l1.92,1a7.58,7.58,0,0,1-2.25,3,10.79,10.79,0,0,1-3.38,1.84,11.35,11.35,0,0,1-3.65.63,9.41,9.41,0,0,1-4.42-1,11.25,11.25,0,0,1-3.48-2.77,12.72,12.72,0,0,1-2.26-3.89A12.59,12.59,0,0,1,450.93,491.55Z"/><path class="cls-4" d="M482.08,503.8a8.38,8.38,0,0,1-6.17-2.65,9,9,0,0,1-1.8-2.84,9.26,9.26,0,0,1-.65-3.46,8.92,8.92,0,0,1,1.11-4.39,8.57,8.57,0,0,1,3.05-3.19,8.25,8.25,0,0,1,4.42-1.19,8,8,0,0,1,4.44,1.21,8.72,8.72,0,0,1,3,3.19,8.86,8.86,0,0,1,1.09,4.35v.5a1.81,1.81,0,0,1,0,.38H475.81a7.33,7.33,0,0,0,1,3.27,6.55,6.55,0,0,0,2.27,2.26,5.87,5.87,0,0,0,3.06.84,6.33,6.33,0,0,0,3.18-.86,4.76,4.76,0,0,0,2.1-2.24l1.94.53a6.5,6.5,0,0,1-1.61,2.21,7.76,7.76,0,0,1-2.56,1.53A8.84,8.84,0,0,1,482.08,503.8Zm-6.34-9.71h12.71a7.07,7.07,0,0,0-1-3.26,6.35,6.35,0,0,0-2.28-2.21,6.12,6.12,0,0,0-3.08-.79,6.05,6.05,0,0,0-3.07.79,6.35,6.35,0,0,0-2.26,2.23A7.1,7.1,0,0,0,475.74,494.09Z"/><path class="cls-4" d="M502.6,488.25a7.15,7.15,0,0,0-3.94,1.26,6.29,6.29,0,0,0-2.39,3.26v10.7H494V486.34h2.12v4.06a8.19,8.19,0,0,1,2.35-2.94,5.85,5.85,0,0,1,3.12-1.25c.22,0,.42,0,.58,0a2.18,2.18,0,0,1,.41,0Z"/><path class="cls-4" d="M512.5,503.8a8.36,8.36,0,0,1-3.43-.71,8.48,8.48,0,0,1-2.74-1.94,9,9,0,0,1-1.8-2.84,9.25,9.25,0,0,1-.64-3.46,8.92,8.92,0,0,1,1.11-4.39,8.49,8.49,0,0,1,3.05-3.19,8.25,8.25,0,0,1,4.42-1.19,8.07,8.07,0,0,1,4.44,1.21,8.8,8.8,0,0,1,3,3.19,9,9,0,0,1,1.08,4.35v.5a1.81,1.81,0,0,1,0,.38H506.23a7.46,7.46,0,0,0,1,3.27,6.57,6.57,0,0,0,2.28,2.26,5.81,5.81,0,0,0,3.05.84,6.36,6.36,0,0,0,3.19-.86,4.69,4.69,0,0,0,2.09-2.24l2,.53a6.4,6.4,0,0,1-1.62,2.21,7.66,7.66,0,0,1-2.56,1.53A8.76,8.76,0,0,1,512.5,503.8Zm-6.33-9.71h12.7a7.06,7.06,0,0,0-1-3.26,6.51,6.51,0,0,0-2.28-2.21,6.15,6.15,0,0,0-3.09-.79,6.08,6.08,0,0,0-3.07.79,6.51,6.51,0,0,0-2.26,2.23A7.09,7.09,0,0,0,506.17,494.09Z"/><path class="cls-4" d="M550,503.47h-2.24v-9.55a7.94,7.94,0,0,0-1-4.39,3.2,3.2,0,0,0-2.83-1.41,5.09,5.09,0,0,0-3.49,1.38,7.46,7.46,0,0,0-2.16,3.54v10.43H536.1v-9.55a8.07,8.07,0,0,0-.93-4.4,3.16,3.16,0,0,0-2.83-1.4,5.18,5.18,0,0,0-3.47,1.34,7.23,7.23,0,0,0-2.18,3.54v10.47h-2.24V486.34h2v3.9a8.17,8.17,0,0,1,2.78-3.08,6.94,6.94,0,0,1,3.78-1.08,4.92,4.92,0,0,1,3.47,1.21,5.19,5.19,0,0,1,1.61,3.18,9.29,9.29,0,0,1,2.86-3.28,6.66,6.66,0,0,1,3.78-1.11,5.29,5.29,0,0,1,2.46.52,4.12,4.12,0,0,1,1.61,1.49,6.86,6.86,0,0,1,.89,2.33,14.91,14.91,0,0,1,.28,3Z"/><path class="cls-4" d="M562.13,503.8a8.29,8.29,0,0,1-6.15-2.64,9.13,9.13,0,0,1-1.77-2.83,9.24,9.24,0,0,1-.62-3.36,9.42,9.42,0,0,1,.62-3.43,8.85,8.85,0,0,1,1.79-2.82,8.4,8.4,0,0,1,2.72-1.94,8.19,8.19,0,0,1,3.41-.7,8.08,8.08,0,0,1,3.4.7,8.46,8.46,0,0,1,2.71,1.94,8.82,8.82,0,0,1,1.78,2.82,9.21,9.21,0,0,1,.63,3.43,9.15,9.15,0,0,1-2.39,6.19,8.33,8.33,0,0,1-2.71,1.93A8.24,8.24,0,0,1,562.13,503.8Zm-6.27-8.8a7.18,7.18,0,0,0,.85,3.46,6.47,6.47,0,0,0,2.26,2.46,5.86,5.86,0,0,0,6.27,0,6.73,6.73,0,0,0,2.27-2.51,7.13,7.13,0,0,0,.86-3.49,7,7,0,0,0-.86-3.44,6.82,6.82,0,0,0-2.27-2.49,5.67,5.67,0,0,0-3.14-.91A5.44,5.44,0,0,0,559,489a6.89,6.89,0,0,0-2.26,2.5A7.24,7.24,0,0,0,555.86,495Z"/><path class="cls-4" d="M588.86,503.47h-2.24v-9.55a8.4,8.4,0,0,0-.89-4.4,3.09,3.09,0,0,0-2.81-1.4,5.74,5.74,0,0,0-2.6.64,7.33,7.33,0,0,0-2.26,1.74,6.67,6.67,0,0,0-1.41,2.5v10.47h-2.24V486.34h2.05v3.9a7.56,7.56,0,0,1,1.81-2.18,8.76,8.76,0,0,1,2.54-1.46,8.43,8.43,0,0,1,2.94-.52,5.08,5.08,0,0,1,2.41.52,4,4,0,0,1,1.58,1.49,7.06,7.06,0,0,1,.86,2.33,15.73,15.73,0,0,1,.26,3Z"/><path class="cls-4" d="M594.28,508.75l.89.05a2,2,0,0,0,.62-.05,1.38,1.38,0,0,0,.76-.46,5.9,5.9,0,0,0,.86-1.52c.33-.74.79-1.84,1.39-3.28l-7.49-17.15h2.37L600,501.18l5.8-14.84H608l-8.91,22.12a4,4,0,0,1-.7,1.16,3.12,3.12,0,0,1-1.13.86,4.49,4.49,0,0,1-1.67.35,4.12,4.12,0,0,1-.61,0c-.21,0-.46,0-.74-.08Z"/><path class="cls-4" d="M797.26,503.47V480h2.31v21.38H813.1v2.05Z"/><path class="cls-4" d="M815.8,496.4V486.34h2.25V496a7.61,7.61,0,0,0,1,4.37,3.4,3.4,0,0,0,3,1.45,5.94,5.94,0,0,0,2.56-.58,6.67,6.67,0,0,0,2.19-1.64,7.26,7.26,0,0,0,1.46-2.48V486.34h2.24v14.42a1,1,0,0,0,.2.68.87.87,0,0,0,.59.24v1.79l-.62,0h-.43a1.88,1.88,0,0,1-1.14-.52,1.61,1.61,0,0,1-.51-1.12l-.07-2.3a8.27,8.27,0,0,1-7.23,4.21,4.78,4.78,0,0,1-4.09-1.88A9.24,9.24,0,0,1,815.8,496.4Z"/><path class="cls-4" d="M850,503.47h-2.25v-9.55a8.4,8.4,0,0,0-.89-4.4,3.09,3.09,0,0,0-2.81-1.4,5.77,5.77,0,0,0-2.6.64,7.33,7.33,0,0,0-2.26,1.74,6.51,6.51,0,0,0-1.4,2.5v10.47h-2.25V486.34h2v3.9a7.56,7.56,0,0,1,1.81-2.18A8.76,8.76,0,0,1,842,486.6a8.43,8.43,0,0,1,2.94-.52,5.08,5.08,0,0,1,2.41.52,4,4,0,0,1,1.58,1.49,7.06,7.06,0,0,1,.86,2.33,15.69,15.69,0,0,1,.27,3Z"/><path class="cls-4" d="M862.27,503.8a8.28,8.28,0,0,1-3.45-.71,8.46,8.46,0,0,1-2.74-1.95,8.8,8.8,0,0,1-1.81-2.86,9.07,9.07,0,0,1-.65-3.41,9.2,9.2,0,0,1,1.09-4.43,8.29,8.29,0,0,1,3-3.18,8.43,8.43,0,0,1,4.49-1.18,8.08,8.08,0,0,1,4.25,1.1,6.81,6.81,0,0,1,2.74,3l-2.18.69a5.16,5.16,0,0,0-2-2.06,5.67,5.67,0,0,0-2.88-.74,5.81,5.81,0,0,0-3.14.88,6.38,6.38,0,0,0-2.26,2.43,7.65,7.65,0,0,0,0,7,6.86,6.86,0,0,0,2.27,2.5,5.57,5.57,0,0,0,3.14.94,6.08,6.08,0,0,0,2.16-.4,6,6,0,0,0,1.82-1.07,3.47,3.47,0,0,0,1-1.47l2.21.66a5.59,5.59,0,0,1-1.54,2.19,7.67,7.67,0,0,1-2.51,1.52A8.42,8.42,0,0,1,862.27,503.8Z"/><path class="cls-4" d="M887.38,503.47h-2.24v-9.55a7.5,7.5,0,0,0-1-4.34,3.37,3.37,0,0,0-2.93-1.46,5.3,5.3,0,0,0-2.49.64,7,7,0,0,0-2.18,1.74,6.52,6.52,0,0,0-1.34,2.5v10.47h-2.24V479.38h2.24v10.86a7.79,7.79,0,0,1,2.86-3,7.25,7.25,0,0,1,3.91-1.13,5.52,5.52,0,0,1,2.52.52,4.26,4.26,0,0,1,1.68,1.53,6.87,6.87,0,0,1,.94,2.33,13.6,13.6,0,0,1,.3,3Z"/><path class="cls-4" d="M1119.3,503.47V480H1129a6.27,6.27,0,0,1,2.78.62,7,7,0,0,1,2.2,1.7,8.45,8.45,0,0,1,1.45,2.38,7.05,7.05,0,0,1,.53,2.66,8,8,0,0,1-.84,3.61,7.16,7.16,0,0,1-2.36,2.75,6,6,0,0,1-3.57,1.06h-7.59v8.65Zm2.31-10.7h7.5a3.94,3.94,0,0,0,2.4-.75,5.08,5.08,0,0,0,1.59-2,6.35,6.35,0,0,0,.56-2.64,5.57,5.57,0,0,0-.66-2.68,5.39,5.39,0,0,0-1.73-1.93,4.22,4.22,0,0,0-2.36-.71h-7.3Z"/><path class="cls-4" d="M1137.78,498.55a4.31,4.31,0,0,1,.93-2.77,5.82,5.82,0,0,1,2.56-1.8,10.2,10.2,0,0,1,3.77-.64,18.23,18.23,0,0,1,2.61.19,11.79,11.79,0,0,1,2.41.6v-1.45a4.62,4.62,0,0,0-1.29-3.44,4.78,4.78,0,0,0-3.56-1.28,7.58,7.58,0,0,0-2.72.51,13.72,13.72,0,0,0-2.79,1.5l-.86-1.58a14.65,14.65,0,0,1,3.3-1.74,9.88,9.88,0,0,1,3.3-.57,6.91,6.91,0,0,1,5,1.8,6.63,6.63,0,0,1,1.84,5v7.91a1,1,0,0,0,.2.67.92.92,0,0,0,.63.24v1.79l-.63.06a1.24,1.24,0,0,1-.39,0,1.68,1.68,0,0,1-1.26-.53,1.77,1.77,0,0,1-.46-1.05l0-1.26a7.56,7.56,0,0,1-3,2.3,9.26,9.26,0,0,1-3.76.81,6.28,6.28,0,0,1-3-.71,5.18,5.18,0,0,1-2.08-1.9A4.88,4.88,0,0,1,1137.78,498.55Zm11.52,1.31a4.47,4.47,0,0,0,.56-.89,1.83,1.83,0,0,0,.2-.75v-2.48a13.85,13.85,0,0,0-2.33-.66,13.14,13.14,0,0,0-2.42-.23,7.11,7.11,0,0,0-3.89.95,2.91,2.91,0,0,0-1.49,2.59,3.44,3.44,0,0,0,.49,1.78,3.87,3.87,0,0,0,1.46,1.37,4.45,4.45,0,0,0,2.24.54,7.42,7.42,0,0,0,3-.62A5.43,5.43,0,0,0,1149.3,499.86Z"/><path class="cls-4" d="M1165.74,488.25a7.16,7.16,0,0,0-4,1.26,6.29,6.29,0,0,0-2.39,3.26v10.7h-2.24V486.34h2.11v4.06a8.11,8.11,0,0,1,2.36-2.94,5.85,5.85,0,0,1,3.12-1.25c.21,0,.41,0,.57,0a2.39,2.39,0,0,1,.42,0Z"/><path class="cls-4" d="M1177,502.77c-.18.07-.45.19-.83.37a7.56,7.56,0,0,1-1.35.46,7.18,7.18,0,0,1-1.72.2,4.52,4.52,0,0,1-1.79-.37,3,3,0,0,1-1.34-1.11,3.24,3.24,0,0,1-.5-1.84V488.12h-2.37v-1.78h2.37v-5.81h2.25v5.81h4v1.78h-4v11.74a1.81,1.81,0,0,0,.67,1.39,2.28,2.28,0,0,0,1.41.47,4.37,4.37,0,0,0,1.68-.32,4.32,4.32,0,0,0,.92-.44Z"/><path class="cls-4" d="M1180.78,508.75l.89.05a2.07,2.07,0,0,0,.63-.05,1.38,1.38,0,0,0,.76-.46,6.21,6.21,0,0,0,.86-1.52c.33-.74.79-1.84,1.38-3.28l-7.49-17.15h2.38l6.3,14.84,5.81-14.84h2.24l-8.91,22.12a3.75,3.75,0,0,1-.69,1.16,3.25,3.25,0,0,1-1.14.86,4.39,4.39,0,0,1-1.66.35,4.14,4.14,0,0,1-.61,0c-.21,0-.46,0-.75-.08Z"/><path class="cls-5" d="M194.11,172.63v-6.09a1.84,1.84,0,0,0-3.68,0v6l-1.27,8.58-5.44-36.22a1.49,1.49,0,0,0,.22-.21,2.27,2.27,0,0,0,.61-1.68,2.25,2.25,0,0,0-1.4-2v0a3.47,3.47,0,0,0-.19-5.72v-1.78a1.84,1.84,0,0,0,0-3.39,1.84,1.84,0,0,0-3.66,0,1.84,1.84,0,0,0-1.13,1.69,1.86,1.86,0,0,0,1.12,1.7v1.82a3.45,3.45,0,0,0-1.6,2.92,3.5,3.5,0,0,0,1.41,2.79v.05a2.44,2.44,0,0,0-.79.53,2.27,2.27,0,0,0-.61,1.68,2.16,2.16,0,0,0,.83,1.62L173,181l-1.24-8.35v-6.09a1.84,1.84,0,1,0-3.67,0v6l-3.65,24.71,0,14.62,3.83,3.84V231L167,220.38l-3.42,24.88,0,.08,0,31.81h-2.89v41.48h33.11l.08-102.83,3.91-3.9V197.45ZM181,138h.06a.23.23,0,0,1,.2.24.24.24,0,0,1-.23.24H181a.27.27,0,0,1-.21-.19A.32.32,0,0,1,181,138Zm13.47,72.57-3.85,3.9-.08,101H163.88V280.38h2.88v-34.6l.4-2.93a2.39,2.39,0,0,0,.73.37,2.46,2.46,0,0,0,2.55-.58l1.05-1.06V214.41l-3.83-3.83V197.69l2.29-15.59,1.23,8.3a1.86,1.86,0,0,0,3.67,0L181,149l6.24,41.55a1.88,1.88,0,0,0,1.84,1.59,1.82,1.82,0,0,0,1.83-1.6l1.26-8.49,2.29,15.55Z"/><path class="cls-5" d="M181.06,255.62a5.5,5.5,0,0,0-5.48,5.49v17.41h11V261.11A5.5,5.5,0,0,0,181.06,255.62Zm2.76,20.18H178.3V261.11a2.76,2.76,0,1,1,5.52,0Z"/><path class="cls-5" d="M188.07,217.06a3.57,3.57,0,0,0-4.78-.27,3.69,3.69,0,0,0-4.46,0,3.61,3.61,0,0,0-2.23-.79,3.57,3.57,0,0,0-3.56,3.57v12.84h16V219.57A3.49,3.49,0,0,0,188.07,217.06Zm-10.61,12.62h-1.68V219.57a.84.84,0,0,1,1.68,0Zm4.46,0h-1.68V219.57a.84.84,0,0,1,1.68,0Zm4.44,0h-1.68V219.57a.84.84,0,1,1,1.68,0Z"/><path class="cls-5" d="M181.06,280.09a5.48,5.48,0,0,0-5.48,5.47v9.36h11v-9.36A5.48,5.48,0,0,0,181.06,280.09Zm2.76,12.11H178.3v-6.64a2.76,2.76,0,0,1,5.52,0Z"/><path class="cls-5" d="M186.07,237.36a7,7,0,1,0,2,5A7,7,0,0,0,186.07,237.36Zm-1.93,8a4.29,4.29,0,0,1-3.08,1.28,4.32,4.32,0,1,1,4.33-4.31A4.24,4.24,0,0,1,184.14,245.36Z"/><path class="cls-5" d="M270,301.1v-24h-2.88V245.43l-3.47-25L262.42,231V215.74l3.83-3.84V197.45l-3.65-24.8v-6a1.94,1.94,0,0,0-1.64-2,1.86,1.86,0,0,0-2,1.83v6L257.68,181l-5.44-36.06a2.3,2.3,0,0,0,.83-1.63,2.39,2.39,0,0,0-.61-1.67,2.22,2.22,0,0,0-.8-.54v0a3.5,3.5,0,0,0,1.42-2.79,3.46,3.46,0,0,0-1.61-2.92v-1.81a1.85,1.85,0,0,0,0-3.39,1.84,1.84,0,0,0-3.66,0,1.81,1.81,0,0,0-1.12,1.69,1.85,1.85,0,0,0,1.11,1.7v1.82a3.45,3.45,0,0,0-.19,5.71v0a2.25,2.25,0,0,0-.81,3.64,2.39,2.39,0,0,0,.22.23l-5.44,36.22-1.25-8.52v-6a1.91,1.91,0,0,0-1.66-1.93,1.84,1.84,0,0,0-2,1.83v6L233,197.48l-.06,14.42,3.91,3.9.08,102.83H270v-3.32a1.61,1.61,0,0,0-1.62-1.61h0a1.61,1.61,0,0,0-1.61,1.61v.13H240.11L240,214.63v-.15l-3.91-3.9V197.69l2.29-15.6,1.25,8.5a1.88,1.88,0,0,0,1.84,1.59,1.82,1.82,0,0,0,1.83-1.59L249.59,149l6.24,41.36a1.87,1.87,0,0,0,1.83,1.58,1.83,1.83,0,0,0,1.84-1.59l1.22-8.29L263,197.64v12.94l-3.84,3.83v27.17l1.05,1.06a2.44,2.44,0,0,0,2.56.58,2.31,2.31,0,0,0,.71-.38l.41,2.88v34.66h2.88V301.1a1.62,1.62,0,0,0,1.61,1.62h0A1.62,1.62,0,0,0,270,301.1ZM249.62,138.49h-.07a.25.25,0,0,1-.2-.24.25.25,0,0,1,.24-.24h0a.24.24,0,0,1,0,.48Z"/><path class="cls-5" d="M249.6,255.62a5.5,5.5,0,0,0-5.48,5.49v17.41h11V261.11A5.5,5.5,0,0,0,249.6,255.62Zm2.76,20.18h-5.52V261.11a2.76,2.76,0,1,1,5.52,0Z"/><path class="cls-5" d="M254,216a3.55,3.55,0,0,0-2.23.79,3.66,3.66,0,0,0-4.46,0,3.78,3.78,0,0,0-2.26-.79,3.45,3.45,0,0,0-2.43,1,3.56,3.56,0,0,0-1.06,2.56v12.83h16V219.59A3.57,3.57,0,0,0,254,216Zm-8,13.68H244.3V219.59a.84.84,0,1,1,1.68,0Zm4.46,0h-1.68V219.59a.84.84,0,1,1,1.68,0Zm4.46,0h-1.68V219.59a.84.84,0,1,1,1.68,0Z"/><path class="cls-5" d="M249.6,280.09a5.48,5.48,0,0,0-5.48,5.47v9.36h11v-9.36A5.48,5.48,0,0,0,249.6,280.09Zm2.76,12.11h-5.52v-6.64a2.76,2.76,0,0,1,5.52,0Z"/><path class="cls-5" d="M249.6,235.28a7,7,0,1,0,7,7A7.05,7.05,0,0,0,249.6,235.28Zm0,11.36a4.32,4.32,0,1,1,4.32-4.32A4.33,4.33,0,0,1,249.6,246.64Z"/><path class="cls-5" d="M216.92,214.65v-8.74h2.3a1.61,1.61,0,0,0,0-3.21h-2.3v-3.64a1.6,1.6,0,1,0-3.2,0v3.64h-2.29a1.61,1.61,0,1,0,0,3.21h2.29v8.74L196,239.89l-.07.1v78.66h14.75V300.26a4.7,4.7,0,1,1,9.4,0v18.39h14.75V240Zm14.64,100.79h-8.34V300.26a7.9,7.9,0,1,0-15.8,0v15.18h-8.34V241l16.24-23.06L231.56,241Z"/><path class="cls-5" d="M215.34,260.54a7.05,7.05,0,0,0-7,7v22.25h14.08V267.58A7.05,7.05,0,0,0,215.34,260.54Zm4.32,26.57H211V267.58a4.32,4.32,0,1,1,8.64,0Z"/><path class="cls-5" d="M215.34,244.71a7,7,0,1,0,7,7A7.05,7.05,0,0,0,215.34,244.71Zm0,11.38a4.32,4.32,0,1,1,4.32-4.32A4.32,4.32,0,0,1,215.34,256.09Z"/><path class="cls-5" d="M220.29,232.18v-3.34a3.12,3.12,0,0,0-3.11-3.11,3.17,3.17,0,0,0-1.86.62,3,3,0,0,0-1.84-.62,3.11,3.11,0,0,0-3.11,3.11v3.33a3.13,3.13,0,0,0-3.74,3.05v6.44H224v-6.44A3.08,3.08,0,0,0,220.29,232.18Zm-9.92,7h-1.25v-3.95a.62.62,0,0,1,.63-.63.63.63,0,0,1,.62.57Zm3.74,0h-1.26V228.84a.62.62,0,0,1,.63-.62.63.63,0,0,1,.63.62Zm3.72,0H216.6V228.81a.59.59,0,0,1,.6-.59.62.62,0,0,1,.63.62Zm3.73,0h-1.25v-4a.61.61,0,0,1,.62-.58.62.62,0,0,1,.63.63Z"/><path class="cls-5" d="M746.6,317.65c-2.88,0-4.52-.83-5.59-2.87v-8.69a5,5,0,0,1,4.91-2.89l.64,0c.92.06,1.9.09,3.09.09l2.48,0c.85,0,1.72,0,2.6,0a1,1,0,0,0,1-1v-2.53q0-10.7,0-21.39c0-18.06.06-36.74-.12-55.12-.09-9.08,5-15.47,13.63-17.08a1,1,0,0,0,.81-1v-9.21q0-8.28,0-16.59c0-3.29,1.46-4.77,4.71-4.79l3.52,0,4,0c3.38,0,4.82,1.48,4.83,4.91q0,8.91,0,17.8V205a1,1,0,0,0,.68,1c.62.21,1.22.39,1.81.56a20.21,20.21,0,0,1,3.27,1.2,14.74,14.74,0,0,1,8.56,13.48c.1,3.13.07,6.23,0,9.51,0,1.47,0,3,0,4.48a1,1,0,0,0,1,1H816q4.65,0,9.29,0h0a5.06,5.06,0,0,1,4.23,2c8.86,10.41,9.63,25.34,1.84,35.5a21.91,21.91,0,0,1-13.59,8.48A2.41,2.41,0,0,0,815.5,285c0,.9-.08,1.79-.16,2.72-.18,2.24-.38,4.56.6,6.42.89,1.7,2.7,2.74,4.45,3.75a21.73,21.73,0,0,1,2.66,1.72,17,17,0,0,0,11.43,3.77h.58c3.26-.06,7.05-.52,10.44-3.49a40.7,40.7,0,0,1,4-3c.9-.62,1.82-1.26,2.71-1.93a3.53,3.53,0,0,0,1.42-2.5c.06-4.5.06-9.07,0-13.49V273.3a1,1,0,0,0-.69-.95c-7.18-2.32-10-7.45-9.05-16.62a1,1,0,0,0-.85-1.09l-.76-.1c-.47-.07-.88-.12-1.29-.2a1.74,1.74,0,0,1-1.61-1.94,1.68,1.68,0,0,1,1.65-1.86,21.68,21.68,0,0,1,2.5-.15c.42,0,.87,0,1.33,0a1,1,0,0,0,1-1s0-30.49,0-44.5c0-3.95.34-4.41,4.07-5.39a1,1,0,0,0,.7-.67,1,1,0,0,0-.2-.95c-4.27-4.89-4.53-7.49-1.33-13.2l1.23-2.22c.89-1.61,1.81-3.27,2.75-4.88a2.73,2.73,0,0,1,5.1,0c1.75,3,3.44,6,5,9,2,3.85,1.35,7.13-2.36,11.3a1,1,0,0,0-.21,1,1,1,0,0,0,.7.67c3.69,1,4,1.41,4,5.19V208c0,2.8,0,5.59,0,8.39,0,1.65-.66,2.51-1.92,2.53h0c-1.68,0-2-1.42-2-2.61,0-2.65,0-5.3,0-8v-3.47a1,1,0,0,0-1-1H851a1,1,0,0,0-1,1v44.43a1,1,0,0,0,1,1h9.37a1,1,0,0,0,1-1v-5.95c0-3.81,0-7.62,0-11.43a5,5,0,0,1,.25-1.75,1.6,1.6,0,0,1,1.58-1.14,3.27,3.27,0,0,1,.53.05c.79.15,1.6.53,1.6,2.18v18.21a1,1,0,0,0,1,1h2.83c2.57.06,2.64,1.38,2.66,1.87,0,.9-.21,1.85-2.42,2.1l-.76.11-.45.07a1,1,0,0,0-.86,1c0,.56,0,1.11,0,1.66,0,1.17,0,2.33,0,3.48a11.48,11.48,0,0,1-7.51,11,3,3,0,0,0-2.22,3.19c0,2.56,0,5.13,0,7.7,0,3.09,0,6.29.05,9.43a5,5,0,0,0,.8,2.3c.14.26.28.52.39.78a1,1,0,0,0,.92.6,1.07,1.07,0,0,0,.25,0l.82-.21a1,1,0,0,0,.75-1v-6.62q0-4.11,0-8.2c0-3.36,1.35-4.67,4.76-4.68h28.05a1,1,0,0,0,1-.84c.22-1.48.45-3,.67-4.41.51-3.29,1-6.55,1.48-9.82.34-2.33.85-3.87,2.49-4.84a2.33,2.33,0,0,0,1-2.11c-.21-1.29-.49-2.57-.72-3.6l-.18-.85a1,1,0,0,0-.45-.65,1.08,1.08,0,0,0-.53-.14l-.26,0c-.69.19-1.37.4-2,.61a17.84,17.84,0,0,1-4.07,1h-.26c-1.76,0-3.24-1.27-4.45-2.52a4.12,4.12,0,0,0-2.69-1.11h-.26c-.27,0-.54,0-.81,0a6.76,6.76,0,0,1-5-2,7.28,7.28,0,0,1-1.86-5.4,4,4,0,0,0-1.24-2.89,7.36,7.36,0,0,1-2.81-5.27,7.25,7.25,0,0,1,2.54-5.37,4.45,4.45,0,0,0,1.22-3.07A7.52,7.52,0,0,1,879,216.2a7,7,0,0,1,5.2-1.87h.56a3.39,3.39,0,0,0,3.57-4.37c-.48-2.34.23-4.33,2.3-6.45a4.38,4.38,0,0,0,1.21-3,7.11,7.11,0,0,1,1.75-5.4,6.56,6.56,0,0,1,4.9-1.88h.7a3.71,3.71,0,0,0,3-1.43,6.77,6.77,0,0,1,5.12-2.58,7.15,7.15,0,0,1,5.09,2.37,4.8,4.8,0,0,0,3.17,1.26h.31a7.22,7.22,0,0,1,5.29,1.92,7.33,7.33,0,0,1,1.86,5.42,3.87,3.87,0,0,0,1.17,2.7c2.34,2.15,3.14,4.25,2.57,6.82a3.48,3.48,0,0,0,.77,2.86,4,4,0,0,0,3,1.54h.23c.27,0,.54,0,.8,0a7.28,7.28,0,0,1,5.6,2.24,7.81,7.81,0,0,1,1.7,6.13,3.85,3.85,0,0,0,.65,2.32c.82,1.25,1.69,2.48,2.53,3.66l.89,1.25v2.54l-.9,1.19c-.92,1.21-1.87,2.46-2.76,3.73a4.18,4.18,0,0,0-.72,2.33,8.16,8.16,0,0,1-2,6.08,7.41,7.41,0,0,1-5.54,2h0l-.83,0h-.19a4,4,0,0,0-2.73,1.13,7.64,7.64,0,0,1-5.6,2.87,8,8,0,0,1-5-2.05,6.23,6.23,0,0,0-.6-.42l-.32-.2a1,1,0,0,0-.55-.16.92.92,0,0,0-.36.07,1,1,0,0,0-.61.69l-.13.54c-.08.34-.15.63-.23.91-.53,1.71-.75,3.65,1.61,5.17a4.28,4.28,0,0,1,1.16,2.58c1,6,1.94,12.13,2.84,18.06,0,0,2.85,18.63,3.93,25.73a1,1,0,0,0,1,.85h6c1.22,0,2.44,0,3.66,0,2.64,0,4.16,1.47,4.3,4.05a53.07,53.07,0,0,1,0,6.45,3.84,3.84,0,0,1-4.13,3.83c-.93,0-1.87,0-2.81,0H921.36c-1.53,0-3.07,0-4.6,0-1.34,0-2.14-.7-2.18-1.89a2,2,0,0,1,2.21-2.06l.73,0h15.84a1,1,0,0,0,1-1v-4.26a1,1,0,0,0-1-1H746.14a1,1,0,0,0-1,1v4.26a1,1,0,0,0,1,1H901.65c.31,0,.61,0,.92,0a2,2,0,0,1,0,3.94c-.23,0-.45,0-.68,0H842.08q-47.72,0-95.46,0ZM904.38,275c3.75,0,5,1.29,5,5.08,0,3.59,0,7.19,0,10.78V300c0,.49,0,1,.06,1.49l0,.73a1,1,0,0,0,1,.95h7.92a1,1,0,0,0,.76-.34,1,1,0,0,0,.23-.81l-2.59-17c-1.24-8.09-2.47-16.18-3.75-24.27-.13-.82-1-2.06-2-2.09-1.59-.07-3.16-.08-4.34-.08l-4,0a1,1,0,0,0-1,.84c-.76,4.91-1.47,9.56-2.21,14.44a1,1,0,0,0,.23.81,1,1,0,0,0,.76.34h3.88Zm-48.76,22.71a1.06,1.06,0,0,0-.59.19l-4.75,3.44a1,1,0,0,0,.58,1.81h9.56a1,1,0,0,0,1-.7,1,1,0,0,0-.37-1.12l-4.8-3.43A1,1,0,0,0,855.62,297.72Zm11.09-18.61a1,1,0,0,0-1,1v22a1,1,0,0,0,1,1h37.57a1,1,0,0,0,1-1v-22a1,1,0,0,0-1-1Zm-104.2-10.88c-.43,0-.86,0-1.3.08l-.52,0a1,1,0,0,0-.93,1v32.76a1,1,0,0,0,1,1h35.81a1,1,0,0,0,1-1q0-3.09,0-6.15c0-5.07,0-10.32.07-15.45,0-2.49-.22-5.11-2.51-7.38a9.44,9.44,0,0,1-1.79-2.87A3.2,3.2,0,0,0,790,268.2c-5.44,0-10.84,0-16.25,0H762.51Zm51,29.95a1,1,0,0,0-.56.17l-4.37,2.92a1,1,0,0,0,.56,1.83h8.74a1,1,0,0,0,.55-1.83l-4.37-2.92A.94.94,0,0,0,813.5,298.18Zm-10.91-17.85a1,1,0,0,0-1,1v17.95a1,1,0,0,0,.53.88,1,1,0,0,0,.47.12,1,1,0,0,0,.56-.17l1.83-1.23c1.91-1.27,3.72-2.48,5.48-3.74a3.1,3.1,0,0,0,1-2.31c.06-2.56.06-5.24,0-8.18,0-.48-.25-1.92-1.24-2.23-1.85-.57-3.75-1.08-5.58-1.57l-1.81-.49A1.09,1.09,0,0,0,802.59,280.33Zm-7.1-22.11a1,1,0,0,0-1,.93,17.76,17.76,0,0,0,4.88,12.93,19.12,19.12,0,0,0,13.43,6.49h.57c12.49,0,19.17-11.24,19.18-19.36a1,1,0,0,0-1-1Zm53.35-3.7a1,1,0,0,0-1,1c0,.66,0,1.3,0,1.92,0,1.36-.05,2.64,0,3.94a7.83,7.83,0,0,0,7.29,7.19l.45,0a7.62,7.62,0,0,0,7.55-6.17,26.5,26.5,0,0,0,.13-4.79c0-.7,0-1.4,0-2.11a1,1,0,0,0-1-1Zm-88-21.19a1,1,0,0,0-1,1v28.81a1,1,0,0,0,1,1h28.81a1,1,0,0,0,1-1.13l-.14-1.07a28.67,28.67,0,0,1,5.55-22,6.63,6.63,0,0,0,1.29-5.84,1,1,0,0,0-1-.79h-8c-2,0-3.92,0-5.87,0-.85,0-2.26-.29-2.24-2,0-1.25.8-1.9,2.32-1.92l5,0h6.78c.49,0,1,0,1.49-.07l.76,0a1,1,0,0,0,1-1v-2.18c0-1.52,0-3,0-4.41-.07-6.6-4.66-11.33-11.15-11.51-2.48-.08-5-.11-7.63-.11s-5.26,0-7.95.11c-5.68.14-10.16,3.93-10.9,9.21a36.11,36.11,0,0,0-.14,6.17c0,.93.06,1.88.06,2.84a1,1,0,0,0,1,1h6.82c1.37,0,2,.56,2.14,1.79a1.77,1.77,0,0,1-.37,1.42,2.52,2.52,0,0,1-1.85.71c-.86,0-1.73.05-2.6.05h-2ZM905.59,245a1.46,1.46,0,0,0-.73.18,2.26,2.26,0,0,0-.82,2.2c.27,1.52.58,3,.89,4.52l.35,1.68a1,1,0,0,0,.66.75,4.27,4.27,0,0,0,1.34.25c2,0,2.32-1.93,2.44-2.57l0-.26c.7-3.83.53-4.24-2.69-6.28A3,3,0,0,0,905.59,245ZM813,240.17H802.49a2.63,2.63,0,0,0-2,.67,23.33,23.33,0,0,0-5.77,12,1,1,0,0,0,1,1.15h35.68a1,1,0,0,0,1-1.17,24.05,24.05,0,0,0-5.61-11.78,3.25,3.25,0,0,0-2.34-.88C820.57,240.17,816.77,240.17,813,240.17Zm102.75,2.09c1.32,0,1.71.7,2.45,2.11s2,2.72,3.33,2.93l.25,0c1.37,0,2.8-1.74,3.27-2.58,1.13-2,1.48-2.22,2.05-2.22a9.59,9.59,0,0,1,2.29.51,6.23,6.23,0,0,0,1.81.26,4,4,0,0,0,2.55-.75c1.36-1.14.44-4.27.43-4.3-.73-2.42-.57-2.8,1.74-4,.12-.06,2.9-1.5,2.93-3.36,0-1.51-1.84-2.91-2.83-3.44-2.3-1.23-2.39-1.45-1.57-4,.28-.85.75-3.3-.39-4.44a3.31,3.31,0,0,0-2.39-.75,7.6,7.6,0,0,0-2,.29,7.48,7.48,0,0,1-2,.38c-.62,0-1-.21-2-2.11-.51-1-1.87-2.82-3.4-2.89h0c-1.65,0-3.09,2-3.52,2.76-1,1.83-1.42,2-2,2a7.61,7.61,0,0,1-2-.43,7.24,7.24,0,0,0-2-.29,4.07,4.07,0,0,0-2.49.7c-1.38,1.11-.43,4.35-.39,4.49.65,2.18.44,2.67-1.61,3.71a8.14,8.14,0,0,0-2.22,1.9c-.26.28-.51.57-.79.82a1.05,1.05,0,0,0-.31.71,1,1,0,0,0,.29.72l.75.76c.64.64,1.28,1.29,1.93,1.92a2,2,0,0,0,.78.43l.15.06a1.9,1.9,0,0,1,1,2.62c-.08.23-.17.45-.26.67a9.88,9.88,0,0,0-.39,1,3.82,3.82,0,0,0,.3,3.53,3,3,0,0,0,2.55,1.12,5.78,5.78,0,0,0,1.26-.14,15.49,15.49,0,0,0,2-.63Zm-27.3-1.45c.57,0,1,.21,2,2.07.37.67,1.64,2.41,3,2.41a3.65,3.65,0,0,0,2.45-1.7c.17-.21.34-.42.5-.59a2.16,2.16,0,0,0,.49-.95,1,1,0,0,1,.08-.22,1.78,1.78,0,0,1,1.74-1.25,3.3,3.3,0,0,1,.89.13,3.18,3.18,0,0,1,.58.23,3.89,3.89,0,0,0,1.53.41c.3,0,2.61-.08,3-1.38a4.25,4.25,0,0,0-.52-3.53,11.2,11.2,0,0,0-2.49-2c-.34-.24-.7-.47-1-.73a1,1,0,0,0-1.37.17,7.62,7.62,0,0,1-6,3.23,7.8,7.8,0,0,1-2.46-.42,6.84,6.84,0,0,1-4.77-6.36,7.44,7.44,0,0,1,1.13-4.23,16.93,16.93,0,0,1,3.51-2.94c.61-.43,1.22-.86,1.82-1.32a1,1,0,0,0,.35-1.07l-1-3.49a1,1,0,0,0-.82-.71h-.14a1,1,0,0,0-.85.47c-1.19,1.92-1.54,2.11-2.1,2.11a9.13,9.13,0,0,1-2.11-.44,6.26,6.26,0,0,0-1.65-.22,2.93,2.93,0,0,0-2.25.75c-1.1,1.2-.35,3.63-.26,3.9.77,2.37.61,2.77-1.52,3.91a7,7,0,0,0-1.81,1.6c-.2.22-.41.45-.62.66a1,1,0,0,0-.3.7,1,1,0,0,0,.28.72c.22.22.42.46.63.71a6.57,6.57,0,0,0,1.9,1.72c2.29,1.18,2.44,1.5,1.73,3.82,0,0-.91,3,.42,4a3.8,3.8,0,0,0,2.17.58,6.39,6.39,0,0,0,1.81-.26A7.37,7.37,0,0,1,888.42,240.81Zm4.73-14.1a3,3,0,0,0-3.15,3,3.26,3.26,0,0,0,.84,2.44,2.79,2.79,0,0,0,2,.85l.39,0a4.66,4.66,0,0,0,2.32-1.24,5.68,5.68,0,0,1,.53-.42,1,1,0,0,0,.44-1c-.12-.9-.48-3.65-3.32-3.65Zm5.57-29.42a2.81,2.81,0,0,0-2.08.68c-.92.92-.64,2.84-.36,3.73.84,2.66.85,2.71-1.74,4.13,0,0-2.48,1.4-2.22,2.94a4.57,4.57,0,0,0,2.38,2.74c2.54,1.32,2.59,1.43,1.81,4.11,0,.11-.75,2.64.45,3.6a3.2,3.2,0,0,0,2.11.58c.45,0,.92,0,1.33-.08a29.17,29.17,0,0,0,2.92-.49c.46-.1.94-.2,1.47-.29a1,1,0,0,0,.75-.63l.5-1.3a1,1,0,0,0-.42-1.22c-5-3-6.57-6.42-4.81-10.34a7.45,7.45,0,0,1,6.8-4.35,7.35,7.35,0,0,1,2.14.32c4.1,1.26,5.65,4.56,4.76,10.06a1,1,0,0,0,.41,1,1,1,0,0,0,1.05.06l6.76-3.67a1,1,0,0,0,.13-1.68c-.24-.18-.47-.37-.7-.57a9.3,9.3,0,0,0-1.86-1.32c-2.3-1.14-2.43-1.44-1.66-4,0-.11.77-2.63-.4-3.59A3.66,3.66,0,0,0,916,197a5,5,0,0,0-1.37.19,9.92,9.92,0,0,1-2.39.51c-.57,0-.89-.18-2-2.16,0,0-1.26-2.18-2.73-2.18h-.18a4.37,4.37,0,0,0-2.85,2.28c-1.11,2.08-1.43,2.27-2,2.27a9.22,9.22,0,0,1-2.09-.42A5.85,5.85,0,0,0,898.72,197.29Zm8.72,7.85a3.13,3.13,0,0,0-3.22,3.25,3.19,3.19,0,0,0,3.29,3.37h.14a3.22,3.22,0,0,0,3.32-3.41,3.13,3.13,0,0,0-3.35-3.21Zm-132.27-26.5a1,1,0,0,0-1,1V205a1,1,0,0,0,1,1h6.9a1,1,0,0,0,1-1v-25.4a1,1,0,0,0-1-1Zm80.46,3.52a1,1,0,0,0-.88.51q-.56,1-1.08,1.92c-.8,1.42-1.56,2.75-2.23,4.12a4.34,4.34,0,0,0,1.35,5.64,4.44,4.44,0,0,0,2.8,1,4.67,4.67,0,0,0,2.62-.86,4.35,4.35,0,0,0,1.68-5.59,43.91,43.91,0,0,0-2.25-4.27c-.37-.63-.75-1.3-1.14-2a1,1,0,0,0-.87-.51Zm29.81,114.37-3.88,0q-1.23,0-2.46,0c-1.42,0-2.26-.77-2.24-2a1.92,1.92,0,0,1,2.11-2q3.27,0,6.54,0c2.18,0,4.37,0,6.55,0a1.87,1.87,0,0,1,2,2,1.9,1.9,0,0,1-2.11,1.92c-.87,0-1.74,0-2.6,0Zm.5-8.43-11.35,0c-.92,0-2.48-.27-2.51-2a1.79,1.79,0,0,1,.45-1.33,3,3,0,0,1,2.17-.67h21.66c2.47,0,2.49,1.45,2.5,1.93a1.88,1.88,0,0,1-.49,1.39,2.66,2.66,0,0,1-1.91.64Zm36-49.64a7.85,7.85,0,1,1-.15-15.69h.12a7.85,7.85,0,1,1,.09,15.69Zm0-11.7a4,4,0,0,0-4,3.74,3.75,3.75,0,0,0,1,2.7,4,4,0,0,0,2.81,1.26h0a3.91,3.91,0,0,0,4.05-3.73,3.83,3.83,0,0,0-1.11-2.76,4,4,0,0,0-2.73-1.21Z"/><path class="cls-5" d="M469.82,317.65q-9.42,0-18.85,0a4.33,4.33,0,0,1-4.38-4.37c0-1.7,0-3.45,0-5.34a4.36,4.36,0,0,1,4.48-4.43c1.45,0,2.9,0,4.36,0l6.18,0a1,1,0,0,0,1-1V296.1a1,1,0,0,0-.34-.76,1,1,0,0,0-.66-.24h-.14l-2,.32c-1.5.25-3.06.51-4.59.62-.76.06-1.59.09-2.6.09l-2.09,0-1.11,0,.48-4.51c.28-2.72.57-5.4.85-8.08l4.25-39.62q.91-8.53,1.86-17.08a3.41,3.41,0,0,0-1.24-3.3,9.69,9.69,0,0,1,2.95-16.35,4.7,4.7,0,0,0,2.4-2.17,12.33,12.33,0,0,0,2.2-8.92,4.15,4.15,0,0,1,.29-1.49c.11-.35.22-.72.31-1.11a1,1,0,0,0-.62-1.16c-8.56-3.28-13.31-10.37-16.78-17.06l9.75-6a1,1,0,0,0,.4-1.22c-1.68-4.33-1.61-9-1.53-13.86,0-.45,0-.9,0-1.35l.58,0c1.44-.08,3.06-.18,4.79-.18a30.82,30.82,0,0,1,18.5,5.65,1,1,0,0,0,.57.18l.21,0a1,1,0,0,0,.65-.47,10.12,10.12,0,0,1,6.32-5,10.3,10.3,0,0,1,2.4-.29,9.57,9.57,0,0,1,8.95,6,4.35,4.35,0,0,0,2.93,2.9,7.29,7.29,0,0,1,1.53.8c.26.16.52.33.8.48a1,1,0,0,0,.49.13.9.9,0,0,0,.42-.1l1.07-.49c.93-.43,1.89-.87,2.83-1.37a3.27,3.27,0,0,0,1.31-1.64,9.46,9.46,0,0,1,8.07-6.62,11.36,11.36,0,0,1,1.41-.09,9.68,9.68,0,0,1,7.81,4.15,3.71,3.71,0,0,0,2.72,1.19H531c6.48,0,11.88.28,17.22,1.63,20.59,5.2,35.14,17.9,43.26,37.75a6.08,6.08,0,0,0,2,2.55,11.31,11.31,0,0,1,4.12,5.1,4,4,0,0,0,2.07,2,9.78,9.78,0,0,1,3.08,16.69,3.62,3.62,0,0,0-1.09,2.8c1.32,12.8,2.72,25.81,4.06,38.39l.53,4.94c.75,7,1.51,13.94,2.28,21l.57,5.2h-.76l-2,0-2,0a16.71,16.71,0,0,1-7.43-1.35,1.12,1.12,0,0,0-.43-.1,1.06,1.06,0,0,0-.54.16,1,1,0,0,0-.46.84v6.81a1,1,0,0,0,1,1h10c3.43,0,5.11,1.68,5.12,5.13v1.08c0,1.15,0,2.29,0,3.44a4.34,4.34,0,0,1-4.42,4.5l-18.91,0q-9.4,0-18.79,0a4.31,4.31,0,0,1-4.35-4.39c0-1.68,0-3.37,0-5a4.42,4.42,0,0,1,4.68-4.74h10.39a1,1,0,0,0,1-1l0-.62c0-.39,0-.76,0-1.13v-5.68c0-4.92,0-10,0-15a3.31,3.31,0,0,0-1.9-3.26,14,14,0,0,1-2.06-1.47L577,275c-3.42-2.72-4.32-5.3-3.14-8.91a60.93,60.93,0,0,0,1.9-8.58c.21-1.24.43-2.49.67-3.73a1,1,0,0,0-.64-1.13c-23.07-8.18-38-23.59-45.73-47.13a1,1,0,0,0-1.9,0c-7.66,23.47-22.61,38.89-45.7,47.13a1,1,0,0,0-.65,1.13l.46,2.39c.39,2,.79,4.05,1.19,6.08.16.82.34,1.63.51,2.44.33,1.57.68,3.18.92,4.77a2.52,2.52,0,0,1-.25,1.6c-1.29,1.36-2.69,2.67-4.05,3.94-.77.72-1.54,1.44-2.3,2.17a3.48,3.48,0,0,0-1.32,2.21c0,6.14,0,12.39,0,18.43V302a1.57,1.57,0,0,0,.16.63l.08.21a1,1,0,0,0,.94.65h9.64c3.72,0,5.31,1.58,5.32,5.27v1.35c0,1.06,0,2.11,0,3.16a4.34,4.34,0,0,1-4.38,4.37Q479.25,317.66,469.82,317.65ZM451.1,307a1,1,0,0,0-1,1v5.19a1,1,0,0,0,1,1h37.51a1,1,0,0,0,1-1V308a1,1,0,0,0-1-1Zm118.49,0a1,1,0,0,0-1,1v5.21a1,1,0,0,0,1,1H607.1a1,1,0,0,0,1-1v-5.21a1,1,0,0,0-1-1Zm-97.27-27.41-2.63.35a1,1,0,0,0-.87,1,14.89,14.89,0,0,1-2.38,9.52,1.92,1.92,0,0,0-.3,1V302.4a1,1,0,0,0,1,1h5.31a1,1,0,0,0,1-1V280.52a1,1,0,0,0-1-1Zm113.46,0a1,1,0,0,0-.65.24,1,1,0,0,0-.35.76v21.85a1,1,0,0,0,1,1h5.27a1,1,0,0,0,1-1c0-3.55,0-7,0-10.37a2.54,2.54,0,0,0-.31-1.53,15,15,0,0,1-2.37-9.51,1,1,0,0,0-.86-1l-2.57-.39Zm11.87-50.11a1,1,0,0,0-.67.26l-.92.85a14.31,14.31,0,0,1-1.83,1.57,3.34,3.34,0,0,0-1.51,3.05q0,13.44,0,26.87,0,10.14,0,20.28c0,6.21,4.2,10.37,10.44,10.37h0c.35,0,.72,0,1.09,0a1,1,0,0,0,.69-.35,1,1,0,0,0,.23-.75l-6.56-61.21a1,1,0,0,0-.64-.83A1,1,0,0,0,597.65,229.38Zm-137.11-.11a1,1,0,0,0-1,.89L453,291.42a1,1,0,0,0,.86,1.09,11.81,11.81,0,0,0,1.56.11,9.68,9.68,0,0,0,10-9.74c.06-14.86,0-30,0-44.57v-3.6a3.26,3.26,0,0,0-.86-2.11c-.71-.73-1.47-1.41-2.28-2.13l-1-.94A1,1,0,0,0,460.54,229.27Zm124.31,4.37a1,1,0,0,0-.93.63l-.07.16a2.73,2.73,0,0,0-.18.53l-.47,2.32c-2.05,10.15-4.16,20.65-6.19,31a3.6,3.6,0,0,0,.79,2.79,15.84,15.84,0,0,0,10.34,5.32h.12a1,1,0,0,0,.66-.26,1,1,0,0,0,.34-.74V235.21a1,1,0,0,0-.84-1l-3.4-.57Zm-111.42,0h-.18l-3.52.63a1,1,0,0,0-.83,1v40a1,1,0,0,0,.3.71,1,1,0,0,0,.7.29h0A15.49,15.49,0,0,0,480,271.58a3.94,3.94,0,0,0,1.12-3.92c-1-5-2.06-10.09-3-15l-1.21-6.07c-.64-3.21-1.29-6.42-1.94-9.65l-.51-2.52A1,1,0,0,0,473.43,233.61Zm52.95-48.71a1,1,0,0,0-.59.19l-3.22,2.34a1,1,0,0,0-.4,1c1,5.58.69,6.74-3.28,11.32a4.87,4.87,0,0,0-.87,1.89c-5.4,18.79-17.32,32.09-35.43,39.52-.52.22-1,.41-1.58.62l-.74.27a1,1,0,0,0-.62,1.13l.12.66c.23,1.19.45,2.31.67,3.42.05.24.12.49.22.81l.13.43a1,1,0,0,0,.5.61.92.92,0,0,0,.46.11,1,1,0,0,0,.33-.05A66.41,66.41,0,0,0,519,218.45a65.12,65.12,0,0,0,8.37-32.55,1,1,0,0,0-.55-.89A1,1,0,0,0,526.38,184.9Zm10.79-12.71a1,1,0,0,0-.84.47c-.37.59-.68,1.17-1,1.74a6.39,6.39,0,0,1-1.63,2.33c-3.29,2.18-3.1,5.27-3,7.75,0,.39,0,.78,0,1.17s0,.66,0,1c.69,23.87,11.18,42.65,31.18,55.81a56.15,56.15,0,0,0,14.25,6.67,1,1,0,0,0,.3,0A1,1,0,0,0,577,249a1,1,0,0,0,.47-.66c.38-1.87.71-3.53,1-5.16a1,1,0,0,0-.59-1.12l-2-.78c-1.35-.54-2.63-1.05-3.86-1.66-19.94-9.72-31.25-25.77-33.6-47.7a103.73,103.73,0,0,1-.35-11.42c0-1.77,0-3.54,0-5.31v-2a1,1,0,0,0-.72-1A1.26,1.26,0,0,0,537.17,172.19ZM495.6,204.76a1,1,0,0,0-.53.15c-3.85,2.39-4,2.5-6.37,6a2.11,2.11,0,0,1-.17.22,2.46,2.46,0,0,0-.55.87c0,.11-.08.24-.12.36a4.11,4.11,0,0,0-.36,2.08,9.63,9.63,0,0,1-6,10.84,4.21,4.21,0,0,0-2.75,2.83,5.73,5.73,0,0,1-.55,1,4.2,4.2,0,0,0-.86,2.34,25.71,25.71,0,0,0,.79,4.51c.14.6.29,1.22.42,1.86a1,1,0,0,0,.49.67,1.05,1.05,0,0,0,.49.13,1.15,1.15,0,0,0,.35-.07c14.47-5.43,24.82-14.86,31.63-28.82a1,1,0,0,0-.9-1.44,1.06,1.06,0,0,0-.42.09,13.38,13.38,0,0,1-5.63,1.43c-3.09,0-5.78-1.53-8.21-4.67A1,1,0,0,0,495.6,204.76Zm47-32.16a.94.94,0,0,0-.58.19,1,1,0,0,0-.42.81c0,1.57,0,3.1,0,4.59,0,3.18,0,6.18,0,9.2.6,18.41,8.32,33.22,23,44a50.26,50.26,0,0,0,13.79,7.11.86.86,0,0,0,.32.05,1,1,0,0,0,.54-.15,1,1,0,0,0,.45-.73,19.61,19.61,0,0,1,.49-2.37c.58-2.26,1.22-4.83-.83-7.34a1.59,1.59,0,0,0-.38-.74l-.14-.16a12.15,12.15,0,0,0-1.5-1.45c-.71-.56-1.42-1.09-2.14-1.63-1-.74-2-1.5-3-2.28a8.51,8.51,0,0,1-1-1.05,13.15,13.15,0,0,0-1.17-1.2A41.84,41.84,0,0,1,554.67,191c-.27-2.59-.28-5.27-.29-7.86,0-1.48,0-3-.07-4.51,0-.53-.32-2.1-1.36-2.49-2.51-.93-5-1.78-7.7-2.67l-2.36-.8A1.13,1.13,0,0,0,542.57,172.6Zm-79.06,50c-.37,3.57.73,6,3.37,7.41a6.4,6.4,0,0,0,3,.79,6.52,6.52,0,0,0,6.11-8.2,12.23,12.23,0,0,0,1.44.09,6.39,6.39,0,0,0,6.05-3.32,6,6,0,0,0-.28-6.61,6.35,6.35,0,0,0-5.66-2.86,11.58,11.58,0,0,0-1.4.09c.25-3.79-.78-6.08-3.35-7.42a6.52,6.52,0,0,0-3-.77,6.48,6.48,0,0,0-6.12,8.21,12.42,12.42,0,0,0-1.55-.1,6.3,6.3,0,0,0-5.65,2.83,6,6,0,0,0-.11,6.94,6.32,6.32,0,0,0,5.74,3h0A11.87,11.87,0,0,0,463.51,222.56Zm118.55,0a8.28,8.28,0,0,0,1.78,6.28,5.92,5.92,0,0,0,4.41,1.89h.13a5.84,5.84,0,0,0,4.42-1.83,8.36,8.36,0,0,0,1.86-6.33,11.87,11.87,0,0,0,1.41.09,6.31,6.31,0,0,0,5.75-3,6,6,0,0,0,0-6.78,6.3,6.3,0,0,0-5.7-3,12.48,12.48,0,0,0-1.45.1c.42-3.4-.6-5.79-3.1-7.29a6,6,0,0,0-6.78.24c-2.88,2-3,4.9-2.72,7a11.42,11.42,0,0,0-1.39-.09,6.32,6.32,0,0,0-5.78,3,6,6,0,0,0,0,6.77,6.33,6.33,0,0,0,5.72,3A12.32,12.32,0,0,0,582.06,222.55Zm-23.18-43.23a1.07,1.07,0,0,0-.46.11,1,1,0,0,0-.54.81c-1.12,13.76,2.57,24.83,11.3,33.83a1,1,0,0,0,.72.3.75.75,0,0,0,.21,0,1,1,0,0,0,.73-.64c1.26-3.52,3.25-5.64,6.26-6.65a2.7,2.7,0,0,0,1.65-1.24,2.82,2.82,0,0,0-.06-2.16A47.19,47.19,0,0,0,570,188.59a45.09,45.09,0,0,0-10.6-9.12A1,1,0,0,0,558.88,179.32Zm-78.42,25.47a1,1,0,0,0-.13,1.83L485,209.1a1.12,1.12,0,0,0,.47.11,1,1,0,0,0,1-.87l.59-4.33,5.29-1a1,1,0,0,0,.42-1.78l-3.58-2.76a1,1,0,0,0-.61-.22.83.83,0,0,0-.22,0,1,1,0,0,0-.67.53l-1.92,3.85a.79.79,0,0,0-.08.26Zm18.09-6.64c-.43,3.64.66,6.11,3.33,7.56a6,6,0,0,0,6.75-.52,6.35,6.35,0,0,0,2.39-6.81h1.57c.3,0,.6,0,.9,0a6.4,6.4,0,0,0,4.82-2.94,6.08,6.08,0,0,0,.64-5.33,3.46,3.46,0,0,0-1.85-1.84c-1.31-.55-2.65-1-4-1.5l-1.48-.54a1.07,1.07,0,0,0-.35-.06,1,1,0,0,0-.81,1.58c2,2.85,1.92,5.82-.34,9.08a1.12,1.12,0,0,0-.17.46h0a1,1,0,0,0-.58.19,7.73,7.73,0,0,1-4.52,1.62,8.23,8.23,0,0,1-4.75-1.73,1,1,0,0,0-.57-.19,1,1,0,0,0-.18-.61c-2.2-3.11-2.16-6.06.12-9.27a1,1,0,0,0,.19-.63.92.92,0,0,0,.45-.12c2-1.05,3.29-1.63,4.58-1.63s2.74.56,4.94,1.58a1.06,1.06,0,0,0,.42.09,1,1,0,0,0,.76-.35,1,1,0,0,0,.07-1.2l-.35-.52c-.15-.23-.29-.43-.42-.64a15.08,15.08,0,0,0-5.49-5.37,3.11,3.11,0,0,0-1.5-.35,3.28,3.28,0,0,0-1.52.34c-2.46,1.31-3.56,4-3,7.21a13.8,13.8,0,0,0-1.4-.07,6.33,6.33,0,0,0-6.12,3.44,6.35,6.35,0,0,0,5.61,9.3h0A8.16,8.16,0,0,0,498.55,198.15Zm-18-4.44a3.68,3.68,0,0,0,0,7.36,3.68,3.68,0,1,0,0-7.36Zm54.85-32.25c-.56,0-1.11,0-1.66,0a1,1,0,0,0-.76,1.61l.48.6a12.89,12.89,0,0,1,.82,1.08l.22.33a4.17,4.17,0,0,1,.67,1.25c.55,2.35,2.41,2.56,3.53,2.68,19,2.14,32.9,12,41.43,29.24l.77,1.53a1,1,0,0,0,.89.55,1.07,1.07,0,0,0,.39-.07l4.82-2a1,1,0,0,0,.54-1.29C579.28,176.06,557.83,161.46,535.43,161.46ZM472.68,191a6.39,6.39,0,0,0-4.41,1.7,5.93,5.93,0,0,0-2.1,5,1,1,0,0,0,1,.93h5a1,1,0,0,0,.95-.68l1.87-5.43a.82.82,0,0,0,.06-.38h0a1.21,1.21,0,0,0,.37.07,1,1,0,0,0,.58-.19,7.75,7.75,0,0,1,4.54-1.63,8.15,8.15,0,0,1,4.81,1.79,1,1,0,0,0,.59.19,1,1,0,0,0,.37-.07,1,1,0,0,0,.61-.75l.41-2.21a1,1,0,0,0-.71-1.15,10.92,10.92,0,0,1-6-4,2.26,2.26,0,0,0-1.76-.7,2.61,2.61,0,0,0-1,.17c-2.77,1.15-4.13,4.12-3.47,7.59l-.17-.05A8,8,0,0,0,472.68,191Zm32.16-2.64a3.69,3.69,0,0,0-3.67,3.64,3.73,3.73,0,0,0,3.62,3.73h0a3.69,3.69,0,0,0,.11-7.37Zm-35.54-18.7a37.86,37.86,0,0,0-17.92,6.16,1,1,0,0,0-.34,1.3,26,26,0,0,0,10.39,10.84,9.41,9.41,0,0,0,4.41,1.57h0a5.09,5.09,0,0,0,3.27-1.27,2.5,2.5,0,0,1,.55-.31,3,3,0,0,0,1.37-1,16.27,16.27,0,0,0,1.2-2.49c.14-.34.28-.69.43-1a1,1,0,0,0,0-.88,1,1,0,0,0-.71-.51l-9.44-1.62.55-3.3,8.81,1.44H472a1,1,0,0,0,.93-1.36l-2.62-6.88a1,1,0,0,0-.93-.64Zm42.7,7.14c-.37,3.57.73,6,3.37,7.4a6.39,6.39,0,0,0,9.08-7.45,11.56,11.56,0,0,0,1.16.06h0c4.28,0,7.09-2.43,7.17-6.19a5.91,5.91,0,0,0-1.64-4.38,8,8,0,0,0-5.86-2.08l-.65,0c.24-2.21.12-5.23-3-7.17a6.2,6.2,0,0,0-3.36-1,6.36,6.36,0,0,0-3.57,1.16c-2.88,2-3,4.88-2.74,7-.43,0-.84-.05-1.23-.05a6.42,6.42,0,0,0-6,3.15A6.05,6.05,0,0,0,505,174a6.33,6.33,0,0,0,5.65,2.86C511,176.84,511.5,176.81,512,176.76Zm-29.68,0c0,.26,0,.51,0,.75a14.55,14.55,0,0,0,0,1.62,6,6,0,0,0,5.93,5.62,6.29,6.29,0,0,0,3.32-1,12.73,12.73,0,0,1,1.28-.63c.36-.15.72-.31,1.06-.49l.11-.06a2.42,2.42,0,0,0,1.36-1.28,10.59,10.59,0,0,1,5.15-6.18,1,1,0,0,0,.49-1.06c-.06-.34-.14-.67-.21-1a11,11,0,0,1-.3-1.76,11.66,11.66,0,0,1,.18-2.76,3.14,3.14,0,0,0-3.29-4.45c-.31,0-.63,0-1,0H495c.36-3.52-.74-5.93-3.35-7.35a6.24,6.24,0,0,0-3-.8,6.47,6.47,0,0,0-3.91,1.42c-2,1.5-2.81,4-2.22,6.83-.42,0-.82-.06-1.21-.06-4.24,0-7,2.42-7.1,6.17a5.92,5.92,0,0,0,1.63,4.4,8,8,0,0,0,5.88,2.08h0ZM461.27,156a20.53,20.53,0,0,0-2.63.16,1,1,0,0,0-.68.38,1,1,0,0,0-.2.75l1.34,9.42a1,1,0,0,0,1,.86h.14l2-.27,8.6-1.21a2.59,2.59,0,0,0,1.43-.73c.81-.86,1.59-1.74,2.38-2.62l.85-1a1,1,0,0,0-.16-1.47A24.7,24.7,0,0,0,461.27,156Zm8.59,67.31a8.13,8.13,0,0,1-4.75-1.73.62.62,0,0,1-.65-.65c-2.29-3.2-2.29-6.18,0-9.4a1,1,0,0,0,.19-.64h0a1.09,1.09,0,0,0,.49-.13c2.1-1.18,3.4-1.63,4.63-1.63s2.61.48,4.84,1.71a1,1,0,0,0,.34.12,1,1,0,0,0,.19.59c2.31,3.14,2.32,6.13,0,9.41a1,1,0,0,0-.18.55h-.05a1,1,0,0,0-.58.19A7.72,7.72,0,0,1,469.86,223.33Zm-.13-10.76a3.7,3.7,0,0,0-2.57,1.16,3.62,3.62,0,0,0-1,2.62,3.66,3.66,0,0,0,6.33,2.43,3.6,3.6,0,0,0,1-2.62,3.7,3.7,0,0,0-3.68-3.59Zm118.61,10.76a8.11,8.11,0,0,1-4.7-1.69.62.62,0,0,1-.63-.71c-2.32-3.14-2.32-6.13,0-9.39a.9.9,0,0,0,.17-.47.92.92,0,0,0,.5-.18,7.32,7.32,0,0,1,9.39,0,1,1,0,0,0,.48.18,1,1,0,0,0,.18.51c2.29,3.19,2.29,6.17,0,9.38a1.12,1.12,0,0,0-.17.46,1,1,0,0,0-.49.18A8,8,0,0,1,588.34,223.33Zm0-10.76a3.69,3.69,0,1,0,2.66,6.25,3.61,3.61,0,0,0,1-2.6,3.68,3.68,0,0,0-3.68-3.65Zm-70-35a8.15,8.15,0,0,1-4.75-1.74,1.08,1.08,0,0,0-.48-.18,1,1,0,0,0-.18-.46c-2.28-3.22-2.27-6.22,0-9.43a.62.62,0,0,1,.64-.64,7.31,7.31,0,0,1,9.41,0,1,1,0,0,0,.43.17.92.92,0,0,0,.19.47c2.31,3.19,2.33,6.18.06,9.41a.9.9,0,0,0-.18.59h-.1a1,1,0,0,0-.58.18A7.67,7.67,0,0,1,518.35,177.53Zm0-10.76a3.7,3.7,0,0,0-3.69,3.61,3.75,3.75,0,0,0,3.62,3.75h0a3.7,3.7,0,0,0,3.74-3.62,3.69,3.69,0,0,0-3.61-3.74Zm-29.17,10.7a11.53,11.53,0,0,1-5.36-1.66,1.06,1.06,0,0,0-.25-.09,1,1,0,0,0-.19-.56C481,172,481,169,483.28,165.77a.94.94,0,0,0,.18-.6h.09a1,1,0,0,0,.58-.18,7.7,7.7,0,0,1,4.51-1.62,8.2,8.2,0,0,1,4.76,1.74,1,1,0,0,0,.58.18h0a1.06,1.06,0,0,0,.09.25c2.26,4.49,2.11,7.47-.5,10A6.14,6.14,0,0,1,489.15,177.47Zm-.47-10.71a3.69,3.69,0,0,0-.11,7.37h.11a3.68,3.68,0,0,0,.12-7.36Z"/><path class="cls-5" d="M1151,245.79a2.25,2.25,0,0,0-3.1.87c-1.4,2.23-2.72,4.49-4.08,6.73a5.43,5.43,0,0,1-.75-.23,35.65,35.65,0,0,0-22.35-2.76c-5.08.95-10.07-.22-14.76-2.8a154,154,0,0,1,26.84-40c4,2.5,8,5,12,7.38,1.45.89,2.79.69,3.54-.47s.39-2.52-1-3.41c-4-2.49-8-5-12-7.4a4.36,4.36,0,0,0-5.91.84c-11.6,12.56-21.31,26.46-28,42.25-4.51,10.69-3.81,21.28,3.24,31.22-4.1,6.66-8.36,13.56-12.63,20.51-1-.61-1.82-1.14-2.67-1.62a8.9,8.9,0,0,0-7.61-.8c-2.87,1-4.49,3.16-5.82,5.68V304a9.81,9.81,0,0,0,1.81,2q9,5.67,18.06,11.17a3.7,3.7,0,0,0,4.79-.82,9.13,9.13,0,0,0-1.69-13.52c-.93-.63-1.89-1.22-2.92-1.87,4.18-6.8,8.3-13.5,12.45-20.16a1.26,1.26,0,0,1,1.11-.4c5,1.48,9.72.19,14.41-1.33,1.6-.53,2.27-1.79,1.8-3.08s-1.7-1.74-3.34-1.29c-1.94.54-3.87,1.12-5.85,1.48-5.8,1-9.76-1.19-11.46-6.82a43.68,43.68,0,0,1-1.65-9.58c-.16-2.51.43-5.07.69-7.76.6.21.79.26,1,.34a30.25,30.25,0,0,0,18.91,2.29,27.32,27.32,0,0,1,5.86-.35,28.13,28.13,0,0,1,11.29,3.17c-3.25,4.3-6,8.78-10,12.21-1.42,1.2-1.66,2.53-.77,3.62s2.38,1.17,3.77-.15a36.37,36.37,0,0,0,4.82-5c4.27-6,8.34-12.21,12.49-18.32a8.13,8.13,0,0,0,.47-.81A2.3,2.3,0,0,0,1151,245.79Zm-54.72,61c2,1.34,2.38,3.61,1,6l-16.4-10.13c1.39-2.27,3.59-3,5.74-1.8C1089.94,302.69,1093.15,304.68,1096.3,306.75Zm138.23-4.68c-2.52-6.3-8.73-7.91-13.39-5.16-.88.51-1.75,1-2.74,1.64l-12.57-20.43a48.2,48.2,0,0,0,3.49-6.13,33.06,33.06,0,0,0-.87-26.68,153.25,153.25,0,0,0-12.29-21.72c-.55-.81-1.1-1.63-1.68-2.42-1-1.38-2.3-1.68-3.46-.85s-1.25,2.06-.37,3.43c.36.56.76,1.1,1.14,1.66a151.72,151.72,0,0,1,12.64,22.21,25,25,0,0,1-15.3,2.78c-1.64-.22-3.27-.52-4.91-.69a2.31,2.31,0,1,0-.53,4.58c1,.15,2,.23,3.07.42a29.66,29.66,0,0,0,18.17-2.15c.34-.15.72-.25,1.14-.4a29,29,0,0,1-1.29,18.84,8.63,8.63,0,0,1-8.76,5.41,29.34,29.34,0,0,1-10.57-2.76c-7.4-3.36-11.67-9.8-16.08-16.13.13-.12.2-.22.29-.25l3.73-1.49c1.58-.65,2.21-1.84,1.7-3.16s-1.79-1.74-3.38-1.16-3.35,1.29-5.09,2a154.73,154.73,0,0,1-14.88-29.8l25.9-16c2.22,2.58,4.39,5.13,6.59,7.67,1.24,1.45,2.47,1.67,3.6.7s1.07-2.33-.09-3.7c-2-2.33-4-4.65-6-6.93-2.56-2.87-4.29-3.09-7.58-1.06L1150,219.22c-2.94,1.82-3.55,3.66-2.31,6.94a163.48,163.48,0,0,0,21.86,39.69c4.54,6.09,10,10.89,17.26,13.35,4.38,1.49,8.86,2.59,13.5,1.32a1.52,1.52,0,0,1,2.07.85c3.73,6.14,7.51,12.26,11.27,18.38.24.39.45.8.72,1.28l-1.77,1.11c-5.48,3.4-6.6,9-2.87,14.2a3.76,3.76,0,0,0,5.18,1.24q9.08-5.52,18.07-11.17A3.51,3.51,0,0,0,1234.53,302.07Zm-21.12,11.05c-1.74-2.2-1.53-4.88.63-6.31,3.17-2.11,6.42-4.12,9.72-6,2.28-1.29,4.51-.4,6,2.21Zm-51.63-142.45c-2.1-.78-4.34-1.17-6.61-1.76-2.31.58-4.6,1-6.76,1.76-3.06,1.07-4,4-2.34,6.78s3.33,5.35,5.06,8c2,3.13,5.72,3.16,7.77.05,1.76-2.67,3.47-5.39,5.14-8.12S1164.77,171.77,1161.78,170.67ZM1155,183l-5.06-8a12.43,12.43,0,0,1,10.12,0Zm-19.41,8c-.43-2.7-.91-5.4-1.47-8.08a3.89,3.89,0,0,0-5-3.08,13.8,13.8,0,0,0-9,8.19,3.68,3.68,0,0,0,1.86,5c3,1.09,6.22,1.83,8.7,2.53C1134,195.67,1136,193.56,1135.63,191Zm-10.83-1.88a9.14,9.14,0,0,1,5-4.58c.37,2.08.73,4,1.12,6.17Zm65.23-1.56a14,14,0,0,0-8.5-7.64,3.82,3.82,0,0,0-5.18,2.74,87.66,87.66,0,0,0-1.57,8.68c-.3,2.32,1.59,4.2,4.57,4.23,2.32-.62,5.28-1.33,8.18-2.21C1190.19,192.57,1191.2,190.11,1190,187.56Zm-10.5,3.17c.38-2.14.73-4.06,1.11-6.19a9.26,9.26,0,0,1,5,4.58Zm20.35,5.78a51.94,51.94,0,0,1-3.27,5.43,2.53,2.53,0,0,1-2.47.06,2.85,2.85,0,0,1-.92-2.44,14.14,14.14,0,0,1,2.25-4.34,2.74,2.74,0,0,1,2.4-.65C1198.58,194.76,1199.09,195.7,1199.88,196.51Zm-86.37,14.81a15.81,15.81,0,0,1-4.49,2.31,2.72,2.72,0,0,1-2.28-1c-.4-.54-.43-2,0-2.34a59.47,59.47,0,0,1,5.47-3.44c.84.81,1.81,1.32,2,2A2.79,2.79,0,0,1,1113.51,211.32Zm1-8.89c-.94,0-1.51-1.13-2-2.28-.63-1.54-2.31-2.87-1.12-4.8a2.17,2.17,0,0,1,3.66-.1,23.45,23.45,0,0,1,2.23,4.38C1117.8,201,1116.58,202.45,1114.48,202.43Zm89.2,10.18a2.78,2.78,0,0,1-2.41,1,14,14,0,0,1-4.35-2.23,2.71,2.71,0,0,1-.7-2.4c.23-.76,1.2-1.29,2-2.06a48.92,48.92,0,0,1,5.36,3.25A2.53,2.53,0,0,1,1203.68,212.61Zm9.31,106a4.47,4.47,0,0,1-3.62-2,9.69,9.69,0,0,1,3-14.91l1.37-.87,0,0c-.15-.28-.3-.54-.45-.79l-3.36-5.47q-4-6.45-7.92-12.92c-.43-.71-.63-.87-1.5-.63-4.8,1.32-9.47.14-13.8-1.33-6.68-2.26-12.4-6.69-17.5-13.52a164.56,164.56,0,0,1-21.92-39.81c-1.33-3.49-.62-5.61,2.51-7.54l24.13-14.93c3.51-2.16,5.51-1.88,8.21,1.16,2.09,2.34,4.11,4.71,6,6.94,1.33,1.56,1.34,3.29,0,4.4-.79.67-2.4,1.47-4.31-.75-1.47-1.69-2.92-3.4-4.39-5.11l-1.92-2.24-25.19,15.56a153.47,153.47,0,0,0,14.47,29l1.3-.51c1.15-.45,2.28-.89,3.42-1.31,1.84-.67,3.41-.1,4,1.45s-.16,3.06-2,3.8l-2.16.86-1.35.54.26.38c4.11,5.91,8.36,12,15.33,15.17a28.5,28.5,0,0,0,10.39,2.72,8.11,8.11,0,0,0,8.27-5.11,28.29,28.29,0,0,0,1.39-18l-.58.22a30.43,30.43,0,0,1-18.46,2.19c-.63-.12-1.26-.2-1.89-.28-.39,0-.78-.09-1.16-.15a2.83,2.83,0,0,1-2.66-3,2.73,2.73,0,0,1,1-1.91,3.06,3.06,0,0,1,2.31-.64c1,.1,1.93.25,2.89.4l2,.29a24.29,24.29,0,0,0,14.58-2.5,150.31,150.31,0,0,0-12.39-21.71l-.42-.6c-.25-.36-.5-.71-.73-1.07-1-1.58-.82-3.16.5-4.11s3-.62,4.15,1c.58.79,1.14,1.61,1.69,2.43a153.57,153.57,0,0,1,12.33,21.79,33.6,33.6,0,0,1,.88,27.07,24.46,24.46,0,0,1-2.28,4.18c-.36.57-.73,1.16-1.09,1.77l12.16,19.75.67-.41,1.64-1a9.51,9.51,0,0,1,7.89-.86,10.45,10.45,0,0,1,6.22,6.27h0a4,4,0,0,1-1.71,5c-6.17,3.87-12.25,7.63-18.07,11.17A4.32,4.32,0,0,1,1213,318.65Zm-11.9-38.75a2,2,0,0,1,1.76,1.21c2.62,4.32,5.27,8.62,7.91,12.92l3.36,5.46c.16.27.31.54.48.84l.48.86-2.17,1.37a8.72,8.72,0,0,0-2.73,13.49,3.24,3.24,0,0,0,4.51,1.1c5.81-3.53,11.89-7.29,18.06-11.16a3,3,0,0,0,1.32-3.73h0a9.48,9.48,0,0,0-5.62-5.7,8.47,8.47,0,0,0-7.06.78c-.54.31-1.07.64-1.64,1l-1.52.91-13-21.1.15-.26c.41-.71.84-1.39,1.25-2.05a24.14,24.14,0,0,0,2.2-4,32.59,32.59,0,0,0-.86-26.29,153.12,153.12,0,0,0-12.25-21.65c-.54-.81-1.09-1.61-1.67-2.4s-1.49-1.65-2.76-.75a1.9,1.9,0,0,0-.24,2.76c.23.35.47.69.71,1l.42.62a150.8,150.8,0,0,1,12.68,22.28l.2.43-.42.22a25.33,25.33,0,0,1-15.59,2.83c-.69-.09-1.37-.19-2.06-.3-1-.14-1.89-.28-2.85-.39a2.14,2.14,0,0,0-1.57.42,1.77,1.77,0,0,0-.64,1.23,1.86,1.86,0,0,0,1.81,1.94l1.14.15c.65.08,1.3.16,1.95.28a29.36,29.36,0,0,0,17.87-2.11,6.29,6.29,0,0,1,.8-.29l.89-.31.14.53a29.28,29.28,0,0,1-1.31,19.15,9.06,9.06,0,0,1-9.24,5.72,29.65,29.65,0,0,1-10.76-2.81c-7.21-3.27-11.54-9.49-15.73-15.51l-.79-1.14.4-.38a.86.86,0,0,1,.36-.27l1.57-.63,2.15-.86c1.32-.53,1.83-1.45,1.42-2.51s-1.42-1.35-2.73-.87c-1.14.42-2.26.86-3.4,1.3l-2.07.8-.22-.34a154.05,154.05,0,0,1-14.93-29.9l-.14-.38L1177.74,207l2.48,2.9,4.38,5.1c1.39,1.62,2.33,1.15,2.91.65.87-.74.81-1.86-.15-3-1.89-2.22-3.9-4.58-6-6.92-2.37-2.66-3.87-2.87-6.94-1l-24.13,14.93c-2.74,1.69-3.27,3.29-2.11,6.33a163.5,163.5,0,0,0,21.8,39.57c5,6.67,10.53,11,17,13.17,4.83,1.64,8.93,2.49,13.21,1.32A3.39,3.39,0,0,1,1201.09,279.9Zm-103.42,38.33a4.19,4.19,0,0,1-2.16-.61c-6.2-3.77-12.28-7.53-18.07-11.18a5.48,5.48,0,0,1-1.39-1.45c-.17-.23-.34-.46-.52-.66l-.13-.14V301.7l.06-.11c1.23-2.33,2.92-4.86,6.1-5.93a9.46,9.46,0,0,1,8,.84c.59.34,1.17.7,1.8,1.1l.45.27c3.29-5.33,6.55-10.63,9.74-15.82l2.46-4c-6.77-9.71-7.81-20.29-3.1-31.44,6.26-14.85,15.44-28.72,28.07-42.39a4.88,4.88,0,0,1,6.52-.93c3.84,2.31,7.59,4.63,12,7.41a3.32,3.32,0,0,1,1.6,2.05,2.69,2.69,0,0,1-.41,2.06c-.9,1.39-2.56,1.64-4.22.62-2.79-1.71-5.57-3.43-8.38-5.17l-3.23-2a155,155,0,0,0-26.27,39.11,21.15,21.15,0,0,0,14,2.51,36,36,0,0,1,22.65,2.81,1.62,1.62,0,0,0,.31.1l1.07-1.78c.93-1.55,1.86-3.1,2.82-4.63a2.74,2.74,0,0,1,3.76-1.05h0a2.78,2.78,0,0,1,1.08,3.87,7.61,7.61,0,0,1-.51.87q-1.68,2.47-3.34,5c-3,4.4-6,9-9.15,13.37a29.34,29.34,0,0,1-4,4.27l-.89.84a3.58,3.58,0,0,1-2.61,1.14,2.63,2.63,0,0,1-1.9-1c-1.08-1.31-.76-3,.83-4.31a48.35,48.35,0,0,0,7.74-9.1c.61-.84,1.22-1.69,1.85-2.54a26.66,26.66,0,0,0-10.53-2.86,26.39,26.39,0,0,0-5.76.34,30.51,30.51,0,0,1-19.21-2.32l-.33-.13c-.07.64-.16,1.27-.24,1.89a26.38,26.38,0,0,0-.38,5.17,42.94,42.94,0,0,0,1.63,9.47c1.6,5.3,5.27,7.48,10.9,6.46,1.63-.29,3.27-.75,4.85-1.19l1-.27c1.94-.54,3.37,0,3.94,1.59a2.7,2.7,0,0,1-.08,2.11,3.35,3.35,0,0,1-2,1.62c-4.84,1.57-9.59,2.85-14.72,1.34a.91.91,0,0,0-.54.19c-3.68,5.9-7.33,11.83-11,17.83l-1.16,1.9.52.33c.69.43,1.35.85,2,1.29a9.63,9.63,0,0,1,1.78,14.26A4.29,4.29,0,0,1,1097.67,318.23Zm-21.27-14.42.45.58a4.72,4.72,0,0,0,1.13,1.21c5.78,3.64,11.85,7.4,18,11.17a3.18,3.18,0,0,0,4.15-.72,8.64,8.64,0,0,0-1.6-12.79c-.63-.43-1.28-.84-2-1.27l-1.35-.86,1.68-2.73c3.69-6,7.34-11.94,11-17.85a1.7,1.7,0,0,1,1.66-.61c4.85,1.43,9.45.19,14.13-1.33a2.33,2.33,0,0,0,1.44-1.11,1.67,1.67,0,0,0,0-1.32c-.48-1.3-1.75-1.25-2.73-1l-1,.27c-1.61.45-3.27.92-5,1.22-6.12,1.1-10.28-1.38-12-7.16a43.19,43.19,0,0,1-1.67-9.69,26,26,0,0,1,.38-5.38c.11-.81.22-1.64.3-2.47l.07-.64,1.08.38a4.84,4.84,0,0,1,.53.2,29.56,29.56,0,0,0,18.61,2.25,27.71,27.71,0,0,1,6-.36c3.52.11,7.06,1.1,11.48,3.22l.55.26-.37.49c-.75,1-1.48,2-2.2,3-2.45,3.39-4.75,6.6-7.9,9.27-.68.58-1.68,1.73-.71,2.92a1.69,1.69,0,0,0,1.19.67,2.68,2.68,0,0,0,1.86-.86l.89-.85a27.78,27.78,0,0,0,3.86-4.12c3.12-4.4,6.18-8.95,9.14-13.35,1.11-1.66,2.23-3.31,3.34-5a5.66,5.66,0,0,0,.44-.75,1.8,1.8,0,0,0-.66-2.56h0a1.75,1.75,0,0,0-2.43.71c-1,1.52-1.89,3.07-2.81,4.61l-1.27,2.11-.2.33-.69-.2a2.53,2.53,0,0,1-.51-.17,35,35,0,0,0-22-2.72c-4.9.92-10,0-15.09-2.85l-.41-.23.2-.42a155.65,155.65,0,0,1,26.92-40.09l.28-.3,3.93,2.43c2.8,1.74,5.58,3.46,8.37,5.17,1.19.73,2.26.61,2.86-.32a1.7,1.7,0,0,0,.27-1.29,2.35,2.35,0,0,0-1.15-1.42c-4.43-2.78-8.17-5.1-12-7.41a3.87,3.87,0,0,0-5.28.76c-12.54,13.58-21.66,27.35-27.88,42.1-4.61,10.92-3.54,21.26,3.18,30.74l.2.27-2.81,4.55-10,16.24-.26.43-1.3-.8c-.63-.39-1.2-.74-1.78-1.08a8.41,8.41,0,0,0-7.2-.76c-2.8.94-4.35,3.21-5.48,5.33Zm136.9,10-.28-.35a5.27,5.27,0,0,1-1.22-4.08,4.38,4.38,0,0,1,2-3c3.2-2.12,6.48-4.15,9.76-6,2.46-1.41,5-.49,6.69,2.39l.24.42-.41.25-16.36,10.11Zm12.52-13.06a3.63,3.63,0,0,0-1.81.52c-3.25,1.86-6.52,3.87-9.7,6a3.33,3.33,0,0,0-1.52,2.29,4.08,4.08,0,0,0,.75,2.94l15.55-9.61A4,4,0,0,0,1225.82,300.72Zm-128.31,12.72-17.27-10.66.26-.43c1.56-2.54,4.08-3.31,6.42-2,3.1,1.78,6.35,3.78,9.65,5.95h0c2.24,1.46,2.69,4,1.2,6.66Zm-15.88-11,15.51,9.57c.95-2,.56-3.76-1.12-4.87h0c-3.28-2.15-6.51-4.14-9.6-5.91C1084.67,300.24,1082.9,300.7,1081.63,302.46Zm27.11-88.3a3.42,3.42,0,0,1-2.41-1.23c-.48-.65-.61-2.49.07-3a38.15,38.15,0,0,1,3.92-2.52l1.6-.95.33-.2.28.27c.26.25.54.47.79.68a3.46,3.46,0,0,1,1.34,1.59,3.24,3.24,0,0,1-.85,2.95h0a16,16,0,0,1-4.63,2.38A1.56,1.56,0,0,1,1108.74,214.16Zm3.38-6.68-1.3.77a34.42,34.42,0,0,0-3.8,2.44,2.41,2.41,0,0,0,.12,1.65,2.28,2.28,0,0,0,1.73.81,15.33,15.33,0,0,0,4.35-2.23,2.39,2.39,0,0,0,.47-1.9c-.08-.32-.51-.67-1-1.06C1112.51,207.81,1112.31,207.65,1112.12,207.48Zm89.47,6.65a1.45,1.45,0,0,1-.47-.07,14.8,14.8,0,0,1-4.5-2.31,3.19,3.19,0,0,1-.88-2.95,3.69,3.69,0,0,1,1.39-1.63c.24-.2.5-.41.74-.64l.27-.26.33.19c.55.33,1.1.63,1.62.92a29.11,29.11,0,0,1,3.8,2.37c.69.53.72,2.41.2,3.14h0A3.48,3.48,0,0,1,1201.59,214.13Zm-3.31-6.62-.52.44a3.05,3.05,0,0,0-1.06,1.14,2.28,2.28,0,0,0,.52,1.86,13.93,13.93,0,0,0,4.19,2.16,2.38,2.38,0,0,0,1.86-.79h0a2.35,2.35,0,0,0,0-1.79,29.29,29.29,0,0,0-3.66-2.28Zm-83.76-4.58h0c-1.37,0-2.07-1.68-2.44-2.59a8,8,0,0,0-.62-1.13c-.67-1.09-1.5-2.45-.46-4.13a2.71,2.71,0,0,1,2.28-1.28,2.49,2.49,0,0,1,2.22,1.18,23.82,23.82,0,0,1,2.28,4.47,2.29,2.29,0,0,1-.26,2.15A3.51,3.51,0,0,1,1114.52,202.93Zm0-1h0a2.54,2.54,0,0,0,2.13-.9,1.3,1.3,0,0,0,.15-1.22,22.81,22.81,0,0,0-2.19-4.29,1.65,1.65,0,0,0-1.37-.73,1.73,1.73,0,0,0-1.44.82c-.68,1.1-.27,1.88.47,3.08A9.11,9.11,0,0,1,1113,200c.4,1,.89,2,1.51,2Zm80.89.86a2.66,2.66,0,0,1-1.52-.39,3.31,3.31,0,0,1-1.11-3,14.64,14.64,0,0,1,2.33-4.5,3.21,3.21,0,0,1,2.93-.83,3.37,3.37,0,0,1,1.57,1.3c.21.25.42.52.67.77l.27.27-.2.33-.93,1.65a30.23,30.23,0,0,1-2.38,3.83A2.09,2.09,0,0,1,1195.37,202.79Zm2-7.78a2.24,2.24,0,0,0-1.5.51,13.52,13.52,0,0,0-2.17,4.19,2.34,2.34,0,0,0,.74,1.89,2.29,2.29,0,0,0,1.78,0,29.88,29.88,0,0,0,2.29-3.7l.75-1.34c-.16-.18-.31-.37-.46-.55-.38-.46-.73-.89-1.06-1A2,2,0,0,0,1197.37,195Zm-18,1.06h-.06a5.43,5.43,0,0,1-4.14-1.68,3.89,3.89,0,0,1-.93-3.11c.36-2.83.9-5.77,1.58-8.73a4.29,4.29,0,0,1,2.08-2.85,4.58,4.58,0,0,1,3.76-.25,14.5,14.5,0,0,1,8.78,7.9,4.87,4.87,0,0,1,.16,4.06,4.57,4.57,0,0,1-3,2.43c-2.1.64-4.23,1.18-6.11,1.67l-2.09.54Zm.64-15.91a3.25,3.25,0,0,0-3.22,2.61c-.67,2.94-1.2,5.84-1.56,8.63a2.88,2.88,0,0,0,.7,2.33,4.4,4.4,0,0,0,3.32,1.34l2-.53c1.87-.48,4-1,6.07-1.65a3.52,3.52,0,0,0,2.33-1.9,3.85,3.85,0,0,0-.14-3.22h0a13.55,13.55,0,0,0-8.21-7.38A4.12,4.12,0,0,0,1180.05,180.16Zm-49,15.88h-.32l-.12,0c-.7-.2-1.46-.4-2.25-.61-2-.53-4.28-1.14-6.48-1.92a3.69,3.69,0,0,1-2.13-2,4.62,4.62,0,0,1,0-3.63,14.3,14.3,0,0,1,9.25-8.48,4.29,4.29,0,0,1,3.5.36,4.68,4.68,0,0,1,2.17,3.1c.54,2.58,1,5.3,1.47,8.1h0a4.15,4.15,0,0,1-1,3.49A5.33,5.33,0,0,1,1131.05,196Zm-.22-1a4.49,4.49,0,0,0,3.57-1.3,3.22,3.22,0,0,0,.74-2.66h0c-.44-2.78-.94-5.49-1.47-8.05a3.6,3.6,0,0,0-1.69-2.44,3.29,3.29,0,0,0-2.69-.28,13.36,13.36,0,0,0-8.64,7.91,3.68,3.68,0,0,0,0,2.84,2.64,2.64,0,0,0,1.56,1.47c2.16.77,4.41,1.37,6.39,1.9C1129.39,194.64,1130.14,194.84,1130.83,195Zm48.06-3.63,1.37-7.57.57.24a9.76,9.76,0,0,1,5.24,4.82l.28.55Zm2.13-6.15-.86,4.79,4.73-1.25A8.49,8.49,0,0,0,1181,185.26Zm-49.51,6.13-7.42-1.93.26-.55a9.58,9.58,0,0,1,5.21-4.82l.58-.25Zm-6-2.59,4.72,1.23-.87-4.76A8.34,8.34,0,0,0,1125.53,188.8Zm29.51-.5h0a5.25,5.25,0,0,1-4.33-2.59c-1.66-2.53-3.36-5.22-5.07-8a5.2,5.2,0,0,1-.63-4.51,5,5,0,0,1,3.23-3,45.71,45.71,0,0,1,4.72-1.28c.69-.16,1.38-.32,2.08-.5l.13,0,.12,0c.71.18,1.41.34,2.1.5a36.36,36.36,0,0,1,4.56,1.27h0a5,5,0,0,1,3.15,3,5.2,5.2,0,0,1-.64,4.44c-1.79,2.94-3.47,5.6-5.15,8.14A5.16,5.16,0,0,1,1155,188.3Zm.12-18.87-2,.47a42.56,42.56,0,0,0-4.61,1.24,4.09,4.09,0,0,0-2.62,2.4,4.24,4.24,0,0,0,.54,3.65c1.7,2.77,3.4,5.45,5.06,8a4.28,4.28,0,0,0,3.49,2.13h0a4.21,4.21,0,0,0,3.44-2.08c1.67-2.53,3.34-5.18,5.13-8.11a4.18,4.18,0,0,0,.54-3.59,4,4,0,0,0-2.54-2.38h0a35.67,35.67,0,0,0-4.44-1.23C1156.5,169.75,1155.83,169.6,1155.16,169.43Zm-.12,14.46-.42-.66c-1.72-2.69-3.33-5.23-5.07-8l-.31-.51.54-.22a13,13,0,0,1,10.51,0l.55.22Zm-4.32-8.65L1155,182l4.31-6.83A11.85,11.85,0,0,0,1150.72,175.24Z"/></svg>