<svg xmlns="http://www.w3.org/2000/svg" viewBox="0 0 485.14 801.22"><defs><style>.cls-1{fill:none;}.cls-1,.cls-3{stroke:#582957;stroke-miterlimit:10;stroke-width:5px;}.cls-2{fill:#582957;}.cls-3{fill:#fff;}.cls-4{fill:#333533;}.cls-5{fill:#d7a68d;}</style></defs><g id="Layer_2" data-name="Layer 2"><line class="cls-1" x1="242.24" y1="173.07" x2="242.24" y2="685.71"/><polygon class="cls-2" points="215.49 172.35 217.49 172.18 217.49 172.53 215.49 172.35"/><path class="cls-2" d="M221.24,171.92c1.25-.09,2.5-.13,3.75-.2V173c-1.25-.07-2.5-.11-3.75-.2Z"/><path class="cls-2" d="M228.74,171.57c1.25,0,2.5-.08,3.75-.1v1.77c-1.25,0-2.5-.06-3.75-.11Z"/><polygon class="cls-2" points="236.24 171.39 239.99 171.37 239.99 173.34 236.24 173.31 236.24 171.39"/><polygon class="cls-2" points="243.75 171.37 247.5 171.39 247.5 173.31 243.75 173.34 243.75 171.37"/><path class="cls-2" d="M251.25,171.47c1.25,0,2.5.05,3.75.1v1.57c-1.25.05-2.5.08-3.75.1Z"/><path class="cls-2" d="M258.75,171.72c1.25.06,2.5.11,3.75.2v.87c-1.25.09-2.5.13-3.75.2Z"/><polygon class="cls-2" points="266.25 172.18 268.25 172.35 266.25 172.53 266.25 172.18"/><circle class="cls-3" cx="241.87" cy="172.35" r="9.64"/><polygon class="cls-2" points="215.49 685.08 217.49 684.9 217.49 685.25 215.49 685.08"/><path class="cls-2" d="M221.24,684.64c1.25-.08,2.5-.13,3.75-.2v1.27c-1.25-.07-2.5-.11-3.75-.2Z"/><path class="cls-2" d="M228.74,684.3c1.25,0,2.5-.09,3.75-.11V686c-1.25,0-2.5-.05-3.75-.1Z"/><polygon class="cls-2" points="236.24 684.12 239.99 684.09 239.99 686.06 236.24 686.04 236.24 684.12"/><polygon class="cls-2" points="243.75 684.09 247.5 684.12 247.5 686.04 243.75 686.06 243.75 684.09"/><path class="cls-2" d="M251.25,684.19c1.25,0,2.5,0,3.75.1v1.57c-1.25,0-2.5.08-3.75.1Z"/><path class="cls-2" d="M258.75,684.44c1.25.07,2.5.11,3.75.2v.87c-1.25.09-2.5.14-3.75.2Z"/><polygon class="cls-2" points="266.25 684.9 268.25 685.08 266.25 685.26 266.25 684.9"/><circle class="cls-3" cx="241.87" cy="685.08" r="9.64"/><polygon class="cls-2" points="215.49 343.26 217.49 343.08 217.49 343.44 215.49 343.26"/><path class="cls-2" d="M221.24,342.83c1.25-.09,2.5-.14,3.75-.2v1.26c-1.25-.06-2.5-.11-3.75-.19Z"/><path class="cls-2" d="M228.74,342.48c1.25-.05,2.5-.08,3.75-.1v1.77c-1.25,0-2.5-.06-3.75-.11Z"/><polygon class="cls-2" points="236.24 342.3 239.99 342.28 239.99 344.25 236.24 344.22 236.24 342.3"/><polygon class="cls-2" points="243.75 342.27 247.5 342.3 247.5 344.22 243.75 344.25 243.75 342.27"/><path class="cls-2" d="M251.25,342.37c1.25,0,2.5.06,3.75.11V344c-1.25,0-2.5.09-3.75.11Z"/><path class="cls-2" d="M258.75,342.63c1.25.06,2.5.11,3.75.19v.88c-1.25.09-2.5.13-3.75.2Z"/><polygon class="cls-2" points="266.25 343.08 268.25 343.26 266.25 343.44 266.25 343.08"/><circle class="cls-3" cx="241.87" cy="343.26" r="9.64"/><polygon class="cls-2" points="215.49 514.17 217.49 513.99 217.49 514.35 215.49 514.17"/><path class="cls-2" d="M221.24,513.73c1.25-.08,2.5-.13,3.75-.19v1.26c-1.25-.06-2.5-.11-3.75-.19Z"/><path class="cls-2" d="M228.74,513.39c1.25,0,2.5-.08,3.75-.11v1.77c-1.25,0-2.5,0-3.75-.1Z"/><polygon class="cls-2" points="236.24 513.21 239.99 513.18 239.99 515.15 236.24 515.13 236.24 513.21"/><polygon class="cls-2" points="243.75 513.18 247.5 513.21 247.5 515.13 243.75 515.16 243.75 513.18"/><path class="cls-2" d="M251.25,513.28c1.25,0,2.5.06,3.75.11V515c-1.25,0-2.5.08-3.75.11Z"/><path class="cls-2" d="M258.75,513.53c1.25.07,2.5.11,3.75.2v.88c-1.25.08-2.5.13-3.75.2Z"/><polygon class="cls-2" points="266.25 513.99 268.25 514.17 266.25 514.35 266.25 513.99"/><circle class="cls-3" cx="241.87" cy="514.17" r="9.64"/><path class="cls-4" d="M312.18,155.83a9.14,9.14,0,0,1,2.17-5.91,7.75,7.75,0,0,1,6.11-2.76,7.25,7.25,0,0,1,4,1.07,6.67,6.67,0,0,1,2.47,2.73l-1.74,1.12a4.79,4.79,0,0,0-3-2.67,6.75,6.75,0,0,0-1.8-.26,5.4,5.4,0,0,0-2.56.58,5.69,5.69,0,0,0-1.87,1.57,6.73,6.73,0,0,0-1.14,2.19,7.91,7.91,0,0,0-.38,2.44,7.55,7.55,0,0,0,.45,2.59,7.18,7.18,0,0,0,1.26,2.21,6.2,6.2,0,0,0,1.91,1.51,5.18,5.18,0,0,0,2.4.57,5.92,5.92,0,0,0,1.86-.32,5.65,5.65,0,0,0,1.79-1,4.88,4.88,0,0,0,1.32-1.75l1.84,1a5.45,5.45,0,0,1-1.67,2.2,8.2,8.2,0,0,1-2.51,1.38,8.79,8.79,0,0,1-2.73.46,7.11,7.11,0,0,1-3.28-.77,8.57,8.57,0,0,1-2.58-2.06,9.51,9.51,0,0,1-1.69-2.89A9.19,9.19,0,0,1,312.18,155.83Z"/><path class="cls-4" d="M340.75,164.67H338.6v-7.09a5,5,0,0,0-.7-2.91,2.31,2.31,0,0,0-2-1,3.51,3.51,0,0,0-1.67.44,4.79,4.79,0,0,0-1.48,1.17,4.64,4.64,0,0,0-.94,1.7v7.66h-2.15V146.8h2.15v7.91a5.7,5.7,0,0,1,2.07-2.15,5.38,5.38,0,0,1,2.83-.79,4.08,4.08,0,0,1,1.92.4,3.07,3.07,0,0,1,1.24,1.13,5.14,5.14,0,0,1,.67,1.68,9.93,9.93,0,0,1,.21,2.11Z"/><path class="cls-4" d="M344,159.58V152h2.16v7.2a5.14,5.14,0,0,0,.68,2.92,2.33,2.33,0,0,0,2,1,4.08,4.08,0,0,0,1.71-.37,4.84,4.84,0,0,0,2.5-2.76v-8h2.16v10.26a.87.87,0,0,0,.16.58.7.7,0,0,0,.53.2v1.67l-.58.06h-.4a1.55,1.55,0,0,1-1.06-.38,1.24,1.24,0,0,1-.46-.93l-.05-1.49a5.89,5.89,0,0,1-2.24,2.19,6.23,6.23,0,0,1-3.07.78,3.59,3.59,0,0,1-3-1.35A6.54,6.54,0,0,1,344,159.58Z"/><path class="cls-4" d="M365.58,153.77a5.38,5.38,0,0,0-2.86.82,4.36,4.36,0,0,0-1.75,2.19v7.89h-2.15V152h2v2.89a5.87,5.87,0,0,1,1.75-2.14,4.36,4.36,0,0,1,2.29-.92h.41l.3,0Z"/><path class="cls-4" d="M373.07,164.91a6.4,6.4,0,0,1-2.63-.52,6.15,6.15,0,0,1-2.06-1.45,6.94,6.94,0,0,1-1-7.92,6.18,6.18,0,0,1,2.28-2.37,6.45,6.45,0,0,1,3.4-.88,6.33,6.33,0,0,1,3.3.84,5.35,5.35,0,0,1,2.09,2.26l-2.11.67a3.39,3.39,0,0,0-1.37-1.41,3.81,3.81,0,0,0-2-.5,4,4,0,0,0-2.14.6,4.45,4.45,0,0,0-1.53,1.66,5.42,5.42,0,0,0,0,4.82,4.58,4.58,0,0,0,1.55,1.71,3.83,3.83,0,0,0,2.14.63,4.06,4.06,0,0,0,1.46-.27,4.23,4.23,0,0,0,1.22-.72,2.38,2.38,0,0,0,.72-1l2.11.64a4.64,4.64,0,0,1-1.19,1.65,6,6,0,0,1-1.89,1.14A6.76,6.76,0,0,1,373.07,164.91Z"/><path class="cls-4" d="M392.07,164.67h-2.16v-7.09a5,5,0,0,0-.7-2.91,2.29,2.29,0,0,0-2-1,3.51,3.51,0,0,0-1.68.44,4.91,4.91,0,0,0-1.48,1.17,4.62,4.62,0,0,0-.93,1.7v7.66H381V146.8h2.16v7.91a5.56,5.56,0,0,1,2.07-2.15,5.33,5.33,0,0,1,2.83-.79,4.13,4.13,0,0,1,1.92.4,3.11,3.11,0,0,1,1.23,1.13,5.16,5.16,0,0,1,.68,1.68,9.93,9.93,0,0,1,.21,2.11Z"/><path class="cls-4" d="M300.58,194.39v1.12h-7.81v-1.12h3.48V183.08a3.68,3.68,0,0,1-.69.63,8.62,8.62,0,0,1-1.05.66,6.31,6.31,0,0,1-1.2.52,3.63,3.63,0,0,1-1.1.19v-1.22a2.94,2.94,0,0,0,1.29-.33,9.8,9.8,0,0,0,1.28-.76,10.15,10.15,0,0,0,1-.8,3.6,3.6,0,0,0,.45-.44h1.22v12.86Z"/><path class="cls-4" d="M302.2,195.51a9.67,9.67,0,0,1,.13-1.53,6.81,6.81,0,0,1,.54-1.74,6,6,0,0,1,1.24-1.73,7.63,7.63,0,0,1,2.2-1.49c.47-.23,1-.46,1.48-.69a10.26,10.26,0,0,0,1.46-.8,3.69,3.69,0,0,0,1.1-1.05,2.48,2.48,0,0,0,.42-1.45,2.6,2.6,0,0,0-.38-1.32,2.89,2.89,0,0,0-1.17-1.06,4.2,4.2,0,0,0-2-.41,4.47,4.47,0,0,0-1.51.25,5.2,5.2,0,0,0-1.18.59,6.16,6.16,0,0,0-.84.67,4.13,4.13,0,0,0-.49.53l-.83-.84.48-.46a7,7,0,0,1,1-.8,7.78,7.78,0,0,1,1.53-.74,5.65,5.65,0,0,1,2-.32,5.39,5.39,0,0,1,2.52.54,4.27,4.27,0,0,1,1.58,1.41,3.39,3.39,0,0,1,.55,1.86,3.32,3.32,0,0,1-.47,1.79,4.72,4.72,0,0,1-1.16,1.28,7.94,7.94,0,0,1-1.47.9c-.51.25-1,.47-1.41.65a8.63,8.63,0,0,0-2,1.19,6.66,6.66,0,0,0-1.22,1.31,5.92,5.92,0,0,0-.66,1.26,5.75,5.75,0,0,0-.28,1.08h8.91v1.12Z"/><path class="cls-4" d="M315.17,184.89v-2.08h1.06v2.08Zm0,10.62v-2.08h1.06v2.08Z"/><path class="cls-4" d="M327.34,194.39v1.12h-7.81v-1.12H323V183.08a3.68,3.68,0,0,1-.69.63,8.62,8.62,0,0,1-1.05.66,6.31,6.31,0,0,1-1.2.52,3.68,3.68,0,0,1-1.1.19v-1.22a2.9,2.9,0,0,0,1.28-.33,9.28,9.28,0,0,0,1.29-.76,8.91,8.91,0,0,0,1-.8,5.47,5.47,0,0,0,.46-.44h1.22v12.86Z"/><path class="cls-4" d="M334.29,199.16a6.08,6.08,0,0,1-3.34-.94,5.9,5.9,0,0,1-2.21-2.49l.9-.51a5.13,5.13,0,0,0,1.91,2,5.07,5.07,0,0,0,2.74.77,4.9,4.9,0,0,0,2.38-.57,4.35,4.35,0,0,0,1.68-1.62,4.59,4.59,0,0,0,.62-2.38,4.28,4.28,0,0,0-2.24-3.86,4.7,4.7,0,0,0-2.29-.55,5.19,5.19,0,0,0-2.34.55,4.7,4.7,0,0,0-1.82,1.58H329.1l1.94-9.65h8.32v1.15H332l-1.37,6.88a5.12,5.12,0,0,1,1.77-1.21,6,6,0,0,1,5.05.28,5.61,5.61,0,0,1,2,2,5.34,5.34,0,0,1,.76,2.88,5.52,5.52,0,0,1-3,5A6.32,6.32,0,0,1,334.29,199.16Z"/><path class="cls-4" d="M349.06,189.42v-1.13h7.05v1.13Z"/><path class="cls-4" d="M373.51,194.39v1.12H365.7v-1.12h3.48V183.08a3.91,3.91,0,0,1-.68.63,9.63,9.63,0,0,1-1.06.66,6.31,6.31,0,0,1-1.2.52,3.63,3.63,0,0,1-1.1.19v-1.22a2.94,2.94,0,0,0,1.29-.33,9.8,9.8,0,0,0,1.28-.76,10.15,10.15,0,0,0,1-.8,3.6,3.6,0,0,0,.45-.44h1.22v12.86Z"/><path class="cls-4" d="M375.13,195.51a9.67,9.67,0,0,1,.13-1.53,6.81,6.81,0,0,1,.54-1.74,6,6,0,0,1,1.24-1.73,7.63,7.63,0,0,1,2.2-1.49c.47-.23,1-.46,1.48-.69a10.26,10.26,0,0,0,1.46-.8,3.69,3.69,0,0,0,1.1-1.05,2.48,2.48,0,0,0,.42-1.45,2.6,2.6,0,0,0-.38-1.32,2.86,2.86,0,0,0-1.16-1.06,4.28,4.28,0,0,0-2-.41,4.47,4.47,0,0,0-1.51.25,4.92,4.92,0,0,0-1.17.59,5.73,5.73,0,0,0-.85.67,4.13,4.13,0,0,0-.49.53l-.83-.84.48-.46a6.62,6.62,0,0,1,1-.8,7.42,7.42,0,0,1,1.52-.74,5.65,5.65,0,0,1,2-.32,5.39,5.39,0,0,1,2.52.54,4.19,4.19,0,0,1,1.58,1.41,3.39,3.39,0,0,1,.55,1.86,3.32,3.32,0,0,1-.47,1.79,4.72,4.72,0,0,1-1.16,1.28,7.94,7.94,0,0,1-1.47.9c-.51.25-1,.47-1.41.65a8.63,8.63,0,0,0-2,1.19,6.66,6.66,0,0,0-1.22,1.31,5.92,5.92,0,0,0-.66,1.26,5.75,5.75,0,0,0-.28,1.08h8.91v1.12Z"/><path class="cls-4" d="M388.1,184.89v-2.08h1.06v2.08Zm0,10.62v-2.08h1.06v2.08Z"/><path class="cls-4" d="M399.78,198.62v-4.55h-8.47V193l8.84-11.46H401v11.41h2.15v1.13H401v4.55Zm-7.1-5.68h7.2v-9.42Z"/><path class="cls-4" d="M417.48,188.45a8.73,8.73,0,0,1-.78,3.77,6.26,6.26,0,0,1-2.17,2.6,5.68,5.68,0,0,1-6.26,0,6.26,6.26,0,0,1-2.17-2.6,9.53,9.53,0,0,1,0-7.55,6.38,6.38,0,0,1,2.17-2.6,5.63,5.63,0,0,1,6.26,0,6.38,6.38,0,0,1,2.17,2.6A8.78,8.78,0,0,1,417.48,188.45Zm-1.25,0a7.91,7.91,0,0,0-.61-3.22,5.14,5.14,0,0,0-1.7-2.18,4.48,4.48,0,0,0-5.05,0,5.1,5.1,0,0,0-1.72,2.18,7.91,7.91,0,0,0-.61,3.22,7.82,7.82,0,0,0,.61,3.21,5.19,5.19,0,0,0,1.72,2.17,4.48,4.48,0,0,0,5.05,0,5.23,5.23,0,0,0,1.7-2.17A7.82,7.82,0,0,0,416.23,188.45Z"/><path class="cls-4" d="M96.29,353.21v1.13H88.48v-1.13H92V341.9a3,3,0,0,1-.68.64,8.62,8.62,0,0,1-1,.66,7.71,7.71,0,0,1-1.2.51,3.73,3.73,0,0,1-1.11.2v-1.23a2.94,2.94,0,0,0,1.29-.33,8.63,8.63,0,0,0,1.28-.76,10.2,10.2,0,0,0,1-.79,4.6,4.6,0,0,0,.45-.44h1.23v12.85Z"/><path class="cls-4" d="M104.88,348.39a4,4,0,0,1,2,.78,4.38,4.38,0,0,1,1.27,1.61,5.17,5.17,0,0,1,.45,2.19,4.77,4.77,0,0,1-.7,2.6,4.65,4.65,0,0,1-1.93,1.74,6.17,6.17,0,0,1-2.85.63,6.49,6.49,0,0,1-3.23-.79,4.76,4.76,0,0,1-2-2.15l.91-.74a3.77,3.77,0,0,0,1.6,1.85,5.19,5.19,0,0,0,2.78.7,4.35,4.35,0,0,0,3-1,3.63,3.63,0,0,0,1.14-2.85,3.77,3.77,0,0,0-1.16-2.9,4.69,4.69,0,0,0-3.3-1.08h-.58v-1.08h.63a4.46,4.46,0,0,0,3-.92,3.06,3.06,0,0,0,1-2.42,3.3,3.3,0,0,0-.5-1.85,3.38,3.38,0,0,0-1.37-1.19,4.56,4.56,0,0,0-2-.42,4.87,4.87,0,0,0-2.56.67,4,4,0,0,0-1.62,1.82l-.84-.68a4.39,4.39,0,0,1,1.14-1.54,5.3,5.3,0,0,1,1.78-1,6.35,6.35,0,0,1,2.2-.37,5.76,5.76,0,0,1,2.61.57,4.41,4.41,0,0,1,1.78,1.58,4.14,4.14,0,0,1,.65,2.32,4.24,4.24,0,0,1-.4,1.85,3.74,3.74,0,0,1-1.16,1.42A4,4,0,0,1,104.88,348.39Z"/><path class="cls-4" d="M111.39,343.71v-2.08h1.06v2.08Zm0,10.63v-2.08h1.06v2.08Z"/><path class="cls-4" d="M127.65,347.27a8.6,8.6,0,0,1-.79,3.78,6.34,6.34,0,0,1-2.16,2.59,5.7,5.7,0,0,1-6.27,0,6.44,6.44,0,0,1-2.17-2.59,9.53,9.53,0,0,1,0-7.55,6.57,6.57,0,0,1,2.17-2.61,5.65,5.65,0,0,1,6.27,0,6.47,6.47,0,0,1,2.16,2.61A8.59,8.59,0,0,1,127.65,347.27Zm-1.25,0a7.91,7.91,0,0,0-.61-3.22,5.22,5.22,0,0,0-1.7-2.18,4.49,4.49,0,0,0-5.06,0,5.08,5.08,0,0,0-1.71,2.18,7.9,7.9,0,0,0-.62,3.22,7.82,7.82,0,0,0,.62,3.21,5.05,5.05,0,0,0,1.71,2.17,4.49,4.49,0,0,0,5.06,0,5.18,5.18,0,0,0,1.7-2.17A7.82,7.82,0,0,0,126.4,347.27Z"/><path class="cls-4" d="M142.61,347.27a8.75,8.75,0,0,1-.79,3.78,6.34,6.34,0,0,1-2.16,2.59,5.46,5.46,0,0,1-3.15.94,5.39,5.39,0,0,1-3.12-.94,6.37,6.37,0,0,1-2.17-2.59,9.53,9.53,0,0,1,0-7.55,6.49,6.49,0,0,1,2.17-2.61,5.4,5.4,0,0,1,3.12-.95,5.47,5.47,0,0,1,3.15.95,6.47,6.47,0,0,1,2.16,2.61A8.73,8.73,0,0,1,142.61,347.27Zm-1.25,0a8.08,8.08,0,0,0-.61-3.22,5.16,5.16,0,0,0-1.71-2.18,4.48,4.48,0,0,0-5,0,5.1,5.1,0,0,0-1.72,2.18,8.08,8.08,0,0,0-.61,3.22,8,8,0,0,0,.61,3.21,5.07,5.07,0,0,0,1.72,2.17,4.48,4.48,0,0,0,5,0,5.13,5.13,0,0,0,1.71-2.17A8,8,0,0,0,141.36,347.27Z"/><path class="cls-4" d="M57.06,312.11a9.08,9.08,0,0,1,.55-3.12,8.87,8.87,0,0,1,1.61-2.79,7.87,7.87,0,0,1,2.61-2,8,8,0,0,1,3.5-.74,7.25,7.25,0,0,1,4,1.06,6.67,6.67,0,0,1,2.47,2.73l-1.73,1.13a4.88,4.88,0,0,0-1.31-1.75A5,5,0,0,0,67,305.7a6.34,6.34,0,0,0-1.8-.27,5.46,5.46,0,0,0-2.56.59,5.76,5.76,0,0,0-1.87,1.56,7.09,7.09,0,0,0-1.14,2.2,8.16,8.16,0,0,0-.38,2.43,7.42,7.42,0,0,0,.46,2.6A7.13,7.13,0,0,0,61,317a6.12,6.12,0,0,0,1.91,1.52,5.24,5.24,0,0,0,2.4.56,5.69,5.69,0,0,0,1.86-.32,5.61,5.61,0,0,0,1.78-1A4.71,4.71,0,0,0,70.28,316l1.83,1a5.57,5.57,0,0,1-1.66,2.2,8.18,8.18,0,0,1-2.51,1.37,8.5,8.5,0,0,1-2.73.46,7,7,0,0,1-3.28-.77,8.46,8.46,0,0,1-2.59-2.05,9.6,9.6,0,0,1-1.68-2.89A9,9,0,0,1,57.06,312.11Z"/><path class="cls-4" d="M80.19,321.2a6.44,6.44,0,0,1-2.63-.53,6.2,6.2,0,0,1-2.06-1.43,6.44,6.44,0,0,1-1.34-2.1,6.74,6.74,0,0,1-.48-2.53,6.63,6.63,0,0,1,.83-3.28A6.51,6.51,0,0,1,76.82,309a6.41,6.41,0,0,1,3.39-.9,6.11,6.11,0,0,1,3.37.91,6.36,6.36,0,0,1,2.23,2.38,6.6,6.6,0,0,1,.79,3.18c0,.16,0,.32,0,.47s0,.27,0,.36H76a4.71,4.71,0,0,0,.69,2.19,4.48,4.48,0,0,0,1.56,1.5,4.08,4.08,0,0,0,2.05.54,4.34,4.34,0,0,0,2.22-.59,3.12,3.12,0,0,0,1.43-1.54l1.86.51a4.83,4.83,0,0,1-1.23,1.67,6.16,6.16,0,0,1-1.94,1.15A6.74,6.74,0,0,1,80.19,321.2Zm-4.31-7.35H84.6a4.77,4.77,0,0,0-.71-2.18,4.33,4.33,0,0,0-1.57-1.47,4.21,4.21,0,0,0-2.11-.53,4.15,4.15,0,0,0-2.08.53,4.28,4.28,0,0,0-1.55,1.47A4.76,4.76,0,0,0,75.88,313.85Z"/><path class="cls-4" d="M95.76,310.06a5.23,5.23,0,0,0-2.85.82,4.26,4.26,0,0,0-1.75,2.19V321H89v-12.7h2v2.88A6.06,6.06,0,0,1,92.76,309a4.47,4.47,0,0,1,2.29-.92h.42a1.23,1.23,0,0,1,.29,0Z"/><path class="cls-4" d="M103.25,321.2a6.44,6.44,0,0,1-2.63-.53,6.2,6.2,0,0,1-2.06-1.43,6.7,6.7,0,0,1-1.82-4.63,6.63,6.63,0,0,1,.83-3.28A6.46,6.46,0,0,1,99.89,309a6.36,6.36,0,0,1,3.39-.9,6.08,6.08,0,0,1,3.36.91,6.36,6.36,0,0,1,2.23,2.38,6.61,6.61,0,0,1,.8,3.18c0,.16,0,.32,0,.47s0,.27,0,.36H99a4.83,4.83,0,0,0,.69,2.19,4.57,4.57,0,0,0,1.56,1.5,4.12,4.12,0,0,0,2.06.54,4.33,4.33,0,0,0,2.21-.59,3.08,3.08,0,0,0,1.43-1.54l1.86.51a4.7,4.7,0,0,1-1.23,1.67,6,6,0,0,1-1.94,1.15A6.74,6.74,0,0,1,103.25,321.2Zm-4.31-7.35h8.72a4.65,4.65,0,0,0-.71-2.18,4.33,4.33,0,0,0-1.57-1.47,4.18,4.18,0,0,0-2.1-.53,4.13,4.13,0,0,0-2.08.53,4.23,4.23,0,0,0-1.56,1.47A4.76,4.76,0,0,0,98.94,313.85Z"/><path class="cls-4" d="M131.33,321h-2.15v-7.08a5.29,5.29,0,0,0-.65-2.94,2.18,2.18,0,0,0-1.92-.95,3.46,3.46,0,0,0-2.35.94,5.17,5.17,0,0,0-1.5,2.41V321h-2.15v-7.08a5.27,5.27,0,0,0-.64-2.95,2.16,2.16,0,0,0-1.91-.94,3.55,3.55,0,0,0-2.33.91,4.89,4.89,0,0,0-1.51,2.41V321h-2.15v-12.7h2V311a5.68,5.68,0,0,1,2-2.17,5.27,5.27,0,0,1,2.81-.77,3.5,3.5,0,0,1,3.72,3.09,6.49,6.49,0,0,1,2.08-2.3,5,5,0,0,1,2.8-.79,3.8,3.8,0,0,1,1.84.4,3.05,3.05,0,0,1,1.19,1.12,5.22,5.22,0,0,1,.64,1.69,10.75,10.75,0,0,1,.19,2.11Z"/><path class="cls-4" d="M140.27,321.2a6.35,6.35,0,0,1-2.62-.53,6.08,6.08,0,0,1-2-1.43,6.55,6.55,0,0,1-1.32-2.1,7,7,0,0,1,0-5,6.34,6.34,0,0,1,1.32-2.1,6.19,6.19,0,0,1,2-1.44,6.43,6.43,0,0,1,7.27,1.44,6.23,6.23,0,0,1,1.34,2.1,7.11,7.11,0,0,1,0,5,6.55,6.55,0,0,1-1.32,2.1,6.16,6.16,0,0,1-2,1.43A6.44,6.44,0,0,1,140.27,321.2ZM136,314.66a5,5,0,0,0,.58,2.37,4.4,4.4,0,0,0,1.53,1.69,3.87,3.87,0,0,0,2.13.62,3.83,3.83,0,0,0,2.14-.63A4.47,4.47,0,0,0,144,317a4.94,4.94,0,0,0,.58-2.39,4.84,4.84,0,0,0-.58-2.37,4.52,4.52,0,0,0-1.54-1.7,3.83,3.83,0,0,0-2.14-.63,3.73,3.73,0,0,0-2.13.64,4.68,4.68,0,0,0-1.53,1.71A5,5,0,0,0,136,314.66Z"/><path class="cls-4" d="M160.44,321h-2.15v-7.08a5.37,5.37,0,0,0-.63-2.95,2.12,2.12,0,0,0-1.89-.94,3.88,3.88,0,0,0-1.75.44,5.33,5.33,0,0,0-1.55,1.17,4.26,4.26,0,0,0-1,1.71V321h-2.16v-12.7h2V311a5.31,5.31,0,0,1,1.32-1.55,6.24,6.24,0,0,1,1.84-1,6.43,6.43,0,0,1,2.15-.36,3.84,3.84,0,0,1,1.85.4,3,3,0,0,1,1.18,1.12,5.2,5.2,0,0,1,.61,1.69,11.61,11.61,0,0,1,.18,2.11Z"/><path class="cls-4" d="M164.14,324.43l.64.06.49,0a1,1,0,0,0,.68-.27,3.33,3.33,0,0,0,.65-1c.24-.51.54-1.26.92-2.25l-5.41-12.72h2.27l4.31,10.55,3.9-10.55h2.13l-6.22,16.06a3.79,3.79,0,0,1-.65,1.06,3.06,3.06,0,0,1-1.09.8,4,4,0,0,1-1.59.29l-.46,0-.57-.1Z"/><path class="cls-4" d="M290.9,530.05v1.13h-7.81v-1.13h3.47V518.74a3,3,0,0,1-.68.64,8.62,8.62,0,0,1-1.05.66,7.42,7.42,0,0,1-1.21.51,3.62,3.62,0,0,1-1.1.2v-1.22a3,3,0,0,0,1.29-.34,9.54,9.54,0,0,0,1.28-.75,11.83,11.83,0,0,0,1-.8,3.6,3.6,0,0,0,.45-.44h1.23v12.85Z"/><path class="cls-4" d="M304.21,528.47a5.82,5.82,0,0,1-2.19,2.16,6.44,6.44,0,0,1-6.29-.06,5.83,5.83,0,0,1-2.2-2.45,8.35,8.35,0,0,1-.8-3.77,19.12,19.12,0,0,1,.8-6,7.5,7.5,0,0,1,2.21-3.52,5.15,5.15,0,0,1,3.31-1.15,5.56,5.56,0,0,1,3.11.91,5.42,5.42,0,0,1,2,2.47l-.86.66a4.34,4.34,0,0,0-1.65-2.13,4.47,4.47,0,0,0-2.63-.8,4,4,0,0,0-2.69,1,6.31,6.31,0,0,0-1.79,2.83,13.78,13.78,0,0,0-.64,4.5,5,5,0,0,1,1.13-1.85,5.18,5.18,0,0,1,1.8-1.24,5.9,5.9,0,0,1,5.22.37,6.12,6.12,0,0,1,2.15,2.14,6,6,0,0,1,0,6Zm-2.81,1.19a5.23,5.23,0,0,0,1.77-1.76,4.68,4.68,0,0,0,0-4.86,5.14,5.14,0,0,0-1.78-1.78,4.86,4.86,0,0,0-4.89,0,5.06,5.06,0,0,0-1.79,1.77,4.65,4.65,0,0,0-.66,2.44,4.49,4.49,0,0,0,.68,2.4,5.23,5.23,0,0,0,1.78,1.78,4.83,4.83,0,0,0,4.89,0Z"/><path class="cls-4" d="M307.74,520.55v-2.08h1.05v2.08Zm0,10.63V529.1h1.05v2.08Z"/><path class="cls-4" d="M324,524.12a8.73,8.73,0,0,1-.79,3.77,6.28,6.28,0,0,1-2.16,2.59,5.46,5.46,0,0,1-3.15.94,5.39,5.39,0,0,1-3.12-.94,6.3,6.3,0,0,1-2.17-2.59,9.53,9.53,0,0,1,0-7.55,6.4,6.4,0,0,1,2.17-2.6,5.33,5.33,0,0,1,3.12-1,5.4,5.4,0,0,1,3.15,1,6.37,6.37,0,0,1,2.16,2.6A8.75,8.75,0,0,1,324,524.12Zm-1.25,0a8,8,0,0,0-.62-3.23,5,5,0,0,0-1.7-2.17,4.43,4.43,0,0,0-5.05,0,5.07,5.07,0,0,0-1.72,2.17,8.8,8.8,0,0,0,0,6.44,5.1,5.1,0,0,0,1.72,2.16,4.48,4.48,0,0,0,5.05,0,5.06,5.06,0,0,0,1.7-2.16A7.89,7.89,0,0,0,322.75,524.12Z"/><path class="cls-4" d="M339,524.12a8.73,8.73,0,0,1-.78,3.77,6.23,6.23,0,0,1-2.17,2.59,5.68,5.68,0,0,1-6.26,0,6.23,6.23,0,0,1-2.17-2.59,9.53,9.53,0,0,1,0-7.55,6.32,6.32,0,0,1,2.17-2.6,5.58,5.58,0,0,1,6.26,0,6.32,6.32,0,0,1,2.17,2.6A8.75,8.75,0,0,1,339,524.12Zm-1.24,0a8,8,0,0,0-.62-3.23,5.11,5.11,0,0,0-1.7-2.17,4.43,4.43,0,0,0-5.05,0,5.07,5.07,0,0,0-1.72,2.17,8.8,8.8,0,0,0,0,6.44,5.1,5.1,0,0,0,1.72,2.16,4.48,4.48,0,0,0,5.05,0,5.14,5.14,0,0,0,1.7-2.16A7.89,7.89,0,0,0,337.71,524.12Z"/><path class="cls-4" d="M347.77,522.73a12.41,12.41,0,0,1,1-4.85,40.12,40.12,0,0,1,2.36-4.67l1,.49a18.73,18.73,0,0,0-1.08,1.87,20.72,20.72,0,0,0-1,2.33,20.37,20.37,0,0,0-.76,2.49,11.08,11.08,0,0,0-.29,2.42,12.13,12.13,0,0,0,.83,4.16,20.19,20.19,0,0,0,2.33,4.48l-.93.54a22,22,0,0,1-1.8-3.1,17.91,17.91,0,0,1-1.17-3.11A12.08,12.08,0,0,1,347.77,522.73Z"/><path class="cls-4" d="M360.64,513.8h1.08l7.35,17.38h-1.33l-2.37-5.73H357l-2.38,5.73h-1.35ZM365,524.42l-3.77-9.11-3.78,9.11Z"/><path class="cls-4" d="M377.56,531.42a5.14,5.14,0,0,1-2.92-.86,7,7,0,0,1-2.07-2.11v7.94h-1.23V518.47h1.13V521a6.3,6.3,0,0,1,2.08-2,5.5,5.5,0,0,1,5.19-.21,6.15,6.15,0,0,1,1.92,1.48,7.23,7.23,0,0,1,1.28,2.11,6.77,6.77,0,0,1,.45,2.44,7.32,7.32,0,0,1-.74,3.26,6.13,6.13,0,0,1-2,2.4A5.25,5.25,0,0,1,377.56,531.42Zm-.29-1.1a4.32,4.32,0,0,0,2-.46,5,5,0,0,0,1.53-1.24,6,6,0,0,0,1.32-3.76,5.6,5.6,0,0,0-1.48-3.82,5.33,5.33,0,0,0-1.62-1.21,4.44,4.44,0,0,0-2-.45,4.17,4.17,0,0,0-1.41.27,5.87,5.87,0,0,0-1.42.75,4.87,4.87,0,0,0-1.11,1.11,2.8,2.8,0,0,0-.54,1.28V527a6.61,6.61,0,0,0,1.14,1.69,5.24,5.24,0,0,0,1.62,1.22A4.41,4.41,0,0,0,377.27,530.32Z"/><path class="cls-4" d="M392.35,519.55a5.07,5.07,0,0,0-3,1,5,5,0,0,0-1.8,2.65v8h-1.22V518.47h1.17v3.11a6.07,6.07,0,0,1,1.76-2.19,4.65,4.65,0,0,1,2.33-1l.44,0h.32Z"/><path class="cls-4" d="M399.52,531.42a6,6,0,0,1-2.48-.51,5.84,5.84,0,0,1-2-1.43,6.63,6.63,0,0,1-1.3-2.09,6.81,6.81,0,0,1-.47-2.5,6.92,6.92,0,0,1,.47-2.55,6.7,6.7,0,0,1,1.31-2.1,6.15,6.15,0,0,1,2-1.44,5.81,5.81,0,0,1,2.46-.52,5.73,5.73,0,0,1,2.45.52,6.38,6.38,0,0,1,2,1.44,6.76,6.76,0,0,1,1.33,2.1,7.13,7.13,0,0,1,.46,2.55,7,7,0,0,1-.46,2.5,6.84,6.84,0,0,1-1.31,2.09,6.13,6.13,0,0,1-2,1.43A6,6,0,0,1,399.52,531.42Zm-5-6.53a5.62,5.62,0,0,0,.67,2.74,5.4,5.4,0,0,0,1.8,2,4.46,4.46,0,0,0,2.5.73,4.55,4.55,0,0,0,2.51-.74,5.38,5.38,0,0,0,1.81-2,5.7,5.7,0,0,0,.67-2.74,5.63,5.63,0,0,0-.67-2.73,5.49,5.49,0,0,0-1.8-2,4.58,4.58,0,0,0-5,0,5.54,5.54,0,0,0-1.81,2A5.69,5.69,0,0,0,394.53,524.89Z"/><path class="cls-4" d="M408,518.47l4.06,5.26.2.34.19-.34,4-5.26h1.42L413,524.85l4.92,6.33h-1.42l-4-5.23-.19-.32-.2.32-4,5.23h-1.39l4.89-6.33-4.92-6.38Z"/><path class="cls-4" d="M420,531.18V529.1h1.08v2.08Z"/><path class="cls-4" d="M427.8,522.73a12.08,12.08,0,0,1-.41,3,16.37,16.37,0,0,1-1.16,3.11,25.22,25.22,0,0,1-1.79,3.1l-.93-.54a21.44,21.44,0,0,0,2.31-4.48,12.37,12.37,0,0,0,.83-4.16,11.68,11.68,0,0,0-.28-2.42,17.38,17.38,0,0,0-.76-2.49,25.11,25.11,0,0,0-1-2.33,16.91,16.91,0,0,0-1.09-1.87l.95-.49a36.09,36.09,0,0,1,2.38,4.67A12.58,12.58,0,0,1,427.8,522.73Z"/><path class="cls-4" d="M321.52,497.79V480.41h2.21v15.42h9.69v2Z"/><path class="cls-4" d="M335.36,492.71v-7.62h2.15v7.2a5.08,5.08,0,0,0,.69,2.92,2.33,2.33,0,0,0,2,1,4.08,4.08,0,0,0,1.7-.38,4.66,4.66,0,0,0,1.48-1.08,5.05,5.05,0,0,0,1-1.67v-8h2.15v10.26a.88.88,0,0,0,.16.57.77.77,0,0,0,.53.21v1.66l-.58.07h-.4a1.56,1.56,0,0,1-1.05-.38,1.25,1.25,0,0,1-.47-.94l0-1.48a5.82,5.82,0,0,1-2.24,2.19,6.23,6.23,0,0,1-3.07.78,3.59,3.59,0,0,1-3-1.35A6.55,6.55,0,0,1,335.36,492.71Z"/><path class="cls-4" d="M361.28,497.79h-2.15v-7.08a5.39,5.39,0,0,0-.63-2.95,2.12,2.12,0,0,0-1.89-.93,3.83,3.83,0,0,0-1.75.43,5.33,5.33,0,0,0-1.55,1.17,4.4,4.4,0,0,0-1,1.71v7.65h-2.16v-12.7h2v2.74a5.31,5.31,0,0,1,1.32-1.55,6,6,0,0,1,1.84-1,6.19,6.19,0,0,1,2.15-.37,4,4,0,0,1,1.85.4,3,3,0,0,1,1.18,1.12,5.2,5.2,0,0,1,.61,1.69,11.61,11.61,0,0,1,.18,2.11Z"/><path class="cls-4" d="M370.29,498a6.6,6.6,0,0,1-2.63-.52,6.26,6.26,0,0,1-2.06-1.45,6.48,6.48,0,0,1-1.34-2.11,7,7,0,0,1,.33-5.81,6.08,6.08,0,0,1,2.27-2.37,6.49,6.49,0,0,1,3.41-.89,6.23,6.23,0,0,1,3.29.85,5.17,5.17,0,0,1,2.09,2.26l-2.1.66a3.64,3.64,0,0,0-1.37-1.41,3.94,3.94,0,0,0-2-.5,3.87,3.87,0,0,0-2.14.61,4.33,4.33,0,0,0-1.54,1.66,5.07,5.07,0,0,0-.56,2.41,5,5,0,0,0,.58,2.41,4.55,4.55,0,0,0,1.54,1.71,3.83,3.83,0,0,0,2.14.63,4,4,0,0,0,1.46-.27,4.23,4.23,0,0,0,1.22-.72,2.64,2.64,0,0,0,.73-1l2.1.63a4.64,4.64,0,0,1-1.19,1.65,5.67,5.67,0,0,1-1.88,1.14A6.59,6.59,0,0,1,370.29,498Z"/><path class="cls-4" d="M389.29,497.79h-2.16v-7.08a5,5,0,0,0-.69-2.91,2.31,2.31,0,0,0-2-1,3.68,3.68,0,0,0-1.68.43,5,5,0,0,0-1.48,1.17,4.9,4.9,0,0,0-.93,1.71v7.65H378.2V479.92h2.15v7.91a5.78,5.78,0,0,1,2.07-2.15,5.44,5.44,0,0,1,2.83-.79,4.2,4.2,0,0,1,1.92.4,3.29,3.29,0,0,1,1.24,1.13,5.2,5.2,0,0,1,.67,1.69,9.83,9.83,0,0,1,.21,2.1Z"/><path class="cls-4" d="M103.73,708.38v1.13H95.92v-1.13H99.4V697.07a3.68,3.68,0,0,1-.69.64,12,12,0,0,1-1,.66,7,7,0,0,1-1.2.51,3.73,3.73,0,0,1-1.1.2v-1.23a2.93,2.93,0,0,0,1.28-.33,9.28,9.28,0,0,0,1.29-.76,11.23,11.23,0,0,0,1-.79c.27-.25.42-.39.46-.44h1.22v12.85Z"/><path class="cls-4" d="M117.39,704.8a4.27,4.27,0,0,1-.83,2.62,5.37,5.37,0,0,1-2.21,1.73,7.35,7.35,0,0,1-3,.6,6.51,6.51,0,0,1-3.06-.69,5.35,5.35,0,0,1-2.07-1.83,4.47,4.47,0,0,1-.75-2.5,3.91,3.91,0,0,1,.55-2.07,5.25,5.25,0,0,1,1.4-1.53,6.05,6.05,0,0,1,1.75-.93,6,6,0,0,1-1.53-.84,4.4,4.4,0,0,1-1.13-1.27,3.22,3.22,0,0,1-.43-1.62,3.71,3.71,0,0,1,.47-1.87,4.16,4.16,0,0,1,1.25-1.36,5.59,5.59,0,0,1,1.72-.83,6.62,6.62,0,0,1,1.92-.29,6.54,6.54,0,0,1,1.9.29,5.65,5.65,0,0,1,1.73.83,4.34,4.34,0,0,1,1.25,1.35,3.62,3.62,0,0,1,.46,1.86,3.16,3.16,0,0,1-.43,1.64,4.16,4.16,0,0,1-1.14,1.27,6.21,6.21,0,0,1-1.54.84,6,6,0,0,1,1.86,1,5.13,5.13,0,0,1,1.34,1.56A4.22,4.22,0,0,1,117.39,704.8Zm-1.23-.09a3.35,3.35,0,0,0-.42-1.68,3.94,3.94,0,0,0-1.13-1.24,5.5,5.5,0,0,0-3.2-1,5.07,5.07,0,0,0-2.21.51,4.74,4.74,0,0,0-1.76,1.39,3.26,3.26,0,0,0-.7,2.09,3.2,3.2,0,0,0,.43,1.67,4.22,4.22,0,0,0,1.11,1.24,5,5,0,0,0,1.53.77,5.45,5.45,0,0,0,1.68.26,5.21,5.21,0,0,0,2.2-.49,4.71,4.71,0,0,0,1.78-1.39A3.32,3.32,0,0,0,116.16,704.71Zm-8.81-8.19a2.6,2.6,0,0,0,.63,1.76,3.93,3.93,0,0,0,1.57,1.09,5.38,5.38,0,0,0,1.89.37,5.11,5.11,0,0,0,1.9-.38,4.18,4.18,0,0,0,1.58-1.12,2.83,2.83,0,0,0,0-3.52,3.85,3.85,0,0,0-1.54-1.09,5.35,5.35,0,0,0-2-.38,5.13,5.13,0,0,0-2,.39,3.84,3.84,0,0,0-1.51,1.12A2.7,2.7,0,0,0,107.35,696.52Z"/><path class="cls-4" d="M120.3,698.88V696.8h1.06v2.08Zm0,10.63v-2.09h1.06v2.09Z"/><path class="cls-4" d="M131.07,703.56a4,4,0,0,1,2,.78,4.28,4.28,0,0,1,1.27,1.61,5,5,0,0,1,.46,2.19,4.89,4.89,0,0,1-.7,2.6,4.75,4.75,0,0,1-1.94,1.74,6.17,6.17,0,0,1-2.85.62,6.52,6.52,0,0,1-3.23-.78,4.68,4.68,0,0,1-2-2.15l.9-.74a3.79,3.79,0,0,0,1.61,1.85,5.17,5.17,0,0,0,2.78.7,4.32,4.32,0,0,0,3-1,3.63,3.63,0,0,0,1.14-2.85,3.72,3.72,0,0,0-1.16-2.9,4.64,4.64,0,0,0-3.29-1.08h-.59V703h.64a4.43,4.43,0,0,0,3-.92,3.08,3.08,0,0,0,1.06-2.42,3.28,3.28,0,0,0-.51-1.86,3.36,3.36,0,0,0-1.37-1.18,4.51,4.51,0,0,0-2-.42,4.82,4.82,0,0,0-2.56.67,4,4,0,0,0-1.63,1.82l-.83-.68a4.39,4.39,0,0,1,1.14-1.54,5.26,5.26,0,0,1,1.77-1,6.39,6.39,0,0,1,2.2-.37,5.76,5.76,0,0,1,2.61.57,4.44,4.44,0,0,1,1.79,1.58,4.2,4.2,0,0,1,.65,2.32,4.28,4.28,0,0,1-.41,1.85,3.65,3.65,0,0,1-1.16,1.42A3.91,3.91,0,0,1,131.07,703.56Z"/><path class="cls-4" d="M149.51,702.44a8.75,8.75,0,0,1-.78,3.78,6.44,6.44,0,0,1-2.17,2.59,5.7,5.7,0,0,1-6.27,0,6.44,6.44,0,0,1-2.17-2.59,9.53,9.53,0,0,1,0-7.55,6.57,6.57,0,0,1,2.17-2.61,5.65,5.65,0,0,1,6.27,0,6.57,6.57,0,0,1,2.17,2.61A8.73,8.73,0,0,1,149.51,702.44Zm-1.25,0a7.91,7.91,0,0,0-.61-3.22A5.22,5.22,0,0,0,146,697a4.49,4.49,0,0,0-5.06,0,5.16,5.16,0,0,0-1.71,2.18,7.91,7.91,0,0,0-.61,3.22,7.82,7.82,0,0,0,.61,3.21,5.13,5.13,0,0,0,1.71,2.17,4.49,4.49,0,0,0,5.06,0,5.18,5.18,0,0,0,1.7-2.17A7.82,7.82,0,0,0,148.26,702.44Z"/><path class="cls-4" d="M95.12,676.12V658.74h7.25a4.64,4.64,0,0,1,2.11.48,5.41,5.41,0,0,1,1.66,1.27,6,6,0,0,1,1.1,1.79,5.45,5.45,0,0,1,.39,2A6.08,6.08,0,0,1,107,667a5.4,5.4,0,0,1-1.79,2.08,4.64,4.64,0,0,1-2.69.8H97.33v6.24Zm2.21-8.2h5.06a2.58,2.58,0,0,0,1.58-.49,3.39,3.39,0,0,0,1.06-1.32,4.38,4.38,0,0,0,.38-1.81,3.78,3.78,0,0,0-.45-1.85,3.36,3.36,0,0,0-1.15-1.29,2.77,2.77,0,0,0-1.56-.46H97.33Z"/><path class="cls-4" d="M108.88,672.45a3.31,3.31,0,0,1,.7-2.11A4.46,4.46,0,0,1,111.5,669a7.54,7.54,0,0,1,2.84-.49,12.91,12.91,0,0,1,1.81.14,8.23,8.23,0,0,1,1.69.4v-.92a3,3,0,0,0-.88-2.29,3.52,3.52,0,0,0-2.5-.83,5.57,5.57,0,0,0-2,.38,11.4,11.4,0,0,0-2,1.09l-.78-1.52a10.17,10.17,0,0,1,2.49-1.28,7.88,7.88,0,0,1,2.6-.43,5.4,5.4,0,0,1,3.87,1.35,4.92,4.92,0,0,1,1.42,3.75v5.36a.83.83,0,0,0,.16.57.74.74,0,0,0,.52.21v1.66c-.21,0-.39.06-.55.07l-.38,0a1.48,1.48,0,0,1-1.14-.42,1.51,1.51,0,0,1-.42-.88l0-.81a5.52,5.52,0,0,1-2.18,1.67,6.69,6.69,0,0,1-2.67.59,4.85,4.85,0,0,1-2.28-.53,4,4,0,0,1-1.56-1.41A3.58,3.58,0,0,1,108.88,672.45Zm8.33.89a3,3,0,0,0,.46-.69,1.31,1.31,0,0,0,.17-.59v-1.58a8.85,8.85,0,0,0-1.59-.44,8.36,8.36,0,0,0-1.64-.16,4.92,4.92,0,0,0-2.66.64,2,2,0,0,0-1,1.76,2.31,2.31,0,0,0,.33,1.17,2.61,2.61,0,0,0,1,.94,3.24,3.24,0,0,0,1.6.36,4.61,4.61,0,0,0,1.91-.4A4.08,4.08,0,0,0,117.21,673.34Z"/><path class="cls-4" d="M130.21,665.23a5.29,5.29,0,0,0-2.86.82,4.36,4.36,0,0,0-1.75,2.19v7.88h-2.15V663.41h2v2.89a6,6,0,0,1,1.75-2.14,4.44,4.44,0,0,1,2.29-.92h.41a1.32,1.32,0,0,1,.3,0Z"/><path class="cls-4" d="M139,675.56l-.74.32a7.27,7.27,0,0,1-1.08.34,5.37,5.37,0,0,1-1.29.15,3.61,3.61,0,0,1-1.45-.29,2.25,2.25,0,0,1-1-.88,2.7,2.7,0,0,1-.39-1.5v-8.6h-1.74v-1.69H133v-4.25h2.15v4.25H138v1.69H135.1V673a1.33,1.33,0,0,0,.47,1,1.51,1.51,0,0,0,1,.33,3,3,0,0,0,1.17-.22,4.89,4.89,0,0,0,.71-.32Z"/><path class="cls-4" d="M141.54,679.6l.64.06.49,0a1,1,0,0,0,.68-.27,3.46,3.46,0,0,0,.65-1c.24-.51.54-1.26.92-2.25l-5.41-12.73h2.27L146.09,674l3.9-10.56h2.13l-6.22,16.07a3.79,3.79,0,0,1-.65,1.06,3.06,3.06,0,0,1-1.09.8,4,4,0,0,1-1.59.29l-.45,0c-.16,0-.35-.05-.58-.1Z"/><path class="cls-5" d="M99.48,107.22V102.1a1.73,1.73,0,0,0-3.44,0v5.07l-1.18,7.22L89.75,83.9a.92.92,0,0,0,.21-.17,1.81,1.81,0,0,0,.57-1.41,1.91,1.91,0,0,0-1.31-1.67v0A2.76,2.76,0,0,0,89,75.8V74.3a1.49,1.49,0,0,0,0-2.85,1.76,1.76,0,0,0-3.44,0,1.5,1.5,0,0,0,0,2.86v1.53a2.84,2.84,0,0,0-1.5,2.46,2.87,2.87,0,0,0,1.32,2.35v0a2.42,2.42,0,0,0-.74.44,1.82,1.82,0,0,0-.57,1.42,1.78,1.78,0,0,0,.78,1.36l-5.14,30.37-1.17-7V102.1a1.73,1.73,0,0,0-3.45,0v5.07L71.68,128l0,12.31,3.6,3.22v12.81l-1.16-8.9-3.21,21,0,.06v26.79H68.13v34.92H99.18l.07-86.57,3.67-3.28V128.12ZM87.22,78.08h.06a.21.21,0,0,1,.19.2.21.21,0,0,1-.22.2h-.06a.23.23,0,0,1-.2-.16A.29.29,0,0,1,87.22,78.08Zm12.63,61.09-3.61,3.28-.07,85h-25V197.93h2.7V168.8l.38-2.47a2.24,2.24,0,0,0,.68.32,2.49,2.49,0,0,0,2.39-.49l1-.89V142.4l-3.6-3.23V128.32l2.14-13.13,1.15,7a1.7,1.7,0,0,0,1.72,1.33,1.66,1.66,0,0,0,1.72-1.33l5.82-34.81,5.86,35a1.7,1.7,0,0,0,1.72,1.34,1.67,1.67,0,0,0,1.72-1.34l1.17-7.15,2.15,13.08Z"/><path class="cls-5" d="M87.25,177.09a4.91,4.91,0,0,0-5.14,4.62v14.66H92.39V181.71A4.91,4.91,0,0,0,87.25,177.09Zm2.59,17H84.67V181.71a2.6,2.6,0,0,1,5.17,0Z"/><path class="cls-5" d="M93.82,144.63a3.57,3.57,0,0,0-2.39-.89,3.63,3.63,0,0,0-2.09.66,3.74,3.74,0,0,0-4.18,0,3.63,3.63,0,0,0-2.09-.66,3.18,3.18,0,0,0-3.34,3v10.81h15V146.74A2.74,2.74,0,0,0,93.82,144.63Zm-9.95,10.62H82.3v-8.51a.79.79,0,0,1,1.57,0Zm4.19,0H86.48v-8.51a.79.79,0,0,1,1.58,0Zm4.16,0H90.64v-8.51a.79.79,0,0,1,1.58,0Z"/><path class="cls-5" d="M87.25,197.69a4.89,4.89,0,0,0-5.14,4.61v7.87H92.39V202.3A4.89,4.89,0,0,0,87.25,197.69Zm2.59,10.19H84.67V202.3a2.6,2.6,0,0,1,5.17,0Z"/><path class="cls-5" d="M92,161.71a7,7,0,0,0-4.7-1.75c-3.64,0-6.61,2.66-6.61,5.93s3,5.93,6.61,5.93,6.61-2.65,6.61-5.92A5.58,5.58,0,0,0,92,161.71Zm-1.81,6.74a4.26,4.26,0,0,1-2.89,1.08,3.66,3.66,0,1,1,4.06-3.63A3.4,3.4,0,0,1,90.14,168.45Z"/><path class="cls-5" d="M170.66,215.38V195.22H168V168.51l-3.26-21.08-1.16,8.89V143.51l3.59-3.22V128.12l-3.42-20.88v-5a1.74,1.74,0,0,0-3.46-.1v5.08l-1.17,7.07L154,83.89a1.84,1.84,0,0,0,.78-1.36,1.86,1.86,0,0,0-.57-1.41,2.23,2.23,0,0,0-.75-.46v0a2.88,2.88,0,0,0,1.33-2.35,2.85,2.85,0,0,0-1.51-2.46V74.3a1.57,1.57,0,0,0,1.05-1.43,1.55,1.55,0,0,0-1.06-1.42,1.75,1.75,0,0,0-3.43,0,1.5,1.5,0,0,0,0,2.86v1.53a2.75,2.75,0,0,0-.17,4.81v0a2,2,0,0,0-1.33,1.68,1.86,1.86,0,0,0,.57,1.39c.07.06.13.13.21.19L144,114.41l-1.18-7.17v-5a1.73,1.73,0,0,0-3.45-.09v5.08l-3.43,20.95-.06,12.15,3.67,3.28.07,86.57h31v-2.8a1.45,1.45,0,0,0-1.52-1.36h0a1.44,1.44,0,0,0-1.51,1.36v.11h-25l-.07-84.87v-.13l-3.67-3.28V128.32L141,115.19l1.18,7.15a1.7,1.7,0,0,0,1.72,1.34,1.67,1.67,0,0,0,1.72-1.34l5.86-35,5.86,34.82a1.7,1.7,0,0,0,1.72,1.33,1.67,1.67,0,0,0,1.72-1.34l1.14-7,2.15,13.08v10.9l-3.6,3.23v22.87l1,.89a2.47,2.47,0,0,0,2.39.49,2.08,2.08,0,0,0,.67-.32l.39,2.43v29.17h2.7v17.45a1.44,1.44,0,0,0,1.51,1.36h0A1.45,1.45,0,0,0,170.66,215.38ZM151.54,78.48h-.07a.21.21,0,0,1-.19-.2c0-.1.08-.18.22-.2h0a.21.21,0,0,1,.22.2A.21.21,0,0,1,151.54,78.48Z"/><path class="cls-5" d="M151.52,177.09a4.91,4.91,0,0,0-5.14,4.62v14.66h10.28V181.71A4.91,4.91,0,0,0,151.52,177.09Zm2.59,17h-5.18V181.71a2.6,2.6,0,0,1,5.18,0Z"/><path class="cls-5" d="M155.67,143.75a3.57,3.57,0,0,0-2.1.67,3.74,3.74,0,0,0-4.18,0,3.76,3.76,0,0,0-2.12-.67,3.41,3.41,0,0,0-2.27.85,2.86,2.86,0,0,0-1,2.16v10.8h15v-10.8A3.19,3.19,0,0,0,155.67,143.75Zm-7.55,11.52h-1.57v-8.51a.79.79,0,0,1,1.57,0Zm4.19,0h-1.58v-8.51a.79.79,0,0,1,1.58,0Zm4.18,0h-1.57v-8.51a.74.74,0,0,1,.78-.72.75.75,0,0,1,.79.72Z"/><path class="cls-5" d="M151.52,197.69a4.9,4.9,0,0,0-5.14,4.61v7.87h10.28V202.3A4.9,4.9,0,0,0,151.52,197.69Zm2.59,10.19h-5.18V202.3a2.61,2.61,0,0,1,5.18,0Z"/><path class="cls-5" d="M151.52,160c-3.64,0-6.61,2.66-6.61,5.93s3,5.93,6.61,5.93,6.6-2.65,6.6-5.93S155.16,160,151.52,160Zm0,9.57a3.66,3.66,0,1,1,4-3.64A3.86,3.86,0,0,1,151.52,169.53Z"/><path class="cls-5" d="M120.88,142.6v-7.36H123a1.36,1.36,0,1,0,0-2.7h-2.15v-3.06a1.51,1.51,0,0,0-3,0v3.06h-2.15a1.36,1.36,0,1,0,0,2.7h2.15v7.36l-16.65,21.25-.07.08v66.23H115V214.67a4.43,4.43,0,0,1,8.81,0v15.49h13.83V163.93Zm13.72,84.85h-7.81V214.67c0-3.67-3.33-6.66-7.42-6.66s-7.4,3-7.4,6.66v12.78h-7.82V164.78l15.22-19.41,15.23,19.41Z"/><path class="cls-5" d="M119.39,181.23c-3.64,0-6.6,2.66-6.6,5.93v18.73H126V187.16C126,183.89,123,181.23,119.39,181.23Zm4.06,22.37h-8.11V187.16a4.08,4.08,0,0,1,8.11,0Z"/><path class="cls-5" d="M119.39,167.91c-3.64,0-6.6,2.66-6.6,5.93s3,5.93,6.6,5.93,6.61-2.67,6.61-5.93S123,167.91,119.39,167.91Zm0,9.58a3.66,3.66,0,1,1,4.06-3.64A3.87,3.87,0,0,1,119.39,177.49Z"/><path class="cls-5" d="M124,157.35v-2.8a2.77,2.77,0,0,0-2.91-2.62,3.14,3.14,0,0,0-1.74.52,3.06,3.06,0,0,0-1.73-.52,2.78,2.78,0,0,0-2.92,2.62v2.8a2.86,2.86,0,0,0-3.5,2.57v5.42h16.31v-5.42A2.83,2.83,0,0,0,124,157.35Zm-9.3,5.89h-1.17v-3.32a.56.56,0,0,1,.59-.53.56.56,0,0,1,.58.47Zm3.51,0h-1.18v-8.69a.56.56,0,0,1,.59-.53.57.57,0,0,1,.59.53Zm3.49,0h-1.16v-8.72a.54.54,0,0,1,.57-.5.56.56,0,0,1,.59.53Zm3.5,0h-1.17v-3.36a.53.53,0,0,1,.58-.49.56.56,0,0,1,.59.53Z"/><path class="cls-5" d="M59.11,558.35c-2.14,0-3.36-.62-4.15-2.13v-6.45a3.69,3.69,0,0,1,3.64-2.14h.48c.68.05,1.4.07,2.28.07l1.84,0,1.94,0a.74.74,0,0,0,.74-.74v-1.88q0-7.93,0-15.87c0-13.4,0-27.26-.08-40.89-.07-6.74,3.71-11.48,10.11-12.67a.75.75,0,0,0,.6-.73V455.75c0-2.45,1.09-3.55,3.5-3.56h5.61c2.51,0,3.58,1.1,3.58,3.64q0,6.62,0,13.21v5.74a.75.75,0,0,0,.51.71l1.33.42a14.54,14.54,0,0,1,2.44.88,11,11,0,0,1,6.35,10c.07,2.32.05,4.62,0,7.05,0,1.09,0,2.2,0,3.32a.75.75,0,0,0,.74.75h10c2.3,0,4.6,0,6.9,0h0a3.74,3.74,0,0,1,3.14,1.46c6.57,7.72,7.15,18.8,1.36,26.34A16.29,16.29,0,0,1,111.93,532a1.79,1.79,0,0,0-1.71,2.15c0,.67,0,1.33-.11,2-.14,1.67-.28,3.39.44,4.76a7.9,7.9,0,0,0,3.3,2.79,14.22,14.22,0,0,1,2,1.28,12.69,12.69,0,0,0,8.49,2.79h.42a11.4,11.4,0,0,0,7.75-2.59,30.56,30.56,0,0,1,3-2.2c.67-.45,1.36-.93,2-1.43a2.61,2.61,0,0,0,1.06-1.85c0-3.35,0-6.75,0-10v-4.21a.75.75,0,0,0-.52-.71c-5.32-1.72-7.39-5.52-6.71-12.33a.75.75,0,0,0-.63-.81l-.57-.07c-.34,0-.65-.09-1-.15a1.3,1.3,0,0,1-1.2-1.44,1.25,1.25,0,0,1,1.22-1.38,15.77,15.77,0,0,1,1.86-.11l1,0a.75.75,0,0,0,.71-.74v-33c0-2.93.25-3.26,3-4a.75.75,0,0,0,.37-1.21c-3.17-3.63-3.36-5.55-1-9.79l.91-1.64c.66-1.19,1.35-2.43,2-3.62a2,2,0,0,1,3.78,0c1.3,2.23,2.55,4.47,3.72,6.68,1.51,2.85,1,5.28-1.75,8.38a.74.74,0,0,0-.16.71.75.75,0,0,0,.52.5c2.74.71,3,1,3,3.85V477c0,2.08,0,4.17,0,6.26,0,1.23-.48,1.86-1.42,1.88h0c-1.25,0-1.51-1.05-1.51-1.94,0-2,0-3.93,0-5.93v-2.57a.75.75,0,0,0-.74-.75h-7a.75.75,0,0,0-.74.75v32.95a.75.75,0,0,0,.74.75h7a.75.75,0,0,0,.74-.75v-4.41c0-2.82,0-5.65,0-8.47a3.65,3.65,0,0,1,.18-1.31,1.2,1.2,0,0,1,1.18-.84,1.78,1.78,0,0,1,.39,0c.59.11,1.19.39,1.19,1.62v13.5a.74.74,0,0,0,.74.74H150c1.91.05,2,1,2,1.39,0,.67-.16,1.37-1.8,1.56l-.55.08-.35.05a.75.75,0,0,0-.63.74v1.23c0,.87,0,1.72,0,2.58a8.52,8.52,0,0,1-5.57,8.16,2.25,2.25,0,0,0-1.65,2.36c0,1.9,0,3.81,0,5.71,0,2.3,0,4.67,0,7a3.69,3.69,0,0,0,.6,1.71c.1.19.21.38.29.57a.74.74,0,0,0,.68.45l.19,0,.61-.16a.75.75,0,0,0,.55-.72v-4.91q0-3,0-6.08c0-2.5,1-3.47,3.54-3.47h20.81a.75.75,0,0,0,.73-.63c.17-1.13.34-2.25.52-3.36.37-2.41.74-4.8,1.08-7.19.25-1.73.63-2.88,1.84-3.6a1.72,1.72,0,0,0,.74-1.56c-.16-1-.36-1.91-.53-2.67l-.14-.63a.75.75,0,0,0-.72-.59.69.69,0,0,0-.2,0c-.51.14-1,.29-1.51.45a13,13,0,0,1-3,.71h-.2a5,5,0,0,1-3.3-1.87,3,3,0,0,0-2-.83h-.19l-.61,0a5,5,0,0,1-3.71-1.47,5.38,5.38,0,0,1-1.38-4,3,3,0,0,0-.92-2.15,5.45,5.45,0,0,1-2.09-3.91,5.38,5.38,0,0,1,1.89-4,3.31,3.31,0,0,0,.91-2.28,5.56,5.56,0,0,1,1.34-4.14,5.18,5.18,0,0,1,3.86-1.39h.42a2.52,2.52,0,0,0,2.64-3.25c-.35-1.74.17-3.21,1.71-4.78a3.28,3.28,0,0,0,.9-2.25,5.27,5.27,0,0,1,1.3-4,4.85,4.85,0,0,1,3.64-1.4h.51a2.78,2.78,0,0,0,2.26-1.06,5,5,0,0,1,3.8-1.92,5.3,5.3,0,0,1,3.77,1.76,3.56,3.56,0,0,0,2.35.93h.23a5.34,5.34,0,0,1,3.93,1.42,5.42,5.42,0,0,1,1.38,4,2.88,2.88,0,0,0,.87,2c1.74,1.59,2.32,3.15,1.91,5.06a2.52,2.52,0,0,0,.57,2.12,2.94,2.94,0,0,0,2.24,1.14h.17l.6,0a5.4,5.4,0,0,1,4.15,1.67,5.7,5.7,0,0,1,1.26,4.54,2.9,2.9,0,0,0,.48,1.73c.61.93,1.26,1.84,1.89,2.73l.65.91V495l-.67.89c-.68.9-1.38,1.82-2.05,2.77a3,3,0,0,0-.53,1.72,6.1,6.1,0,0,1-1.44,4.52,5.55,5.55,0,0,1-4.11,1.47h0l-.62,0h-.14a2.93,2.93,0,0,0-2,.84,5.68,5.68,0,0,1-4.15,2.13,5.9,5.9,0,0,1-3.72-1.53,3.91,3.91,0,0,0-.45-.3l-.24-.15a.73.73,0,0,0-.4-.13.63.63,0,0,0-.27.06.69.69,0,0,0-.45.51l-.1.4c-.06.26-.11.47-.17.68-.4,1.26-.56,2.71,1.19,3.83a3.21,3.21,0,0,1,.86,1.92c.74,4.42,1.43,8.92,2.09,13.28,0,0,2.13,13.94,2.94,19.2a.73.73,0,0,0,.73.63h4.42l2.71,0a2.92,2.92,0,0,1,3.2,3,39.8,39.8,0,0,1,0,4.78,2.84,2.84,0,0,1-3.06,2.84l-2.12,0h-7.38l-3.48,0a1.43,1.43,0,0,1-1.62-1.41,1.52,1.52,0,0,1,1.64-1.53h12.29a.75.75,0,0,0,.74-.75v-3.16a.74.74,0,0,0-.74-.74H58.77a.75.75,0,0,0-.75.74v3.16a.76.76,0,0,0,.75.75H174.15c.22,0,.45,0,.67,0a1.46,1.46,0,0,1,0,2.92l-.52,0H128.63q-34.75,0-69.5,0Zm117.05-31.64c2.78,0,3.72,1,3.73,3.77v14.78c0,.35,0,.71.05,1.08l0,.56a.74.74,0,0,0,.74.71h5.87a.73.73,0,0,0,.57-.26.74.74,0,0,0,.17-.59l-1.93-12.65q-1.37-9-2.77-18c-.1-.61-.77-1.53-1.5-1.55-1.18,0-2.34,0-3.22,0h-3a.73.73,0,0,0-.73.62c-.56,3.65-1.09,7.09-1.64,10.72a.74.74,0,0,0,.17.59.73.73,0,0,0,.56.26h2.88ZM140,543.57a.7.7,0,0,0-.44.14L136,546.25a.75.75,0,0,0,.44,1.35h7.09a.75.75,0,0,0,.71-.52.77.77,0,0,0-.28-.83l-3.56-2.54A.69.69,0,0,0,140,543.57Zm8.23-13.81a.75.75,0,0,0-.75.74v16.35a.75.75,0,0,0,.75.74h27.87a.74.74,0,0,0,.74-.74V530.5a.74.74,0,0,0-.74-.74Zm-77.31-8.07c-.31,0-.63,0-1,0l-.4,0a.74.74,0,0,0-.69.74v24.31a.74.74,0,0,0,.74.74H96.18a.74.74,0,0,0,.74-.74c0-1.53,0-3.05,0-4.56,0-3.76,0-7.66,0-11.46a6.93,6.93,0,0,0-1.86-5.48,6.76,6.76,0,0,1-1.33-2.13,2.38,2.38,0,0,0-2.47-1.53l-12.1,0H70.91Zm37.83,22.21a.72.72,0,0,0-.42.13l-3.24,2.17a.73.73,0,0,0-.29.83.74.74,0,0,0,.71.53H112a.74.74,0,0,0,.71-.53.72.72,0,0,0-.3-.83L109.15,544A.79.79,0,0,0,108.74,543.9Zm-8.09-13.24a.75.75,0,0,0-.75.74v13.32a.75.75,0,0,0,.4.65.73.73,0,0,0,.35.09.69.69,0,0,0,.41-.13l1.37-.91c1.42-.95,2.75-1.84,4-2.77a2.31,2.31,0,0,0,.76-1.72c0-1.9,0-3.88,0-6.06,0-.36-.18-1.43-.91-1.66-1.38-.42-2.78-.8-4.14-1.16l-1.35-.36A.63.63,0,0,0,100.65,530.66Zm-5.27-16.4a.74.74,0,0,0-.74.69,13.18,13.18,0,0,0,3.61,9.59,14.23,14.23,0,0,0,10,4.82h.42c9.27,0,14.22-8.35,14.23-14.37a.78.78,0,0,0-.21-.52.75.75,0,0,0-.53-.22ZM135,511.52a.74.74,0,0,0-.74.74c0,.49,0,1,0,1.42a28.25,28.25,0,0,0,0,2.92,5.82,5.82,0,0,0,5.41,5.34H140a5.64,5.64,0,0,0,5.6-4.58,19.18,19.18,0,0,0,.1-3.55c0-.52,0-1,0-1.56a.74.74,0,0,0-.74-.74ZM69.68,495.8a.75.75,0,0,0-.75.74v21.37a.75.75,0,0,0,.75.74H91.06a.75.75,0,0,0,.56-.25.74.74,0,0,0,.17-.59l-.1-.79a21.25,21.25,0,0,1,4.11-16.3,4.92,4.92,0,0,0,1-4.33.74.74,0,0,0-.73-.59H90.12c-1.45,0-2.9,0-4.34,0-.63,0-1.68-.21-1.66-1.48,0-.93.59-1.41,1.72-1.43l3.65,0h5.06c.36,0,.72,0,1.1,0l.56,0a.74.74,0,0,0,.71-.74v-1.61c0-1.13,0-2.2,0-3.28a8.27,8.27,0,0,0-8.27-8.54c-1.85-.05-3.75-.08-5.67-.08s-3.9,0-5.9.08A8.07,8.07,0,0,0,69,485.44a26.67,26.67,0,0,0-.11,4.57c0,.7,0,1.4,0,2.11a.75.75,0,0,0,.74.75h5.06c1,0,1.49.41,1.59,1.33a1.32,1.32,0,0,1-.28,1.05,1.84,1.84,0,0,1-1.37.53c-.64,0-1.28,0-1.92,0H69.68Zm107.38,8.65a1.06,1.06,0,0,0-.54.14,1.66,1.66,0,0,0-.61,1.62c.2,1.14.43,2.25.66,3.36l.26,1.25a.72.72,0,0,0,.49.55,3.06,3.06,0,0,0,1,.19c1.46,0,1.72-1.43,1.81-1.9l0-.2c.52-2.84.39-3.14-2-4.66A2.17,2.17,0,0,0,177.06,504.45Zm-68.6-3.58h-7.89a1.93,1.93,0,0,0-1.52.49,17.34,17.34,0,0,0-4.28,8.92.74.74,0,0,0,.17.59.73.73,0,0,0,.57.26H122a.73.73,0,0,0,.57-.26.74.74,0,0,0,.16-.61,18,18,0,0,0-4.16-8.74,2.45,2.45,0,0,0-1.74-.65Zm76.11,1.55c1,0,1.28.52,1.82,1.56a4,4,0,0,0,2.48,2.18h.18c1,0,2.08-1.29,2.43-1.91.84-1.5,1.09-1.65,1.52-1.65a6.7,6.7,0,0,1,1.69.38,4.89,4.89,0,0,0,1.35.19,3,3,0,0,0,1.89-.55c1-.85.32-3.17.32-3.2-.55-1.79-.42-2.07,1.29-2.94.08-.05,2.15-1.12,2.17-2.5,0-1.12-1.37-2.16-2.1-2.55-1.7-.91-1.77-1.08-1.16-3,.21-.63.55-2.44-.29-3.29a2.45,2.45,0,0,0-1.77-.55,5.4,5.4,0,0,0-1.51.21,5.56,5.56,0,0,1-1.44.28c-.47,0-.77-.15-1.5-1.57-.38-.72-1.39-2.09-2.53-2.14h0c-1.22,0-2.29,1.48-2.61,2.05-.75,1.36-1.05,1.5-1.51,1.5a5.58,5.58,0,0,1-1.5-.31,5.42,5.42,0,0,0-1.52-.22,3,3,0,0,0-1.84.52c-1,.82-.32,3.23-.29,3.33.48,1.62.32,2-1.19,2.75a6.26,6.26,0,0,0-1.65,1.41c-.19.21-.38.42-.58.61a.77.77,0,0,0-.24.53.75.75,0,0,0,.22.53l.57.58c.47.47.93.95,1.41,1.41a1.62,1.62,0,0,0,.58.32l.11,0a1.41,1.41,0,0,1,.78,1.95c-.06.17-.13.33-.2.5s-.21.5-.29.76a2.85,2.85,0,0,0,.23,2.62,2.21,2.21,0,0,0,1.89.83,4.47,4.47,0,0,0,.93-.1,12.56,12.56,0,0,0,1.52-.47Zm-20.25-1.08c.43,0,.71.16,1.48,1.54.27.5,1.21,1.79,2.24,1.79a2.71,2.71,0,0,0,1.83-1.27,5.2,5.2,0,0,1,.37-.43,1.77,1.77,0,0,0,.36-.71,1,1,0,0,1,.06-.16,1.32,1.32,0,0,1,1.29-.93,2.79,2.79,0,0,1,.66.1,2.26,2.26,0,0,1,.43.17,2.86,2.86,0,0,0,1.14.31c.21,0,1.93-.06,2.19-1a3.17,3.17,0,0,0-.39-2.62,8.52,8.52,0,0,0-1.84-1.5c-.26-.18-.52-.35-.77-.54a.76.76,0,0,0-1,.13,5.67,5.67,0,0,1-4.41,2.4,5.74,5.74,0,0,1-1.83-.32,5.08,5.08,0,0,1-3.54-4.72,5.52,5.52,0,0,1,.84-3.14,12.73,12.73,0,0,1,2.61-2.18c.45-.32.9-.64,1.35-1a.74.74,0,0,0,.26-.79l-.75-2.59a.73.73,0,0,0-.61-.52h-.11a.72.72,0,0,0-.62.35c-.89,1.42-1.15,1.56-1.57,1.56a6.36,6.36,0,0,1-1.56-.33,4.87,4.87,0,0,0-1.23-.16,2.18,2.18,0,0,0-1.67.56c-.81.89-.25,2.69-.19,2.89.57,1.76.46,2.06-1.12,2.9a5,5,0,0,0-1.35,1.19c-.15.17-.3.33-.46.49a.73.73,0,0,0-.22.52.74.74,0,0,0,.21.53c.16.16.31.35.46.53a5.12,5.12,0,0,0,1.41,1.28c1.7.87,1.81,1.11,1.29,2.83,0,0-.68,2.25.31,3a2.78,2.78,0,0,0,1.61.43,4.63,4.63,0,0,0,1.34-.2A5.76,5.76,0,0,1,164.32,501.34Zm3.51-10.46a2.22,2.22,0,0,0-2.34,2.23,2.43,2.43,0,0,0,.62,1.81,2.07,2.07,0,0,0,1.52.63h.28a3.43,3.43,0,0,0,1.72-.93,3.35,3.35,0,0,1,.4-.31.73.73,0,0,0,.32-.71c-.08-.67-.35-2.71-2.46-2.71ZM172,469.06a2.12,2.12,0,0,0-1.55.5c-.68.69-.47,2.11-.27,2.77.62,2,.64,2-1.29,3.06,0,0-1.84,1-1.64,2.18a3.34,3.34,0,0,0,1.76,2c1.89,1,1.93,1.07,1.34,3.06,0,.08-.55,1.95.34,2.66a2.34,2.34,0,0,0,1.56.44c.34,0,.68,0,1-.07a19.08,19.08,0,0,0,2.16-.36l1.09-.21a.75.75,0,0,0,.56-.47l.37-1a.74.74,0,0,0-.31-.9c-3.71-2.25-4.87-4.76-3.57-7.67a5.55,5.55,0,0,1,5.05-3.23,5.38,5.38,0,0,1,1.59.24c3,.94,4.19,3.38,3.53,7.46a.75.75,0,0,0,.3.73.76.76,0,0,0,.43.14.64.64,0,0,0,.35-.1l5-2.72a.74.74,0,0,0,.39-.59.73.73,0,0,0-.29-.65l-.52-.43a6.76,6.76,0,0,0-1.37-1c-1.71-.85-1.81-1.07-1.24-3,0-.07.57-1.94-.3-2.66a2.68,2.68,0,0,0-1.66-.49,3.65,3.65,0,0,0-1,.13,7.45,7.45,0,0,1-1.77.39c-.42,0-.66-.14-1.49-1.61,0,0-.93-1.61-2-1.61h-.12a3.28,3.28,0,0,0-2.12,1.69c-.82,1.54-1.06,1.69-1.5,1.69a6.61,6.61,0,0,1-1.55-.32A4.84,4.84,0,0,0,172,469.06Zm6.46,5.82a2.33,2.33,0,0,0-2.39,2.41,2.37,2.37,0,0,0,2.45,2.5h.1a2.38,2.38,0,0,0,2.46-2.53,2.32,2.32,0,0,0-2.49-2.38ZM80.3,455.22a.74.74,0,0,0-.74.74V474.8a.74.74,0,0,0,.74.74h5.12a.74.74,0,0,0,.74-.74V456a.74.74,0,0,0-.74-.74ZM140,457.83a.75.75,0,0,0-.65.38c-.27.5-.54,1-.8,1.44-.6,1-1.16,2-1.66,3a3.24,3.24,0,0,0,1,4.19,3.28,3.28,0,0,0,2.07.77,3.49,3.49,0,0,0,1.95-.64,3.23,3.23,0,0,0,1.24-4.15,31.28,31.28,0,0,0-1.67-3.17l-.84-1.48a.75.75,0,0,0-.65-.38Zm22.12,84.85h-2.88c-.6,0-1.21,0-1.82,0-1,0-1.68-.57-1.66-1.47a1.42,1.42,0,0,1,1.56-1.44c1.62,0,3.24,0,4.86,0s3.24,0,4.85,0a1.38,1.38,0,0,1,1.5,1.48,1.41,1.41,0,0,1-1.57,1.43c-.64,0-1.28,0-1.91,0Zm.38-6.26h-8.43c-.68,0-1.84-.2-1.86-1.46a1.32,1.32,0,0,1,.34-1,2.26,2.26,0,0,1,1.6-.5h16.07c1.84,0,1.85,1.08,1.86,1.43a1.45,1.45,0,0,1-.36,1,2,2,0,0,1-1.43.47Zm26.68-36.82a5.82,5.82,0,1,1-.11-11.64h.09a5.82,5.82,0,1,1,.06,11.64Zm0-8.68a2.93,2.93,0,0,0-2.93,2.78,2.77,2.77,0,0,0,.77,2,3,3,0,0,0,2.08.93h0a2.9,2.9,0,0,0,3-2.77,2.84,2.84,0,0,0-.82-2,3,3,0,0,0-2-.9Z"/><path class="cls-5" d="M316.68,381.4H304.9a2.6,2.6,0,0,1-2.63-2.62c0-1.06,0-2.15,0-3.33a2.6,2.6,0,0,1,2.69-2.66h6.59a.74.74,0,0,0,.74-.74v-4a.73.73,0,0,0-.26-.56.7.7,0,0,0-.48-.18h-.11l-1.24.2c-.94.16-1.91.32-2.86.39-.48,0-1,.05-1.62.05h-1.87l.29-2.77c.18-1.68.35-3.33.53-5l2.66-24.79c.38-3.56.76-7.11,1.16-10.66a2.25,2.25,0,0,0-.82-2.17,5.94,5.94,0,0,1,1.81-10,3,3,0,0,0,1.56-1.4,7.82,7.82,0,0,0,1.39-5.66,2.44,2.44,0,0,1,.18-.88,6.65,6.65,0,0,0,.19-.71.73.73,0,0,0-.46-.85c-5.27-2-8.22-6.38-10.37-10.52l6-3.72a.75.75,0,0,0,.3-.9c-1-2.69-1-5.57-.95-8.62,0-.25,0-.49,0-.74l.25,0c.9,0,1.91-.11,3-.11a19.1,19.1,0,0,1,11.49,3.51.75.75,0,0,0,.43.13h.15a.72.72,0,0,0,.48-.35,6,6,0,0,1,5.36-3.25,5.84,5.84,0,0,1,5.48,3.68,2.85,2.85,0,0,0,1.91,1.88,4,4,0,0,1,.92.49l.51.3a.78.78,0,0,0,.36.1.88.88,0,0,0,.32-.07l.66-.31c.59-.27,1.19-.55,1.78-.86a2.07,2.07,0,0,0,.87-1.09,5.82,5.82,0,0,1,5-4.06,6.33,6.33,0,0,1,.86-.06,5.94,5.94,0,0,1,4.79,2.55,2.44,2.44,0,0,0,1.8.79h1.21a43.05,43.05,0,0,1,10.74,1c12.83,3.24,21.91,11.16,27,23.53a3.8,3.8,0,0,0,1.31,1.65,6.88,6.88,0,0,1,2.53,3.14,2.55,2.55,0,0,0,1.36,1.34,6,6,0,0,1,1.89,10.24,2.4,2.4,0,0,0-.72,1.85q1.23,11.93,2.53,23.85l.34,3.25c.45,4.12.9,8.25,1.35,12.44l.42,3.83H402l-1.21,0a10.34,10.34,0,0,1-4.6-.83.71.71,0,0,0-.32-.07.77.77,0,0,0-.39.11.74.74,0,0,0-.35.63V372a.74.74,0,0,0,.74.74h6.22c2.1,0,3.08,1,3.09,3.1v.66q0,1.08,0,2.16a2.61,2.61,0,0,1-2.65,2.7H379a2.6,2.6,0,0,1-2.61-2.64c0-1,0-2.06,0-3.08a2.64,2.64,0,0,1,2.81-2.89h6.5a.73.73,0,0,0,.74-.71l0-.39c0-.25,0-.47,0-.7v-3.59c0-3.12,0-6.24,0-9.36a2.16,2.16,0,0,0-1.25-2.14A8.35,8.35,0,0,1,384,355l-.23-.19c-2.09-1.66-2.64-3.24-1.92-5.44A38.92,38.92,0,0,0,383,344c.13-.77.27-1.55.42-2.32a.74.74,0,0,0-.48-.85c-14.38-5.1-23.71-14.71-28.52-29.39a.74.74,0,0,0-.7-.51h0a.75.75,0,0,0-.71.51c-4.77,14.64-14.1,24.25-28.5,29.4a.73.73,0,0,0-.48.83l.27,1.4c.25,1.29.5,2.6.76,3.9.1.51.21,1,.32,1.52.21,1,.42,2,.57,3a1.49,1.49,0,0,1-.12.91c-.81.84-1.68,1.66-2.53,2.45l-1.44,1.36a2.27,2.27,0,0,0-.86,1.46c0,3.88,0,7.82,0,11.63v2.49a1,1,0,0,0,.11.43l.05.13a.73.73,0,0,0,.69.48h6c2.25,0,3.21,1,3.21,3.18v.85c0,.66,0,1.32,0,2a2.6,2.6,0,0,1-2.62,2.62ZM305,374.73a.74.74,0,0,0-.74.74v3.25a.74.74,0,0,0,.74.74h23.45a.74.74,0,0,0,.74-.74v-3.25a.74.74,0,0,0-.74-.74Zm74.08,0a.75.75,0,0,0-.74.75v3.26a.74.74,0,0,0,.74.74h23.45a.74.74,0,0,0,.74-.74v-3.26a.75.75,0,0,0-.74-.75Zm-60.83-17.13-1.64.22a.74.74,0,0,0-.65.77,9.16,9.16,0,0,1-1.47,5.88,1.32,1.32,0,0,0-.21.72V372a.74.74,0,0,0,.74.74h3.32a.74.74,0,0,0,.74-.74V358.3a.75.75,0,0,0-.74-.74Zm70.95,0a.79.79,0,0,0-.48.18.77.77,0,0,0-.26.57V372a.74.74,0,0,0,.74.74h3.3a.74.74,0,0,0,.74-.74v-6.49a1.76,1.76,0,0,0-.22-1,9.24,9.24,0,0,1-1.46-5.87.76.76,0,0,0-.64-.78l-1.61-.24Zm7.42-31.32a.69.69,0,0,0-.49.19c-.2.17-.39.36-.58.53a8.22,8.22,0,0,1-1.13,1,2.2,2.2,0,0,0-1,2q0,8.35,0,16.7,0,6.39,0,12.78a6.27,6.27,0,0,0,6.64,6.6c.22,0,.45,0,.69,0a.74.74,0,0,0,.51-.27.73.73,0,0,0,.17-.55l-4.1-38.27a.75.75,0,0,0-.47-.62A.84.84,0,0,0,396.6,326.22Zm-85.72-.08a.76.76,0,0,0-.74.67L306,365.1a.75.75,0,0,0,.64.82,8.24,8.24,0,0,0,1,.07,6.17,6.17,0,0,0,6.37-6.21c0-9.21,0-18.57,0-27.63v-2.49a2.16,2.16,0,0,0-.57-1.4c-.45-.46-.93-.88-1.44-1.34l-.65-.58A.74.74,0,0,0,310.88,326.14Zm77.72,2.74a.75.75,0,0,0-.69.46l0,.1a1.77,1.77,0,0,0-.12.35l-.22,1.11c-1.31,6.46-2.65,13.14-3.94,19.72a2.31,2.31,0,0,0,.52,1.84,10,10,0,0,0,6.54,3.37h.08a.75.75,0,0,0,.74-.74V330a.73.73,0,0,0-.62-.73l-2.12-.36Zm-69.66,0h-.14l-2.2.39a.74.74,0,0,0-.61.73v25a.75.75,0,0,0,.22.53.78.78,0,0,0,.52.21h0a9.75,9.75,0,0,0,6.38-3,2.57,2.57,0,0,0,.73-2.55c-.66-3.13-1.28-6.27-1.9-9.4l-.75-3.78c-.39-1.94-.78-3.87-1.18-5.82l-.36-1.79A.74.74,0,0,0,318.94,328.86ZM352,298.4a.76.76,0,0,0-.43.14l-2,1.46a.76.76,0,0,0-.29.74c.64,3.48.45,4.13-2,7a3.1,3.1,0,0,0-.56,1.22,36.33,36.33,0,0,1-22.09,24.64c-.32.14-.65.26-1,.38l-.46.18a.74.74,0,0,0-.46.83l.1.51c.13.71.26,1.38.4,2a3.66,3.66,0,0,0,.14.51l.08.27a.7.7,0,0,0,.37.45.67.67,0,0,0,.34.09.69.69,0,0,0,.24-.05,41.6,41.6,0,0,0,23.16-19.25,40.88,40.88,0,0,0,5.25-20.41.76.76,0,0,0-.41-.66A.81.81,0,0,0,352,298.4Zm6.75-7.94a.71.71,0,0,0-.62.34c-.24.38-.43.74-.62,1.1a4,4,0,0,1-1,1.42c-2.11,1.39-2,3.44-1.89,4.94q0,.36,0,.72v.63c.44,15,7,26.73,19.55,35a35.22,35.22,0,0,0,8.94,4.19.83.83,0,0,0,.22,0,.72.72,0,0,0,.38-.1.76.76,0,0,0,.35-.49l.64-3.23a.74.74,0,0,0-.44-.83l-1.2-.48c-.85-.34-1.65-.66-2.42-1-12.43-6.06-19.48-16.06-20.94-29.73a62.9,62.9,0,0,1-.22-7.13c0-1.11,0-2.21,0-3.32V291.2a.73.73,0,0,0-.53-.71Zm-26,20.36a.77.77,0,0,0-.39.11c-2.43,1.51-2.51,1.58-4,3.79a1.27,1.27,0,0,1-.1.12,1.6,1.6,0,0,0-.36.58l-.08.23a2.72,2.72,0,0,0-.23,1.36,5.91,5.91,0,0,1-3.65,6.65,2.75,2.75,0,0,0-1.79,1.84,4.22,4.22,0,0,1-.33.61,2.59,2.59,0,0,0-.56,1.52,15.52,15.52,0,0,0,.5,2.84c.08.38.18.77.26,1.16a.71.71,0,0,0,.37.5.64.64,0,0,0,.35.1.75.75,0,0,0,.26-.05,34.78,34.78,0,0,0,19.85-18.08.74.74,0,0,0-.67-1.07.7.7,0,0,0-.31.07,8.23,8.23,0,0,1-3.47.88c-1.9,0-3.55-.94-5.05-2.87A.72.72,0,0,0,332.8,310.82Zm29.37-20.11a.77.77,0,0,0-.44.14.75.75,0,0,0-.31.6c0,1,0,1.94,0,2.86,0,2,0,3.88,0,5.77.37,11.55,5.22,20.84,14.4,27.6a31.09,31.09,0,0,0,8.65,4.47,1,1,0,0,0,.24,0,.72.72,0,0,0,.4-.12.75.75,0,0,0,.34-.54,10,10,0,0,1,.3-1.46c.37-1.44.78-3.07-.53-4.68a1.11,1.11,0,0,0-.25-.48l-.09-.1a8.38,8.38,0,0,0-.95-.93c-.44-.34-.9-.68-1.35-1-.61-.46-1.25-.94-1.85-1.43a5.43,5.43,0,0,1-.62-.64,7.65,7.65,0,0,0-.75-.76,26.07,26.07,0,0,1-9.53-17.73c-.17-1.61-.18-3.29-.19-4.91,0-.94,0-1.88,0-2.82,0-.37-.21-1.4-.92-1.66-1.58-.58-3.15-1.11-4.82-1.67l-1.48-.5A.59.59,0,0,0,362.17,290.71ZM312.6,322.2c-.19,2.2.53,3.71,2.19,4.6a4.11,4.11,0,0,0,5.89-4.6c.26,0,.52,0,.75,0a4.09,4.09,0,0,0,3.88-2.14,3.85,3.85,0,0,0-.17-4.25A4.08,4.08,0,0,0,321.5,314a6.51,6.51,0,0,0-.75,0c.13-2.34-.55-3.77-2.17-4.61a4.13,4.13,0,0,0-1.92-.5,4.2,4.2,0,0,0-2.51.9,4.09,4.09,0,0,0-1.46,4.22,8,8,0,0,0-.82-.05,4,4,0,0,0-3.63,1.83,3.86,3.86,0,0,0-.07,4.46,4.08,4.08,0,0,0,3.68,1.94C312.09,322.24,312.34,322.22,312.6,322.2Zm74.13,0a5.2,5.2,0,0,0,1.16,3.87,3.78,3.78,0,0,0,2.84,1.22h.08a3.8,3.8,0,0,0,2.85-1.18,5.27,5.27,0,0,0,1.2-3.91,6.76,6.76,0,0,0,.76.05,4.12,4.12,0,0,0,3.69-1.94,3.86,3.86,0,0,0,0-4.37,4.1,4.1,0,0,0-3.66-1.92c-.24,0-.5,0-.77,0a4.25,4.25,0,0,0-2-4.52,3.93,3.93,0,0,0-2.06-.6,4,4,0,0,0-2.3.76,4.35,4.35,0,0,0-1.77,4.36,6.18,6.18,0,0,0-.73,0,4.06,4.06,0,0,0-3.71,1.94,3.88,3.88,0,0,0,0,4.36,4.1,4.1,0,0,0,3.68,1.93A7.09,7.09,0,0,0,386.73,322.19Zm-14.37-27.27a.64.64,0,0,0-.33.08.73.73,0,0,0-.41.6c-.7,8.64,1.62,15.59,7.1,21.24a.75.75,0,0,0,.53.22h.16a.77.77,0,0,0,.54-.48,6,6,0,0,1,3.85-4.09,1.75,1.75,0,0,0,1.09-.83,1.88,1.88,0,0,0,0-1.44,29.37,29.37,0,0,0-5.46-9.46,28.22,28.22,0,0,0-6.65-5.72A.68.68,0,0,0,372.36,294.92Zm-49.07,15.93a.74.74,0,0,0-.09,1.35l2.94,1.55a.73.73,0,0,0,.35.09.69.69,0,0,0,.34-.09.74.74,0,0,0,.39-.56l.36-2.63,3.23-.63a.74.74,0,0,0,.31-1.32l-2.24-1.73a.74.74,0,0,0-.45-.15.5.5,0,0,0-.17,0,.76.76,0,0,0-.5.39l-1.19,2.41a.61.61,0,0,0-.05.12Zm11.22-3.9c-.22,2.24.48,3.77,2.16,4.68a3.84,3.84,0,0,0,4.34-.33,4.11,4.11,0,0,0,1.57-4.24h.85a5.15,5.15,0,0,0,.56,0,4.15,4.15,0,0,0,3.11-1.89,3.94,3.94,0,0,0,.41-3.43,2.27,2.27,0,0,0-1.22-1.22c-.83-.35-1.68-.66-2.5-.95l-.91-.33a.73.73,0,0,0-.25,0h-.08a.74.74,0,0,0-.08-.66l-.22-.33-.26-.39a9.54,9.54,0,0,0-3.48-3.4,2.07,2.07,0,0,0-1-.23,2.15,2.15,0,0,0-1,.23,4,4,0,0,0-1.94,4.47l-.73,0a4.07,4.07,0,0,0-3.93,2.22,3.84,3.84,0,0,0,.34,4.34,3.89,3.89,0,0,0,3.27,1.64A4.89,4.89,0,0,0,334.51,307Zm-11.11-3a2.41,2.41,0,1,0,2.44,2.4,2.42,2.42,0,0,0-2.44-2.4Zm34.3-20.16h-1a.76.76,0,0,0-.65.43.74.74,0,0,0,.09.77l.3.38a6.76,6.76,0,0,1,.5.66l.15.22a2.47,2.47,0,0,1,.4.74,2.28,2.28,0,0,0,2.3,1.76c11.82,1.33,20.5,7.46,25.82,18.22l.48,1a.75.75,0,0,0,.66.4,1,1,0,0,0,.29-.05l3-1.27a.74.74,0,0,0,.4-1A36,36,0,0,0,357.7,283.75Zm-39.23,18.44a4.11,4.11,0,0,0-2.83,1.09,3.82,3.82,0,0,0-1.36,3.2.74.74,0,0,0,.74.68h3.14a.76.76,0,0,0,.71-.5l1.17-3.39,0-.13h.13a.75.75,0,0,0,.43-.13,4.78,4.78,0,0,1,2.77-1,5,5,0,0,1,2.94,1.09.71.71,0,0,0,.44.15.66.66,0,0,0,.27-.06.74.74,0,0,0,.46-.55l.25-1.38a.73.73,0,0,0-.52-.85,6.67,6.67,0,0,1-3.7-2.46,1.52,1.52,0,0,0-1.2-.48,1.79,1.79,0,0,0-.64.11,4.1,4.1,0,0,0-2.28,4.7A5.2,5.2,0,0,0,318.47,302.19Zm-2.12-13.34a23.77,23.77,0,0,0-11.26,3.87.73.73,0,0,0-.25,1,16.39,16.39,0,0,0,6.54,6.82,6,6,0,0,0,2.82,1,3.26,3.26,0,0,0,2.11-.83,2.24,2.24,0,0,1,.32-.17,1.94,1.94,0,0,0,.9-.69,9.16,9.16,0,0,0,.76-1.58l.27-.64a.74.74,0,0,0,0-.65.77.77,0,0,0-.53-.38l-5.79-1,.31-1.84,5.39.88H318a.74.74,0,0,0,.58-.27.74.74,0,0,0,.11-.73l-1.63-4.3a.75.75,0,0,0-.7-.48Zm26.57,4.71c-.19,2.21.53,3.71,2.19,4.6a4.11,4.11,0,0,0,5.88-4.63l.57,0c2.75,0,4.55-1.56,4.6-4a3.85,3.85,0,0,0-1.05-2.83,5.14,5.14,0,0,0-3.76-1.33h-.27a4.35,4.35,0,0,0-1.91-4.46,4.06,4.06,0,0,0-2.17-.67,4.16,4.16,0,0,0-2.3.75,4.34,4.34,0,0,0-1.77,4.36l-.64,0a4.13,4.13,0,0,0-3.87,2,3.9,3.9,0,0,0,.13,4.36,4.07,4.07,0,0,0,3.63,1.84C342.41,293.6,342.66,293.58,342.92,293.56Zm-18.55.33a7,7,0,0,0,0,1,3.85,3.85,0,0,0,3.82,3.62,4.07,4.07,0,0,0,2.14-.63,6.29,6.29,0,0,1,.78-.38,6.9,6.9,0,0,0,.67-.32,1.7,1.7,0,0,0,1-.9,6.47,6.47,0,0,1,3.16-3.8.73.73,0,0,0,.37-.78c0-.22-.09-.42-.13-.63A6.47,6.47,0,0,1,336,290a7.52,7.52,0,0,1,.11-1.7,2.06,2.06,0,0,0-2.16-2.91,6.08,6.08,0,0,0-.61,0h-.77c.18-2.18-.53-3.68-2.18-4.58a4,4,0,0,0-1.92-.51,4.18,4.18,0,0,0-4,5.14l-.61,0c-2.72,0-4.5,1.56-4.56,4a3.79,3.79,0,0,0,1.06,2.83,5.07,5.07,0,0,0,3.75,1.34h.26C324.37,293.67,324.37,293.78,324.37,293.89Zm-13-13.54a15.11,15.11,0,0,0-1.66.09.81.81,0,0,0-.5.29.73.73,0,0,0-.14.55l.83,5.9a.73.73,0,0,0,.73.63h.11l1.24-.18,5.37-.75a1.71,1.71,0,0,0,1-.49c.5-.53,1-1.08,1.47-1.62l.55-.62a.73.73,0,0,0-.11-1.09A15.55,15.55,0,0,0,311.33,280.35Zm5.38,42.08a5,5,0,0,1-2.91-1.06.41.41,0,0,1-.38-.38,4.45,4.45,0,0,1,0-5.74.7.7,0,0,0,.14-.36.72.72,0,0,0,.27-.09,6,6,0,0,1,2.84-1,6.24,6.24,0,0,1,3,1.07l.16.06a.85.85,0,0,0,.14.34,4.42,4.42,0,0,1,0,5.75.43.43,0,0,1-.48.43A4.64,4.64,0,0,1,316.71,322.43Zm-.09-6.73a2.42,2.42,0,1,0,1.81,4.08,2.37,2.37,0,0,0,.67-1.72,2.44,2.44,0,0,0-2.42-2.36Zm74.17,6.73a5,5,0,0,1-2.88-1,.7.7,0,0,0-.23-.11.85.85,0,0,0-.13-.31,4.4,4.4,0,0,1,0-5.73.85.85,0,0,0,.11-.26.9.9,0,0,0,.28-.13,4.43,4.43,0,0,1,5.73,0,1,1,0,0,0,.27.11.74.74,0,0,0,.12.29,4.43,4.43,0,0,1,0,5.73.8.8,0,0,0-.11.25.68.68,0,0,0-.27.13A4.91,4.91,0,0,1,390.79,322.43Zm0-6.73a2.42,2.42,0,1,0,1.74,4.11,2.37,2.37,0,0,0,.7-1.71,2.43,2.43,0,0,0-2.42-2.4Zm-52.17-8.43a5,5,0,0,1-2.9-1.06.71.71,0,0,0-.31-.13.79.79,0,0,0-.13-.35,4.41,4.41,0,0,1,.08-5.66.71.71,0,0,0,.13-.35.58.58,0,0,0,.22-.08,6.12,6.12,0,0,1,2.81-1,8,8,0,0,1,3,1,.7.7,0,0,0,.31.07h.08a.75.75,0,0,0,.09.68c1.24,1.73,1.17,3.54-.2,5.54a.77.77,0,0,0-.12.24.73.73,0,0,0-.34.14A4.69,4.69,0,0,1,338.6,307.27Zm0-6.73a2.43,2.43,0,0,0-2.42,2.39,2.44,2.44,0,0,0,2.39,2.45h0a2.42,2.42,0,0,0,.07-4.84Zm8.44-6.75a5,5,0,0,1-2.9-1.06.66.66,0,0,0-.27-.12.8.8,0,0,0-.11-.25,4.48,4.48,0,0,1,0-5.77,1,1,0,0,0,.12-.25.58.58,0,0,0,.25-.12,4.48,4.48,0,0,1,5.75,0,1.28,1.28,0,0,0,.24.11.8.8,0,0,0,.12.27,4.46,4.46,0,0,1,0,5.74.8.8,0,0,0-.13.32.72.72,0,0,0-.38.13A4.67,4.67,0,0,1,347,293.79Zm0-6.73a2.42,2.42,0,0,0,0,4.84h0a2.41,2.41,0,0,0,1.78-4.09,2.47,2.47,0,0,0-1.7-.75Zm-18.23,6.7a7.22,7.22,0,0,1-3.3-1l-.1-.05a.81.81,0,0,0-.14-.33,4.46,4.46,0,0,1,0-5.74.75.75,0,0,0,.13-.32.73.73,0,0,0,.37-.14,4.76,4.76,0,0,1,2.76-1,5,5,0,0,1,2.9,1.07.79.79,0,0,0,.35.13,1,1,0,0,0,0,.1c1.41,2.79,1.32,4.55-.29,6.11A3.71,3.71,0,0,1,328.77,293.76Zm-.3-6.7a2.42,2.42,0,0,0-.07,4.84h0a2.42,2.42,0,1,0,.15-4.83Z"/><path class="cls-5" d="M350,642.19a3.89,3.89,0,0,0,3.21,1.92h0a3.82,3.82,0,0,0,3.16-1.88c1.25-1.88,2.5-3.86,3.82-6a3.83,3.83,0,0,0,.48-3.29,3.72,3.72,0,0,0-2.34-2.22,25.83,25.83,0,0,0-3.38-.94c-.52-.12-1-.24-1.56-.38l-.09,0-.09,0-1.55.37a32.91,32.91,0,0,0-3.5.95,3.74,3.74,0,0,0-2.4,2.23,3.86,3.86,0,0,0,.47,3.34C347.55,638.31,348.81,640.31,350,642.19Zm6.41-7.8-3.2,5.06-3.2-5A8.83,8.83,0,0,1,356.45,634.39Zm24.77,18A10.93,10.93,0,0,1,383,649a2.38,2.38,0,0,1,2.17-.62,2.54,2.54,0,0,1,1.17,1,6.37,6.37,0,0,0,.5.57l.19.2-.14.25c-.24.41-.47.82-.69,1.22a23.46,23.46,0,0,1-1.76,2.84,1.61,1.61,0,0,1-1.22.41,2,2,0,0,1-1.13-.29A2.49,2.49,0,0,1,381.22,652.35Zm-9.93-2.48h.1l1.55-.4c1.39-.36,3-.77,4.53-1.24a3.41,3.41,0,0,0,2.19-1.81,3.56,3.56,0,0,0-.11-3,10.74,10.74,0,0,0-6.52-5.87,3.37,3.37,0,0,0-2.79.19,3.15,3.15,0,0,0-1.54,2.11c-.51,2.2-.9,4.38-1.17,6.47a2.87,2.87,0,0,0,.69,2.31A4,4,0,0,0,371.29,649.87Zm1.24-8a6.33,6.33,0,0,1,2.87,2.63l-3.51.92Zm40,86.52a7.78,7.78,0,0,0-4.62-4.65,7.06,7.06,0,0,0-5.85.64l-1.22.73-.5.3-9-14.65c.26-.45.54-.88.8-1.31a17.45,17.45,0,0,0,1.69-3.1,24.87,24.87,0,0,0-.65-20.08,114.62,114.62,0,0,0-9.14-16.17q-.61-.92-1.26-1.8c-.87-1.18-2-1.46-3.08-.72a2.1,2.1,0,0,0-.37,3.05c.17.26.36.53.54.79l.31.45a111.66,111.66,0,0,1,9.2,16.1,18.12,18.12,0,0,1-10.82,1.86l-1.51-.22c-.71-.11-1.42-.22-2.14-.29a2.32,2.32,0,0,0-1.72.47,2.07,2.07,0,0,0,1.23,3.66l.86.11c.47.06.94.12,1.41.2a22.54,22.54,0,0,0,13.7-1.62,4.09,4.09,0,0,1,.42-.16,20.93,20.93,0,0,1-1,13.36,6,6,0,0,1-6.13,3.79,21.4,21.4,0,0,1-7.71-2c-5.17-2.35-8.32-6.88-11.37-11.26l-.2-.28,1-.4,1.6-.64a2.1,2.1,0,1,0-1.51-3.89c-.85.31-1.69.63-2.54,1l-1,.37a113.78,113.78,0,0,1-10.73-21.49L370,658.92l1.42,1.66,3.25,3.79c1.42,1.65,2.62,1.06,3.2.56,1-.82,1-2.1,0-3.26-1.4-1.66-2.89-3.42-4.44-5.15-2-2.26-3.49-2.47-6.1-.86l-17.9,11.07c-2.32,1.44-2.85,3-1.86,5.6a121.8,121.8,0,0,0,16.26,29.53c3.78,5.07,8,8.36,13,10,3.21,1.09,6.68,2,10.24,1,.65-.17.8-.06,1.11.46,1.95,3.21,3.92,6.4,5.88,9.59l2.49,4.06c.12.18.22.38.34.59l0,0-1,.64a7.18,7.18,0,0,0-2.23,11.06,3.32,3.32,0,0,0,2.68,1.5,3.16,3.16,0,0,0,1.65-.47c4.32-2.63,8.83-5.42,13.41-8.29a3.06,3.06,0,0,0,1.48-2.59A3,3,0,0,0,412.57,728.37ZM396.09,734a2.47,2.47,0,0,1,1.14-1.7c2.36-1.56,4.78-3.06,7.19-4.44a2.71,2.71,0,0,1,1.34-.38,3,3,0,0,1,2.43,1.58l-11.53,7.12A3.05,3.05,0,0,1,396.09,734Zm-9.41-75.77a20.6,20.6,0,0,1,2.81,1.76,2.17,2.17,0,0,1,.15,2.33,2.59,2.59,0,0,1-1.85.92,1.34,1.34,0,0,1-.35,0,10.84,10.84,0,0,1-3.34-1.72,2.35,2.35,0,0,1-.65-2.18,2.63,2.63,0,0,1,1-1.21l.55-.47.2-.2.24.14Zm-58-10.31c1.63.58,3.31,1,4.8,1.42l1.67.46h.33a4,4,0,0,0,3-1.21,3,3,0,0,0,.77-2.06,3.23,3.23,0,0,0,0-.53c-.33-2.07-.69-4.1-1.09-6a3.49,3.49,0,0,0-1.61-2.3,3.19,3.19,0,0,0-2.6-.26,10.56,10.56,0,0,0-6.86,6.28,3.42,3.42,0,0,0,0,2.7A2.74,2.74,0,0,0,328.66,648Zm5.56-6.09.64,3.53-3.5-.91A6.15,6.15,0,0,1,334.22,641.86ZM320.89,652.2c-.5-.81-1.12-1.81-.35-3.06a2,2,0,0,1,1.69-1,1.85,1.85,0,0,1,1.65.88,17.29,17.29,0,0,1,1.69,3.32,1.69,1.69,0,0,1-.19,1.6,2.61,2.61,0,0,1-2.19,1h0c-1,0-1.54-1.25-1.81-1.92A6.4,6.4,0,0,0,320.89,652.2Zm-3.77,10.18c-.36-.49-.46-1.85.05-2.25a28.85,28.85,0,0,1,2.9-1.87l1.2-.7.24-.15.21.2a5.4,5.4,0,0,0,.59.5,2.67,2.67,0,0,1,1,1.18,2.39,2.39,0,0,1-.63,2.19,12.08,12.08,0,0,1-3.44,1.77,1.15,1.15,0,0,1-.33,0A2.49,2.49,0,0,1,317.12,662.38Zm33.33,24a2,2,0,0,0-2.79.78c-.71,1.13-1.4,2.28-2.09,3.43l-.8,1.33a1.23,1.23,0,0,1-.23-.08,26.69,26.69,0,0,0-16.8-2.08,15.68,15.68,0,0,1-10.4-1.87,114.85,114.85,0,0,1,19.49-29l2.39,1.48,6.22,3.84a2.15,2.15,0,0,0,3.13-.46,2,2,0,0,0,.3-1.53,2.47,2.47,0,0,0-1.18-1.52c-3.29-2.06-6.07-3.78-8.92-5.5a3.63,3.63,0,0,0-4.84.69c-9.36,10.14-16.17,20.43-20.82,31.45-3.49,8.28-2.72,16.12,2.3,23.33l-1.82,2.95-7.23,11.74-.33-.21c-.47-.29-.9-.56-1.34-.81a7,7,0,0,0-5.95-.62,8.24,8.24,0,0,0-4.53,4.39l0,.08v1.85l.09.11c.14.15.26.32.39.49a4.26,4.26,0,0,0,1,1.08c4.29,2.7,8.8,5.49,13.4,8.29a3.07,3.07,0,0,0,1.61.45,3.2,3.2,0,0,0,2.41-1.13,7.23,7.23,0,0,0,1.71-5.61,7.15,7.15,0,0,0-3-5c-.48-.33-1-.64-1.48-1l-.39-.25.87-1.4c2.74-4.46,5.45-8.86,8.18-13.24a.72.72,0,0,1,.4-.14c3.8,1.13,7.33.18,10.91-1a2.49,2.49,0,0,0,1.51-1.2,2,2,0,0,0,.06-1.56c-.42-1.15-1.49-1.59-2.92-1.19l-.71.2a36.38,36.38,0,0,1-3.6.89c-4.18.75-6.89-.86-8.08-4.8a31.77,31.77,0,0,1-1.21-7,18.9,18.9,0,0,1,.28-3.84c.06-.46.13-.92.18-1.4l.24.1a22.68,22.68,0,0,0,14.25,1.72,20.18,20.18,0,0,1,4.27-.26,19.86,19.86,0,0,1,7.82,2.13c-.47.63-.92,1.26-1.38,1.89a36,36,0,0,1-5.73,6.74c-1.18,1-1.42,2.23-.62,3.2a1.93,1.93,0,0,0,1.41.77,2.63,2.63,0,0,0,1.93-.84l.66-.62a21.15,21.15,0,0,0,3-3.17c2.32-3.28,4.59-6.66,6.79-9.92.83-1.23,1.65-2.46,2.48-3.68a4.78,4.78,0,0,0,.38-.65,2.54,2.54,0,0,0,.27-1.1A2,2,0,0,0,350.45,686.43ZM310.3,735.9l-11.51-7.1a2.55,2.55,0,0,1,3.56-.9c2.29,1.31,4.68,2.79,7.12,4.39A2.61,2.61,0,0,1,310.3,735.9Z"/></g></svg>