<svg xmlns="http://www.w3.org/2000/svg" viewBox="0 0 485.14 801.22"><defs><style>.cls-1{fill:none;}.cls-1,.cls-3{stroke:#582957;stroke-miterlimit:10;stroke-width:5px;}.cls-2{fill:#582957;}.cls-3{fill:#fff;}.cls-4{fill:#333533;}.cls-5{fill:#d7a68d;}</style></defs><g id="Layer_2" data-name="Layer 2"><line class="cls-1" x1="242.24" y1="173.07" x2="242.24" y2="685.71"/><polygon class="cls-2" points="215.49 172.35 217.49 172.18 217.49 172.53 215.49 172.35"/><path class="cls-2" d="M221.24,171.92c1.25-.09,2.5-.13,3.75-.2V173c-1.25-.07-2.5-.11-3.75-.2Z"/><path class="cls-2" d="M228.74,171.57c1.25,0,2.5-.08,3.75-.1v1.77c-1.25,0-2.5-.06-3.75-.11Z"/><polygon class="cls-2" points="236.24 171.39 239.99 171.37 239.99 173.34 236.24 173.31 236.24 171.39"/><polygon class="cls-2" points="243.75 171.37 247.5 171.39 247.5 173.31 243.75 173.34 243.75 171.37"/><path class="cls-2" d="M251.25,171.47c1.25,0,2.5.05,3.75.1v1.57c-1.25.05-2.5.08-3.75.1Z"/><path class="cls-2" d="M258.75,171.72c1.25.06,2.5.11,3.75.2v.87c-1.25.09-2.5.13-3.75.2Z"/><polygon class="cls-2" points="266.25 172.18 268.25 172.35 266.25 172.53 266.25 172.18"/><circle class="cls-3" cx="241.87" cy="172.35" r="9.64"/><polygon class="cls-2" points="215.49 685.08 217.49 684.9 217.49 685.25 215.49 685.08"/><path class="cls-2" d="M221.24,684.64c1.25-.08,2.5-.13,3.75-.2v1.27c-1.25-.07-2.5-.11-3.75-.2Z"/><path class="cls-2" d="M228.74,684.3c1.25,0,2.5-.09,3.75-.11V686c-1.25,0-2.5-.05-3.75-.1Z"/><polygon class="cls-2" points="236.24 684.12 239.99 684.09 239.99 686.06 236.24 686.04 236.24 684.12"/><polygon class="cls-2" points="243.75 684.09 247.5 684.12 247.5 686.04 243.75 686.06 243.75 684.09"/><path class="cls-2" d="M251.25,684.19c1.25,0,2.5,0,3.75.1v1.57c-1.25,0-2.5.08-3.75.1Z"/><path class="cls-2" d="M258.75,684.44c1.25.07,2.5.11,3.75.2v.87c-1.25.09-2.5.14-3.75.2Z"/><polygon class="cls-2" points="266.25 684.9 268.25 685.08 266.25 685.26 266.25 684.9"/><circle class="cls-3" cx="241.87" cy="685.08" r="9.64"/><polygon class="cls-2" points="215.49 343.26 217.49 343.08 217.49 343.44 215.49 343.26"/><path class="cls-2" d="M221.24,342.83c1.25-.09,2.5-.14,3.75-.2v1.26c-1.25-.06-2.5-.11-3.75-.19Z"/><path class="cls-2" d="M228.74,342.48c1.25-.05,2.5-.08,3.75-.1v1.77c-1.25,0-2.5-.06-3.75-.11Z"/><polygon class="cls-2" points="236.24 342.3 239.99 342.28 239.99 344.25 236.24 344.22 236.24 342.3"/><polygon class="cls-2" points="243.75 342.27 247.5 342.3 247.5 344.22 243.75 344.25 243.75 342.27"/><path class="cls-2" d="M251.25,342.37c1.25,0,2.5.06,3.75.11V344c-1.25,0-2.5.09-3.75.11Z"/><path class="cls-2" d="M258.75,342.63c1.25.06,2.5.11,3.75.19v.88c-1.25.09-2.5.13-3.75.2Z"/><polygon class="cls-2" points="266.25 343.08 268.25 343.26 266.25 343.44 266.25 343.08"/><circle class="cls-3" cx="241.87" cy="343.26" r="9.64"/><polygon class="cls-2" points="215.49 514.17 217.49 513.99 217.49 514.35 215.49 514.17"/><path class="cls-2" d="M221.24,513.73c1.25-.08,2.5-.13,3.75-.19v1.26c-1.25-.06-2.5-.11-3.75-.19Z"/><path class="cls-2" d="M228.74,513.39c1.25,0,2.5-.08,3.75-.11v1.77c-1.25,0-2.5,0-3.75-.1Z"/><polygon class="cls-2" points="236.24 513.21 239.99 513.18 239.99 515.15 236.24 515.13 236.24 513.21"/><polygon class="cls-2" points="243.75 513.18 247.5 513.21 247.5 515.13 243.75 515.16 243.75 513.18"/><path class="cls-2" d="M251.25,513.28c1.25,0,2.5.06,3.75.11V515c-1.25,0-2.5.08-3.75.11Z"/><path class="cls-2" d="M258.75,513.53c1.25.07,2.5.11,3.75.2v.88c-1.25.08-2.5.13-3.75.2Z"/><polygon class="cls-2" points="266.25 513.99 268.25 514.17 266.25 514.35 266.25 513.99"/><circle class="cls-3" cx="241.87" cy="514.17" r="9.64"/><path class="cls-4" d="M312.18,155.83a9.14,9.14,0,0,1,2.17-5.91,7.75,7.75,0,0,1,6.11-2.76,7.25,7.25,0,0,1,4,1.07,6.67,6.67,0,0,1,2.47,2.73l-1.74,1.12a4.79,4.79,0,0,0-3-2.67,6.75,6.75,0,0,0-1.8-.26,5.4,5.4,0,0,0-2.56.58,5.69,5.69,0,0,0-1.87,1.57,6.73,6.73,0,0,0-1.14,2.19,7.91,7.91,0,0,0-.38,2.44,7.55,7.55,0,0,0,.45,2.59,7.18,7.18,0,0,0,1.26,2.21,6.2,6.2,0,0,0,1.91,1.51,5.18,5.18,0,0,0,2.4.57,5.92,5.92,0,0,0,1.86-.32,5.65,5.65,0,0,0,1.79-1,4.88,4.88,0,0,0,1.32-1.75l1.84,1a5.45,5.45,0,0,1-1.67,2.2,8.2,8.2,0,0,1-2.51,1.38,8.79,8.79,0,0,1-2.73.46,7.11,7.11,0,0,1-3.28-.77,8.57,8.57,0,0,1-2.58-2.06,9.51,9.51,0,0,1-1.69-2.89A9.19,9.19,0,0,1,312.18,155.83Z"/><path class="cls-4" d="M340.75,164.67H338.6v-7.09a5,5,0,0,0-.7-2.91,2.31,2.31,0,0,0-2-1,3.51,3.51,0,0,0-1.67.44,4.79,4.79,0,0,0-1.48,1.17,4.64,4.64,0,0,0-.94,1.7v7.66h-2.15V146.8h2.15v7.91a5.7,5.7,0,0,1,2.07-2.15,5.38,5.38,0,0,1,2.83-.79,4.08,4.08,0,0,1,1.92.4,3.07,3.07,0,0,1,1.24,1.13,5.14,5.14,0,0,1,.67,1.68,9.93,9.93,0,0,1,.21,2.11Z"/><path class="cls-4" d="M344,159.58V152h2.16v7.2a5.14,5.14,0,0,0,.68,2.92,2.33,2.33,0,0,0,2,1,4.08,4.08,0,0,0,1.71-.37,4.84,4.84,0,0,0,2.5-2.76v-8h2.16v10.26a.87.87,0,0,0,.16.58.7.7,0,0,0,.53.2v1.67l-.58.06h-.4a1.55,1.55,0,0,1-1.06-.38,1.24,1.24,0,0,1-.46-.93l-.05-1.49a5.89,5.89,0,0,1-2.24,2.19,6.23,6.23,0,0,1-3.07.78,3.59,3.59,0,0,1-3-1.35A6.54,6.54,0,0,1,344,159.58Z"/><path class="cls-4" d="M365.58,153.77a5.38,5.38,0,0,0-2.86.82,4.36,4.36,0,0,0-1.75,2.19v7.89h-2.15V152h2v2.89a5.87,5.87,0,0,1,1.75-2.14,4.36,4.36,0,0,1,2.29-.92h.41l.3,0Z"/><path class="cls-4" d="M373.07,164.91a6.4,6.4,0,0,1-2.63-.52,6.15,6.15,0,0,1-2.06-1.45,6.94,6.94,0,0,1-1-7.92,6.18,6.18,0,0,1,2.28-2.37,6.45,6.45,0,0,1,3.4-.88,6.33,6.33,0,0,1,3.3.84,5.35,5.35,0,0,1,2.09,2.26l-2.11.67a3.39,3.39,0,0,0-1.37-1.41,3.81,3.81,0,0,0-2-.5,4,4,0,0,0-2.14.6,4.45,4.45,0,0,0-1.53,1.66,5.42,5.42,0,0,0,0,4.82,4.58,4.58,0,0,0,1.55,1.71,3.83,3.83,0,0,0,2.14.63,4.06,4.06,0,0,0,1.46-.27,4.23,4.23,0,0,0,1.22-.72,2.38,2.38,0,0,0,.72-1l2.11.64a4.64,4.64,0,0,1-1.19,1.65,6,6,0,0,1-1.89,1.14A6.76,6.76,0,0,1,373.07,164.91Z"/><path class="cls-4" d="M392.07,164.67h-2.16v-7.09a5,5,0,0,0-.7-2.91,2.29,2.29,0,0,0-2-1,3.51,3.51,0,0,0-1.68.44,4.91,4.91,0,0,0-1.48,1.17,4.62,4.62,0,0,0-.93,1.7v7.66H381V146.8h2.16v7.91a5.56,5.56,0,0,1,2.07-2.15,5.33,5.33,0,0,1,2.83-.79,4.13,4.13,0,0,1,1.92.4,3.11,3.11,0,0,1,1.23,1.13,5.16,5.16,0,0,1,.68,1.68,9.93,9.93,0,0,1,.21,2.11Z"/><path class="cls-4" d="M300.51,194.39v1.12H292.7v-1.12h3.48V183.08a3.68,3.68,0,0,1-.69.63,8.62,8.62,0,0,1-1.05.66,6.31,6.31,0,0,1-1.2.52,3.68,3.68,0,0,1-1.1.19v-1.22a2.93,2.93,0,0,0,1.28-.33,9.28,9.28,0,0,0,1.29-.76,9.91,9.91,0,0,0,1-.8,5.47,5.47,0,0,0,.46-.44h1.22v12.86Z"/><path class="cls-4" d="M302.12,195.51a9.76,9.76,0,0,1,.14-1.53,6.81,6.81,0,0,1,.54-1.74,6,6,0,0,1,1.24-1.73,7.5,7.5,0,0,1,2.2-1.49c.47-.23,1-.46,1.48-.69a10.83,10.83,0,0,0,1.46-.8,3.81,3.81,0,0,0,1.1-1.05,2.55,2.55,0,0,0,.41-1.45,2.51,2.51,0,0,0-.38-1.32,2.86,2.86,0,0,0-1.16-1.06,4.22,4.22,0,0,0-2-.41,4.45,4.45,0,0,0-1.5.25,5.2,5.2,0,0,0-1.18.59,6.16,6.16,0,0,0-.84.67,4.13,4.13,0,0,0-.49.53l-.83-.84.47-.46a7.75,7.75,0,0,1,1-.8,7.26,7.26,0,0,1,1.53-.74,5.64,5.64,0,0,1,2-.32,5.41,5.41,0,0,1,2.53.54,4.16,4.16,0,0,1,1.57,1.41,3.4,3.4,0,0,1,.56,1.86,3.32,3.32,0,0,1-.47,1.79,4.89,4.89,0,0,1-1.16,1.28,8.65,8.65,0,0,1-1.47.9c-.51.25-1,.47-1.41.65a8.41,8.41,0,0,0-2,1.19,6.66,6.66,0,0,0-1.22,1.31,5.12,5.12,0,0,0-.66,1.26,5.84,5.84,0,0,0-.29,1.08h8.92v1.12Z"/><path class="cls-4" d="M315.1,184.89v-2.08h1v2.08Zm0,10.62v-2.08h1v2.08Z"/><path class="cls-4" d="M327.27,194.39v1.12h-7.81v-1.12h3.47V183.08a3.29,3.29,0,0,1-.68.63,8.62,8.62,0,0,1-1.05.66,6.92,6.92,0,0,1-1.2.52,3.69,3.69,0,0,1-1.11.19v-1.22a2.94,2.94,0,0,0,1.29-.33,8.63,8.63,0,0,0,1.28-.76,10.15,10.15,0,0,0,1-.8,3.6,3.6,0,0,0,.45-.44h1.23v12.86Z"/><path class="cls-4" d="M334.22,199.16a6.08,6.08,0,0,1-3.34-.94,5.92,5.92,0,0,1-2.22-2.49l.91-.51a5.13,5.13,0,0,0,1.91,2,5.07,5.07,0,0,0,2.74.77,5,5,0,0,0,2.38-.57,4.26,4.26,0,0,0,1.67-1.62,4.5,4.5,0,0,0,.63-2.38,4.28,4.28,0,0,0-2.24-3.86,4.7,4.7,0,0,0-2.29-.55,5.16,5.16,0,0,0-2.34.55,4.7,4.7,0,0,0-1.82,1.58H329l1.93-9.65h8.33v1.15H331.9l-1.38,6.88a5.16,5.16,0,0,1,1.78-1.21,6,6,0,0,1,5,.28,5.56,5.56,0,0,1,2.05,2,5.43,5.43,0,0,1,.76,2.88,5.5,5.5,0,0,1-3,5A6.25,6.25,0,0,1,334.22,199.16Z"/><path class="cls-4" d="M349,189.42v-1.13h7v1.13Z"/><path class="cls-4" d="M373.44,194.39v1.12h-7.81v-1.12h3.48V183.08a3.68,3.68,0,0,1-.69.63,8.62,8.62,0,0,1-1.05.66,6.31,6.31,0,0,1-1.2.52,3.68,3.68,0,0,1-1.1.19v-1.22a2.9,2.9,0,0,0,1.28-.33,9.28,9.28,0,0,0,1.29-.76,9.91,9.91,0,0,0,1-.8,5.47,5.47,0,0,0,.46-.44h1.22v12.86Z"/><path class="cls-4" d="M375.06,195.51a9.67,9.67,0,0,1,.13-1.53,6.81,6.81,0,0,1,.54-1.74,6,6,0,0,1,1.24-1.73,7.5,7.5,0,0,1,2.2-1.49c.47-.23,1-.46,1.48-.69a10.83,10.83,0,0,0,1.46-.8,3.81,3.81,0,0,0,1.1-1.05,2.47,2.47,0,0,0,.41-1.45,2.59,2.59,0,0,0-.37-1.32,3,3,0,0,0-1.17-1.06,4.22,4.22,0,0,0-2-.41,4.45,4.45,0,0,0-1.5.25,5.2,5.2,0,0,0-1.18.59,6.16,6.16,0,0,0-.84.67,4.13,4.13,0,0,0-.49.53l-.83-.84.47-.46a7.75,7.75,0,0,1,1-.8,7.26,7.26,0,0,1,1.53-.74,5.64,5.64,0,0,1,2-.32,5.41,5.41,0,0,1,2.53.54,4.27,4.27,0,0,1,1.58,1.41,3.48,3.48,0,0,1,.55,1.86,3.32,3.32,0,0,1-.47,1.79,4.89,4.89,0,0,1-1.16,1.28,8.65,8.65,0,0,1-1.47.9c-.51.25-1,.47-1.41.65a8.63,8.63,0,0,0-2,1.19,6.66,6.66,0,0,0-1.22,1.31,5.12,5.12,0,0,0-.66,1.26,5.84,5.84,0,0,0-.29,1.08h8.92v1.12Z"/><path class="cls-4" d="M388,184.89v-2.08h1.05v2.08Zm0,10.62v-2.08h1.05v2.08Z"/><path class="cls-4" d="M397.16,199.16a6.08,6.08,0,0,1-3.34-.94,5.83,5.83,0,0,1-2.21-2.49l.9-.51a5.13,5.13,0,0,0,1.91,2,5.07,5.07,0,0,0,2.74.77,5,5,0,0,0,2.38-.57,4.26,4.26,0,0,0,1.67-1.62,4.5,4.5,0,0,0,.63-2.38,4.36,4.36,0,0,0-.61-2.3,4.28,4.28,0,0,0-1.63-1.56,4.7,4.7,0,0,0-2.29-.55,5.16,5.16,0,0,0-2.34.55,4.7,4.7,0,0,0-1.82,1.58H392l1.94-9.65h8.32v1.15h-7.39l-1.37,6.88a5.12,5.12,0,0,1,1.77-1.21,6,6,0,0,1,5,.28,5.56,5.56,0,0,1,2.05,2,5.43,5.43,0,0,1,.76,2.88,5.5,5.5,0,0,1-3,5A6.25,6.25,0,0,1,397.16,199.16Z"/><path class="cls-4" d="M417.56,188.45a8.73,8.73,0,0,1-.79,3.77,6.31,6.31,0,0,1-2.16,2.6,5.54,5.54,0,0,1-3.15.94,5.46,5.46,0,0,1-3.12-.94,6.33,6.33,0,0,1-2.17-2.6,9.53,9.53,0,0,1,0-7.55,6.46,6.46,0,0,1,2.17-2.6,5.4,5.4,0,0,1,3.12-.95,5.47,5.47,0,0,1,3.15.95,6.44,6.44,0,0,1,2.16,2.6A8.78,8.78,0,0,1,417.56,188.45Zm-1.25,0a8.08,8.08,0,0,0-.61-3.22,5.16,5.16,0,0,0-1.71-2.18,4.48,4.48,0,0,0-5.05,0,5.1,5.1,0,0,0-1.72,2.18,8.08,8.08,0,0,0-.61,3.22,8,8,0,0,0,.61,3.21,5.19,5.19,0,0,0,1.72,2.17,4.48,4.48,0,0,0,5.05,0,5.25,5.25,0,0,0,1.71-2.17A8,8,0,0,0,416.31,188.45Z"/><path class="cls-4" d="M96.29,353.21v1.13H88.48v-1.13H92V341.9a3,3,0,0,1-.68.64,8.62,8.62,0,0,1-1,.66,7.71,7.71,0,0,1-1.2.51,3.73,3.73,0,0,1-1.11.2v-1.23a2.94,2.94,0,0,0,1.29-.33,8.63,8.63,0,0,0,1.28-.76,10.2,10.2,0,0,0,1-.79,4.6,4.6,0,0,0,.45-.44h1.23v12.85Z"/><path class="cls-4" d="M104.88,348.39a4,4,0,0,1,2,.78,4.38,4.38,0,0,1,1.27,1.61,5.17,5.17,0,0,1,.45,2.19,4.77,4.77,0,0,1-.7,2.6,4.65,4.65,0,0,1-1.93,1.74,6.17,6.17,0,0,1-2.85.63,6.49,6.49,0,0,1-3.23-.79,4.76,4.76,0,0,1-2-2.15l.91-.74a3.77,3.77,0,0,0,1.6,1.85,5.19,5.19,0,0,0,2.78.7,4.35,4.35,0,0,0,3-1,3.63,3.63,0,0,0,1.14-2.85,3.77,3.77,0,0,0-1.16-2.9,4.69,4.69,0,0,0-3.3-1.08h-.58v-1.08h.63a4.46,4.46,0,0,0,3-.92,3.06,3.06,0,0,0,1-2.42,3.3,3.3,0,0,0-.5-1.85,3.38,3.38,0,0,0-1.37-1.19,4.56,4.56,0,0,0-2-.42,4.87,4.87,0,0,0-2.56.67,4,4,0,0,0-1.62,1.82l-.84-.68a4.39,4.39,0,0,1,1.14-1.54,5.3,5.3,0,0,1,1.78-1,6.35,6.35,0,0,1,2.2-.37,5.76,5.76,0,0,1,2.61.57,4.41,4.41,0,0,1,1.78,1.58,4.14,4.14,0,0,1,.65,2.32,4.24,4.24,0,0,1-.4,1.85,3.74,3.74,0,0,1-1.16,1.42A4,4,0,0,1,104.88,348.39Z"/><path class="cls-4" d="M111.39,343.71v-2.08h1.06v2.08Zm0,10.63v-2.08h1.06v2.08Z"/><path class="cls-4" d="M127.65,347.27a8.6,8.6,0,0,1-.79,3.78,6.34,6.34,0,0,1-2.16,2.59,5.7,5.7,0,0,1-6.27,0,6.44,6.44,0,0,1-2.17-2.59,9.53,9.53,0,0,1,0-7.55,6.57,6.57,0,0,1,2.17-2.61,5.65,5.65,0,0,1,6.27,0,6.47,6.47,0,0,1,2.16,2.61A8.59,8.59,0,0,1,127.65,347.27Zm-1.25,0a7.91,7.91,0,0,0-.61-3.22,5.22,5.22,0,0,0-1.7-2.18,4.49,4.49,0,0,0-5.06,0,5.08,5.08,0,0,0-1.71,2.18,7.9,7.9,0,0,0-.62,3.22,7.82,7.82,0,0,0,.62,3.21,5.05,5.05,0,0,0,1.71,2.17,4.49,4.49,0,0,0,5.06,0,5.18,5.18,0,0,0,1.7-2.17A7.82,7.82,0,0,0,126.4,347.27Z"/><path class="cls-4" d="M142.61,347.27a8.75,8.75,0,0,1-.79,3.78,6.34,6.34,0,0,1-2.16,2.59,5.46,5.46,0,0,1-3.15.94,5.39,5.39,0,0,1-3.12-.94,6.37,6.37,0,0,1-2.17-2.59,9.53,9.53,0,0,1,0-7.55,6.49,6.49,0,0,1,2.17-2.61,5.4,5.4,0,0,1,3.12-.95,5.47,5.47,0,0,1,3.15.95,6.47,6.47,0,0,1,2.16,2.61A8.73,8.73,0,0,1,142.61,347.27Zm-1.25,0a8.08,8.08,0,0,0-.61-3.22,5.16,5.16,0,0,0-1.71-2.18,4.48,4.48,0,0,0-5,0,5.1,5.1,0,0,0-1.72,2.18,8.08,8.08,0,0,0-.61,3.22,8,8,0,0,0,.61,3.21,5.07,5.07,0,0,0,1.72,2.17,4.48,4.48,0,0,0,5,0,5.13,5.13,0,0,0,1.71-2.17A8,8,0,0,0,141.36,347.27Z"/><path class="cls-4" d="M57.06,312.11a9.08,9.08,0,0,1,.55-3.12,8.87,8.87,0,0,1,1.61-2.79,7.87,7.87,0,0,1,2.61-2,8,8,0,0,1,3.5-.74,7.25,7.25,0,0,1,4,1.06,6.67,6.67,0,0,1,2.47,2.73l-1.73,1.13a4.88,4.88,0,0,0-1.31-1.75A5,5,0,0,0,67,305.7a6.34,6.34,0,0,0-1.8-.27,5.46,5.46,0,0,0-2.56.59,5.76,5.76,0,0,0-1.87,1.56,7.09,7.09,0,0,0-1.14,2.2,8.16,8.16,0,0,0-.38,2.43,7.42,7.42,0,0,0,.46,2.6A7.13,7.13,0,0,0,61,317a6.12,6.12,0,0,0,1.91,1.52,5.24,5.24,0,0,0,2.4.56,5.69,5.69,0,0,0,1.86-.32,5.61,5.61,0,0,0,1.78-1A4.71,4.71,0,0,0,70.28,316l1.83,1a5.57,5.57,0,0,1-1.66,2.2,8.18,8.18,0,0,1-2.51,1.37,8.5,8.5,0,0,1-2.73.46,7,7,0,0,1-3.28-.77,8.46,8.46,0,0,1-2.59-2.05,9.6,9.6,0,0,1-1.68-2.89A9,9,0,0,1,57.06,312.11Z"/><path class="cls-4" d="M80.19,321.2a6.44,6.44,0,0,1-2.63-.53,6.2,6.2,0,0,1-2.06-1.43,6.44,6.44,0,0,1-1.34-2.1,6.74,6.74,0,0,1-.48-2.53,6.63,6.63,0,0,1,.83-3.28A6.51,6.51,0,0,1,76.82,309a6.41,6.41,0,0,1,3.39-.9,6.11,6.11,0,0,1,3.37.91,6.36,6.36,0,0,1,2.23,2.38,6.6,6.6,0,0,1,.79,3.18c0,.16,0,.32,0,.47s0,.27,0,.36H76a4.71,4.71,0,0,0,.69,2.19,4.48,4.48,0,0,0,1.56,1.5,4.08,4.08,0,0,0,2.05.54,4.34,4.34,0,0,0,2.22-.59,3.12,3.12,0,0,0,1.43-1.54l1.86.51a4.83,4.83,0,0,1-1.23,1.67,6.16,6.16,0,0,1-1.94,1.15A6.74,6.74,0,0,1,80.19,321.2Zm-4.31-7.35H84.6a4.77,4.77,0,0,0-.71-2.18,4.33,4.33,0,0,0-1.57-1.47,4.21,4.21,0,0,0-2.11-.53,4.15,4.15,0,0,0-2.08.53,4.28,4.28,0,0,0-1.55,1.47A4.76,4.76,0,0,0,75.88,313.85Z"/><path class="cls-4" d="M95.76,310.06a5.23,5.23,0,0,0-2.85.82,4.26,4.26,0,0,0-1.75,2.19V321H89v-12.7h2v2.88A6.06,6.06,0,0,1,92.76,309a4.47,4.47,0,0,1,2.29-.92h.42a1.23,1.23,0,0,1,.29,0Z"/><path class="cls-4" d="M103.25,321.2a6.44,6.44,0,0,1-2.63-.53,6.2,6.2,0,0,1-2.06-1.43,6.7,6.7,0,0,1-1.82-4.63,6.63,6.63,0,0,1,.83-3.28A6.46,6.46,0,0,1,99.89,309a6.36,6.36,0,0,1,3.39-.9,6.08,6.08,0,0,1,3.36.91,6.36,6.36,0,0,1,2.23,2.38,6.61,6.61,0,0,1,.8,3.18c0,.16,0,.32,0,.47s0,.27,0,.36H99a4.83,4.83,0,0,0,.69,2.19,4.57,4.57,0,0,0,1.56,1.5,4.12,4.12,0,0,0,2.06.54,4.33,4.33,0,0,0,2.21-.59,3.08,3.08,0,0,0,1.43-1.54l1.86.51a4.7,4.7,0,0,1-1.23,1.67,6,6,0,0,1-1.94,1.15A6.74,6.74,0,0,1,103.25,321.2Zm-4.31-7.35h8.72a4.65,4.65,0,0,0-.71-2.18,4.33,4.33,0,0,0-1.57-1.47,4.18,4.18,0,0,0-2.1-.53,4.13,4.13,0,0,0-2.08.53,4.23,4.23,0,0,0-1.56,1.47A4.76,4.76,0,0,0,98.94,313.85Z"/><path class="cls-4" d="M131.33,321h-2.15v-7.08a5.29,5.29,0,0,0-.65-2.94,2.18,2.18,0,0,0-1.92-.95,3.46,3.46,0,0,0-2.35.94,5.17,5.17,0,0,0-1.5,2.41V321h-2.15v-7.08a5.27,5.27,0,0,0-.64-2.95,2.16,2.16,0,0,0-1.91-.94,3.55,3.55,0,0,0-2.33.91,4.89,4.89,0,0,0-1.51,2.41V321h-2.15v-12.7h2V311a5.68,5.68,0,0,1,2-2.17,5.27,5.27,0,0,1,2.81-.77,3.5,3.5,0,0,1,3.72,3.09,6.49,6.49,0,0,1,2.08-2.3,5,5,0,0,1,2.8-.79,3.8,3.8,0,0,1,1.84.4,3.05,3.05,0,0,1,1.19,1.12,5.22,5.22,0,0,1,.64,1.69,10.75,10.75,0,0,1,.19,2.11Z"/><path class="cls-4" d="M140.27,321.2a6.35,6.35,0,0,1-2.62-.53,6.08,6.08,0,0,1-2-1.43,6.55,6.55,0,0,1-1.32-2.1,7,7,0,0,1,0-5,6.34,6.34,0,0,1,1.32-2.1,6.19,6.19,0,0,1,2-1.44,6.43,6.43,0,0,1,7.27,1.44,6.23,6.23,0,0,1,1.34,2.1,7.11,7.11,0,0,1,0,5,6.55,6.55,0,0,1-1.32,2.1,6.16,6.16,0,0,1-2,1.43A6.44,6.44,0,0,1,140.27,321.2ZM136,314.66a5,5,0,0,0,.58,2.37,4.4,4.4,0,0,0,1.53,1.69,3.87,3.87,0,0,0,2.13.62,3.83,3.83,0,0,0,2.14-.63A4.47,4.47,0,0,0,144,317a4.94,4.94,0,0,0,.58-2.39,4.84,4.84,0,0,0-.58-2.37,4.52,4.52,0,0,0-1.54-1.7,3.83,3.83,0,0,0-2.14-.63,3.73,3.73,0,0,0-2.13.64,4.68,4.68,0,0,0-1.53,1.71A5,5,0,0,0,136,314.66Z"/><path class="cls-4" d="M160.44,321h-2.15v-7.08a5.37,5.37,0,0,0-.63-2.95,2.12,2.12,0,0,0-1.89-.94,3.88,3.88,0,0,0-1.75.44,5.33,5.33,0,0,0-1.55,1.17,4.26,4.26,0,0,0-1,1.71V321h-2.16v-12.7h2V311a5.31,5.31,0,0,1,1.32-1.55,6.24,6.24,0,0,1,1.84-1,6.43,6.43,0,0,1,2.15-.36,3.84,3.84,0,0,1,1.85.4,3,3,0,0,1,1.18,1.12,5.2,5.2,0,0,1,.61,1.69,11.61,11.61,0,0,1,.18,2.11Z"/><path class="cls-4" d="M164.14,324.43l.64.06.49,0a1,1,0,0,0,.68-.27,3.33,3.33,0,0,0,.65-1c.24-.51.54-1.26.92-2.25l-5.41-12.72h2.27l4.31,10.55,3.9-10.55h2.13l-6.22,16.06a3.79,3.79,0,0,1-.65,1.06,3.06,3.06,0,0,1-1.09.8,4,4,0,0,1-1.59.29l-.46,0-.57-.1Z"/><path class="cls-4" d="M290.9,530.05v1.13h-7.81v-1.13h3.47V518.74a3,3,0,0,1-.68.64,8.62,8.62,0,0,1-1.05.66,7.42,7.42,0,0,1-1.21.51,3.62,3.62,0,0,1-1.1.2v-1.22a3,3,0,0,0,1.29-.34,9.54,9.54,0,0,0,1.28-.75,11.83,11.83,0,0,0,1-.8,3.6,3.6,0,0,0,.45-.44h1.23v12.85Z"/><path class="cls-4" d="M304.21,528.47a5.82,5.82,0,0,1-2.19,2.16,6.44,6.44,0,0,1-6.29-.06,5.83,5.83,0,0,1-2.2-2.45,8.35,8.35,0,0,1-.8-3.77,19.12,19.12,0,0,1,.8-6,7.5,7.5,0,0,1,2.21-3.52,5.15,5.15,0,0,1,3.31-1.15,5.56,5.56,0,0,1,3.11.91,5.42,5.42,0,0,1,2,2.47l-.86.66a4.34,4.34,0,0,0-1.65-2.13,4.47,4.47,0,0,0-2.63-.8,4,4,0,0,0-2.69,1,6.31,6.31,0,0,0-1.79,2.83,13.78,13.78,0,0,0-.64,4.5,5,5,0,0,1,1.13-1.85,5.18,5.18,0,0,1,1.8-1.24,5.9,5.9,0,0,1,5.22.37,6.12,6.12,0,0,1,2.15,2.14,6,6,0,0,1,0,6Zm-2.81,1.19a5.23,5.23,0,0,0,1.77-1.76,4.68,4.68,0,0,0,0-4.86,5.14,5.14,0,0,0-1.78-1.78,4.86,4.86,0,0,0-4.89,0,5.06,5.06,0,0,0-1.79,1.77,4.65,4.65,0,0,0-.66,2.44,4.49,4.49,0,0,0,.68,2.4,5.23,5.23,0,0,0,1.78,1.78,4.83,4.83,0,0,0,4.89,0Z"/><path class="cls-4" d="M307.74,520.55v-2.08h1.05v2.08Zm0,10.63V529.1h1.05v2.08Z"/><path class="cls-4" d="M324,524.12a8.73,8.73,0,0,1-.79,3.77,6.28,6.28,0,0,1-2.16,2.59,5.46,5.46,0,0,1-3.15.94,5.39,5.39,0,0,1-3.12-.94,6.3,6.3,0,0,1-2.17-2.59,9.53,9.53,0,0,1,0-7.55,6.4,6.4,0,0,1,2.17-2.6,5.33,5.33,0,0,1,3.12-1,5.4,5.4,0,0,1,3.15,1,6.37,6.37,0,0,1,2.16,2.6A8.75,8.75,0,0,1,324,524.12Zm-1.25,0a8,8,0,0,0-.62-3.23,5,5,0,0,0-1.7-2.17,4.43,4.43,0,0,0-5.05,0,5.07,5.07,0,0,0-1.72,2.17,8.8,8.8,0,0,0,0,6.44,5.1,5.1,0,0,0,1.72,2.16,4.48,4.48,0,0,0,5.05,0,5.06,5.06,0,0,0,1.7-2.16A7.89,7.89,0,0,0,322.75,524.12Z"/><path class="cls-4" d="M339,524.12a8.73,8.73,0,0,1-.78,3.77,6.23,6.23,0,0,1-2.17,2.59,5.68,5.68,0,0,1-6.26,0,6.23,6.23,0,0,1-2.17-2.59,9.53,9.53,0,0,1,0-7.55,6.32,6.32,0,0,1,2.17-2.6,5.58,5.58,0,0,1,6.26,0,6.32,6.32,0,0,1,2.17,2.6A8.75,8.75,0,0,1,339,524.12Zm-1.24,0a8,8,0,0,0-.62-3.23,5.11,5.11,0,0,0-1.7-2.17,4.43,4.43,0,0,0-5.05,0,5.07,5.07,0,0,0-1.72,2.17,8.8,8.8,0,0,0,0,6.44,5.1,5.1,0,0,0,1.72,2.16,4.48,4.48,0,0,0,5.05,0,5.14,5.14,0,0,0,1.7-2.16A7.89,7.89,0,0,0,337.71,524.12Z"/><path class="cls-4" d="M347.77,522.73a12.41,12.41,0,0,1,1-4.85,40.12,40.12,0,0,1,2.36-4.67l1,.49a18.73,18.73,0,0,0-1.08,1.87,20.72,20.72,0,0,0-1,2.33,20.37,20.37,0,0,0-.76,2.49,11.08,11.08,0,0,0-.29,2.42,12.13,12.13,0,0,0,.83,4.16,20.19,20.19,0,0,0,2.33,4.48l-.93.54a22,22,0,0,1-1.8-3.1,17.91,17.91,0,0,1-1.17-3.11A12.08,12.08,0,0,1,347.77,522.73Z"/><path class="cls-4" d="M360.64,513.8h1.08l7.35,17.38h-1.33l-2.37-5.73H357l-2.38,5.73h-1.35ZM365,524.42l-3.77-9.11-3.78,9.11Z"/><path class="cls-4" d="M377.56,531.42a5.14,5.14,0,0,1-2.92-.86,7,7,0,0,1-2.07-2.11v7.94h-1.23V518.47h1.13V521a6.3,6.3,0,0,1,2.08-2,5.5,5.5,0,0,1,5.19-.21,6.15,6.15,0,0,1,1.92,1.48,7.23,7.23,0,0,1,1.28,2.11,6.77,6.77,0,0,1,.45,2.44,7.32,7.32,0,0,1-.74,3.26,6.13,6.13,0,0,1-2,2.4A5.25,5.25,0,0,1,377.56,531.42Zm-.29-1.1a4.32,4.32,0,0,0,2-.46,5,5,0,0,0,1.53-1.24,6,6,0,0,0,1.32-3.76,5.6,5.6,0,0,0-1.48-3.82,5.33,5.33,0,0,0-1.62-1.21,4.44,4.44,0,0,0-2-.45,4.17,4.17,0,0,0-1.41.27,5.87,5.87,0,0,0-1.42.75,4.87,4.87,0,0,0-1.11,1.11,2.8,2.8,0,0,0-.54,1.28V527a6.61,6.61,0,0,0,1.14,1.69,5.24,5.24,0,0,0,1.62,1.22A4.41,4.41,0,0,0,377.27,530.32Z"/><path class="cls-4" d="M392.35,519.55a5.07,5.07,0,0,0-3,1,5,5,0,0,0-1.8,2.65v8h-1.22V518.47h1.17v3.11a6.07,6.07,0,0,1,1.76-2.19,4.65,4.65,0,0,1,2.33-1l.44,0h.32Z"/><path class="cls-4" d="M399.52,531.42a6,6,0,0,1-2.48-.51,5.84,5.84,0,0,1-2-1.43,6.63,6.63,0,0,1-1.3-2.09,6.81,6.81,0,0,1-.47-2.5,6.92,6.92,0,0,1,.47-2.55,6.7,6.7,0,0,1,1.31-2.1,6.15,6.15,0,0,1,2-1.44,5.81,5.81,0,0,1,2.46-.52,5.73,5.73,0,0,1,2.45.52,6.38,6.38,0,0,1,2,1.44,6.76,6.76,0,0,1,1.33,2.1,7.13,7.13,0,0,1,.46,2.55,7,7,0,0,1-.46,2.5,6.84,6.84,0,0,1-1.31,2.09,6.13,6.13,0,0,1-2,1.43A6,6,0,0,1,399.52,531.42Zm-5-6.53a5.62,5.62,0,0,0,.67,2.74,5.4,5.4,0,0,0,1.8,2,4.46,4.46,0,0,0,2.5.73,4.55,4.55,0,0,0,2.51-.74,5.38,5.38,0,0,0,1.81-2,5.7,5.7,0,0,0,.67-2.74,5.63,5.63,0,0,0-.67-2.73,5.49,5.49,0,0,0-1.8-2,4.58,4.58,0,0,0-5,0,5.54,5.54,0,0,0-1.81,2A5.69,5.69,0,0,0,394.53,524.89Z"/><path class="cls-4" d="M408,518.47l4.06,5.26.2.34.19-.34,4-5.26h1.42L413,524.85l4.92,6.33h-1.42l-4-5.23-.19-.32-.2.32-4,5.23h-1.39l4.89-6.33-4.92-6.38Z"/><path class="cls-4" d="M420,531.18V529.1h1.08v2.08Z"/><path class="cls-4" d="M427.8,522.73a12.08,12.08,0,0,1-.41,3,16.37,16.37,0,0,1-1.16,3.11,25.22,25.22,0,0,1-1.79,3.1l-.93-.54a21.44,21.44,0,0,0,2.31-4.48,12.37,12.37,0,0,0,.83-4.16,11.68,11.68,0,0,0-.28-2.42,17.38,17.38,0,0,0-.76-2.49,25.11,25.11,0,0,0-1-2.33,16.91,16.91,0,0,0-1.09-1.87l.95-.49a36.09,36.09,0,0,1,2.38,4.67A12.58,12.58,0,0,1,427.8,522.73Z"/><path class="cls-4" d="M321.52,497.79V480.41h2.21v15.42h9.69v2Z"/><path class="cls-4" d="M335.36,492.71v-7.62h2.15v7.2a5.08,5.08,0,0,0,.69,2.92,2.33,2.33,0,0,0,2,1,4.08,4.08,0,0,0,1.7-.38,4.66,4.66,0,0,0,1.48-1.08,5.05,5.05,0,0,0,1-1.67v-8h2.15v10.26a.88.88,0,0,0,.16.57.77.77,0,0,0,.53.21v1.66l-.58.07h-.4a1.56,1.56,0,0,1-1.05-.38,1.25,1.25,0,0,1-.47-.94l0-1.48a5.82,5.82,0,0,1-2.24,2.19,6.23,6.23,0,0,1-3.07.78,3.59,3.59,0,0,1-3-1.35A6.55,6.55,0,0,1,335.36,492.71Z"/><path class="cls-4" d="M361.28,497.79h-2.15v-7.08a5.39,5.39,0,0,0-.63-2.95,2.12,2.12,0,0,0-1.89-.93,3.83,3.83,0,0,0-1.75.43,5.33,5.33,0,0,0-1.55,1.17,4.4,4.4,0,0,0-1,1.71v7.65h-2.16v-12.7h2v2.74a5.31,5.31,0,0,1,1.32-1.55,6,6,0,0,1,1.84-1,6.19,6.19,0,0,1,2.15-.37,4,4,0,0,1,1.85.4,3,3,0,0,1,1.18,1.12,5.2,5.2,0,0,1,.61,1.69,11.61,11.61,0,0,1,.18,2.11Z"/><path class="cls-4" d="M370.29,498a6.6,6.6,0,0,1-2.63-.52,6.26,6.26,0,0,1-2.06-1.45,6.48,6.48,0,0,1-1.34-2.11,7,7,0,0,1,.33-5.81,6.08,6.08,0,0,1,2.27-2.37,6.49,6.49,0,0,1,3.41-.89,6.23,6.23,0,0,1,3.29.85,5.17,5.17,0,0,1,2.09,2.26l-2.1.66a3.64,3.64,0,0,0-1.37-1.41,3.94,3.94,0,0,0-2-.5,3.87,3.87,0,0,0-2.14.61,4.33,4.33,0,0,0-1.54,1.66,5.07,5.07,0,0,0-.56,2.41,5,5,0,0,0,.58,2.41,4.55,4.55,0,0,0,1.54,1.71,3.83,3.83,0,0,0,2.14.63,4,4,0,0,0,1.46-.27,4.23,4.23,0,0,0,1.22-.72,2.64,2.64,0,0,0,.73-1l2.1.63a4.64,4.64,0,0,1-1.19,1.65,5.67,5.67,0,0,1-1.88,1.14A6.59,6.59,0,0,1,370.29,498Z"/><path class="cls-4" d="M389.29,497.79h-2.16v-7.08a5,5,0,0,0-.69-2.91,2.31,2.31,0,0,0-2-1,3.68,3.68,0,0,0-1.68.43,5,5,0,0,0-1.48,1.17,4.9,4.9,0,0,0-.93,1.71v7.65H378.2V479.92h2.15v7.91a5.78,5.78,0,0,1,2.07-2.15,5.44,5.44,0,0,1,2.83-.79,4.2,4.2,0,0,1,1.92.4,3.29,3.29,0,0,1,1.24,1.13,5.2,5.2,0,0,1,.67,1.69,9.83,9.83,0,0,1,.21,2.1Z"/><path class="cls-4" d="M103.73,708.38v1.13H95.92v-1.13H99.4V697.07a3.68,3.68,0,0,1-.69.64,12,12,0,0,1-1,.66,7,7,0,0,1-1.2.51,3.73,3.73,0,0,1-1.1.2v-1.23a2.93,2.93,0,0,0,1.28-.33,9.28,9.28,0,0,0,1.29-.76,11.23,11.23,0,0,0,1-.79c.27-.25.42-.39.46-.44h1.22v12.85Z"/><path class="cls-4" d="M117.39,704.8a4.27,4.27,0,0,1-.83,2.62,5.37,5.37,0,0,1-2.21,1.73,7.35,7.35,0,0,1-3,.6,6.51,6.51,0,0,1-3.06-.69,5.35,5.35,0,0,1-2.07-1.83,4.47,4.47,0,0,1-.75-2.5,3.91,3.91,0,0,1,.55-2.07,5.25,5.25,0,0,1,1.4-1.53,6.05,6.05,0,0,1,1.75-.93,6,6,0,0,1-1.53-.84,4.4,4.4,0,0,1-1.13-1.27,3.22,3.22,0,0,1-.43-1.62,3.71,3.71,0,0,1,.47-1.87,4.16,4.16,0,0,1,1.25-1.36,5.59,5.59,0,0,1,1.72-.83,6.62,6.62,0,0,1,1.92-.29,6.54,6.54,0,0,1,1.9.29,5.65,5.65,0,0,1,1.73.83,4.34,4.34,0,0,1,1.25,1.35,3.62,3.62,0,0,1,.46,1.86,3.16,3.16,0,0,1-.43,1.64,4.16,4.16,0,0,1-1.14,1.27,6.21,6.21,0,0,1-1.54.84,6,6,0,0,1,1.86,1,5.13,5.13,0,0,1,1.34,1.56A4.22,4.22,0,0,1,117.39,704.8Zm-1.23-.09a3.35,3.35,0,0,0-.42-1.68,3.94,3.94,0,0,0-1.13-1.24,5.5,5.5,0,0,0-3.2-1,5.07,5.07,0,0,0-2.21.51,4.74,4.74,0,0,0-1.76,1.39,3.26,3.26,0,0,0-.7,2.09,3.2,3.2,0,0,0,.43,1.67,4.22,4.22,0,0,0,1.11,1.24,5,5,0,0,0,1.53.77,5.45,5.45,0,0,0,1.68.26,5.21,5.21,0,0,0,2.2-.49,4.71,4.71,0,0,0,1.78-1.39A3.32,3.32,0,0,0,116.16,704.71Zm-8.81-8.19a2.6,2.6,0,0,0,.63,1.76,3.93,3.93,0,0,0,1.57,1.09,5.38,5.38,0,0,0,1.89.37,5.11,5.11,0,0,0,1.9-.38,4.18,4.18,0,0,0,1.58-1.12,2.83,2.83,0,0,0,0-3.52,3.85,3.85,0,0,0-1.54-1.09,5.35,5.35,0,0,0-2-.38,5.13,5.13,0,0,0-2,.39,3.84,3.84,0,0,0-1.51,1.12A2.7,2.7,0,0,0,107.35,696.52Z"/><path class="cls-4" d="M120.3,698.88V696.8h1.06v2.08Zm0,10.63v-2.09h1.06v2.09Z"/><path class="cls-4" d="M131.07,703.56a4,4,0,0,1,2,.78,4.28,4.28,0,0,1,1.27,1.61,5,5,0,0,1,.46,2.19,4.89,4.89,0,0,1-.7,2.6,4.75,4.75,0,0,1-1.94,1.74,6.17,6.17,0,0,1-2.85.62,6.52,6.52,0,0,1-3.23-.78,4.68,4.68,0,0,1-2-2.15l.9-.74a3.79,3.79,0,0,0,1.61,1.85,5.17,5.17,0,0,0,2.78.7,4.32,4.32,0,0,0,3-1,3.63,3.63,0,0,0,1.14-2.85,3.72,3.72,0,0,0-1.16-2.9,4.64,4.64,0,0,0-3.29-1.08h-.59V703h.64a4.43,4.43,0,0,0,3-.92,3.08,3.08,0,0,0,1.06-2.42,3.28,3.28,0,0,0-.51-1.86,3.36,3.36,0,0,0-1.37-1.18,4.51,4.51,0,0,0-2-.42,4.82,4.82,0,0,0-2.56.67,4,4,0,0,0-1.63,1.82l-.83-.68a4.39,4.39,0,0,1,1.14-1.54,5.26,5.26,0,0,1,1.77-1,6.39,6.39,0,0,1,2.2-.37,5.76,5.76,0,0,1,2.61.57,4.44,4.44,0,0,1,1.79,1.58,4.2,4.2,0,0,1,.65,2.32,4.28,4.28,0,0,1-.41,1.85,3.65,3.65,0,0,1-1.16,1.42A3.91,3.91,0,0,1,131.07,703.56Z"/><path class="cls-4" d="M149.51,702.44a8.75,8.75,0,0,1-.78,3.78,6.44,6.44,0,0,1-2.17,2.59,5.7,5.7,0,0,1-6.27,0,6.44,6.44,0,0,1-2.17-2.59,9.53,9.53,0,0,1,0-7.55,6.57,6.57,0,0,1,2.17-2.61,5.65,5.65,0,0,1,6.27,0,6.57,6.57,0,0,1,2.17,2.61A8.73,8.73,0,0,1,149.51,702.44Zm-1.25,0a7.91,7.91,0,0,0-.61-3.22A5.22,5.22,0,0,0,146,697a4.49,4.49,0,0,0-5.06,0,5.16,5.16,0,0,0-1.71,2.18,7.91,7.91,0,0,0-.61,3.22,7.82,7.82,0,0,0,.61,3.21,5.13,5.13,0,0,0,1.71,2.17,4.49,4.49,0,0,0,5.06,0,5.18,5.18,0,0,0,1.7-2.17A7.82,7.82,0,0,0,148.26,702.44Z"/><path class="cls-4" d="M95.12,676.12V658.74h7.25a4.64,4.64,0,0,1,2.11.48,5.41,5.41,0,0,1,1.66,1.27,6,6,0,0,1,1.1,1.79,5.45,5.45,0,0,1,.39,2A6.08,6.08,0,0,1,107,667a5.4,5.4,0,0,1-1.79,2.08,4.64,4.64,0,0,1-2.69.8H97.33v6.24Zm2.21-8.2h5.06a2.58,2.58,0,0,0,1.58-.49,3.39,3.39,0,0,0,1.06-1.32,4.38,4.38,0,0,0,.38-1.81,3.78,3.78,0,0,0-.45-1.85,3.36,3.36,0,0,0-1.15-1.29,2.77,2.77,0,0,0-1.56-.46H97.33Z"/><path class="cls-4" d="M108.88,672.45a3.31,3.31,0,0,1,.7-2.11A4.46,4.46,0,0,1,111.5,669a7.54,7.54,0,0,1,2.84-.49,12.91,12.91,0,0,1,1.81.14,8.23,8.23,0,0,1,1.69.4v-.92a3,3,0,0,0-.88-2.29,3.52,3.52,0,0,0-2.5-.83,5.57,5.57,0,0,0-2,.38,11.4,11.4,0,0,0-2,1.09l-.78-1.52a10.17,10.17,0,0,1,2.49-1.28,7.88,7.88,0,0,1,2.6-.43,5.4,5.4,0,0,1,3.87,1.35,4.92,4.92,0,0,1,1.42,3.75v5.36a.83.83,0,0,0,.16.57.74.74,0,0,0,.52.21v1.66c-.21,0-.39.06-.55.07l-.38,0a1.48,1.48,0,0,1-1.14-.42,1.51,1.51,0,0,1-.42-.88l0-.81a5.52,5.52,0,0,1-2.18,1.67,6.69,6.69,0,0,1-2.67.59,4.85,4.85,0,0,1-2.28-.53,4,4,0,0,1-1.56-1.41A3.58,3.58,0,0,1,108.88,672.45Zm8.33.89a3,3,0,0,0,.46-.69,1.31,1.31,0,0,0,.17-.59v-1.58a8.85,8.85,0,0,0-1.59-.44,8.36,8.36,0,0,0-1.64-.16,4.92,4.92,0,0,0-2.66.64,2,2,0,0,0-1,1.76,2.31,2.31,0,0,0,.33,1.17,2.61,2.61,0,0,0,1,.94,3.24,3.24,0,0,0,1.6.36,4.61,4.61,0,0,0,1.91-.4A4.08,4.08,0,0,0,117.21,673.34Z"/><path class="cls-4" d="M130.21,665.23a5.29,5.29,0,0,0-2.86.82,4.36,4.36,0,0,0-1.75,2.19v7.88h-2.15V663.41h2v2.89a6,6,0,0,1,1.75-2.14,4.44,4.44,0,0,1,2.29-.92h.41a1.32,1.32,0,0,1,.3,0Z"/><path class="cls-4" d="M139,675.56l-.74.32a7.27,7.27,0,0,1-1.08.34,5.37,5.37,0,0,1-1.29.15,3.61,3.61,0,0,1-1.45-.29,2.25,2.25,0,0,1-1-.88,2.7,2.7,0,0,1-.39-1.5v-8.6h-1.74v-1.69H133v-4.25h2.15v4.25H138v1.69H135.1V673a1.33,1.33,0,0,0,.47,1,1.51,1.51,0,0,0,1,.33,3,3,0,0,0,1.17-.22,4.89,4.89,0,0,0,.71-.32Z"/><path class="cls-4" d="M141.54,679.6l.64.06.49,0a1,1,0,0,0,.68-.27,3.46,3.46,0,0,0,.65-1c.24-.51.54-1.26.92-2.25l-5.41-12.73h2.27L146.09,674l3.9-10.56h2.13l-6.22,16.07a3.79,3.79,0,0,1-.65,1.06,3.06,3.06,0,0,1-1.09.8,4,4,0,0,1-1.59.29l-.45,0c-.16,0-.35-.05-.58-.1Z"/><path class="cls-5" d="M97.15,107.22V102.1a2,2,0,0,0-3.85,0v5.07L92,114.39,86.29,83.9a1.37,1.37,0,0,0,.23-.17,1.78,1.78,0,0,0,.64-1.41,2,2,0,0,0-1.47-1.67v0a2.8,2.8,0,0,0,1.48-2.35,2.85,2.85,0,0,0-1.68-2.46V74.3a1.45,1.45,0,0,0,0-2.85,2,2,0,0,0-3.83,0,1.46,1.46,0,0,0,0,2.86v1.53a2.62,2.62,0,0,0-.2,4.81v0a2.88,2.88,0,0,0-.83.44,1.67,1.67,0,0,0,.23,2.78l-5.74,30.37-1.3-7V102.1a2,2,0,0,0-3.85,0v5.07L66.1,128l0,12.31,4,3.22v12.81l-1.29-8.9-3.59,21,0,.06,0,26.79h-3v34.92H96.81l.08-86.57,4.1-3.28V128.12ZM83.46,78.08h.06a.22.22,0,0,1,.21.2c0,.1-.09.19-.24.2h-.07c-.13,0-.22-.1-.22-.16A.3.3,0,0,1,83.46,78.08Zm14.11,61.09-4,3.28-.08,85h-28V197.93h3V168.8l.42-2.47a2.72,2.72,0,0,0,.76.32,3,3,0,0,0,2.67-.49l1.11-.89V142.4l-4-3.23V128.32l2.4-13.13,1.28,7a1.88,1.88,0,0,0,1.93,1.33A1.84,1.84,0,0,0,77,122.18l6.5-34.81,6.54,35a1.86,1.86,0,0,0,1.92,1.34,1.82,1.82,0,0,0,1.92-1.34l1.32-7.15,2.4,13.08Z"/><path class="cls-5" d="M83.48,177.09c-3.16,0-5.73,2.08-5.73,4.62v14.66H89.23V181.71C89.23,179.17,86.66,177.09,83.48,177.09Zm2.9,17H80.6V181.71a3,3,0,0,1,5.78,0Z"/><path class="cls-5" d="M90.83,144.63a4.29,4.29,0,0,0-2.67-.89,4.35,4.35,0,0,0-2.33.66,4.61,4.61,0,0,0-4.68,0,4.4,4.4,0,0,0-2.33-.66c-2.06,0-3.73,1.35-3.73,3v10.81h16.8V146.74A2.67,2.67,0,0,0,90.83,144.63ZM79.71,155.25H78v-8.51a.9.9,0,0,1,1.76,0Zm4.68,0H82.63v-8.51a.9.9,0,0,1,1.76,0Zm4.65,0H87.28v-8.51a.9.9,0,0,1,1.76,0Z"/><path class="cls-5" d="M83.48,197.69c-3.16,0-5.73,2.06-5.73,4.61v7.87H89.23V202.3C89.23,199.75,86.66,197.69,83.48,197.69Zm2.9,10.19H80.6V202.3a3,3,0,0,1,5.78,0Z"/><path class="cls-5" d="M88.73,161.71A8.32,8.32,0,0,0,83.48,160c-4.06,0-7.37,2.66-7.37,5.93s3.31,5.93,7.37,5.93,7.39-2.65,7.39-5.92A5.35,5.35,0,0,0,88.73,161.71Zm-2,6.74a5.05,5.05,0,0,1-3.23,1.08c-2.49,0-4.52-1.63-4.52-3.64s2-3.64,4.52-3.64S88,163.89,88,165.9A3.2,3.2,0,0,1,86.71,168.45Z"/><path class="cls-5" d="M176.66,215.38V195.22h-3V168.51L170,147.43l-1.3,8.89V143.51l4-3.22V128.12l-3.83-20.88v-5a1.76,1.76,0,0,0-1.72-1.63,1.82,1.82,0,0,0-2.14,1.53v5.08l-1.3,7.07L158,83.89a1.83,1.83,0,0,0,.87-1.36,1.75,1.75,0,0,0-.64-1.41,2.54,2.54,0,0,0-.84-.46v0a2.62,2.62,0,0,0-.19-4.81V74.3a1.59,1.59,0,0,0,1.16-1.43,1.57,1.57,0,0,0-1.17-1.42,2,2,0,0,0-3.84,0,1.46,1.46,0,0,0,0,2.86v1.53a2.62,2.62,0,0,0-.19,4.81v0a2,2,0,0,0-1.48,1.68,1.72,1.72,0,0,0,.63,1.39c.08.06.15.13.24.19l-5.7,30.49-1.32-7.17v-5a1.76,1.76,0,0,0-1.73-1.63,1.82,1.82,0,0,0-2.12,1.54v5.08l-3.84,20.95-.06,12.15,4.1,3.28.08,86.57h34.68v-2.8A1.56,1.56,0,0,0,175,226h0a1.56,1.56,0,0,0-1.69,1.36v.11H145.34l-.08-84.87v-.13l-4.1-3.28V128.32l2.4-13.13,1.31,7.15a1.87,1.87,0,0,0,1.92,1.34,1.82,1.82,0,0,0,1.92-1.34l6.55-35,6.54,34.82a1.87,1.87,0,0,0,1.92,1.33,1.83,1.83,0,0,0,1.93-1.34l1.27-7,2.4,13.08v10.9l-4,3.23v22.87l1.1.89a3,3,0,0,0,2.68.49,2.65,2.65,0,0,0,.75-.32l.43,2.43v29.17h3v17.45a1.56,1.56,0,0,0,1.69,1.36h0A1.56,1.56,0,0,0,176.66,215.38ZM155.3,78.48h-.07a.22.22,0,0,1-.21-.2c0-.1.09-.18.24-.2h0a.23.23,0,0,1,.24.2C155.54,78.38,155.45,78.47,155.3,78.48Z"/><path class="cls-5" d="M155.28,177.09c-3.16,0-5.74,2.08-5.74,4.62v14.66H161V181.71C161,179.17,158.44,177.09,155.28,177.09Zm2.89,17h-5.78V181.71a3,3,0,0,1,5.78,0Z"/><path class="cls-5" d="M159.91,143.75a4.33,4.33,0,0,0-2.34.67,4.6,4.6,0,0,0-4.67,0,4.55,4.55,0,0,0-2.37-.67,4.13,4.13,0,0,0-2.54.85,2.77,2.77,0,0,0-1.12,2.16v10.8h16.77v-10.8C163.64,145.1,162,143.75,159.91,143.75Zm-8.43,11.52h-1.75v-8.51a.89.89,0,0,1,1.75,0Zm4.68,0H154.4v-8.51a.9.9,0,0,1,1.76,0Zm4.67,0h-1.76v-8.51a.9.9,0,0,1,1.76,0Z"/><path class="cls-5" d="M155.28,197.69c-3.16,0-5.74,2.06-5.74,4.61v7.87H161V202.3C161,199.75,158.44,197.69,155.28,197.69Zm2.89,10.19h-5.78V202.3a3,3,0,0,1,5.78,0Z"/><path class="cls-5" d="M155.28,160c-4.07,0-7.38,2.66-7.38,5.93s3.31,5.93,7.38,5.93,7.38-2.65,7.38-5.93S159.35,160,155.28,160Zm0,9.57c-2.5,0-4.53-1.63-4.53-3.64s2-3.64,4.53-3.64,4.53,1.64,4.53,3.64S157.78,169.53,155.28,169.53Z"/><path class="cls-5" d="M121.05,142.6v-7.36h2.4a1.38,1.38,0,1,0,0-2.7h-2.4v-3.06a1.72,1.72,0,0,0-3.36,0v3.06h-2.4a1.38,1.38,0,1,0,0,2.7h2.4v7.36l-18.6,21.25-.07.08v66.23h15.45V214.67c0-2.18,2.21-3.95,4.92-3.95s4.92,1.77,4.92,3.95v15.49h15.46V163.93Zm15.33,84.85h-8.73V214.67c0-3.67-3.71-6.66-8.28-6.66s-8.27,3-8.27,6.66v12.78h-8.74V164.78l17-19.41,17,19.41Z"/><path class="cls-5" d="M119.39,181.23c-4.06,0-7.37,2.66-7.37,5.93v18.73h14.75V187.16C126.77,183.89,123.46,181.23,119.39,181.23Zm4.53,22.37h-9V187.16c0-2,2-3.64,4.52-3.64s4.53,1.63,4.53,3.64Z"/><path class="cls-5" d="M119.39,167.91c-4.06,0-7.37,2.66-7.37,5.93s3.31,5.93,7.37,5.93,7.38-2.67,7.38-5.93S123.46,167.91,119.39,167.91Zm0,9.58c-2.49,0-4.52-1.63-4.52-3.64s2-3.64,4.52-3.64,4.53,1.63,4.53,3.64S121.89,177.49,119.39,177.49Z"/><path class="cls-5" d="M124.58,157.35v-2.8c0-1.45-1.46-2.62-3.26-2.62a3.78,3.78,0,0,0-1.94.52,3.72,3.72,0,0,0-1.93-.52c-1.8,0-3.26,1.17-3.26,2.62v2.8c-2-.34-3.92.94-3.92,2.57v5.42H128.5v-5.42C128.5,158.3,126.69,157,124.58,157.35Zm-10.39,5.89h-1.31v-3.32a.6.6,0,0,1,.66-.53.63.63,0,0,1,.65.47Zm3.91,0h-1.31v-8.69a.67.67,0,0,1,1.31,0Zm3.9,0h-1.29v-8.72a.58.58,0,0,1,.63-.5.6.6,0,0,1,.66.53Zm3.91,0H124.6v-3.36a.59.59,0,0,1,.65-.49.6.6,0,0,1,.66.53Z"/><path class="cls-5" d="M59.11,558.35c-2.14,0-3.36-.62-4.15-2.13v-6.45a3.69,3.69,0,0,1,3.64-2.14h.48c.68.05,1.4.07,2.28.07l1.84,0,1.94,0a.74.74,0,0,0,.74-.74v-1.88q0-7.93,0-15.87c0-13.4,0-27.26-.08-40.89-.07-6.74,3.71-11.48,10.11-12.67a.75.75,0,0,0,.6-.73V455.75c0-2.45,1.09-3.55,3.5-3.56h5.61c2.51,0,3.58,1.1,3.58,3.64q0,6.62,0,13.21v5.74a.75.75,0,0,0,.51.71l1.33.42a14.54,14.54,0,0,1,2.44.88,11,11,0,0,1,6.35,10c.07,2.32.05,4.62,0,7.05,0,1.09,0,2.2,0,3.32a.75.75,0,0,0,.74.75h10c2.3,0,4.6,0,6.9,0h0a3.74,3.74,0,0,1,3.14,1.46c6.57,7.72,7.15,18.8,1.36,26.34A16.29,16.29,0,0,1,111.93,532a1.79,1.79,0,0,0-1.71,2.15c0,.67,0,1.33-.11,2-.14,1.67-.28,3.39.44,4.76a7.9,7.9,0,0,0,3.3,2.79,14.22,14.22,0,0,1,2,1.28,12.69,12.69,0,0,0,8.49,2.79h.42a11.4,11.4,0,0,0,7.75-2.59,30.56,30.56,0,0,1,3-2.2c.67-.45,1.36-.93,2-1.43a2.61,2.61,0,0,0,1.06-1.85c0-3.35,0-6.75,0-10v-4.21a.75.75,0,0,0-.52-.71c-5.32-1.72-7.39-5.52-6.71-12.33a.75.75,0,0,0-.63-.81l-.57-.07c-.34,0-.65-.09-1-.15a1.3,1.3,0,0,1-1.2-1.44,1.25,1.25,0,0,1,1.22-1.38,15.77,15.77,0,0,1,1.86-.11l1,0a.75.75,0,0,0,.71-.74v-33c0-2.93.25-3.26,3-4a.75.75,0,0,0,.37-1.21c-3.17-3.63-3.36-5.55-1-9.79l.91-1.64c.66-1.19,1.35-2.43,2-3.62a2,2,0,0,1,3.78,0c1.3,2.23,2.55,4.47,3.72,6.68,1.51,2.85,1,5.28-1.75,8.38a.74.74,0,0,0-.16.71.75.75,0,0,0,.52.5c2.74.71,3,1,3,3.85V477c0,2.08,0,4.17,0,6.26,0,1.23-.48,1.86-1.42,1.88h0c-1.25,0-1.51-1.05-1.51-1.94,0-2,0-3.93,0-5.93v-2.57a.75.75,0,0,0-.74-.75h-7a.75.75,0,0,0-.74.75v32.95a.75.75,0,0,0,.74.75h7a.75.75,0,0,0,.74-.75v-4.41c0-2.82,0-5.65,0-8.47a3.65,3.65,0,0,1,.18-1.31,1.2,1.2,0,0,1,1.18-.84,1.78,1.78,0,0,1,.39,0c.59.11,1.19.39,1.19,1.62v13.5a.74.74,0,0,0,.74.74H150c1.91.05,2,1,2,1.39,0,.67-.16,1.37-1.8,1.56l-.55.08-.35.05a.75.75,0,0,0-.63.74v1.23c0,.87,0,1.72,0,2.58a8.52,8.52,0,0,1-5.57,8.16,2.25,2.25,0,0,0-1.65,2.36c0,1.9,0,3.81,0,5.71,0,2.3,0,4.67,0,7a3.69,3.69,0,0,0,.6,1.71c.1.19.21.38.29.57a.74.74,0,0,0,.68.45l.19,0,.61-.16a.75.75,0,0,0,.55-.72v-4.91q0-3,0-6.08c0-2.5,1-3.47,3.54-3.47h20.81a.75.75,0,0,0,.73-.63c.17-1.13.34-2.25.52-3.36.37-2.41.74-4.8,1.08-7.19.25-1.73.63-2.88,1.84-3.6a1.72,1.72,0,0,0,.74-1.56c-.16-1-.36-1.91-.53-2.67l-.14-.63a.75.75,0,0,0-.72-.59.69.69,0,0,0-.2,0c-.51.14-1,.29-1.51.45a13,13,0,0,1-3,.71h-.2a5,5,0,0,1-3.3-1.87,3,3,0,0,0-2-.83h-.19l-.61,0a5,5,0,0,1-3.71-1.47,5.38,5.38,0,0,1-1.38-4,3,3,0,0,0-.92-2.15,5.45,5.45,0,0,1-2.09-3.91,5.38,5.38,0,0,1,1.89-4,3.31,3.31,0,0,0,.91-2.28,5.56,5.56,0,0,1,1.34-4.14,5.18,5.18,0,0,1,3.86-1.39h.42a2.52,2.52,0,0,0,2.64-3.25c-.35-1.74.17-3.21,1.71-4.78a3.28,3.28,0,0,0,.9-2.25,5.27,5.27,0,0,1,1.3-4,4.85,4.85,0,0,1,3.64-1.4h.51a2.78,2.78,0,0,0,2.26-1.06,5,5,0,0,1,3.8-1.92,5.3,5.3,0,0,1,3.77,1.76,3.56,3.56,0,0,0,2.35.93h.23a5.34,5.34,0,0,1,3.93,1.42,5.42,5.42,0,0,1,1.38,4,2.88,2.88,0,0,0,.87,2c1.74,1.59,2.32,3.15,1.91,5.06a2.52,2.52,0,0,0,.57,2.12,2.94,2.94,0,0,0,2.24,1.14h.17l.6,0a5.4,5.4,0,0,1,4.15,1.67,5.7,5.7,0,0,1,1.26,4.54,2.9,2.9,0,0,0,.48,1.73c.61.93,1.26,1.84,1.89,2.73l.65.91V495l-.67.89c-.68.9-1.38,1.82-2.05,2.77a3,3,0,0,0-.53,1.72,6.1,6.1,0,0,1-1.44,4.52,5.55,5.55,0,0,1-4.11,1.47h0l-.62,0h-.14a2.93,2.93,0,0,0-2,.84,5.68,5.68,0,0,1-4.15,2.13,5.9,5.9,0,0,1-3.72-1.53,3.91,3.91,0,0,0-.45-.3l-.24-.15a.73.73,0,0,0-.4-.13.63.63,0,0,0-.27.06.69.69,0,0,0-.45.51l-.1.4c-.06.26-.11.47-.17.68-.4,1.26-.56,2.71,1.19,3.83a3.21,3.21,0,0,1,.86,1.92c.74,4.42,1.43,8.92,2.09,13.28,0,0,2.13,13.94,2.94,19.2a.73.73,0,0,0,.73.63h4.42l2.71,0a2.92,2.92,0,0,1,3.2,3,39.8,39.8,0,0,1,0,4.78,2.84,2.84,0,0,1-3.06,2.84l-2.12,0h-7.38l-3.48,0a1.43,1.43,0,0,1-1.62-1.41,1.52,1.52,0,0,1,1.64-1.53h12.29a.75.75,0,0,0,.74-.75v-3.16a.74.74,0,0,0-.74-.74H58.77a.75.75,0,0,0-.75.74v3.16a.76.76,0,0,0,.75.75H174.15c.22,0,.45,0,.67,0a1.46,1.46,0,0,1,0,2.92l-.52,0H128.63q-34.75,0-69.5,0Zm117.05-31.64c2.78,0,3.72,1,3.73,3.77v14.78c0,.35,0,.71.05,1.08l0,.56a.74.74,0,0,0,.74.71h5.87a.73.73,0,0,0,.57-.26.74.74,0,0,0,.17-.59l-1.93-12.65q-1.37-9-2.77-18c-.1-.61-.77-1.53-1.5-1.55-1.18,0-2.34,0-3.22,0h-3a.73.73,0,0,0-.73.62c-.56,3.65-1.09,7.09-1.64,10.72a.74.74,0,0,0,.17.59.73.73,0,0,0,.56.26h2.88ZM140,543.57a.7.7,0,0,0-.44.14L136,546.25a.75.75,0,0,0,.44,1.35h7.09a.75.75,0,0,0,.71-.52.77.77,0,0,0-.28-.83l-3.56-2.54A.69.69,0,0,0,140,543.57Zm8.23-13.81a.75.75,0,0,0-.75.74v16.35a.75.75,0,0,0,.75.74h27.87a.74.74,0,0,0,.74-.74V530.5a.74.74,0,0,0-.74-.74Zm-77.31-8.07c-.31,0-.63,0-1,0l-.4,0a.74.74,0,0,0-.69.74v24.31a.74.74,0,0,0,.74.74H96.18a.74.74,0,0,0,.74-.74c0-1.53,0-3.05,0-4.56,0-3.76,0-7.66,0-11.46a6.93,6.93,0,0,0-1.86-5.48,6.76,6.76,0,0,1-1.33-2.13,2.38,2.38,0,0,0-2.47-1.53l-12.1,0H70.91Zm37.83,22.21a.72.72,0,0,0-.42.13l-3.24,2.17a.73.73,0,0,0-.29.83.74.74,0,0,0,.71.53H112a.74.74,0,0,0,.71-.53.72.72,0,0,0-.3-.83L109.15,544A.79.79,0,0,0,108.74,543.9Zm-8.09-13.24a.75.75,0,0,0-.75.74v13.32a.75.75,0,0,0,.4.65.73.73,0,0,0,.35.09.69.69,0,0,0,.41-.13l1.37-.91c1.42-.95,2.75-1.84,4-2.77a2.31,2.31,0,0,0,.76-1.72c0-1.9,0-3.88,0-6.06,0-.36-.18-1.43-.91-1.66-1.38-.42-2.78-.8-4.14-1.16l-1.35-.36A.63.63,0,0,0,100.65,530.66Zm-5.27-16.4a.74.74,0,0,0-.74.69,13.18,13.18,0,0,0,3.61,9.59,14.23,14.23,0,0,0,10,4.82h.42c9.27,0,14.22-8.35,14.23-14.37a.78.78,0,0,0-.21-.52.75.75,0,0,0-.53-.22ZM135,511.52a.74.74,0,0,0-.74.74c0,.49,0,1,0,1.42a28.25,28.25,0,0,0,0,2.92,5.82,5.82,0,0,0,5.41,5.34H140a5.64,5.64,0,0,0,5.6-4.58,19.18,19.18,0,0,0,.1-3.55c0-.52,0-1,0-1.56a.74.74,0,0,0-.74-.74ZM69.68,495.8a.75.75,0,0,0-.75.74v21.37a.75.75,0,0,0,.75.74H91.06a.75.75,0,0,0,.56-.25.74.74,0,0,0,.17-.59l-.1-.79a21.25,21.25,0,0,1,4.11-16.3,4.92,4.92,0,0,0,1-4.33.74.74,0,0,0-.73-.59H90.12c-1.45,0-2.9,0-4.34,0-.63,0-1.68-.21-1.66-1.48,0-.93.59-1.41,1.72-1.43l3.65,0h5.06c.36,0,.72,0,1.1,0l.56,0a.74.74,0,0,0,.71-.74v-1.61c0-1.13,0-2.2,0-3.28a8.27,8.27,0,0,0-8.27-8.54c-1.85-.05-3.75-.08-5.67-.08s-3.9,0-5.9.08A8.07,8.07,0,0,0,69,485.44a26.67,26.67,0,0,0-.11,4.57c0,.7,0,1.4,0,2.11a.75.75,0,0,0,.74.75h5.06c1,0,1.49.41,1.59,1.33a1.32,1.32,0,0,1-.28,1.05,1.84,1.84,0,0,1-1.37.53c-.64,0-1.28,0-1.92,0H69.68Zm107.38,8.65a1.06,1.06,0,0,0-.54.14,1.66,1.66,0,0,0-.61,1.62c.2,1.14.43,2.25.66,3.36l.26,1.25a.72.72,0,0,0,.49.55,3.06,3.06,0,0,0,1,.19c1.46,0,1.72-1.43,1.81-1.9l0-.2c.52-2.84.39-3.14-2-4.66A2.17,2.17,0,0,0,177.06,504.45Zm-68.6-3.58h-7.89a1.93,1.93,0,0,0-1.52.49,17.34,17.34,0,0,0-4.28,8.92.74.74,0,0,0,.17.59.73.73,0,0,0,.57.26H122a.73.73,0,0,0,.57-.26.74.74,0,0,0,.16-.61,18,18,0,0,0-4.16-8.74,2.45,2.45,0,0,0-1.74-.65Zm76.11,1.55c1,0,1.28.52,1.82,1.56a4,4,0,0,0,2.48,2.18h.18c1,0,2.08-1.29,2.43-1.91.84-1.5,1.09-1.65,1.52-1.65a6.7,6.7,0,0,1,1.69.38,4.89,4.89,0,0,0,1.35.19,3,3,0,0,0,1.89-.55c1-.85.32-3.17.32-3.2-.55-1.79-.42-2.07,1.29-2.94.08-.05,2.15-1.12,2.17-2.5,0-1.12-1.37-2.16-2.1-2.55-1.7-.91-1.77-1.08-1.16-3,.21-.63.55-2.44-.29-3.29a2.45,2.45,0,0,0-1.77-.55,5.4,5.4,0,0,0-1.51.21,5.56,5.56,0,0,1-1.44.28c-.47,0-.77-.15-1.5-1.57-.38-.72-1.39-2.09-2.53-2.14h0c-1.22,0-2.29,1.48-2.61,2.05-.75,1.36-1.05,1.5-1.51,1.5a5.58,5.58,0,0,1-1.5-.31,5.42,5.42,0,0,0-1.52-.22,3,3,0,0,0-1.84.52c-1,.82-.32,3.23-.29,3.33.48,1.62.32,2-1.19,2.75a6.26,6.26,0,0,0-1.65,1.41c-.19.21-.38.42-.58.61a.77.77,0,0,0-.24.53.75.75,0,0,0,.22.53l.57.58c.47.47.93.95,1.41,1.41a1.62,1.62,0,0,0,.58.32l.11,0a1.41,1.41,0,0,1,.78,1.95c-.06.17-.13.33-.2.5s-.21.5-.29.76a2.85,2.85,0,0,0,.23,2.62,2.21,2.21,0,0,0,1.89.83,4.47,4.47,0,0,0,.93-.1,12.56,12.56,0,0,0,1.52-.47Zm-20.25-1.08c.43,0,.71.16,1.48,1.54.27.5,1.21,1.79,2.24,1.79a2.71,2.71,0,0,0,1.83-1.27,5.2,5.2,0,0,1,.37-.43,1.77,1.77,0,0,0,.36-.71,1,1,0,0,1,.06-.16,1.32,1.32,0,0,1,1.29-.93,2.79,2.79,0,0,1,.66.1,2.26,2.26,0,0,1,.43.17,2.86,2.86,0,0,0,1.14.31c.21,0,1.93-.06,2.19-1a3.17,3.17,0,0,0-.39-2.62,8.52,8.52,0,0,0-1.84-1.5c-.26-.18-.52-.35-.77-.54a.76.76,0,0,0-1,.13,5.67,5.67,0,0,1-4.41,2.4,5.74,5.74,0,0,1-1.83-.32,5.08,5.08,0,0,1-3.54-4.72,5.52,5.52,0,0,1,.84-3.14,12.73,12.73,0,0,1,2.61-2.18c.45-.32.9-.64,1.35-1a.74.74,0,0,0,.26-.79l-.75-2.59a.73.73,0,0,0-.61-.52h-.11a.72.72,0,0,0-.62.35c-.89,1.42-1.15,1.56-1.57,1.56a6.36,6.36,0,0,1-1.56-.33,4.87,4.87,0,0,0-1.23-.16,2.18,2.18,0,0,0-1.67.56c-.81.89-.25,2.69-.19,2.89.57,1.76.46,2.06-1.12,2.9a5,5,0,0,0-1.35,1.19c-.15.17-.3.33-.46.49a.73.73,0,0,0-.22.52.74.74,0,0,0,.21.53c.16.16.31.35.46.53a5.12,5.12,0,0,0,1.41,1.28c1.7.87,1.81,1.11,1.29,2.83,0,0-.68,2.25.31,3a2.78,2.78,0,0,0,1.61.43,4.63,4.63,0,0,0,1.34-.2A5.76,5.76,0,0,1,164.32,501.34Zm3.51-10.46a2.22,2.22,0,0,0-2.34,2.23,2.43,2.43,0,0,0,.62,1.81,2.07,2.07,0,0,0,1.52.63h.28a3.43,3.43,0,0,0,1.72-.93,3.35,3.35,0,0,1,.4-.31.73.73,0,0,0,.32-.71c-.08-.67-.35-2.71-2.46-2.71ZM172,469.06a2.12,2.12,0,0,0-1.55.5c-.68.69-.47,2.11-.27,2.77.62,2,.64,2-1.29,3.06,0,0-1.84,1-1.64,2.18a3.34,3.34,0,0,0,1.76,2c1.89,1,1.93,1.07,1.34,3.06,0,.08-.55,1.95.34,2.66a2.34,2.34,0,0,0,1.56.44c.34,0,.68,0,1-.07a19.08,19.08,0,0,0,2.16-.36l1.09-.21a.75.75,0,0,0,.56-.47l.37-1a.74.74,0,0,0-.31-.9c-3.71-2.25-4.87-4.76-3.57-7.67a5.55,5.55,0,0,1,5.05-3.23,5.38,5.38,0,0,1,1.59.24c3,.94,4.19,3.38,3.53,7.46a.75.75,0,0,0,.3.73.76.76,0,0,0,.43.14.64.64,0,0,0,.35-.1l5-2.72a.74.74,0,0,0,.39-.59.73.73,0,0,0-.29-.65l-.52-.43a6.76,6.76,0,0,0-1.37-1c-1.71-.85-1.81-1.07-1.24-3,0-.07.57-1.94-.3-2.66a2.68,2.68,0,0,0-1.66-.49,3.65,3.65,0,0,0-1,.13,7.45,7.45,0,0,1-1.77.39c-.42,0-.66-.14-1.49-1.61,0,0-.93-1.61-2-1.61h-.12a3.28,3.28,0,0,0-2.12,1.69c-.82,1.54-1.06,1.69-1.5,1.69a6.61,6.61,0,0,1-1.55-.32A4.84,4.84,0,0,0,172,469.06Zm6.46,5.82a2.33,2.33,0,0,0-2.39,2.41,2.37,2.37,0,0,0,2.45,2.5h.1a2.38,2.38,0,0,0,2.46-2.53,2.32,2.32,0,0,0-2.49-2.38ZM80.3,455.22a.74.74,0,0,0-.74.74V474.8a.74.74,0,0,0,.74.74h5.12a.74.74,0,0,0,.74-.74V456a.74.74,0,0,0-.74-.74ZM140,457.83a.75.75,0,0,0-.65.38c-.27.5-.54,1-.8,1.44-.6,1-1.16,2-1.66,3a3.24,3.24,0,0,0,1,4.19,3.28,3.28,0,0,0,2.07.77,3.49,3.49,0,0,0,1.95-.64,3.23,3.23,0,0,0,1.24-4.15,31.28,31.28,0,0,0-1.67-3.17l-.84-1.48a.75.75,0,0,0-.65-.38Zm22.12,84.85h-2.88c-.6,0-1.21,0-1.82,0-1,0-1.68-.57-1.66-1.47a1.42,1.42,0,0,1,1.56-1.44c1.62,0,3.24,0,4.86,0s3.24,0,4.85,0a1.38,1.38,0,0,1,1.5,1.48,1.41,1.41,0,0,1-1.57,1.43c-.64,0-1.28,0-1.91,0Zm.38-6.26h-8.43c-.68,0-1.84-.2-1.86-1.46a1.32,1.32,0,0,1,.34-1,2.26,2.26,0,0,1,1.6-.5h16.07c1.84,0,1.85,1.08,1.86,1.43a1.45,1.45,0,0,1-.36,1,2,2,0,0,1-1.43.47Zm26.68-36.82a5.82,5.82,0,1,1-.11-11.64h.09a5.82,5.82,0,1,1,.06,11.64Zm0-8.68a2.93,2.93,0,0,0-2.93,2.78,2.77,2.77,0,0,0,.77,2,3,3,0,0,0,2.08.93h0a2.9,2.9,0,0,0,3-2.77,2.84,2.84,0,0,0-.82-2,3,3,0,0,0-2-.9Z"/><path class="cls-5" d="M316.68,381.4H304.9a2.6,2.6,0,0,1-2.63-2.62c0-1.06,0-2.15,0-3.33a2.6,2.6,0,0,1,2.69-2.66h6.59a.74.74,0,0,0,.74-.74v-4a.73.73,0,0,0-.26-.56.7.7,0,0,0-.48-.18h-.11l-1.24.2c-.94.16-1.91.32-2.86.39-.48,0-1,.05-1.62.05h-1.87l.29-2.77c.18-1.68.35-3.33.53-5l2.66-24.79c.38-3.56.76-7.11,1.16-10.66a2.25,2.25,0,0,0-.82-2.17,5.94,5.94,0,0,1,1.81-10,3,3,0,0,0,1.56-1.4,7.82,7.82,0,0,0,1.39-5.66,2.44,2.44,0,0,1,.18-.88,6.65,6.65,0,0,0,.19-.71.73.73,0,0,0-.46-.85c-5.27-2-8.22-6.38-10.37-10.52l6-3.72a.75.75,0,0,0,.3-.9c-1-2.69-1-5.57-.95-8.62,0-.25,0-.49,0-.74l.25,0c.9,0,1.91-.11,3-.11a19.1,19.1,0,0,1,11.49,3.51.75.75,0,0,0,.43.13h.15a.72.72,0,0,0,.48-.35,6,6,0,0,1,5.36-3.25,5.84,5.84,0,0,1,5.48,3.68,2.85,2.85,0,0,0,1.91,1.88,4,4,0,0,1,.92.49l.51.3a.78.78,0,0,0,.36.1.88.88,0,0,0,.32-.07l.66-.31c.59-.27,1.19-.55,1.78-.86a2.07,2.07,0,0,0,.87-1.09,5.82,5.82,0,0,1,5-4.06,6.33,6.33,0,0,1,.86-.06,5.94,5.94,0,0,1,4.79,2.55,2.44,2.44,0,0,0,1.8.79h1.21a43.05,43.05,0,0,1,10.74,1c12.83,3.24,21.91,11.16,27,23.53a3.8,3.8,0,0,0,1.31,1.65,6.88,6.88,0,0,1,2.53,3.14,2.55,2.55,0,0,0,1.36,1.34,6,6,0,0,1,1.89,10.24,2.4,2.4,0,0,0-.72,1.85q1.23,11.93,2.53,23.85l.34,3.25c.45,4.12.9,8.25,1.35,12.44l.42,3.83H402l-1.21,0a10.34,10.34,0,0,1-4.6-.83.71.71,0,0,0-.32-.07.77.77,0,0,0-.39.11.74.74,0,0,0-.35.63V372a.74.74,0,0,0,.74.74h6.22c2.1,0,3.08,1,3.09,3.1v.66q0,1.08,0,2.16a2.61,2.61,0,0,1-2.65,2.7H379a2.6,2.6,0,0,1-2.61-2.64c0-1,0-2.06,0-3.08a2.64,2.64,0,0,1,2.81-2.89h6.5a.73.73,0,0,0,.74-.71l0-.39c0-.25,0-.47,0-.7v-3.59c0-3.12,0-6.24,0-9.36a2.16,2.16,0,0,0-1.25-2.14A8.35,8.35,0,0,1,384,355l-.23-.19c-2.09-1.66-2.64-3.24-1.92-5.44A38.92,38.92,0,0,0,383,344c.13-.77.27-1.55.42-2.32a.74.74,0,0,0-.48-.85c-14.38-5.1-23.71-14.71-28.52-29.39a.74.74,0,0,0-.7-.51h0a.75.75,0,0,0-.71.51c-4.77,14.64-14.1,24.25-28.5,29.4a.73.73,0,0,0-.48.83l.27,1.4c.25,1.29.5,2.6.76,3.9.1.51.21,1,.32,1.52.21,1,.42,2,.57,3a1.49,1.49,0,0,1-.12.91c-.81.84-1.68,1.66-2.53,2.45l-1.44,1.36a2.27,2.27,0,0,0-.86,1.46c0,3.88,0,7.82,0,11.63v2.49a1,1,0,0,0,.11.43l.05.13a.73.73,0,0,0,.69.48h6c2.25,0,3.21,1,3.21,3.18v.85c0,.66,0,1.32,0,2a2.6,2.6,0,0,1-2.62,2.62ZM305,374.73a.74.74,0,0,0-.74.74v3.25a.74.74,0,0,0,.74.74h23.45a.74.74,0,0,0,.74-.74v-3.25a.74.74,0,0,0-.74-.74Zm74.08,0a.75.75,0,0,0-.74.75v3.26a.74.74,0,0,0,.74.74h23.45a.74.74,0,0,0,.74-.74v-3.26a.75.75,0,0,0-.74-.75Zm-60.83-17.13-1.64.22a.74.74,0,0,0-.65.77,9.16,9.16,0,0,1-1.47,5.88,1.32,1.32,0,0,0-.21.72V372a.74.74,0,0,0,.74.74h3.32a.74.74,0,0,0,.74-.74V358.3a.75.75,0,0,0-.74-.74Zm70.95,0a.79.79,0,0,0-.48.18.77.77,0,0,0-.26.57V372a.74.74,0,0,0,.74.74h3.3a.74.74,0,0,0,.74-.74v-6.49a1.76,1.76,0,0,0-.22-1,9.24,9.24,0,0,1-1.46-5.87.76.76,0,0,0-.64-.78l-1.61-.24Zm7.42-31.32a.69.69,0,0,0-.49.19c-.2.17-.39.36-.58.53a8.22,8.22,0,0,1-1.13,1,2.2,2.2,0,0,0-1,2q0,8.35,0,16.7,0,6.39,0,12.78a6.27,6.27,0,0,0,6.64,6.6c.22,0,.45,0,.69,0a.74.74,0,0,0,.51-.27.73.73,0,0,0,.17-.55l-4.1-38.27a.75.75,0,0,0-.47-.62A.84.84,0,0,0,396.6,326.22Zm-85.72-.08a.76.76,0,0,0-.74.67L306,365.1a.75.75,0,0,0,.64.82,8.24,8.24,0,0,0,1,.07,6.17,6.17,0,0,0,6.37-6.21c0-9.21,0-18.57,0-27.63v-2.49a2.16,2.16,0,0,0-.57-1.4c-.45-.46-.93-.88-1.44-1.34l-.65-.58A.74.74,0,0,0,310.88,326.14Zm77.72,2.74a.75.75,0,0,0-.69.46l0,.1a1.77,1.77,0,0,0-.12.35l-.22,1.11c-1.31,6.46-2.65,13.14-3.94,19.72a2.31,2.31,0,0,0,.52,1.84,10,10,0,0,0,6.54,3.37h.08a.75.75,0,0,0,.74-.74V330a.73.73,0,0,0-.62-.73l-2.12-.36Zm-69.66,0h-.14l-2.2.39a.74.74,0,0,0-.61.73v25a.75.75,0,0,0,.22.53.78.78,0,0,0,.52.21h0a9.75,9.75,0,0,0,6.38-3,2.57,2.57,0,0,0,.73-2.55c-.66-3.13-1.28-6.27-1.9-9.4l-.75-3.78c-.39-1.94-.78-3.87-1.18-5.82l-.36-1.79A.74.74,0,0,0,318.94,328.86ZM352,298.4a.76.76,0,0,0-.43.14l-2,1.46a.76.76,0,0,0-.29.74c.64,3.48.45,4.13-2,7a3.1,3.1,0,0,0-.56,1.22,36.33,36.33,0,0,1-22.09,24.64c-.32.14-.65.26-1,.38l-.46.18a.74.74,0,0,0-.46.83l.1.51c.13.71.26,1.38.4,2a3.66,3.66,0,0,0,.14.51l.08.27a.7.7,0,0,0,.37.45.67.67,0,0,0,.34.09.69.69,0,0,0,.24-.05,41.6,41.6,0,0,0,23.16-19.25,40.88,40.88,0,0,0,5.25-20.41.76.76,0,0,0-.41-.66A.81.81,0,0,0,352,298.4Zm6.75-7.94a.71.71,0,0,0-.62.34c-.24.38-.43.74-.62,1.1a4,4,0,0,1-1,1.42c-2.11,1.39-2,3.44-1.89,4.94q0,.36,0,.72v.63c.44,15,7,26.73,19.55,35a35.22,35.22,0,0,0,8.94,4.19.83.83,0,0,0,.22,0,.72.72,0,0,0,.38-.1.76.76,0,0,0,.35-.49l.64-3.23a.74.74,0,0,0-.44-.83l-1.2-.48c-.85-.34-1.65-.66-2.42-1-12.43-6.06-19.48-16.06-20.94-29.73a62.9,62.9,0,0,1-.22-7.13c0-1.11,0-2.21,0-3.32V291.2a.73.73,0,0,0-.53-.71Zm-26,20.36a.77.77,0,0,0-.39.11c-2.43,1.51-2.51,1.58-4,3.79a1.27,1.27,0,0,1-.1.12,1.6,1.6,0,0,0-.36.58l-.08.23a2.72,2.72,0,0,0-.23,1.36,5.91,5.91,0,0,1-3.65,6.65,2.75,2.75,0,0,0-1.79,1.84,4.22,4.22,0,0,1-.33.61,2.59,2.59,0,0,0-.56,1.52,15.52,15.52,0,0,0,.5,2.84c.08.38.18.77.26,1.16a.71.71,0,0,0,.37.5.64.64,0,0,0,.35.1.75.75,0,0,0,.26-.05,34.78,34.78,0,0,0,19.85-18.08.74.74,0,0,0-.67-1.07.7.7,0,0,0-.31.07,8.23,8.23,0,0,1-3.47.88c-1.9,0-3.55-.94-5.05-2.87A.72.72,0,0,0,332.8,310.82Zm29.37-20.11a.77.77,0,0,0-.44.14.75.75,0,0,0-.31.6c0,1,0,1.94,0,2.86,0,2,0,3.88,0,5.77.37,11.55,5.22,20.84,14.4,27.6a31.09,31.09,0,0,0,8.65,4.47,1,1,0,0,0,.24,0,.72.72,0,0,0,.4-.12.75.75,0,0,0,.34-.54,10,10,0,0,1,.3-1.46c.37-1.44.78-3.07-.53-4.68a1.11,1.11,0,0,0-.25-.48l-.09-.1a8.38,8.38,0,0,0-.95-.93c-.44-.34-.9-.68-1.35-1-.61-.46-1.25-.94-1.85-1.43a5.43,5.43,0,0,1-.62-.64,7.65,7.65,0,0,0-.75-.76,26.07,26.07,0,0,1-9.53-17.73c-.17-1.61-.18-3.29-.19-4.91,0-.94,0-1.88,0-2.82,0-.37-.21-1.4-.92-1.66-1.58-.58-3.15-1.11-4.82-1.67l-1.48-.5A.59.59,0,0,0,362.17,290.71ZM312.6,322.2c-.19,2.2.53,3.71,2.19,4.6a4.11,4.11,0,0,0,5.89-4.6c.26,0,.52,0,.75,0a4.09,4.09,0,0,0,3.88-2.14,3.85,3.85,0,0,0-.17-4.25A4.08,4.08,0,0,0,321.5,314a6.51,6.51,0,0,0-.75,0c.13-2.34-.55-3.77-2.17-4.61a4.13,4.13,0,0,0-1.92-.5,4.2,4.2,0,0,0-2.51.9,4.09,4.09,0,0,0-1.46,4.22,8,8,0,0,0-.82-.05,4,4,0,0,0-3.63,1.83,3.86,3.86,0,0,0-.07,4.46,4.08,4.08,0,0,0,3.68,1.94C312.09,322.24,312.34,322.22,312.6,322.2Zm74.13,0a5.2,5.2,0,0,0,1.16,3.87,3.78,3.78,0,0,0,2.84,1.22h.08a3.8,3.8,0,0,0,2.85-1.18,5.27,5.27,0,0,0,1.2-3.91,6.76,6.76,0,0,0,.76.05,4.12,4.12,0,0,0,3.69-1.94,3.86,3.86,0,0,0,0-4.37,4.1,4.1,0,0,0-3.66-1.92c-.24,0-.5,0-.77,0a4.25,4.25,0,0,0-2-4.52,3.93,3.93,0,0,0-2.06-.6,4,4,0,0,0-2.3.76,4.35,4.35,0,0,0-1.77,4.36,6.18,6.18,0,0,0-.73,0,4.06,4.06,0,0,0-3.71,1.94,3.88,3.88,0,0,0,0,4.36,4.1,4.1,0,0,0,3.68,1.93A7.09,7.09,0,0,0,386.73,322.19Zm-14.37-27.27a.64.64,0,0,0-.33.08.73.73,0,0,0-.41.6c-.7,8.64,1.62,15.59,7.1,21.24a.75.75,0,0,0,.53.22h.16a.77.77,0,0,0,.54-.48,6,6,0,0,1,3.85-4.09,1.75,1.75,0,0,0,1.09-.83,1.88,1.88,0,0,0,0-1.44,29.37,29.37,0,0,0-5.46-9.46,28.22,28.22,0,0,0-6.65-5.72A.68.68,0,0,0,372.36,294.92Zm-49.07,15.93a.74.74,0,0,0-.09,1.35l2.94,1.55a.73.73,0,0,0,.35.09.69.69,0,0,0,.34-.09.74.74,0,0,0,.39-.56l.36-2.63,3.23-.63a.74.74,0,0,0,.31-1.32l-2.24-1.73a.74.74,0,0,0-.45-.15.5.5,0,0,0-.17,0,.76.76,0,0,0-.5.39l-1.19,2.41a.61.61,0,0,0-.05.12Zm11.22-3.9c-.22,2.24.48,3.77,2.16,4.68a3.84,3.84,0,0,0,4.34-.33,4.11,4.11,0,0,0,1.57-4.24h.85a5.15,5.15,0,0,0,.56,0,4.15,4.15,0,0,0,3.11-1.89,3.94,3.94,0,0,0,.41-3.43,2.27,2.27,0,0,0-1.22-1.22c-.83-.35-1.68-.66-2.5-.95l-.91-.33a.73.73,0,0,0-.25,0h-.08a.74.74,0,0,0-.08-.66l-.22-.33-.26-.39a9.54,9.54,0,0,0-3.48-3.4,2.07,2.07,0,0,0-1-.23,2.15,2.15,0,0,0-1,.23,4,4,0,0,0-1.94,4.47l-.73,0a4.07,4.07,0,0,0-3.93,2.22,3.84,3.84,0,0,0,.34,4.34,3.89,3.89,0,0,0,3.27,1.64A4.89,4.89,0,0,0,334.51,307Zm-11.11-3a2.41,2.41,0,1,0,2.44,2.4,2.42,2.42,0,0,0-2.44-2.4Zm34.3-20.16h-1a.76.76,0,0,0-.65.43.74.74,0,0,0,.09.77l.3.38a6.76,6.76,0,0,1,.5.66l.15.22a2.47,2.47,0,0,1,.4.74,2.28,2.28,0,0,0,2.3,1.76c11.82,1.33,20.5,7.46,25.82,18.22l.48,1a.75.75,0,0,0,.66.4,1,1,0,0,0,.29-.05l3-1.27a.74.74,0,0,0,.4-1A36,36,0,0,0,357.7,283.75Zm-39.23,18.44a4.11,4.11,0,0,0-2.83,1.09,3.82,3.82,0,0,0-1.36,3.2.74.74,0,0,0,.74.68h3.14a.76.76,0,0,0,.71-.5l1.17-3.39,0-.13h.13a.75.75,0,0,0,.43-.13,4.78,4.78,0,0,1,2.77-1,5,5,0,0,1,2.94,1.09.71.71,0,0,0,.44.15.66.66,0,0,0,.27-.06.74.74,0,0,0,.46-.55l.25-1.38a.73.73,0,0,0-.52-.85,6.67,6.67,0,0,1-3.7-2.46,1.52,1.52,0,0,0-1.2-.48,1.79,1.79,0,0,0-.64.11,4.1,4.1,0,0,0-2.28,4.7A5.2,5.2,0,0,0,318.47,302.19Zm-2.12-13.34a23.77,23.77,0,0,0-11.26,3.87.73.73,0,0,0-.25,1,16.39,16.39,0,0,0,6.54,6.82,6,6,0,0,0,2.82,1,3.26,3.26,0,0,0,2.11-.83,2.24,2.24,0,0,1,.32-.17,1.94,1.94,0,0,0,.9-.69,9.16,9.16,0,0,0,.76-1.58l.27-.64a.74.74,0,0,0,0-.65.77.77,0,0,0-.53-.38l-5.79-1,.31-1.84,5.39.88H318a.74.74,0,0,0,.58-.27.74.74,0,0,0,.11-.73l-1.63-4.3a.75.75,0,0,0-.7-.48Zm26.57,4.71c-.19,2.21.53,3.71,2.19,4.6a4.11,4.11,0,0,0,5.88-4.63l.57,0c2.75,0,4.55-1.56,4.6-4a3.85,3.85,0,0,0-1.05-2.83,5.14,5.14,0,0,0-3.76-1.33h-.27a4.35,4.35,0,0,0-1.91-4.46,4.06,4.06,0,0,0-2.17-.67,4.16,4.16,0,0,0-2.3.75,4.34,4.34,0,0,0-1.77,4.36l-.64,0a4.13,4.13,0,0,0-3.87,2,3.9,3.9,0,0,0,.13,4.36,4.07,4.07,0,0,0,3.63,1.84C342.41,293.6,342.66,293.58,342.92,293.56Zm-18.55.33a7,7,0,0,0,0,1,3.85,3.85,0,0,0,3.82,3.62,4.07,4.07,0,0,0,2.14-.63,6.29,6.29,0,0,1,.78-.38,6.9,6.9,0,0,0,.67-.32,1.7,1.7,0,0,0,1-.9,6.47,6.47,0,0,1,3.16-3.8.73.73,0,0,0,.37-.78c0-.22-.09-.42-.13-.63A6.47,6.47,0,0,1,336,290a7.52,7.52,0,0,1,.11-1.7,2.06,2.06,0,0,0-2.16-2.91,6.08,6.08,0,0,0-.61,0h-.77c.18-2.18-.53-3.68-2.18-4.58a4,4,0,0,0-1.92-.51,4.18,4.18,0,0,0-4,5.14l-.61,0c-2.72,0-4.5,1.56-4.56,4a3.79,3.79,0,0,0,1.06,2.83,5.07,5.07,0,0,0,3.75,1.34h.26C324.37,293.67,324.37,293.78,324.37,293.89Zm-13-13.54a15.11,15.11,0,0,0-1.66.09.81.81,0,0,0-.5.29.73.73,0,0,0-.14.55l.83,5.9a.73.73,0,0,0,.73.63h.11l1.24-.18,5.37-.75a1.71,1.71,0,0,0,1-.49c.5-.53,1-1.08,1.47-1.62l.55-.62a.73.73,0,0,0-.11-1.09A15.55,15.55,0,0,0,311.33,280.35Zm5.38,42.08a5,5,0,0,1-2.91-1.06.41.41,0,0,1-.38-.38,4.45,4.45,0,0,1,0-5.74.7.7,0,0,0,.14-.36.72.72,0,0,0,.27-.09,6,6,0,0,1,2.84-1,6.24,6.24,0,0,1,3,1.07l.16.06a.85.85,0,0,0,.14.34,4.42,4.42,0,0,1,0,5.75.43.43,0,0,1-.48.43A4.64,4.64,0,0,1,316.71,322.43Zm-.09-6.73a2.42,2.42,0,1,0,1.81,4.08,2.37,2.37,0,0,0,.67-1.72,2.44,2.44,0,0,0-2.42-2.36Zm74.17,6.73a5,5,0,0,1-2.88-1,.7.7,0,0,0-.23-.11.85.85,0,0,0-.13-.31,4.4,4.4,0,0,1,0-5.73.85.85,0,0,0,.11-.26.9.9,0,0,0,.28-.13,4.43,4.43,0,0,1,5.73,0,1,1,0,0,0,.27.11.74.74,0,0,0,.12.29,4.43,4.43,0,0,1,0,5.73.8.8,0,0,0-.11.25.68.68,0,0,0-.27.13A4.91,4.91,0,0,1,390.79,322.43Zm0-6.73a2.42,2.42,0,1,0,1.74,4.11,2.37,2.37,0,0,0,.7-1.71,2.43,2.43,0,0,0-2.42-2.4Zm-52.17-8.43a5,5,0,0,1-2.9-1.06.71.71,0,0,0-.31-.13.79.79,0,0,0-.13-.35,4.41,4.41,0,0,1,.08-5.66.71.71,0,0,0,.13-.35.58.58,0,0,0,.22-.08,6.12,6.12,0,0,1,2.81-1,8,8,0,0,1,3,1,.7.7,0,0,0,.31.07h.08a.75.75,0,0,0,.09.68c1.24,1.73,1.17,3.54-.2,5.54a.77.77,0,0,0-.12.24.73.73,0,0,0-.34.14A4.69,4.69,0,0,1,338.6,307.27Zm0-6.73a2.43,2.43,0,0,0-2.42,2.39,2.44,2.44,0,0,0,2.39,2.45h0a2.42,2.42,0,0,0,.07-4.84Zm8.44-6.75a5,5,0,0,1-2.9-1.06.66.66,0,0,0-.27-.12.8.8,0,0,0-.11-.25,4.48,4.48,0,0,1,0-5.77,1,1,0,0,0,.12-.25.58.58,0,0,0,.25-.12,4.48,4.48,0,0,1,5.75,0,1.28,1.28,0,0,0,.24.11.8.8,0,0,0,.12.27,4.46,4.46,0,0,1,0,5.74.8.8,0,0,0-.13.32.72.72,0,0,0-.38.13A4.67,4.67,0,0,1,347,293.79Zm0-6.73a2.42,2.42,0,0,0,0,4.84h0a2.41,2.41,0,0,0,1.78-4.09,2.47,2.47,0,0,0-1.7-.75Zm-18.23,6.7a7.22,7.22,0,0,1-3.3-1l-.1-.05a.81.81,0,0,0-.14-.33,4.46,4.46,0,0,1,0-5.74.75.75,0,0,0,.13-.32.73.73,0,0,0,.37-.14,4.76,4.76,0,0,1,2.76-1,5,5,0,0,1,2.9,1.07.79.79,0,0,0,.35.13,1,1,0,0,0,0,.1c1.41,2.79,1.32,4.55-.29,6.11A3.71,3.71,0,0,1,328.77,293.76Zm-.3-6.7a2.42,2.42,0,0,0-.07,4.84h0a2.42,2.42,0,1,0,.15-4.83Z"/><path class="cls-5" d="M350.27,686.76a1.65,1.65,0,0,0-2.29.65c-1,1.65-2,3.33-3,5a4.51,4.51,0,0,1-.56-.17,26.42,26.42,0,0,0-16.58-2.06,16.24,16.24,0,0,1-10.95-2.07,114.28,114.28,0,0,1,19.91-29.64c3,1.85,5.92,3.67,8.87,5.47a1.77,1.77,0,0,0,2.62-.35,1.74,1.74,0,0,0-.76-2.53c-3-1.85-5.93-3.69-8.91-5.49a3.24,3.24,0,0,0-4.38.62,108.56,108.56,0,0,0-20.76,31.35c-3.35,7.93-2.83,15.78,2.4,23.16l-9.37,15.22c-.73-.45-1.35-.85-2-1.21a6.59,6.59,0,0,0-5.64-.59c-2.13.71-3.33,2.35-4.32,4.22v1.61a7.51,7.51,0,0,0,1.34,1.5q6.67,4.2,13.41,8.29a2.73,2.73,0,0,0,3.54-.61,6.77,6.77,0,0,0-1.25-10c-.69-.47-1.4-.9-2.16-1.39,3.1-5,6.15-10,9.24-15a.88.88,0,0,1,.81-.3c3.71,1.1,7.21.14,10.7-1a1.74,1.74,0,0,0,1.33-2.28c-.35-1-1.25-1.3-2.47-1-1.44.4-2.88.84-4.34,1.1-4.31.77-7.24-.88-8.5-5.06a31.72,31.72,0,0,1-1.23-7.1,37.65,37.65,0,0,1,.51-5.77c.45.16.59.2.72.26a22.44,22.44,0,0,0,14,1.7,20.4,20.4,0,0,1,4.35-.27,21,21,0,0,1,8.37,2.36c-2.41,3.19-4.44,6.51-7.44,9.06-1.05.88-1.23,1.87-.57,2.68s1.76.87,2.8-.11a26.25,26.25,0,0,0,3.57-3.74c3.17-4.47,6.19-9.05,9.27-13.59a5.88,5.88,0,0,0,.35-.6A1.7,1.7,0,0,0,350.27,686.76ZM309.67,732c1.52,1,1.77,2.68.77,4.45l-12.17-7.52c1-1.68,2.66-2.25,4.26-1.33C305,729,307.34,730.45,309.67,732Zm102.56-3.47c-1.87-4.67-6.48-5.87-9.94-3.83-.65.38-1.3.78-2,1.22-3.19-5.19-6.34-10.31-9.33-15.15a35.35,35.35,0,0,0,2.59-4.55,24.56,24.56,0,0,0-.64-19.8,113.06,113.06,0,0,0-9.12-16.11c-.41-.6-.82-1.21-1.25-1.79-.75-1-1.7-1.26-2.56-.64a1.73,1.73,0,0,0-.28,2.55c.27.41.57.82.85,1.23a113.79,113.79,0,0,1,9.38,16.47,18.47,18.47,0,0,1-11.35,2.06c-1.22-.15-2.43-.38-3.65-.51a1.76,1.76,0,0,0-2,1.56,1.74,1.74,0,0,0,1.66,1.84c.76.11,1.52.18,2.28.32a22.05,22.05,0,0,0,13.47-1.6c.26-.11.54-.19.85-.3a21.59,21.59,0,0,1-.95,14,6.43,6.43,0,0,1-6.5,4,21.94,21.94,0,0,1-7.85-2.05c-5.48-2.5-8.65-7.28-11.92-12,.1-.09.14-.16.21-.19l2.77-1.1c1.17-.48,1.64-1.37,1.26-2.34a1.78,1.78,0,0,0-2.51-.86c-1.25.46-2.48.95-3.78,1.45a115.24,115.24,0,0,1-11-22.11L370,658.44c1.65,1.91,3.26,3.81,4.89,5.69.92,1.08,1.83,1.24,2.67.52s.8-1.73-.07-2.74c-1.46-1.73-2.93-3.46-4.44-5.15-1.9-2.13-3.18-2.29-5.62-.78l-17.9,11.07c-2.19,1.35-2.64,2.71-1.72,5.14a121,121,0,0,0,16.22,29.45c3.37,4.52,7.41,8.08,12.8,9.9,3.26,1.11,6.58,1.93,10,1a1.12,1.12,0,0,1,1.53.63c2.77,4.56,5.58,9.1,8.37,13.64.18.29.33.59.53,1l-1.31.82c-4.07,2.53-4.9,6.65-2.13,10.54a2.78,2.78,0,0,0,3.84.92q6.74-4.1,13.4-8.29A2.61,2.61,0,0,0,412.23,728.51Zm-15.67,8.2c-1.29-1.64-1.14-3.62.46-4.68q3.54-2.35,7.22-4.46c1.69-1,3.34-.29,4.46,1.64ZM358.26,631c-1.56-.58-3.23-.87-4.91-1.31-1.71.44-3.41.75-5,1.31a3.23,3.23,0,0,0-1.73,5q1.83,3,3.76,5.93a3.26,3.26,0,0,0,5.76,0c1.31-2,2.57-4,3.81-6A3.2,3.2,0,0,0,358.26,631Zm-5,9.12c-1.28-2-2.47-3.88-3.76-5.91a9.26,9.26,0,0,1,7.51,0Zm-14.4,6q-.48-3-1.09-6a2.89,2.89,0,0,0-3.73-2.29,10.27,10.27,0,0,0-6.64,6.07,2.74,2.74,0,0,0,1.38,3.7c2.26.8,4.61,1.35,6.45,1.87C337.67,649.57,339.15,648,338.86,646.11Zm-8-1.39a6.71,6.71,0,0,1,3.68-3.4l.83,4.58Zm48.39-1.16a10.34,10.34,0,0,0-6.3-5.67,2.84,2.84,0,0,0-3.85,2q-.74,3.2-1.16,6.44c-.22,1.72,1.18,3.12,3.39,3.14,1.72-.46,3.92-1,6.07-1.64A2.92,2.92,0,0,0,379.21,643.56Zm-7.79,2.35c.29-1.58.54-3,.83-4.59a6.81,6.81,0,0,1,3.7,3.4Zm15.1,4.29a36.19,36.19,0,0,1-2.43,4,1.86,1.86,0,0,1-1.82,0,2.05,2.05,0,0,1-.69-1.81,10.52,10.52,0,0,1,1.67-3.22,2,2,0,0,1,1.78-.48C385.56,648.9,385.93,649.6,386.52,650.2Zm-64.07,11a12.08,12.08,0,0,1-3.33,1.71,2,2,0,0,1-1.7-.74,1.83,1.83,0,0,1,0-1.73,43.17,43.17,0,0,1,4.06-2.56c.62.61,1.34,1,1.48,1.52A2.07,2.07,0,0,1,322.45,661.19Zm.72-6.6c-.7,0-1.13-.84-1.48-1.69-.47-1.14-1.72-2.13-.83-3.57a1.61,1.61,0,0,1,2.71-.07,17.47,17.47,0,0,1,1.66,3.25C325.62,653.55,324.72,654.61,323.17,654.59Zm66.17,7.55a2.08,2.08,0,0,1-1.79.73,10.57,10.57,0,0,1-3.23-1.67,2,2,0,0,1-.51-1.78c.16-.56.89-.95,1.48-1.52a36.68,36.68,0,0,1,4,2.41A1.9,1.9,0,0,1,389.34,662.14Zm6.91,78.67a3.32,3.32,0,0,1-2.69-1.5,7.18,7.18,0,0,1,2.23-11.06l1-.64,0,0c-.12-.21-.22-.41-.34-.59L394,722.93c-2-3.19-3.93-6.38-5.87-9.59-.32-.52-.47-.63-1.12-.46-3.56,1-7,.1-10.24-1-5-1.67-9.2-5-13-10a121.84,121.84,0,0,1-16.27-29.53c-1-2.59-.46-4.16,1.86-5.6l17.91-11.07c2.6-1.61,4.08-1.4,6.09.86,1.55,1.73,3,3.49,4.45,5.15,1,1.16,1,2.44,0,3.26-.58.5-1.78,1.09-3.19-.56-1.09-1.25-2.17-2.51-3.26-3.79L370,658.92l-18.69,11.55A113.78,113.78,0,0,0,362,692l1-.37c.85-.34,1.69-.66,2.54-1a2.1,2.1,0,1,1,1.51,3.89l-1.6.64-1,.4.2.28c3,4.38,6.2,8.91,11.37,11.26a21.4,21.4,0,0,0,7.71,2,6,6,0,0,0,6.13-3.79,20.93,20.93,0,0,0,1-13.36,4.29,4.29,0,0,0-.43.16,22.53,22.53,0,0,1-13.7,1.62c-.47-.08-.94-.14-1.4-.2l-.87-.11a2.07,2.07,0,0,1-1.23-3.66,2.32,2.32,0,0,1,1.72-.47c.72.07,1.43.18,2.15.29l1.5.22A18.11,18.11,0,0,0,389.41,688a109.81,109.81,0,0,0-9.2-16.1l-.31-.45c-.18-.26-.37-.53-.54-.79a2.09,2.09,0,1,1,3.45-2.33q.65.88,1.26,1.8a115.71,115.71,0,0,1,9.15,16.17,25,25,0,0,1,.65,20.08,18.18,18.18,0,0,1-1.7,3.1c-.26.43-.54.86-.8,1.31l9,14.65.5-.3,1.22-.73a7.06,7.06,0,0,1,5.85-.64,7.78,7.78,0,0,1,4.62,4.65h0a3,3,0,0,1-1.27,3.68c-4.58,2.87-9.09,5.66-13.41,8.29A3.15,3.15,0,0,1,396.25,740.81Zm-8.83-28.74a1.45,1.45,0,0,1,1.3.89q2.92,4.8,5.87,9.59l2.49,4.05c.13.2.24.4.36.62l.36.64-1.61,1a6.45,6.45,0,0,0-2,10,2.41,2.41,0,0,0,3.35.82c4.31-2.62,8.82-5.41,13.4-8.28a2.25,2.25,0,0,0,1-2.77h0a7,7,0,0,0-4.17-4.23,6.32,6.32,0,0,0-5.23.58l-1.21.73-1.13.68-9.64-15.66.11-.19c.31-.53.63-1,.94-1.52a18.22,18.22,0,0,0,1.62-3,24.18,24.18,0,0,0-.63-19.5,113.18,113.18,0,0,0-9.09-16.06c-.4-.6-.81-1.2-1.24-1.79a1.4,1.4,0,0,0-2-.55,1.39,1.39,0,0,0-.18,2c.16.26.34.52.52.77l.32.46a112.13,112.13,0,0,1,9.4,16.53l.15.32-.31.16a18.75,18.75,0,0,1-11.57,2.1c-.51-.06-1-.14-1.53-.22-.7-.1-1.4-.21-2.11-.29a1.6,1.6,0,0,0-1.17.31,1.33,1.33,0,0,0,.87,2.35c.28,0,.56.08.85.11.48.06,1,.12,1.45.21a21.83,21.83,0,0,0,13.25-1.56,5.14,5.14,0,0,1,.59-.22l.67-.23.1.39a21.75,21.75,0,0,1-1,14.21,6.74,6.74,0,0,1-6.86,4.25,22.27,22.27,0,0,1-8-2.09c-5.35-2.43-8.56-7-11.67-11.5l-.59-.85.3-.29a.76.76,0,0,1,.27-.2l1.17-.46,1.59-.64c1-.4,1.36-1.07,1-1.86s-1-1-2-.64-1.67.63-2.52,1l-1.53.59-.17-.25a114.56,114.56,0,0,1-11.07-22.18l-.11-.29L370.1,658l1.84,2.15q1.62,1.9,3.25,3.79c1,1.19,1.72.85,2.15.48.65-.55.61-1.38-.11-2.22-1.4-1.65-2.89-3.41-4.43-5.14-1.76-2-2.87-2.13-5.15-.72l-17.91,11.07c-2,1.26-2.42,2.44-1.56,4.7a121.28,121.28,0,0,0,16.17,29.36c3.69,5,7.81,8.14,12.62,9.77,3.59,1.22,6.63,1.85,9.8,1A2.4,2.4,0,0,1,387.42,712.07ZM310.7,740.5a3.07,3.07,0,0,1-1.61-.45c-4.6-2.8-9.11-5.59-13.4-8.29a4.44,4.44,0,0,1-1-1.08,4.66,4.66,0,0,0-.39-.49l-.09-.11v-1.85l.05-.08a8.19,8.19,0,0,1,4.52-4.39,7,7,0,0,1,5.95.62c.44.25.87.52,1.34.81l.33.21,7.23-11.74,1.82-2.95c-5-7.21-5.79-15.05-2.3-23.33,4.65-11,11.46-21.31,20.82-31.45a3.64,3.64,0,0,1,4.85-.69c2.84,1.72,5.62,3.44,8.91,5.5a2.52,2.52,0,0,1,1.19,1.52,2,2,0,0,1-.31,1.53,2.15,2.15,0,0,1-3.13.46l-6.21-3.84-2.4-1.48a114.85,114.85,0,0,0-19.49,29,15.69,15.69,0,0,0,10.4,1.87,26.69,26.69,0,0,1,16.8,2.08,1.23,1.23,0,0,0,.23.08l.8-1.33c.69-1.15,1.38-2.3,2.09-3.43a2,2,0,0,1,2.79-.78h0a2.06,2.06,0,0,1,.8,2.87,6,6,0,0,1-.37.65l-2.49,3.68c-2.19,3.26-4.47,6.64-6.78,9.92a22.23,22.23,0,0,1-3,3.17c-.22.2-.45.41-.66.62a2.65,2.65,0,0,1-1.94.84,2,2,0,0,1-1.41-.77c-.8-1-.56-2.2.62-3.2a36.37,36.37,0,0,0,5.74-6.74c.45-.63.9-1.26,1.37-1.89a19.82,19.82,0,0,0-7.81-2.13,20.23,20.23,0,0,0-4.28.26A22.68,22.68,0,0,1,316,692l-.24-.1c-.05.48-.12.94-.18,1.4a19.64,19.64,0,0,0-.28,3.84,31.77,31.77,0,0,0,1.21,7c1.19,3.94,3.91,5.55,8.08,4.8,1.21-.21,2.43-.56,3.61-.89l.7-.2c1.44-.4,2.5,0,2.92,1.19a1.92,1.92,0,0,1-.06,1.56,2.49,2.49,0,0,1-1.51,1.2c-3.58,1.17-7.11,2.12-10.91,1a.74.74,0,0,0-.4.14c-2.73,4.38-5.44,8.78-8.18,13.24l-.86,1.4.38.25c.51.32,1,.63,1.48,1a7.15,7.15,0,0,1,1.33,10.58A3.22,3.22,0,0,1,310.7,740.5Zm-15.78-10.69c.11.13.22.28.32.42a3.67,3.67,0,0,0,.84.9c4.29,2.7,8.8,5.49,13.4,8.29a2.35,2.35,0,0,0,3.07-.54,6.42,6.42,0,0,0,1.53-5,6.34,6.34,0,0,0-2.71-4.45c-.47-.33-.95-.63-1.45-.95l-1-.63,1.25-2c2.74-4.46,5.45-8.86,8.18-13.24a1.28,1.28,0,0,1,1.24-.46c3.6,1.07,7,.14,10.47-1a1.7,1.7,0,0,0,1.07-.83,1.23,1.23,0,0,0,0-1c-.36-1-1.3-.92-2-.72l-.7.2c-1.2.33-2.43.68-3.68.9-4.54.82-7.62-1-8.92-5.31a32.15,32.15,0,0,1-1.24-7.19,20.89,20.89,0,0,1,.28-4c.09-.6.17-1.21.23-1.83l0-.47.8.28.4.14a21.91,21.91,0,0,0,13.8,1.67,20,20,0,0,1,13,2.12l.41.2-.27.36c-.56.74-1.1,1.49-1.64,2.24a36.63,36.63,0,0,1-5.86,6.88c-.51.43-1.25,1.28-.52,2.16a1.22,1.22,0,0,0,.88.5,2,2,0,0,0,1.38-.64l.66-.63a20.57,20.57,0,0,0,2.86-3c2.31-3.27,4.58-6.64,6.78-9.91l2.48-3.68a4.37,4.37,0,0,0,.32-.55,1.33,1.33,0,0,0-.49-1.9h0a1.29,1.29,0,0,0-1.8.52c-.71,1.13-1.4,2.28-2.08,3.42l-.95,1.57-.14.24-.51-.14a1.85,1.85,0,0,1-.38-.13,26,26,0,0,0-16.35-2,16.61,16.61,0,0,1-11.2-2.11l-.3-.17.14-.31a115.57,115.57,0,0,1,20-29.75l.2-.22,2.92,1.8,6.21,3.84c.88.54,1.68.45,2.12-.24a1.25,1.25,0,0,0,.2-1,1.75,1.75,0,0,0-.85-1c-3.29-2.06-6.06-3.78-8.91-5.49a2.87,2.87,0,0,0-3.91.55c-9.31,10.08-16.07,20.3-20.69,31.24-3.41,8.1-2.62,15.77,2.37,22.81l.14.2-2.08,3.37L306.8,726.1l-.19.32-1-.6c-.46-.28-.89-.55-1.32-.79a6.19,6.19,0,0,0-5.34-.57,7.41,7.41,0,0,0-4.06,4Zm101.56,7.39-.21-.26a3.94,3.94,0,0,1-.91-3,3.24,3.24,0,0,1,1.46-2.19c2.37-1.58,4.81-3.08,7.24-4.47,1.82-1,3.73-.36,5,1.77l.18.31-.31.19L396.76,737Zm9.29-9.69a2.72,2.72,0,0,0-1.35.38c-2.41,1.38-4.83,2.88-7.19,4.44a2.46,2.46,0,0,0-1.13,1.7,3,3,0,0,0,.56,2.18l11.53-7.12A3,3,0,0,0,405.77,727.51ZM310.58,737,297.76,729l.2-.32c1.15-1.88,3-2.46,4.76-1.46,2.3,1.32,4.71,2.8,7.16,4.41h0c1.66,1.09,2,3,.88,4.94Zm-11.79-8.15,11.51,7.1a2.6,2.6,0,0,0-.83-3.61h0c-2.44-1.6-4.83-3.08-7.12-4.39A2.55,2.55,0,0,0,298.79,728.8Zm20.12-65.51a2.51,2.51,0,0,1-1.79-.91c-.36-.49-.45-1.85.05-2.25a27.91,27.91,0,0,1,2.91-1.87l1.19-.7.24-.15.21.2a6.53,6.53,0,0,0,.59.5,2.67,2.67,0,0,1,1,1.18,2.39,2.39,0,0,1-.63,2.19h0a12.08,12.08,0,0,1-3.44,1.77A1.12,1.12,0,0,1,318.91,663.29Zm2.5-4.95-1,.56a27.38,27.38,0,0,0-2.82,1.82,1.79,1.79,0,0,0,.09,1.23,1.65,1.65,0,0,0,1.29.59,11.3,11.3,0,0,0,3.22-1.65,1.78,1.78,0,0,0,.35-1.41c-.06-.24-.38-.49-.74-.79Zm66.38,4.93a1.34,1.34,0,0,1-.35,0,10.84,10.84,0,0,1-3.34-1.72,2.38,2.38,0,0,1-.65-2.18,2.69,2.69,0,0,1,1-1.21l.55-.47.2-.2.24.14,1.21.68a20.6,20.6,0,0,1,2.81,1.76,2.17,2.17,0,0,1,.16,2.33h0A2.63,2.63,0,0,1,387.79,663.27Zm-2.45-4.91-.39.32c-.36.3-.71.57-.79.85a1.7,1.7,0,0,0,.39,1.38,10.12,10.12,0,0,0,3.11,1.6,1.79,1.79,0,0,0,1.38-.58h0a1.73,1.73,0,0,0,0-1.33,20.86,20.86,0,0,0-2.71-1.69ZM323.19,655h0c-1,0-1.54-1.25-1.81-1.92a6.4,6.4,0,0,0-.46-.84c-.5-.81-1.12-1.81-.34-3.06a2,2,0,0,1,1.69-1,1.84,1.84,0,0,1,1.64.88,17.93,17.93,0,0,1,1.7,3.32,1.72,1.72,0,0,1-.2,1.6A2.61,2.61,0,0,1,323.19,655Zm0-.74h0a1.88,1.88,0,0,0,1.58-.67.94.94,0,0,0,.11-.9,16.13,16.13,0,0,0-1.62-3.18,1.2,1.2,0,0,0-1-.54,1.25,1.25,0,0,0-1.06.6c-.51.82-.2,1.4.34,2.28a5.79,5.79,0,0,1,.51,1c.3.72.67,1.46,1.13,1.46h0Zm60,.64a2,2,0,0,1-1.13-.29,2.44,2.44,0,0,1-.82-2.22A10.9,10.9,0,0,1,383,649a2.38,2.38,0,0,1,2.17-.62,2.5,2.5,0,0,1,1.17,1,6.37,6.37,0,0,0,.5.57l.2.2-.15.25c-.24.41-.47.82-.69,1.22a23.46,23.46,0,0,1-1.76,2.84A1.58,1.58,0,0,1,383.18,654.86Zm1.48-5.77a1.68,1.68,0,0,0-1.12.37,10.12,10.12,0,0,0-1.6,3.11,1.74,1.74,0,0,0,.55,1.41,1.7,1.7,0,0,0,1.31,0,21.3,21.3,0,0,0,1.7-2.74l.56-1-.34-.41c-.28-.34-.54-.66-.78-.72A1.27,1.27,0,0,0,384.66,649.09Zm-13.32.78h0a4,4,0,0,1-3.07-1.25,2.91,2.91,0,0,1-.69-2.31c.27-2.09.66-4.27,1.17-6.47a3.15,3.15,0,0,1,1.54-2.11,3.38,3.38,0,0,1,2.79-.19,10.74,10.74,0,0,1,6.52,5.87,3.56,3.56,0,0,1,.11,3,3.41,3.41,0,0,1-2.19,1.81c-1.56.47-3.14.88-4.53,1.24l-1.55.4Zm.47-11.8a2.42,2.42,0,0,0-1.21.31,2.48,2.48,0,0,0-1.18,1.62c-.5,2.18-.89,4.34-1.16,6.41a2.16,2.16,0,0,0,.52,1.73,3.29,3.29,0,0,0,2.47,1l1.5-.39c1.39-.36,3-.77,4.5-1.23a2.64,2.64,0,0,0,1.74-1.4,2.94,2.94,0,0,0-.11-2.4h0a10,10,0,0,0-6.09-5.47A3.11,3.11,0,0,0,371.81,638.07Zm-36.35,11.78h-.33l-1.67-.46c-1.49-.39-3.17-.84-4.8-1.42a2.74,2.74,0,0,1-1.59-1.49,3.46,3.46,0,0,1,0-2.7,10.56,10.56,0,0,1,6.86-6.28,3.19,3.19,0,0,1,2.6.26,3.45,3.45,0,0,1,1.61,2.3c.4,1.91.76,3.94,1.09,6h0a3.08,3.08,0,0,1-.73,2.59A4,4,0,0,1,335.46,649.85Zm-.17-.75a3.32,3.32,0,0,0,2.65-1,2.37,2.37,0,0,0,.55-2h0c-.33-2.07-.69-4.08-1.09-6a2.65,2.65,0,0,0-1.26-1.8,2.39,2.39,0,0,0-2-.21,9.91,9.91,0,0,0-6.41,5.86,2.71,2.71,0,0,0,0,2.11,2,2,0,0,0,1.16,1.1c1.6.57,3.27,1,4.74,1.41ZM371,646.42l1-5.62.43.18a7.22,7.22,0,0,1,3.89,3.57l.2.41Zm1.58-4.57-.64,3.55,3.51-.92A6.33,6.33,0,0,0,372.53,641.85ZM335.8,646.4,330.29,645l.2-.4a7.05,7.05,0,0,1,3.86-3.58l.43-.18Zm-4.44-1.92,3.5.91-.64-3.53A6.15,6.15,0,0,0,331.36,644.48Zm21.9-.37h0a3.87,3.87,0,0,1-3.2-1.92c-1.24-1.88-2.5-3.88-3.77-5.94a3.86,3.86,0,0,1-.47-3.34,3.74,3.74,0,0,1,2.4-2.23,33.57,33.57,0,0,1,3.5-.95l1.55-.37.09,0,.09,0c.52.14,1,.26,1.56.38a25.83,25.83,0,0,1,3.38.94h0a3.7,3.7,0,0,1,2.34,2.22,3.86,3.86,0,0,1-.47,3.29c-1.33,2.18-2.58,4.16-3.82,6A3.84,3.84,0,0,1,353.26,644.11Zm.09-14-1.47.36a29,29,0,0,0-3.42.92,3,3,0,0,0-1.95,1.78,3.16,3.16,0,0,0,.4,2.71c1.26,2,2.53,4,3.76,5.91a3.16,3.16,0,0,0,2.59,1.59h0a3.11,3.11,0,0,0,2.55-1.55c1.23-1.87,2.48-3.84,3.8-6a3.13,3.13,0,0,0,.41-2.66,3,3,0,0,0-1.89-1.77h0a28.89,28.89,0,0,0-3.3-.91C354.34,630.35,353.84,630.23,353.35,630.1Zm-.09,10.74-.32-.49c-1.27-2-2.47-3.88-3.75-5.91l-.24-.37.41-.17a9.57,9.57,0,0,1,7.79,0l.41.16Zm-3.21-6.42c1.09,1.72,2.13,3.34,3.21,5l3.19-5.06A8.83,8.83,0,0,0,350.05,634.42Z"/></g></svg>