<svg xmlns="http://www.w3.org/2000/svg" viewBox="0 0 547.14 801.22"><defs><style>.cls-1{fill:none;}.cls-1,.cls-3{stroke:#582957;stroke-miterlimit:10;stroke-width:5px;}.cls-2{fill:#582957;}.cls-3{fill:#fff;}.cls-4{fill:#333533;}.cls-5{fill:#d7a68d;}</style></defs><g id="Layer_2" data-name="Layer 2"><line class="cls-1" x1="273.24" y1="173.07" x2="273.24" y2="685.71"/><polygon class="cls-2" points="246.49 172.35 248.49 172.18 248.49 172.53 246.49 172.35"/><path class="cls-2" d="M252.24,171.92c1.25-.09,2.5-.13,3.75-.2V173c-1.25-.07-2.5-.11-3.75-.2Z"/><path class="cls-2" d="M259.74,171.57c1.25,0,2.5-.08,3.75-.1v1.77c-1.25,0-2.5-.06-3.75-.11Z"/><polygon class="cls-2" points="267.24 171.39 270.99 171.37 270.99 173.34 267.24 173.31 267.24 171.39"/><polygon class="cls-2" points="274.75 171.37 278.5 171.39 278.5 173.31 274.75 173.34 274.75 171.37"/><path class="cls-2" d="M282.25,171.47c1.25,0,2.5.05,3.75.1v1.57c-1.25.05-2.5.08-3.75.1Z"/><path class="cls-2" d="M289.75,171.72c1.25.06,2.5.11,3.75.2v.87c-1.25.09-2.5.13-3.75.2Z"/><polygon class="cls-2" points="297.25 172.18 299.25 172.35 297.25 172.53 297.25 172.18"/><circle class="cls-3" cx="272.87" cy="172.35" r="9.64"/><polygon class="cls-2" points="246.49 685.08 248.49 684.9 248.49 685.25 246.49 685.08"/><path class="cls-2" d="M252.24,684.64c1.25-.08,2.5-.13,3.75-.2v1.27c-1.25-.07-2.5-.11-3.75-.2Z"/><path class="cls-2" d="M259.74,684.3c1.25,0,2.5-.09,3.75-.11V686c-1.25,0-2.5-.05-3.75-.1Z"/><polygon class="cls-2" points="267.24 684.12 270.99 684.09 270.99 686.06 267.24 686.04 267.24 684.12"/><polygon class="cls-2" points="274.75 684.09 278.5 684.12 278.5 686.04 274.75 686.06 274.75 684.09"/><path class="cls-2" d="M282.25,684.19c1.25,0,2.5,0,3.75.1v1.57c-1.25,0-2.5.08-3.75.1Z"/><path class="cls-2" d="M289.75,684.44c1.25.07,2.5.11,3.75.2v.87c-1.25.09-2.5.14-3.75.2Z"/><polygon class="cls-2" points="297.25 684.9 299.25 685.08 297.25 685.26 297.25 684.9"/><circle class="cls-3" cx="272.87" cy="685.08" r="9.64"/><polygon class="cls-2" points="246.49 343.26 248.49 343.08 248.49 343.44 246.49 343.26"/><path class="cls-2" d="M252.24,342.83c1.25-.09,2.5-.14,3.75-.2v1.26c-1.25-.06-2.5-.11-3.75-.19Z"/><path class="cls-2" d="M259.74,342.48c1.25-.05,2.5-.08,3.75-.1v1.77c-1.25,0-2.5-.06-3.75-.11Z"/><polygon class="cls-2" points="267.24 342.3 270.99 342.28 270.99 344.25 267.24 344.22 267.24 342.3"/><polygon class="cls-2" points="274.75 342.27 278.5 342.3 278.5 344.22 274.75 344.25 274.75 342.27"/><path class="cls-2" d="M282.25,342.37c1.25,0,2.5.06,3.75.11V344c-1.25,0-2.5.09-3.75.11Z"/><path class="cls-2" d="M289.75,342.63c1.25.06,2.5.11,3.75.19v.88c-1.25.09-2.5.13-3.75.2Z"/><polygon class="cls-2" points="297.25 343.08 299.25 343.26 297.25 343.44 297.25 343.08"/><circle class="cls-3" cx="272.87" cy="343.26" r="9.64"/><polygon class="cls-2" points="246.49 514.17 248.49 513.99 248.49 514.35 246.49 514.17"/><path class="cls-2" d="M252.24,513.73c1.25-.08,2.5-.13,3.75-.19v1.26c-1.25-.06-2.5-.11-3.75-.19Z"/><path class="cls-2" d="M259.74,513.39c1.25,0,2.5-.08,3.75-.11v1.77c-1.25,0-2.5,0-3.75-.1Z"/><polygon class="cls-2" points="267.24 513.21 270.99 513.18 270.99 515.15 267.24 515.13 267.24 513.21"/><polygon class="cls-2" points="274.75 513.18 278.5 513.21 278.5 515.13 274.75 515.16 274.75 513.18"/><path class="cls-2" d="M282.25,513.28c1.25,0,2.5.06,3.75.11V515c-1.25,0-2.5.08-3.75.11Z"/><path class="cls-2" d="M289.75,513.53c1.25.07,2.5.11,3.75.2v.88c-1.25.08-2.5.13-3.75.2Z"/><polygon class="cls-2" points="297.25 513.99 299.25 514.17 297.25 514.35 297.25 513.99"/><circle class="cls-3" cx="272.87" cy="514.17" r="9.64"/><path class="cls-4" d="M341.91,155.83a9,9,0,0,1,.57-3.15,9.06,9.06,0,0,1,1.69-2.78,8.29,8.29,0,0,1,6.31-2.74,7.83,7.83,0,0,1,4.15,1.06,6.59,6.59,0,0,1,2.58,2.74l-2.57,1.78a4.18,4.18,0,0,0-1.15-1.54,4.91,4.91,0,0,0-1.53-.81,5.67,5.67,0,0,0-1.58-.24,4.61,4.61,0,0,0-2.22.51A4.86,4.86,0,0,0,346.6,152a6.29,6.29,0,0,0-1,1.86,7.1,7.1,0,0,0-.32,2.08,6.8,6.8,0,0,0,.37,2.19,6.19,6.19,0,0,0,1,1.89,5,5,0,0,0,1.62,1.3,4.63,4.63,0,0,0,2.07.47,5.18,5.18,0,0,0,1.61-.27,4.58,4.58,0,0,0,1.54-.85,4.3,4.3,0,0,0,1.16-1.55l2.74,1.62a5.35,5.35,0,0,1-1.7,2.2,8.54,8.54,0,0,1-2.6,1.38,9.43,9.43,0,0,1-2.85.46,7.48,7.48,0,0,1-3.39-.77,8.77,8.77,0,0,1-2.66-2.06,9.68,9.68,0,0,1-1.75-2.89A9,9,0,0,1,341.91,155.83Z"/><path class="cls-4" d="M371.36,164.67h-3.28v-7.1a3.43,3.43,0,0,0-.58-2.19,1.92,1.92,0,0,0-1.58-.73,2.8,2.8,0,0,0-1.24.34,4.09,4.09,0,0,0-2,2.27v7.41h-3.25V146.8h3.25v7.53a5.56,5.56,0,0,1,2-1.89,5.39,5.39,0,0,1,2.66-.67,4.36,4.36,0,0,1,2,.41,3,3,0,0,1,1.23,1.13,5.46,5.46,0,0,1,.6,1.61,9.83,9.83,0,0,1,.17,1.81Z"/><path class="cls-4" d="M374.08,159.92v-8h3.3v7.23a3.68,3.68,0,0,0,.54,2.19,1.83,1.83,0,0,0,1.59.74,3.26,3.26,0,0,0,1.26-.25,3.54,3.54,0,0,0,1.15-.76,4.38,4.38,0,0,0,.9-1.27V152h3.3v9a1.19,1.19,0,0,0,.17.72.82.82,0,0,0,.59.27v2.67l-.82.11-.6,0a2.27,2.27,0,0,1-1.41-.41,1.7,1.7,0,0,1-.67-1.09l-.07-1a5.74,5.74,0,0,1-2.2,2,6.61,6.61,0,0,1-3,.66,3.66,3.66,0,0,1-3-1.27A5.73,5.73,0,0,1,374.08,159.92Z"/><path class="cls-4" d="M397,154.68a6.74,6.74,0,0,0-2.7.57,3.53,3.53,0,0,0-1.71,1.63v7.79h-3.26V152h3v2.62a5.81,5.81,0,0,1,1.75-2.08,4.26,4.26,0,0,1,2.24-.83,2.88,2.88,0,0,0,.4,0,.51.51,0,0,1,.27,0Z"/><path class="cls-4" d="M404.63,164.91a7.21,7.21,0,0,1-2.83-.52,6.3,6.3,0,0,1-2.12-1.45,6.63,6.63,0,0,1-1.34-2.12,6.93,6.93,0,0,1,.34-5.76,6.1,6.1,0,0,1,2.33-2.4,6.92,6.92,0,0,1,3.6-.89,6.81,6.81,0,0,1,3.57.9,5.59,5.59,0,0,1,2.2,2.38l-3.18,1a2.81,2.81,0,0,0-1.1-1.09,3.06,3.06,0,0,0-1.54-.38,3.13,3.13,0,0,0-1.67.46,3.48,3.48,0,0,0-1.21,1.31,4.19,4.19,0,0,0-.45,2,4.23,4.23,0,0,0,.45,2,3.5,3.5,0,0,0,1.21,1.34,3.11,3.11,0,0,0,1.69.48,3.19,3.19,0,0,0,1.13-.19,3.6,3.6,0,0,0,.94-.56,2.11,2.11,0,0,0,.62-.77l3.19,1a5.44,5.44,0,0,1-1.29,1.72,6.13,6.13,0,0,1-2,1.18A7.12,7.12,0,0,1,404.63,164.91Z"/><path class="cls-4" d="M424.39,164.67h-3.28v-7.1a3.49,3.49,0,0,0-.58-2.19,1.92,1.92,0,0,0-1.58-.73,2.84,2.84,0,0,0-1.25.34,4,4,0,0,0-1.18.92,3.84,3.84,0,0,0-.8,1.35v7.41h-3.26V146.8h3.26v7.53a5.48,5.48,0,0,1,2-1.89,5.36,5.36,0,0,1,2.66-.67,4.36,4.36,0,0,1,2,.41,3,3,0,0,1,1.23,1.13,5.46,5.46,0,0,1,.6,1.61,9.83,9.83,0,0,1,.17,1.81Z"/><path class="cls-4" d="M330.62,194v1.51h-8.3V194h3.47V183.52a2.88,2.88,0,0,1-.66.63,7.08,7.08,0,0,1-1.06.64,9.07,9.07,0,0,1-1.19.49,3.42,3.42,0,0,1-1.08.19v-1.61a2.92,2.92,0,0,0,1.23-.32,10.69,10.69,0,0,0,1.27-.73,10.11,10.11,0,0,0,1-.79,1.9,1.9,0,0,0,.46-.49h1.72V194Z"/><path class="cls-4" d="M332.23,195.51a9.74,9.74,0,0,1,.15-1.69,6.16,6.16,0,0,1,.56-1.7,6,6,0,0,1,1.23-1.62A8.8,8.8,0,0,1,336.3,189c.47-.25,1-.49,1.46-.73a12.38,12.38,0,0,0,1.44-.79,3.94,3.94,0,0,0,1.07-1,2.23,2.23,0,0,0,.41-1.33,2.33,2.33,0,0,0-.36-1.22,2.48,2.48,0,0,0-1.07-1,3.93,3.93,0,0,0-1.8-.38,4.19,4.19,0,0,0-1.42.22,5,5,0,0,0-1.13.55,6,6,0,0,0-.83.66l-.57.55-1.05-1.15a6.32,6.32,0,0,1,.55-.52,8.53,8.53,0,0,1,1.1-.8,7.2,7.2,0,0,1,1.6-.71,6.45,6.45,0,0,1,2-.29,5.58,5.58,0,0,1,2.55.53,3.92,3.92,0,0,1,1.63,1.42,3.53,3.53,0,0,1,.56,1.94,3.46,3.46,0,0,1-.42,1.75,4.46,4.46,0,0,1-1.11,1.26,8.16,8.16,0,0,1-1.39.92c-.48.26-.92.48-1.31.66a13.27,13.27,0,0,0-1.93,1.09,6.37,6.37,0,0,0-1.25,1.11,5.12,5.12,0,0,0-.72,1.09A4,4,0,0,0,334,194h8.76v1.51Z"/><path class="cls-4" d="M345.5,185.21v-2.4h1.42v2.4Zm0,10.3v-2.4h1.42v2.4Z"/><path class="cls-4" d="M358.45,194v1.51h-8.3V194h3.48V183.52a2.88,2.88,0,0,1-.66.63,7.21,7.21,0,0,1-1.07.64,8.54,8.54,0,0,1-1.19.49,3.41,3.41,0,0,1-1.07.19v-1.61a2.88,2.88,0,0,0,1.22-.32,10,10,0,0,0,1.27-.73,9.11,9.11,0,0,0,1-.79,1.83,1.83,0,0,0,.47-.49h1.71V194Z"/><path class="cls-4" d="M365.4,199.16a6.27,6.27,0,0,1-3.33-.92,5.78,5.78,0,0,1-2.22-2.41L361,195a5.32,5.32,0,0,0,1.87,1.93,4.86,4.86,0,0,0,2.61.74,4.44,4.44,0,0,0,2.19-.54,4.1,4.1,0,0,0,1.54-1.5,4.2,4.2,0,0,0,.58-2.2,4.13,4.13,0,0,0-.55-2.12,3.89,3.89,0,0,0-1.5-1.43,4.36,4.36,0,0,0-2.11-.51,4.92,4.92,0,0,0-2.16.5,4.1,4.1,0,0,0-1.66,1.46h-1.55l1.94-9.8h8.39v1.55H363.4l-1.2,6.24a4.34,4.34,0,0,1,1.56-1.07,5.33,5.33,0,0,1,2-.38,5.91,5.91,0,0,1,2.88.71,5.48,5.48,0,0,1,2,2,5.38,5.38,0,0,1,.76,2.87,5.5,5.5,0,0,1-.82,3,5.75,5.75,0,0,1-2.19,2A6.43,6.43,0,0,1,365.4,199.16Z"/><path class="cls-4" d="M380.17,189.61v-1.54h7.15v1.54Z"/><path class="cls-4" d="M405.09,194v1.51h-8.3V194h3.48V183.52a3.11,3.11,0,0,1-.66.63,7.76,7.76,0,0,1-1.07.64,9.07,9.07,0,0,1-1.19.49,3.41,3.41,0,0,1-1.07.19v-1.61a2.88,2.88,0,0,0,1.22-.32,10.69,10.69,0,0,0,1.27-.73,10.11,10.11,0,0,0,1-.79,2,2,0,0,0,.47-.49H402V194Z"/><path class="cls-4" d="M406.7,195.51a9.74,9.74,0,0,1,.15-1.69,6.52,6.52,0,0,1,.56-1.7,6,6,0,0,1,1.23-1.62,9.22,9.22,0,0,1,2.13-1.48c.47-.25,1-.49,1.47-.73a13.11,13.11,0,0,0,1.43-.79,4,4,0,0,0,1.08-1,2.23,2.23,0,0,0,.4-1.33,2.41,2.41,0,0,0-.35-1.22,2.56,2.56,0,0,0-1.08-1,3.87,3.87,0,0,0-1.8-.38,4.23,4.23,0,0,0-1.42.22,5,5,0,0,0-1.13.55,6.69,6.69,0,0,0-.83.66l-.56.55-1.06-1.15a7,7,0,0,1,.56-.52,7.44,7.44,0,0,1,2.69-1.51,6.45,6.45,0,0,1,2-.29,5.62,5.62,0,0,1,2.56.53,3.9,3.9,0,0,1,1.62,1.42,3.54,3.54,0,0,1,.57,1.94,3.46,3.46,0,0,1-.43,1.75,4.43,4.43,0,0,1-1.1,1.26,8.65,8.65,0,0,1-1.4.92c-.48.26-.92.48-1.31.66a13.27,13.27,0,0,0-1.93,1.09,6.67,6.67,0,0,0-1.25,1.11,5.12,5.12,0,0,0-.72,1.09,4.37,4.37,0,0,0-.36,1.11h8.77v1.51Z"/><path class="cls-4" d="M420,185.21v-2.4h1.42v2.4Zm0,10.3v-2.4h1.42v2.4Z"/><path class="cls-4" d="M429.4,199.16a6.22,6.22,0,0,1-3.33-.92,5.74,5.74,0,0,1-2.23-2.41l1.1-.83a5.35,5.35,0,0,0,1.88,1.93,4.85,4.85,0,0,0,2.6.74,4.39,4.39,0,0,0,2.19-.54,4.13,4.13,0,0,0,1.55-1.5,4.19,4.19,0,0,0,.57-2.2,4,4,0,0,0-.55-2.12,3.86,3.86,0,0,0-1.49-1.43,4.4,4.4,0,0,0-2.12-.51,4.88,4.88,0,0,0-2.15.5,4.07,4.07,0,0,0-1.67,1.46h-1.54l1.93-9.8h8.4v1.55h-7.15l-1.2,6.24a4.47,4.47,0,0,1,1.57-1.07,5.33,5.33,0,0,1,2-.38,5.84,5.84,0,0,1,2.87.71,5.35,5.35,0,0,1,2.81,4.83,5.59,5.59,0,0,1-.82,3,5.71,5.71,0,0,1-2.2,2A6.39,6.39,0,0,1,429.4,199.16Z"/><path class="cls-4" d="M450,188.45a8.59,8.59,0,0,1-.79,3.77,6.43,6.43,0,0,1-2.18,2.6,5.78,5.78,0,0,1-6.32,0,6.53,6.53,0,0,1-2.19-2.6,9.2,9.2,0,0,1,0-7.55,6.67,6.67,0,0,1,2.19-2.6,5.73,5.73,0,0,1,6.32,0,6.56,6.56,0,0,1,2.18,2.6A8.64,8.64,0,0,1,450,188.45Zm-1.69,0a7.37,7.37,0,0,0-.56-3,4.76,4.76,0,0,0-1.57-2,3.82,3.82,0,0,0-2.32-.74,3.9,3.9,0,0,0-2.34.74,4.77,4.77,0,0,0-1.58,2,7.54,7.54,0,0,0-.56,3,7.37,7.37,0,0,0,.57,3,4.84,4.84,0,0,0,1.58,2,3.9,3.9,0,0,0,2.33.72,3.82,3.82,0,0,0,2.32-.73,4.79,4.79,0,0,0,1.57-2A7.32,7.32,0,0,0,448.27,188.45Z"/><path class="cls-4" d="M127.29,352.82v1.52H119v-1.52h3.47V342.34a2.69,2.69,0,0,1-.66.64,6.31,6.31,0,0,1-1.06.63,9.07,9.07,0,0,1-1.19.49,3.45,3.45,0,0,1-1.08.2v-1.62a2.86,2.86,0,0,0,1.23-.31,10.77,10.77,0,0,0,1.27-.74,11.89,11.89,0,0,0,1-.78,2.05,2.05,0,0,0,.46-.49h1.72v12.46Z"/><path class="cls-4" d="M136.22,348.39a3.85,3.85,0,0,1,1.89.8,4.14,4.14,0,0,1,1.22,1.57,4.9,4.9,0,0,1,.44,2.14,4.83,4.83,0,0,1-.71,2.64,4.6,4.6,0,0,1-2,1.77,6.61,6.61,0,0,1-3,.63,6.79,6.79,0,0,1-3.26-.75,5,5,0,0,1-2.1-2.07l1.15-1.05a4.25,4.25,0,0,0,1.59,1.7,4.92,4.92,0,0,0,2.62.65,4.27,4.27,0,0,0,2.88-.92,3.26,3.26,0,0,0,1.06-2.62,3.52,3.52,0,0,0-1.11-2.72,4.59,4.59,0,0,0-3.17-1h-.62v-1.42h.66a4.19,4.19,0,0,0,2.89-.9,3.2,3.2,0,0,0,.54-4,2.89,2.89,0,0,0-1.26-1,4.54,4.54,0,0,0-1.82-.35,4.83,4.83,0,0,0-2.46.62,4.07,4.07,0,0,0-1.61,1.73l-1.07-1a4.17,4.17,0,0,1,1.2-1.49,5.56,5.56,0,0,1,1.83-1,6.89,6.89,0,0,1,2.25-.36,6.07,6.07,0,0,1,2.67.56,4.43,4.43,0,0,1,1.81,1.55,4.15,4.15,0,0,1,.67,2.34,4.38,4.38,0,0,1-.4,1.84,3.76,3.76,0,0,1-2.84,2.16Z"/><path class="cls-4" d="M142.49,344v-2.4h1.42V344Zm0,10.31v-2.4h1.42v2.4Z"/><path class="cls-4" d="M159.14,347.27a8.61,8.61,0,0,1-.8,3.78,6.39,6.39,0,0,1-2.18,2.59,5.76,5.76,0,0,1-6.31,0,6.49,6.49,0,0,1-2.19-2.59,9.2,9.2,0,0,1,0-7.55,6.62,6.62,0,0,1,2.19-2.61,5.71,5.71,0,0,1,6.31,0,6.51,6.51,0,0,1,2.18,2.61A8.59,8.59,0,0,1,159.14,347.27Zm-1.69,0a7.61,7.61,0,0,0-.56-3,4.9,4.9,0,0,0-1.57-2,4.08,4.08,0,0,0-4.66,0,4.76,4.76,0,0,0-1.58,2,8.14,8.14,0,0,0,0,6,4.79,4.79,0,0,0,1.58,2,4.09,4.09,0,0,0,4.65,0,4.86,4.86,0,0,0,1.57-2A7.45,7.45,0,0,0,157.45,347.27Z"/><path class="cls-4" d="M174.12,347.27a8.6,8.6,0,0,1-.79,3.78,6.55,6.55,0,0,1-2.18,2.59,5.5,5.5,0,0,1-3.17.94,5.44,5.44,0,0,1-3.15-.94,6.57,6.57,0,0,1-2.19-2.59,9.2,9.2,0,0,1,0-7.55,6.7,6.7,0,0,1,2.19-2.61,5.45,5.45,0,0,1,3.15-.95,5.51,5.51,0,0,1,3.17.95,6.68,6.68,0,0,1,2.18,2.61A8.59,8.59,0,0,1,174.12,347.27Zm-1.69,0a7.61,7.61,0,0,0-.56-3,4.9,4.9,0,0,0-1.57-2,3.82,3.82,0,0,0-2.32-.73,3.88,3.88,0,0,0-2.34.73,4.76,4.76,0,0,0-1.58,2,8.27,8.27,0,0,0,0,6,4.79,4.79,0,0,0,1.58,2A3.88,3.88,0,0,0,168,353a3.82,3.82,0,0,0,2.32-.73,4.86,4.86,0,0,0,1.57-2A7.45,7.45,0,0,0,172.43,347.27Z"/><path class="cls-4" d="M86.84,312.11a8.73,8.73,0,0,1,.58-3.14,8.58,8.58,0,0,1,1.69-2.78,8.34,8.34,0,0,1,2.7-2,8.48,8.48,0,0,1,3.6-.74,7.92,7.92,0,0,1,4.15,1.05,6.52,6.52,0,0,1,2.58,2.74L99.57,309a3.9,3.9,0,0,0-1.15-1.54,4.35,4.35,0,0,0-1.53-.81,5.59,5.59,0,0,0-1.58-.25,4.57,4.57,0,0,0-2.21.52,4.85,4.85,0,0,0-1.57,1.34,6.2,6.2,0,0,0-.94,1.87,7,7,0,0,0-.32,2.08,6.54,6.54,0,0,0,.37,2.19,5.83,5.83,0,0,0,1,1.88,4.94,4.94,0,0,0,1.61,1.3,4.5,4.5,0,0,0,2.07.48,5.29,5.29,0,0,0,1.62-.27,4.7,4.7,0,0,0,1.54-.86,4.24,4.24,0,0,0,1.15-1.54l2.74,1.62a5.4,5.4,0,0,1-1.7,2.2,8.47,8.47,0,0,1-2.59,1.37,9.24,9.24,0,0,1-2.86.46,7.35,7.35,0,0,1-3.39-.77,8.7,8.7,0,0,1-2.65-2.05,9.6,9.6,0,0,1-1.75-2.89A8.82,8.82,0,0,1,86.84,312.11Z"/><path class="cls-4" d="M110.27,321.2a7.3,7.3,0,0,1-2.79-.52,6.49,6.49,0,0,1-2.13-1.43,6.38,6.38,0,0,1-1.35-2.07,6.69,6.69,0,0,1-.46-2.5,6.79,6.79,0,0,1,.82-3.3,6.27,6.27,0,0,1,2.32-2.42,6.85,6.85,0,0,1,3.62-.91,6.72,6.72,0,0,1,3.57.91,6.28,6.28,0,0,1,2.3,2.39,6.58,6.58,0,0,1,.81,3.22c0,.21,0,.41,0,.6s0,.34,0,.47H107a3.34,3.34,0,0,0,.55,1.71,3.2,3.2,0,0,0,1.22,1.09,3.47,3.47,0,0,0,1.58.38,3.8,3.8,0,0,0,1.87-.48,2.46,2.46,0,0,0,1.19-1.28l2.79.78a5,5,0,0,1-1.3,1.74,6.29,6.29,0,0,1-2,1.19A7.74,7.74,0,0,1,110.27,321.2Zm-3.35-7.62h6.71a3.84,3.84,0,0,0-.55-1.66,3.22,3.22,0,0,0-1.19-1.1,3.46,3.46,0,0,0-1.64-.4,3.34,3.34,0,0,0-1.61.4,3.16,3.16,0,0,0-1.17,1.1A3.71,3.71,0,0,0,106.92,313.58Z"/><path class="cls-4" d="M126.65,311a6.52,6.52,0,0,0-2.69.58,3.51,3.51,0,0,0-1.72,1.63V321H119v-12.7h3v2.62a5.76,5.76,0,0,1,1.75-2.09A4.34,4.34,0,0,1,126,308a1.76,1.76,0,0,0,.39,0,.77.77,0,0,1,.27,0Z"/><path class="cls-4" d="M134.24,321.2a7.3,7.3,0,0,1-2.79-.52,6.49,6.49,0,0,1-2.13-1.43,6.38,6.38,0,0,1-1.35-2.07,6.69,6.69,0,0,1-.46-2.5,6.79,6.79,0,0,1,.82-3.3,6.2,6.2,0,0,1,2.32-2.42,6.84,6.84,0,0,1,3.61-.91,6.73,6.73,0,0,1,3.58.91,6.35,6.35,0,0,1,2.3,2.39,6.58,6.58,0,0,1,.81,3.22,5.74,5.74,0,0,1,0,.6c0,.18,0,.34,0,.47H131a3.44,3.44,0,0,0,.56,1.71,3.2,3.2,0,0,0,1.22,1.09,3.47,3.47,0,0,0,1.58.38,3.8,3.8,0,0,0,1.87-.48,2.46,2.46,0,0,0,1.19-1.28l2.79.78a5,5,0,0,1-1.3,1.74,6.29,6.29,0,0,1-2,1.19A7.74,7.74,0,0,1,134.24,321.2Zm-3.35-7.62h6.7a3.59,3.59,0,0,0-.55-1.66,3.12,3.12,0,0,0-1.18-1.1,3.46,3.46,0,0,0-1.64-.4,3.34,3.34,0,0,0-1.61.4,3.16,3.16,0,0,0-1.17,1.1A3.59,3.59,0,0,0,130.89,313.58Z"/><path class="cls-4" d="M162.88,321H159.6v-7.09a3.72,3.72,0,0,0-.52-2.22,1.72,1.72,0,0,0-1.46-.7,2.76,2.76,0,0,0-1.83.73,4.11,4.11,0,0,0-1.23,1.9V321h-3.3v-7.09a3.8,3.8,0,0,0-.52-2.22,1.67,1.67,0,0,0-1.44-.7,2.88,2.88,0,0,0-1.84.72,3.82,3.82,0,0,0-1.25,1.88V321H143v-12.7h3v2.37a5,5,0,0,1,2-1.9,5.74,5.74,0,0,1,2.8-.67,3.73,3.73,0,0,1,2.49.77,3.53,3.53,0,0,1,1.14,1.92,5.28,5.28,0,0,1,4.75-2.69,3.9,3.9,0,0,1,1.92.42,3.17,3.17,0,0,1,1.16,1.14,4.9,4.9,0,0,1,.58,1.61,10.9,10.9,0,0,1,.15,1.79Z"/><path class="cls-4" d="M171.67,321.2a6.92,6.92,0,0,1-2.8-.54,6.28,6.28,0,0,1-3.45-3.54,6.91,6.91,0,0,1-.46-2.48,7.13,7.13,0,0,1,.46-2.55,6.09,6.09,0,0,1,1.32-2.09,6.2,6.2,0,0,1,2.12-1.43,7.11,7.11,0,0,1,2.79-.52,7.21,7.21,0,0,1,2.83.52,6.25,6.25,0,0,1,2.11,1.43,6.16,6.16,0,0,1,1.35,2.09,6.92,6.92,0,0,1,.47,2.55,6.71,6.71,0,0,1-.47,2.48,6.36,6.36,0,0,1-1.35,2.09,6.16,6.16,0,0,1-2.11,1.45A7,7,0,0,1,171.67,321.2Zm-3.35-6.56a4.26,4.26,0,0,0,.44,1.94,3.31,3.31,0,0,0,1.21,1.35,3.17,3.17,0,0,0,1.7.48,3,3,0,0,0,1.69-.5,3.42,3.42,0,0,0,1.21-1.34,4,4,0,0,0,.46-2,4,4,0,0,0-.46-1.93,3.52,3.52,0,0,0-1.21-1.35,3.19,3.19,0,0,0-3.4,0,3.42,3.42,0,0,0-1.2,1.35A4.25,4.25,0,0,0,168.32,314.64Z"/><path class="cls-4" d="M192.51,321h-3.28v-7.09a3.72,3.72,0,0,0-.53-2.22,1.76,1.76,0,0,0-1.51-.7,3,3,0,0,0-1.33.33,4.09,4.09,0,0,0-1.2.92,4.52,4.52,0,0,0-.82,1.35V321h-3.26v-12.7h3v2.37a4.56,4.56,0,0,1,1.24-1.38,5.91,5.91,0,0,1,1.74-.87,6.9,6.9,0,0,1,2.11-.32,4.08,4.08,0,0,1,2,.42,3,3,0,0,1,1.18,1.15,5.58,5.58,0,0,1,.56,1.61,10.71,10.71,0,0,1,.16,1.78Z"/><path class="cls-4" d="M195.42,323.45l.82.16c.25,0,.47.07.65.08a1.2,1.2,0,0,0,.77-.23,2.17,2.17,0,0,0,.6-.82,10,10,0,0,0,.61-1.65l-5.07-12.74h3.41l3.45,9.41,3-9.41h3.13l-5.39,15.27a4.59,4.59,0,0,1-.89,1.54,4.31,4.31,0,0,1-1.48,1.1,4.94,4.94,0,0,1-2,.4,5.12,5.12,0,0,1-.78-.06,4.17,4.17,0,0,1-.86-.24Z"/><path class="cls-4" d="M321.1,529.66v1.52h-8.3v-1.52h3.48V519.18a2.69,2.69,0,0,1-.66.64,7.21,7.21,0,0,1-1.07.64c-.4.19-.8.35-1.19.49a3.41,3.41,0,0,1-1.07.19v-1.61a2.88,2.88,0,0,0,1.22-.32,9.54,9.54,0,0,0,1.27-.74,10.16,10.16,0,0,0,1-.78,2.5,2.5,0,0,0,.47-.49H318v12.46Z"/><path class="cls-4" d="M334.5,528.45a6.13,6.13,0,0,1-2.21,2.17,6.24,6.24,0,0,1-3.14.8,6,6,0,0,1-3.21-.87,5.87,5.87,0,0,1-2.22-2.51,8.69,8.69,0,0,1-.81-3.89,18,18,0,0,1,.81-5.86,7.5,7.5,0,0,1,2.25-3.47,5.26,5.26,0,0,1,3.36-1.15,5.72,5.72,0,0,1,3.11.87,5.63,5.63,0,0,1,2.08,2.37l-1.08,1a4.43,4.43,0,0,0-4.11-2.74,3.83,3.83,0,0,0-2.53.91,5.91,5.91,0,0,0-1.67,2.59,12.3,12.3,0,0,0-.6,4.09,4.7,4.7,0,0,1,1.07-1.66,5,5,0,0,1,1.68-1.1,5.53,5.53,0,0,1,2.07-.4,6,6,0,0,1,5.18,2.91,5.94,5.94,0,0,1,0,6Zm-3,.89a4.8,4.8,0,0,0,1.65-1.64,4.39,4.39,0,0,0,0-4.5,4.8,4.8,0,0,0-1.65-1.64,4.33,4.33,0,0,0-2.26-.61,4.44,4.44,0,0,0-2.29.61,4.68,4.68,0,0,0-1.65,1.63,4.4,4.4,0,0,0,0,4.49,4.94,4.94,0,0,0,1.66,1.65,4.2,4.2,0,0,0,2.25.63A4.38,4.38,0,0,0,331.46,529.34Z"/><path class="cls-4" d="M338,520.87v-2.4h1.42v2.4Zm0,10.31v-2.4h1.42v2.4Z"/><path class="cls-4" d="M354.64,524.12a8.59,8.59,0,0,1-.8,3.77,6.32,6.32,0,0,1-2.18,2.59,5.76,5.76,0,0,1-6.31,0,6.5,6.5,0,0,1-2.19-2.59,9.2,9.2,0,0,1,0-7.55,6.6,6.6,0,0,1,2.19-2.6,5.66,5.66,0,0,1,6.31,0,6.42,6.42,0,0,1,2.18,2.6A8.61,8.61,0,0,1,354.64,524.12Zm-1.69,0a7.62,7.62,0,0,0-.56-3,4.9,4.9,0,0,0-1.57-2,4.08,4.08,0,0,0-4.66,0,4.76,4.76,0,0,0-1.58,2,8.14,8.14,0,0,0,0,6,4.82,4.82,0,0,0,1.58,2,3.87,3.87,0,0,0,2.32.72,3.83,3.83,0,0,0,2.33-.74,4.83,4.83,0,0,0,1.57-2A7.52,7.52,0,0,0,353,524.12Z"/><path class="cls-4" d="M369.62,524.12a8.59,8.59,0,0,1-.79,3.77,6.4,6.4,0,0,1-2.18,2.59,5.78,5.78,0,0,1-6.32,0,6.5,6.5,0,0,1-2.19-2.59,9.2,9.2,0,0,1,0-7.55,6.6,6.6,0,0,1,2.19-2.6,5.68,5.68,0,0,1,6.32,0,6.5,6.5,0,0,1,2.18,2.6A8.6,8.6,0,0,1,369.62,524.12Zm-1.69,0a7.45,7.45,0,0,0-.56-3,4.82,4.82,0,0,0-1.57-2,3.82,3.82,0,0,0-2.32-.73,3.9,3.9,0,0,0-2.34.73,4.84,4.84,0,0,0-1.58,2,7.62,7.62,0,0,0-.56,3,7.43,7.43,0,0,0,.57,3,4.9,4.9,0,0,0,1.58,2,3.9,3.9,0,0,0,2.33.72,3.82,3.82,0,0,0,2.32-.74,4.75,4.75,0,0,0,1.57-2A7.35,7.35,0,0,0,367.93,524.12Z"/><path class="cls-4" d="M378.29,522.71a12.26,12.26,0,0,1,1-4.86,39.65,39.65,0,0,1,2.43-4.76l1.27.61a18.08,18.08,0,0,0-1,1.81,24.69,24.69,0,0,0-1,2.31,19.08,19.08,0,0,0-.77,2.51,10.68,10.68,0,0,0-.29,2.45,12,12,0,0,0,.83,4.16,22.23,22.23,0,0,0,2.27,4.48l-1.24.66a25.87,25.87,0,0,1-1.8-3.1,16.92,16.92,0,0,1-1.2-3.15A11.67,11.67,0,0,1,378.29,522.71Z"/><path class="cls-4" d="M391.36,513.8h1.45L400,531.18h-1.81l-2.17-5.44H388.1l-2.17,5.44h-1.84Zm4.15,10.6-3.44-8.6-3.43,8.6Z"/><path class="cls-4" d="M408.7,531.42a5.09,5.09,0,0,1-2.86-.82,6.48,6.48,0,0,1-2-2.05v7.84h-1.67V518.47h1.5V521a5.73,5.73,0,0,1,2-1.94,5.25,5.25,0,0,1,2.72-.74,5.41,5.41,0,0,1,2.42.54,6.26,6.26,0,0,1,1.91,1.48,6.92,6.92,0,0,1,1.71,4.55,7.4,7.4,0,0,1-.72,3.27,6,6,0,0,1-2,2.4A5.18,5.18,0,0,1,408.7,531.42Zm-.47-1.46a4.17,4.17,0,0,0,1.89-.43,4.44,4.44,0,0,0,1.43-1.16,5.38,5.38,0,0,0,.92-1.64,5.66,5.66,0,0,0,.31-1.88,5.26,5.26,0,0,0-.35-1.94,5.12,5.12,0,0,0-2.53-2.75,4.21,4.21,0,0,0-1.86-.41,4,4,0,0,0-1.33.24,5.32,5.32,0,0,0-1.31.69,5,5,0,0,0-1,1,2.56,2.56,0,0,0-.51,1.19v3.89a5.78,5.78,0,0,0,1,1.62,5,5,0,0,0,1.53,1.14A4.11,4.11,0,0,0,408.23,530Z"/><path class="cls-4" d="M423.65,519.89a5.36,5.36,0,0,0-2.92.93,4.74,4.74,0,0,0-1.78,2.43v7.93h-1.66V518.47h1.57v3a6.1,6.1,0,0,1,1.75-2.18,4.37,4.37,0,0,1,2.31-.93l.43,0,.3,0Z"/><path class="cls-4" d="M431,531.42a6.17,6.17,0,0,1-2.56-.52,6.28,6.28,0,0,1-2-1.44,6.54,6.54,0,0,1-1.31-2.09,6.77,6.77,0,0,1-.46-2.5,6.9,6.9,0,0,1,.46-2.54,6.53,6.53,0,0,1,1.33-2.09,6.21,6.21,0,0,1,2-1.44,6.39,6.39,0,0,1,5.05,0,6.28,6.28,0,0,1,2,1.44,6.51,6.51,0,0,1,1.32,2.09,6.91,6.91,0,0,1,.47,2.54,6.77,6.77,0,0,1-.47,2.5,6.54,6.54,0,0,1-1.31,2.09,6.08,6.08,0,0,1-4.54,2Zm-4.65-6.52a5.35,5.35,0,0,0,.62,2.56,5,5,0,0,0,1.68,1.83,4.31,4.31,0,0,0,2.33.67,4.15,4.15,0,0,0,2.32-.69,4.91,4.91,0,0,0,1.69-1.86,5.48,5.48,0,0,0,0-5.14,5,5,0,0,0-1.69-1.84,4.14,4.14,0,0,0-2.32-.68,4.09,4.09,0,0,0-2.33.7,5.2,5.2,0,0,0-1.68,1.86A5.42,5.42,0,0,0,426.3,524.9Z"/><path class="cls-4" d="M439.89,518.47l3.74,5,.2.36.19-.36,3.73-5h1.88l-4.85,6.39,4.85,6.32h-1.88L444,526.23l-.19-.34-.2.34-3.72,4.95H438l4.82-6.32L438,518.47Z"/><path class="cls-4" d="M451.59,531.18v-2.4H453v2.4Z"/><path class="cls-4" d="M460.11,522.71a12.07,12.07,0,0,1-.42,3.12,16.92,16.92,0,0,1-1.2,3.15,27.4,27.4,0,0,1-1.81,3.1l-1.22-.66a22.23,22.23,0,0,0,2.27-4.48,12,12,0,0,0,.84-4.16,10.72,10.72,0,0,0-.3-2.45,17.73,17.73,0,0,0-.78-2.51c-.33-.82-.67-1.59-1-2.31a14.81,14.81,0,0,0-1-1.81l1.3-.61a39.44,39.44,0,0,1,2.41,4.76A12.42,12.42,0,0,1,460.11,522.71Z"/><path class="cls-4" d="M351.58,497.79V480.41H355v14.42h8.86v3Z"/><path class="cls-4" d="M365.41,493v-8h3.31v7.23a3.68,3.68,0,0,0,.54,2.19,1.85,1.85,0,0,0,1.59.74,3.45,3.45,0,0,0,2.41-1,4.17,4.17,0,0,0,.89-1.27v-7.88h3.31v9a1.24,1.24,0,0,0,.17.73.84.84,0,0,0,.59.26v2.67l-.82.11a4.41,4.41,0,0,1-.6,0,2.33,2.33,0,0,1-1.41-.41,1.69,1.69,0,0,1-.67-1.09l-.08-1a5.54,5.54,0,0,1-2.19,1.95,6.48,6.48,0,0,1-3,.67,3.73,3.73,0,0,1-3-1.27A5.8,5.8,0,0,1,365.41,493Z"/><path class="cls-4" d="M392.61,497.79h-3.28V490.7a3.75,3.75,0,0,0-.52-2.22,1.79,1.79,0,0,0-1.51-.7,2.86,2.86,0,0,0-1.33.34,3.93,3.93,0,0,0-1.2.92,4,4,0,0,0-.82,1.35v7.4h-3.26v-12.7h3v2.37a4.59,4.59,0,0,1,1.25-1.38,6.17,6.17,0,0,1,1.74-.87,6.79,6.79,0,0,1,2.1-.32,4,4,0,0,1,2,.43,2.85,2.85,0,0,1,1.18,1.15,5,5,0,0,1,.56,1.61,9.55,9.55,0,0,1,.16,1.77Z"/><path class="cls-4" d="M401.45,498a7.21,7.21,0,0,1-2.83-.52,6.3,6.3,0,0,1-2.12-1.45,6.88,6.88,0,0,1-1-7.89,6.08,6.08,0,0,1,2.33-2.39,6.92,6.92,0,0,1,3.6-.9,6.72,6.72,0,0,1,3.57.91,5.51,5.51,0,0,1,2.2,2.37l-3.18,1a3,3,0,0,0-1.1-1.09,3.25,3.25,0,0,0-3.21.09,3.41,3.41,0,0,0-1.21,1.31,4.58,4.58,0,0,0,0,4,3.46,3.46,0,0,0,1.21,1.35,3.11,3.11,0,0,0,1.69.48,3.19,3.19,0,0,0,1.13-.2,3.31,3.31,0,0,0,.94-.55,2.2,2.2,0,0,0,.62-.77l3.19,1a5.29,5.29,0,0,1-1.29,1.71,6,6,0,0,1-2,1.19A7.12,7.12,0,0,1,401.45,498Z"/><path class="cls-4" d="M421.21,497.79h-3.28V490.7a3.55,3.55,0,0,0-.58-2.2,1.91,1.91,0,0,0-1.58-.72,2.71,2.71,0,0,0-1.25.34,4.13,4.13,0,0,0-2,2.27v7.4h-3.26V479.92h3.26v7.54a5.38,5.38,0,0,1,4.63-2.57,4.48,4.48,0,0,1,2,.41,3.08,3.08,0,0,1,1.23,1.14,5.36,5.36,0,0,1,.6,1.61,9.8,9.8,0,0,1,.17,1.8Z"/><path class="cls-4" d="M134.69,708v1.52h-8.3V708h3.48V697.51a2.69,2.69,0,0,1-.66.64,7.19,7.19,0,0,1-1.07.63,9,9,0,0,1-1.18.49,3.55,3.55,0,0,1-1.08.2v-1.62a2.74,2.74,0,0,0,1.22-.32,8.89,8.89,0,0,0,1.27-.73,10.52,10.52,0,0,0,1-.78,2.2,2.2,0,0,0,.47-.49h1.71V708Z"/><path class="cls-4" d="M148.52,704.72a4.32,4.32,0,0,1-.84,2.65,5.56,5.56,0,0,1-2.23,1.75,7.2,7.2,0,0,1-3,.63,6.58,6.58,0,0,1-3.09-.7,5.6,5.6,0,0,1-2.11-1.85,4.51,4.51,0,0,1-.78-2.58,3.88,3.88,0,0,1,.53-2,5.19,5.19,0,0,1,1.32-1.51,5.43,5.43,0,0,1,1.63-.88,6.22,6.22,0,0,1-1.42-.85,4,4,0,0,1-1-1.24,3.23,3.23,0,0,1-.39-1.57,3.83,3.83,0,0,1,.47-1.91,4.64,4.64,0,0,1,1.26-1.39,5.34,5.34,0,0,1,1.76-.86,6.81,6.81,0,0,1,1.94-.29,6.72,6.72,0,0,1,1.92.29,5.78,5.78,0,0,1,1.77.84,4.43,4.43,0,0,1,1.27,1.39,3.7,3.7,0,0,1,.48,1.9,3.19,3.19,0,0,1-.41,1.59,4.23,4.23,0,0,1-1.06,1.25,6,6,0,0,1-1.45.85,5.29,5.29,0,0,1,1.75,1,5.08,5.08,0,0,1,1.28,1.53A4.09,4.09,0,0,1,148.52,704.72Zm-1.69-.12a3.16,3.16,0,0,0-.37-1.56,3.76,3.76,0,0,0-1-1.15,5.11,5.11,0,0,0-3-.95,4.88,4.88,0,0,0-2,.45,4.18,4.18,0,0,0-1.62,1.28,3.18,3.18,0,0,0-.62,2,2.91,2.91,0,0,0,.38,1.52,3.7,3.7,0,0,0,1,1.15A4.7,4.7,0,0,0,141,708a4.94,4.94,0,0,0,1.56.25,4.74,4.74,0,0,0,2-.46,4.22,4.22,0,0,0,1.63-1.29A3.07,3.07,0,0,0,146.83,704.6Zm-8.1-8a2.38,2.38,0,0,0,.58,1.61,3.61,3.61,0,0,0,1.45,1,4.72,4.72,0,0,0,1.72.35,4.57,4.57,0,0,0,1.75-.36,3.69,3.69,0,0,0,1.44-1,2.42,2.42,0,0,0,.58-1.64,2.48,2.48,0,0,0-.54-1.6,3.3,3.3,0,0,0-1.41-1,5,5,0,0,0-1.85-.35,4.66,4.66,0,0,0-1.8.36,3.32,3.32,0,0,0-1.39,1A2.55,2.55,0,0,0,138.73,696.64Z"/><path class="cls-4" d="M151.34,699.2v-2.4h1.42v2.4Zm0,10.31v-2.4h1.42v2.4Z"/><path class="cls-4" d="M162.75,703.56a3.94,3.94,0,0,1,1.88.79,4.28,4.28,0,0,1,1.23,1.58,5.05,5.05,0,0,1,.44,2.14,4.92,4.92,0,0,1-.71,2.64,4.69,4.69,0,0,1-2,1.77,6.55,6.55,0,0,1-3,.62,6.75,6.75,0,0,1-3.25-.74,5,5,0,0,1-2.11-2.07l1.15-1a4.25,4.25,0,0,0,1.59,1.7,4.94,4.94,0,0,0,2.62.65,4.27,4.27,0,0,0,2.88-.92,3.26,3.26,0,0,0,1.06-2.62,3.51,3.51,0,0,0-1.11-2.72,4.52,4.52,0,0,0-3.17-1h-.61V702.9h.66a4.19,4.19,0,0,0,2.89-.9,3.23,3.23,0,0,0,.54-4,2.89,2.89,0,0,0-1.26-1,4.59,4.59,0,0,0-1.83-.35,4.83,4.83,0,0,0-2.46.62,4,4,0,0,0-1.6,1.73l-1.08-1a4.39,4.39,0,0,1,1.2-1.49,5.51,5.51,0,0,1,1.84-1,6.89,6.89,0,0,1,2.25-.36,6.1,6.1,0,0,1,2.67.56,4.5,4.5,0,0,1,1.81,1.55,4.12,4.12,0,0,1,.66,2.34,4.37,4.37,0,0,1-.39,1.84,3.8,3.8,0,0,1-2.84,2.16Z"/><path class="cls-4" d="M181.06,702.44a8.61,8.61,0,0,1-.8,3.78,6.44,6.44,0,0,1-2.17,2.59,5.51,5.51,0,0,1-3.18.94,5.43,5.43,0,0,1-3.14-.94,6.57,6.57,0,0,1-2.19-2.59,9.2,9.2,0,0,1,0-7.55,6.7,6.7,0,0,1,2.19-2.61,5.44,5.44,0,0,1,3.14-.95,5.52,5.52,0,0,1,3.18.95,6.57,6.57,0,0,1,2.17,2.61A8.59,8.59,0,0,1,181.06,702.44Zm-1.69,0a7.57,7.57,0,0,0-.56-3,4.9,4.9,0,0,0-1.57-2,4.08,4.08,0,0,0-4.66,0,4.76,4.76,0,0,0-1.58,2,8.27,8.27,0,0,0,0,6,4.79,4.79,0,0,0,1.58,2,3.87,3.87,0,0,0,2.32.72,3.82,3.82,0,0,0,2.33-.73,4.86,4.86,0,0,0,1.57-2A7.45,7.45,0,0,0,179.37,702.44Z"/><path class="cls-4" d="M124.87,676.12V658.74h7.37a5,5,0,0,1,2.22.49,5.43,5.43,0,0,1,1.75,1.32,6.39,6.39,0,0,1,1.14,1.86,5.73,5.73,0,0,1,.4,2.11,6.14,6.14,0,0,1-.66,2.77,5.54,5.54,0,0,1-1.87,2.17,4.84,4.84,0,0,1-2.83.83h-4.14v5.83Zm3.38-8.79h3.92a1.93,1.93,0,0,0,1.13-.34,2.36,2.36,0,0,0,.77-1,3.83,3.83,0,0,0,.28-1.48A3.21,3.21,0,0,0,134,663a2.44,2.44,0,0,0-.86-1,2.1,2.1,0,0,0-1.14-.33h-3.77Z"/><path class="cls-4" d="M138.76,672.37a3.48,3.48,0,0,1,.69-2.15,4.67,4.67,0,0,1,1.94-1.44,7.46,7.46,0,0,1,2.87-.52,11.42,11.42,0,0,1,1.64.12,6,6,0,0,1,1.45.4v-.71a2.39,2.39,0,0,0-.71-1.83,3.08,3.08,0,0,0-2.13-.65,5.67,5.67,0,0,0-2,.37,11.47,11.47,0,0,0-2,1l-1-2.13a9.34,9.34,0,0,1,2.58-1.26,9.64,9.64,0,0,1,2.81-.4,6.28,6.28,0,0,1,4.27,1.34,4.86,4.86,0,0,1,1.53,3.87v4a1.17,1.17,0,0,0,.18.73.91.91,0,0,0,.6.26v2.67l-.79.12a2.6,2.6,0,0,1-.6,0,2.23,2.23,0,0,1-1.48-.43,1.66,1.66,0,0,1-.6-1.07l-.08-.66a5.79,5.79,0,0,1-2.1,1.67,6,6,0,0,1-2.55.59,4.81,4.81,0,0,1-2.29-.54,4,4,0,0,1-1.59-1.44A3.69,3.69,0,0,1,138.76,672.37Zm8,.62a2.13,2.13,0,0,0,.44-.55,1.19,1.19,0,0,0,.17-.53v-1.26a7,7,0,0,0-1.27-.37,6.74,6.74,0,0,0-1.3-.13,3.85,3.85,0,0,0-2.1.53,1.65,1.65,0,0,0-.81,1.43,1.7,1.7,0,0,0,.26.91,1.92,1.92,0,0,0,.78.71,2.67,2.67,0,0,0,1.23.26,3.89,3.89,0,0,0,1.45-.28A3.71,3.71,0,0,0,146.74,673Z"/><path class="cls-4" d="M161.35,666.13a6.52,6.52,0,0,0-2.69.58,3.48,3.48,0,0,0-1.71,1.63v7.78h-3.26V663.41h3V666a5.81,5.81,0,0,1,1.75-2.08,4.34,4.34,0,0,1,2.24-.83,1.77,1.77,0,0,0,.39,0,.59.59,0,0,1,.27,0Z"/><path class="cls-4" d="M170.85,675.48a10.76,10.76,0,0,1-1,.41,8.26,8.26,0,0,1-1.24.34,7,7,0,0,1-1.36.14,4.35,4.35,0,0,1-1.69-.32,2.6,2.6,0,0,1-1.21-1,3.16,3.16,0,0,1-.46-1.8v-7.33h-1.66v-2.5h1.66v-4.16h3.31v4.16h2.69v2.5h-2.69v6.21a1.25,1.25,0,0,0,.37,1,1.27,1.27,0,0,0,.88.3,2.87,2.87,0,0,0,1-.18l.8-.33Z"/><path class="cls-4" d="M172.79,678.62c.29.06.56.12.82.16s.46.07.64.08a1.24,1.24,0,0,0,.78-.23,2.28,2.28,0,0,0,.59-.82,11.3,11.3,0,0,0,.62-1.65l-5.07-12.75h3.4l3.45,9.42,3-9.42h3.13l-5.38,15.28a4.79,4.79,0,0,1-.9,1.54,4.31,4.31,0,0,1-1.48,1.1,4.86,4.86,0,0,1-2,.4,5.16,5.16,0,0,1-.79-.06,4.6,4.6,0,0,1-.85-.24Z"/><path class="cls-5" d="M141.61,102.06V96.32a1.74,1.74,0,1,0-3.47,0V102L137,110.1l-5.13-34.16a1.34,1.34,0,0,0,.21-.2,2.19,2.19,0,0,0,.57-1.58,2.1,2.1,0,0,0-1.32-1.86v0a3.27,3.27,0,0,0-.18-5.39V65.18a1.74,1.74,0,0,0,0-3.2,1.74,1.74,0,0,0-3.46,0,1.72,1.72,0,0,0-1.06,1.6,1.7,1.7,0,0,0,1.05,1.59v1.72a3.27,3.27,0,0,0-.18,5.39v0a2.55,2.55,0,0,0-.75.49,2.17,2.17,0,0,0-.57,1.59,2.09,2.09,0,0,0,.78,1.53l-5.17,34-1.17-7.88V96.32a1.74,1.74,0,1,0-3.47,0V102l-3.44,23.32,0,13.78,3.62,3.62v14.35l-1.17-10-3.23,23.47,0,.07v30h-2.73v39.12h31.22l.08-97,3.69-3.68V125.48ZM129.27,69.41h.06a.23.23,0,0,1,.19.23.22.22,0,0,1-.22.22h-.06a.22.22,0,0,1-.2-.18A.31.31,0,0,1,129.27,69.41ZM142,137.85l-3.64,3.68-.07,95.22H113.09V203.69h2.72V171.06l.38-2.77a2.31,2.31,0,0,0,.68.35,2.34,2.34,0,0,0,2.41-.54l1-1V141.47l-3.62-3.62V125.7L118.81,111l1.16,7.83a1.75,1.75,0,0,0,3.46,0l5.85-39L135.17,119a1.76,1.76,0,0,0,1.73,1.5,1.72,1.72,0,0,0,1.73-1.5l1.19-8L142,125.65Z"/><path class="cls-5" d="M129.3,180.34a5.18,5.18,0,0,0-5.17,5.17v16.42h10.34V185.51A5.18,5.18,0,0,0,129.3,180.34Zm2.6,19h-5.2V185.51a2.6,2.6,0,0,1,5.2,0Z"/><path class="cls-5" d="M135.91,144a3.38,3.38,0,0,0-4.51-.26,3.5,3.5,0,0,0-4.21,0,3.35,3.35,0,0,0-5.45,2.62v12.11h15.12v-12.1A3.25,3.25,0,0,0,135.91,144Zm-10,11.91h-1.58v-9.55a.79.79,0,1,1,1.58,0Zm4.21,0h-1.58v-9.55a.79.79,0,0,1,1.58,0Zm4.19,0h-1.59v-9.55a.8.8,0,0,1,1.59,0Z"/><path class="cls-5" d="M129.3,203.41a5.18,5.18,0,0,0-5.17,5.17v8.82h10.34v-8.82A5.18,5.18,0,0,0,129.3,203.41Zm2.6,11.43h-5.2v-6.26a2.6,2.6,0,1,1,5.2,0Z"/><path class="cls-5" d="M134,163.11A6.65,6.65,0,1,0,136,167.8,6.61,6.61,0,0,0,134,163.11Zm-1.82,7.55a4,4,0,0,1-2.9,1.21,4.08,4.08,0,1,1,4.08-4.07A3.94,3.94,0,0,1,132.2,170.66Z"/><path class="cls-5" d="M213.19,223.23V200.65h-2.71V170.73l-3.28-23.62-1.17,10V142.72l3.62-3.62V125.48l-3.45-23.4V96.45a1.8,1.8,0,0,0-1.54-1.83,1.74,1.74,0,0,0-1.93,1.72V102l-1.17,7.91-5.13-34a2.13,2.13,0,0,0,.78-1.53,2.17,2.17,0,0,0-.57-1.58,2.15,2.15,0,0,0-.76-.52v0a3.32,3.32,0,0,0,1.33-2.63,3.27,3.27,0,0,0-1.51-2.76v-1.7a1.74,1.74,0,0,0,0-3.2,1.73,1.73,0,0,0-3.45,0,1.73,1.73,0,0,0,0,3.19v1.72a3.26,3.26,0,0,0-.18,5.39v0a2.13,2.13,0,0,0-.76,3.43,1.52,1.52,0,0,0,.22.22l-5.14,34.16-1.18-8V96.43a1.79,1.79,0,0,0-1.56-1.81,1.73,1.73,0,0,0-1.91,1.72V102l-3.46,23.47-.06,13.6,3.69,3.68.08,97h31.22v-3.13a1.52,1.52,0,0,0-1.52-1.53h0a1.52,1.52,0,0,0-1.52,1.53v.11H185l-.07-95.07v-.15l-3.69-3.68V125.7L183.39,111l1.18,8a1.76,1.76,0,0,0,1.73,1.5A1.72,1.72,0,0,0,188,119l5.9-39.19,5.89,39a1.74,1.74,0,0,0,1.73,1.49,1.72,1.72,0,0,0,1.73-1.5l1.15-7.82,2.16,14.66v12.2L203,141.47V167.1l1,1a2.3,2.3,0,0,0,2.41.54,2.11,2.11,0,0,0,.68-.36l.38,2.72v32.69h2.72v19.54a1.53,1.53,0,0,0,1.52,1.53h0A1.53,1.53,0,0,0,213.19,223.23ZM194,69.86h-.07a.22.22,0,0,1-.19-.22.24.24,0,0,1,.22-.23h0a.24.24,0,0,1,.22.23A.22.22,0,0,1,194,69.86Z"/><path class="cls-5" d="M193.94,180.34a5.18,5.18,0,0,0-5.17,5.17v16.42h10.35V185.51A5.19,5.19,0,0,0,193.94,180.34Zm2.61,19h-5.21V185.51a2.61,2.61,0,0,1,5.21,0Z"/><path class="cls-5" d="M198.12,143a3.3,3.3,0,0,0-2.11.75,3.42,3.42,0,0,0-4.2,0,3.5,3.5,0,0,0-2.14-.75,3.25,3.25,0,0,0-2.29.95,3.37,3.37,0,0,0-1,2.41v12.11h15.1V146.35A3.37,3.37,0,0,0,198.12,143Zm-7.59,12.9h-1.59v-9.54a.8.8,0,0,1,1.59,0Zm4.21,0h-1.59v-9.54a.8.8,0,0,1,1.59,0Zm4.21,0h-1.59v-9.54a.8.8,0,0,1,1.59,0Z"/><path class="cls-5" d="M193.94,203.41a5.18,5.18,0,0,0-5.17,5.17v8.82h10.35v-8.82A5.19,5.19,0,0,0,193.94,203.41Zm2.61,11.43h-5.21v-6.26a2.61,2.61,0,0,1,5.21,0Z"/><path class="cls-5" d="M193.94,161.15a6.65,6.65,0,1,0,6.65,6.64A6.65,6.65,0,0,0,193.94,161.15Zm0,10.72a4.08,4.08,0,1,1,4.08-4.08A4.08,4.08,0,0,1,193.94,171.87Z"/><path class="cls-5" d="M163.13,141.69v-8.24h2.16a1.51,1.51,0,1,0,0-3h-2.16V127a1.52,1.52,0,0,0-3,0v3.44h-2.16a1.51,1.51,0,1,0,0,3h2.16v8.24L143.35,165.5l-.07.1v74.19H157.2V222.44a4.43,4.43,0,0,1,8.86,0v17.35H180V165.6Zm13.8,95.06h-7.86V222.44a7.46,7.46,0,1,0-14.91,0v14.31H146.3v-70.2l15.31-21.75,15.32,21.75Z"/><path class="cls-5" d="M161.63,185a6.65,6.65,0,0,0-6.64,6.64v21h13.28v-21A6.65,6.65,0,0,0,161.63,185ZM165.71,210h-8.16V191.62a4.08,4.08,0,1,1,8.16,0Z"/><path class="cls-5" d="M161.63,170.05a6.65,6.65,0,1,0,6.64,6.64A6.65,6.65,0,0,0,161.63,170.05Zm0,10.73a4.08,4.08,0,1,1,4.08-4.07A4.08,4.08,0,0,1,161.63,180.78Z"/><path class="cls-5" d="M166.3,158.23v-3.15a2.93,2.93,0,0,0-4.68-2.35,2.89,2.89,0,0,0-1.74-.58,2.94,2.94,0,0,0-2.94,2.93v3.14a3,3,0,0,0-3.52,2.88v6.07h16.41V161.1A2.92,2.92,0,0,0,166.3,158.23Zm-9.36,6.6h-1.18V161.1a.59.59,0,0,1,.6-.59.58.58,0,0,1,.58.53Zm3.53,0h-1.18v-9.75a.58.58,0,0,1,.59-.59.6.6,0,0,1,.59.59Zm3.51,0h-1.17v-9.78a.57.57,0,0,1,.57-.56.59.59,0,0,1,.6.59Zm3.52,0h-1.18v-3.78a.56.56,0,0,1,.59-.54.58.58,0,0,1,.59.59Z"/><path class="cls-5" d="M90.11,558.35c-2.14,0-3.36-.62-4.15-2.13v-6.45a3.69,3.69,0,0,1,3.64-2.14h.48c.68.05,1.4.07,2.28.07l1.84,0,1.94,0a.74.74,0,0,0,.74-.74v-1.88q0-7.93,0-15.87c0-13.4,0-27.26-.08-40.89-.07-6.74,3.71-11.48,10.11-12.67a.75.75,0,0,0,.6-.73V455.75c0-2.45,1.09-3.55,3.5-3.56h5.61c2.51,0,3.58,1.1,3.58,3.64q0,6.62,0,13.21v5.74a.75.75,0,0,0,.51.71l1.33.42a14.54,14.54,0,0,1,2.44.88,11,11,0,0,1,6.35,10c.07,2.32.05,4.62,0,7.05,0,1.09,0,2.2,0,3.32a.75.75,0,0,0,.74.75h10c2.3,0,4.6,0,6.9,0h0a3.74,3.74,0,0,1,3.14,1.46c6.57,7.72,7.15,18.8,1.36,26.34A16.29,16.29,0,0,1,142.93,532a1.79,1.79,0,0,0-1.71,2.15c0,.67-.05,1.33-.11,2-.14,1.67-.28,3.39.44,4.76a7.9,7.9,0,0,0,3.3,2.79,14.22,14.22,0,0,1,2,1.28,12.69,12.69,0,0,0,8.49,2.79h.42a11.4,11.4,0,0,0,7.75-2.59,30.56,30.56,0,0,1,3-2.2c.67-.45,1.36-.93,2-1.43a2.61,2.61,0,0,0,1.06-1.85c0-3.35,0-6.75,0-10v-4.21a.75.75,0,0,0-.52-.71c-5.32-1.72-7.39-5.52-6.71-12.33a.75.75,0,0,0-.63-.81l-.57-.07c-.34,0-.65-.09-1-.15a1.3,1.3,0,0,1-1.2-1.44,1.25,1.25,0,0,1,1.22-1.38,15.77,15.77,0,0,1,1.86-.11l1,0a.75.75,0,0,0,.71-.74v-33c0-2.93.25-3.26,3-4a.75.75,0,0,0,.37-1.21c-3.17-3.63-3.36-5.55-1-9.79l.91-1.64c.66-1.19,1.35-2.43,2-3.62a2,2,0,0,1,3.78,0c1.3,2.23,2.55,4.47,3.72,6.68,1.51,2.85,1,5.28-1.75,8.38a.74.74,0,0,0-.16.71.75.75,0,0,0,.52.5c2.74.71,3,1,3,3.85V477c0,2.08,0,4.17,0,6.26,0,1.23-.48,1.86-1.42,1.88h0c-1.25,0-1.51-1.05-1.51-1.94,0-2,0-3.93,0-5.93v-2.57a.75.75,0,0,0-.74-.75h-7a.75.75,0,0,0-.74.75v32.95a.75.75,0,0,0,.74.75h7a.75.75,0,0,0,.74-.75v-4.41c0-2.82,0-5.65,0-8.47a3.65,3.65,0,0,1,.18-1.31,1.2,1.2,0,0,1,1.18-.84,1.78,1.78,0,0,1,.39,0c.59.11,1.19.39,1.19,1.62v13.5a.74.74,0,0,0,.74.74H181c1.91.05,2,1,2,1.39,0,.67-.16,1.37-1.8,1.56l-.55.08-.35.05a.75.75,0,0,0-.63.74v1.23c0,.87,0,1.72,0,2.58a8.52,8.52,0,0,1-5.57,8.16,2.25,2.25,0,0,0-1.65,2.36c0,1.9,0,3.81,0,5.71,0,2.3,0,4.67,0,7a3.69,3.69,0,0,0,.6,1.71c.1.19.21.38.29.57a.74.74,0,0,0,.68.45l.19,0,.61-.16a.75.75,0,0,0,.55-.72v-4.91q0-3,0-6.08c0-2.5,1-3.47,3.54-3.47h20.81a.75.75,0,0,0,.73-.63c.17-1.13.34-2.25.52-3.36.37-2.41.74-4.8,1.08-7.19.25-1.73.63-2.88,1.84-3.6a1.72,1.72,0,0,0,.74-1.56c-.16-1-.36-1.91-.53-2.67l-.14-.63a.75.75,0,0,0-.72-.59.69.69,0,0,0-.2,0c-.51.14-1,.29-1.51.45a13,13,0,0,1-3,.71h-.2a5,5,0,0,1-3.3-1.87,3,3,0,0,0-2-.83h-.19l-.61,0a5,5,0,0,1-3.71-1.47,5.38,5.38,0,0,1-1.38-4,3,3,0,0,0-.92-2.15,5.45,5.45,0,0,1-2.09-3.91,5.38,5.38,0,0,1,1.89-4,3.31,3.31,0,0,0,.91-2.28,5.56,5.56,0,0,1,1.34-4.14,5.18,5.18,0,0,1,3.86-1.39h.42a2.52,2.52,0,0,0,2.64-3.25c-.35-1.74.17-3.21,1.71-4.78a3.28,3.28,0,0,0,.9-2.25,5.27,5.27,0,0,1,1.3-4,4.85,4.85,0,0,1,3.64-1.4h.51a2.78,2.78,0,0,0,2.26-1.06,5,5,0,0,1,3.8-1.92,5.3,5.3,0,0,1,3.77,1.76,3.56,3.56,0,0,0,2.35.93h.23a5.34,5.34,0,0,1,3.93,1.42,5.42,5.42,0,0,1,1.38,4,2.88,2.88,0,0,0,.87,2c1.74,1.59,2.32,3.15,1.91,5.06a2.52,2.52,0,0,0,.57,2.12,2.94,2.94,0,0,0,2.24,1.14h.17l.6,0a5.4,5.4,0,0,1,4.15,1.67,5.7,5.7,0,0,1,1.26,4.54,2.9,2.9,0,0,0,.48,1.73c.61.93,1.26,1.84,1.89,2.73l.65.91V495l-.67.89c-.68.9-1.38,1.82-2.05,2.77a3,3,0,0,0-.53,1.72,6.1,6.1,0,0,1-1.44,4.52,5.55,5.55,0,0,1-4.11,1.47h0l-.62,0h-.14a2.93,2.93,0,0,0-2,.84,5.68,5.68,0,0,1-4.15,2.13,5.9,5.9,0,0,1-3.72-1.53,3.91,3.91,0,0,0-.45-.3l-.24-.15a.73.73,0,0,0-.4-.13.63.63,0,0,0-.27.06.69.69,0,0,0-.45.51l-.1.4c-.06.26-.11.47-.17.68-.4,1.26-.56,2.71,1.19,3.83a3.21,3.21,0,0,1,.86,1.92c.74,4.42,1.43,8.92,2.09,13.28,0,0,2.13,13.94,2.94,19.2a.73.73,0,0,0,.73.63h4.42l2.71,0a2.92,2.92,0,0,1,3.2,3,39.8,39.8,0,0,1,0,4.78,2.84,2.84,0,0,1-3.06,2.84l-2.12,0h-7.38l-3.48,0a1.43,1.43,0,0,1-1.62-1.41,1.52,1.52,0,0,1,1.64-1.53h12.29a.75.75,0,0,0,.74-.75v-3.16a.74.74,0,0,0-.74-.74H89.77a.75.75,0,0,0-.75.74v3.16a.76.76,0,0,0,.75.75H205.15c.22,0,.45,0,.67,0a1.46,1.46,0,0,1,0,2.92l-.52,0H159.63q-34.75,0-69.5,0Zm117.05-31.64c2.78,0,3.72,1,3.73,3.77v14.78c0,.35,0,.71.05,1.08l0,.56a.74.74,0,0,0,.74.71h5.87a.73.73,0,0,0,.57-.26.74.74,0,0,0,.17-.59l-1.93-12.65q-1.37-9-2.77-18c-.1-.61-.77-1.53-1.5-1.55-1.18,0-2.34,0-3.22,0h-3a.73.73,0,0,0-.73.62c-.56,3.65-1.09,7.09-1.64,10.72a.74.74,0,0,0,.17.59.73.73,0,0,0,.56.26h2.88ZM171,543.57a.7.7,0,0,0-.44.14L167,546.25a.75.75,0,0,0,.44,1.35h7.09a.75.75,0,0,0,.71-.52.77.77,0,0,0-.28-.83l-3.56-2.54A.69.69,0,0,0,171,543.57Zm8.23-13.81a.75.75,0,0,0-.75.74v16.35a.75.75,0,0,0,.75.74h27.87a.74.74,0,0,0,.74-.74V530.5a.74.74,0,0,0-.74-.74Zm-77.31-8.07c-.31,0-.63,0-1,0l-.4,0a.74.74,0,0,0-.69.74v24.31a.74.74,0,0,0,.74.74h26.57a.74.74,0,0,0,.74-.74c0-1.53,0-3.05,0-4.56,0-3.76,0-7.66,0-11.46a6.93,6.93,0,0,0-1.86-5.48,6.76,6.76,0,0,1-1.33-2.13,2.38,2.38,0,0,0-2.47-1.53l-12.1,0h-8.29Zm37.83,22.21a.72.72,0,0,0-.42.13l-3.24,2.17a.73.73,0,0,0-.29.83.74.74,0,0,0,.71.53H143a.74.74,0,0,0,.71-.53.72.72,0,0,0-.3-.83L140.15,544A.79.79,0,0,0,139.74,543.9Zm-8.09-13.24a.75.75,0,0,0-.75.74v13.32a.75.75,0,0,0,.4.65.73.73,0,0,0,.35.09.69.69,0,0,0,.41-.13l1.37-.91c1.42-.95,2.75-1.84,4-2.77a2.31,2.31,0,0,0,.76-1.72c0-1.9,0-3.88,0-6.06,0-.36-.18-1.43-.91-1.66-1.38-.42-2.78-.8-4.14-1.16l-1.35-.36A.63.63,0,0,0,131.65,530.66Zm-5.27-16.4a.74.74,0,0,0-.74.69,13.18,13.18,0,0,0,3.61,9.59,14.23,14.23,0,0,0,10,4.82h.42c9.27,0,14.22-8.35,14.23-14.37a.78.78,0,0,0-.21-.52.75.75,0,0,0-.53-.22ZM166,511.52a.74.74,0,0,0-.74.74c0,.49,0,1,0,1.42a28.25,28.25,0,0,0,0,2.92,5.82,5.82,0,0,0,5.41,5.34H171a5.64,5.64,0,0,0,5.6-4.58,19.18,19.18,0,0,0,.1-3.55c0-.52,0-1,0-1.56a.74.74,0,0,0-.74-.74ZM100.68,495.8a.75.75,0,0,0-.75.74v21.37a.75.75,0,0,0,.75.74h21.38a.75.75,0,0,0,.56-.25.74.74,0,0,0,.17-.59l-.1-.79a21.25,21.25,0,0,1,4.11-16.3,4.92,4.92,0,0,0,1-4.33.74.74,0,0,0-.73-.59h-5.91c-1.45,0-2.9,0-4.34,0-.63,0-1.68-.21-1.66-1.48,0-.93.59-1.41,1.72-1.43l3.65,0h5.06c.36,0,.72,0,1.1,0l.56,0a.74.74,0,0,0,.71-.74v-1.61c0-1.13,0-2.2,0-3.28a8.27,8.27,0,0,0-8.27-8.54c-1.85-.05-3.75-.08-5.67-.08s-3.9,0-5.9.08a8.07,8.07,0,0,0-8.08,6.84,26.67,26.67,0,0,0-.11,4.57c0,.7,0,1.4,0,2.11a.75.75,0,0,0,.74.75h5.06c1,0,1.49.41,1.59,1.33a1.32,1.32,0,0,1-.28,1.05,1.84,1.84,0,0,1-1.37.53c-.64,0-1.28,0-1.92,0h-3.08Zm107.38,8.65a1.06,1.06,0,0,0-.54.14,1.66,1.66,0,0,0-.61,1.62c.2,1.14.43,2.25.66,3.36l.26,1.25a.72.72,0,0,0,.49.55,3.06,3.06,0,0,0,1,.19c1.46,0,1.72-1.43,1.81-1.9l0-.2c.52-2.84.39-3.14-2-4.66A2.17,2.17,0,0,0,208.06,504.45Zm-68.6-3.58h-7.89a1.93,1.93,0,0,0-1.52.49,17.34,17.34,0,0,0-4.28,8.92.74.74,0,0,0,.17.59.73.73,0,0,0,.57.26H153a.73.73,0,0,0,.57-.26.74.74,0,0,0,.16-.61,18,18,0,0,0-4.16-8.74,2.45,2.45,0,0,0-1.74-.65Zm76.11,1.55c1,0,1.28.52,1.82,1.56a4,4,0,0,0,2.48,2.18h.18c1,0,2.08-1.29,2.43-1.91.84-1.5,1.09-1.65,1.52-1.65a6.7,6.7,0,0,1,1.69.38,4.89,4.89,0,0,0,1.35.19,3,3,0,0,0,1.89-.55c1-.85.32-3.17.32-3.2-.55-1.79-.42-2.07,1.29-2.94.08-.05,2.15-1.12,2.17-2.5,0-1.12-1.37-2.16-2.1-2.55-1.7-.91-1.77-1.08-1.16-3,.21-.63.55-2.44-.29-3.29a2.45,2.45,0,0,0-1.77-.55,5.4,5.4,0,0,0-1.51.21,5.56,5.56,0,0,1-1.44.28c-.47,0-.77-.15-1.5-1.57-.38-.72-1.39-2.09-2.53-2.14h0c-1.22,0-2.29,1.48-2.61,2.05-.75,1.36-1.05,1.5-1.51,1.5a5.58,5.58,0,0,1-1.5-.31,5.42,5.42,0,0,0-1.52-.22,3,3,0,0,0-1.84.52c-1,.82-.32,3.23-.29,3.33.48,1.62.32,2-1.19,2.75a6.26,6.26,0,0,0-1.65,1.41c-.19.21-.38.42-.58.61a.77.77,0,0,0-.24.53.75.75,0,0,0,.22.53l.57.58c.47.47.93.95,1.41,1.41a1.62,1.62,0,0,0,.58.32l.11,0a1.41,1.41,0,0,1,.78,1.95c-.06.17-.13.33-.2.5s-.21.5-.29.76a2.85,2.85,0,0,0,.23,2.62,2.21,2.21,0,0,0,1.89.83,4.47,4.47,0,0,0,.93-.1,12.56,12.56,0,0,0,1.52-.47Zm-20.25-1.08c.43,0,.71.16,1.48,1.54.27.5,1.21,1.79,2.24,1.79a2.71,2.71,0,0,0,1.83-1.27,5.2,5.2,0,0,1,.37-.43,1.77,1.77,0,0,0,.36-.71,1,1,0,0,1,.06-.16,1.32,1.32,0,0,1,1.29-.93,2.79,2.79,0,0,1,.66.1,2.26,2.26,0,0,1,.43.17,2.86,2.86,0,0,0,1.14.31c.21,0,1.93-.06,2.19-1a3.17,3.17,0,0,0-.39-2.62,8.52,8.52,0,0,0-1.84-1.5c-.26-.18-.52-.35-.77-.54a.76.76,0,0,0-1,.13,5.67,5.67,0,0,1-4.41,2.4,5.74,5.74,0,0,1-1.83-.32,5.08,5.08,0,0,1-3.54-4.72,5.52,5.52,0,0,1,.84-3.14,12.73,12.73,0,0,1,2.61-2.18c.45-.32.9-.64,1.35-1a.74.74,0,0,0,.26-.79l-.75-2.59a.73.73,0,0,0-.61-.52h-.11a.72.72,0,0,0-.62.35c-.89,1.42-1.15,1.56-1.57,1.56a6.36,6.36,0,0,1-1.56-.33,4.87,4.87,0,0,0-1.23-.16,2.18,2.18,0,0,0-1.67.56c-.81.89-.25,2.69-.19,2.89.57,1.76.46,2.06-1.12,2.9a5,5,0,0,0-1.35,1.19c-.15.17-.3.33-.46.49a.73.73,0,0,0-.22.52.74.74,0,0,0,.21.53c.16.16.31.35.46.53a5.12,5.12,0,0,0,1.41,1.28c1.7.87,1.81,1.11,1.29,2.83,0,0-.68,2.25.31,3a2.78,2.78,0,0,0,1.61.43,4.63,4.63,0,0,0,1.34-.2A5.76,5.76,0,0,1,195.32,501.34Zm3.51-10.46a2.22,2.22,0,0,0-2.34,2.23,2.43,2.43,0,0,0,.62,1.81,2.07,2.07,0,0,0,1.52.63h.28a3.43,3.43,0,0,0,1.72-.93,3.35,3.35,0,0,1,.4-.31.73.73,0,0,0,.32-.71c-.08-.67-.35-2.71-2.46-2.71ZM203,469.06a2.12,2.12,0,0,0-1.55.5c-.68.69-.47,2.11-.27,2.77.62,2,.64,2-1.29,3.06,0,0-1.84,1-1.64,2.18a3.34,3.34,0,0,0,1.76,2c1.89,1,1.93,1.07,1.34,3.06,0,.08-.55,1.95.34,2.66a2.34,2.34,0,0,0,1.56.44c.34,0,.68,0,1-.07a19.08,19.08,0,0,0,2.16-.36l1.09-.21a.75.75,0,0,0,.56-.47l.37-1a.74.74,0,0,0-.31-.9c-3.71-2.25-4.87-4.76-3.57-7.67a5.55,5.55,0,0,1,5.05-3.23,5.38,5.38,0,0,1,1.59.24c3,.94,4.19,3.38,3.53,7.46a.75.75,0,0,0,.3.73.76.76,0,0,0,.43.14.64.64,0,0,0,.35-.1l5-2.72a.74.74,0,0,0,.39-.59.73.73,0,0,0-.29-.65l-.52-.43a6.76,6.76,0,0,0-1.37-1c-1.71-.85-1.81-1.07-1.24-3,0-.07.57-1.94-.3-2.66a2.68,2.68,0,0,0-1.66-.49,3.65,3.65,0,0,0-1,.13,7.45,7.45,0,0,1-1.77.39c-.42,0-.66-.14-1.49-1.61,0,0-.93-1.61-2-1.61h-.12a3.28,3.28,0,0,0-2.12,1.69c-.82,1.54-1.06,1.69-1.5,1.69a6.61,6.61,0,0,1-1.55-.32A4.84,4.84,0,0,0,203,469.06Zm6.46,5.82a2.33,2.33,0,0,0-2.39,2.41,2.37,2.37,0,0,0,2.45,2.5h.1a2.38,2.38,0,0,0,2.46-2.53,2.32,2.32,0,0,0-2.49-2.38ZM111.3,455.22a.74.74,0,0,0-.74.74V474.8a.74.74,0,0,0,.74.74h5.12a.74.74,0,0,0,.74-.74V456a.74.74,0,0,0-.74-.74ZM171,457.83a.75.75,0,0,0-.65.38c-.27.5-.54,1-.8,1.44-.6,1-1.16,2-1.66,3a3.24,3.24,0,0,0,1,4.19,3.28,3.28,0,0,0,2.07.77,3.49,3.49,0,0,0,1.95-.64,3.23,3.23,0,0,0,1.24-4.15,31.28,31.28,0,0,0-1.67-3.17l-.84-1.48a.75.75,0,0,0-.65-.38Zm22.12,84.85h-2.88c-.6,0-1.21,0-1.82,0-1,0-1.68-.57-1.66-1.47a1.42,1.42,0,0,1,1.56-1.44c1.62,0,3.24,0,4.86,0s3.24,0,4.85,0a1.38,1.38,0,0,1,1.5,1.48,1.41,1.41,0,0,1-1.57,1.43c-.64,0-1.28,0-1.91,0Zm.38-6.26h-8.43c-.68,0-1.84-.2-1.86-1.46a1.32,1.32,0,0,1,.34-1,2.26,2.26,0,0,1,1.6-.5h16.07c1.84,0,1.85,1.08,1.86,1.43a1.45,1.45,0,0,1-.36,1,2,2,0,0,1-1.43.47Zm26.68-36.82a5.82,5.82,0,1,1-.11-11.64h.09a5.82,5.82,0,1,1,.06,11.64Zm0-8.68a2.93,2.93,0,0,0-2.93,2.78,2.77,2.77,0,0,0,.77,2,3,3,0,0,0,2.08.93h0a2.9,2.9,0,0,0,3-2.77,2.84,2.84,0,0,0-.82-2,3,3,0,0,0-2-.9Z"/><path class="cls-5" d="M347.68,381.4H335.9a2.6,2.6,0,0,1-2.63-2.62c0-1.06,0-2.15,0-3.33a2.6,2.6,0,0,1,2.69-2.66h6.59a.74.74,0,0,0,.74-.74v-4a.73.73,0,0,0-.26-.56.7.7,0,0,0-.48-.18h-.11l-1.24.2c-.94.16-1.91.32-2.86.39-.48,0-1,.05-1.62.05h-1.87l.29-2.77c.18-1.68.35-3.33.53-5l2.66-24.79c.38-3.56.76-7.11,1.16-10.66a2.25,2.25,0,0,0-.82-2.17,5.94,5.94,0,0,1,1.81-10,3,3,0,0,0,1.56-1.4,7.82,7.82,0,0,0,1.39-5.66,2.44,2.44,0,0,1,.18-.88,6.65,6.65,0,0,0,.19-.71.73.73,0,0,0-.46-.85c-5.27-2-8.22-6.38-10.37-10.52l6-3.72a.75.75,0,0,0,.3-.9c-1-2.69-1-5.57-.95-8.62,0-.25,0-.49,0-.74l.25,0c.9,0,1.91-.11,3-.11a19.1,19.1,0,0,1,11.49,3.51.75.75,0,0,0,.43.13h.15a.72.72,0,0,0,.48-.35,6,6,0,0,1,5.36-3.25,5.84,5.84,0,0,1,5.48,3.68,2.85,2.85,0,0,0,1.91,1.88,4,4,0,0,1,.92.49l.51.3a.78.78,0,0,0,.36.1.88.88,0,0,0,.32-.07l.66-.31c.59-.27,1.19-.55,1.78-.86a2.07,2.07,0,0,0,.87-1.09,5.82,5.82,0,0,1,5-4.06,6.33,6.33,0,0,1,.86-.06,5.94,5.94,0,0,1,4.79,2.55,2.44,2.44,0,0,0,1.8.79h1.21a43.05,43.05,0,0,1,10.74,1c12.83,3.24,21.91,11.16,27,23.53a3.8,3.8,0,0,0,1.31,1.65,6.88,6.88,0,0,1,2.53,3.14,2.55,2.55,0,0,0,1.36,1.34,6,6,0,0,1,1.89,10.24,2.4,2.4,0,0,0-.72,1.85q1.23,11.93,2.53,23.85l.34,3.25c.45,4.12.9,8.25,1.35,12.44l.42,3.83H433l-1.21,0a10.34,10.34,0,0,1-4.6-.83.71.71,0,0,0-.32-.07.77.77,0,0,0-.39.11.74.74,0,0,0-.35.63V372a.74.74,0,0,0,.74.74h6.22c2.1,0,3.08,1,3.09,3.1v.66q0,1.08,0,2.16a2.61,2.61,0,0,1-2.65,2.7H410a2.6,2.6,0,0,1-2.61-2.64c0-1,0-2.06,0-3.08a2.64,2.64,0,0,1,2.81-2.89h6.5a.73.73,0,0,0,.74-.71l0-.39c0-.25,0-.47,0-.7v-3.59c0-3.12,0-6.24,0-9.36a2.16,2.16,0,0,0-1.25-2.14A8.35,8.35,0,0,1,415,355l-.23-.19c-2.09-1.66-2.64-3.24-1.92-5.44A38.92,38.92,0,0,0,414,344c.13-.77.27-1.55.42-2.32a.74.74,0,0,0-.48-.85c-14.38-5.1-23.71-14.71-28.52-29.39a.74.74,0,0,0-.7-.51h0a.75.75,0,0,0-.71.51c-4.77,14.64-14.1,24.25-28.5,29.4a.73.73,0,0,0-.48.83l.27,1.4c.25,1.29.5,2.6.76,3.9.1.51.21,1,.32,1.52.21,1,.42,2,.57,3a1.49,1.49,0,0,1-.12.91c-.81.84-1.68,1.66-2.53,2.45l-1.44,1.36a2.27,2.27,0,0,0-.86,1.46c0,3.88,0,7.82,0,11.63v2.49a1,1,0,0,0,.11.43l.05.13a.73.73,0,0,0,.69.48h6c2.25,0,3.21,1,3.21,3.18v.85c0,.66,0,1.32,0,2a2.6,2.6,0,0,1-2.62,2.62ZM336,374.73a.74.74,0,0,0-.74.74v3.25a.74.74,0,0,0,.74.74h23.45a.74.74,0,0,0,.74-.74v-3.25a.74.74,0,0,0-.74-.74Zm74.08,0a.75.75,0,0,0-.74.75v3.26a.74.74,0,0,0,.74.74h23.45a.74.74,0,0,0,.74-.74v-3.26a.75.75,0,0,0-.74-.75Zm-60.83-17.13-1.64.22a.74.74,0,0,0-.65.77,9.16,9.16,0,0,1-1.47,5.88,1.32,1.32,0,0,0-.21.72V372a.74.74,0,0,0,.74.74h3.32a.74.74,0,0,0,.74-.74V358.3a.75.75,0,0,0-.74-.74Zm70.95,0a.79.79,0,0,0-.48.18.77.77,0,0,0-.26.57V372a.74.74,0,0,0,.74.74h3.3a.74.74,0,0,0,.74-.74v-6.49a1.76,1.76,0,0,0-.22-1,9.24,9.24,0,0,1-1.46-5.87.76.76,0,0,0-.64-.78l-1.61-.24Zm7.42-31.32a.69.69,0,0,0-.49.19c-.2.17-.39.36-.58.53a8.22,8.22,0,0,1-1.13,1,2.2,2.2,0,0,0-1,2q0,8.35,0,16.7,0,6.39,0,12.78a6.27,6.27,0,0,0,6.64,6.6c.22,0,.45,0,.69,0a.74.74,0,0,0,.51-.27.73.73,0,0,0,.17-.55l-4.1-38.27a.75.75,0,0,0-.47-.62A.84.84,0,0,0,427.6,326.22Zm-85.72-.08a.76.76,0,0,0-.74.67L337,365.1a.75.75,0,0,0,.64.82,8.24,8.24,0,0,0,1,.07,6.17,6.17,0,0,0,6.37-6.21c0-9.21,0-18.57,0-27.63v-2.49a2.16,2.16,0,0,0-.57-1.4c-.45-.46-.93-.88-1.44-1.34l-.65-.58A.74.74,0,0,0,341.88,326.14Zm77.72,2.74a.75.75,0,0,0-.69.46l0,.1a1.77,1.77,0,0,0-.12.35l-.22,1.11c-1.31,6.46-2.65,13.14-3.94,19.72a2.31,2.31,0,0,0,.52,1.84,10,10,0,0,0,6.54,3.37h.08a.75.75,0,0,0,.74-.74V330a.73.73,0,0,0-.62-.73l-2.12-.36Zm-69.66,0h-.14l-2.2.39a.74.74,0,0,0-.61.73v25a.75.75,0,0,0,.22.53.78.78,0,0,0,.52.21h0a9.75,9.75,0,0,0,6.38-3,2.57,2.57,0,0,0,.73-2.55c-.66-3.13-1.28-6.27-1.9-9.4l-.75-3.78c-.39-1.94-.78-3.87-1.18-5.82l-.36-1.79A.74.74,0,0,0,349.94,328.86ZM383,298.4a.76.76,0,0,0-.43.14l-2,1.46a.76.76,0,0,0-.29.74c.64,3.48.45,4.13-2,7a3.1,3.1,0,0,0-.56,1.22,36.33,36.33,0,0,1-22.09,24.64c-.32.14-.65.26-1,.38l-.46.18a.74.74,0,0,0-.46.83l.1.51c.13.71.26,1.38.4,2a3.66,3.66,0,0,0,.14.51l.08.27a.7.7,0,0,0,.37.45.67.67,0,0,0,.34.09.69.69,0,0,0,.24-.05,41.6,41.6,0,0,0,23.16-19.25,40.88,40.88,0,0,0,5.25-20.41.76.76,0,0,0-.41-.66A.81.81,0,0,0,383,298.4Zm6.75-7.94a.71.71,0,0,0-.62.34c-.24.38-.43.74-.62,1.1a4,4,0,0,1-1,1.42c-2.11,1.39-2,3.44-1.89,4.94q0,.36,0,.72v.63c.44,15,7,26.73,19.55,35a35.22,35.22,0,0,0,8.94,4.19.83.83,0,0,0,.22,0,.72.72,0,0,0,.38-.1.76.76,0,0,0,.35-.49l.64-3.23a.74.74,0,0,0-.44-.83l-1.2-.48c-.85-.34-1.65-.66-2.42-1-12.43-6.06-19.48-16.06-20.94-29.73a62.9,62.9,0,0,1-.22-7.13c0-1.11,0-2.21,0-3.32V291.2a.73.73,0,0,0-.53-.71Zm-26,20.36a.77.77,0,0,0-.39.11c-2.43,1.51-2.51,1.58-4,3.79a1.27,1.27,0,0,1-.1.12,1.6,1.6,0,0,0-.36.58l-.08.23a2.72,2.72,0,0,0-.23,1.36,5.91,5.91,0,0,1-3.65,6.65,2.75,2.75,0,0,0-1.79,1.84,4.22,4.22,0,0,1-.33.61,2.59,2.59,0,0,0-.56,1.52,15.52,15.52,0,0,0,.5,2.84c.08.38.18.77.26,1.16a.71.71,0,0,0,.37.5.64.64,0,0,0,.35.1.75.75,0,0,0,.26-.05,34.78,34.78,0,0,0,19.85-18.08.74.74,0,0,0-.67-1.07.7.7,0,0,0-.31.07,8.23,8.23,0,0,1-3.47.88c-1.9,0-3.55-.94-5.05-2.87A.72.72,0,0,0,363.8,310.82Zm29.37-20.11a.77.77,0,0,0-.44.14.75.75,0,0,0-.31.6c0,1,0,1.94,0,2.86,0,2,0,3.88,0,5.77.37,11.55,5.22,20.84,14.4,27.6a31.09,31.09,0,0,0,8.65,4.47,1,1,0,0,0,.24,0,.72.72,0,0,0,.4-.12.75.75,0,0,0,.34-.54,10,10,0,0,1,.3-1.46c.37-1.44.78-3.07-.53-4.68a1.11,1.11,0,0,0-.25-.48l-.09-.1a8.38,8.38,0,0,0-.95-.93c-.44-.34-.9-.68-1.35-1-.61-.46-1.25-.94-1.85-1.43a5.43,5.43,0,0,1-.62-.64,7.65,7.65,0,0,0-.75-.76,26.07,26.07,0,0,1-9.53-17.73c-.17-1.61-.18-3.29-.19-4.91,0-.94,0-1.88,0-2.82,0-.37-.21-1.4-.92-1.66-1.58-.58-3.15-1.11-4.82-1.67l-1.48-.5A.59.59,0,0,0,393.17,290.71ZM343.6,322.2c-.19,2.2.53,3.71,2.19,4.6a4.11,4.11,0,0,0,5.89-4.6c.26,0,.52,0,.75,0a4.09,4.09,0,0,0,3.88-2.14,3.85,3.85,0,0,0-.17-4.25A4.08,4.08,0,0,0,352.5,314a6.51,6.51,0,0,0-.75,0c.13-2.34-.55-3.77-2.17-4.61a4.13,4.13,0,0,0-1.92-.5,4.2,4.2,0,0,0-2.51.9,4.09,4.09,0,0,0-1.46,4.22,8,8,0,0,0-.82-.05,4,4,0,0,0-3.63,1.83,3.86,3.86,0,0,0-.07,4.46,4.08,4.08,0,0,0,3.68,1.94C343.09,322.24,343.34,322.22,343.6,322.2Zm74.13,0a5.2,5.2,0,0,0,1.16,3.87,3.78,3.78,0,0,0,2.84,1.22h.08a3.8,3.8,0,0,0,2.85-1.18,5.27,5.27,0,0,0,1.2-3.91,6.76,6.76,0,0,0,.76.05,4.12,4.12,0,0,0,3.69-1.94,3.86,3.86,0,0,0,0-4.37,4.1,4.1,0,0,0-3.66-1.92c-.24,0-.5,0-.77,0a4.25,4.25,0,0,0-2-4.52,3.93,3.93,0,0,0-2.06-.6,4,4,0,0,0-2.3.76,4.35,4.35,0,0,0-1.77,4.36,6.18,6.18,0,0,0-.73,0,4.06,4.06,0,0,0-3.71,1.94,3.88,3.88,0,0,0,0,4.36,4.1,4.1,0,0,0,3.68,1.93A7.09,7.09,0,0,0,417.73,322.19Zm-14.37-27.27a.64.64,0,0,0-.33.08.73.73,0,0,0-.41.6c-.7,8.64,1.62,15.59,7.1,21.24a.75.75,0,0,0,.53.22h.16a.77.77,0,0,0,.54-.48,6,6,0,0,1,3.85-4.09,1.75,1.75,0,0,0,1.09-.83,1.88,1.88,0,0,0,0-1.44,29.37,29.37,0,0,0-5.46-9.46,28.22,28.22,0,0,0-6.65-5.72A.68.68,0,0,0,403.36,294.92Zm-49.07,15.93a.74.74,0,0,0-.09,1.35l2.94,1.55a.73.73,0,0,0,.35.09.69.69,0,0,0,.34-.09.74.74,0,0,0,.39-.56l.36-2.63,3.23-.63a.74.74,0,0,0,.31-1.32l-2.24-1.73a.74.74,0,0,0-.45-.15.5.5,0,0,0-.17,0,.76.76,0,0,0-.5.39l-1.19,2.41a.61.61,0,0,0-.05.12Zm11.22-3.9c-.22,2.24.48,3.77,2.16,4.68a3.84,3.84,0,0,0,4.34-.33,4.11,4.11,0,0,0,1.57-4.24h.85a5.15,5.15,0,0,0,.56,0,4.15,4.15,0,0,0,3.11-1.89,3.94,3.94,0,0,0,.41-3.43,2.27,2.27,0,0,0-1.22-1.22c-.83-.35-1.68-.66-2.5-.95l-.91-.33a.73.73,0,0,0-.25,0h-.08a.74.74,0,0,0-.08-.66l-.22-.33-.26-.39a9.54,9.54,0,0,0-3.48-3.4,2.07,2.07,0,0,0-1-.23,2.15,2.15,0,0,0-1,.23,4,4,0,0,0-1.94,4.47l-.73,0a4.07,4.07,0,0,0-3.93,2.22,3.84,3.84,0,0,0,.34,4.34,3.89,3.89,0,0,0,3.27,1.64A4.89,4.89,0,0,0,365.51,307Zm-11.11-3a2.41,2.41,0,1,0,2.44,2.4,2.42,2.42,0,0,0-2.44-2.4Zm34.3-20.16h-1a.76.76,0,0,0-.65.43.74.74,0,0,0,.09.77l.3.38a6.76,6.76,0,0,1,.5.66l.15.22a2.47,2.47,0,0,1,.4.74,2.28,2.28,0,0,0,2.3,1.76c11.82,1.33,20.5,7.46,25.82,18.22l.48,1a.75.75,0,0,0,.66.4,1,1,0,0,0,.29-.05l3-1.27a.74.74,0,0,0,.4-1A36,36,0,0,0,388.7,283.75Zm-39.23,18.44a4.11,4.11,0,0,0-2.83,1.09,3.82,3.82,0,0,0-1.36,3.2.74.74,0,0,0,.74.68h3.14a.76.76,0,0,0,.71-.5l1.17-3.39,0-.13h.13a.75.75,0,0,0,.43-.13,4.78,4.78,0,0,1,2.77-1,5,5,0,0,1,2.94,1.09.71.71,0,0,0,.44.15.66.66,0,0,0,.27-.06.74.74,0,0,0,.46-.55l.25-1.38a.73.73,0,0,0-.52-.85,6.67,6.67,0,0,1-3.7-2.46,1.52,1.52,0,0,0-1.2-.48,1.79,1.79,0,0,0-.64.11,4.1,4.1,0,0,0-2.28,4.7A5.2,5.2,0,0,0,349.47,302.19Zm-2.12-13.34a23.77,23.77,0,0,0-11.26,3.87.73.73,0,0,0-.25,1,16.39,16.39,0,0,0,6.54,6.82,6,6,0,0,0,2.82,1,3.26,3.26,0,0,0,2.11-.83,2.24,2.24,0,0,1,.32-.17,1.94,1.94,0,0,0,.9-.69,9.16,9.16,0,0,0,.76-1.58l.27-.64a.74.74,0,0,0,0-.65.77.77,0,0,0-.53-.38l-5.79-1,.31-1.84,5.39.88H349a.74.74,0,0,0,.58-.27.74.74,0,0,0,.11-.73l-1.63-4.3a.75.75,0,0,0-.7-.48Zm26.57,4.71c-.19,2.21.53,3.71,2.19,4.6a4.11,4.11,0,0,0,5.88-4.63l.57,0c2.75,0,4.55-1.56,4.6-4a3.85,3.85,0,0,0-1.05-2.83,5.14,5.14,0,0,0-3.76-1.33h-.27a4.35,4.35,0,0,0-1.91-4.46,4.06,4.06,0,0,0-2.17-.67,4.16,4.16,0,0,0-2.3.75,4.34,4.34,0,0,0-1.77,4.36l-.64,0a4.13,4.13,0,0,0-3.87,2,3.9,3.9,0,0,0,.13,4.36,4.07,4.07,0,0,0,3.63,1.84C373.41,293.6,373.66,293.58,373.92,293.56Zm-18.55.33a7,7,0,0,0,0,1,3.85,3.85,0,0,0,3.82,3.62,4.07,4.07,0,0,0,2.14-.63,6.29,6.29,0,0,1,.78-.38,6.9,6.9,0,0,0,.67-.32,1.7,1.7,0,0,0,1-.9,6.47,6.47,0,0,1,3.16-3.8.73.73,0,0,0,.37-.78c0-.22-.09-.42-.13-.63A6.47,6.47,0,0,1,367,290a7.52,7.52,0,0,1,.11-1.7,2.06,2.06,0,0,0-2.16-2.91,6.08,6.08,0,0,0-.61,0h-.77c.18-2.18-.53-3.68-2.18-4.58a4,4,0,0,0-1.92-.51,4.18,4.18,0,0,0-4,5.14l-.61,0c-2.72,0-4.5,1.56-4.56,4a3.79,3.79,0,0,0,1.06,2.83,5.07,5.07,0,0,0,3.75,1.34h.26C355.37,293.67,355.37,293.78,355.37,293.89Zm-13-13.54a15.11,15.11,0,0,0-1.66.09.81.81,0,0,0-.5.29.73.73,0,0,0-.14.55l.83,5.9a.73.73,0,0,0,.73.63h.11l1.24-.18,5.37-.75a1.71,1.71,0,0,0,1-.49c.5-.53,1-1.08,1.47-1.62l.55-.62a.73.73,0,0,0-.11-1.09A15.55,15.55,0,0,0,342.33,280.35Zm5.38,42.08a5,5,0,0,1-2.91-1.06.41.41,0,0,1-.38-.38,4.45,4.45,0,0,1,0-5.74.7.7,0,0,0,.14-.36.72.72,0,0,0,.27-.09,6,6,0,0,1,2.84-1,6.24,6.24,0,0,1,3,1.07l.16.06a.85.85,0,0,0,.14.34,4.42,4.42,0,0,1,0,5.75.43.43,0,0,1-.48.43A4.64,4.64,0,0,1,347.71,322.43Zm-.09-6.73a2.42,2.42,0,1,0,1.81,4.08,2.37,2.37,0,0,0,.67-1.72,2.44,2.44,0,0,0-2.42-2.36Zm74.17,6.73a5,5,0,0,1-2.88-1,.7.7,0,0,0-.23-.11.85.85,0,0,0-.13-.31,4.4,4.4,0,0,1,0-5.73.85.85,0,0,0,.11-.26.9.9,0,0,0,.28-.13,4.43,4.43,0,0,1,5.73,0,1,1,0,0,0,.27.11.74.74,0,0,0,.12.29,4.43,4.43,0,0,1,0,5.73.8.8,0,0,0-.11.25.68.68,0,0,0-.27.13A4.91,4.91,0,0,1,421.79,322.43Zm0-6.73a2.42,2.42,0,1,0,1.74,4.11,2.37,2.37,0,0,0,.7-1.71,2.43,2.43,0,0,0-2.42-2.4Zm-52.17-8.43a5,5,0,0,1-2.9-1.06.71.71,0,0,0-.31-.13.79.79,0,0,0-.13-.35,4.41,4.41,0,0,1,.08-5.66.71.71,0,0,0,.13-.35.58.58,0,0,0,.22-.08,6.12,6.12,0,0,1,2.81-1,8,8,0,0,1,3,1,.7.7,0,0,0,.31.07h.08a.75.75,0,0,0,.09.68c1.24,1.73,1.17,3.54-.2,5.54a.77.77,0,0,0-.12.24.73.73,0,0,0-.34.14A4.69,4.69,0,0,1,369.6,307.27Zm0-6.73a2.43,2.43,0,0,0-2.42,2.39,2.44,2.44,0,0,0,2.39,2.45h0a2.42,2.42,0,0,0,.07-4.84Zm8.44-6.75a5,5,0,0,1-2.9-1.06.66.66,0,0,0-.27-.12.8.8,0,0,0-.11-.25,4.48,4.48,0,0,1,0-5.77,1,1,0,0,0,.12-.25.58.58,0,0,0,.25-.12,4.48,4.48,0,0,1,5.75,0,1.28,1.28,0,0,0,.24.11.8.8,0,0,0,.12.27,4.46,4.46,0,0,1,0,5.74.8.8,0,0,0-.13.32.72.72,0,0,0-.38.13A4.67,4.67,0,0,1,378,293.79Zm0-6.73a2.42,2.42,0,0,0,0,4.84h0a2.41,2.41,0,0,0,1.78-4.09,2.47,2.47,0,0,0-1.7-.75Zm-18.23,6.7a7.22,7.22,0,0,1-3.3-1l-.1-.05a.81.81,0,0,0-.14-.33,4.46,4.46,0,0,1,0-5.74.75.75,0,0,0,.13-.32.73.73,0,0,0,.37-.14,4.76,4.76,0,0,1,2.76-1,5,5,0,0,1,2.9,1.07.79.79,0,0,0,.35.13,1,1,0,0,0,0,.1c1.41,2.79,1.32,4.55-.29,6.11A3.71,3.71,0,0,1,359.77,293.76Zm-.3-6.7a2.42,2.42,0,0,0-.07,4.84h0a2.42,2.42,0,1,0,.15-4.83Z"/><path class="cls-5" d="M381.27,686.76a1.65,1.65,0,0,0-2.29.65c-1,1.65-2,3.33-3,5a4.51,4.51,0,0,1-.56-.17,26.42,26.42,0,0,0-16.58-2.06,16.24,16.24,0,0,1-10.95-2.07,114.28,114.28,0,0,1,19.91-29.64c3,1.85,5.92,3.67,8.87,5.47a1.77,1.77,0,0,0,2.62-.35,1.74,1.74,0,0,0-.76-2.53c-3-1.85-5.93-3.69-8.91-5.49a3.24,3.24,0,0,0-4.38.62,108.56,108.56,0,0,0-20.76,31.35c-3.35,7.93-2.83,15.78,2.4,23.16l-9.37,15.22c-.73-.45-1.35-.85-2-1.21a6.59,6.59,0,0,0-5.64-.59c-2.13.71-3.33,2.35-4.32,4.22v1.61a7.51,7.51,0,0,0,1.34,1.5q6.67,4.2,13.41,8.29a2.73,2.73,0,0,0,3.54-.61,6.77,6.77,0,0,0-1.25-10c-.69-.47-1.4-.9-2.16-1.39,3.1-5,6.15-10,9.24-15a.88.88,0,0,1,.81-.3c3.71,1.1,7.21.14,10.7-1a1.74,1.74,0,0,0,1.33-2.28c-.35-1-1.25-1.3-2.47-1-1.44.4-2.88.84-4.34,1.1-4.31.77-7.24-.88-8.5-5.06a31.72,31.72,0,0,1-1.23-7.1,37.65,37.65,0,0,1,.51-5.77c.45.16.59.2.72.26a22.44,22.44,0,0,0,14,1.7,20.4,20.4,0,0,1,4.35-.27,21,21,0,0,1,8.37,2.36c-2.41,3.19-4.44,6.51-7.44,9.06-1.05.88-1.23,1.87-.57,2.68s1.76.87,2.8-.11a26.25,26.25,0,0,0,3.57-3.74c3.17-4.47,6.19-9.05,9.27-13.59a5.88,5.88,0,0,0,.35-.6A1.7,1.7,0,0,0,381.27,686.76ZM340.67,732c1.52,1,1.77,2.68.77,4.45l-12.17-7.52c1-1.68,2.66-2.25,4.26-1.33C336,729,338.34,730.45,340.67,732Zm102.56-3.47c-1.87-4.67-6.48-5.87-9.94-3.83-.65.38-1.3.78-2,1.22-3.19-5.19-6.34-10.31-9.33-15.15a35.35,35.35,0,0,0,2.59-4.55,24.56,24.56,0,0,0-.64-19.8,113.06,113.06,0,0,0-9.12-16.11c-.41-.6-.82-1.21-1.25-1.79-.75-1-1.7-1.26-2.56-.64a1.73,1.73,0,0,0-.28,2.55c.27.41.57.82.85,1.23a113.79,113.79,0,0,1,9.38,16.47,18.47,18.47,0,0,1-11.35,2.06c-1.22-.15-2.43-.38-3.65-.51a1.76,1.76,0,0,0-2,1.56,1.74,1.74,0,0,0,1.66,1.84c.76.11,1.52.18,2.28.32a22.05,22.05,0,0,0,13.47-1.6c.26-.11.54-.19.85-.3a21.59,21.59,0,0,1-.95,14,6.43,6.43,0,0,1-6.5,4,21.94,21.94,0,0,1-7.85-2.05c-5.48-2.5-8.65-7.28-11.92-12,.1-.09.14-.16.21-.19l2.77-1.1c1.17-.48,1.64-1.37,1.26-2.34a1.78,1.78,0,0,0-2.51-.86c-1.25.46-2.48.95-3.78,1.45a115.24,115.24,0,0,1-11-22.11L401,658.44c1.65,1.91,3.26,3.81,4.89,5.69.92,1.08,1.83,1.24,2.67.52s.8-1.73-.07-2.74c-1.46-1.73-2.93-3.46-4.44-5.15-1.9-2.13-3.18-2.29-5.62-.78l-17.9,11.07c-2.19,1.35-2.64,2.71-1.72,5.14a121,121,0,0,0,16.22,29.45c3.37,4.52,7.41,8.08,12.8,9.9,3.26,1.11,6.58,1.93,10,1a1.12,1.12,0,0,1,1.53.63c2.77,4.56,5.58,9.1,8.37,13.64.18.29.33.59.53,1l-1.31.82c-4.07,2.53-4.9,6.65-2.13,10.54a2.78,2.78,0,0,0,3.84.92q6.74-4.1,13.4-8.29A2.61,2.61,0,0,0,443.23,728.51Zm-15.67,8.2c-1.29-1.64-1.14-3.62.46-4.68q3.54-2.35,7.22-4.46c1.69-1,3.34-.29,4.46,1.64ZM389.26,631c-1.56-.58-3.23-.87-4.91-1.31-1.71.44-3.41.75-5,1.31a3.23,3.23,0,0,0-1.73,5q1.83,3,3.76,5.93a3.26,3.26,0,0,0,5.76,0c1.31-2,2.57-4,3.81-6A3.2,3.2,0,0,0,389.26,631Zm-5,9.12c-1.28-2-2.47-3.88-3.76-5.91a9.26,9.26,0,0,1,7.51,0Zm-14.4,6q-.48-3-1.09-6a2.89,2.89,0,0,0-3.73-2.29,10.27,10.27,0,0,0-6.64,6.07,2.74,2.74,0,0,0,1.38,3.7c2.26.8,4.61,1.35,6.45,1.87C368.67,649.57,370.15,648,369.86,646.11Zm-8-1.39a6.71,6.71,0,0,1,3.68-3.4l.83,4.58Zm48.39-1.16a10.34,10.34,0,0,0-6.3-5.67,2.84,2.84,0,0,0-3.85,2q-.74,3.2-1.16,6.44c-.22,1.72,1.18,3.12,3.39,3.14,1.72-.46,3.92-1,6.07-1.64A2.92,2.92,0,0,0,410.21,643.56Zm-7.79,2.35c.29-1.58.54-3,.83-4.59a6.81,6.81,0,0,1,3.7,3.4Zm15.1,4.29a36.19,36.19,0,0,1-2.43,4,1.86,1.86,0,0,1-1.82,0,2.05,2.05,0,0,1-.69-1.81,10.52,10.52,0,0,1,1.67-3.22,2,2,0,0,1,1.78-.48C416.56,648.9,416.93,649.6,417.52,650.2Zm-64.07,11a12.08,12.08,0,0,1-3.33,1.71,2,2,0,0,1-1.7-.74,1.83,1.83,0,0,1,0-1.73,43.17,43.17,0,0,1,4.06-2.56c.62.61,1.34,1,1.48,1.52A2.07,2.07,0,0,1,353.45,661.19Zm.72-6.6c-.7,0-1.13-.84-1.48-1.69-.47-1.14-1.72-2.13-.83-3.57a1.61,1.61,0,0,1,2.71-.07,17.47,17.47,0,0,1,1.66,3.25C356.62,653.55,355.72,654.61,354.17,654.59Zm66.17,7.55a2.08,2.08,0,0,1-1.79.73,10.57,10.57,0,0,1-3.23-1.67,2,2,0,0,1-.51-1.78c.16-.56.89-.95,1.48-1.52a36.68,36.68,0,0,1,4,2.41A1.9,1.9,0,0,1,420.34,662.14Zm6.91,78.67a3.32,3.32,0,0,1-2.69-1.5,7.18,7.18,0,0,1,2.23-11.06l1-.64,0,0c-.12-.21-.22-.41-.34-.59L425,722.93c-2-3.19-3.93-6.38-5.87-9.59-.32-.52-.47-.63-1.12-.46-3.56,1-7,.1-10.24-1-5-1.67-9.2-5-13-10a121.84,121.84,0,0,1-16.27-29.53c-1-2.59-.46-4.16,1.86-5.6l17.91-11.07c2.6-1.61,4.08-1.4,6.09.86,1.55,1.73,3,3.49,4.45,5.15,1,1.16,1,2.44,0,3.26-.58.5-1.78,1.09-3.19-.56-1.09-1.25-2.17-2.51-3.26-3.79L401,658.92l-18.69,11.55A113.78,113.78,0,0,0,393,692l1-.37c.85-.34,1.69-.66,2.54-1a2.1,2.1,0,1,1,1.51,3.89l-1.6.64-1,.4.2.28c3,4.38,6.2,8.91,11.37,11.26a21.4,21.4,0,0,0,7.71,2,6,6,0,0,0,6.13-3.79,20.93,20.93,0,0,0,1-13.36,4.29,4.29,0,0,0-.43.16,22.53,22.53,0,0,1-13.7,1.62c-.47-.08-.94-.14-1.4-.2l-.87-.11a2.07,2.07,0,0,1-1.23-3.66,2.32,2.32,0,0,1,1.72-.47c.72.07,1.43.18,2.15.29l1.5.22A18.11,18.11,0,0,0,420.41,688a109.81,109.81,0,0,0-9.2-16.1l-.31-.45c-.18-.26-.37-.53-.54-.79a2.09,2.09,0,1,1,3.45-2.33q.65.88,1.26,1.8a115.71,115.71,0,0,1,9.15,16.17,25,25,0,0,1,.65,20.08,18.18,18.18,0,0,1-1.7,3.1c-.26.43-.54.86-.8,1.31l9,14.65.5-.3,1.22-.73a7.06,7.06,0,0,1,5.85-.64,7.78,7.78,0,0,1,4.62,4.65h0a3,3,0,0,1-1.27,3.68c-4.58,2.87-9.09,5.66-13.41,8.29A3.15,3.15,0,0,1,427.25,740.81Zm-8.83-28.74a1.45,1.45,0,0,1,1.3.89q2.92,4.8,5.87,9.59l2.49,4.05c.13.2.24.4.36.62l.36.64-1.61,1a6.45,6.45,0,0,0-2,10,2.41,2.41,0,0,0,3.35.82c4.31-2.62,8.82-5.41,13.4-8.28a2.25,2.25,0,0,0,1-2.77h0a7,7,0,0,0-4.17-4.23,6.32,6.32,0,0,0-5.23.58l-1.21.73-1.13.68-9.64-15.66.11-.19c.31-.53.63-1,.94-1.52a18.22,18.22,0,0,0,1.62-3,24.18,24.18,0,0,0-.63-19.5,113.18,113.18,0,0,0-9.09-16.06c-.4-.6-.81-1.2-1.24-1.79a1.4,1.4,0,0,0-2-.55,1.39,1.39,0,0,0-.18,2c.16.26.34.52.52.77l.32.46a112.13,112.13,0,0,1,9.4,16.53l.15.32-.31.16a18.75,18.75,0,0,1-11.57,2.1c-.51-.06-1-.14-1.53-.22-.7-.1-1.4-.21-2.11-.29a1.6,1.6,0,0,0-1.17.31,1.33,1.33,0,0,0,.87,2.35c.28,0,.56.08.85.11.48.06,1,.12,1.45.21a21.83,21.83,0,0,0,13.25-1.56,5.14,5.14,0,0,1,.59-.22l.67-.23.1.39a21.75,21.75,0,0,1-1,14.21,6.74,6.74,0,0,1-6.86,4.25,22.27,22.27,0,0,1-8-2.09c-5.35-2.43-8.56-7-11.67-11.5l-.59-.85.3-.29a.76.76,0,0,1,.27-.2l1.17-.46,1.59-.64c1-.4,1.36-1.07,1-1.86s-1-1-2-.64-1.67.63-2.52,1l-1.53.59-.17-.25a114.56,114.56,0,0,1-11.07-22.18l-.11-.29L401.1,658l1.84,2.15q1.62,1.9,3.25,3.79c1,1.19,1.72.85,2.15.48.65-.55.61-1.38-.11-2.22-1.4-1.65-2.89-3.41-4.43-5.14-1.76-2-2.87-2.13-5.15-.72l-17.91,11.07c-2,1.26-2.42,2.44-1.56,4.7a121.28,121.28,0,0,0,16.17,29.36c3.69,5,7.81,8.14,12.62,9.77,3.59,1.22,6.63,1.85,9.8,1A2.4,2.4,0,0,1,418.42,712.07ZM341.7,740.5a3.07,3.07,0,0,1-1.61-.45c-4.6-2.8-9.11-5.59-13.4-8.29a4.44,4.44,0,0,1-1-1.08,4.66,4.66,0,0,0-.39-.49l-.09-.11v-1.85l.05-.08a8.19,8.19,0,0,1,4.52-4.39,7,7,0,0,1,5.95.62c.44.25.87.52,1.34.81l.33.21,7.23-11.74,1.82-2.95c-5-7.21-5.79-15.05-2.3-23.33,4.65-11,11.46-21.31,20.82-31.45a3.64,3.64,0,0,1,4.85-.69c2.84,1.72,5.62,3.44,8.91,5.5a2.52,2.52,0,0,1,1.19,1.52,2,2,0,0,1-.31,1.53,2.15,2.15,0,0,1-3.13.46l-6.21-3.84-2.4-1.48a114.85,114.85,0,0,0-19.49,29,15.69,15.69,0,0,0,10.4,1.87,26.69,26.69,0,0,1,16.8,2.08,1.23,1.23,0,0,0,.23.08l.8-1.33c.69-1.15,1.38-2.3,2.09-3.43a2,2,0,0,1,2.79-.78h0a2.06,2.06,0,0,1,.8,2.87,6,6,0,0,1-.37.65l-2.49,3.68c-2.19,3.26-4.47,6.64-6.78,9.92a22.23,22.23,0,0,1-3,3.17c-.22.2-.45.41-.66.62a2.65,2.65,0,0,1-1.94.84,2,2,0,0,1-1.41-.77c-.8-1-.56-2.2.62-3.2a36.37,36.37,0,0,0,5.74-6.74c.45-.63.9-1.26,1.37-1.89a19.82,19.82,0,0,0-7.81-2.13,20.23,20.23,0,0,0-4.28.26A22.68,22.68,0,0,1,347,692l-.24-.1c-.05.48-.12.94-.18,1.4a19.64,19.64,0,0,0-.28,3.84,31.77,31.77,0,0,0,1.21,7c1.19,3.94,3.91,5.55,8.08,4.8,1.21-.21,2.43-.56,3.61-.89l.7-.2c1.44-.4,2.5,0,2.92,1.19a1.92,1.92,0,0,1-.06,1.56,2.49,2.49,0,0,1-1.51,1.2c-3.58,1.17-7.11,2.12-10.91,1a.74.74,0,0,0-.4.14c-2.73,4.38-5.44,8.78-8.18,13.24l-.86,1.4.38.25c.51.32,1,.63,1.48,1a7.15,7.15,0,0,1,1.33,10.58A3.22,3.22,0,0,1,341.7,740.5Zm-15.78-10.69c.11.13.22.28.32.42a3.67,3.67,0,0,0,.84.9c4.29,2.7,8.8,5.49,13.4,8.29a2.35,2.35,0,0,0,3.07-.54,6.42,6.42,0,0,0,1.53-5,6.34,6.34,0,0,0-2.71-4.45c-.47-.33-.95-.63-1.45-.95l-1-.63,1.25-2c2.74-4.46,5.45-8.86,8.18-13.24a1.28,1.28,0,0,1,1.24-.46c3.6,1.07,7,.14,10.47-1a1.7,1.7,0,0,0,1.07-.83,1.23,1.23,0,0,0,0-1c-.36-1-1.3-.92-2-.72l-.7.2c-1.2.33-2.43.68-3.68.9-4.54.82-7.62-1-8.92-5.31a32.15,32.15,0,0,1-1.24-7.19,20.89,20.89,0,0,1,.28-4c.09-.6.17-1.21.23-1.83l0-.47.8.28.4.14a21.91,21.91,0,0,0,13.8,1.67,20,20,0,0,1,13,2.12l.41.2-.27.36c-.56.74-1.1,1.49-1.64,2.24a36.63,36.63,0,0,1-5.86,6.88c-.51.43-1.25,1.28-.52,2.16a1.22,1.22,0,0,0,.88.5,2,2,0,0,0,1.38-.64l.66-.63a20.57,20.57,0,0,0,2.86-3c2.31-3.27,4.58-6.64,6.78-9.91l2.48-3.68a4.37,4.37,0,0,0,.32-.55,1.33,1.33,0,0,0-.49-1.9h0a1.29,1.29,0,0,0-1.8.52c-.71,1.13-1.4,2.28-2.08,3.42l-.95,1.57-.14.24-.51-.14a1.85,1.85,0,0,1-.38-.13,26,26,0,0,0-16.35-2,16.61,16.61,0,0,1-11.2-2.11l-.3-.17.14-.31a115.57,115.57,0,0,1,20-29.75l.2-.22,2.92,1.8,6.21,3.84c.88.54,1.68.45,2.12-.24a1.25,1.25,0,0,0,.2-1,1.75,1.75,0,0,0-.85-1c-3.29-2.06-6.06-3.78-8.91-5.49a2.87,2.87,0,0,0-3.91.55c-9.31,10.08-16.07,20.3-20.69,31.24-3.41,8.1-2.62,15.77,2.37,22.81l.14.2-2.08,3.37L337.8,726.1l-.19.32-1-.6c-.46-.28-.89-.55-1.32-.79a6.19,6.19,0,0,0-5.34-.57,7.41,7.41,0,0,0-4.06,4Zm101.56,7.39-.21-.26a3.94,3.94,0,0,1-.91-3,3.24,3.24,0,0,1,1.46-2.19c2.37-1.58,4.81-3.08,7.24-4.47,1.82-1,3.73-.36,5,1.77l.18.31-.31.19L427.76,737Zm9.29-9.69a2.72,2.72,0,0,0-1.35.38c-2.41,1.38-4.83,2.88-7.19,4.44a2.46,2.46,0,0,0-1.13,1.7,3,3,0,0,0,.56,2.18l11.53-7.12A3,3,0,0,0,436.77,727.51ZM341.58,737,328.76,729l.2-.32c1.15-1.88,3-2.46,4.76-1.46,2.3,1.32,4.71,2.8,7.16,4.41h0c1.66,1.09,2,3,.88,4.94Zm-11.79-8.15,11.51,7.1a2.6,2.6,0,0,0-.83-3.61h0c-2.44-1.6-4.83-3.08-7.12-4.39A2.55,2.55,0,0,0,329.79,728.8Zm20.12-65.51a2.51,2.51,0,0,1-1.79-.91c-.36-.49-.45-1.85.05-2.25a27.91,27.91,0,0,1,2.91-1.87l1.19-.7.24-.15.21.2a6.53,6.53,0,0,0,.59.5,2.67,2.67,0,0,1,1,1.18,2.39,2.39,0,0,1-.63,2.19h0a12.08,12.08,0,0,1-3.44,1.77A1.12,1.12,0,0,1,349.91,663.29Zm2.5-4.95-1,.56a27.38,27.38,0,0,0-2.82,1.82,1.79,1.79,0,0,0,.09,1.23,1.65,1.65,0,0,0,1.29.59,11.3,11.3,0,0,0,3.22-1.65,1.78,1.78,0,0,0,.35-1.41c-.06-.24-.38-.49-.74-.79Zm66.38,4.93a1.34,1.34,0,0,1-.35,0,10.84,10.84,0,0,1-3.34-1.72,2.38,2.38,0,0,1-.65-2.18,2.69,2.69,0,0,1,1-1.21l.55-.47.2-.2.24.14,1.21.68a20.6,20.6,0,0,1,2.81,1.76,2.17,2.17,0,0,1,.16,2.33h0A2.63,2.63,0,0,1,418.79,663.27Zm-2.45-4.91-.39.32c-.36.3-.71.57-.79.85a1.7,1.7,0,0,0,.39,1.38,10.12,10.12,0,0,0,3.11,1.6,1.79,1.79,0,0,0,1.38-.58h0a1.73,1.73,0,0,0,0-1.33,20.86,20.86,0,0,0-2.71-1.69ZM354.19,655h0c-1,0-1.54-1.25-1.81-1.92a6.4,6.4,0,0,0-.46-.84c-.5-.81-1.12-1.81-.34-3.06a2,2,0,0,1,1.69-1,1.84,1.84,0,0,1,1.64.88,17.93,17.93,0,0,1,1.7,3.32,1.72,1.72,0,0,1-.2,1.6A2.61,2.61,0,0,1,354.19,655Zm0-.74h0a1.88,1.88,0,0,0,1.58-.67.94.94,0,0,0,.11-.9,16.13,16.13,0,0,0-1.62-3.18,1.2,1.2,0,0,0-1-.54,1.25,1.25,0,0,0-1.06.6c-.51.82-.2,1.4.34,2.28a5.79,5.79,0,0,1,.51,1c.3.72.67,1.46,1.13,1.46h0Zm60,.64a2,2,0,0,1-1.13-.29,2.44,2.44,0,0,1-.82-2.22A10.9,10.9,0,0,1,414,649a2.38,2.38,0,0,1,2.17-.62,2.5,2.5,0,0,1,1.17,1,6.37,6.37,0,0,0,.5.57l.2.2-.15.25c-.24.41-.47.82-.69,1.22a23.46,23.46,0,0,1-1.76,2.84A1.58,1.58,0,0,1,414.18,654.86Zm1.48-5.77a1.68,1.68,0,0,0-1.12.37,10.12,10.12,0,0,0-1.6,3.11,1.74,1.74,0,0,0,.55,1.41,1.7,1.7,0,0,0,1.31,0,21.3,21.3,0,0,0,1.7-2.74l.56-1-.34-.41c-.28-.34-.54-.66-.78-.72A1.27,1.27,0,0,0,415.66,649.09Zm-13.32.78h0a4,4,0,0,1-3.07-1.25,2.91,2.91,0,0,1-.69-2.31c.27-2.09.66-4.27,1.17-6.47a3.15,3.15,0,0,1,1.54-2.11,3.38,3.38,0,0,1,2.79-.19,10.74,10.74,0,0,1,6.52,5.87,3.56,3.56,0,0,1,.11,3,3.41,3.41,0,0,1-2.19,1.81c-1.56.47-3.14.88-4.53,1.24l-1.55.4Zm.47-11.8a2.42,2.42,0,0,0-1.21.31,2.48,2.48,0,0,0-1.18,1.62c-.5,2.18-.89,4.34-1.16,6.41a2.16,2.16,0,0,0,.52,1.73,3.29,3.29,0,0,0,2.47,1l1.5-.39c1.39-.36,3-.77,4.5-1.23a2.64,2.64,0,0,0,1.74-1.4,2.94,2.94,0,0,0-.11-2.4h0a10,10,0,0,0-6.09-5.47A3.11,3.11,0,0,0,402.81,638.07Zm-36.35,11.78h-.33l-1.67-.46c-1.49-.39-3.17-.84-4.8-1.42a2.74,2.74,0,0,1-1.59-1.49,3.46,3.46,0,0,1,0-2.7,10.56,10.56,0,0,1,6.86-6.28,3.19,3.19,0,0,1,2.6.26,3.45,3.45,0,0,1,1.61,2.3c.4,1.91.76,3.94,1.09,6h0a3.08,3.08,0,0,1-.73,2.59A4,4,0,0,1,366.46,649.85Zm-.17-.75a3.32,3.32,0,0,0,2.65-1,2.37,2.37,0,0,0,.55-2h0c-.33-2.07-.69-4.08-1.09-6a2.65,2.65,0,0,0-1.26-1.8,2.39,2.39,0,0,0-2-.21,9.91,9.91,0,0,0-6.41,5.86,2.71,2.71,0,0,0,0,2.11,2,2,0,0,0,1.16,1.1c1.6.57,3.27,1,4.74,1.41ZM402,646.42l1-5.62.43.18a7.22,7.22,0,0,1,3.89,3.57l.2.41Zm1.58-4.57-.64,3.55,3.51-.92A6.33,6.33,0,0,0,403.53,641.85ZM366.8,646.4,361.29,645l.2-.4a7.05,7.05,0,0,1,3.86-3.58l.43-.18Zm-4.44-1.92,3.5.91-.64-3.53A6.15,6.15,0,0,0,362.36,644.48Zm21.9-.37h0a3.87,3.87,0,0,1-3.2-1.92c-1.24-1.88-2.5-3.88-3.77-5.94a3.86,3.86,0,0,1-.47-3.34,3.74,3.74,0,0,1,2.4-2.23,33.57,33.57,0,0,1,3.5-.95l1.55-.37.09,0,.09,0c.52.14,1,.26,1.56.38a25.83,25.83,0,0,1,3.38.94h0a3.7,3.7,0,0,1,2.34,2.22,3.86,3.86,0,0,1-.47,3.29c-1.33,2.18-2.58,4.16-3.82,6A3.84,3.84,0,0,1,384.26,644.11Zm.09-14-1.47.36a29,29,0,0,0-3.42.92,3,3,0,0,0-1.95,1.78,3.16,3.16,0,0,0,.4,2.71c1.26,2,2.53,4,3.76,5.91a3.16,3.16,0,0,0,2.59,1.59h0a3.11,3.11,0,0,0,2.55-1.55c1.23-1.87,2.48-3.84,3.8-6a3.13,3.13,0,0,0,.41-2.66,3,3,0,0,0-1.89-1.77h0a28.89,28.89,0,0,0-3.3-.91C385.34,630.35,384.84,630.23,384.35,630.1Zm-.09,10.74-.32-.49c-1.27-2-2.47-3.88-3.75-5.91l-.24-.37.41-.17a9.57,9.57,0,0,1,7.79,0l.41.16Zm-3.21-6.42c1.09,1.72,2.13,3.34,3.21,5l3.19-5.06A8.83,8.83,0,0,0,381.05,634.42Z"/></g></svg>